<?xml version="1.0" encoding="utf-8"?>
<!-- Generator: Adobe Illustrator 16.0.0, SVG Export Plug-In . SVG Version: 6.00 Build 0)  -->
<!DOCTYPE svg PUBLIC "-//W3C//DTD SVG 1.1//EN" "http://www.w3.org/Graphics/SVG/1.1/DTD/svg11.dtd">
<svg version="1.1" id="Layer_1" xmlns="http://www.w3.org/2000/svg" xmlns:xlink="http://www.w3.org/1999/xlink" x="0px" y="0px"
	 width="5px" height="13px" viewBox="0 0 5 13" enable-background="new 0 0 5 13" xml:space="preserve">
<g display="none">
	<g display="inline">
		<path fill="#9d498c" d="M0,10.005h2V0h1v10.005h2v0.487c-0.609,0.546-1.297,0.897-1.612,1.291C3.073,12.175,2.816,12.581,2.617,13
			H2.325c-0.158-0.363-0.395-0.75-0.714-1.16C1.291,11.431,0.613,11.05,0,10.487V10.005z"/>
	</g>
</g>
<g>
	<g>
		<path fill="#9d498c" d="M0,10h2V0h1v10h2v0.488c-0.609,0.547-1.297,0.899-1.611,1.293C3.073,12.174,2.816,12.58,2.617,13H2.325
			c-0.158-0.363-0.395-0.752-0.714-1.162C1.291,11.428,0.613,11.046,0,10.482V10z"/>
	</g>
</g>
</svg>
