<?xml version="1.0" encoding="utf-8"?>
<!-- Generator: Adobe Illustrator 16.0.0, SVG Export Plug-In . SVG Version: 6.00 Build 0)  -->
<!DOCTYPE svg PUBLIC "-//W3C//DTD SVG 1.1//EN" "http://www.w3.org/Graphics/SVG/1.1/DTD/svg11.dtd">
<svg version="1.1" id="Layer_1" xmlns="http://www.w3.org/2000/svg" xmlns:xlink="http://www.w3.org/1999/xlink" x="0px" y="0px"
	 width="5px" height="13px" viewBox="0 0 5 13" enable-background="new 0 0 5 13" xml:space="preserve">
<g>
	<g>
		<path fill="#85BA54" d="M0,2.513C0.613,1.95,1.291,1.569,1.611,1.16C1.931,0.75,2.167,0.363,2.325,0h0.292
			c0.199,0.419,0.456,0.825,0.771,1.217C3.703,1.61,4.391,1.961,5,2.507v0.487H3V13H2V2.995H0V2.513z"/>
	</g>
</g>
<g display="none">
	<g display="inline">
		<path fill="#85BA54" d="M0,2.518c0.613-0.564,1.291-0.946,1.611-1.356C1.931,0.752,2.167,0.363,2.325,0h0.292
			c0.199,0.42,0.456,0.826,0.771,1.219C3.703,1.613,4.391,1.965,5,2.512V3H3v10H2V3H0V2.518z"/>
	</g>
</g>
</svg>
