<svg preserveAspectRatio="xMinYMin meet" viewBox="0 0 1255 912" xmlns="http://www.w3.org/2000/svg"><path fill="#262626" d="M137.7 226.4V240l-8.8-13.5h-4V246h4v-13.4l8.8 13.4h4v-19.6h-4zM154.5 226.2c-5.6 0-10 4.1-10 10s4.4 10 10 10c5.3 0 8.8-3.7 9.6-7.6V235h-10.6v3h6.8c-.6 2.8-2.6 4.5-5.6 4.5-3.6 0-6.1-2.4-6.1-6.4 0-3.9 2.4-6.4 6-6.4 2 0 3.6.9 4.5 2.5h4.5c-1.2-3.9-4.7-6.1-9-6.1zM178.7 246h4.5l-6.2-9.7 6.1-9.8h-4.4l-3.8 6.5-4.2-6.5H166l6.3 9.6-6.2 9.9h4.5l3.8-6.6 4.2 6.6zM186.3 237.7H198v-3.3h-11.8v3.3zM201.5 238.2c0 4.8 3.2 8 7 8 2.5 0 4.3-1.1 5.2-2.5v2.3h4v-15.5h-4v2.2a6.1 6.1 0 00-5-2.5c-4 0-7.2 3.1-7.2 8zm12.2 0c0 3-2 4.6-4 4.6-2.2 0-4.2-1.7-4.2-4.6 0-3 2-4.5 4.1-4.5 2.2 0 4.1 1.6 4.1 4.5zM220.5 238.2c0 4.8 3.1 8 7 8 2.5 0 4.3-1 5.2-2.5v2.3h4v-20.7h-4v7.3c-1-1.4-3-2.4-5-2.4-4 0-7.2 3.1-7.2 8zm12.2 0c0 3-2 4.6-4.1 4.6-2.1 0-4-1.7-4-4.6 0-3 1.9-4.5 4-4.5s4.1 1.6 4.1 4.5zM262.2 246h4v-9.1c0-4.3-2.7-6.6-6.4-6.6a6.1 6.1 0 00-5.4 3c-1-2-3-3-5.4-3-2 0-3.6.8-4.6 2v-1.8h-4V246h4v-8.6c0-2.4 1.4-3.7 3.5-3.7 2 0 3.5 1.3 3.5 3.7v8.6h3.9v-8.6c0-2.4 1.3-3.7 3.4-3.7 2.1 0 3.5 1.3 3.5 3.7v8.6zM269.8 246h4v-15.5h-4V246zm2-17.4c1.4 0 2.4-1 2.4-2.3 0-1.2-1-2.3-2.4-2.3s-2.4 1-2.4 2.3c0 1.3 1 2.3 2.4 2.3zM288.5 246h3.9v-9.1c0-4.3-2.6-6.6-6.2-6.6-2 0-3.7.8-4.7 2.1v-2h-3.9V246h4v-8.6c0-2.5 1.3-3.8 3.4-3.8 2.1 0 3.5 1.3 3.5 3.8v8.6zM301.8 238.2c0 4.8 3.1 8 7 8 2.5 0 4.3-1 5.2-2.5v2.3h4v-20.7h-4v7.3c-1-1.4-3-2.4-5-2.4-4 0-7.2 3.1-7.2 8zm12.2 0c0 3-2 4.6-4.1 4.6-2.1 0-4.1-1.7-4.1-4.6 0-3 2-4.5 4-4.5 2.2 0 4.2 1.6 4.2 4.5zM320.8 238.2c0 4.8 3.1 8 7 8 2.5 0 4.3-1.1 5.2-2.5v2.3h4v-15.5h-4v2.2a6.1 6.1 0 00-5.1-2.5c-4 0-7.1 3.1-7.1 8zm12.2 0c0 3-2 4.6-4.1 4.6-2.1 0-4.1-1.7-4.1-4.6 0-3 2-4.5 4-4.5 2.2 0 4.2 1.6 4.2 4.5zM352.8 241.6c-.1-5.7-8.7-4-8.7-6.8 0-.9.7-1.5 2.2-1.5 1.5 0 2.5.9 2.6 2h3.8c-.3-3-2.5-5-6.3-5s-6.1 2-6.1 4.6c0 5.7 8.7 3.9 8.7 6.7 0 .9-.8 1.6-2.3 1.6-1.6 0-2.7-1-2.8-2.1h-4c.2 2.9 2.9 5.2 6.8 5.2 3.8 0 6.1-2 6.1-4.7zM356 246h4v-8.6c0-2.5 1.3-3.8 3.4-3.8 2.1 0 3.5 1.3 3.5 3.8v8.6h3.9v-9.1c0-4.3-2.5-6.6-6-6.6a6 6 0 00-4.9 2.1v-7.1H356V246zM378.4 232.8v-7.5h-3.9V246h4v-2.2c.9 1.3 2.6 2.5 5 2.5 4 0 7.2-3.3 7.2-8.1 0-4.9-3.2-8-7.1-8a6 6 0 00-5.2 2.6zm8.3 5.4c0 3-2 4.6-4.2 4.6-2 0-4-1.6-4-4.6 0-2.9 2-4.5 4-4.5 2.2 0 4.2 1.5 4.2 4.5zM408.5 238.2c0-4.9-3.5-8-8-8s-8 3.1-8 8c0 5 3.4 8 7.9 8s8-3 8-8zm-12 0c0-3 1.9-4.5 4-4.5 2 0 4 1.4 4 4.5s-2 4.6-4.1 4.6c-2.1 0-3.9-1.5-3.9-4.6zM410.4 238.2c0 4.8 3 8 7 8 2.5 0 4.2-1.1 5.2-2.5v2.3h4v-15.5h-4v2.2a6.1 6.1 0 00-5.2-2.5c-4 0-7 3.1-7 8zm12.2 0c0 3-2 4.6-4.2 4.6-2 0-4-1.7-4-4.6 0-3 2-4.5 4-4.5 2.2 0 4.2 1.6 4.2 4.5zM434.3 238.3c0-3 1.4-4 3.7-4h1v-4c-2.1 0-3.8 1-4.7 2.6v-2.4h-4V246h4v-7.7zM440.6 238.2c0 4.8 3.2 8 7.1 8 2.5 0 4.2-1 5.1-2.5v2.3h4v-20.7h-4v7.3c-1-1.4-3-2.4-5-2.4-4 0-7.2 3.1-7.2 8zm12.3 0c0 3-2 4.6-4.2 4.6-2 0-4-1.7-4-4.6 0-3 2-4.5 4-4.5 2.2 0 4.2 1.6 4.2 4.5z" class="card-header"/><path fill-opacity=".6" fill="#262626" d="M121 264.4c0-3.3-2.6-5.7-5.7-5.7a5.6 5.6 0 00-5.7 5.7c0 3.4 2.5 5.7 5.7 5.7 3.1 0 5.7-2.3 5.7-5.7zm-9.5 0c0-2.5 1.6-4 3.8-4 2.2 0 3.8 1.5 3.8 4s-1.6 4.1-3.8 4.1c-2.2 0-3.8-1.6-3.8-4zM124.6 262.5v-1.3h-1.9v13h1.9v-5.5a4 4 0 003 1.4c2.4 0 4.2-1.8 4.2-4.5 0-2.8-1.8-4.6-4.2-4.6-1.4 0-2.5.7-3 1.5zm5.3 3c0 2-1.3 3-2.7 3-1.3 0-2.6-1-2.6-3 0-1.8 1.3-2.9 2.6-2.9 1.4 0 2.7 1 2.7 3zM137.3 262.6c1.4 0 2.4.8 2.5 2.2h-5c.3-1.4 1.3-2.2 2.5-2.2zm4.1 4.8h-2c-.3.7-.9 1.2-2 1.2-1.4 0-2.4-.9-2.5-2.3h6.7v-1c0-2.5-1.7-4.3-4.2-4.3-2.6 0-4.4 1.8-4.4 4.6s1.9 4.5 4.4 4.5c2.1 0 3.5-1.2 4-2.7zM149.7 270h1.8v-5.2c0-2.5-1.5-3.8-3.6-3.8-1 0-2 .5-2.6 1.2v-1h-1.8v8.8h1.8v-5c0-1.5.9-2.4 2.2-2.4 1.3 0 2.2.9 2.2 2.5v4.9zM165.5 266.8c0-4-5.9-2.4-5.9-5 0-1 .8-1.5 1.9-1.5 1.2 0 1.8.7 1.9 1.5h2c-.2-2-1.7-3-3.8-3-2.3 0-3.8 1.2-3.8 3.1 0 4.1 5.9 2.4 5.9 5 0 1-.7 1.7-2 1.7s-2-.8-2-1.7h-2c0 2 1.8 3.2 4 3.2 2.5 0 3.8-1.6 3.8-3.3zM176 265.6c0-2.8-2-4.6-4.4-4.6a4.3 4.3 0 00-4.5 4.6c0 2.8 1.9 4.5 4.4 4.5 2.5 0 4.6-1.7 4.6-4.5zm-7 0c0-2 1.2-3 2.5-3 1.4 0 2.7 1 2.7 3s-1.3 3-2.7 3c-1.4 0-2.6-1-2.6-3zM185.9 261.2H184v4.9c0 1.6-.8 2.4-2.2 2.4-1.3 0-2.2-.8-2.2-2.4v-5h-1.8v5.3c0 2.4 1.6 3.7 3.6 3.7 1 0 2-.4 2.6-1.2v1.1h1.9v-8.8zM190 265.4c0-2 1-2.5 2.3-2.5h.4V261c-1.2 0-2.1.6-2.6 1.5v-1.3h-1.8v8.8h1.8v-4.6zM193.8 265.6c0 2.8 1.8 4.5 4.3 4.5 2.2 0 3.6-1.2 4-2.9h-1.9c-.3 1-1 1.4-2 1.4-1.6 0-2.5-1-2.5-3s1-3 2.4-3c1.1 0 1.8.5 2.1 1.4h2c-.5-1.9-2-3-4-3-2.6 0-4.4 1.8-4.4 4.6zM207.7 262.6c1.4 0 2.4.8 2.5 2.2h-5c.3-1.4 1.3-2.2 2.5-2.2zm4.1 4.8h-2c-.3.7-.9 1.2-2 1.2-1.4 0-2.4-.9-2.5-2.3h6.7v-1c0-2.5-1.7-4.3-4.2-4.3-2.6 0-4.4 1.8-4.4 4.6s1.9 4.5 4.4 4.5c2.1 0 3.5-1.2 4-2.7zM219.9 262.5v-1.3H218v13h1.9v-5.5a4 4 0 003 1.4c2.3 0 4.2-1.8 4.2-4.5 0-2.8-1.9-4.6-4.2-4.6-1.4 0-2.5.7-3 1.5zm5.3 3c0 2-1.3 3-2.7 3-1.3 0-2.6-1-2.6-3 0-1.8 1.3-2.9 2.6-2.9 1.4 0 2.7 1 2.7 3zM228.3 265.6c0 2.7 1.8 4.5 4 4.5 1.6 0 2.6-.7 3.2-1.4v1.3h1.8v-8.8h-1.8v1.3a3.8 3.8 0 00-3-1.5c-2.4 0-4.2 1.8-4.2 4.6zm7.2 0c0 1.9-1.3 3-2.7 3-1.4 0-2.7-1.1-2.7-3 0-2 1.3-3 2.7-3 1.4 0 2.7 1.1 2.7 3zM241.5 265.4c0-2 .9-2.5 2.2-2.5h.5V261c-1.3 0-2.1.6-2.7 1.5v-1.3h-1.8v8.8h1.8v-4.6zM246.1 267.6c0 1.7 1 2.4 2.6 2.4h1.4v-1.5h-1c-.9 0-1.1-.3-1.1-1v-4.8h2.1v-1.5H248V259H246v2.2h-1v1.5h1v4.9zM261.9 273v-.2a12.4 12.4 0 01-3.4-8.6c0-3.2 1.1-6.6 3.7-9v-.1h-1.9a12.1 12.1 0 00-3.5 9c0 3.6 1 6.8 3.2 8.9h1.9zM263.8 266c0 2.8 2 4.1 4.3 4.1 2.4 0 4.4-1.3 4.4-4.2v-7h-1.8v7c0 1.8-1 2.6-2.5 2.6-1.6 0-2.6-.8-2.6-2.5v-7.1h-1.8v7zM274.9 270h1.8v-11.1H275V270zM278.7 273v-.2c2.2-2.3 3.3-5.5 3.3-8.6 0-3.2-1.1-6.6-3.7-9v-.1h2c2.4 2.1 3.5 5.6 3.5 9 0 3.6-1.1 6.8-3.3 8.9h-1.8zM294.8 260.1v3.4h-3.2v1.5h3.2v3.3h1.7V265h3.2v-1.5h-3.2V260h-1.7zM308.5 262.5v-4.3h-1.8V270h1.8v-1.3c.6.8 1.7 1.4 3.1 1.4 2.3 0 4.2-1.8 4.2-4.5 0-2.8-1.9-4.6-4.2-4.6-1.4 0-2.5.7-3 1.5zm5.4 3c0 2-1.3 3-2.7 3-1.3 0-2.7-1-2.7-3 0-1.8 1.4-2.9 2.7-2.9 1.4 0 2.7 1 2.7 3zM317 265.6c0 2.7 1.8 4.5 4 4.5 1.6 0 2.6-.7 3.2-1.4v1.3h1.8v-8.8h-1.8v1.3a3.8 3.8 0 00-3-1.5c-2.4 0-4.2 1.8-4.2 4.6zm7.2 0c0 1.9-1.3 3-2.7 3-1.4 0-2.7-1.1-2.7-3 0-2 1.3-3 2.7-3 1.4 0 2.7 1.1 2.7 3zM327.8 265.6c0 2.8 1.8 4.5 4.3 4.5 2.2 0 3.6-1.2 4-2.9h-1.9c-.3 1-1 1.4-2 1.4-1.6 0-2.5-1-2.5-3s1-3 2.4-3c1.1 0 1.8.5 2.1 1.4h2c-.5-1.9-2-3-4-3-2.6 0-4.4 1.8-4.4 4.6zM338 270h1.8v-3.8l3.3 3.8h2.4l-4-4.4 4-4.4H343l-3.2 3.8v-6.8H338V270zM350.6 262.6c1.3 0 2.4.8 2.4 2.2h-4.8c.1-1.4 1.1-2.2 2.4-2.2zm4.1 4.8h-2c-.3.7-1 1.2-2 1.2-1.4 0-2.4-.9-2.6-2.3h6.8v-1c0-2.5-1.7-4.3-4.3-4.3-2.6 0-4.4 1.8-4.4 4.6s2 4.5 4.4 4.5c2.2 0 3.6-1.2 4.1-2.7zM363 270h1.8v-5.2c0-2.5-1.6-3.8-3.6-3.8-1 0-2 .5-2.6 1.2v-1h-1.9v8.8h1.9v-5c0-1.5.8-2.4 2.2-2.4 1.3 0 2.2.9 2.2 2.5v4.9zM366.5 265.6c0 2.7 1.9 4.5 4.2 4.5 1.4 0 2.5-.6 3-1.4v1.3h1.9v-11.8h-1.9v4.2a4 4 0 00-3-1.4c-2.3 0-4.2 1.8-4.2 4.6zm7.2 0c0 1.9-1.3 3-2.6 3-1.4 0-2.7-1.1-2.7-3 0-2 1.3-3 2.7-3 1.3 0 2.6 1.1 2.6 3zM381.5 265.6c0 2.8 1.8 4.5 4.3 4.5 2.2 0 3.6-1.2 4.1-2.9h-2c-.3 1-1 1.4-2 1.4-1.5 0-2.5-1-2.5-3s1-3 2.4-3c1.1 0 1.8.5 2.1 1.4h2c-.5-1.9-2-3-4-3-2.6 0-4.4 1.8-4.4 4.6zM400.1 265.6c0-2.8-2-4.6-4.5-4.6a4.3 4.3 0 00-4.5 4.6c0 2.8 2 4.5 4.4 4.5 2.6 0 4.6-1.7 4.6-4.5zm-7.1 0c0-2 1.2-3 2.6-3 1.3 0 2.6 1 2.6 3s-1.3 3-2.7 3c-1.3 0-2.5-1-2.5-3zM408.2 270h1.8v-5.2c0-2.5-1.6-3.8-3.6-3.8-1 0-2 .5-2.7 1.2v-1H402v8.8h1.8v-5c0-1.5 1-2.4 2.3-2.4 1.3 0 2.2.9 2.2 2.5v4.9zM418.6 270h1.8v-5.2c0-2.5-1.6-3.8-3.6-3.8-1.1 0-2 .5-2.7 1.2v-1h-1.8v8.8h1.8v-5c0-1.5 1-2.4 2.3-2.4 1.3 0 2.2.9 2.2 2.5v4.9zM426.4 262.6c1.4 0 2.4.8 2.5 2.2H424c.2-1.4 1.2-2.2 2.4-2.2zm4.1 4.8h-2c-.3.7-.9 1.2-2 1.2-1.4 0-2.4-.9-2.5-2.3h6.7v-1c0-2.5-1.7-4.3-4.2-4.3-2.6 0-4.4 1.8-4.4 4.6s1.9 4.5 4.4 4.5c2.2 0 3.5-1.2 4-2.7zM432 265.6c0 2.8 1.8 4.5 4.3 4.5 2.1 0 3.6-1.2 4-2.9h-2c-.3 1-1 1.4-2 1.4-1.5 0-2.5-1-2.5-3s1-3 2.5-3c1 0 1.8.5 2 1.4h2c-.4-1.9-1.9-3-4-3-2.5 0-4.3 1.8-4.3 4.6zM442.5 267.6c0 1.7 1 2.4 2.5 2.4h1.4v-1.5h-1c-.8 0-1.1-.3-1.1-1v-4.8h2.1v-1.5h-2.1V259h-1.8v2.2h-1v1.5h1v4.9zM448.1 270h1.8v-8.8h-1.8v8.8zm1-10c.6 0 1.1-.5 1.1-1.2 0-.6-.5-1.1-1.1-1.1-.7 0-1.2.5-1.2 1.1 0 .7.5 1.2 1.2 1.2zM460.7 265.6c0-2.8-2-4.6-4.5-4.6a4.3 4.3 0 00-4.5 4.6c0 2.8 2 4.5 4.5 4.5s4.5-1.7 4.5-4.5zm-7.1 0c0-2 1.2-3 2.6-3 1.4 0 2.7 1 2.7 3s-1.4 3-2.7 3c-1.4 0-2.6-1-2.6-3zM468.8 270h1.8v-5.2c0-2.5-1.5-3.8-3.6-3.8-1 0-2 .5-2.6 1.2v-1h-1.9v8.8h1.9v-5c0-1.5.8-2.4 2.2-2.4 1.3 0 2.2.9 2.2 2.5v4.9z" class="card-subheader"/><path fill="#262626" d="M914.8 240.2c0 1.7-1.1 2.6-3 2.6h-4v-5.3h4c1.8 0 3 1 3 2.7zm-.5-8.1c0 1.6-1 2.4-2.9 2.4H908v-4.9h3.5c1.9 0 3 1 3 2.5zm4.5 8.6c0-2.3-1.6-4.3-3.8-4.7a4.5 4.5 0 003.4-4.5c0-3-2.3-5-6.4-5h-8V246h8.4c4 0 6.4-2.2 6.4-5.3zM921 238.2c0 4.8 3 8 7 8 2.4 0 4.2-1.1 5.1-2.5v2.3h4v-15.5h-4v2.2a6.1 6.1 0 00-5.1-2.5c-4 0-7 3.1-7 8zm12.1 0c0 3-2 4.6-4 4.6-2.2 0-4.2-1.7-4.2-4.6 0-3 2-4.5 4.1-4.5 2.2 0 4.1 1.6 4.1 4.5zM939.9 238.2c0 5 3.2 8 7.7 8 3.8 0 6.4-2.1 7.3-5.4h-4.3c-.4 1.4-1.4 2-3 2-2.2 0-3.7-1.5-3.7-4.6 0-3 1.5-4.6 3.6-4.6 1.7 0 2.7.8 3.1 2.1h4.3c-.9-3.4-3.5-5.5-7.3-5.5-4.5 0-7.7 3.2-7.7 8zM957.7 246h4v-6.6l5.2 6.6h5.1l-6.9-7.7 6.9-7.8h-5.1l-5.2 6.6v-11.8h-4V246zM980.8 233.5c2 0 3.6 1.2 3.7 3.3H977c.3-2.1 1.8-3.3 3.7-3.3zm7.3 7.6H984c-.5 1-1.4 1.9-3.1 1.9-2 0-3.5-1.3-3.7-3.6h11.3l.1-1.5c0-4.6-3.1-7.7-7.6-7.7-4.6 0-7.8 3.1-7.8 8 0 5 3.3 8 7.8 8 3.8 0 6.4-2.2 7.2-5zM1002.2 246h4v-9.1c0-4.3-2.6-6.6-6.2-6.6-2 0-3.7.8-4.7 2.1v-2h-4V246h4v-8.6c0-2.5 1.4-3.8 3.5-3.8 2 0 3.4 1.3 3.4 3.8v8.6zM1008.9 238.2c0 4.8 3.1 8 7 8 2.5 0 4.2-1 5.2-2.5v2.3h4v-20.7h-4v7.3c-1.1-1.4-3-2.4-5.1-2.4-4 0-7.1 3.1-7.1 8zm12.2 0c0 3-2 4.6-4.1 4.6-2.1 0-4.1-1.7-4.1-4.6 0-3 2-4.5 4-4.5 2.2 0 4.2 1.6 4.2 4.5zM604.3 550c0 1.2-.5 1.8-1.4 1.8-1 0-1.6-.6-1.6-2h-3.7c0 3.5 2.2 5.4 5.4 5.4 3 0 5-1.8 5-5.1v-10.5h-3.7V550zM622.3 550.4c0-5.2-7.6-4-7.6-6.6 0-1 .7-1.5 1.6-1.4 1 0 1.7.6 1.7 1.6h4.1c-.1-3-2.4-4.7-5.8-4.7-3.2 0-5.6 1.7-5.6 4.6 0 5.5 7.7 4 7.7 6.8 0 .9-.7 1.4-1.8 1.4-1 0-1.8-.5-2-1.7h-4c.2 3.1 2.7 4.8 6 4.8 3.7 0 5.7-2.2 5.7-4.8zM639.8 547.2c0-4.6-3.5-7.9-7.9-7.9s-8 3.3-8 8c0 4.6 3.6 7.9 8 7.9s8-3.3 8-8zm-12 0c0-2.7 1.6-4.5 4.1-4.5 2.5 0 4 1.8 4 4.5s-1.5 4.5-4 4.5-4-1.8-4-4.5zM652 539.6v9.5l-6.3-9.5h-3.8V555h3.8v-9.5l6.3 9.5h3.7v-15.4H652zM576 547h-11.9l3.7-4.4a1 1 0 10-1.6-1.2l-5 6v.1l-.1.1-.1.4v.4h.1l.1.2 5 6a1 1 0 001.4.2 1 1 0 00.2-1.4L564 549H576a1 1 0 00.7-1.7 1 1 0 00-.7-.3zM679 549h11.9l-3.7 4.4a1 1 0 101.6 1.2l5-6v-.1l.1-.1.1-.4v-.4h-.1l-.1-.2-5-6a1 1 0 00-1.4-.2 1 1 0 00-.2 1.4l3.7 4.4H679a1 1 0 00-.7 1.7c.2.2.4.3.7.3z" class="card-header"/><rect stroke-dasharray="8 8" stroke-width="1.5" stroke="#D4D4D4" fill="#F8F8F8" rx="3.8" height="549.5" width="467.5" y="301.3" x="57.3" class="card-background"/><rect fill="#fff" rx="3" height="52" width="326" y="424" x="128" class="subcard-background"/><path fill="#222" d="M225.9 456l-2.5-4.4h-1v4.4H220v-11.2h4.2c.9 0 1.6.2 2.2.5.6.3 1 .7 1.4 1.2.3.5.4 1.1.4 1.8s-.2 1.4-.6 2c-.4.5-1 1-2 1.2l2.8 4.5h-2.6zm-3.6-6h2c.5 0 1-.2 1.3-.5.3-.3.4-.7.4-1.2s-.1-.9-.4-1.2c-.3-.3-.8-.4-1.4-.4h-1.9v3.3zM232.6 446.6v2.8h3.8v1.8h-3.8v3h4.2v1.8h-6.4v-11.2h6.4v1.8h-4.2zM242.7 456.1c-.8 0-1.5-.1-2-.4-.7-.3-1.2-.6-1.6-1.1a3 3 0 01-.5-1.8h2.4c0 .4.2.8.5 1 .3.3.7.5 1.2.5s1-.2 1.2-.4c.3-.3.5-.6.5-1 0-.3-.1-.6-.3-.8a2 2 0 00-.8-.5l-1.3-.4-1.7-.6c-.5-.3-.9-.6-1.2-1-.3-.4-.5-1-.5-1.7 0-.6.2-1.2.5-1.7a3 3 0 011.4-1.1 5 5 0 012-.4c1.2 0 2.1.3 2.9.8a3 3 0 011.2 2.4H244c0-.4-.2-.7-.5-1-.3-.2-.7-.4-1.2-.4-.4 0-.8.1-1 .4-.3.2-.5.5-.5 1 0 .2.1.5.3.7l.8.5 1.2.4 1.8.6c.5.2.9.6 1.2 1 .3.4.5 1 .5 1.7a3.2 3.2 0 01-1.8 2.9c-.6.3-1.4.4-2.2.4zM256.2 444.8v1.8h-3v9.4H251v-9.4h-3v-1.8h8.2zM265.6 444.8c1.1 0 2.2.3 3 .7 1 .5 1.6 1.1 2.1 2 .5.8.8 1.8.8 3 0 1-.3 2-.8 2.9-.5.8-1.1 1.5-2 2-1 .4-2 .6-3.1.6h-4v-11.2h4zm-.1 9.3c1.2 0 2-.3 2.7-1 .7-.6 1-1.5 1-2.7 0-1.1-.3-2-1-2.7-.6-.6-1.5-1-2.7-1h-1.6v7.4h1.6zM272.6 451.5c0-.9.1-1.7.5-2.3a4 4 0 011.4-1.6 4 4 0 012.1-.6 3.6 3.6 0 013 1.4v-1.3h2.2v8.9h-2.3v-1.3c-.3.4-.7.8-1.2 1-.5.3-1 .4-1.7.4-.8 0-1.4-.1-2-.5-.7-.4-1.1-1-1.5-1.6-.4-.8-.5-1.6-.5-2.5zm7 0c0-.5-.2-1-.4-1.3l-.8-1-1.2-.2a2.3 2.3 0 00-2 1.2c-.2.3-.4.8-.4 1.3 0 .6.2 1 .4 1.4l.8 1 1.2.3 1.2-.3c.3-.2.6-.5.8-1 .2-.3.3-.8.3-1.3zM286.6 449v4.3c0 .3 0 .5.2.6l.7.2h1v1.9h-1.3c-2 0-2.9-1-2.9-2.8V449h-1V447h1V445h2.3v2.2h2v1.9h-2zM289.6 451.5c0-.9.2-1.7.5-2.3a4 4 0 011.5-1.6 4 4 0 012-.6 3.6 3.6 0 013 1.4v-1.3h2.2v8.9h-2.2v-1.3c-.3.4-.7.8-1.2 1-.5.3-1.1.4-1.8.4s-1.4-.1-2-.5c-.6-.4-1.1-1-1.5-1.6-.3-.8-.5-1.6-.5-2.5zm7 0c0-.5-.1-1-.3-1.3l-.9-1-1.2-.2a2.3 2.3 0 00-2 1.2c-.2.3-.3.8-.3 1.3a2.5 2.5 0 001.2 2.3c.3.3.7.4 1.1.4l1.2-.3c.4-.2.6-.5.9-1 .2-.3.3-.8.3-1.3zM311.7 453.9h-4.5l-.7 2.1h-2.3l4-11.2h2.6l4 11.2h-2.4l-.7-2.1zm-.6-1.8l-1.6-4.7-1.7 4.7h3.3zM315.7 451.6c0-1 .2-1.7.6-2.4a4 4 0 011.5-1.6c.7-.4 1.4-.6 2.3-.6 1.1 0 2 .3 2.7.8a4 4 0 011.5 2.3h-2.4c-.2-.4-.4-.7-.7-.9-.3-.2-.7-.3-1.1-.3-.7 0-1.2.2-1.5.7a3 3 0 00-.6 2c0 .8.2 1.5.6 2 .3.4.8.6 1.5.6.9 0 1.5-.4 1.8-1.2h2.4a4 4 0 01-1.5 2.3c-.7.6-1.6.8-2.7.8-.9 0-1.6-.1-2.3-.5a4 4 0 01-1.5-1.6 5 5 0 01-.6-2.4zM325.3 451.6c0-1 .2-1.7.6-2.4a4 4 0 011.6-1.6c.6-.4 1.4-.6 2.2-.6 1.1 0 2 .3 2.7.8a4 4 0 011.5 2.3h-2.4c-.1-.4-.4-.7-.7-.9-.3-.2-.6-.3-1-.3-.7 0-1.2.2-1.6.7a3 3 0 00-.6 2c0 .8.2 1.5.6 2 .4.4.9.6 1.5.6 1 0 1.5-.4 1.8-1.2h2.4a4 4 0 01-1.5 2.3c-.7.6-1.6.8-2.7.8-.8 0-1.6-.1-2.2-.5a4 4 0 01-1.6-1.6 5 5 0 01-.6-2.4zM343.8 451.4v.8h-6.6c0 .7.3 1.2.7 1.5.4.4.9.6 1.5.6.8 0 1.4-.4 1.7-1h2.5a4 4 0 01-4.2 2.8c-.8 0-1.6-.1-2.3-.5-.7-.4-1.2-1-1.6-1.6a5 5 0 01-.5-2.4c0-1 .2-1.8.5-2.4a4 4 0 011.6-1.6c.7-.4 1.4-.6 2.3-.6.9 0 1.6.2 2.3.5a4.6 4.6 0 012.1 3.8zm-2.3-.7c0-.5-.3-1-.7-1.3-.4-.4-.9-.6-1.5-.6a2 2 0 00-1.4.5c-.3.4-.6.8-.6 1.4h4.2zM348.8 456.1c-.7 0-1.4 0-2-.3-.5-.3-1-.7-1.3-1.1l-.6-1.5h2.3c0 .3.2.6.5.8.3.3.7.4 1 .4.5 0 .8-.1 1-.3.3-.1.5-.4.5-.6 0-.3-.2-.5-.5-.7l-1.4-.4-1.6-.5a3 3 0 01-1.1-.8c-.3-.4-.5-.9-.5-1.5 0-.4.2-.9.5-1.3a3 3 0 011.2-1c.5-.2 1.1-.3 1.8-.3 1.1 0 2 .3 2.6.8a3 3 0 011 2.1h-2.1c0-.3-.2-.6-.5-.8-.2-.2-.6-.3-1-.3s-.7 0-1 .2c-.2.1-.3.3-.3.6s.2.5.5.7l1.4.5 1.5.5c.5.1.8.4 1.1.8.3.3.5.8.5 1.4 0 .5-.1 1-.4 1.3-.3.5-.7.8-1.3 1-.5.2-1 .3-1.8.3zM357.5 456.1c-.7 0-1.3 0-2-.3-.5-.3-1-.7-1.3-1.1-.3-.5-.5-1-.5-1.5h2.2c0 .3.2.6.5.8.3.3.7.4 1.1.4.4 0 .8-.1 1-.3.2-.1.4-.4.4-.6 0-.3-.2-.5-.5-.7l-1.4-.4-1.6-.5a3 3 0 01-1-.8c-.4-.4-.5-.9-.5-1.5 0-.4.1-.9.4-1.3a3 3 0 011.2-1c.5-.2 1.2-.3 1.9-.3 1 0 1.9.3 2.5.8a3 3 0 011 2.1h-2.1c0-.3-.2-.6-.5-.8-.2-.2-.6-.3-1-.3s-.7 0-1 .2c-.2.1-.3.3-.3.6s.2.5.5.7l1.4.5 1.6.5c.4.1.7.4 1 .8.3.3.5.8.5 1.4 0 .5-.1 1-.4 1.3-.3.5-.7.8-1.2 1-.6.2-1.2.3-1.9.3z" class="subcard-header"/><rect fill="#fff" rx="3" height="114" width="326" y="676" x="128" class="subcard-background"/><path fill="#222" d="M211.7 724.3v3.2h3.6v1h-3.6v3.4h4v1.1h-5.2v-9.8h5.2v1h-4zM219 722.6V733h-1.4v-10.4h1.3zM228 728.9v.7h-6c0 .8.2 1.4.7 1.8.5.4 1 .6 1.7.6.5 0 1 0 1.4-.3l.8-1h1.3c-.2.7-.6 1.3-1.2 1.7-.6.5-1.4.7-2.3.7a4 4 0 01-2-.5c-.5-.3-1-.8-1.3-1.3-.3-.7-.5-1.4-.5-2.1 0-.8.2-1.5.5-2.1.3-.6.7-1 1.3-1.4a4 4 0 012-.5c.7 0 1.4.2 2 .5.5.3 1 .7 1.2 1.3.3.5.5 1.2.5 1.9zm-1.2-.3c0-.5-.1-.9-.4-1.2a2 2 0 00-.8-.8c-.4-.2-.8-.3-1.3-.3-.6 0-1.2.2-1.6.6-.5.4-.7 1-.8 1.7h4.9zM239 725.2c.6 0 1.1.1 1.6.4.5.2.8.6 1 1 .4.6.5 1.2.5 1.9v4.5h-1.3v-4.3c0-.8-.2-1.4-.5-1.8a2 2 0 00-1.6-.6 2 2 0 00-1.5.6c-.4.5-.6 1-.6 1.9v4.2h-1.3v-4.3c0-.8-.2-1.4-.6-1.8a2 2 0 00-1.5-.6 2 2 0 00-1.6.6c-.4.5-.6 1-.6 1.9v4.2h-1.2v-7.7h1.2v1.1c.3-.4.6-.7 1-.9l1.5-.3c.6 0 1.2.1 1.7.4.5.3.8.7 1 1.3.3-.5.6-1 1.1-1.3.5-.3 1-.4 1.7-.4zM251.2 728.9v.7H245c0 .8.3 1.4.8 1.8.5.4 1 .6 1.7.6.6 0 1 0 1.4-.3.4-.3.6-.6.8-1h1.3c-.2.7-.6 1.3-1.2 1.7-.6.5-1.4.7-2.3.7a4 4 0 01-2-.5c-.5-.3-1-.8-1.3-1.3-.3-.7-.5-1.4-.5-2.1 0-.8.2-1.5.5-2.1.3-.6.7-1 1.3-1.4a4 4 0 012-.5c.7 0 1.4.2 2 .5.5.3 1 .7 1.2 1.3.3.5.5 1.2.5 1.9zm-1.3-.3c0-.5-.1-.9-.4-1.2a2 2 0 00-.8-.8c-.4-.2-.8-.3-1.3-.3-.6 0-1.1.2-1.6.6-.5.4-.7 1-.8 1.7h4.9zM256.6 725.2c1 0 1.7.3 2.3.8.6.6.8 1.4.8 2.5v4.5h-1.2v-4.3c0-.8-.2-1.4-.6-1.8a2 2 0 00-1.6-.6c-.6 0-1.2.2-1.6.6-.4.4-.6 1-.6 1.9v4.2H253v-7.7h1.2v1.1c.3-.4.6-.7 1-.9l1.5-.3zM268.8 728.9v.7h-6.2c.1.8.4 1.4.8 1.8.5.4 1 .6 1.7.6.6 0 1 0 1.4-.3.4-.3.6-.6.8-1h1.4c-.2.7-.6 1.3-1.3 1.7-.6.5-1.3.7-2.3.7a4 4 0 01-2-.5c-.5-.3-1-.8-1.3-1.3-.3-.7-.5-1.4-.5-2.1 0-.8.2-1.5.5-2.1.3-.6.8-1 1.4-1.4a4 4 0 012-.5c.7 0 1.3.2 1.9.5.5.3 1 .7 1.3 1.3.3.5.4 1.2.4 1.9zm-1.3-.3c0-.5-.1-.9-.3-1.2a2 2 0 00-.9-.8l-1.2-.3c-.7 0-1.2.2-1.7.6-.4.4-.7 1-.7 1.7h4.8zM275.8 727.3v1.1h-5.6v-1h5.6zM285 725.3v7.7h-1.3v-1.1c-.2.4-.5.7-1 .9-.4.2-.9.3-1.4.3-.6 0-1.1-.1-1.6-.4-.5-.2-.9-.6-1.1-1-.3-.6-.5-1.2-.5-1.9v-4.5h1.3v4.4c0 .7.2 1.3.6 1.7.4.4.9.6 1.5.6.7 0 1.3-.2 1.7-.6.3-.4.5-1 .5-1.9v-4.2h1.3zM287.8 724c-.2 0-.4 0-.6-.2a.8.8 0 01-.2-.6c0-.2 0-.4.2-.6l.6-.3c.3 0 .5.1.6.3l.3.6c0 .3-.1.5-.3.6-.1.2-.3.3-.6.3zm.6 1.3v7.7h-1.2v-7.7h1.2zM293.9 729.1c0-.7.1-1.4.4-2 .4-.6.8-1 1.4-1.4.5-.3 1.2-.5 2-.5.9 0 1.6.2 2.2.7.7.4 1 1 1.3 1.9h-1.4a2 2 0 00-.8-1.1c-.4-.3-.8-.4-1.4-.4-.7 0-1.3.2-1.8.7-.4.5-.6 1.2-.6 2.2 0 .9.2 1.6.6 2 .5.6 1 .8 1.8.8.6 0 1 0 1.4-.3.4-.3.6-.7.8-1.2h1.4c-.3.8-.7 1.5-1.3 2-.6.4-1.4.6-2.3.6-.7 0-1.4-.1-2-.5-.5-.3-1-.8-1.3-1.3-.3-.6-.4-1.3-.4-2.1zM306.2 733.1a4 4 0 01-2-.5c-.5-.3-1-.8-1.3-1.4-.4-.6-.5-1.3-.5-2 0-.8.1-1.5.5-2.1.3-.6.8-1 1.4-1.4a4 4 0 012-.5 4 4 0 012 .5 4 4 0 011.9 3.5 4 4 0 01-.6 2c-.3.6-.8 1.1-1.4 1.4a4 4 0 01-2 .5zm0-1c.5 0 .9-.2 1.3-.4s.7-.6 1-1c.2-.4.3-1 .3-1.6 0-.6 0-1-.3-1.5-.3-.4-.6-.8-1-1-.4-.2-.8-.3-1.3-.3-.4 0-.9.1-1.2.3-.4.2-.7.6-1 1-.2.4-.3 1-.3 1.5 0 .7 0 1.2.3 1.6.2.5.6.8 1 1 .3.2.7.3 1.2.3zM321 725.2c.6 0 1.2.1 1.6.4.5.2.9.6 1.1 1 .3.6.4 1.2.4 1.9v4.5H323v-4.3c0-.8-.2-1.4-.6-1.8a2 2 0 00-1.5-.6 2 2 0 00-1.6.6c-.4.5-.6 1-.6 1.9v4.2h-1.2v-4.3c0-.8-.2-1.4-.6-1.8a2 2 0 00-1.5-.6 2 2 0 00-1.6.6c-.4.5-.6 1-.6 1.9v4.2h-1.3v-7.7h1.3v1.1c.2-.4.6-.7 1-.9.4-.2.9-.3 1.4-.3.6 0 1.2.1 1.7.4.5.3.9.7 1.1 1.3.2-.5.6-1 1-1.3.6-.3 1.1-.4 1.7-.4zM327.5 726.7a3 3 0 011.1-1 3.5 3.5 0 015 1.4c.3.6.4 1.3.4 2 0 .8-.1 1.5-.5 2.1a3.5 3.5 0 01-3.1 2c-.7 0-1.3-.2-1.8-.5s-.8-.7-1.1-1.1v5h-1.3v-11.3h1.3v1.4zm5.2 2.4l-.3-1.5-1-1c-.4-.2-.8-.3-1.3-.3a2.6 2.6 0 00-2.2 1.4 3 3 0 00-.4 1.4c0 .6.1 1.1.4 1.6a2.6 2.6 0 002.3 1.3l1.2-.3 1-1c.2-.5.3-1 .3-1.6zM339 733.1a4 4 0 01-2-.5c-.5-.3-1-.8-1.3-1.4-.3-.6-.5-1.3-.5-2 0-.8.2-1.5.5-2.1.4-.6.8-1 1.4-1.4a4 4 0 012-.5 4 4 0 012 .5c.6.3 1 .8 1.4 1.4.3.6.5 1.3.5 2a4 4 0 01-.6 2.1c-.3.6-.8 1.1-1.4 1.4a4 4 0 01-2 .5zm0-1c.5 0 1-.2 1.3-.4.4-.2.8-.6 1-1 .2-.4.4-1 .4-1.6 0-.6-.2-1-.4-1.5a2.6 2.6 0 00-2.2-1.3c-.5 0-1 .1-1.3.3-.4.2-.7.6-1 1-.2.4-.3 1-.3 1.5 0 .7.1 1.2.4 1.6.2.5.5.8.9 1l1.2.3zM351.6 728.9v.7h-6.1c0 .8.3 1.4.7 1.8.5.4 1 .6 1.8.6.5 0 1 0 1.3-.3.4-.3.7-.6.8-1h1.4c-.2.7-.6 1.3-1.2 1.7-.7.5-1.4.7-2.3.7a4 4 0 01-2-.5c-.6-.3-1-.8-1.3-1.3-.4-.7-.5-1.4-.5-2.1 0-.8.1-1.5.4-2.1.4-.6.8-1 1.4-1.4a4 4 0 012-.5c.7 0 1.3.2 1.9.5.6.3 1 .7 1.3 1.3.3.5.4 1.2.4 1.9zm-1.3-.3c0-.5 0-.9-.3-1.2a2 2 0 00-.9-.8c-.3-.2-.7-.3-1.2-.3-.6 0-1.2.2-1.6.6-.5.4-.7 1-.8 1.7h4.8zM357 725.2c1 0 1.8.3 2.3.8.6.6.9 1.4.9 2.5v4.5h-1.3v-4.3c0-.8-.1-1.4-.5-1.8a2 2 0 00-1.6-.6c-.7 0-1.2.2-1.6.6-.4.4-.6 1-.6 1.9v4.2h-1.3v-7.7h1.3v1.1c.3-.4.6-.7 1-.9l1.5-.3zM363.8 726.4v4.5c0 .4.1.6.3.8l.8.2h1v1.1h-1.2c-.7 0-1.2-.2-1.6-.5-.4-.3-.5-.9-.5-1.6v-4.5h-1v-1h1v-2h1.2v2h2v1h-2zM370.1 733.1a4 4 0 01-1.6-.3c-.4-.2-.8-.5-1-.8-.4-.4-.5-.8-.5-1.3h1.3c0 .4.2.7.5 1 .3.2.8.3 1.3.3s.9 0 1.1-.3c.3-.2.5-.5.5-.8 0-.3-.2-.6-.5-.7a6 6 0 00-1.4-.5l-1.4-.5c-.3-.1-.6-.4-.9-.7-.3-.3-.4-.7-.4-1.2 0-.3.1-.7.4-1 .2-.4.5-.6 1-.8.4-.2.9-.3 1.4-.3.9 0 1.6.2 2 .6.6.5.9 1 1 1.8h-1.3c0-.4-.2-.7-.5-1-.3-.2-.7-.3-1.2-.3s-.8 0-1.1.3a1 1 0 00-.4.7c0 .3 0 .5.2.7l.6.4 1 .3 1.4.4 1 .7c.2.3.3.6.3 1.1 0 .4-.1.8-.3 1.1-.3.4-.6.7-1 .8l-1.5.3zM246.8 751.8h-4.2l-.8 2.2h-1.4l3.6-9.7h1.4l3.6 9.7h-1.4l-.8-2.2zm-.3-1l-1.8-5-1.8 5h3.6zM257.3 746.3v7.7H256v-1.1c-.2.4-.6.7-1 .9a3.5 3.5 0 01-3 0c-.5-.3-.9-.7-1.2-1.2-.2-.5-.4-1-.4-1.8v-4.5h1.3v4.4c0 .7.2 1.3.6 1.7.3.4.9.6 1.5.6.7 0 1.2-.2 1.6-.6.4-.4.6-1 .6-1.9v-4.2h1.3zM261 747.4v4.5c0 .4 0 .6.2.8l.9.2h.9v1.1h-1.1c-.8 0-1.3-.2-1.6-.5-.4-.3-.6-.9-.6-1.6v-4.5h-1v-1h1v-2h1.3v2h2v1h-2zM268.4 746.2c.5 0 1 .1 1.5.4.5.2.8.6 1.1 1 .3.6.4 1.2.4 1.9v4.5h-1.2v-4.3c0-.8-.2-1.4-.6-1.8a2 2 0 00-1.6-.6c-.7 0-1.2.2-1.6.6-.4.4-.6 1-.6 1.9v4.2h-1.3v-10.4h1.3v3.8c.3-.4.6-.7 1-.9.5-.2 1-.3 1.6-.3zM280.5 749.9v.7h-6.2c0 .8.3 1.4.8 1.8.5.4 1 .6 1.7.6.6 0 1 0 1.4-.3.4-.3.6-.6.8-1h1.3c-.2.7-.6 1.3-1.2 1.7-.6.5-1.4.7-2.3.7a4 4 0 01-2-.5c-.5-.3-1-.8-1.3-1.3-.3-.7-.5-1.4-.5-2.1 0-.8.2-1.5.5-2.1.3-.6.8-1 1.3-1.4a4 4 0 012-.5c.7 0 1.4.2 2 .5.5.3 1 .7 1.2 1.3.3.5.5 1.2.5 1.9zm-1.3-.3c0-.5-.1-.9-.3-1.2a2 2 0 00-1-.8 2.4 2.4 0 00-2.9.3c-.3.4-.6 1-.7 1.7h4.9zM286 746.2c.9 0 1.6.3 2.2.8.6.6.9 1.4.9 2.5v4.5h-1.3v-4.3c0-.8-.2-1.4-.6-1.8a2 2 0 00-1.5-.6c-.7 0-1.3.2-1.7.6-.3.4-.5 1-.5 1.9v4.2h-1.3v-7.7h1.3v1.1c.2-.4.5-.7 1-.9.4-.2.9-.3 1.4-.3zM292.7 747.4v4.5c0 .4 0 .6.2.8l.9.2h.9v1.1h-1.2c-.7 0-1.2-.2-1.6-.5-.3-.3-.5-.9-.5-1.6v-4.5h-1v-1h1v-2h1.3v2h2v1h-2zM296.9 745c-.2 0-.5 0-.6-.2a.8.8 0 01-.3-.6l.3-.6c.1-.2.4-.3.6-.3l.6.3.2.6c0 .3 0 .5-.2.6l-.6.3zm.6 1.3v7.7h-1.3v-7.7h1.3zM299.2 750.1c0-.7.2-1.4.5-2 .3-.6.7-1 1.3-1.4.6-.3 1.2-.5 2-.5.9 0 1.7.2 2.3.7.6.4 1 1 1.2 1.9H305a2 2 0 00-.8-1.1c-.3-.3-.8-.4-1.4-.4-.7 0-1.3.2-1.7.7-.5.5-.7 1.2-.7 2.2 0 .9.2 1.6.7 2 .4.6 1 .8 1.7.8.6 0 1 0 1.4-.3.4-.3.7-.7.8-1.2h1.4c-.2.8-.6 1.5-1.2 2-.7.4-1.4.6-2.4.6-.7 0-1.3-.1-1.9-.5-.6-.3-1-.8-1.3-1.3-.3-.6-.5-1.3-.5-2.1zM307.7 750.1c0-.7.2-1.4.5-2a3.5 3.5 0 013.1-1.9c.7 0 1.3.1 1.8.4.5.3.9.7 1.1 1.1v-1.4h1.3v7.7h-1.3v-1.4a3 3 0 01-1.1 1c-.5.4-1.1.5-1.8.5a3.5 3.5 0 01-3.1-1.9c-.3-.6-.5-1.3-.5-2zm6.5 0l-.3-1.5-1-1c-.4-.2-.8-.3-1.3-.3s-1 .1-1.3.3l-1 1-.3 1.5c0 .6.1 1.1.4 1.6.2.4.5.7.9 1 .4.2.8.3 1.3.3s1-.1 1.3-.3l1-1c.2-.5.3-1 .3-1.6zM319.2 747.4v4.5c0 .4 0 .6.2.8l.9.2h.9v1.1h-1.1c-.8 0-1.3-.2-1.6-.5-.4-.3-.6-.9-.6-1.6v-4.5h-1v-1h1v-2h1.3v2h2v1h-2zM323.4 745c-.2 0-.4 0-.6-.2a.8.8 0 01-.3-.6l.3-.6.6-.3.6.3c.2.2.2.4.2.6 0 .3 0 .5-.2.6l-.6.3zm.6 1.3v7.7h-1.3v-7.7h1.3zM329.5 754.1a4 4 0 01-2-.5c-.5-.3-1-.8-1.3-1.4-.3-.6-.5-1.3-.5-2 0-.8.2-1.5.5-2.1.4-.6.8-1 1.4-1.4a4 4 0 012-.5 4 4 0 012 .5c.6.3 1 .8 1.4 1.4.3.6.5 1.3.5 2a4 4 0 01-.6 2.1c-.3.6-.8 1.1-1.4 1.4a4 4 0 01-2 .5zm0-1c.5 0 1-.2 1.3-.4.4-.2.7-.6 1-1 .2-.4.4-1 .4-1.6 0-.6-.2-1-.4-1.5a2.6 2.6 0 00-2.2-1.3c-.5 0-1 .1-1.3.3-.4.2-.7.6-1 1-.2.4-.3 1-.3 1.5 0 .7.1 1.2.4 1.6.2.5.5.8.9 1l1.2.3zM338.9 746.2c1 0 1.7.3 2.3.8.5.6.8 1.4.8 2.5v4.5h-1.2v-4.3c0-.8-.2-1.4-.6-1.8a2 2 0 00-1.6-.6c-.7 0-1.2.2-1.6.6-.4.4-.6 1-.6 1.9v4.2h-1.3v-7.7h1.3v1.1c.3-.4.6-.7 1-.9l1.5-.3zM232.1 775l-2.3-4h-1.6v4H227v-9.8h3.1c.8 0 1.4.2 1.9.4a2.6 2.6 0 011.5 2.5 2.8 2.8 0 01-2.3 2.8l2.4 4.1h-1.5zm-3.9-5h2c.6 0 1.1-.2 1.5-.5.3-.4.5-.8.5-1.4 0-.6-.2-1-.5-1.3-.4-.3-.9-.5-1.6-.5h-1.9v3.7zM238.8 775.1a4 4 0 01-2-.5c-.5-.3-1-.8-1.3-1.4-.3-.6-.5-1.3-.5-2 0-.8.2-1.5.5-2.1.4-.6.8-1 1.4-1.4a4 4 0 012-.5 4 4 0 012 .5 4 4 0 011.9 3.5 4 4 0 01-.6 2c-.3.6-.8 1.1-1.4 1.4a4 4 0 01-2 .5zm0-1c.5 0 1-.2 1.3-.4.4-.2.7-.6 1-1 .2-.4.4-1 .4-1.6 0-.6-.2-1-.4-1.5a2.6 2.6 0 00-2.2-1.3c-.5 0-1 .1-1.3.3-.4.2-.7.6-1 1-.2.4-.3 1-.3 1.5 0 .7.1 1.2.3 1.6.3.5.6.8 1 1l1.2.3zM245.7 764.6V775h-1.3v-10.4h1.3zM254.9 770.9v.7h-6.2c0 .8.3 1.4.8 1.8.5.4 1 .6 1.7.6.6 0 1 0 1.4-.3l.8-1h1.3c-.2.7-.6 1.3-1.2 1.7-.6.5-1.4.7-2.3.7a4 4 0 01-2-.5c-.5-.3-1-.8-1.3-1.3-.3-.7-.5-1.4-.5-2.1 0-.8.2-1.5.5-2.1.3-.6.7-1 1.3-1.4a4 4 0 012-.5c.7 0 1.4.2 2 .5.5.3 1 .7 1.2 1.3.3.5.5 1.2.5 1.9zm-1.3-.3c0-.5-.1-.9-.4-1.2a2 2 0 00-.8-.8c-.4-.2-.8-.3-1.3-.3-.6 0-1.1.2-1.6.6-.5.4-.7 1-.8 1.7h4.9zM261.6 768.8a3 3 0 011.1-1.2c.5-.3 1.1-.4 1.7-.4.7 0 1.4.2 2 .5.5.3.9.8 1.2 1.4a4.4 4.4 0 010 4.1 3.5 3.5 0 01-3.2 2c-.6 0-1.2-.2-1.7-.5a3 3 0 01-1.1-1.1v1.4h-1.3v-10.4h1.3v4.2zm5.2 2.3c0-.5-.1-1-.4-1.5-.2-.4-.5-.7-1-1-.3-.2-.7-.3-1.2-.3a2.5 2.5 0 00-2.3 1.4 3 3 0 00-.3 1.4c0 .6 0 1.1.3 1.6l1 1c.4.2.8.3 1.3.3s.9-.1 1.3-.3l1-1c.2-.5.3-1 .3-1.6zM269.3 771.1c0-.7.1-1.4.5-2a3.5 3.5 0 013.1-1.9c.7 0 1.3.1 1.8.4.5.3.8.7 1 1.1v-1.4h1.4v7.7h-1.3v-1.4a3 3 0 01-1.2 1c-.4.4-1 .5-1.7.5a3.5 3.5 0 01-3.1-1.9c-.4-.6-.5-1.3-.5-2zm6.5 0c0-.5-.1-1-.4-1.5-.2-.4-.5-.7-1-1-.3-.2-.7-.3-1.2-.3s-1 .1-1.3.3l-1 1-.3 1.5c0 .6.1 1.1.3 1.6l1 1c.4.2.8.3 1.3.3s.9-.1 1.3-.3l1-1c.2-.5.3-1 .3-1.6zM282 775.1a4 4 0 01-1.6-.3c-.5-.2-.9-.5-1.2-.8-.2-.4-.4-.8-.4-1.3h1.3c0 .4.2.7.5 1 .4.2.8.3 1.3.3s.9 0 1.2-.3c.3-.2.4-.5.4-.8 0-.3-.2-.6-.5-.7a6 6 0 00-1.3-.5l-1.4-.5c-.4-.1-.7-.4-1-.7-.2-.3-.3-.7-.3-1.2 0-.3 0-.7.3-1 .2-.4.6-.6 1-.8.4-.2 1-.3 1.5-.3.8 0 1.5.2 2 .6.5.5.8 1 .9 1.8h-1.3c0-.4-.2-.7-.5-1-.3-.2-.7-.3-1.2-.3-.4 0-.8 0-1 .3a1 1 0 00-.5.7c0 .3.1.5.3.7l.6.4 1 .3 1.4.4.8.7c.3.3.4.6.4 1.1 0 .4 0 .8-.3 1.1-.2.4-.6.7-1 .8-.4.2-1 .3-1.5.3zM293.5 770.9v.7h-6.1c0 .8.3 1.4.7 1.8.5.4 1 .6 1.8.6.5 0 1 0 1.3-.3.4-.3.7-.6.8-1h1.4c-.2.7-.6 1.3-1.3 1.7-.6.5-1.3.7-2.2.7a4 4 0 01-2-.5c-.6-.3-1-.8-1.4-1.3-.3-.7-.4-1.4-.4-2.1 0-.8.1-1.5.4-2.1.4-.6.8-1 1.4-1.4a4 4 0 012-.5c.7 0 1.3.2 1.9.5.5.3 1 .7 1.3 1.3.3.5.4 1.2.4 1.9zm-1.3-.3c0-.5 0-.9-.3-1.2a2 2 0 00-.9-.8c-.3-.2-.8-.3-1.2-.3-.6 0-1.2.2-1.7.6-.4.4-.7 1-.7 1.7h4.8zM294.7 771.1c0-.7.2-1.4.5-2a3.5 3.5 0 013.2-1.9 3.4 3.4 0 012.8 1.5v-4h1.3V775h-1.3v-1.4a3 3 0 01-1 1c-.6.4-1.2.5-1.8.5-.7 0-1.3-.1-1.9-.5-.5-.3-1-.8-1.3-1.4-.3-.6-.5-1.3-.5-2zm6.5 0c0-.5 0-1-.3-1.5-.2-.4-.6-.7-1-1-.4-.2-.8-.3-1.3-.3-.4 0-.9.1-1.3.3l-1 1-.3 1.5c0 .6.2 1.1.4 1.6.2.4.5.7 1 1 .3.2.8.3 1.2.3.5 0 1-.1 1.3-.3.4-.3.8-.6 1-1 .2-.5.3-1 .3-1.6zM308 771.1c0-.7 0-1.4.4-2a3.5 3.5 0 013.2-1.9c.6 0 1.2.1 1.7.4.5.3.9.7 1.1 1.1v-1.4h1.3v7.7h-1.3v-1.4a3 3 0 01-1.1 1c-.5.4-1 .5-1.7.5a3.5 3.5 0 01-3.2-1.9c-.3-.6-.5-1.3-.5-2zm6.4 0c0-.5 0-1-.3-1.5l-1-1c-.4-.2-.8-.3-1.3-.3s-.9.1-1.3.3l-1 1-.3 1.5c0 .6.2 1.1.4 1.6.2.4.5.7 1 1 .3.2.7.3 1.2.3s1-.1 1.3-.3l1-1c.2-.5.3-1 .3-1.6zM317.4 771.1c0-.7.2-1.4.5-2 .3-.6.7-1 1.3-1.4.6-.3 1.2-.5 2-.5.9 0 1.6.2 2.3.7.6.4 1 1 1.2 1.9h-1.4a2 2 0 00-.8-1.1c-.3-.3-.8-.4-1.4-.4-.7 0-1.3.2-1.7.7-.5.5-.7 1.2-.7 2.2 0 .9.2 1.6.7 2 .4.6 1 .8 1.7.8.6 0 1 0 1.4-.3.4-.3.7-.7.8-1.2h1.4c-.2.8-.6 1.5-1.3 2-.6.4-1.3.6-2.3.6-.7 0-1.3-.1-2-.5-.5-.3-1-.8-1.2-1.3-.3-.6-.5-1.3-.5-2.1zM325.9 771.1c0-.7.2-1.4.5-2 .3-.6.7-1 1.3-1.4.6-.3 1.2-.5 2-.5.9 0 1.7.2 2.3.7.6.4 1 1 1.2 1.9h-1.4a2 2 0 00-.8-1.1c-.3-.3-.8-.4-1.4-.4-.7 0-1.3.2-1.7.7-.5.5-.7 1.2-.7 2.2 0 .9.2 1.6.7 2 .4.6 1 .8 1.7.8.6 0 1 0 1.4-.3.4-.3.7-.7.8-1.2h1.4c-.2.8-.6 1.5-1.3 2-.6.4-1.3.6-2.3.6-.7 0-1.3-.1-2-.5-.5-.3-1-.8-1.2-1.3-.3-.6-.5-1.3-.5-2.1zM341.9 770.9v.7h-6.2c0 .8.3 1.4.8 1.8.5.4 1 .6 1.7.6.5 0 1 0 1.4-.3l.8-1h1.3c-.2.7-.6 1.3-1.2 1.7-.6.5-1.4.7-2.3.7a4 4 0 01-2-.5c-.5-.3-1-.8-1.3-1.3-.3-.7-.5-1.4-.5-2.1 0-.8.2-1.5.5-2.1.3-.6.7-1 1.3-1.4a4 4 0 012-.5c.7 0 1.4.2 2 .5.5.3 1 .7 1.2 1.3.3.5.5 1.2.5 1.9zm-1.3-.3c0-.5-.1-.9-.4-1.2a2 2 0 00-.8-.8c-.4-.2-.8-.3-1.3-.3-.6 0-1.2.2-1.6.6-.5.4-.7 1-.8 1.7h4.9zM346.3 775.1a4 4 0 01-1.6-.3c-.5-.2-.8-.5-1.1-.8-.3-.4-.4-.8-.5-1.3h1.4c0 .4.2.7.5 1 .3.2.7.3 1.3.3.4 0 .8 0 1.1-.3.3-.2.4-.5.4-.8 0-.3-.1-.6-.4-.7a6 6 0 00-1.4-.5l-1.4-.5c-.4-.1-.7-.4-1-.7-.2-.3-.3-.7-.3-1.2 0-.3.1-.7.3-1 .3-.4.6-.6 1-.8l1.5-.3c.9 0 1.5.2 2 .6.6.5.9 1 1 1.8h-1.4c0-.4-.2-.7-.5-1-.2-.2-.6-.3-1.1-.3-.5 0-.9 0-1.1.3a1 1 0 00-.4.7c0 .3 0 .5.2.7l.6.4 1 .3 1.4.4.9.7c.2.3.4.6.4 1.1 0 .4-.1.8-.4 1.1-.2.4-.5.7-1 .8-.4.2-.9.3-1.4.3zM353.6 775.1a4 4 0 01-1.6-.3c-.5-.2-.8-.5-1.1-.8-.3-.4-.4-.8-.4-1.3h1.3c0 .4.2.7.5 1 .3.2.8.3 1.3.3s.8 0 1.1-.3c.3-.2.4-.5.4-.8 0-.3-.1-.6-.4-.7a6 6 0 00-1.4-.5l-1.4-.5-1-.7c-.2-.3-.3-.7-.3-1.2 0-.3.1-.7.4-1 .2-.4.5-.6 1-.8.4-.2.9-.3 1.4-.3.9 0 1.6.2 2 .6.6.5.9 1 1 1.8H355c0-.4-.1-.7-.4-1-.3-.2-.7-.3-1.2-.3s-.8 0-1.1.3a1 1 0 00-.4.7c0 .3 0 .5.2.7l.6.4 1 .3 1.4.4c.4.2.7.4.9.7.3.3.4.6.4 1.1 0 .4-.1.8-.4 1.1-.2.4-.5.7-1 .8-.4.2-.9.3-1.4.3z" class="subcard-subheader"/><path fill="#222" d="M267.3 705.6H263l-.7 2h-2.4l4-11h2.6l4 11h-2.3l-.8-2zm-.6-1.8l-1.6-4.7-1.6 4.7h3.2zM276.9 698.7c1 0 1.9.3 2.5 1 .7.7 1 1.6 1 2.8v5.2H278v-4.9c0-.7-.1-1.2-.5-1.6-.3-.4-.8-.6-1.4-.6a2 2 0 00-1.5.6c-.3.4-.5.9-.5 1.6v4.9h-2.3v-8.9h2.3v1.1a3 3 0 011.1-.9c.5-.2 1-.3 1.6-.3zM286 698.7c.7 0 1.2.1 1.7.4.5.2 1 .6 1.2 1v-1.3h2.3v9c0 .8-.2 1.5-.5 2.1-.4.7-.8 1.2-1.5 1.6-.7.4-1.5.6-2.4.6-1.3 0-2.3-.3-3.1-1a3.3 3.3 0 01-1.4-2.3h2.3c0 .4.3.7.7 1 .4.2.9.3 1.4.3.7 0 1.2-.2 1.6-.6.4-.4.6-1 .6-1.7v-1.4c-.3.4-.7.7-1.2 1-.5.3-1 .4-1.7.4-.8 0-1.4-.2-2-.5a4 4 0 01-1.5-1.7c-.4-.7-.6-1.5-.6-2.4 0-.9.2-1.7.6-2.4a4 4 0 011.4-1.6 4 4 0 012-.5zm3 4.6c0-.6-.2-1-.4-1.4-.2-.4-.5-.7-.9-1l-1.1-.2a2.3 2.3 0 00-2 1.2c-.3.3-.4.8-.4 1.3 0 .6.1 1 .4 1.4l.8 1 1.2.3c.4 0 .8-.1 1.1-.3.4-.2.7-.5.9-1 .2-.3.3-.8.3-1.3zM301.7 698.8v8.9h-2.2v-1.1a3 3 0 01-1.2.9c-.4.2-1 .3-1.5.3-.7 0-1.3-.1-1.8-.4-.5-.3-1-.8-1.3-1.3-.3-.6-.4-1.3-.4-2v-5.3h2.2v5c0 .6.2 1.2.6 1.5.3.4.8.6 1.4.6a2 2 0 001.4-.6c.4-.3.6-.9.6-1.6v-4.9h2.2zM306.2 695.9v11.8h-2.3v-11.8h2.3zM307.8 703.2c0-.9.2-1.7.5-2.4a4 4 0 011.5-1.6 4 4 0 012-.5 3.6 3.6 0 013 1.4v-1.3h2.3v8.9h-2.3v-1.3c-.3.4-.7.8-1.2 1-.5.3-1 .4-1.7.4-.8 0-1.5-.2-2.1-.5-.6-.4-1-1-1.5-1.7-.3-.7-.5-1.5-.5-2.4zm7 0c0-.5-.1-1-.3-1.3-.2-.4-.5-.7-.9-1l-1.2-.2a2.3 2.3 0 00-2 1.2c-.2.3-.3.8-.3 1.3a2.5 2.5 0 001.2 2.3c.4.3.7.4 1.1.4.5 0 .8-.1 1.2-.3.4-.2.7-.5.9-1 .2-.3.3-.8.3-1.3zM321.5 700.2c.3-.5.6-.8 1.1-1.1.5-.3 1-.4 1.6-.4v2.4h-.6c-.7 0-1.2.1-1.6.4-.3.4-.5 1-.5 1.8v4.4h-2.3v-8.9h2.3v1.4z" class="subcard-header"/><path stroke-dasharray="8 8" stroke-width="1.5" stroke="#D4D4D4" fill="#F6F8FB" class="subcard-border" d="M103.3 491.3h375.5v169.5H103.3z"/><rect fill="#fff" rx="3" height="52" width="326" y="516" x="128" class="subcard-background"/><path fill="#222" d="M213.7 548h-2.3l-5-7.7v7.7H204v-11.2h2.2l5.1 7.7v-7.7h2.3V548zM224.1 543.4v.8h-6.5c0 .7.2 1.2.6 1.5.4.4 1 .6 1.5.6.8 0 1.4-.4 1.8-1h2.4a4 4 0 01-4.2 2.8c-.8 0-1.6-.1-2.3-.5-.6-.4-1.2-1-1.5-1.6a5 5 0 01-.6-2.4c0-1 .2-1.8.6-2.4a4 4 0 011.5-1.6c.7-.4 1.5-.6 2.3-.6.9 0 1.6.2 2.3.5.7.4 1.2 1 1.6 1.6.3.6.5 1.4.5 2.3zm-2.3-.7c0-.5-.2-1-.6-1.3-.4-.4-1-.6-1.5-.6a2 2 0 00-1.4.5c-.4.4-.6.8-.7 1.4h4.2zM228 540.4c.3-.4.7-.7 1.2-1 .5-.3 1-.4 1.7-.4a3.8 3.8 0 013.5 2.2c.4.6.6 1.4.6 2.3 0 1-.2 1.7-.6 2.5a4 4 0 01-1.4 1.6c-.6.4-1.3.5-2 .5s-1.3 0-1.8-.3-1-.6-1.2-1v1.2h-2.3v-11.8h2.3v4.2zm4.7 3.1c0-.5-.1-1-.4-1.3l-.8-1a2.3 2.3 0 00-2.3 0c-.4.3-.7.6-.9 1-.2.4-.3.8-.3 1.4 0 .5 0 1 .3 1.4.2.4.5.7.9.9a2.3 2.3 0 002.3 0l.8-1c.3-.4.4-.8.4-1.4zM245 539.1v8.9h-2.3v-1.1a3 3 0 01-1.1.9l-1.5.3c-.7 0-1.3-.1-1.9-.4-.5-.3-1-.8-1.2-1.3-.3-.6-.5-1.3-.5-2V539h2.2v5c0 .6.2 1.2.6 1.5.3.4.8.6 1.4.6a2 2 0 001.5-.6c.3-.3.5-.9.5-1.6v-4.9h2.3zM249.4 536.2V548h-2.2v-11.8h2.2zM251 543.5c0-.9.2-1.7.6-2.3a4 4 0 011.4-1.6 4 4 0 012-.6 3.6 3.6 0 013 1.4v-1.3h2.3v8.9H258v-1.3c-.3.4-.7.8-1.2 1-.5.3-1 .4-1.7.4-.8 0-1.5-.1-2-.5-.7-.4-1.2-1-1.5-1.6-.4-.8-.6-1.6-.6-2.5zm7 0c0-.5 0-1-.3-1.3-.2-.4-.5-.7-.9-1l-1.1-.2a2.3 2.3 0 00-2 1.2c-.3.3-.4.8-.4 1.3 0 .6.1 1 .4 1.4l.8 1 1.2.3c.4 0 .8-.1 1.1-.3.4-.2.7-.5.9-1 .2-.3.3-.8.3-1.3zM264.7 540.5c.3-.5.7-.8 1.1-1 .5-.4 1-.5 1.6-.5v2.4h-.6c-.7 0-1.2.1-1.6.5-.3.3-.5.9-.5 1.7v4.4h-2.2v-8.9h2.2v1.4zM272.2 542.4c0-1.1.2-2 .7-3 .5-.8 1.2-1.5 2-2 1-.5 1.9-.7 3-.7 1.2 0 2.3.3 3.2 1a5 5 0 012 2.6h-2.6c-.2-.5-.6-1-1-1.2-.5-.3-1-.4-1.7-.4-.6 0-1.2.2-1.7.5s-.9.7-1.2 1.2c-.3.6-.4 1.3-.4 2s.1 1.4.4 2c.3.5.7 1 1.2 1.2.5.3 1.1.5 1.7.5.7 0 1.2-.1 1.6-.4.5-.3.9-.7 1.1-1.2h2.6a5 5 0 01-2 2.7c-.9.6-2 .9-3.2.9-1.1 0-2-.2-3-.7a5.5 5.5 0 01-2.7-5zM289 548.1c-.9 0-1.7-.1-2.3-.5-.7-.4-1.3-1-1.7-1.6-.3-.7-.5-1.5-.5-2.4 0-1 .2-1.7.6-2.4.4-.7 1-1.3 1.6-1.6.7-.4 1.5-.6 2.3-.6.9 0 1.7.2 2.3.6a4 4 0 011.7 1.6c.4.7.6 1.5.6 2.4 0 .9-.2 1.7-.6 2.4-.4.7-1 1.2-1.7 1.6-.7.4-1.5.5-2.3.5zm0-2c.4 0 .7 0 1.1-.2.4-.2.6-.5.9-.9.2-.4.3-.9.3-1.4 0-.9-.2-1.5-.7-2-.4-.4-1-.7-1.6-.7-.6 0-1.2.3-1.6.7-.4.5-.7 1.1-.7 2 0 .8.2 1.5.7 2 .4.4 1 .6 1.6.6zM306.2 539c1.1 0 2 .3 2.7 1 .6.7 1 1.6 1 2.8v5.2h-2.3v-4.9c0-.7-.1-1.2-.5-1.6-.4-.4-.8-.5-1.4-.5a2 2 0 00-1.5.5c-.3.4-.5 1-.5 1.6v4.9h-2.3v-4.9c0-.7-.1-1.2-.5-1.6-.3-.4-.8-.5-1.4-.5a2 2 0 00-1.5.5c-.4.4-.5 1-.5 1.6v4.9h-2.3v-8.9h2.3v1.1a3 3 0 011-.9c.5-.2 1-.3 1.6-.3.7 0 1.3.2 1.8.5.6.2 1 .7 1.3 1.2.3-.5.7-1 1.2-1.2.6-.3 1.2-.5 1.8-.5zM314.2 540.4a3.6 3.6 0 013-1.4 3.8 3.8 0 013.5 2.2c.3.6.5 1.4.5 2.3 0 1-.2 1.7-.5 2.5a4 4 0 01-1.5 1.6c-.6.4-1.3.5-2 .5a3.6 3.6 0 01-3-1.4v5.5H312v-13h2.2v1.2zm4.7 3.1c0-.5 0-1-.3-1.3-.2-.4-.5-.7-.9-1a2.3 2.3 0 00-2.3 0l-.8 1c-.3.4-.4.8-.4 1.4 0 .5.1 1 .4 1.4.2.4.5.7.8.9a2.3 2.3 0 002.3 0 2.8 2.8 0 001.2-2.3zM326.8 548.1c-.9 0-1.6-.1-2.3-.5-.7-.4-1.3-1-1.6-1.6-.4-.7-.6-1.5-.6-2.4 0-1 .2-1.7.6-2.4.4-.7 1-1.3 1.6-1.6.7-.4 1.5-.6 2.3-.6.9 0 1.7.2 2.4.6a4 4 0 011.6 1.6c.4.7.6 1.5.6 2.4 0 .9-.2 1.7-.6 2.4-.4.7-1 1.2-1.7 1.6-.7.4-1.5.5-2.3.5zm0-2c.4 0 .8 0 1.1-.2.4-.2.7-.5.9-.9.2-.4.3-.9.3-1.4 0-.9-.2-1.5-.7-2-.4-.4-1-.7-1.6-.7-.6 0-1.2.3-1.6.7-.4.5-.6 1.1-.6 2 0 .8.2 1.5.6 2 .4.4 1 .6 1.6.6zM338 539c1 0 1.9.3 2.5 1 .7.7 1 1.6 1 2.8v5.2h-2.3v-4.9c0-.7-.1-1.2-.5-1.6-.3-.4-.8-.6-1.4-.6a2 2 0 00-1.5.6c-.3.4-.5.9-.5 1.6v4.9H333v-8.9h2.3v1.1a3 3 0 011.1-.9c.5-.2 1-.3 1.6-.3zM351.9 543.4l-.1.8h-6.5c0 .7.3 1.2.7 1.5.4.4.9.6 1.4.6.9 0 1.5-.4 1.8-1h2.4a4 4 0 01-4.1 2.8c-.9 0-1.6-.1-2.3-.5-.7-.4-1.2-1-1.6-1.6a5 5 0 01-.6-2.4c0-1 .2-1.8.6-2.4a4 4 0 011.6-1.6c.6-.4 1.4-.6 2.3-.6.8 0 1.6.2 2.2.5.7.4 1.2 1 1.6 1.6.4.6.6 1.4.6 2.3zm-2.4-.7c0-.5-.2-1-.6-1.3-.4-.4-.9-.6-1.5-.6a2 2 0 00-1.4.5c-.4.4-.6.8-.7 1.4h4.2zM358.4 539c1 0 2 .3 2.6 1 .6.7 1 1.6 1 2.8v5.2h-2.3v-4.9c0-.7-.2-1.2-.5-1.6-.4-.4-.9-.6-1.5-.6a2 2 0 00-1.4.6c-.4.4-.6.9-.6 1.6v4.9h-2.2v-8.9h2.2v1.1a3 3 0 011.2-.9c.4-.2 1-.3 1.5-.3zM366.7 541v4.3c0 .3 0 .5.2.6l.7.2h1v1.9h-1.3c-2 0-2.9-1-2.9-2.8V541h-1V539h1V537h2.3v2.2h2v1.9h-2zM373.7 548.1c-.8 0-1.4 0-2-.3-.6-.3-1-.7-1.4-1.1-.3-.5-.5-1-.5-1.5h2.3c0 .3.2.6.4.8.3.3.7.4 1.2.4.4 0 .7-.1 1-.3.2-.1.3-.4.3-.6 0-.3-.1-.5-.4-.7l-1.4-.4-1.7-.5-1-.8c-.3-.4-.5-.9-.5-1.5 0-.4.1-.9.4-1.3a3 3 0 011.2-1c.6-.2 1.2-.3 2-.3 1 0 1.8.3 2.4.8a3 3 0 011 2.1h-2c-.1-.3-.2-.6-.5-.8-.3-.2-.6-.3-1-.3-.5 0-.8 0-1 .2-.2.1-.3.3-.3.6s.1.5.4.7l1.4.5c.7.1 1.2.3 1.6.5.4.1.8.4 1 .8.4.3.5.8.6 1.4 0 .5-.2 1-.5 1.3-.3.5-.7.8-1.2 1-.5.2-1.1.3-1.8.3z" class="subcard-header"/><rect fill="#fff" rx="3" height="52" width="155" y="584" x="128" class="subcard-background"/><path fill="#222" d="M194 613.9h-4.5l-.7 2.1h-2.4l4-11.2h2.6l4 11.2h-2.3l-.7-2.1zm-.7-1.8l-1.6-4.7-1.6 4.7h3.2zM207 607.1v8.9h-2.3v-1.1a3 3 0 01-1.2.9c-.4.2-1 .3-1.5.3-.7 0-1.3-.1-1.8-.4-.5-.3-1-.8-1.3-1.3-.3-.6-.4-1.3-.4-2V607h2.2v5c0 .6.2 1.2.5 1.5.4.4.9.6 1.5.6a2 2 0 001.4-.6c.4-.3.6-.9.6-1.6v-4.9h2.2zM211.7 609v4.3c0 .3.1.5.3.6.1.1.3.2.7.2h1v1.9h-1.4c-1.9 0-2.8-1-2.8-2.8V609h-1V607h1V605h2.2v2.2h2v1.9h-2zM220.3 607c.7 0 1.3.2 1.8.5.5.2 1 .7 1.2 1.3.3.5.5 1.2.5 2v5.2h-2.3v-4.9c0-.7-.1-1.2-.5-1.6-.3-.4-.8-.6-1.4-.6a2 2 0 00-1.5.6c-.3.4-.5.9-.5 1.6v4.9h-2.3v-11.8h2.3v4l1.1-.9c.5-.2 1-.3 1.6-.3z" class="subcard-header"/><rect fill="#fff" rx="3" height="52" width="155" y="584" x="299" class="subcard-background"/><path fill="#222" d="M348 616.1c-.8 0-1.5-.1-2.2-.4-.6-.3-1-.6-1.4-1.1a3 3 0 01-.6-1.8h2.4c0 .4.2.8.5 1 .3.3.7.5 1.2.5s1-.2 1.2-.4c.3-.3.5-.6.5-1 0-.3-.1-.6-.3-.8a2 2 0 00-.8-.5l-1.2-.4-1.8-.6-1.2-1c-.3-.4-.5-1-.5-1.7 0-.6.2-1.2.5-1.7.4-.5.8-.9 1.4-1.1a5 5 0 012-.4c1.2 0 2.2.3 2.9.8a3 3 0 011.2 2.4h-2.5c0-.4-.2-.7-.5-1-.3-.2-.7-.4-1.2-.4-.4 0-.8.1-1 .4-.3.2-.4.5-.4 1 0 .2 0 .5.3.7l.7.5 1.3.4 1.7.6c.5.2.9.6 1.2 1 .3.4.5 1 .5 1.7a3.2 3.2 0 01-1.8 2.9c-.6.3-1.3.4-2.1.4zM362 611.4v.8h-6.5c.1.7.3 1.2.7 1.5.4.4.9.6 1.5.6.8 0 1.4-.4 1.8-1h2.4a4 4 0 01-4.2 2.8c-.8 0-1.6-.1-2.3-.5-.6-.4-1.2-1-1.6-1.6a5 5 0 01-.5-2.4c0-1 .2-1.8.5-2.4a4 4 0 011.6-1.6c.7-.4 1.5-.6 2.3-.6.9 0 1.6.2 2.3.5.7.4 1.2 1 1.5 1.6.4.6.6 1.4.6 2.3zm-2.2-.7c0-.5-.2-1-.7-1.3a2 2 0 00-2.9 0c-.3.3-.5.7-.6 1.3h4.2zM363.2 611.6c0-1 .1-1.7.5-2.4a4 4 0 011.6-1.6c.6-.4 1.4-.6 2.2-.6 1.1 0 2 .3 2.8.8a4 4 0 011.4 2.3h-2.4c-.1-.4-.3-.7-.7-.9-.3-.2-.6-.3-1-.3-.7 0-1.2.2-1.6.7a3 3 0 00-.6 2c0 .8.2 1.5.6 2 .4.4.9.6 1.5.6 1 0 1.5-.4 1.8-1.2h2.4a4 4 0 01-1.4 2.3c-.8.6-1.7.8-2.8.8-.8 0-1.6-.1-2.2-.5a4 4 0 01-1.6-1.6 5 5 0 01-.5-2.4zM381.7 607.1v8.9h-2.2v-1.1a3 3 0 01-1.2.9c-.4.2-1 .3-1.5.3-.7 0-1.3-.1-1.8-.4-.5-.3-1-.8-1.3-1.3-.3-.6-.4-1.3-.4-2V607h2.2v5c0 .6.2 1.2.5 1.5.4.4.9.6 1.5.6a2 2 0 001.4-.6c.4-.3.6-.9.6-1.6v-4.9h2.2zM386.2 608.5c.3-.5.6-.8 1-1 .6-.4 1.1-.5 1.7-.5v2.4h-.6c-.7 0-1.2.1-1.6.5-.4.3-.5.9-.5 1.7v4.4h-2.3v-8.9h2.3v1.4zM391.5 606c-.4 0-.7 0-1-.3-.2-.2-.3-.6-.3-1 0-.3 0-.6.3-.9.3-.2.6-.3 1-.3s.8 0 1 .3c.3.3.4.6.4 1 0 .3-.1.7-.4 1-.2.2-.6.3-1 .3zm1.1 1.1v8.9h-2.2v-8.9h2.2zM397.5 609v4.3c0 .3 0 .5.2.6l.7.2h1v1.9H398c-1.8 0-2.8-1-2.8-2.8V609h-1V607h1V605h2.3v2.2h2v1.9h-2zM409.5 607.1l-5.5 13h-2.3l1.9-4.3-3.6-8.7h2.5l2.3 6.2 2.4-6.2h2.3z" class="subcard-header"/><rect stroke-dasharray="8 8" stroke-width="1.5" stroke="#D4D4D4" fill="#F8F8F8" rx="3.8" height="549.5" width="467.5" y="301.3" x="730.3" class="card-background"/><path stroke-dasharray="8 8"  stroke-width="1.5" stroke="#D4D4D4" fill="#F6F8FB" class="subcard-border" d="M754.3 325.3h419.5v306.5H754.3z"/><rect fill="#fff" rx="3" height="75" width="326" y="353" x="801" class="subcard-background"/><path fill="#222" d="M906 404c.3 0 .6.2 1 .4.2.2.5.5.6.9.2.3.3.7.3 1 0 .6-.1 1-.4 1.4-.2.4-.6.7-1 1a4 4 0 01-1.8.3h-3.6v-9.8h3.5c.6 0 1.2.2 1.7.4.4.2.8.5 1 .9.3.3.4.8.4 1.2 0 .6-.2 1-.5 1.5-.3.3-.7.6-1.2.8zm-3.6-.5h2c.7 0 1.2-.2 1.5-.5.3-.2.5-.6.5-1.1 0-.5-.2-1-.5-1.2-.3-.3-.8-.4-1.4-.4h-2.1v3.2zm2.2 4.5c.6 0 1.1-.2 1.5-.5.3-.3.5-.7.5-1.2 0-.6-.2-1-.5-1.3-.4-.3-1-.5-1.5-.5h-2.2v3.5h2.2zM909.2 405.1c0-.7.1-1.4.5-2a3.5 3.5 0 013.1-1.9c.7 0 1.3.1 1.8.4.5.3.8.7 1 1.1v-1.4h1.4v7.7h-1.3v-1.4a3 3 0 01-1.2 1c-.4.4-1 .5-1.7.5a3.5 3.5 0 01-3.1-1.9c-.4-.6-.5-1.3-.5-2zm6.5 0c0-.5-.1-1-.4-1.5-.2-.4-.5-.7-1-1-.3-.2-.7-.3-1.2-.3s-1 .1-1.3.3l-1 1-.3 1.5c0 .6.1 1.1.3 1.6l1 1c.4.2.8.3 1.3.3s.9-.1 1.3-.3l1-1 .3-1.5zM918.6 405.1c0-.7.2-1.4.5-2 .3-.6.8-1 1.3-1.4.6-.3 1.3-.5 2-.5 1 0 1.7.2 2.3.7.6.4 1 1 1.2 1.9h-1.3a2 2 0 00-.8-1.1c-.4-.3-.9-.4-1.4-.4-.7 0-1.3.2-1.8.7-.4.5-.6 1.2-.6 2.1 0 1 .2 1.7.6 2.2.5.5 1 .7 1.8.7.5 0 1 0 1.4-.3.4-.3.6-.7.8-1.2h1.3c-.2.8-.6 1.4-1.2 2-.6.4-1.4.6-2.3.6-.7 0-1.4-.1-2-.5-.5-.3-1-.8-1.3-1.4-.3-.5-.5-1.2-.5-2zM932 409l-3.1-3.4v3.4h-1.3v-10.4h1.3v6.1l3-3.4h1.7l-3.6 3.8 3.6 3.9H932zM941.8 404.9v.7h-6.1c0 .8.3 1.4.7 1.8.5.4 1 .6 1.8.6.5 0 1 0 1.3-.3.4-.3.7-.6.8-1h1.4c-.2.7-.6 1.3-1.3 1.7-.6.5-1.3.7-2.2.7a4 4 0 01-2-.5c-.6-.3-1-.8-1.4-1.4-.3-.6-.4-1.3-.4-2 0-.8.1-1.5.4-2.1.4-.6.8-1 1.4-1.4a4 4 0 012-.5c.7 0 1.3.2 1.9.5.5.3 1 .7 1.3 1.3.3.5.4 1.2.4 1.9zm-1.3-.3c0-.5 0-.9-.3-1.2a2 2 0 00-.9-.8c-.3-.2-.8-.3-1.2-.3-.6 0-1.2.2-1.7.6-.4.4-.7 1-.7 1.7h4.8zM947.3 401.2c.9 0 1.6.3 2.2.8.6.6.9 1.4.9 2.5v4.5H949v-4.3c0-.8-.2-1.4-.5-1.8a2 2 0 00-1.6-.6c-.7 0-1.2.2-1.6.6-.4.4-.6 1-.6 1.9v4.2h-1.3v-7.7h1.3v1.1c.2-.4.6-.7 1-.9l1.5-.3zM952 405.1c0-.7.2-1.4.5-2a3.5 3.5 0 013.1-1.9 3.4 3.4 0 012.9 1.5v-4h1.3V409h-1.3v-1.4a3 3 0 01-1.1 1c-.5.4-1.1.5-1.8.5-.6 0-1.3-.1-1.8-.5-.6-.3-1-.8-1.3-1.4-.3-.6-.5-1.3-.5-2zm6.5 0c0-.5-.1-1-.4-1.5-.2-.4-.5-.7-1-1-.3-.2-.7-.3-1.2-.3s-1 .1-1.3.3l-1 1-.3 1.5c0 .6.1 1.1.3 1.6l1 1c.4.2.8.3 1.3.3s.9-.1 1.3-.3l1-1 .3-1.5zM966.3 400c-.2 0-.4 0-.6-.2a.8.8 0 01-.2-.6c0-.2 0-.4.2-.6l.6-.3c.3 0 .5.1.6.3l.3.6c0 .3-.1.5-.3.6-.1.2-.3.3-.6.3zm.6 1.3v7.7h-1.2v-7.7h1.2zM972.8 401.2c1 0 1.7.3 2.3.8.6.6.9 1.4.9 2.5v4.5h-1.3v-4.3c0-.8-.2-1.4-.6-1.8a2 2 0 00-1.5-.6c-.7 0-1.2.2-1.6.6-.4.4-.6 1-.6 1.9v4.2H969v-7.7h1.3v1.1c.2-.4.6-.7 1-.9.4-.2 1-.3 1.4-.3zM979.6 402.4v4.5c0 .4.1.6.3.8l.8.2h1v1.1h-1.2c-.7 0-1.3-.2-1.6-.5-.4-.3-.6-.9-.6-1.6v-4.5h-1v-1h1v-2h1.3v2h2v1h-2zM990.2 404.9v.7H984c0 .8.3 1.4.8 1.8.4.4 1 .6 1.7.6.5 0 1 0 1.4-.3.3-.3.6-.6.7-1h1.4c-.2.7-.6 1.3-1.2 1.7-.6.5-1.4.7-2.3.7a4 4 0 01-2-.5c-.5-.3-1-.8-1.3-1.4-.3-.6-.5-1.3-.5-2 0-.8.1-1.5.5-2.1.3-.6.7-1 1.3-1.4a4 4 0 012-.5c.7 0 1.4.2 2 .5a3.8 3.8 0 011.8 3.2zm-1.4-.3c0-.5 0-.9-.3-1.2a2 2 0 00-.9-.8c-.3-.2-.7-.3-1.2-.3-.6 0-1.2.2-1.6.6-.5.4-.7 1-.8 1.7h4.8zM993.1 402.6c.2-.5.6-.8 1-1a3 3 0 011.5-.4v1.3h-.3c-1.5 0-2.2.8-2.2 2.3v4.2h-1.3v-7.7h1.3v1.3zM1000.2 402.4h-1.6v6.6h-1.3v-6.6h-1v-1h1v-.6c0-.9.2-1.5.7-1.9.4-.4 1.1-.6 2.1-.6v1c-.6 0-1 .2-1.2.4-.2.2-.3.6-.3 1v.6h1.6v1zM1001.2 405.1c0-.7.2-1.4.5-2a3.4 3.4 0 013.1-1.9c.7 0 1.3.1 1.8.4.5.3.9.7 1.1 1.1v-1.4h1.3v7.7h-1.3v-1.4a3 3 0 01-1.1 1c-.5.4-1.1.5-1.8.5a3.5 3.5 0 01-3.1-1.9c-.3-.6-.5-1.3-.5-2zm6.5 0l-.3-1.5-1-1c-.4-.2-.8-.3-1.3-.3s-1 .1-1.3.3l-1 1-.3 1.5c0 .6.1 1.1.3 1.6l1 1c.4.2.8.3 1.3.3s.9-.1 1.3-.3l1-1 .3-1.5zM1010.7 405.1c0-.7.1-1.4.4-2 .3-.6.8-1 1.3-1.4.6-.3 1.3-.5 2-.5 1 0 1.7.2 2.3.7.6.4 1 1 1.2 1.9h-1.3a2 2 0 00-.8-1.1c-.4-.3-.8-.4-1.4-.4-.7 0-1.3.2-1.8.7a3 3 0 00-.6 2.1c0 1 .2 1.7.6 2.2.5.5 1 .7 1.8.7.6 0 1 0 1.4-.3.4-.3.6-.7.8-1.2h1.3c-.2.8-.6 1.4-1.2 2-.6.4-1.4.6-2.3.6-.7 0-1.4-.1-2-.5-.5-.3-1-.8-1.3-1.4-.3-.5-.4-1.2-.4-2zM1026.6 404.9v.7h-6.1c0 .8.3 1.4.7 1.8.5.4 1 .6 1.8.6.5 0 1 0 1.3-.3.4-.3.7-.6.8-1h1.4c-.2.7-.6 1.3-1.2 1.7-.7.5-1.4.7-2.3.7a4 4 0 01-2-.5c-.6-.3-1-.8-1.3-1.4-.4-.6-.5-1.3-.5-2 0-.8.1-1.5.4-2.1.4-.6.8-1 1.4-1.4a4 4 0 012-.5c.7 0 1.3.2 1.9.5.6.3 1 .7 1.3 1.3.3.5.4 1.2.4 1.9zm-1.3-.3c0-.5 0-.9-.3-1.2a2 2 0 00-.9-.8c-.3-.2-.7-.3-1.2-.3-.6 0-1.2.2-1.6.6-.5.4-.7 1-.8 1.7h4.8z" class="subcard-subheader"/><path fill="#222" d="M947 372.8l-3 11.2h-2.7l-2.1-8-2.2 8h-2.6l-3-11.2h2.4l2 8.7 2.2-8.7h2.5l2.1 8.7 2-8.7h2.4zM956.7 379.4v.8h-6.5c0 .7.3 1.2.7 1.5.4.4.8.6 1.4.6.9 0 1.4-.4 1.8-1h2.4a4 4 0 01-4.1 2.8c-.9 0-1.7-.1-2.3-.5-.7-.4-1.2-1-1.6-1.6a5 5 0 01-.6-2.4c0-1 .2-1.8.6-2.4a4 4 0 011.5-1.6c.7-.4 1.5-.6 2.4-.6.8 0 1.6.2 2.2.5.7.4 1.2 1 1.6 1.6.3.6.5 1.4.5 2.3zm-2.3-.7c0-.5-.2-1-.6-1.3-.4-.4-1-.6-1.5-.6a2 2 0 00-1.4.5c-.4.4-.6.8-.7 1.4h4.2zM960.6 376.4c.3-.4.7-.7 1.2-1 .5-.3 1-.4 1.7-.4a3.8 3.8 0 013.5 2.2c.4.6.6 1.4.6 2.3 0 1-.2 1.7-.6 2.5a4 4 0 01-1.4 1.6c-.6.4-1.3.5-2 .5s-1.3 0-1.8-.3-.9-.6-1.2-1v1.2h-2.2v-11.8h2.2v4.2zm4.7 3.1c0-.5-.1-1-.3-1.3l-.9-1a2.3 2.3 0 00-2.3 0l-.9 1c-.2.4-.3.8-.3 1.4 0 .5.1 1 .3 1.4.3.4.5.7.9.9a2.3 2.3 0 002.3 0l.9-1c.2-.4.3-.8.3-1.4zM979.9 381.9h-4.5l-.7 2.1h-2.4l4-11.2h2.7l4 11.2h-2.4l-.7-2.1zm-.6-1.8l-1.6-4.7-1.7 4.7h3.3zM992.6 376.3c0 .6-.1 1.1-.4 1.7a3 3 0 01-1.3 1.2c-.6.4-1.4.5-2.3.5h-1.9v4.3h-2.2v-11.2h4a5 5 0 012.3.5c.6.3 1 .7 1.4 1.2.3.5.4 1.1.4 1.8zm-4.1 1.6c.6 0 1-.1 1.4-.4.3-.3.4-.7.4-1.2 0-1.1-.6-1.6-1.8-1.6h-1.8v3.2h1.8zM996.5 372.8V384h-2.3v-11.2h2.3z" class="subcard-header"/><rect fill="#fff" rx="3" height="75" width="326" y="444" x="801" class="subcard-background"/><path fill="#222" d="M855 490.2c1 0 2 .2 2.7.6a4 4 0 011.8 1.7c.4.8.7 1.6.7 2.6s-.3 2-.7 2.6c-.4.8-1 1.3-1.8 1.7-.7.4-1.7.6-2.7.6h-3v-9.8h3zm0 8.8c1.2 0 2.2-.4 2.9-1 .6-.7 1-1.7 1-2.9s-.4-2.1-1-2.8c-.7-.7-1.7-1-3-1h-1.7v7.7h1.8zM861.4 496.1c0-.7.1-1.4.4-2a3.5 3.5 0 013.2-1.9c.7 0 1.3.1 1.8.4.4.3.8.7 1 1.1v-1.4h1.3v7.7H868v-1.4a3 3 0 01-1.2 1c-.5.4-1 .5-1.7.5a3.5 3.5 0 01-3.2-1.9c-.3-.6-.4-1.3-.4-2zm6.5 0c0-.5-.2-1-.4-1.5-.2-.4-.5-.7-1-1-.3-.2-.8-.3-1.2-.3-.5 0-1 .1-1.4.3-.3.3-.7.6-.9 1l-.3 1.5c0 .6 0 1.1.3 1.6.2.4.6.7 1 1 .3.2.8.3 1.3.3.4 0 .9-.1 1.3-.3l1-1 .3-1.5zM872.9 493.4v4.5c0 .4 0 .6.2.8l.8.2h1v1.1h-1.2c-.7 0-1.2-.2-1.6-.5-.3-.3-.5-.9-.5-1.6v-4.5h-1v-1h1v-2h1.3v2h2v1h-2zM876 496.1c0-.7 0-1.4.4-2a3.5 3.5 0 013.2-1.9c.6 0 1.2.1 1.7.4.5.3.9.7 1.1 1.1v-1.4h1.3v7.7h-1.3v-1.4a3 3 0 01-1.1 1c-.5.4-1 .5-1.8.5a3.5 3.5 0 01-3.1-1.9c-.3-.6-.5-1.3-.5-2zm6.4 0l-.3-1.5-1-1c-.4-.2-.8-.3-1.3-.3s-.9.1-1.3.3l-1 1-.3 1.5c0 .6.1 1.1.4 1.6.2.4.5.7 1 1 .3.2.7.3 1.2.3s1-.1 1.3-.3l1-1 .3-1.5zM893 500.1a4 4 0 01-2-.5c-.6-.3-1-.8-1.4-1.4-.3-.6-.5-1.3-.5-2 0-.8.2-1.5.5-2.1.4-.6.8-1 1.4-1.4a4 4 0 012-.5 4 4 0 012 .5c.6.3 1 .8 1.4 1.4.3.6.5 1.3.5 2a4 4 0 01-.6 2.1c-.3.6-.8 1.1-1.4 1.4a4 4 0 01-2 .5zm0-1c.4 0 .8-.2 1.2-.4.4-.2.7-.6 1-1 .2-.4.4-1 .4-1.6 0-.6-.2-1-.4-1.5a2.6 2.6 0 00-2.2-1.3c-.5 0-1 .1-1.3.3-.4.2-.7.6-1 1-.2.4-.3 1-.3 1.5 0 .7.1 1.2.4 1.6.2.5.5.8.9 1l1.2.3zM899.8 493.6c.2-.5.6-.8 1-1a3 3 0 011.5-.4v1.3h-.3c-1.5 0-2.2.8-2.2 2.3v4.2h-1.3v-7.7h1.3v1.3zM907 492.2c.6 0 1.2.1 1.7.4.5.3.8.7 1 1.1v-1.4h1.4v7.9c0 .7-.2 1.3-.5 1.8-.3.6-.7 1-1.3 1.3-.5.3-1.2.5-1.9.5-1 0-1.8-.3-2.5-.7-.7-.5-1-1.2-1.2-2h1.3c.1.5.4.9.8 1.1.5.3 1 .5 1.6.5.7 0 1.3-.2 1.7-.7.5-.4.7-1 .7-1.8v-1.6a3 3 0 01-1.1 1c-.5.4-1.1.5-1.8.5-.6 0-1.3-.1-1.8-.5-.6-.3-1-.8-1.3-1.4-.3-.6-.5-1.3-.5-2 0-.8.2-1.5.5-2.1a3.5 3.5 0 013.1-1.9zm2.8 4c0-.6-.1-1.1-.4-1.6-.2-.4-.5-.7-1-1-.3-.2-.7-.3-1.2-.3s-1 .1-1.3.3l-1 1-.3 1.5c0 .6.1 1.1.3 1.6l1 1c.4.2.8.3 1.3.3s.9-.1 1.3-.3l1-1c.2-.5.3-1 .3-1.6zM912.8 496.1c0-.7.1-1.4.4-2a3.5 3.5 0 013.2-1.9c.7 0 1.2.1 1.7.4.5.3 1 .7 1.1 1.1v-1.4h1.3v7.7h-1.3v-1.4a3 3 0 01-1 1c-.6.4-1.2.5-1.8.5a3.5 3.5 0 01-3.2-1.9c-.3-.6-.4-1.3-.4-2zm6.4 0c0-.5 0-1-.3-1.5-.2-.4-.6-.7-1-1-.3-.2-.8-.3-1.3-.3-.4 0-.9.1-1.3.3-.4.3-.7.6-.9 1l-.3 1.5c0 .6 0 1.1.3 1.6.2.4.5.7 1 1 .3.2.8.3 1.2.3.5 0 1-.1 1.3-.3.4-.3.8-.6 1-1l.3-1.5zM926.4 492.2c1 0 1.7.3 2.3.8.6.6.9 1.4.9 2.5v4.5h-1.3v-4.3c0-.8-.2-1.4-.6-1.8a2 2 0 00-1.5-.6c-.7 0-1.2.2-1.6.6-.4.4-.6 1-.6 1.9v4.2h-1.3v-7.7h1.3v1.1c.2-.4.6-.7 1-.9.4-.2 1-.3 1.4-.3zM932.3 491c-.2 0-.4 0-.6-.2a.8.8 0 01-.3-.6l.3-.6.6-.3.6.3c.2.2.2.4.2.6 0 .3 0 .5-.2.6l-.6.3zm.6 1.3v7.7h-1.3v-7.7h1.3zM936 499h3.8v1h-5.2v-1l3.7-5.6h-3.7v-1h5.2v1l-3.8 5.5zM941 496.1c0-.7.1-1.4.5-2a3.5 3.5 0 013.1-1.9c.7 0 1.3.1 1.8.4.5.3.8.7 1 1.1v-1.4h1.4v7.7h-1.3v-1.4a3 3 0 01-1.2 1c-.4.4-1 .5-1.7.5a3.5 3.5 0 01-3.1-1.9c-.4-.6-.5-1.3-.5-2zm6.5 0c0-.5-.1-1-.4-1.5-.2-.4-.5-.7-1-1-.3-.2-.7-.3-1.2-.3s-1 .1-1.3.3l-1 1-.3 1.5c0 .6.1 1.1.3 1.6l1 1c.4.2.8.3 1.3.3s.9-.1 1.3-.3l1-1 .3-1.5zM952.5 493.4v4.5c0 .4 0 .6.2.8l.8.2h1v1.1h-1.2c-.7 0-1.2-.2-1.6-.5-.3-.3-.5-.9-.5-1.6v-4.5h-1v-1h1v-2h1.3v2h2v1h-2zM956.7 491c-.3 0-.5 0-.6-.2a.8.8 0 01-.3-.6l.3-.6c.1-.2.3-.3.6-.3l.6.3.2.6c0 .3 0 .5-.2.6l-.6.3zm.6 1.3v7.7H956v-7.7h1.3zM962.8 500.1a4 4 0 01-2-.5c-.5-.3-1-.8-1.3-1.4-.3-.6-.5-1.3-.5-2 0-.8.2-1.5.5-2.1.3-.6.8-1 1.4-1.4a4 4 0 012-.5 4 4 0 012 .5 4.1 4.1 0 011.9 3.5 4 4 0 01-.6 2c-.3.6-.8 1.1-1.4 1.4a4 4 0 01-2 .5zm0-1c.5 0 .9-.2 1.3-.4s.7-.6 1-1c.2-.4.3-1 .3-1.6 0-.6 0-1-.3-1.5-.3-.4-.6-.8-1-1l-1.2-.3c-.5 0-1 .1-1.3.3-.4.2-.7.6-1 1-.2.4-.3 1-.3 1.5 0 .7.1 1.2.3 1.6.3.5.6.8 1 1 .3.2.8.3 1.2.3zM972.2 492.2c.9 0 1.6.3 2.2.8.6.6.9 1.4.9 2.5v4.5H974v-4.3c0-.8-.2-1.4-.5-1.8a2 2 0 00-1.6-.6c-.7 0-1.2.2-1.6.6-.4.4-.6 1-.6 1.9v4.2h-1.3v-7.7h1.3v1.1c.2-.4.6-.7 1-.9l1.5-.3zM986 495c.4 0 .7.2 1 .4.3.2.5.5.7.9l.2 1c0 .6-.1 1-.4 1.4-.2.4-.6.7-1 1a4 4 0 01-1.8.3h-3.6v-9.8h3.5c.7 0 1.2.2 1.7.4s.8.5 1 .9c.3.3.4.8.4 1.2 0 .6-.2 1-.5 1.5-.3.3-.7.6-1.2.8zm-3.6-.5h2.1c.6 0 1-.2 1.4-.5.3-.2.5-.6.5-1.1 0-.5-.2-1-.5-1.2-.3-.3-.8-.4-1.4-.4h-2.1v3.2zm2.2 4.5c.7 0 1.2-.2 1.5-.5.4-.3.6-.7.6-1.2 0-.6-.2-1-.6-1.3-.4-.3-.9-.5-1.5-.5h-2.2v3.5h2.2zM996.5 492.3v7.7h-1.3v-1.1c-.2.4-.6.7-1 .9-.4.2-.9.3-1.4.3-.6 0-1.2-.1-1.6-.4-.5-.2-.9-.6-1.2-1-.2-.6-.4-1.2-.4-1.9v-4.5h1.3v4.4c0 .7.2 1.3.6 1.7.3.4.9.6 1.5.6a2 2 0 001.6-.6c.4-.4.6-1 .6-1.9v-4.2h1.3zM1001.4 500.1a4 4 0 01-1.6-.3 2.3 2.3 0 01-1.6-2h1.3c0 .3.3.6.6.9.3.2.7.3 1.3.3.4 0 .8 0 1.1-.3.3-.2.4-.5.4-.8 0-.3-.1-.6-.4-.7a6 6 0 00-1.4-.5l-1.4-.5c-.4-.1-.7-.4-1-.7-.2-.3-.3-.7-.3-1.2 0-.3.1-.7.3-1 .3-.4.6-.6 1-.8l1.5-.3c.8 0 1.5.2 2 .6.6.5.9 1 .9 1.8h-1.3c0-.4-.2-.7-.5-1-.3-.2-.7-.3-1.1-.3-.5 0-.9 0-1.1.3a1 1 0 00-.4.7c0 .3 0 .5.2.7l.6.4 1 .3 1.4.4.9.7c.2.3.4.6.4 1.1 0 .4-.2.8-.4 1.1-.2.4-.6.7-1 .8-.4.2-.9.3-1.4.3zM1006.6 491c-.2 0-.4 0-.6-.2a.8.8 0 01-.3-.6l.3-.6.6-.3c.3 0 .4.1.6.3l.3.6c0 .3-.1.5-.3.6-.2.2-.3.3-.6.3zm.6 1.3v7.7h-1.2v-7.7h1.2zM1013.1 492.2c1 0 1.7.3 2.3.8.6.6.9 1.4.9 2.5v4.5h-1.3v-4.3c0-.8-.2-1.4-.6-1.8a2 2 0 00-1.5-.6c-.7 0-1.2.2-1.6.6-.4.4-.6 1-.6 1.9v4.2h-1.3v-7.7h1.3v1.1c.2-.4.6-.7 1-.9.4-.2 1-.3 1.4-.3zM1025.4 495.9v.7h-6.2c0 .8.3 1.4.8 1.8.4.4 1 .6 1.7.6.5 0 1 0 1.4-.3.3-.3.6-.6.7-1h1.4c-.2.7-.6 1.3-1.2 1.7-.6.5-1.4.7-2.3.7a4 4 0 01-2-.5c-.6-.3-1-.8-1.3-1.4-.4-.6-.5-1.3-.5-2 0-.8.1-1.5.5-2.1.3-.6.7-1 1.3-1.4a4 4 0 012-.5c.7 0 1.4.2 2 .5.5.3.9.7 1.2 1.3.3.5.5 1.2.5 1.9zm-1.4-.3c0-.5 0-.9-.3-1.2a2 2 0 00-.9-.8c-.3-.2-.7-.3-1.2-.3-.6 0-1.2.2-1.6.6-.5.4-.7 1-.8 1.7h4.8zM1029.8 500.1a4 4 0 01-1.6-.3c-.5-.2-.8-.5-1.1-.8-.3-.4-.4-.8-.5-1.3h1.3c0 .4.3.7.6 1 .3.2.7.3 1.3.3.4 0 .8 0 1.1-.3.3-.2.4-.5.4-.8 0-.3-.1-.6-.4-.7a6 6 0 00-1.4-.5l-1.4-.5c-.4-.1-.7-.4-1-.7-.2-.3-.3-.7-.3-1.2 0-.3.1-.7.3-1 .3-.4.6-.6 1-.8.4-.2 1-.3 1.5-.3.8 0 1.5.2 2 .6.6.5.9 1 .9 1.8h-1.3c0-.4-.2-.7-.5-1-.3-.2-.7-.3-1.2-.3-.4 0-.8 0-1 .3a1 1 0 00-.5.7c0 .3.1.5.3.7l.6.4 1 .3 1.4.4.9.7.4 1.1c0 .4-.2.8-.4 1.1-.2.4-.6.7-1 .8-.4.2-.9.3-1.4.3zM1037 500.1a4 4 0 01-1.5-.3c-.5-.2-.8-.5-1.1-.8-.3-.4-.4-.8-.5-1.3h1.4c0 .4.2.7.5 1 .3.2.7.3 1.3.3.5 0 .8 0 1.1-.3.3-.2.4-.5.4-.8 0-.3-.1-.6-.4-.7a6 6 0 00-1.4-.5l-1.4-.5c-.4-.1-.7-.4-1-.7-.2-.3-.3-.7-.3-1.2 0-.3.1-.7.3-1 .3-.4.6-.6 1-.8l1.5-.3c.9 0 1.5.2 2 .6.6.5.9 1 1 1.8h-1.4c0-.4-.2-.7-.5-1-.3-.2-.6-.3-1.1-.3-.5 0-.9 0-1.1.3-.3.2-.4.4-.4.7 0 .3 0 .5.2.7l.6.4 1 .3 1.4.4.9.7c.2.3.4.6.4 1.1 0 .4-.1.8-.4 1.1-.2.4-.5.7-1 .8-.4.2-.9.3-1.4.3zM1046.7 489.6V500h-1.3v-10.4h1.3zM1052.2 500.1a4 4 0 01-2-.5c-.5-.3-1-.8-1.3-1.4-.4-.6-.5-1.3-.5-2 0-.8.2-1.5.5-2.1.3-.6.8-1 1.4-1.4a4 4 0 012-.5 4 4 0 012 .5c.5.3 1 .8 1.3 1.4.4.6.5 1.3.5 2a4 4 0 01-.5 2.1c-.3.6-.8 1.1-1.4 1.4a4 4 0 01-2 .5zm0-1c.5 0 .9-.2 1.3-.4s.7-.6 1-1c.2-.4.3-1 .3-1.6 0-.6 0-1-.3-1.5-.3-.4-.6-.8-1-1-.4-.2-.8-.3-1.3-.3l-1.2.3c-.4.2-.7.6-1 1-.2.4-.3 1-.3 1.5 0 .7 0 1.2.3 1.6.3.5.6.8 1 1 .3.2.7.3 1.2.3zM1061 492.2c.6 0 1.2.1 1.7.4.5.3.9.7 1.1 1.1v-1.4h1.3v7.9c0 .7-.1 1.3-.4 1.8-.3.6-.8 1-1.3 1.3-.6.3-1.2.5-2 .5-1 0-1.8-.3-2.5-.7-.6-.5-1-1.2-1.2-2h1.3c.1.5.4.9.9 1.1.4.3 1 .5 1.5.5.7 0 1.3-.2 1.8-.7.4-.4.6-1 .6-1.8v-1.6a3 3 0 01-1 1c-.6.4-1.2.5-1.8.5-.7 0-1.3-.1-1.9-.5-.5-.3-1-.8-1.3-1.4-.3-.6-.5-1.3-.5-2 0-.8.2-1.5.5-2.1a3.5 3.5 0 013.2-1.9zm2.8 4c0-.6 0-1.1-.3-1.6-.2-.4-.6-.7-1-1-.4-.2-.8-.3-1.3-.3s-.9.1-1.3.3l-1 1-.3 1.5c0 .6.2 1.1.4 1.6.2.4.5.7 1 1 .3.2.8.3 1.2.3.5 0 1-.1 1.3-.3l1-1c.2-.5.3-1 .3-1.6zM1068 491c-.3 0-.5 0-.7-.2a.8.8 0 01-.2-.6c0-.2 0-.4.2-.6l.6-.3c.3 0 .5.1.6.3l.3.6c0 .3-.1.5-.3.6-.1.2-.3.3-.6.3zm.5 1.3v7.7h-1.2v-7.7h1.2zM1070.2 496.1c0-.7.2-1.4.5-2 .3-.6.8-1 1.3-1.4.6-.3 1.2-.5 2-.5 1 0 1.7.2 2.3.7.6.4 1 1 1.2 1.9h-1.4a2 2 0 00-.7-1.1c-.4-.3-.9-.4-1.4-.4-.7 0-1.3.2-1.8.7-.4.5-.7 1.2-.7 2.1 0 1 .3 1.7.7 2.2.5.5 1 .7 1.8.7.5 0 1 0 1.4-.3.4-.3.6-.7.8-1.2h1.3c-.2.8-.6 1.4-1.2 2-.6.4-1.4.6-2.3.6-.7 0-1.4-.1-2-.5-.5-.3-1-.8-1.3-1.4-.3-.5-.5-1.2-.5-2z" class="subcard-subheader"/><path fill="#222" d="M937 475.1c-.8 0-1.5-.1-2.2-.4-.6-.3-1-.6-1.4-1.1a3 3 0 01-.6-1.8h2.4c0 .4.2.8.5 1 .3.3.7.5 1.2.5s1-.2 1.2-.4c.3-.3.5-.6.5-1 0-.3-.1-.6-.3-.8a2 2 0 00-.8-.5l-1.2-.4-1.8-.6-1.2-1c-.3-.4-.5-1-.5-1.7 0-.6.2-1.2.5-1.7.4-.5.8-.9 1.4-1.1a5 5 0 012-.4c1.2 0 2.2.3 2.9.8a3 3 0 011.2 2.4h-2.5c0-.4-.2-.7-.5-1-.3-.2-.7-.4-1.2-.4-.4 0-.8.1-1 .4-.3.2-.4.5-.4 1 0 .2 0 .5.3.7l.7.5 1.3.4 1.7.6c.5.2.9.6 1.2 1 .3.4.5 1 .5 1.7a3.2 3.2 0 01-1.8 2.9c-.6.3-1.3.4-2.1.4zM951 470.4v.8h-6.4c0 .7.2 1.2.6 1.5.4.4.9.6 1.5.6.8 0 1.4-.4 1.8-1h2.4a4 4 0 01-4.2 2.8c-.8 0-1.6-.1-2.3-.5-.6-.4-1.2-1-1.6-1.6a5 5 0 01-.5-2.4c0-1 .2-1.8.5-2.4a4 4 0 011.6-1.6c.7-.4 1.5-.6 2.3-.6.9 0 1.6.2 2.3.5.7.4 1.2 1 1.5 1.6.4.6.6 1.4.6 2.3zm-2.2-.7c0-.5-.2-1-.6-1.3-.5-.4-1-.6-1.5-.6a2 2 0 00-1.4.5c-.4.4-.6.8-.7 1.4h4.2zM955 467.5c.3-.5.6-.8 1-1 .6-.4 1-.5 1.7-.5v2.4h-.6c-.7 0-1.2.1-1.6.5-.4.3-.5.9-.5 1.7v4.4h-2.3v-8.9h2.3v1.4zM962.9 473l2.2-6.9h2.4l-3.3 8.9h-2.7l-3.2-8.9h2.4l2.2 6.8zM970 465c-.5 0-.8 0-1-.3-.3-.2-.5-.6-.5-1 0-.3.2-.6.4-.9.3-.2.6-.3 1-.3s.7 0 1 .3c.3.3.4.6.4 1 0 .3-.1.7-.4 1-.3.2-.6.3-1 .3zm1 1.1v8.9h-2.2v-8.9h2.2zM972.7 470.6c0-1 .1-1.7.5-2.4a4 4 0 011.6-1.6c.6-.4 1.4-.6 2.2-.6 1.1 0 2 .3 2.8.8a4 4 0 011.4 2.3h-2.4c-.1-.4-.3-.7-.7-.9-.3-.2-.6-.3-1-.3-.7 0-1.2.2-1.6.7a3 3 0 00-.6 2c0 .8.2 1.5.6 2 .4.4.9.6 1.5.6 1 0 1.5-.4 1.8-1.2h2.4a4 4 0 01-1.4 2.3c-.8.6-1.7.8-2.8.8-.8 0-1.6-.1-2.2-.5a4 4 0 01-1.6-1.6 5 5 0 01-.5-2.4zM991 470.4v.8h-6.4c0 .7.2 1.2.6 1.5.4.4.9.6 1.5.6.8 0 1.4-.4 1.8-1h2.4a4 4 0 01-4.2 2.8c-.8 0-1.6-.1-2.3-.5-.6-.4-1.2-1-1.6-1.6a5 5 0 01-.5-2.4c0-1 .2-1.8.5-2.4a4 4 0 011.6-1.6c.7-.4 1.5-.6 2.3-.6.9 0 1.6.2 2.3.5.7.4 1.2 1 1.5 1.6.4.6.6 1.4.6 2.3zm-2.2-.7c0-.5-.2-1-.6-1.3-.5-.4-1-.6-1.5-.6a2 2 0 00-1.4.5c-.4.4-.6.8-.7 1.4h4.2z" class="subcard-header"/><rect fill="#fff" rx="3" height="75" width="326" y="535" x="801" class="subcard-background"/><path fill="#222" d="M869.9 588.8h-4.3l-.7 2.2h-1.4l3.5-9.7h1.5l3.5 9.7h-1.3l-.8-2.2zm-.4-1l-1.7-5-1.8 5h3.5zM880.4 583.3v7.7H879v-1.1c-.3.4-.6.7-1 .9l-1.5.3c-.6 0-1.1-.1-1.6-.4-.4-.2-.8-.6-1.1-1-.3-.6-.4-1.2-.4-1.9v-4.5h1.2v4.4c0 .7.2 1.3.6 1.7.4.4 1 .6 1.6.6.7 0 1.2-.2 1.6-.6.4-.4.6-1 .6-1.9v-4.2h1.3zM884 584.4v4.5c0 .4.1.6.3.8l.8.2h1v1.1h-1.2c-.7 0-1.2-.2-1.6-.5-.3-.3-.5-.9-.5-1.6v-4.5h-1v-1h1v-2h1.3v2h2v1h-2zM891.4 583.2c.6 0 1.1.1 1.6.4.5.2.8.6 1 1 .4.6.5 1.2.5 1.9v4.5h-1.3v-4.3c0-.8-.2-1.4-.5-1.8a2 2 0 00-1.6-.6c-.7 0-1.2.2-1.6.6-.4.4-.6 1-.6 1.9v4.2h-1.3v-10.4h1.3v3.8c.2-.4.6-.7 1-.9l1.5-.3zM903.6 586.9v.7h-6.2c0 .8.3 1.4.8 1.8.4.4 1 .6 1.7.6.5 0 1 0 1.4-.3.3-.3.6-.6.7-1h1.4c-.2.7-.6 1.3-1.2 1.7-.6.5-1.4.7-2.3.7a4 4 0 01-2-.5c-.5-.3-1-.8-1.3-1.3-.3-.7-.5-1.4-.5-2.1 0-.8.2-1.5.5-2.1.3-.6.7-1 1.3-1.4a4 4 0 012-.5c.7 0 1.4.2 2 .5.5.3 1 .7 1.2 1.3.3.5.5 1.2.5 1.9zm-1.3-.3c0-.5-.2-.9-.4-1.2a2 2 0 00-.9-.8c-.3-.2-.7-.3-1.2-.3-.6 0-1.2.2-1.6.6-.5.4-.7 1-.8 1.7h4.9zM909 583.2c1 0 1.7.3 2.3.8.5.6.8 1.4.8 2.5v4.5H911v-4.3c0-.8-.2-1.4-.6-1.8a2 2 0 00-1.6-.6c-.6 0-1.2.2-1.6.6-.4.4-.6 1-.6 1.9v4.2h-1.2v-7.7h1.2v1.1c.3-.4.6-.7 1-.9l1.5-.3zM915.8 584.4v4.5c0 .4 0 .6.2.8l.8.2h1v1.1h-1.2c-.7 0-1.2-.2-1.6-.5-.3-.3-.5-.9-.5-1.6v-4.5h-1v-1h1v-2h1.3v2h2v1h-2zM920 582c-.3 0-.5 0-.7-.2a.8.8 0 01-.2-.6c0-.2 0-.4.2-.6.2-.2.4-.3.7-.3l.6.3.2.6c0 .3 0 .5-.2.6l-.6.3zm.6 1.3v7.7h-1.3v-7.7h1.3zM922.3 587.1c0-.7.1-1.4.5-2 .3-.6.7-1 1.3-1.4.5-.3 1.2-.5 2-.5.9 0 1.6.2 2.2.7.7.4 1 1 1.3 1.9h-1.4a2 2 0 00-.8-1.1c-.4-.3-.8-.4-1.4-.4-.7 0-1.3.2-1.8.7-.4.5-.6 1.2-.6 2.2 0 .9.2 1.6.6 2 .5.6 1 .8 1.8.8.6 0 1 0 1.4-.3.4-.3.6-.7.8-1.2h1.4c-.3.8-.7 1.5-1.3 2-.6.4-1.4.6-2.3.6-.7 0-1.4-.1-2-.5-.5-.3-1-.8-1.2-1.3-.4-.6-.5-1.3-.5-2.1zM930.8 587.1c0-.7.1-1.4.5-2a3.5 3.5 0 013.1-1.9c.7 0 1.3.1 1.8.4.5.3.8.7 1 1.1v-1.4h1.4v7.7h-1.3v-1.4a3 3 0 01-1.2 1c-.5.4-1 .5-1.7.5a3.5 3.5 0 01-3.1-1.9c-.4-.6-.5-1.3-.5-2zm6.5 0c0-.5-.1-1-.4-1.5-.2-.4-.5-.7-1-1-.3-.2-.8-.3-1.2-.3-.5 0-1 .1-1.3.3l-1 1-.3 1.5c0 .6.1 1.1.3 1.6l1 1c.4.2.8.3 1.3.3.4 0 .9-.1 1.3-.3l1-1c.2-.5.3-1 .3-1.6zM942.3 584.4v4.5c0 .4 0 .6.2.8l.8.2h1v1.1H943c-.7 0-1.2-.2-1.6-.5-.3-.3-.5-.9-.5-1.6v-4.5h-1v-1h1v-2h1.3v2h2v1h-2zM946.5 582c-.3 0-.5 0-.6-.2a.8.8 0 01-.3-.6c0-.2 0-.4.3-.6.1-.2.3-.3.6-.3l.6.3.2.6c0 .3 0 .5-.2.6l-.6.3zm.6 1.3v7.7h-1.3v-7.7h1.3zM952.6 591.1a4 4 0 01-2-.5c-.5-.3-1-.8-1.3-1.4-.4-.6-.5-1.3-.5-2 0-.8.2-1.5.5-2.1.3-.6.8-1 1.4-1.4a4 4 0 012-.5 4 4 0 012 .5 4.1 4.1 0 011.9 3.5 4 4 0 01-.6 2c-.3.6-.8 1.1-1.4 1.4a4 4 0 01-2 .5zm0-1c.5 0 .9-.2 1.3-.4s.7-.6 1-1c.2-.4.3-1 .3-1.6 0-.6 0-1-.3-1.5-.3-.4-.6-.8-1-1-.4-.2-.8-.3-1.3-.3l-1.2.3c-.4.2-.7.6-1 1-.2.4-.3 1-.3 1.5 0 .7.1 1.2.3 1.6.3.5.6.8 1 1 .3.2.7.3 1.2.3zM962 583.2c.9 0 1.6.3 2.2.8.6.6.9 1.4.9 2.5v4.5h-1.3v-4.3c0-.8-.2-1.4-.5-1.8a2 2 0 00-1.6-.6c-.7 0-1.2.2-1.6.6-.4.4-.6 1-.6 1.9v4.2h-1.3v-7.7h1.3v1.1c.2-.4.6-.7 1-.9.4-.2 1-.3 1.5-.3zM968.5 589.2l-1.6 3.8h-.8l1-3.8h1.4zM979.4 588.8h-4.2l-.8 2.2h-1.3l3.5-9.7h1.5l3.5 9.7h-1.4l-.8-2.2zm-.3-1l-1.8-5-1.7 5h3.5zM990 583.3v7.7h-1.4v-1.1c-.2.4-.5.7-1 .9-.4.2-.9.3-1.4.3-.6 0-1.1-.1-1.6-.4-.5-.2-.9-.6-1.2-1-.2-.6-.4-1.2-.4-1.9v-4.5h1.3v4.4c0 .7.2 1.3.6 1.7.4.4.9.6 1.5.6a2 2 0 001.7-.6c.3-.4.5-1 .5-1.9v-4.2h1.3zM993.6 584.4v4.5c0 .4.1.6.3.8l.8.2h1v1.1h-1.2c-.7 0-1.3-.2-1.6-.5-.4-.3-.6-.9-.6-1.6v-4.5h-1v-1h1v-2h1.3v2h2v1h-2zM1001 583.2c.6 0 1 .1 1.5.4.5.2.9.6 1.1 1 .3.6.4 1.2.4 1.9v4.5h-1.2v-4.3c0-.8-.2-1.4-.6-1.8a2 2 0 00-1.6-.6c-.6 0-1.2.2-1.6.6-.4.4-.6 1-.6 1.9v4.2h-1.2v-10.4h1.2v3.8c.3-.4.6-.7 1-.9.5-.2 1-.3 1.6-.3zM1009.5 591.1a4 4 0 01-2-.5c-.6-.3-1-.8-1.4-1.4-.3-.6-.5-1.3-.5-2 0-.8.2-1.5.5-2.1.4-.6.9-1 1.4-1.4a4 4 0 012-.5 4 4 0 012 .5c.6.3 1 .8 1.4 1.4.3.6.5 1.3.5 2 0 .8-.2 1.5-.5 2.1-.4.6-.8 1.1-1.4 1.4-.6.4-1.3.5-2 .5zm0-1c.4 0 .9-.2 1.3-.4s.7-.6 1-1c.2-.4.3-1 .3-1.6 0-.6-.1-1-.4-1.5-.2-.4-.5-.8-1-1-.3-.2-.7-.3-1.2-.3s-.9.1-1.3.3c-.4.2-.7.6-.9 1-.2.4-.3 1-.3 1.5 0 .7 0 1.2.3 1.6a2.4 2.4 0 002.2 1.3zM1016.4 584.6c.2-.5.5-.8.9-1a3 3 0 011.5-.4v1.3h-.3c-1.4 0-2.1.8-2.1 2.3v4.2h-1.3v-7.7h1.3v1.3zM1021 582c-.3 0-.5 0-.7-.2a.8.8 0 01-.2-.6c0-.2 0-.4.2-.6.2-.2.4-.3.7-.3.2 0 .4.1.5.3l.3.6c0 .3 0 .5-.3.6-.1.2-.3.3-.5.3zm.6 1.3v7.7h-1.3v-7.7h1.3zM1024.7 590h3.8v1h-5.3v-1l3.8-5.6h-3.7v-1h5.1v1l-3.7 5.6zM1029.6 587.1c0-.7.2-1.4.5-2a3.4 3.4 0 013.2-1.9c.7 0 1.2.1 1.7.4.5.3.9.7 1.1 1.1v-1.4h1.3v7.7h-1.3v-1.4a3 3 0 01-1.1 1c-.5.4-1 .5-1.7.5a3.5 3.5 0 01-3.2-1.9c-.3-.6-.5-1.3-.5-2zm6.5 0c0-.5 0-1-.3-1.5-.2-.4-.6-.7-1-1-.4-.2-.8-.3-1.3-.3-.4 0-.9.1-1.3.3l-1 1-.3 1.5c0 .6.2 1.1.4 1.6.2.4.5.7 1 1 .3.2.8.3 1.2.3.5 0 1-.1 1.3-.3.4-.3.8-.6 1-1 .2-.5.3-1 .3-1.6zM1041.1 584.4v4.5c0 .4.1.6.3.8l.8.2h1v1.1h-1.2c-.7 0-1.3-.2-1.6-.5-.4-.3-.5-.9-.5-1.6v-4.5h-1v-1h1v-2h1.2v2h2v1h-2zM1045.3 582c-.2 0-.4 0-.6-.2a.8.8 0 01-.2-.6c0-.2 0-.4.2-.6l.6-.3c.3 0 .5.1.6.3l.3.6c0 .3-.1.5-.3.6-.1.2-.3.3-.6.3zm.6 1.3v7.7h-1.2v-7.7h1.2zM1051.5 591.1a4 4 0 01-2-.5c-.6-.3-1-.8-1.4-1.4-.3-.6-.5-1.3-.5-2 0-.8.2-1.5.5-2.1.4-.6.9-1 1.4-1.4a4 4 0 012-.5 4 4 0 012 .5c.6.3 1 .8 1.4 1.4.3.6.5 1.3.5 2 0 .8-.2 1.5-.5 2.1-.4.6-.8 1.1-1.4 1.4-.6.4-1.3.5-2 .5zm0-1c.4 0 .9-.2 1.3-.4s.7-.6 1-1c.2-.4.3-1 .3-1.6 0-.6-.1-1-.4-1.5-.2-.4-.5-.8-1-1-.3-.2-.7-.3-1.2-.3s-.9.1-1.3.3c-.4.2-.7.6-.9 1-.2.4-.3 1-.3 1.5 0 .7 0 1.2.3 1.6a2.4 2.4 0 002.2 1.3zM1060.8 583.2c1 0 1.7.3 2.3.8.6.6.9 1.4.9 2.5v4.5h-1.3v-4.3c0-.8-.2-1.4-.6-1.8a2 2 0 00-1.6-.6c-.6 0-1.2.2-1.6.6-.4.4-.6 1-.6 1.9v4.2h-1.2v-7.7h1.3v1.1c.2-.4.5-.7 1-.9.4-.2.9-.3 1.4-.3z" class="subcard-subheader"/><path fill="#222" d="M936 566.1c-.8 0-1.5-.1-2.2-.4-.6-.3-1-.6-1.4-1.1a3 3 0 01-.6-1.8h2.4c0 .4.2.8.5 1 .3.3.7.5 1.2.5s1-.2 1.2-.4c.3-.3.5-.6.5-1 0-.3-.1-.6-.3-.8a2 2 0 00-.8-.5l-1.2-.4-1.8-.6-1.2-1c-.3-.4-.5-1-.5-1.7 0-.6.2-1.2.5-1.7.4-.5.8-.9 1.4-1.1a5 5 0 012-.4c1.2 0 2.2.3 2.9.8a3 3 0 011.2 2.4h-2.5c0-.4-.2-.7-.5-1-.3-.2-.7-.4-1.2-.4-.4 0-.8.1-1 .4-.3.2-.4.5-.4 1 0 .2 0 .5.3.7l.7.5 1.3.4 1.7.6c.5.2.9.6 1.2 1 .3.4.5 1 .5 1.7a3.2 3.2 0 01-1.8 2.9c-.6.3-1.3.4-2.1.4zM950 561.4v.8h-6.4c0 .7.2 1.2.6 1.5.4.4.9.6 1.5.6.8 0 1.4-.4 1.8-1h2.4a4 4 0 01-4.2 2.8c-.8 0-1.6-.1-2.3-.5-.6-.4-1.2-1-1.6-1.6a5 5 0 01-.5-2.4c0-1 .2-1.8.5-2.4a4 4 0 011.6-1.6c.7-.4 1.5-.6 2.3-.6.9 0 1.6.2 2.3.5.7.4 1.2 1 1.5 1.6.4.6.6 1.4.6 2.3zm-2.2-.7c0-.5-.2-1-.6-1.3-.5-.4-1-.6-1.5-.6a2 2 0 00-1.4.5c-.4.4-.6.8-.7 1.4h4.2zM951.2 561.6c0-1 .1-1.7.5-2.4a4 4 0 011.6-1.6c.6-.4 1.4-.6 2.2-.6 1.1 0 2 .3 2.8.8a4 4 0 011.4 2.3h-2.4c-.1-.4-.3-.7-.7-.9-.3-.2-.6-.3-1-.3-.7 0-1.2.2-1.6.7a3 3 0 00-.6 2c0 .8.2 1.5.6 2 .4.4.9.6 1.5.6 1 0 1.5-.4 1.8-1.2h2.4a4 4 0 01-1.4 2.3c-.8.6-1.7.8-2.8.8-.8 0-1.6-.1-2.2-.5a4 4 0 01-1.6-1.6 5 5 0 01-.5-2.4zM969.7 557.1v8.9h-2.2v-1.1a3 3 0 01-1.2.9c-.4.2-1 .3-1.5.3-.7 0-1.3-.1-1.8-.4-.5-.3-1-.8-1.3-1.3-.3-.6-.4-1.3-.4-2V557h2.2v5c0 .6.2 1.2.5 1.5.4.4.9.6 1.5.6a2 2 0 001.4-.6c.4-.3.6-.9.6-1.6v-4.9h2.2zM974.2 558.5c.3-.5.6-.8 1-1 .6-.4 1-.5 1.7-.5v2.4h-.6c-.7 0-1.2.1-1.6.5-.4.3-.5.9-.5 1.7v4.4h-2.3v-8.9h2.3v1.4zM979.5 556c-.4 0-.7 0-1-.3-.2-.2-.3-.6-.3-1 0-.3 0-.6.3-.9.3-.2.6-.3 1-.3s.8 0 1 .3c.3.3.4.6.4 1 0 .3-.1.7-.4 1-.2.2-.6.3-1 .3zm1.1 1.1v8.9h-2.2v-8.9h2.2zM985.5 559v4.3c0 .3 0 .5.2.6l.7.2h1v1.9H986c-1.9 0-2.8-1-2.8-2.8V559h-1V557h1V555h2.3v2.2h2v1.9h-2zM997.5 557.1l-5.5 13h-2.3l1.9-4.3-3.6-8.7h2.5l2.3 6.2 2.4-6.2h2.3z" class="subcard-header"/><rect fill="#fff" rx="3" height="75" width="193" y="650" x="755" class="subcard-background"/><path fill="#222" d="M812.2 696.2c1 0 2 .2 2.8.6a4 4 0 011.8 1.7c.4.8.6 1.6.6 2.6s-.2 2-.6 2.6c-.4.8-1 1.3-1.8 1.7-.8.4-1.7.6-2.8.6h-3v-9.8h3zm0 8.7c1.3 0 2.2-.3 2.9-1 .7-.6 1-1.6 1-2.8 0-1.2-.3-2.1-1-2.8-.7-.7-1.6-1-2.9-1h-1.8v7.6h1.8zM818.6 702.1c0-.7.2-1.4.5-2a3.5 3.5 0 013.1-1.9c.7 0 1.3.1 1.8.4.5.3.9.7 1 1.1v-1.4h1.4v7.7H825v-1.4a3 3 0 01-1.1 1c-.5.4-1.1.5-1.8.5a3.5 3.5 0 01-3.1-1.9c-.3-.6-.5-1.3-.5-2zm6.5 0c0-.5-.1-1-.4-1.5-.2-.4-.5-.7-1-1-.3-.2-.7-.3-1.2-.3s-1 .1-1.3.3l-1 1-.3 1.5c0 .6.1 1.1.3 1.6l1 1c.4.2.8.3 1.3.3s.9-.1 1.3-.3l1-1c.2-.5.3-1 .3-1.6zM830 699.4v4.5c0 .4.2.6.3.8l.9.2h.9v1.1h-1.2c-.7 0-1.2-.2-1.6-.5-.3-.3-.5-.9-.5-1.6v-4.5h-1v-1h1v-2h1.3v2h2v1h-2zM833.2 702.1c0-.7.1-1.4.4-2a3.5 3.5 0 013.2-1.9c.7 0 1.3.1 1.7.4.5.3 1 .7 1.2 1.1v-1.4h1.2v7.7h-1.2v-1.4a3 3 0 01-1.2 1c-.5.4-1 .5-1.7.5a3.5 3.5 0 01-3.2-1.9c-.3-.6-.4-1.3-.4-2zm6.5 0c0-.5-.2-1-.4-1.5-.2-.4-.5-.7-1-1-.3-.2-.8-.3-1.2-.3-.5 0-1 .1-1.4.3-.3.3-.7.6-.9 1l-.3 1.5c0 .6 0 1.1.3 1.6.2.4.6.7 1 1 .3.2.8.3 1.2.3.5 0 1-.1 1.4-.3.4-.3.7-.6.9-1 .2-.5.4-1 .4-1.6zM846.4 702.1c0-.7.1-1.4.4-2a3.5 3.5 0 013.2-1.9c.7 0 1.2.1 1.7.4.5.3.9.7 1.1 1.1v-1.4h1.3v7.7h-1.3v-1.4a3 3 0 01-1 1c-.6.4-1.2.5-1.8.5a3.5 3.5 0 01-3.2-1.9c-.3-.6-.4-1.3-.4-2zm6.4 0c0-.5 0-1-.3-1.5-.2-.4-.6-.7-1-1-.3-.2-.8-.3-1.3-.3-.4 0-.9.1-1.3.3-.4.3-.7.6-.9 1l-.3 1.5c0 .6 0 1.1.3 1.6.2.4.5.7 1 1 .3.2.8.3 1.2.3.5 0 1-.1 1.3-.3.4-.3.8-.6 1-1 .2-.5.3-1 .3-1.6zM855.8 702.1c0-.7.2-1.4.5-2 .3-.6.7-1 1.3-1.4.6-.3 1.2-.5 2-.5.9 0 1.7.2 2.3.7.6.4 1 1 1.2 1.9h-1.4a2 2 0 00-.8-1.1c-.3-.3-.8-.4-1.3-.4-.8 0-1.4.2-1.8.7-.5.5-.7 1.2-.7 2.2 0 .9.2 1.6.7 2 .4.6 1 .8 1.8.8.5 0 1 0 1.4-.3.3-.3.6-.7.7-1.2h1.4c-.2.8-.6 1.5-1.2 2-.7.4-1.4.6-2.3.6-.8 0-1.4-.1-2-.5-.6-.3-1-.8-1.3-1.3-.3-.6-.5-1.3-.5-2.1zM864.3 702.1c0-.7.2-1.4.5-2 .3-.6.7-1 1.3-1.4.6-.3 1.2-.5 2-.5.9 0 1.7.2 2.3.7.6.4 1 1 1.2 1.9h-1.4a2 2 0 00-.7-1.1c-.4-.3-.9-.4-1.4-.4-.8 0-1.4.2-1.8.7-.5.5-.7 1.2-.7 2.2 0 .9.2 1.6.7 2 .4.6 1 .8 1.8.8.5 0 1 0 1.4-.3.3-.3.6-.7.7-1.2h1.4c-.2.8-.6 1.5-1.2 2-.7.4-1.4.6-2.3.6-.8 0-1.4-.1-2-.5-.6-.3-1-.8-1.3-1.3-.3-.6-.5-1.3-.5-2.1zM880.3 701.9v.7H874c0 .8.3 1.4.8 1.8.5.4 1 .6 1.7.6.6 0 1 0 1.4-.3.4-.3.6-.6.8-1h1.3c-.2.7-.6 1.3-1.2 1.7-.6.5-1.4.7-2.3.7a4 4 0 01-2-.5c-.5-.3-1-.8-1.3-1.3-.3-.7-.5-1.4-.5-2.1 0-.8.2-1.5.5-2.1.3-.6.8-1 1.3-1.4a4 4 0 012-.5c.7 0 1.4.2 2 .5.5.3 1 .7 1.2 1.3.3.5.5 1.2.5 1.9zm-1.3-.3c0-.5-.1-.9-.3-1.2a2 2 0 00-1-.8 2.4 2.4 0 00-2.9.3c-.3.4-.6 1-.7 1.7h4.9zM884.7 706.1a4 4 0 01-1.6-.3c-.5-.2-.8-.5-1-.8-.4-.4-.5-.8-.5-1.3h1.3c0 .4.2.7.5 1 .3.2.8.3 1.3.3s.8 0 1.1-.3c.3-.2.4-.5.4-.8 0-.3-.1-.6-.4-.7a6 6 0 00-1.4-.5l-1.4-.5-1-.7c-.2-.3-.3-.7-.3-1.2 0-.3.1-.7.4-1 .2-.4.5-.6 1-.8.4-.2.9-.3 1.4-.3.9 0 1.6.2 2 .6.6.5.9 1 1 1.8h-1.3c0-.4-.2-.7-.5-1-.3-.2-.7-.3-1.2-.3s-.8 0-1.1.3a1 1 0 00-.4.7c0 .3 0 .5.2.7l.6.4 1 .3 1.4.4c.4.2.7.4.9.7.3.3.4.6.4 1.1 0 .4-.1.8-.4 1.1-.2.4-.5.7-1 .8-.4.2-.9.3-1.4.3zM892 706.1a4 4 0 01-1.6-.3c-.4-.2-.8-.5-1-.8-.3-.4-.5-.8-.5-1.3h1.3c0 .4.2.7.5 1 .3.2.8.3 1.3.3s.9 0 1.1-.3c.3-.2.5-.5.5-.8 0-.3-.2-.6-.5-.7a6 6 0 00-1.4-.5l-1.4-.5c-.3-.1-.6-.4-.9-.7-.2-.3-.4-.7-.4-1.2 0-.3.1-.7.4-1 .2-.4.5-.6 1-.8.4-.2.9-.3 1.4-.3.9 0 1.6.2 2.1.6.5.5.8 1 .8 1.8h-1.2c0-.4-.2-.7-.5-1-.3-.2-.7-.3-1.2-.3s-.8 0-1 .3a1 1 0 00-.5.7c0 .3 0 .5.2.7l.7.4 1 .3 1.3.4 1 .7c.2.3.3.6.3 1.1 0 .4-.1.8-.3 1.1-.3.4-.6.7-1 .8l-1.5.3z" class="subcard-subheader"/><path fill="#222" d="M814.9 681l-2.5-4.4h-1v4.4H809v-11.2h4.2c.9 0 1.6.2 2.2.5.6.3 1 .7 1.4 1.2.3.5.4 1.1.4 1.8s-.2 1.4-.6 2c-.4.5-1 1-2 1.2l2.8 4.5h-2.6zm-3.6-6h2c.5 0 1-.2 1.3-.5.3-.3.4-.7.4-1.2s-.1-.9-.4-1.2c-.3-.3-.8-.4-1.4-.4h-1.9v3.3zM827.6 676.4v.8H821c0 .7.2 1.2.6 1.5.4.4.9.6 1.5.6.8 0 1.4-.4 1.8-1h2.4a4 4 0 01-4.2 2.8c-.8 0-1.6-.1-2.3-.5-.6-.4-1.2-1-1.6-1.6a5 5 0 01-.5-2.4c0-1 .2-1.8.5-2.4a4 4 0 011.6-1.6c.7-.4 1.5-.6 2.3-.6.9 0 1.6.2 2.3.5.7.4 1.2 1 1.5 1.6.4.6.6 1.4.6 2.3zm-2.3-.7c0-.5-.2-1-.6-1.3-.5-.4-1-.6-1.5-.6a2 2 0 00-1.4.5c-.4.4-.6.8-.7 1.4h4.2zM831.5 673.4a3.6 3.6 0 013-1.4 3.8 3.8 0 013.4 2.2c.4.6.5 1.4.5 2.3 0 1-.1 1.7-.5 2.5a4 4 0 01-1.5 1.6c-.6.4-1.2.5-2 .5a3.6 3.6 0 01-3-1.4v5.5h-2.2v-13h2.3v1.2zm4.7 3.1c0-.5-.2-1-.4-1.3l-.8-1a2.3 2.3 0 00-2.3 0l-1 1-.2 1.4c0 .5 0 1 .3 1.4.2.4.5.7.9.9a2.3 2.3 0 002.3 0l.8-1c.2-.4.4-.8.4-1.4zM844 681.1c-.8 0-1.6-.1-2.3-.5-.7-.4-1.2-1-1.6-1.6-.4-.7-.6-1.5-.6-2.4 0-1 .2-1.7.6-2.4.4-.7 1-1.3 1.7-1.6.6-.4 1.4-.6 2.3-.6.8 0 1.6.2 2.3.6a4 4 0 011.6 1.6c.4.7.6 1.5.6 2.4 0 .9-.2 1.7-.6 2.4-.4.7-1 1.2-1.7 1.6-.6.4-1.4.5-2.3.5zm0-2c.4 0 .8 0 1.1-.2.4-.2.7-.5 1-.9l.2-1.4c0-.9-.2-1.5-.6-2-.5-.4-1-.7-1.7-.7-.6 0-1.1.3-1.6.7-.4.5-.6 1.1-.6 2 0 .8.2 1.5.6 2 .4.4 1 .6 1.6.6zM853.7 681.1c-.8 0-1.4 0-2-.3-.6-.3-1-.7-1.4-1.1-.3-.5-.5-1-.5-1.5h2.3c0 .3.2.6.4.8.3.3.7.4 1.2.4.4 0 .7-.1 1-.3.2-.1.3-.4.3-.6 0-.3-.1-.5-.4-.7l-1.4-.4-1.7-.5-1-.8c-.3-.4-.5-.9-.5-1.5 0-.4.1-.9.4-1.3a3 3 0 011.2-1c.6-.2 1.2-.3 2-.3 1 0 1.8.3 2.4.8a3 3 0 011 2.1h-2c-.1-.3-.2-.6-.5-.8-.3-.2-.6-.3-1-.3-.5 0-.8 0-1 .2-.2.1-.3.3-.3.6s.1.5.4.7l1.4.5c.7.1 1.2.3 1.6.5.4.1.8.4 1 .8.4.3.5.8.6 1.4 0 .5-.2 1-.5 1.3-.3.5-.7.8-1.2 1-.5.2-1.1.3-1.8.3zM860.1 671c-.4 0-.7 0-1-.3-.2-.2-.3-.6-.3-1 0-.3 0-.6.3-.9.3-.2.6-.3 1-.3s.8 0 1 .3c.3.3.4.6.4 1 0 .3-.1.7-.4 1-.2.2-.6.3-1 .3zm1.1 1.1v8.9H859v-8.9h2.2zM866 674v4.3c0 .3.1.5.3.6l.7.2h1v1.9h-1.4c-1.9 0-2.8-1-2.8-2.8V674h-1V672h1V670h2.3v2.2h2v1.9h-2zM873.6 681.1c-.9 0-1.6-.1-2.3-.5-.7-.4-1.2-1-1.6-1.6-.4-.7-.6-1.5-.6-2.4 0-1 .2-1.7.6-2.4.4-.7 1-1.3 1.6-1.6.7-.4 1.5-.6 2.4-.6.8 0 1.6.2 2.3.6a4 4 0 011.6 1.6c.4.7.6 1.5.6 2.4 0 .9-.2 1.7-.6 2.4-.4.7-1 1.2-1.7 1.6-.7.4-1.4.5-2.3.5zm0-2c.4 0 .8 0 1.1-.2.4-.2.7-.5.9-.9.2-.4.3-.9.3-1.4 0-.9-.2-1.5-.7-2-.4-.4-1-.7-1.6-.7-.6 0-1.2.3-1.6.7-.4.5-.6 1.1-.6 2 0 .8.2 1.5.6 2 .4.4 1 .6 1.6.6zM882 673.5c.4-.5.8-.8 1.2-1 .5-.4 1-.5 1.6-.5v2.4h-.6c-.7 0-1.2.1-1.6.5-.3.3-.5.9-.5 1.7v4.4h-2.2v-8.9h2.2v1.4zM894.8 672.1l-5.5 13H887l2-4.3-3.6-8.7h2.5l2.3 6.2 2.3-6.2h2.4z" class="subcard-header"/><rect fill="#fff" rx="3" height="75" width="193" y="741" x="755" class="subcard-background"/><path fill="#222" d="M784.2 787.2c1 0 2 .2 2.8.6a4 4 0 011.8 1.7c.4.8.6 1.6.6 2.6s-.2 2-.6 2.6c-.5.8-1 1.3-1.8 1.7-.8.4-1.7.6-2.8.6h-3v-9.8h3zm0 8.7c1.3 0 2.2-.3 2.9-1 .6-.6 1-1.6 1-2.8 0-1.2-.4-2.1-1-2.8-.7-.7-1.6-1-2.9-1h-1.8v7.6h1.8zM790.6 793.1c0-.7.1-1.4.5-2a3.5 3.5 0 013.1-1.9c.7 0 1.3.1 1.8.4.5.3.8.7 1 1.1v-1.4h1.4v7.7H797v-1.4a3 3 0 01-1.2 1c-.4.4-1 .5-1.7.5a3.5 3.5 0 01-3.1-1.9c-.4-.6-.5-1.3-.5-2zm6.5 0c0-.5-.1-1-.4-1.5-.2-.4-.5-.7-1-1-.3-.2-.7-.3-1.2-.3s-1 .1-1.3.3l-1 1-.3 1.5c0 .6.1 1.1.3 1.6l1 1c.4.2.8.3 1.3.3s.9-.1 1.3-.3l1-1c.2-.5.3-1 .3-1.6zM802 790.4v4.5c0 .4.2.6.3.8l.8.2h1v1.1h-1.2c-.7 0-1.2-.2-1.6-.5-.3-.3-.5-.9-.5-1.6v-4.5h-1v-1h1v-2h1.3v2h2v1h-2zM805.1 793.1c0-.7.2-1.4.5-2a3.5 3.5 0 013.2-1.9c.7 0 1.2.1 1.7.4.5.3.9.7 1.1 1.1v-1.4h1.3v7.7h-1.3v-1.4a3 3 0 01-1 1c-.6.4-1.2.5-1.8.5a3.5 3.5 0 01-3.2-1.9c-.3-.6-.5-1.3-.5-2zm6.5 0c0-.5 0-1-.3-1.5-.2-.4-.6-.7-1-1-.4-.2-.8-.3-1.3-.3-.4 0-.9.1-1.3.3-.4.3-.7.6-.9 1-.2.5-.4 1-.4 1.5 0 .6.2 1.1.4 1.6.2.4.5.7 1 1 .3.2.8.3 1.2.3.5 0 1-.1 1.3-.3.4-.3.8-.6 1-1 .2-.5.3-1 .3-1.6zM820.4 790.4v4.5c0 .4 0 .6.2.8l.8.2h1v1.1h-1.2c-.7 0-1.2-.2-1.6-.5-.3-.3-.5-.9-.5-1.6v-4.5h-1v-1h1v-2h1.3v2h2v1h-2zM825.2 790.6c.2-.5.5-.8 1-1a3 3 0 011.5-.4v1.3h-.4c-1.4 0-2.1.8-2.1 2.3v4.2h-1.3v-7.7h1.3v1.3zM828.7 793.1c0-.7.1-1.4.4-2a3.5 3.5 0 013.2-1.9c.7 0 1.3.1 1.8.4.4.3.8.7 1 1.1v-1.4h1.3v7.7h-1.2v-1.4a3 3 0 01-1.2 1c-.5.4-1 .5-1.7.5a3.5 3.5 0 01-3.2-1.9c-.3-.6-.4-1.3-.4-2zm6.5 0c0-.5-.2-1-.4-1.5-.2-.4-.5-.7-1-1-.3-.2-.8-.3-1.2-.3-.5 0-1 .1-1.3.3-.4.3-.8.6-1 1l-.3 1.5c0 .6 0 1.1.3 1.6.2.4.6.7 1 1 .3.2.8.3 1.3.3.4 0 .9-.1 1.3-.3l1-1c.1-.5.3-1 .3-1.6zM842.3 789.2c1 0 1.7.3 2.3.8.6.6.9 1.4.9 2.5v4.5h-1.3v-4.3c0-.8-.2-1.4-.6-1.8a2 2 0 00-1.5-.6c-.7 0-1.2.2-1.6.6-.4.4-.6 1-.6 1.9v4.2h-1.3v-7.7h1.3v1.1c.2-.4.6-.7 1-.9.4-.2 1-.3 1.4-.3zM850.3 797.1a4 4 0 01-1.6-.3c-.5-.2-.8-.5-1.1-.8-.3-.4-.4-.8-.5-1.3h1.3c0 .4.3.7.6 1 .3.2.7.3 1.3.3.4 0 .8 0 1.1-.3.3-.2.4-.5.4-.8 0-.3-.1-.6-.4-.7a6 6 0 00-1.4-.5l-1.4-.5c-.4-.1-.7-.4-1-.7-.2-.3-.3-.7-.3-1.2 0-.3.1-.7.3-1 .3-.4.6-.6 1-.8l1.5-.3c.9 0 1.5.2 2 .6.6.5.9 1 .9 1.8h-1.3c0-.4-.2-.7-.5-1-.3-.2-.6-.3-1.1-.3-.5 0-.9 0-1.1.3a1 1 0 00-.4.7c0 .3 0 .5.2.7l.6.4 1 .3 1.4.4.9.7c.2.3.4.6.4 1.1 0 .4-.1.8-.4 1.1-.2.4-.5.7-1 .8-.4.2-.9.3-1.4.3zM858 790.4h-1.6v6.6H855v-6.6h-1v-1h1v-.6c0-.9.2-1.5.7-1.9.4-.4 1.1-.6 2.1-.6v1c-.6 0-1 .2-1.2.4-.2.2-.3.6-.3 1v.6h1.6v1zM862.8 797.1a4 4 0 01-2-.5c-.5-.3-1-.8-1.3-1.4-.3-.6-.5-1.3-.5-2 0-.8.2-1.5.5-2.1.3-.6.8-1 1.4-1.4a4 4 0 012-.5 4 4 0 012 .5 4 4 0 011.9 3.5 4 4 0 01-.6 2c-.3.6-.8 1.1-1.4 1.4a4 4 0 01-2 .5zm0-1c.5 0 1-.2 1.3-.4.4-.2.7-.6 1-1 .2-.4.4-1 .4-1.6 0-.6-.2-1-.4-1.5-.3-.4-.6-.8-1-1l-1.2-.3c-.5 0-1 .1-1.3.3-.4.2-.7.6-1 1-.2.4-.3 1-.3 1.5 0 .7.1 1.2.3 1.6.3.5.6.8 1 1 .3.2.8.3 1.2.3zM869.7 790.6c.2-.5.5-.8 1-1a3 3 0 011.5-.4v1.3h-.4c-1.4 0-2 .8-2 2.3l-.1 4.2h-1.3v-7.7h1.3v1.3zM882.9 789.2c.6 0 1.1.1 1.6.4.4.2.8.6 1 1 .4.6.5 1.2.5 1.9v4.5h-1.3v-4.3c0-.8-.2-1.4-.5-1.8a2 2 0 00-1.6-.6 2 2 0 00-1.6.6c-.3.5-.5 1-.5 1.9v4.2h-1.3v-4.3c0-.8-.2-1.4-.6-1.8a2 2 0 00-1.5-.6 2 2 0 00-1.6.6c-.4.5-.6 1-.6 1.9v4.2h-1.2v-7.7h1.2v1.1c.3-.4.6-.7 1-.9l1.4-.3c.7 0 1.3.1 1.8.4.5.3.8.7 1 1.3.3-.5.6-1 1.1-1.3.5-.3 1-.4 1.7-.4zM887.6 793.1c0-.7.2-1.4.5-2a3.5 3.5 0 013.1-1.9c.7 0 1.3.1 1.8.4.5.3.9.7 1.1 1.1v-1.4h1.3v7.7H894v-1.4a3 3 0 01-1.1 1c-.5.4-1.1.5-1.8.5a3.5 3.5 0 01-3.1-1.9c-.3-.6-.5-1.3-.5-2zm6.5 0c0-.5-.1-1-.4-1.5-.2-.4-.5-.7-1-1-.3-.2-.7-.3-1.2-.3s-1 .1-1.3.3l-1 1-.3 1.5c0 .6.1 1.1.4 1.6.2.4.5.7.9 1 .4.2.8.3 1.3.3s.9-.1 1.3-.3l1-1c.2-.5.3-1 .3-1.6zM899 790.4v4.5c0 .4.2.6.3.8l.9.2h.9v1.1h-1.2c-.7 0-1.2-.2-1.5-.5-.4-.3-.6-.9-.6-1.6v-4.5h-1v-1h1v-2h1.3v2h2v1h-2zM903.3 788c-.2 0-.5 0-.6-.2a.8.8 0 01-.3-.6l.3-.6c.1-.2.4-.3.6-.3l.6.3c.2.2.2.4.2.6 0 .3 0 .5-.2.6l-.6.3zm.6 1.3v7.7h-1.3v-7.7h1.3zM909.4 797.1a4 4 0 01-2-.5c-.5-.3-1-.8-1.3-1.4-.3-.6-.5-1.3-.5-2 0-.8.2-1.5.5-2.1.4-.6.8-1 1.4-1.4a4 4 0 012-.5 4 4 0 012 .5 4.1 4.1 0 011.9 3.5 4 4 0 01-.6 2c-.3.6-.8 1.1-1.4 1.4a4 4 0 01-2 .5zm0-1c.5 0 1-.2 1.3-.4.4-.2.7-.6 1-1 .2-.4.4-1 .4-1.6 0-.6-.2-1-.4-1.5a2.6 2.6 0 00-2.2-1.3c-.5 0-1 .1-1.3.3-.4.2-.7.6-1 1-.2.4-.3 1-.3 1.5 0 .7.1 1.2.3 1.6.3.5.6.8 1 1l1.2.3zM918.8 789.2c1 0 1.7.3 2.2.8.6.6 1 1.4 1 2.5v4.5h-1.3v-4.3c0-.8-.2-1.4-.6-1.8a2 2 0 00-1.6-.6c-.7 0-1.2.2-1.6.6-.4.4-.6 1-.6 1.9v4.2H915v-7.7h1.3v1.1c.3-.4.6-.7 1-.9l1.5-.3z" class="subcard-subheader"/><path fill="#222" d="M783.3 762.6v2.8h3.8v1.8h-3.8v3h4.3v1.8H781v-11.2h6.5v1.8h-4.3zM794.5 763c1 0 2 .3 2.6 1 .6.7 1 1.6 1 2.8v5.2h-2.3v-4.9c0-.7-.1-1.2-.5-1.6-.4-.4-.8-.6-1.4-.6a2 2 0 00-1.5.6c-.4.4-.5.9-.5 1.6v4.9h-2.3v-8.9h2.3v1.1a3 3 0 011.1-.9l1.5-.3zM802.8 765v4.3c0 .3 0 .5.2.6l.8.2h1v1.9h-1.4c-2 0-2.9-1-2.9-2.8V765h-1V763h1V761h2.3v2.2h2v1.9h-2zM807.5 762c-.4 0-.7 0-1-.3-.2-.2-.3-.6-.3-1 0-.3 0-.6.3-.9.3-.2.6-.3 1-.3s.8 0 1 .3c.3.3.4.6.4 1 0 .3-.1.7-.4 1-.2.2-.6.3-1 .3zm1.1 1.1v8.9h-2.2v-8.9h2.2zM813.5 765v4.3c0 .3 0 .5.2.6l.7.2h1v1.9H814c-1.9 0-2.8-1-2.8-2.8V765h-1V763h1V761h2.3v2.2h2v1.9h-2zM825.5 763.1l-5.5 13h-2.3l1.9-4.3-3.6-8.7h2.5l2.3 6.2 2.4-6.2h2.3zM837.5 760.8v1.8h-4.7v2.9h3.6v1.8h-3.6v4.7h-2.2v-11.2h6.9zM841.3 764.5c.3-.5.6-.8 1.1-1 .5-.4 1-.5 1.6-.5v2.4h-.6c-.7 0-1.2.1-1.6.5-.3.3-.5.9-.5 1.7v4.4H839v-8.9h2.3v1.4zM845 767.5c0-.9.1-1.7.5-2.3a4 4 0 011.4-1.6 4 4 0 012-.6 3.6 3.6 0 013 1.4v-1.3h2.3v8.9h-2.3v-1.3c-.3.4-.7.8-1.2 1-.5.3-1 .4-1.7.4-.8 0-1.5-.1-2-.5-.7-.4-1.2-1-1.5-1.6-.4-.8-.6-1.6-.6-2.5zm7 0c0-.5-.2-1-.4-1.3-.2-.4-.5-.7-.9-1l-1.1-.2a2.3 2.3 0 00-2 1.2c-.3.3-.4.8-.4 1.3a2.5 2.5 0 001.2 2.3c.4.3.8.4 1.2.4.4 0 .8-.1 1.1-.3.4-.2.7-.5.9-1 .2-.3.3-.8.3-1.3zM867.4 763c1 0 2 .3 2.6 1 .7.7 1 1.6 1 2.8v5.2h-2.2v-4.9c0-.7-.2-1.2-.6-1.6-.3-.4-.8-.5-1.4-.5a2 2 0 00-1.5.5c-.3.4-.5 1-.5 1.6v4.9h-2.2v-4.9c0-.7-.2-1.2-.6-1.6-.3-.4-.8-.5-1.4-.5a2 2 0 00-1.5.5c-.3.4-.5 1-.5 1.6v4.9h-2.2v-8.9h2.2v1.1a3 3 0 011.1-.9l1.5-.3c.7 0 1.3.2 1.9.5.5.2 1 .7 1.2 1.2.3-.5.7-1 1.3-1.2.5-.3 1.1-.5 1.8-.5zM881.4 767.4l-.1.8h-6.5c0 .7.3 1.2.7 1.5.4.4.9.6 1.4.6.9 0 1.5-.4 1.8-1h2.4a4 4 0 01-4.1 2.8c-.9 0-1.6-.1-2.3-.5-.7-.4-1.2-1-1.6-1.6a5 5 0 01-.6-2.4c0-1 .2-1.8.6-2.4a4 4 0 011.6-1.6c.6-.4 1.4-.6 2.3-.6.8 0 1.6.2 2.2.5.7.4 1.2 1 1.6 1.6.4.6.6 1.4.6 2.3zm-2.4-.7c0-.5-.2-1-.6-1.3-.4-.4-.9-.6-1.5-.6a2 2 0 00-1.4.5c-.4.4-.6.8-.7 1.4h4.2zM895.3 763.1l-2.6 8.9h-2.4l-1.6-6.2-1.7 6.2h-2.4l-2.6-8.9h2.3l1.5 6.8 1.7-6.8h2.4l1.7 6.8 1.5-6.8h2.2zM900.4 772.1c-.8 0-1.6-.1-2.3-.5-.7-.4-1.2-1-1.6-1.6-.4-.7-.6-1.5-.6-2.4 0-1 .2-1.7.6-2.4.4-.7 1-1.3 1.7-1.6.7-.4 1.4-.6 2.3-.6.8 0 1.6.2 2.3.6a4 4 0 011.6 1.6c.5.7.7 1.5.7 2.4 0 .9-.3 1.7-.7 2.4-.4.7-1 1.2-1.6 1.6-.7.4-1.5.5-2.4.5zm0-2c.4 0 .8 0 1.2-.2.3-.2.6-.5.8-.9.2-.4.4-.9.4-1.4 0-.9-.3-1.5-.7-2-.5-.4-1-.7-1.6-.7-.7 0-1.2.3-1.7.7-.4.5-.6 1.1-.6 2 0 .8.2 1.5.6 2 .5.4 1 .6 1.6.6zM909 764.5c.2-.5.6-.8 1-1 .5-.4 1-.5 1.7-.5v2.4h-.6c-.7 0-1.3.1-1.6.5-.4.3-.6.9-.6 1.7v4.4h-2.2v-8.9h2.2v1.4zM918.4 772l-3-3.8v3.8h-2.2v-11.8h2.2v6.7l3-3.8h2.9l-4 4.5 4 4.4h-2.9z" class="subcard-header"/><rect fill="#fff" rx="3" height="166" width="212" y="650" x="964" class="subcard-background"/><path fill="#222" d="M1030.2 722.9v-3.6h1.9c1.5 0 2 .7 2 1.8 0 1-.5 1.8-2 1.8h-1.9zm5.3-1.8c0-1.6-1.1-2.9-3.4-2.9h-3.1v9.8h1.2v-4h1.9c2.4 0 3.4-1.4 3.4-2.9zM1038.3 723.8c0-1.7 1-2.3 2.2-2.3h.3v-1.3c-1.2 0-2 .5-2.5 1.4v-1.3h-1.2v7.7h1.2v-4.2zM1049.6 724.1c0-2.4-1.7-3.9-4-3.9a3.8 3.8 0 00-3.8 4c0 2.4 1.7 4 3.8 4 2.2 0 4-1.6 4-4zm-6.5 0c0-1.9 1.2-2.8 2.6-2.8 1.3 0 2.6 1 2.6 2.9s-1.3 2.8-2.7 2.8c-1.3 0-2.5-.9-2.5-2.9zM1052 719c.4 0 .8-.3.8-.8s-.4-.9-.9-.9-.8.4-.8 1c0 .4.3.8.8.8zm-.7 1.3v9.3c0 .7-.3 1-1 1h-.5v1h.7c1.3 0 2-.5 2-2v-9.3h-1.2zM1058 721.3c1.3 0 2.4.8 2.4 2.3h-4.8c0-1.5 1.1-2.3 2.4-2.3zm3.6 4.3h-1.4c-.3.9-1 1.4-2.2 1.4-1.3 0-2.4-.8-2.5-2.4h6.2v-.7c0-2.1-1.5-3.7-3.7-3.7s-3.8 1.5-3.8 4c0 2.4 1.6 4 3.8 4 2 0 3.2-1.2 3.5-2.6zM1063 724.1c0 2.5 1.5 4 3.7 4 1.9 0 3.1-1 3.5-2.6h-1.4c-.3 1-1 1.5-2.1 1.5-1.4 0-2.5-1-2.5-2.9 0-1.8 1-2.8 2.4-2.8 1.2 0 2 .6 2.2 1.5h1.4c-.4-1.6-1.6-2.6-3.5-2.6-2.2 0-3.8 1.5-3.8 4zM1072.2 725.9c0 1.5.7 2.1 2.1 2.1h1.2v-1h-1c-.8 0-1-.3-1-1.1v-4.5h2v-1h-2v-2h-1.3v2h-1v1h1v4.5zM1080.3 724.1c0 2.4 1.5 4 3.6 4 1.4 0 2.4-.7 2.8-1.5v1.4h1.3v-10.4h-1.3v4.1a3.3 3.3 0 00-2.8-1.5c-2 0-3.6 1.5-3.6 4zm6.4 0c0 1.9-1.2 3-2.6 3-1.4 0-2.5-1.2-2.5-3s1.1-2.8 2.5-2.8 2.6 1 2.6 2.9zM1089.7 724.1c0 2.4 1.6 4 3.6 4 1.5 0 2.4-.7 3-1.5v1.4h1.2v-7.7h-1.3v1.4a3.2 3.2 0 00-2.9-1.5c-2 0-3.6 1.5-3.6 4zm6.5 0c0 1.9-1.2 3-2.6 3-1.4 0-2.6-1.2-2.6-3s1.2-2.8 2.6-2.8c1.4 0 2.6 1 2.6 2.9zM1100 725.9c0 1.5.7 2.1 2 2.1h1.2v-1h-1c-.7 0-1-.3-1-1.1v-4.5h2v-1h-2v-2h-1.3v2h-1v1h1v4.5zM1104.3 724.1c0 2.4 1.6 4 3.6 4 1.4 0 2.4-.7 2.9-1.5v1.4h1.3v-7.7h-1.3v1.4a3.2 3.2 0 00-2.9-1.5c-2 0-3.6 1.5-3.6 4zm6.5 0c0 1.9-1.2 3-2.6 3-1.4 0-2.6-1.2-2.6-3s1.2-2.8 2.6-2.8c1.4 0 2.6 1 2.6 2.9zM1070 740.3v3h-3v1.1h3v3h1.1v-3h3v-1h-3v-3h-1.2zM985.8 767.3c0 1-.8 1.7-2 1.7h-2.3v-3.5h2.2c1.3 0 2 .7 2 1.8zm-.3-4.4c0 1-.7 1.6-1.8 1.6h-2.2v-3.2h2.1c1.3 0 2 .6 2 1.6zm1.6 4.5c0-1.2-1-2.2-2-2.4 1-.3 1.7-1 1.7-2.3 0-1.3-1-2.5-3-2.5h-3.6v9.8h3.7c2 0 3.2-1.1 3.2-2.6zM988.3 766.1c0 2.4 1.6 4 3.7 4 1.4 0 2.4-.7 2.8-1.5v1.4h1.3v-7.7h-1.3v1.4a3.2 3.2 0 00-2.8-1.5c-2 0-3.7 1.5-3.7 4zm6.5 0c0 1.9-1.2 3-2.6 3-1.4 0-2.6-1.2-2.6-3s1.2-2.8 2.6-2.8c1.4 0 2.6 1 2.6 2.9zM997.8 766.1c0 2.5 1.6 4 3.8 4 1.9 0 3.1-1 3.5-2.6h-1.4c-.3 1-1 1.5-2.2 1.5-1.3 0-2.4-1-2.4-2.9 0-1.8 1-2.8 2.5-2.8 1 0 1.9.6 2.1 1.5h1.4c-.4-1.6-1.6-2.6-3.5-2.6-2.2 0-3.8 1.5-3.8 4zM1006.8 770h1.3v-3.4l3 3.4h1.7l-3.6-3.9 3.6-3.8h-1.8l-3 3.4v-6h-1.2V770zM1017.3 763.3c1.3 0 2.4.8 2.4 2.3h-4.9c.2-1.5 1.2-2.3 2.4-2.3zm3.5 4.3h-1.3c-.3.9-1 1.4-2.2 1.4-1.3 0-2.4-.8-2.5-2.4h6.2v-.7c0-2.1-1.5-3.7-3.7-3.7s-3.8 1.5-3.8 4c0 2.4 1.6 4 3.8 4 2 0 3.2-1.2 3.5-2.6zM1028.3 770h1.3v-4.5c0-2.2-1.4-3.3-3.2-3.3-1 0-2 .4-2.5 1.2v-1h-1.2v7.6h1.2v-4.2c0-1.7 1-2.5 2.2-2.5 1.3 0 2.2.8 2.2 2.4v4.3zM1031.2 766.1c0 2.4 1.5 4 3.6 4 1.4 0 2.4-.7 2.9-1.5v1.4h1.2v-10.4h-1.3v4.1a3.3 3.3 0 00-2.8-1.5c-2 0-3.6 1.5-3.6 4zm6.5 0c0 1.9-1.3 3-2.7 3-1.4 0-2.5-1.2-2.5-3s1.1-2.8 2.5-2.8 2.7 1 2.7 2.9zM1044.3 766.1c0 2.4 1.6 4 3.7 4 1.4 0 2.4-.7 2.8-1.5v1.4h1.3v-10.4h-1.3v4.1a3.3 3.3 0 00-2.8-1.5c-2 0-3.6 1.5-3.6 4zm6.5 0c0 1.9-1.2 3-2.6 3-1.4 0-2.6-1.2-2.6-3s1.2-2.8 2.6-2.8c1.4 0 2.6 1 2.6 2.9zM1053.8 766.1c0 2.4 1.6 4 3.6 4 1.4 0 2.4-.7 2.9-1.5v1.4h1.3v-7.7h-1.3v1.4a3.2 3.2 0 00-2.9-1.5c-2 0-3.6 1.5-3.6 4zm6.5 0c0 1.9-1.2 3-2.6 3-1.4 0-2.6-1.2-2.6-3s1.2-2.8 2.6-2.8c1.4 0 2.6 1 2.6 2.9zM1064 767.9c0 1.5.8 2.1 2.1 2.1h1.2v-1h-1c-.7 0-1-.3-1-1.1v-4.5h2v-1h-2v-2h-1.3v2h-1v1h1v4.5zM1068.4 766.1c0 2.4 1.5 4 3.6 4 1.4 0 2.4-.7 2.9-1.5v1.4h1.2v-7.7h-1.2v1.4a3.2 3.2 0 00-2.9-1.5c-2 0-3.6 1.5-3.6 4zm6.5 0c0 1.9-1.2 3-2.6 3-1.4 0-2.6-1.2-2.6-3s1.2-2.8 2.6-2.8c1.4 0 2.6 1 2.6 2.9zM1086.6 772.6v-.1c-1.9-2-2.9-4.8-2.9-7.6 0-2.9 1-5.8 3.1-7.8v-.2h-1.3c-2 1.9-3 4.8-3 8 0 3.1 1 6 2.8 7.7h1.3zM1091.7 763.3c1.3 0 2.4.8 2.4 2.3h-4.9c.2-1.5 1.2-2.3 2.5-2.3zm3.5 4.3h-1.3c-.3.9-1 1.4-2.2 1.4-1.3 0-2.4-.8-2.5-2.4h6.1v-.7c0-2.1-1.4-3.7-3.6-3.7s-3.8 1.5-3.8 4c0 2.4 1.6 4 3.8 4 2 0 3.1-1.2 3.5-2.6zM1101 770h1.5l-2.5-3.9 2.5-3.8h-1.3l-1.8 2.9-1.8-2.9h-1.4l2.5 3.9-2.5 3.8h1.3l1.8-2.9 1.8 2.9zM1103.3 766.1c0 2.4 1.6 4 3.6 4 1.4 0 2.4-.7 2.9-1.5v1.4h1.3v-7.7h-1.3v1.4a3.2 3.2 0 00-2.9-1.5c-2 0-3.6 1.5-3.6 4zm6.5 0c0 1.9-1.2 3-2.6 3-1.4 0-2.6-1.2-2.6-3s1.2-2.8 2.6-2.8c1.4 0 2.6 1 2.6 2.9zM1124.3 770h1.3v-4.5c0-2.2-1.4-3.3-3.1-3.3-1.2 0-2.3.6-2.7 1.7-.6-1.2-1.6-1.7-2.9-1.7-1 0-1.9.4-2.4 1.2v-1h-1.3v7.6h1.3v-4.2c0-1.7.9-2.5 2.2-2.5 1.2 0 2 .8 2 2.4v4.3h1.3v-4.2c0-1.7 1-2.5 2.2-2.5 1.3 0 2.1.8 2.1 2.4v4.3zM1129 763.7v-1.4h-1.3v11.3h1.2v-5c.5.8 1.5 1.5 2.9 1.5 2 0 3.6-1.6 3.6-4s-1.5-3.9-3.6-3.9c-1.4 0-2.4.7-2.9 1.5zm5.1 2.4c0 1.8-1.1 3-2.6 3-1.3 0-2.6-1.1-2.6-3 0-1.7 1.3-2.8 2.6-2.8 1.5 0 2.6 1 2.6 2.8zM1137.1 770h1.3v-10.4h-1.3V770zM1143.8 763.3c1.3 0 2.5.8 2.4 2.3h-4.8c.1-1.5 1.2-2.3 2.4-2.3zm3.6 4.3h-1.4c-.2.9-1 1.4-2.1 1.4-1.3 0-2.4-.8-2.5-2.4h6.1v-.7c0-2.1-1.4-3.7-3.6-3.7-2.3 0-3.8 1.5-3.8 4 0 2.4 1.6 4 3.8 4 1.9 0 3.1-1.2 3.5-2.6zM1154.8 768c0-2.8-4.5-1.8-4.5-3.7 0-.6.5-1 1.5-1s1.6.5 1.6 1.3h1.3c0-1.5-1.2-2.4-2.9-2.4s-2.8 1-2.8 2.1c0 2.9 4.5 2 4.5 3.6 0 .6-.5 1.1-1.6 1.1-1 0-1.7-.5-1.8-1.3h-1.3c.1 1.4 1.4 2.4 3.2 2.4 1.7 0 2.8-1 2.8-2.2zM1156.2 772.6v-.1c1.9-2 2.9-4.8 2.9-7.6 0-2.9-1-5.8-3.1-7.8v-.2h1.3c2 1.9 3 4.8 3 8 0 3.1-1 6-2.8 7.7h-1.3z" class="subcard-subheader"/><path fill="#222" d="M1035 696.8h-3.9V708h4c3.5 0 5.8-2.2 5.8-5.6 0-3.4-2.3-5.6-5.9-5.6zm-1.7 9.3v-7.4h1.6c2.4 0 3.7 1.4 3.7 3.7 0 2.4-1.3 3.7-3.7 3.7h-1.6zM1042 703.5c0 2.8 1.8 4.6 4 4.6 1.4 0 2.4-.6 3-1.4v1.3h2.2v-8.9h-2.2v1.3a3.5 3.5 0 00-3-1.4c-2.2 0-4 1.8-4 4.5zm7 0c0 1.7-1.1 2.7-2.4 2.7-1.2 0-2.3-1-2.3-2.7 0-1.6 1.1-2.5 2.3-2.5 1.3 0 2.4.9 2.4 2.6zM1053.8 705.2c0 2 1.1 2.8 2.8 2.8h1.4v-1.9h-1c-.7 0-1-.2-1-.8V701h2V699h-2V697h-2.2v2.2h-1v1.9h1v4.2zM1063.4 700.8c1.2 0 2.1.8 2.1 2h-4.2c.2-1.3 1-2 2.1-2zm4.2 4.4h-2.4c-.3.6-.8 1-1.8 1s-2-.6-2-2h6.4v-.8c0-2.7-1.7-4.4-4.3-4.4-2.6 0-4.5 1.8-4.5 4.6s2 4.5 4.5 4.5c2.2 0 3.7-1.3 4.1-2.9zM1071.7 700.4v-4.2h-2.2V708h2.2v-1.3c.6.8 1.6 1.4 3 1.4 2.2 0 4-1.8 4-4.6 0-2.7-1.8-4.5-4-4.5-1.4 0-2.4.6-3 1.4zm4.7 3.1c0 1.7-1.1 2.7-2.3 2.7-1.2 0-2.4-1-2.4-2.6 0-1.7 1.2-2.6 2.4-2.6s2.3.9 2.3 2.5zM1079.8 703.5c0 2.8 1.8 4.6 4 4.6 1.4 0 2.4-.6 3-1.4v1.3h2.2v-8.9h-2.3v1.3a3.5 3.5 0 00-2.9-1.4c-2.3 0-4 1.8-4 4.5zm7 0c0 1.7-1.2 2.7-2.4 2.7s-2.3-1-2.3-2.7c0-1.6 1-2.5 2.3-2.5 1.2 0 2.3.9 2.3 2.6zM1098 705.5c0-3.3-5-2.3-5-3.9 0-.5.5-.8 1.3-.8 1 0 1.5.4 1.5 1.1h2.2c-.1-1.7-1.4-3-3.6-3s-3.5 1.3-3.5 2.7c0 3.3 5 2.3 5 3.9 0 .5-.5.9-1.3.9-1 0-1.6-.5-1.6-1.2h-2.3c.1 1.6 1.7 3 3.9 3 2.1 0 3.5-1.2 3.5-2.7zM1103.7 700.8c1.2 0 2 .8 2.1 2h-4.2c.2-1.3 1-2 2.1-2zm4.2 4.4h-2.4c-.3.6-.8 1-1.8 1-1.1 0-2-.6-2.1-2h6.5v-.8c0-2.7-1.8-4.4-4.3-4.4-2.6 0-4.5 1.8-4.5 4.6s1.9 4.5 4.5 4.5c2.2 0 3.6-1.3 4.1-2.9z" class="subcard-header"/><path fill="#626262" d="M373 142.2v5.8h2.5v-5.8l5.3-10.2H378l-3.7 7.9-3.7-7.9h-2.9l5.3 10.2zM395 141.7c0-4-2.9-6.6-6.5-6.6a6.2 6.2 0 00-6.5 6.6c0 4 2.8 6.5 6.4 6.5 3.6 0 6.6-2.6 6.6-6.5zm-10.3 0c0-3 1.8-4.3 3.8-4.3 2 0 3.8 1.4 3.8 4.3 0 2.8-2 4.2-3.9 4.2-2 0-3.7-1.4-3.7-4.2zM409 135.3h-2.6v7c0 2.4-1.2 3.6-3.2 3.6-1.9 0-3.1-1.2-3.1-3.5v-7h-2.6v7.4c0 3.5 2.2 5.4 5.2 5.4 1.5 0 2.9-.6 3.7-1.7v1.5h2.6v-12.7zM417.6 141.6c0 4 2.6 6.6 6 6.6 2 0 3.6-1 4.4-2.1v2.1c0 2.5-1.5 3.8-3.6 3.8-1.8 0-3.2-1-3.6-2.2h-2.6c.3 2.8 2.9 4.5 6.2 4.5 4 0 6.2-2.6 6.2-6v-13H428v1.9c-.8-1.1-2.3-2-4.4-2-3.3 0-6 2.5-6 6.4zm10.4 0c0 2.8-1.9 4.3-3.9 4.3s-3.8-1.6-3.8-4.3c0-2.7 1.9-4.2 3.8-4.2 2 0 3.9 1.5 3.9 4.3zM439.4 137.3c2 0 3.5 1.3 3.5 3.2h-7c.3-2 1.7-3.2 3.5-3.2zm6 7h-2.9c-.5 1-1.4 1.7-3 1.7-2 0-3.4-1.3-3.6-3.4h9.7v-1.2c0-3.8-2.5-6.3-6-6.3-3.8 0-6.4 2.6-6.4 6.6 0 4 2.7 6.5 6.3 6.5 3.1 0 5.1-1.8 5.8-4zM448.7 144.5c0 2.6 1.4 3.5 3.6 3.5h2.1v-2.2h-1.6c-1.1 0-1.5-.4-1.5-1.3v-7h3.1v-2.2h-3v-3.1h-2.7v3.1h-1.5v2.2h1.5v7zM459.5 146.5c0-1-.7-1.7-1.6-1.7-1 0-1.7.7-1.7 1.7s.7 1.7 1.7 1.7c.9 0 1.6-.8 1.6-1.7zm0-9.7c0-1-.7-1.7-1.6-1.7-1 0-1.7.8-1.7 1.7 0 1 .7 1.7 1.7 1.7.9 0 1.6-.7 1.6-1.7zM468.4 142.2c0 4 2.9 6 6.2 6 3.4 0 6.3-2 6.3-6V132h-2.6v10.2c0 2.5-1.4 3.7-3.7 3.7-2.2 0-3.6-1.2-3.6-3.7V132h-2.6v10.2zM484.3 148h2.6v-16h-2.6v16zM501.6 133.8v4.8H497v2.2h4.6v4.8h2.5v-4.8h4.6v-2.2h-4.6v-4.8h-2.5zM521.4 137.2V131h-2.7v17h2.7v-1.8c.8 1 2.3 2 4.4 2 3.3 0 6-2.7 6-6.6 0-3.9-2.7-6.5-6-6.5-2 0-3.6 1-4.4 2.1zm7.7 4.4c0 2.7-2 4.3-3.9 4.3-2 0-3.8-1.5-3.8-4.2 0-2.8 1.9-4.3 3.8-4.3 2 0 3.9 1.5 3.9 4.2zM533.5 141.6c0 4 2.6 6.6 5.9 6.6 2.1 0 3.6-1 4.4-2v1.8h2.7v-12.7h-2.7v1.9c-.8-1-2.2-2-4.4-2-3.3 0-6 2.5-6 6.4zm10.3 0c0 2.8-1.8 4.3-3.8 4.3-2 0-3.9-1.6-3.9-4.3 0-2.7 2-4.2 3.9-4.2 2 0 3.8 1.5 3.8 4.3zM549 141.7c0 4 2.6 6.5 6.3 6.5 3 0 5-1.7 5.8-4.2h-2.8c-.5 1.3-1.5 2-3 2-2.2 0-3.6-1.6-3.6-4.3 0-2.8 1.4-4.4 3.6-4.4 1.5 0 2.5.8 3 2h2.8c-.7-2.6-2.7-4.2-5.8-4.2-3.7 0-6.3 2.6-6.3 6.6zM563.7 148h2.6v-5.5l4.7 5.5h3.6l-5.9-6.3 5.9-6.4h-3.7l-4.6 5.6v-10h-2.6V148zM581.8 137.3c2 0 3.5 1.3 3.5 3.2h-7c.3-2 1.7-3.2 3.5-3.2zm6 7h-3c-.4 1-1.3 1.7-2.9 1.7-2 0-3.4-1.3-3.6-3.4h9.7v-1.2c0-3.8-2.5-6.3-6.1-6.3-3.8 0-6.3 2.6-6.3 6.6 0 4 2.7 6.5 6.3 6.5 3.1 0 5.1-1.8 5.8-4zM599.6 148h2.6v-7.5c0-3.5-2.2-5.4-5.2-5.4-1.5 0-2.9.6-3.7 1.7v-1.5h-2.7V148h2.7v-7c0-2.4 1.2-3.6 3.2-3.6 1.9 0 3.1 1.2 3.1 3.5v7.1zM604.7 141.6c0 4 2.6 6.6 6 6.6 2 0 3.6-1 4.4-2.1v1.9h2.6v-17h-2.6v6.1c-1-1.2-2.7-2-4.4-2-3.3 0-6 2.6-6 6.5zm10.4 0c0 2.8-1.9 4.3-3.9 4.3s-3.8-1.6-3.8-4.3c0-2.7 1.9-4.2 3.8-4.2 2 0 3.9 1.5 3.9 4.3zM626.3 141.7c0 4 2.5 6.5 6.2 6.5 3 0 5.1-1.7 5.8-4.2h-2.8c-.5 1.3-1.5 2-3 2-2.1 0-3.5-1.6-3.5-4.3 0-2.8 1.4-4.4 3.5-4.4 1.5 0 2.6.8 3 2h2.8c-.7-2.6-2.7-4.2-5.8-4.2-3.7 0-6.2 2.6-6.2 6.6zM653 141.7c0-4-2.8-6.6-6.5-6.6a6.2 6.2 0 00-6.4 6.6c0 4 2.7 6.5 6.3 6.5 3.7 0 6.6-2.6 6.6-6.5zm-10.3 0c0-3 1.8-4.3 3.8-4.3 2 0 3.8 1.4 3.8 4.3 0 2.8-2 4.2-3.9 4.2-2 0-3.7-1.4-3.7-4.2zM664.6 148h2.6v-7.5c0-3.5-2.2-5.4-5.2-5.4-1.5 0-3 .6-3.8 1.7v-1.5h-2.6V148h2.6v-7c0-2.4 1.3-3.6 3.2-3.6 2 0 3.2 1.2 3.2 3.5v7.1zM679.5 148h2.6v-7.5c0-3.5-2.2-5.4-5.2-5.4-1.5 0-2.9.6-3.7 1.7v-1.5h-2.7V148h2.7v-7c0-2.4 1.2-3.6 3.2-3.6 1.9 0 3.1 1.2 3.1 3.5v7.1zM690.8 137.3c2 0 3.5 1.3 3.6 3.2h-7c.2-2 1.6-3.2 3.4-3.2zm6 7h-2.9c-.5 1-1.4 1.7-3 1.7-2 0-3.4-1.3-3.6-3.4h9.7v-1.2c0-3.8-2.5-6.3-6-6.3-3.8 0-6.4 2.6-6.4 6.6 0 4 2.7 6.5 6.3 6.5 3.1 0 5.1-1.8 5.8-4zM698.8 141.7c0 4 2.6 6.5 6.2 6.5 3.1 0 5.1-1.7 5.8-4.2H708c-.5 1.3-1.4 2-3 2-2.1 0-3.5-1.6-3.5-4.3 0-2.8 1.4-4.4 3.5-4.4 1.6 0 2.6.8 3 2h2.8c-.7-2.6-2.7-4.2-5.8-4.2-3.6 0-6.2 2.6-6.2 6.6zM713.9 144.5c0 2.6 1.4 3.5 3.6 3.5h2.1v-2.2H718c-1.1 0-1.5-.4-1.5-1.3v-7h3.1v-2.2h-3v-3.1h-2.7v3.1h-1.5v2.2h1.5v7zM722 148h2.6v-12.7H722V148zm1.3-14.4c1 0 1.7-.7 1.7-1.6 0-1-.7-1.7-1.7-1.7-.9 0-1.6.7-1.6 1.7s.7 1.6 1.6 1.6zM740.2 141.7c0-4-2.9-6.6-6.5-6.6a6.2 6.2 0 00-6.5 6.6c0 4 2.8 6.5 6.4 6.5 3.6 0 6.6-2.6 6.6-6.5zm-10.3 0c0-3 1.8-4.3 3.7-4.3 2 0 3.9 1.4 3.9 4.3 0 2.8-2 4.2-4 4.2-1.9 0-3.6-1.4-3.6-4.2zM751.7 148h2.6v-7.5c0-3.5-2.2-5.4-5.2-5.4-1.5 0-2.9.6-3.7 1.7v-1.5h-2.7V148h2.7v-7c0-2.4 1.2-3.6 3.2-3.6 1.9 0 3.1 1.2 3.1 3.5v7.1zM769 133.8v4.8h-4.7v2.2h4.6v4.8h2.5v-4.8h4.6v-2.2h-4.6v-4.8h-2.5zM788.7 137.2V131H786v17h2.6v-1.8c.8 1 2.3 2 4.4 2 3.3 0 6-2.7 6-6.6 0-3.9-2.7-6.5-6-6.5-2 0-3.6 1-4.4 2.1zm7.7 4.4c0 2.7-2 4.3-3.9 4.3-2 0-3.8-1.5-3.8-4.2 0-2.8 1.9-4.3 3.8-4.3 2 0 3.9 1.5 3.9 4.2zM800.8 141.6c0 4 2.6 6.6 5.9 6.6 2.1 0 3.6-1 4.4-2v1.8h2.7v-12.7H811v1.9c-.7-1-2.2-2-4.4-2-3.3 0-6 2.5-6 6.4zm10.3 0c0 2.8-1.8 4.3-3.8 4.3-2 0-3.8-1.6-3.8-4.3 0-2.7 1.8-4.2 3.8-4.2 2 0 3.8 1.5 3.8 4.3zM816.4 141.7c0 4 2.5 6.5 6.2 6.5 3 0 5-1.7 5.8-4.2h-2.8c-.5 1.3-1.5 2-3 2-2.2 0-3.6-1.6-3.6-4.3 0-2.8 1.4-4.4 3.6-4.4 1.5 0 2.5.8 3 2h2.8c-.7-2.6-2.7-4.2-5.8-4.2-3.7 0-6.2 2.6-6.2 6.6zM831 148h2.6v-5.5l4.7 5.5h3.6l-5.9-6.3 5.9-6.4h-3.7l-4.6 5.6v-10H831V148zM849 137.3c2 0 3.6 1.3 3.6 3.2h-7c.3-2 1.7-3.2 3.5-3.2zm6 7h-2.8c-.5 1-1.4 1.7-3 1.7-2 0-3.4-1.3-3.6-3.4h9.7v-1.2c0-3.8-2.5-6.3-6-6.3-3.8 0-6.4 2.6-6.4 6.6 0 4 2.7 6.5 6.3 6.5 3.1 0 5.1-1.8 5.8-4zM867 148h2.5v-7.5c0-3.5-2.2-5.4-5.2-5.4-1.5 0-2.9.6-3.7 1.7v-1.5h-2.7V148h2.7v-7c0-2.4 1.2-3.6 3.2-3.6 1.9 0 3.1 1.2 3.1 3.5v7.1zM872 141.6c0 4 2.7 6.6 6 6.6 2 0 3.6-1 4.4-2.1v1.9h2.6v-17h-2.6v6.1c-1-1.2-2.7-2-4.4-2-3.3 0-6 2.6-6 6.5zm10.4 0c0 2.8-1.9 4.3-3.9 4.3s-3.8-1.6-3.8-4.3c0-2.7 1.9-4.2 3.8-4.2 2 0 3.9 1.5 3.9 4.3z" class="diagram-subheader"/><path fill="#262626" d="M186 95h7.8l4.4-17.6 4.3 17.6h7.8l7-26.7h-7l-3.9 19.4-4.5-19.4h-7.2L190 87.7 186 68.3h-7L186 95zM220.5 95h6.5V83.5c0-2.9 1.6-4.5 4.1-4.5 2.5 0 4 1.6 4 4.5V95h6.5V82.6c0-5.7-3.2-9-8-9-3 0-5.3 1.2-6.6 3V67h-6.5V95zM244.9 84.4c0 6.6 4.1 10.9 9.3 10.9 3.1 0 5.4-1.4 6.5-3.3v3h6.5V73.8h-6.5v3a7.4 7.4 0 00-6.5-3.3c-5.2 0-9.3 4.2-9.3 10.9zm15.8 0c0 3.4-2.1 5.2-4.6 5.2-2.4 0-4.6-1.9-4.6-5.2 0-3.4 2.2-5.2 4.6-5.2 2.5 0 4.6 1.8 4.6 5.2zM273 87.6c0 5.5 3 7.4 7.4 7.4h3.4v-5.5h-2.4c-1.4 0-2-.5-2-1.8v-8.5h4.3v-5.4h-4.2v-5.2H273v5.2h-2.6v5.4h2.6v8.4zM295.4 95h6.5V73.8h-6.5V95zm3.3-23.4c2.3 0 3.8-1.6 3.8-3.5 0-2-1.5-3.5-3.8-3.5s-3.9 1.5-3.9 3.5 1.6 3.5 3.9 3.5zM323.8 88.8c0-7.9-11.5-5.5-11.5-8.8 0-1 .8-1.7 2.3-1.7 1.8 0 3 1 3.1 2.4h6c-.4-4.2-3.4-7.2-8.9-7.2s-8.6 3-8.6 6.6c0 7.8 11.5 5.3 11.5 8.7 0 1-.8 1.7-2.5 1.7-1.8 0-3.1-1-3.3-2.5h-6.4c.3 4.1 4.1 7.3 9.8 7.3 5.3 0 8.5-2.8 8.5-6.5zM350.5 95h6.5V82.6c0-5.7-3.3-9-8.2-9a7.8 7.8 0 00-6.4 3v-2.8h-6.5V95h6.5V83.5c0-2.9 1.6-4.5 4-4.5 2.5 0 4.1 1.6 4.1 4.5V95zM360.2 84.4c0 6.6 4.1 10.9 9.3 10.9 3.2 0 5.4-1.5 6.6-3.3v3c0 3.5-2 4.8-4.4 4.8-2.3 0-3.9-1-4.3-2.6H361c.6 5 4.7 8.3 11 8.3 7.3 0 10.6-4.9 10.6-10.5V73.8H376v3c-1.2-1.9-3.4-3.3-6.6-3.3-5.2 0-9.3 4.2-9.3 10.9zm15.9 0c0 3.4-2.2 5.2-4.7 5.2-2.4 0-4.6-1.9-4.6-5.2 0-3.4 2.2-5.2 4.6-5.2 2.5 0 4.7 1.8 4.7 5.2zM399.8 95h7.3l-7.3-10.5 7.1-10.7h-7l-3.4 5.8-4.1-5.8h-7.3l7.2 10.4-7 10.8h7l3.4-5.9 4.1 5.9zM409.2 84.4H426V79h-16.8v5.4zM430.4 84.4c0 6.6 4.1 10.9 9.3 10.9 3.1 0 5.4-1.4 6.5-3.3v3h6.5V73.8h-6.5v3a7.4 7.4 0 00-6.5-3.3c-5.2 0-9.3 4.2-9.3 10.9zm15.8 0c0 3.4-2.1 5.2-4.6 5.2-2.4 0-4.6-1.9-4.6-5.2 0-3.4 2.2-5.2 4.6-5.2 2.5 0 4.6 1.8 4.6 5.2zM456.2 84.4c0 6.6 4.1 10.9 9.3 10.9 3.1 0 5.4-1.4 6.5-3.3v3h6.5V66.9H472v9.8a7.8 7.8 0 00-6.5-3.2c-5.2 0-9.3 4.2-9.3 10.9zm15.8 0c0 3.4-2.1 5.2-4.6 5.2-2.4 0-4.6-1.9-4.6-5.2 0-3.4 2.2-5.2 4.6-5.2 2.5 0 4.6 1.8 4.6 5.2zM512.5 95h6.4V82.6c0-5.7-3.4-9-8.6-9-3 0-5.7 1.7-7.2 4a8 8 0 00-7.2-4c-2.7 0-5 1.1-6.2 2.9v-2.7h-6.5V95h6.5V83.5c0-2.8 1.6-4.3 4.1-4.3 2.5 0 4 1.5 4 4.3V95h6.5V83.5c0-2.8 1.6-4.3 4-4.3 2.6 0 4.2 1.5 4.2 4.3V95zM523.5 95h6.5V73.8h-6.5V95zm3.2-23.4c2.3 0 3.9-1.6 3.9-3.5 0-2-1.6-3.5-3.9-3.5S523 66 523 68s1.5 3.5 3.8 3.5zM549.3 95h6.5V82.6c0-5.7-3.3-9-8.2-9a7.8 7.8 0 00-6.4 3v-2.8h-6.5V95h6.5V83.5c0-2.9 1.6-4.5 4-4.5 2.5 0 4.1 1.6 4.1 4.5V95zM567 84.4c0 6.6 4.2 10.9 9.4 10.9 3.1 0 5.3-1.4 6.5-3.3v3h6.5V66.9H583v9.8a7.8 7.8 0 00-6.5-3.2c-5.2 0-9.4 4.2-9.4 10.9zm16 0c0 3.4-2.2 5.2-4.7 5.2-2.4 0-4.7-1.9-4.7-5.2 0-3.4 2.3-5.2 4.7-5.2 2.5 0 4.6 1.8 4.6 5.2zM592.8 84.4c0 6.6 4.2 10.9 9.3 10.9 3.2 0 5.4-1.4 6.6-3.3v3h6.5V73.8h-6.5v3a7.4 7.4 0 00-6.5-3.3c-5.2 0-9.4 4.2-9.4 10.9zm16 0c0 3.4-2.3 5.2-4.7 5.2-2.5 0-4.7-1.9-4.7-5.2 0-3.4 2.2-5.2 4.7-5.2 2.4 0 4.6 1.8 4.6 5.2zM637.1 88.8c0-7.9-11.6-5.5-11.6-8.8 0-1 .9-1.7 2.4-1.7 1.8 0 3 1 3.1 2.4h6c-.4-4.2-3.4-7.2-9-7.2-5.5 0-8.5 3-8.5 6.6 0 7.8 11.5 5.3 11.5 8.7 0 1-.9 1.7-2.5 1.7-1.8 0-3.2-1-3.3-2.5h-6.4c.3 4.1 4 7.3 9.7 7.3 5.4 0 8.6-2.8 8.6-6.5zM641.1 95h6.5V83.5c0-2.9 1.6-4.5 4-4.5 2.5 0 4.1 1.6 4.1 4.5V95h6.5V82.6c0-5.7-3.2-9-8-9-3 0-5.3 1.2-6.6 3V67h-6.5V95zM673.2 76.8v-10h-6.5V95h6.5v-3a7.5 7.5 0 006.5 3.3c5.2 0 9.4-4.3 9.4-11 0-6.6-4.1-10.8-9.4-10.8-3 0-5.3 1.4-6.5 3.3zm9.3 7.6c0 3.3-2.2 5.2-4.7 5.2-2.4 0-4.6-1.8-4.6-5.2 0-3.4 2.2-5.2 4.6-5.2 2.5 0 4.7 1.8 4.7 5.2zM713.2 84.4c0-6.7-4.7-11-11-11-6.2 0-11 4.3-11 11s4.7 10.9 11 10.9c6.2 0 11-4.2 11-10.9zm-15.4 0c0-3.6 2-5.3 4.4-5.3 2.3 0 4.4 1.7 4.4 5.3 0 3.6-2.1 5.3-4.5 5.3-2.3 0-4.3-1.7-4.3-5.3zM715.4 84.4c0 6.6 4.1 10.9 9.3 10.9 3.2 0 5.4-1.4 6.6-3.3v3h6.5V73.8h-6.5v3a7.4 7.4 0 00-6.6-3.3c-5.2 0-9.3 4.2-9.3 10.9zm15.9 0c0 3.4-2.2 5.2-4.7 5.2-2.4 0-4.6-1.9-4.6-5.2 0-3.4 2.2-5.2 4.6-5.2 2.5 0 4.7 1.8 4.7 5.2zM749 85.2c0-3.7 1.8-4.8 4.8-4.8h1.8v-6.8a7.9 7.9 0 00-6.6 3.7v-3.5h-6.5V95h6.5v-9.8zM757.4 84.4c0 6.6 4.2 10.9 9.4 10.9 3.1 0 5.4-1.4 6.5-3.3v3h6.5V66.9h-6.5v9.8a7.8 7.8 0 00-6.5-3.2c-5.2 0-9.4 4.2-9.4 10.9zm16 0c0 3.4-2.2 5.2-4.7 5.2-2.4 0-4.6-1.9-4.6-5.2 0-3.4 2.2-5.2 4.6-5.2 2.5 0 4.6 1.8 4.6 5.2zM796.2 95h7.1l3.5-13.8L810 95h7.2l5.7-21.2H817l-3 15-3.6-15h-6.9L800 89l-3-15.2h-6.5l5.8 21.2zM825.5 95h6.5V73.8h-6.5V95zm3.3-23.4c2.2 0 3.8-1.6 3.8-3.5 0-2-1.6-3.5-3.8-3.5-2.4 0-4 1.5-4 3.5s1.6 3.5 4 3.5zM837.7 87.6c0 5.5 3.1 7.4 7.5 7.4h3.3v-5.5h-2.3c-1.4 0-2-.5-2-1.8v-8.5h4.3v-5.4h-4.3v-5.2h-6.5v5.2h-2.6v5.4h2.6v8.4zM852.1 95h6.5V83.5c0-2.9 1.6-4.5 4.1-4.5 2.5 0 4 1.6 4 4.5V95h6.5V82.6c0-5.7-3.2-9-8-9-3 0-5.3 1.2-6.6 3V67h-6.5V95zM892.3 76.8v-10h-6.5V95h6.5v-3a7.5 7.5 0 006.5 3.3c5.2 0 9.4-4.3 9.4-11 0-6.6-4.1-10.8-9.4-10.8-3 0-5.3 1.4-6.5 3.3zm9.3 7.6c0 3.3-2.2 5.2-4.7 5.2-2.4 0-4.6-1.8-4.6-5.2 0-3.4 2.2-5.2 4.6-5.2 2.5 0 4.7 1.8 4.7 5.2zM910.3 84.4c0 6.6 4.1 10.9 9.3 10.9 3.2 0 5.4-1.4 6.6-3.3v3h6.5V73.8h-6.5v3a7.4 7.4 0 00-6.6-3.3c-5.2 0-9.3 4.2-9.3 10.9zm15.9 0c0 3.4-2.2 5.2-4.7 5.2-2.4 0-4.6-1.9-4.6-5.2 0-3.4 2.2-5.2 4.6-5.2 2.5 0 4.7 1.8 4.7 5.2zM936 84.4c0 6.7 4.5 10.9 10.7 10.9 5.3 0 9.1-3 10.2-8H950c-.6 1.6-1.6 2.5-3.4 2.5-2.3 0-3.9-1.9-3.9-5.4 0-3.5 1.6-5.4 4-5.4 1.7 0 2.8 1 3.3 2.5h7c-1.2-5-5-8-10.3-8-6.2 0-10.6 4.2-10.6 10.9zM960.4 95h6.5v-8.9l6.4 8.9h8.1l-8.9-10.6 8.8-10.6h-8l-6.4 8.6V67h-6.5V95zM993.2 78.7c2.2 0 4 1.3 4 3.6h-8.1c.4-2.3 2-3.6 4.1-3.6zm10.2 9.3h-7c-.5 1.1-1.5 2-3.3 2-2.1 0-3.8-1.3-4-4h14.7v-2c0-6.4-4.3-10.5-10.5-10.5-6.3 0-10.7 4.2-10.7 10.9s4.5 10.9 10.7 10.9c5.3 0 9-3.2 10-7.3zM1022 95h6.4V82.6c0-5.7-3.3-9-8.2-9a7.8 7.8 0 00-6.4 3v-2.8h-6.5V95h6.5V83.5c0-2.9 1.6-4.5 4-4.5 2.5 0 4.1 1.6 4.1 4.5V95zM1031.6 84.4c0 6.6 4.1 10.9 9.4 10.9 3 0 5.3-1.4 6.5-3.3v3h6.5V66.9h-6.5v9.8a7.8 7.8 0 00-6.5-3.2c-5.3 0-9.4 4.2-9.4 10.9zm15.9 0c0 3.4-2.2 5.2-4.6 5.2-2.5 0-4.7-1.9-4.7-5.2 0-3.4 2.2-5.2 4.7-5.2 2.4 0 4.6 1.8 4.6 5.2zM1057.4 75h6.1c0-1.7 1-2.8 3-2.8 1.6 0 2.6 1 2.6 2.7 0 2.8-2.4 3.5-6 3.5h-2.2l.2 7h5.7l.1-2.8c5 0 8.6-2.7 8.6-7.6 0-5.3-3.7-8.2-9-8.2-6 0-9.2 3.7-9.1 8.3zm10.4 16.8c0-2-1.5-3.6-3.8-3.6s-3.9 1.6-3.9 3.6 1.6 3.5 3.9 3.5 3.8-1.6 3.8-3.5z" class="diagram-header"/></svg>
