<?xml version="1.0" encoding="UTF-8"?>
<svg width="46px" height="41px" viewBox="0 0 46 41" version="1.1" xmlns="http://www.w3.org/2000/svg" xmlns:xlink="http://www.w3.org/1999/xlink">
    <!-- Generator: Sketch 51.3 (57544) - http://www.bohemiancoding.com/sketch -->
    <title>2</title>
    <desc>Created with Sketch.</desc>
    <defs></defs>
    <g id="Homepage" stroke="none" stroke-width="1" fill="none" fill-rule="evenodd">
        <g id="Banner-Blue" transform="translate(-36.000000, -35.000000)" fill-rule="nonzero">
            <g id="2" transform="translate(36.000000, 35.000000)">
                <g id="Page-1" transform="translate(11.500000, 0.000000)" fill="#728BB7">
                    <path d="M0.818882143,0.254015675 L1.31584643,1.29279656" id="Fill-23"></path>
                </g>
                <g id="Page-1" fill="#FFFFFF">
                    <path d="M25.9279,7.70327639 C24.0952381,7.63259259 21.9047619,7.63259259 20.0251143,7.70327639 C20.0251143,6.06937777 21.3467929,4.74579642 22.9765071,4.74579642 C24.6062214,4.74579642 25.9279,6.06937777 25.9279,7.70327639 Z" id="Fill-1"></path>
                    <path d="M26.2857143,37.6177778 C26.2857143,39.3600981 24.8152185,40.8888889 23,40.8888889 C21.1847815,40.8888889 19.7142857,39.3592627 19.7142857,37.6177778 L26.2857143,37.6177778 Z" id="Combined-Shape"></path>
                    <path d="M22.9765071,38.1586528 L38.1310429,38.1586528 C38.1310429,31.204912 33.7405071,35.9098815 33.7405071,19.7923153 C33.7405071,13.0756338 29.3499714,7.70311176 22.9765071,7.70311176 C16.6030429,7.70311176 12.2125071,13.0756338 12.2125071,19.7923153 C12.2125071,35.9098815 7.82279286,31.2040888 7.82279286,38.1586528 L22.9765071,38.1586528 Z" id="Fill-7" fill-opacity="0.3"></path>
                    <path d="M24.620925,35.958528 L37.316925,35.958528 C37.316925,29.7735838 33.6393893,33.9583398 33.6393893,19.6228343 C33.6393893,13.6502558 29.9610321,8.87202835 24.620925,8.87202835 C19.2816393,8.87202835 15.6032821,13.6502558 15.6032821,19.6228343 C15.6032821,33.0520817 12.3758893,30.2287707 11.9676393,34.9024616 C11.9183536,35.4654775 12.3290679,35.958528 12.8613536,35.958528 L24.620925,35.958528 Z" id="Fill-9" fill-opacity="0.3"></path>
                    <path d="M9.01222143,38.9817755 C7.85793169,38.9817755 6.94637071,37.9813615 7.06120453,36.8306604 C7.21523002,35.2690855 7.60988701,34.3401154 8.45000733,33.1886378 C8.53261933,33.075409 8.8324557,32.6736616 8.89441519,32.5892593 C9.06434674,32.3577754 9.19872982,32.1650315 9.32697216,31.9654834 C10.6913769,29.8424381 11.3910786,26.5543001 11.3910786,19.7923153 C11.3910786,12.487826 16.257961,6.87998903 22.9765071,6.87998903 C29.6950532,6.87998903 34.5619357,12.487826 34.5619357,19.7923153 C34.5619357,26.5550082 35.2617508,29.8429901 36.6264928,31.965988 C36.7547005,32.1654284 36.8890484,32.3580806 37.0589304,32.5894549 C37.1209192,32.6738818 37.4206585,33.0754285 37.5032257,33.1885727 C38.3435539,34.3400985 38.7383491,35.2689984 38.892637,36.8307194 C39.0060885,37.9817856 38.094914,38.9817755 36.9416143,38.9817755 L9.01222143,38.9817755 Z M36.9416143,37.3355301 C37.1266604,37.3355301 37.2754476,37.17224 37.257753,36.9927124 C37.134751,35.7476709 36.854787,35.0889535 36.1771057,34.1603074 C36.1011278,34.0561928 35.8033263,33.6572421 35.7356452,33.5650624 C35.5471912,33.3083935 35.394303,33.0891549 35.2453778,32.8574863 C33.6814134,30.4245773 32.9190786,26.8428552 32.9190786,19.7923153 C32.9190786,13.3498889 28.732766,8.52623449 22.9765071,8.52623449 C17.2202483,8.52623449 13.0339357,13.3498889 13.0339357,19.7923153 C13.0339357,26.8420854 12.2717409,30.4239004 10.7081964,32.8568117 C10.5592284,33.0886094 10.4062969,33.3079572 10.2177846,33.5647521 C10.1501295,33.656913 9.85223844,34.0560539 9.77622237,34.1602424 C9.09875195,35.0887902 8.81890193,35.74752 8.69600198,36.9935256 C8.67812468,37.1726674 8.82652251,37.3355301 9.01222143,37.3355301 L36.9416143,37.3355301 Z" id="Stroke-11"></path>
                    <path d="M29.3128429,15.9061883 C29.3128429,17.6240454 28.3024857,19.0167691 27.0547357,19.0167691 C25.8078071,19.0167691 24.7966286,17.6240454 24.7966286,15.9061883 C24.7966286,14.187508 25.8078071,12.7947843 27.0547357,12.7947843 C28.3024857,12.7947843 29.3128429,14.187508 29.3128429,15.9061883" id="Fill-13"></path>
                    <path d="M14.0775467,3.4475639 L14.7891536,3.03640007 L15.6097888,4.46254921 L14.8981818,4.87371303 C9.91246081,7.7544441 6.77629286,13.0733488 6.77629286,18.9430996 L6.77629286,19.7662223 L5.13343571,19.7662223 L5.13343571,18.9430996 C5.13343571,12.4786305 8.58829126,6.6192353 14.0775467,3.4475639 Z" id="Stroke-15"></path>
                    <path d="M40.81925,18.9430996 L40.81925,19.7662223 L39.1763929,19.7662223 L39.1763929,18.9430996 C39.1763929,13.0733488 36.0402249,7.7544441 31.0545039,4.87371303 L30.342897,4.46254921 L31.1635321,3.03640007 L31.875139,3.4475639 C37.3643945,6.6192353 40.81925,12.4786305 40.81925,18.9430996 Z" id="Stroke-17"></path>
                    <path d="M11.517838,0.41146011 L12.2294604,0.000323336602 L13.0500416,1.42650367 L12.3384192,1.83764044 C5.77341126,5.63054503 1.64302143,12.6354563 1.64302143,20.364221 L1.64302143,21.1873437 L0.000164285714,21.1873437 L0.000164285714,20.364221 C0.000164285714,12.0407205 4.44926147,4.49529929 11.517838,0.41146011 Z" id="Stroke-19"></path>
                    <path d="M45.9531786,20.364221 L45.9531786,21.1873437 L44.3103214,21.1873437 L44.3103214,20.364221 C44.3103214,12.6354563 40.1799316,5.63054503 33.6149237,1.83764044 L32.9033012,1.42650367 L33.7238824,0.000323336602 L34.4355049,0.41146011 C41.5040814,4.49529929 45.9531786,12.0407205 45.9531786,20.364221 Z" id="Stroke-21"></path>
                </g>
            </g>
        </g>
    </g>
</svg>