<?xml version="1.0" encoding="UTF-8"?>
<svg width="47px" height="42px" viewBox="0 0 47 42" version="1.1" xmlns="http://www.w3.org/2000/svg" xmlns:xlink="http://www.w3.org/1999/xlink">
    <!-- Generator: Sketch 51.3 (57544) - http://www.bohemiancoding.com/sketch -->
    <title>1</title>
    <desc>Created with Sketch.</desc>
    <defs></defs>
    <g id="Homepage" stroke="none" stroke-width="1" fill="none" fill-rule="evenodd">
        <g id="Banner-White" transform="translate(-36.000000, -34.000000)">
            <g id="Group-3-Copy" transform="translate(12.000000, 7.000000)">
                <g id="1" transform="translate(24.000000, 27.000000)">
                    <g id="Page-1" transform="translate(12.493243, 0.000000)" fill="#728BB7" fill-rule="nonzero">
                        <path d="M0.818401014,0.254141176 L1.31507331,1.29343529" id="Fill-23"></path>
                    </g>
                    <g id="Group-3" transform="translate(0.200000, 0.200000)">
                        <g id="Page-1">
                            <path d="M22.9630074,4.74814118 C24.5917642,4.74814118 25.9126662,6.07237647 25.9126662,7.70708235 C25.9126662,9.34096471 24.5917642,10.6660235 22.9630074,10.6660235 C21.3342507,10.6660235 20.0133486,9.34096471 20.0133486,7.70708235 C20.0133486,6.07237647 21.3342507,4.74814118 22.9630074,4.74814118" id="Fill-1" fill="#3366FF" fill-rule="nonzero"></path>
                            <path d="M26.3196912,36.0808824 L26.3196912,38.0886471 C26.3196912,39.9481765 24.8173601,41.4552353 22.9628432,41.4552353 C21.1083264,41.4552353 19.6059953,39.9473529 19.6059953,38.0886471 L19.6059953,36.0808824 L26.3196912,36.0808824 Z" id="Fill-3" fill="#457AE6" fill-rule="nonzero"></path>
                            <path d="M22.9630074,36.0808824 L22.9630074,41.4552353 C24.8175243,41.4552353 26.3198554,39.9481765 26.3198554,38.0886471 L26.3198554,36.0808824 L22.9630074,36.0808824 Z" id="Fill-5" fill="#3366FF" fill-rule="nonzero"></path>
                            <path d="M22.9630074,38.1775059 L38.1086392,38.1775059 C38.1086392,31.2203294 33.7206831,35.9276235 33.7206831,19.8020941 C33.7206831,13.0820941 29.332727,7.70691765 22.9630074,7.70691765 C16.5932878,7.70691765 12.2053318,13.0820941 12.2053318,19.8020941 C12.2053318,35.9276235 7.81819662,31.2195059 7.81819662,38.1775059 L22.9630074,38.1775059 Z" id="Fill-7" fill="#6193FF"></path>
                            <path d="M24.6064591,35.9762941 L37.2949997,35.9762941 C37.2949997,29.7882941 33.6196247,33.9751176 33.6196247,19.6325294 C33.6196247,13.657 29.9434287,8.87641176 24.6064591,8.87641176 C19.2703105,8.87641176 15.5941145,13.657 15.5941145,19.6325294 C15.5941145,33.0684118 12.3686179,30.2437059 11.9606078,34.9197059 C11.911351,35.483 12.321824,35.9762941 12.853797,35.9762941 L24.6064591,35.9762941 Z" id="Fill-9" fill="#99C0FF"></path>
                            <path d="M9.00692635,39.0010353 C7.85331481,39.0010353 6.94228941,38.000127 7.05705576,36.8488574 C7.21099075,35.2865109 7.60541586,34.3570819 8.44504257,33.2050354 C8.52760604,33.0917506 8.82726625,32.6898047 8.88918933,32.6053607 C9.05902104,32.3737625 9.19332517,32.1809233 9.32149215,31.9812766 C10.6850953,29.8571824 11.3843858,26.5674198 11.3843858,19.8020941 C11.3843858,12.4939959 16.2484088,6.88338824 22.9630074,6.88338824 C29.6776061,6.88338824 34.5416291,12.4939959 34.5416291,19.8020941 C34.5416291,26.5681283 35.241033,29.8577347 36.6049732,31.9817815 C36.7331055,32.1813204 36.8673745,32.3740678 37.0371566,32.6055564 C37.099109,32.690025 37.3986722,33.0917701 37.4811909,33.2049702 C38.3210254,34.3570649 38.7155886,35.2864238 38.8697859,36.8489164 C38.9831707,38.0005513 38.0725315,39.0010353 36.9199095,39.0010353 L9.00692635,39.0010353 Z M36.9199095,37.3539765 C37.1048468,37.3539765 37.2535467,37.1906058 37.2358624,37.0109894 C37.1129327,35.7653328 36.8331332,35.10629 36.1558501,34.177185 C36.0799168,34.073019 35.7822903,33.6738712 35.7146489,33.5816459 C35.5263057,33.3248502 35.3735073,33.1055033 35.2246695,32.8737202 C33.6616241,30.4396092 32.8997372,26.8561175 32.8997372,19.8020941 C32.8997372,13.3564846 28.7158843,8.53044706 22.9630074,8.53044706 C17.2101306,8.53044706 13.0262777,13.3564846 13.0262777,19.8020941 C13.0262777,26.8553473 12.2645307,30.4389319 10.7019049,32.8730453 C10.5530244,33.1049575 10.4001827,33.3244137 10.2117812,33.5813354 C10.1441659,33.6735419 9.84644981,34.07288 9.77047841,34.1771199 C9.09340603,35.1061266 8.81372043,35.7651818 8.69089269,37.011803 C8.6730259,37.1910334 8.82133654,37.3539765 9.00692635,37.3539765 L36.9199095,37.3539765 Z" id="Stroke-11" fill="#3366FF" fill-rule="nonzero"></path>
                            <path d="M29.2956203,15.9140471 C29.2956203,17.6327529 28.2858568,19.0261647 27.0388399,19.0261647 C25.7926439,19.0261647 24.7820595,17.6327529 24.7820595,15.9140471 C24.7820595,14.1945176 25.7926439,12.8011059 27.0388399,12.8011059 C28.2858568,12.8011059 29.2956203,14.1945176 29.2956203,15.9140471" id="Fill-13" fill="#FFFFFF" fill-rule="nonzero"></path>
                            <path d="M14.0692756,3.44926724 L14.7804643,3.03790027 L15.6006173,4.46475402 L14.8894285,4.87612099 C9.90663681,7.75827535 6.77231149,13.079808 6.77231149,18.9524588 L6.77231149,19.7759882 L5.13041959,19.7759882 L5.13041959,18.9524588 C5.13041959,12.4847958 8.58324526,6.62250567 14.0692756,3.44926724 Z" id="Stroke-15" fill="#3366FF" fill-rule="nonzero"></path>
                            <path d="M40.7952669,18.9524588 L40.7952669,19.7759882 L39.153375,19.7759882 L39.153375,18.9524588 C39.153375,13.079808 36.0190497,7.75827535 31.036258,4.87612099 L30.3250692,4.46475402 L31.1452222,3.03790027 L31.8564109,3.44926724 C37.3424412,6.62250567 40.7952669,12.4847958 40.7952669,18.9524588 Z" id="Stroke-17" fill="#3366FF" fill-rule="nonzero"></path>
                            <path d="M11.5110707,0.4116634 L12.2222751,0.000323496353 L13.0423742,1.42720846 L12.3311698,1.83854836 C5.77001913,5.63332692 1.64205608,12.6416991 1.64205608,20.3742824 L1.64205608,21.1978118 L0.000164189189,21.1978118 L0.000164189189,20.3742824 C0.000164189189,12.0466694 4.44664733,4.49752028 11.5110707,0.4116634 Z" id="Stroke-19" fill="#3366FF" fill-rule="nonzero"></path>
                            <path d="M45.9261791,20.3742824 L45.9261791,21.1978118 L44.2842872,21.1978118 L44.2842872,20.3742824 C44.2842872,12.6416991 40.1563241,5.63332692 33.5951734,1.83854836 L32.8839691,1.42720846 L33.7040681,0.000323496353 L34.4152725,0.4116634 C41.4796959,4.49752028 45.9261791,12.0466694 45.9261791,20.3742824 Z" id="Stroke-21" fill="#3366FF" fill-rule="nonzero"></path>
                        </g>
                    </g>
                </g>
            </g>
        </g>
    </g>
</svg>