<?xml version="1.0" standalone="no"?>
<!DOCTYPE svg PUBLIC "-//W3C//DTD SVG 1.1//EN" "http://www.w3.org/Graphics/SVG/1.1/DTD/svg11.dtd" >
<!--
2013-9-30: Created.
-->
<svg>
<metadata>
Created by iconfont
</metadata>
<defs>

<font id="feather" horiz-adv-x="1024" >
  <font-face
    font-family="feather"
    font-weight="500"
    font-stretch="normal"
    units-per-em="1024"
    ascent="896"
    descent="-128"
  />
    <missing-glyph />
    
    <glyph glyph-name="x" unicode="x" horiz-adv-x="1001"
d="M281 543q-27 -1 -53 -1h-83q-18 0 -36.5 -6t-32.5 -18.5t-23 -32t-9 -45.5v-76h912v41q0 16 -0.5 30t-0.5 18q0 13 -5 29t-17 29.5t-31.5 22.5t-49.5 9h-133v-97h-438v97zM955 310v-52q0 -23 0.5 -52t0.5 -58t-10.5 -47.5t-26 -30t-33 -16t-31.5 -4.5q-14 -1 -29.5 -0.5
t-29.5 0.5h-32l-45 128h-439l-44 -128h-29h-34q-20 0 -45 1q-25 0 -41 9.5t-25.5 23t-13.5 29.5t-4 30v167h911zM163 247q-12 0 -21 -8.5t-9 -21.5t9 -21.5t21 -8.5q13 0 22 8.5t9 21.5t-9 21.5t-22 8.5zM316 123q-8 -26 -14 -48q-5 -19 -10.5 -37t-7.5 -25t-3 -15t1 -14.5
t9.5 -10.5t21.5 -4h37h67h81h80h64h36q23 0 34 12t2 38q-5 13 -9.5 30.5t-9.5 34.5q-5 19 -11 39h-368zM336 498v228q0 11 2.5 23t10 21.5t20.5 15.5t34 6h188q31 0 51.5 -14.5t20.5 -52.5v-227h-327z" />
    

    
    <glyph glyph-name="alert-octagon" unicode="&#59419;" d="M128 542.976v-317.952L353.024 0h317.952L896 225.024V542.976L670.976 768H353.024L128 542.976zM335.36 853.333333h353.28a42.666667 42.666667 0 0 0 30.165333-12.501333l250.026667-250.026667A42.666667 42.666667 0 0 0 981.333333 560.64v-353.28a42.666667 42.666667 0 0 0-12.501333-30.165333l-250.026667-250.026667a42.666667 42.666667 0 0 0-30.165333-12.501333H335.36a42.666667 42.666667 0 0 0-30.165333 12.501333l-250.026667 250.026667A42.666667 42.666667 0 0 0 42.666667 207.36V560.64a42.666667 42.666667 0 0 0 12.501333 30.165333l250.026667 250.026667A42.666667 42.666667 0 0 0 335.36 853.333333zM512 213.333333m-42.666667 0a42.666667 42.666667 0 1 1 85.333334 0 42.666667 42.666667 0 1 1-85.333334 0ZM469.333333 554.666667v-170.666667a42.666667 42.666667 0 0 1 85.333334 0V554.666667a42.666667 42.666667 0 0 1-85.333334 0z"  horiz-adv-x="1024" />

    
    <glyph glyph-name="alert-circle" unicode="&#59420;" d="M512-85.333333C252.8-85.333333 42.666667 124.8 42.666667 384S252.8 853.333333 512 853.333333s469.333333-210.133333 469.333333-469.333333-210.133333-469.333333-469.333333-469.333333z m0 85.333333a384 384 0 1 1 0 768 384 384 0 0 1 0-768zM469.333333 554.666667v-170.666667a42.666667 42.666667 0 0 1 85.333334 0V554.666667a42.666667 42.666667 0 0 1-85.333334 0zM512 213.333333m-42.666667 0a42.666667 42.666667 0 1 1 85.333334 0 42.666667 42.666667 0 1 1-85.333334 0Z"  horiz-adv-x="1024" />

    
    <glyph glyph-name="activity" unicode="&#59421;" d="M424.490667 781.482667c-12.970667 38.912-68.010667 38.912-80.981334 0L225.28 426.666667H85.333333a42.666667 42.666667 0 0 1 0-85.333334h170.666667a42.666667 42.666667 0 0 1 40.490667 29.184L384 633.088l215.509333-646.570667c12.970667-38.912 68.010667-38.912 80.981334 0L798.72 341.333333H938.666667a42.666667 42.666667 0 0 1 0 85.333334h-170.666667a42.666667 42.666667 0 0 1-40.490667-29.184L640 134.912 424.490667 781.482667z"  horiz-adv-x="1024" />

    
    <glyph glyph-name="alert-triangle" unicode="&#59422;" d="M402.432 753.237333a128.085333 128.085333 0 0 0 219.136 0L983.296 149.333333A128 128 0 0 0 873.386667-42.666667H150.144a128 128 0 0 0-109.098667 192.597334l361.386667 603.306666zM114.602667 106.666667A42.666667 42.666667 0 0 1 150.613333 42.666667h722.304a42.666667 42.666667 0 0 1 36.821334 63.402666L548.48 709.162667a42.666667 42.666667 0 0 1-72.917333 0.085333L114.602667 106.666667zM512 170.666667m-42.666667 0a42.666667 42.666667 0 1 1 85.333334 0 42.666667 42.666667 0 1 1-85.333334 0ZM469.333333 512v-170.666667a42.666667 42.666667 0 0 1 85.333334 0V512a42.666667 42.666667 0 0 1-85.333334 0z"  horiz-adv-x="1024" />

    
    <glyph glyph-name="align-center" unicode="&#59423;" d="M768 512H256a42.666667 42.666667 0 1 1 0-85.333333h512a42.666667 42.666667 0 0 1 0 85.333333zM896 682.666667H128a42.666667 42.666667 0 1 1 0-85.333334h768a42.666667 42.666667 0 0 1 0 85.333334zM896 341.333333H128a42.666667 42.666667 0 0 1 0-85.333333h768a42.666667 42.666667 0 0 1 0 85.333333zM768 170.666667H256a42.666667 42.666667 0 0 1 0-85.333334h512a42.666667 42.666667 0 0 1 0 85.333334z"  horiz-adv-x="1024" />

    
    <glyph glyph-name="airplay" unicode="&#59424;" d="M213.333333 213.333333H170.666667a42.666667 42.666667 0 0 0-42.666667 42.666667V682.666667a42.666667 42.666667 0 0 0 42.666667 42.666666h682.666666a42.666667 42.666667 0 0 0 42.666667-42.666666v-426.666667a42.666667 42.666667 0 0 0-42.666667-42.666667h-42.666666a42.666667 42.666667 0 0 1 0-85.333333h42.666666a128 128 0 0 1 128 128V682.666667a128 128 0 0 1-128 128H170.666667a128 128 0 0 1-128-128v-426.666667a128 128 0 0 1 128-128h42.666666a42.666667 42.666667 0 0 1 0 85.333333zM512 189.354667L389.76 42.666667h244.48L512 189.354667zM725.333333-42.666667H298.666667a42.666667 42.666667 0 0 0-32.768 69.973334l213.333333 256a42.666667 42.666667 0 0 0 65.536 0l213.333333-256A42.666667 42.666667 0 0 0 725.333333-42.666667z"  horiz-adv-x="1024" />

    
    <glyph glyph-name="align-justify" unicode="&#59425;" d="M896 512H128a42.666667 42.666667 0 1 1 0-85.333333h768a42.666667 42.666667 0 0 1 0 85.333333zM896 682.666667H128a42.666667 42.666667 0 1 1 0-85.333334h768a42.666667 42.666667 0 0 1 0 85.333334zM896 341.333333H128a42.666667 42.666667 0 0 1 0-85.333333h768a42.666667 42.666667 0 0 1 0 85.333333zM896 170.666667H128a42.666667 42.666667 0 0 1 0-85.333334h768a42.666667 42.666667 0 0 1 0 85.333334z"  horiz-adv-x="1024" />

    
    <glyph glyph-name="align-left" unicode="&#59426;" d="M725.333333 512H128a42.666667 42.666667 0 1 1 0-85.333333h597.333333a42.666667 42.666667 0 0 1 0 85.333333zM896 682.666667H128a42.666667 42.666667 0 1 1 0-85.333334h768a42.666667 42.666667 0 0 1 0 85.333334zM896 341.333333H128a42.666667 42.666667 0 0 1 0-85.333333h768a42.666667 42.666667 0 0 1 0 85.333333zM725.333333 170.666667H128a42.666667 42.666667 0 0 1 0-85.333334h597.333333a42.666667 42.666667 0 0 1 0 85.333334z"  horiz-adv-x="1024" />

    
    <glyph glyph-name="align-right" unicode="&#59427;" d="M896 512H298.666667a42.666667 42.666667 0 1 1 0-85.333333h597.333333a42.666667 42.666667 0 0 1 0 85.333333zM896 682.666667H128a42.666667 42.666667 0 1 1 0-85.333334h768a42.666667 42.666667 0 0 1 0 85.333334zM896 341.333333H128a42.666667 42.666667 0 0 1 0-85.333333h768a42.666667 42.666667 0 0 1 0 85.333333zM896 170.666667H298.666667a42.666667 42.666667 0 0 1 0-85.333334h597.333333a42.666667 42.666667 0 0 1 0 85.333334z"  horiz-adv-x="1024" />

    
    <glyph glyph-name="arrow-down-left" unicode="&#59428;" d="M737.834667 670.165333l-512-512a42.666667 42.666667 0 0 1 60.330666-60.330666l512 512a42.666667 42.666667 0 1 1-60.330666 60.330666zM298.666667 512a42.666667 42.666667 0 1 1-85.333334 0v-384a42.666667 42.666667 0 0 1 42.666667-42.666667h384a42.666667 42.666667 0 0 1 0 85.333334H298.666667V512z"  horiz-adv-x="1024" />

    
    <glyph glyph-name="arrow-down-right" unicode="&#59429;" d="M225.834667 609.834667l512-512a42.666667 42.666667 0 0 1 60.330666 60.330666l-512 512a42.666667 42.666667 0 0 1-60.330666-60.330666zM384 170.666667a42.666667 42.666667 0 0 1 0-85.333334h384a42.666667 42.666667 0 0 1 42.666667 42.666667V512a42.666667 42.666667 0 0 1-85.333334 0v-341.333333H384z"  horiz-adv-x="1024" />

    
    <glyph glyph-name="anchor" unicode="&#59430;" d="M554.666667 2.346667000000025A384.170667 384.170667 0 0 1 893.653333 341.33333300000004H810.666667a42.666667 42.666667 0 0 0 0 85.333334h128a42.666667 42.666667 0 0 0 42.666666-42.666667c0-259.2-210.133333-469.333333-469.333333-469.333333S42.666667 124.79999999999995 42.666667 384a42.666667 42.666667 0 0 0 42.666666 42.666667h128a42.666667 42.666667 0 0 0 0-85.333334H130.346667A384.170667 384.170667 0 0 1 469.333333 2.346667000000025V554.666667a42.666667 42.666667 0 0 0 85.333334 0v-552.32zM512 512a170.666667 170.666667 0 1 0 0 341.333333 170.666667 170.666667 0 0 0 0-341.333333z m0 85.333333a85.333333 85.333333 0 1 1 0 170.666667 85.333333 85.333333 0 0 1 0-170.666667z"  horiz-adv-x="1024" />

    
    <glyph glyph-name="aperture" unicode="&#59431;" d="M456.533333-82.09066700000005a469.76 469.76 0 0 0-375.893333 280.917334A467.797333 467.797333 0 0 0 42.666667 384c0 102.954667 33.152 198.186667 89.386666 275.584a42.410667 42.410667 0 0 0 4.650667 6.272 468.608 468.608 0 0 0 424.917333 184.874667 469.76 469.76 0 0 0 381.781334-281.6C967.808 512.426667 981.333333 449.792 981.333333 384a467.2 467.2 0 0 0-89.386666-275.584 42.410667 42.410667 0 0 0-4.650667-6.272 468.608 468.608 0 0 0-424.917333-184.874667 42.410667 42.410667 0 0 0-5.802667 0.64z m-14.72 88.490667L536.661333 170.66666699999996H192.682667a384.213333 384.213333 0 0 1 249.130666-164.266667z m95.317334-5.589333a383.146667 383.146667 0 0 1 266.794666 133.717333L709.12 298.66666699999996 647.68 192.42666699999995a42.666667 42.666667 0 0 0-0.426667-0.725334L537.173333 0.8533330000000205z m122.709333 383.146666L585.941333 512h-147.882666l-73.898667-128 73.898667-128h147.882666l73.898667 128z m86.698667 20.522667l109.952-190.336c25.301333 51.2 39.509333 108.885333 39.509333 169.856 0 44.885333-7.68 87.978667-21.845333 128h-189.696l61.056-105.728a42.624 42.624 0 0 0 1.024-1.792zM149.845333 256h189.696l-61.056 105.728a42.624 42.624 0 0 0-1.024 1.792L167.509333 553.856A382.421333 382.421333 0 0 1 128 384c0-44.885333 7.68-87.978667 21.845333-128z m70.229334 377.472L314.88 469.333333 376.32 575.573333a42.666667 42.666667 0 0 0 0.426667 0.725334L486.826667 767.146667a383.146667 383.146667 0 0 1-266.794667-133.717334z m362.112 128.128L487.338667 597.333333H831.317333a384.213333 384.213333 0 0 1-249.130666 164.266667z"  horiz-adv-x="1024" />

    
    <glyph glyph-name="arrow-left" unicode="&#59432;" d="M853.333333 426.666667H170.666667a42.666667 42.666667 0 0 1 0-85.333334h682.666666a42.666667 42.666667 0 0 1 0 85.333334zM456.832 609.834667a42.666667 42.666667 0 1 1-60.330667 60.330666l-256-256a42.666667 42.666667 0 0 1 0-60.330666l256-256a42.666667 42.666667 0 1 1 60.330667 60.330666L230.997333 384l225.834667 225.834667z"  horiz-adv-x="1024" />

    
    <glyph glyph-name="arrow-right" unicode="&#59433;" d="M170.666667 341.333333h682.666666a42.666667 42.666667 0 0 1 0 85.333334H170.666667a42.666667 42.666667 0 0 1 0-85.333334zM567.168 158.165333a42.666667 42.666667 0 0 1 60.330667-60.330666l256 256a42.666667 42.666667 0 0 1 0 60.330666l-256 256a42.666667 42.666667 0 0 1-60.330667-60.330666L793.002667 384l-225.834667-225.834667z"  horiz-adv-x="1024" />

    
    <glyph glyph-name="arrow-down" unicode="&#59434;" d="M469.333333 725.333333v-682.666666a42.666667 42.666667 0 0 1 85.333334 0V725.333333a42.666667 42.666667 0 0 1-85.333334 0zM286.165333 328.832a42.666667 42.666667 0 1 1-60.330666-60.330667l256-256a42.666667 42.666667 0 0 1 60.330666 0l256 256a42.666667 42.666667 0 0 1-60.330666 60.330667L512 102.997333l-225.834667 225.834667z"  horiz-adv-x="1024" />

    
    <glyph glyph-name="arrow-up-left" unicode="&#59435;" d="M798.165333 158.165333l-512 512a42.666667 42.666667 0 0 1-60.330666-60.330666l512-512a42.666667 42.666667 0 0 1 60.330666 60.330666zM640 597.333333a42.666667 42.666667 0 0 1 0 85.333334H256a42.666667 42.666667 0 0 1-42.666667-42.666667v-384a42.666667 42.666667 0 0 1 85.333334 0V597.333333h341.333333z"  horiz-adv-x="1024" />

    
    <glyph glyph-name="arrow-up-right" unicode="&#59436;" d="M286.165333 97.83466699999997l512 512a42.666667 42.666667 0 1 1-60.330666 60.330666l-512-512a42.666667 42.666667 0 0 1 60.330666-60.330666zM725.333333 256a42.666667 42.666667 0 0 1 85.333334 0V640a42.666667 42.666667 0 0 1-42.666667 42.666667H384a42.666667 42.666667 0 1 1 0-85.333334h341.333333v-341.333333z"  horiz-adv-x="1024" />

    
    <glyph glyph-name="arrow-up" unicode="&#59437;" d="M554.666667 42.666667V725.333333a42.666667 42.666667 0 0 1-85.333334 0v-682.666666a42.666667 42.666667 0 0 1 85.333334 0zM737.834667 439.168a42.666667 42.666667 0 0 1 60.330666 60.330667l-256 256a42.666667 42.666667 0 0 1-60.330666 0l-256-256a42.666667 42.666667 0 0 1 60.330666-60.330667L512 665.002667l225.834667-225.834667z"  horiz-adv-x="1024" />

    
    <glyph glyph-name="award" unicode="&#59438;" d="M304.646221 283.538374a341.323094 341.323094 0 1 0 414.792889 0l48.211887-363.210437a42.665387 42.665387 0 0 0-64.254072-42.238733L512-7.0129100000000335l-191.396925-114.812555a42.665387 42.665387 0 0 0-64.211407 42.196067l48.211887 363.210437z m79.9976-45.651964l-31.99904-241.059435 137.382545 82.429527a42.665387 42.665387 0 0 0 43.945348 0l137.382545-82.429527-31.956374 241.059435A340.384455 340.384455 0 0 0 512 213.35381299999995a340.384455 340.384455 0 0 0-127.356179 24.532597zM512 298.68458599999997a255.99232 255.99232 0 1 1 0 511.984641 255.99232 255.99232 0 0 1 0-511.984641z"  horiz-adv-x="1024" />

    
    <glyph glyph-name="bar-chart" unicode="&#59439;" d="M810.666667 725.333333v-682.666666h85.333333V725.333333h-85.333333z m-42.666667 85.333334h170.666667a42.666667 42.666667 0 0 0 42.666666-42.666667v-768a42.666667 42.666667 0 0 0-42.666666-42.666667h-170.666667a42.666667 42.666667 0 0 0-42.666667 42.666667V768a42.666667 42.666667 0 0 0 42.666667 42.666667zM469.333333 512v-469.333333h85.333334V512h-85.333334z m-42.666666 85.333333h170.666666a42.666667 42.666667 0 0 0 42.666667-42.666666v-554.666667a42.666667 42.666667 0 0 0-42.666667-42.666667h-170.666666a42.666667 42.666667 0 0 0-42.666667 42.666667V554.666667a42.666667 42.666667 0 0 0 42.666667 42.666666zM128 42.666667h85.333333v256H128v-256z m-42.666667 341.333333h170.666667a42.666667 42.666667 0 0 0 42.666667-42.666667v-341.333333a42.666667 42.666667 0 0 0-42.666667-42.666667H85.333333a42.666667 42.666667 0 0 0-42.666666 42.666667v341.333333a42.666667 42.666667 0 0 0 42.666666 42.666667z"  horiz-adv-x="1024" />

    
    <glyph glyph-name="at-sign" unicode="&#59440;" d="M725.333333 384v-42.666667a85.333333 85.333333 0 1 1 170.666667 0v42.666667a384 384 0 1 1-150.528-304.896 42.666667 42.666667 0 1 0 51.882667-67.754667A469.333333 469.333333 0 1 0 981.333333 384v-42.666667a170.666667 170.666667 0 0 0-309.76-98.901333A213.333333 213.333333 0 1 0 725.333333 384z m-213.333333-128a128 128 0 1 1 0 256 128 128 0 0 1 0-256z"  horiz-adv-x="1024" />

    
    <glyph glyph-name="bar-chart-" unicode="&#59441;" d="M469.333333 725.333333v-682.666666h85.333334V725.333333h-85.333334z m-42.666666 85.333334h170.666666a42.666667 42.666667 0 0 0 42.666667-42.666667v-768a42.666667 42.666667 0 0 0-42.666667-42.666667h-170.666666a42.666667 42.666667 0 0 0-42.666667 42.666667V768a42.666667 42.666667 0 0 0 42.666667 42.666667zM810.666667 512v-469.333333h85.333333V512h-85.333333z m-42.666667 85.333333h170.666667a42.666667 42.666667 0 0 0 42.666666-42.666666v-554.666667a42.666667 42.666667 0 0 0-42.666666-42.666667h-170.666667a42.666667 42.666667 0 0 0-42.666667 42.666667V554.666667a42.666667 42.666667 0 0 0 42.666667 42.666666zM128 42.666667h85.333333v256H128v-256z m-42.666667 341.333333h170.666667a42.666667 42.666667 0 0 0 42.666667-42.666667v-341.333333a42.666667 42.666667 0 0 0-42.666667-42.666667H85.333333a42.666667 42.666667 0 0 0-42.666666 42.666667v341.333333a42.666667 42.666667 0 0 0 42.666666 42.666667z"  horiz-adv-x="1024" />

    
    <glyph glyph-name="battery-charging" unicode="&#59442;" d="M213.333333 170.666667H128a42.666667 42.666667 0 0 0-42.666667 42.666666V554.666667a42.666667 42.666667 0 0 0 42.666667 42.666666h136.106667a42.666667 42.666667 0 1 1 0 85.333334H128a128 128 0 0 1-128-128v-341.333334a128 128 0 0 1 128-128h85.333333a42.666667 42.666667 0 0 1 0 85.333334zM640 597.333333h85.333333a42.666667 42.666667 0 0 0 42.666667-42.666666v-341.333334a42.666667 42.666667 0 0 0-42.666667-42.666666h-136.106666a42.666667 42.666667 0 0 1 0-85.333334H725.333333a128 128 0 0 1 128 128V554.666667a128 128 0 0 1-128 128h-85.333333a42.666667 42.666667 0 0 1 0-85.333334zM1024 341.333333v85.333334a42.666667 42.666667 0 0 1-85.333333 0v-85.333334a42.666667 42.666667 0 0 1 85.333333 0zM348.501333 151.68a42.666667 42.666667 0 0 1 70.997334-47.36l170.666666 256A42.666667 42.666667 0 0 1 554.666667 426.666667H378.410667l126.421333 189.653333a42.666667 42.666667 0 1 1-70.997333 47.36l-170.666667-256A42.666667 42.666667 0 0 1 298.666667 341.333333h176.256l-126.421334-189.653333z"  horiz-adv-x="1024" />

    
    <glyph glyph-name="bell-off" unicode="&#59443;" d="M386.503252 734.704171A255.868761 255.868761 0 0 0 768.131509 511.671902v-170.579174a42.644793 42.644793 0 0 1 85.289586 0V511.671902A341.158348 341.158348 0 0 1 344.626065 808.906112a42.644793 42.644793 0 1 1 41.877187-74.201941zM256.393987 298.447934V511.671902a255.911405 255.911405 0 0 0 28.529367 117.742274A42.644793 42.644793 0 1 1 209.058267 668.604741 341.158348 341.158348 0 0 1 171.1044 511.629257V298.447934a85.289587 85.289587 0 0 0-85.289586-85.289586c-56.84551 0-56.84551-85.289587 0-85.289587h639.671901a42.644793 42.644793 0 0 1 0 85.289587H233.579023c14.49923 25.075139 22.814964 54.201532 22.814964 85.289586z m292.756507-277.105867a42.644793 42.644793 0 0 0-73.775492 0 42.644793 42.644793 0 0 1-73.775493-42.815373 127.93438 127.93438 0 0 1 221.326478 0 42.644793 42.644793 0 0 1-73.775493 42.815373zM13.020151 822.68038l938.185456-938.185456a42.644793 42.644793 0 0 1 60.299738 60.299738l-938.185456 938.185456A42.644793 42.644793 0 1 1 13.020151 822.68038z"  horiz-adv-x="1024" />

    
    <glyph glyph-name="battery" unicode="&#59444;" d="M85.334187 554.282667v-340.565334c0-23.765333 19.114667-43.050667 42.453333-43.050666h597.76c23.381333 0 42.453333 19.2 42.453333 43.050666V554.24C768.000853 578.048 748.886187 597.333333 725.54752 597.333333H127.78752C104.406187 597.333333 85.334187 578.133333 85.334187 554.282667z m-85.333334 0A128.042667 128.042667 0 0 0 127.78752 682.666667h597.76A128.170667 128.170667 0 0 0 853.334187 554.282667v-340.565334A128.042667 128.042667 0 0 0 725.54752 85.333333H127.78752A128.170667 128.170667 0 0 0 0.000853 213.717333V554.24zM1024.000853 341.333333v85.333334a42.666667 42.666667 0 0 1-85.333333 0v-85.333334a42.666667 42.666667 0 0 1 85.333333 0z"  horiz-adv-x="1024" />

    
    <glyph glyph-name="bluetooth" unicode="&#59445;" d="M554.660072 17.7251l131.648983 131.648983L554.660072 281.023065v-263.297965zM686.309055 618.634876L554.660072 750.283859v-263.297966L686.309055 618.634876z m-439.100123-30.160671a42.660072 42.660072 0 0 0 60.321342 60.321342l469.260794-469.260793a42.660072 42.660072 0 0 0 0-60.321342l-234.630397-234.630397c-26.875845-26.875845-72.820743-7.849453-72.820743 30.160671V853.265273c0 37.967464 45.944898 57.036516 72.820743 30.160671l234.630397-234.630397a42.660072 42.660072 0 0 0 0-60.321342l-469.260794-469.260793a42.660072 42.660072 0 1 0-60.321342 60.321342L554.660072 486.985893v-205.962828L247.208932 588.474205z"  horiz-adv-x="1024" />

    
    <glyph glyph-name="bell" unicode="&#59446;" d="M768 298.66666699999996V512A256 256 0 0 1 256 512v-213.333333c0-31.104-8.32-60.245333-22.826667-85.333334h557.653334A169.898667 169.898667 0 0 0 768 298.66666699999996z m170.666667-170.666667H85.333333c-56.874667 0-56.874667 85.333333 0 85.333333a85.333333 85.333333 0 0 1 85.333334 85.333334V512a341.333333 341.333333 0 0 0 682.666666 0v-213.333333a85.333333 85.333333 0 0 1 85.333334-85.333334c56.874667 0 56.874667-85.333333 0-85.333333zM548.906667 21.418667000000028a42.666667 42.666667 0 0 0-73.813334 0 42.666667 42.666667 0 0 1-73.813333-42.837334 128 128 0 0 1 221.44 0 42.666667 42.666667 0 0 1-73.813333 42.837334z"  horiz-adv-x="1024" />

    
    <glyph glyph-name="book" unicode="&#59447;" d="M853.333333 853.333333a42.666667 42.666667 0 0 0 42.666667-42.666666v-853.333334a42.666667 42.666667 0 0 0-42.666667-42.666666H277.333333A149.333333 149.333333 0 0 0 128 64v640A149.333333 149.333333 0 0 0 277.333333 853.333333H853.333333z m-42.666666-640V768H277.333333A64 64 0 0 1 213.333333 704v-505.045333A148.736 148.736 0 0 0 277.333333 213.33333300000004H810.666667z m0-85.333333H277.333333a64 64 0 0 1 0-128H810.666667v128z"  horiz-adv-x="1024" />

    
    <glyph glyph-name="briefcase" unicode="&#59448;" d="M298.666667 640V682.666667a128 128 0 0 0 128 128h170.666666a128 128 0 0 0 128-128v-42.666667h128.426667A127.914667 127.914667 0 0 0 981.333333 511.744v-426.154667A128.128 128.128 0 0 0 853.76-42.66666699999996H170.24A127.914667 127.914667 0 0 0 42.666667 85.58933300000001V511.744A128.128 128.128 0 0 0 170.24 640H298.666667z m0-85.333333H170.24C147.2 554.666667 128 535.381333 128 511.744v-426.154667A42.581333 42.581333 0 0 1 170.24 42.66666699999996H298.666667V554.666667z m85.333333 0v-512h256V554.666667H384z m341.333333 0v-512h128.426667c23.04 0 42.24 19.285333 42.24 42.922666V511.744A42.581333 42.581333 0 0 1 853.76 554.666667H725.333333zM384 640h256V682.666667a42.666667 42.666667 0 0 1-42.666667 42.666666h-170.666666a42.666667 42.666667 0 0 1-42.666667-42.666666v-42.666667z"  horiz-adv-x="1024" />

    
    <glyph glyph-name="camera-off" unicode="&#59449;" d="M682.884567 273.415441l328.620778-328.620779a42.644793 42.644793 0 0 0-60.299738-60.299738L878.410944-42.71041300000002H128.459607a127.93438 127.93438 0 0 0-127.93438 127.93438V554.316695a127.93438 127.93438 0 0 0 127.93438 127.93438h24.989849L13.020151 822.68038A42.644793 42.644793 0 1 0 73.319889 882.980118l371.265572-371.265572 1.151409-1.108764 236.038932-236.038932 1.108765-1.151409z m-28.870526-91.686306a213.223967 213.223967 0 0 0-301.157531 301.072241L238.739043 596.961489H128.459607a42.644793 42.644793 0 0 1-42.644793-42.644794v-469.092728a42.644793 42.644793 0 0 1 42.644793-42.644793h664.661751l-139.107317 139.107316z m-60.470317 60.427672L413.326827 422.373704a127.93438 127.93438 0 0 1 180.216897-180.216897z m96.462523 373.781615A42.644793 42.644793 0 0 1 725.486715 596.961489h170.579174a42.644793 42.644793 0 0 0 42.644793-42.644794v-398.302371a42.644793 42.644793 0 0 1 85.289587 0V554.316695a127.93438 127.93438 0 0 1-127.93438 127.93438h-147.764209l-72.624084 108.957448A42.644793 42.644793 0 0 1 640.197128 810.185456H384.328368a42.644793 42.644793 0 1 1 0-85.289587h233.053796l72.624083-108.957447z"  horiz-adv-x="1024" />

    
    <glyph glyph-name="calendar" unicode="&#59450;" d="M384 768h256V810.666667a42.666667 42.666667 0 0 0 85.333333 0v-42.666667h85.546667A127.786667 127.786667 0 0 0 938.666667 640.213333v-597.76A127.786667 127.786667 0 0 0 810.88-85.33333300000004H213.12A127.786667 127.786667 0 0 0 85.333333 42.45333300000004V640.213333A127.786667 127.786667 0 0 0 213.12 768H298.666667V810.666667a42.666667 42.666667 0 1 0 85.333333 0v-42.666667z m469.333333-341.333333H170.666667v-384.213334c0-23.466667 18.986667-42.453333 42.453333-42.453333h597.76c23.466667 0 42.453333 18.986667 42.453333 42.453333V426.666667zM384 682.666667v-42.666667a42.666667 42.666667 0 1 0-85.333333 0V682.666667H213.12A42.453333 42.453333 0 0 1 170.666667 640.213333V512h682.666666V640.213333A42.453333 42.453333 0 0 1 810.88 682.666667H725.333333v-42.666667a42.666667 42.666667 0 0 0-85.333333 0V682.666667H384z"  horiz-adv-x="1024" />

    
    <glyph glyph-name="bookmark" unicode="&#59451;" d="M768 82.901333V682.666667a42.666667 42.666667 0 0 1-42.666667 42.666666H298.666667a42.666667 42.666667 0 0 1-42.666667-42.666666v-599.765334l231.210667 165.12a42.666667 42.666667 0 0 0 49.578666 0L768 82.944zM238.122667-34.730667A42.666667 42.666667 0 0 0 170.666667 0V682.666667a128 128 0 0 0 128 128h426.666666a128 128 0 0 0 128-128v-682.666667a42.666667 42.666667 0 0 0-67.456-34.730667L512 160.896l-273.877333-195.626667z"  horiz-adv-x="1024" />

    
    <glyph glyph-name="box" unicode="&#59452;" d="M568.96 872.362667l341.333333-170.666667A128 128 0 0 0 981.333333 587.093333v-406.613333a128 128 0 0 0-70.954666-114.517333l-341.333334-170.666667a128 128 0 0 0-114.517333 0L113.066667 66.00533299999995A127.872 127.872 0 0 0 42.666667 180.90666699999997V587.093333a128 128 0 0 0 70.954666 114.517334L455.04 872.362667a128 128 0 0 0 113.92 0zM512 474.368l331.050667 165.546667-312.106667 156.032a42.624 42.624 0 0 1-37.845333 0L180.949333 639.9573330000001 512 474.368z m384 96.597333l-341.333333-170.666666v-416.810667l317.653333 158.848A42.666667 42.666667 0 0 1 896 180.48000000000002V570.965333zM469.333333-16.725332999999978v417.024l-341.333333 170.666666v-390.357333c-0.128-16.213333 8.96-31.104 23.338667-38.357333L469.333333-16.725332999999978z"  horiz-adv-x="1024" />

    
    <glyph glyph-name="camera" unicode="&#59453;" d="M334.165333 616.32A42.666667 42.666667 0 0 0 298.666667 597.333333H128a42.666667 42.666667 0 0 1-42.666667-42.666666v-469.333334a42.666667 42.666667 0 0 1 42.666667-42.666666h768a42.666667 42.666667 0 0 1 42.666667 42.666666V554.666667a42.666667 42.666667 0 0 1-42.666667 42.666666h-170.666667a42.666667 42.666667 0 0 0-35.498666 18.986667L617.173333 725.333333h-210.346666L334.165333 616.32zM896 682.666667a128 128 0 0 0 128-128v-469.333334a128 128 0 0 0-128-128H128a128 128 0 0 0-128 128V554.666667a128 128 0 0 0 128 128h147.84l72.661333 109.013333A42.666667 42.666667 0 0 0 384 810.666667h256a42.666667 42.666667 0 0 0 35.498667-18.986667L748.16 682.666667H896zM512 128a213.333333 213.333333 0 1 0 0 426.666667 213.333333 213.333333 0 0 0 0-426.666667z m0 85.333333a128 128 0 1 1 0 256 128 128 0 0 1 0-256z"  horiz-adv-x="1024" />

    
    <glyph glyph-name="check-circle" unicode="&#59454;" d="M896 423.68V384a384 384 0 1 0-227.712 351.018667 42.666667 42.666667 0 1 1 34.730667 77.909333A469.333333 469.333333 0 1 1 981.333333 384v39.722667a42.666667 42.666667 0 0 1-85.333333 0zM414.165333 456.832a42.666667 42.666667 0 0 1-60.330666-60.330667l128-128a42.666667 42.666667 0 0 1 60.330666 0l469.333334 469.333334a42.666667 42.666667 0 1 1-60.330667 60.330666L512 358.997333l-97.834667 97.834667z"  horiz-adv-x="1024" />

    
    <glyph glyph-name="check" unicode="&#59455;" d="M200.832 371.498667a42.666667 42.666667 0 1 1-60.330667-60.330667l213.333334-213.333333a42.666667 42.666667 0 0 1 60.330666 0l469.333334 469.333333a42.666667 42.666667 0 1 1-60.330667 60.330667L384 188.330667l-183.168 183.168z"  horiz-adv-x="1024" />

    
    <glyph glyph-name="check-square" unicode="&#59456;" d="M371.498667 456.832a42.666667 42.666667 0 0 1-60.330667-60.330667l128-128a42.666667 42.666667 0 0 1 60.330667 0l469.333333 469.333334a42.666667 42.666667 0 1 1-60.330667 60.330666L469.333333 358.997333l-97.834666 97.834667zM810.666667 384v-298.666667a42.666667 42.666667 0 0 0-42.666667-42.666666H170.666667a42.666667 42.666667 0 0 0-42.666667 42.666666V682.666667a42.666667 42.666667 0 0 0 42.666667 42.666666h469.333333a42.666667 42.666667 0 0 1 0 85.333334H170.666667a128 128 0 0 1-128-128v-597.333334a128 128 0 0 1 128-128h597.333333a128 128 0 0 1 128 128v298.666667a42.666667 42.666667 0 0 1-85.333333 0z"  horiz-adv-x="1024" />

    
    <glyph glyph-name="cast" unicode="&#59457;" d="M76.8 167.253333a170.666667 170.666667 0 0 0 133.12-133.12 42.666667 42.666667 0 0 1 83.626667 17.066667 256 256 0 0 1-199.68 199.68 42.666667 42.666667 0 0 1-17.066667-83.626667z m3.84 172.202667a341.333333 341.333333 0 0 0 301.482667-301.525333 42.666667 42.666667 0 1 1 84.821333 9.472 426.666667 426.666667 0 0 1-376.874667 376.874666 42.666667 42.666667 0 1 1-9.472-84.821333zM128 554.666667V640a42.666667 42.666667 0 0 0 42.666667 42.666667h682.666666a42.666667 42.666667 0 0 0 42.666667-42.666667v-512a42.666667 42.666667 0 0 0-42.666667-42.666667h-256a42.666667 42.666667 0 0 1 0-85.333333h256a128 128 0 0 1 128 128V640a128 128 0 0 1-128 128H170.666667a128 128 0 0 1-128-128v-85.333333a42.666667 42.666667 0 1 1 85.333333 0zM85.333333 42.666667m-42.666666 0a42.666667 42.666667 0 1 1 85.333333 0 42.666667 42.666667 0 1 1-85.333333 0Z"  horiz-adv-x="1024" />

    
    <glyph glyph-name="chevron-down" unicode="&#59458;" d="M286.165333 542.165333a42.666667 42.666667 0 0 1-60.330666-60.330666l256-256a42.666667 42.666667 0 0 1 60.330666 0l256 256a42.666667 42.666667 0 1 1-60.330666 60.330666L512 316.330667 286.165333 542.165333z"  horiz-adv-x="1024" />

    
    <glyph glyph-name="chevron-left" unicode="&#59459;" d="M670.165333 609.834667a42.666667 42.666667 0 1 1-60.330666 60.330666l-256-256a42.666667 42.666667 0 0 1 0-60.330666l256-256a42.666667 42.666667 0 0 1 60.330666 60.330666L444.330667 384l225.834666 225.834667z"  horiz-adv-x="1024" />

    
    <glyph glyph-name="chevron-right" unicode="&#59460;" d="M353.834667 158.165333a42.666667 42.666667 0 0 1 60.330666-60.330666l256 256a42.666667 42.666667 0 0 1 0 60.330666l-256 256a42.666667 42.666667 0 0 1-60.330666-60.330666L579.669333 384l-225.834666-225.834667z"  horiz-adv-x="1024" />

    
    <glyph glyph-name="chevron-up" unicode="&#59461;" d="M737.834667 225.834667a42.666667 42.666667 0 0 1 60.330666 60.330666l-256 256a42.666667 42.666667 0 0 1-60.330666 0l-256-256a42.666667 42.666667 0 0 1 60.330666-60.330666L512 451.669333l225.834667-225.834666z"  horiz-adv-x="1024" />

    
    <glyph glyph-name="chevrons-down" unicode="&#59462;" d="M328.832 371.498667a42.666667 42.666667 0 1 1-60.330667-60.330667l213.333334-213.333333a42.666667 42.666667 0 0 1 60.330666 0l213.333334 213.333333a42.666667 42.666667 0 0 1-60.330667 60.330667L512 188.330667l-183.168 183.168zM328.832 670.165333a42.666667 42.666667 0 0 1-60.330667-60.330666l213.333334-213.333334a42.666667 42.666667 0 0 1 60.330666 0l213.333334 213.333334a42.666667 42.666667 0 1 1-60.330667 60.330666L512 486.997333 328.832 670.165333z"  horiz-adv-x="1024" />

    
    <glyph glyph-name="chevrons-right" unicode="&#59463;" d="M524.501333 200.832a42.666667 42.666667 0 0 1 60.330667-60.330667l213.333333 213.333334a42.666667 42.666667 0 0 1 0 60.330666l-213.333333 213.333334a42.666667 42.666667 0 0 1-60.330667-60.330667L707.669333 384l-183.168-183.168zM225.834667 200.832a42.666667 42.666667 0 0 1 60.330666-60.330667l213.333334 213.333334a42.666667 42.666667 0 0 1 0 60.330666l-213.333334 213.333334a42.666667 42.666667 0 0 1-60.330666-60.330667L409.002667 384l-183.168-183.168z"  horiz-adv-x="1024" />

    
    <glyph glyph-name="chevrons-up" unicode="&#59464;" d="M695.168 396.501333a42.666667 42.666667 0 0 1 60.330667 60.330667l-213.333334 213.333333a42.666667 42.666667 0 0 1-60.330666 0l-213.333334-213.333333a42.666667 42.666667 0 0 1 60.330667-60.330667L512 579.669333l183.168-183.168zM512 281.002667l183.168-183.168a42.666667 42.666667 0 0 1 60.330667 60.330666l-213.333334 213.333334a42.666667 42.666667 0 0 1-60.330666 0l-213.333334-213.333334a42.666667 42.666667 0 0 1 60.330667-60.330666L512 281.002667z"  horiz-adv-x="1024" />

    
    <glyph glyph-name="chevrons-left" unicode="&#59465;" d="M499.498667 567.168a42.666667 42.666667 0 1 1-60.330667 60.330667l-213.333333-213.333334a42.666667 42.666667 0 0 1 0-60.330666l213.333333-213.333334a42.666667 42.666667 0 0 1 60.330667 60.330667L316.330667 384l183.168 183.168zM798.165333 567.168a42.666667 42.666667 0 1 1-60.330666 60.330667l-213.333334-213.333334a42.666667 42.666667 0 0 1 0-60.330666l213.333334-213.333334a42.666667 42.666667 0 0 1 60.330666 60.330667L614.997333 384l183.168 183.168z"  horiz-adv-x="1024" />

    
    <glyph glyph-name="circle" unicode="&#59466;" d="M512-85.333333C252.8-85.333333 42.666667 124.8 42.666667 384S252.8 853.333333 512 853.333333s469.333333-210.133333 469.333333-469.333333-210.133333-469.333333-469.333333-469.333333z m0 85.333333a384 384 0 1 1 0 768 384 384 0 0 1 0-768z"  horiz-adv-x="1024" />

    
    <glyph glyph-name="clipboard" unicode="&#59467;" d="M298.666667 768c0.213333 46.976 38.4 85.333333 85.205333 85.333333h256.256c47.104 0 84.992-37.973333 85.205333-85.333333h42.666667a128 128 0 0 0 128-128v-597.333333a128 128 0 0 0-128-128H256a128 128 0 0 0-128 128V640a128 128 0 0 0 128 128h42.666667z m0-85.333333H256a42.666667 42.666667 0 0 1-42.666667-42.666667v-597.333333a42.666667 42.666667 0 0 1 42.666667-42.666667h512a42.666667 42.666667 0 0 1 42.666667 42.666667V640a42.666667 42.666667 0 0 1-42.666667 42.666667h-42.666667c-0.213333-46.976-38.4-85.333333-85.205333-85.333334H383.872A85.248 85.248 0 0 0 298.666667 682.666667z m85.205333 85.333333c0.341333 0 0.128-0.213333 0.128-0.426667v-84.48C384 682.752 384 682.666667 383.914667 682.666667h256.213333C639.786667 682.666667 640 682.88 640 683.093333V767.573333c0 0.298667 0 0.426667 0.085333 0.426667H383.872z"  horiz-adv-x="1024" />

    
    <glyph glyph-name="chrome" unicode="&#59468;" d="M462.378667-82.77333299999998a42.410667 42.410667 0 0 0-5.802667 0.682666C223.488-54.65599999999995 42.666667 143.530667 42.666667 384c0 102.954667 33.152 198.186667 89.386666 275.584a42.410667 42.410667 0 0 0 4.650667 6.272A468.608 468.608 0 0 0 512 853.333333a469.418667 469.418667 0 0 0 431.36-284.16c24.448-56.832 37.973333-119.424 37.973333-185.173333 0-259.2-210.133333-469.333333-469.333333-469.333333-16.768 0-33.28 0.853333-49.621333 2.56z m-20.608 89.173333l95.616 165.76a213.333333 213.333333 0 0 0-214.528 113.066667l-155.306667 268.672A382.421333 382.421333 0 0 1 128 384c0-188.074667 135.253333-344.618667 313.770667-377.6z m95.317333-5.589333A384 384 0 0 1 874.154667 512H682.666667c26.794667-35.669333 42.666667-79.957333 42.666666-128 0-41.941333-12.117333-81.066667-33.024-114.090667l-155.221333-269.098666z m82.389333 313.642666l3.2 5.546667c0.554667 0.981333 1.152 1.962667 1.792 2.858667a128 128 0 1 1-226.56 2.986666l3.413334-5.845333c0.554667-0.938667 1.066667-1.92 1.536-2.901333a127.914667 127.914667 0 0 1 216.618666-2.645334zM220.16 633.5146669999999l95.701333-165.589334A213.376 213.376 0 0 0 512 597.333333h319.317333A383.616 383.616 0 0 1 512 768a383.146667 383.146667 0 0 1-291.925333-134.485333z"  horiz-adv-x="1024" />

    
    <glyph glyph-name="clock" unicode="&#59469;" d="M512-85.333333C252.8-85.333333 42.666667 124.8 42.666667 384S252.8 853.333333 512 853.333333s469.333333-210.133333 469.333333-469.333333-210.133333-469.333333-469.333333-469.333333z m0 85.333333a384 384 0 1 1 0 768 384 384 0 0 1 0-768zM554.666667 640a42.666667 42.666667 0 0 1-85.333334 0v-256a42.666667 42.666667 0 0 1 12.501334-30.165333l128-128a42.666667 42.666667 0 0 1 60.330666 60.330666L554.666667 401.664V640z"  horiz-adv-x="1024" />

    
    <glyph glyph-name="cloud-lightning" unicode="&#59470;" d="M384.070136 896a383.99632 383.99632 0 0 1-185.939552-719.9931 42.666258 42.666258 0 0 1 41.300938 74.665951A298.663804 298.663804 0 1 0 673.262031 586.669631a42.666258 42.666258 0 0 1 41.300938-31.999693H768.322453a170.665031 170.665031 0 0 0 34.175673-337.916762 42.666258 42.666258 0 0 1 16.98117-83.625865A255.997547 255.997547 0 0 1 768.279787 640.002453h-22.186454a383.99632 383.99632 0 0 1-362.023197 255.997547zM434.160322-61.644156a42.666258 42.666258 0 0 1 70.996653-47.359546l170.665032 255.997547A42.666258 42.666258 0 0 1 640.32368 213.339875h-176.254311l126.420122 189.651516a42.666258 42.666258 0 1 1-70.996653 47.359546l-170.665031-255.997546A42.666258 42.666258 0 0 1 384.326133 128.00736h176.254311l-126.420122-189.651516z"  horiz-adv-x="1024" />

    
    <glyph glyph-name="cloud-drizzle" unicode="&#59471;" d="M298.831787 85.333333v-85.333333a42.666667 42.666667 0 0 1 85.333333 0v85.333333a42.666667 42.666667 0 0 1-85.333333 0zM298.831787 341.333333v-85.333333a42.666667 42.666667 0 0 1 85.333333 0v85.333333a42.666667 42.666667 0 0 1-85.333333 0zM640.16512 85.333333v-85.333333a42.666667 42.666667 0 0 1 85.333333 0v85.333333a42.666667 42.666667 0 0 1-85.333333 0zM640.16512 341.333333v-85.333333a42.666667 42.666667 0 0 1 85.333333 0v85.333333a42.666667 42.666667 0 0 1-85.333333 0zM469.498453 0v-85.333333a42.666667 42.666667 0 0 1 85.333334 0v85.333333a42.666667 42.666667 0 0 1-85.333334 0zM469.498453 256v-85.333333a42.666667 42.666667 0 0 1 85.333334 0v85.333333a42.666667 42.666667 0 0 1-85.333334 0zM405.498453 895.36A384 384 0 0 1 144.207787 212.053333a42.666667 42.666667 0 0 1 53.248 66.645334A298.666667 298.666667 0 1 0 673.103787 586.666667a42.666667 42.666667 0 0 1 41.301333-32H768.16512a170.666667 170.666667 0 0 0 68.224-326.997334 42.666667 42.666667 0 0 1 34.218667-78.165333A256 256 0 0 1 768.207787 640h-22.229334A384 384 0 0 1 405.498453 895.36z"  horiz-adv-x="1024" />

    
    <glyph glyph-name="cloud-rain" unicode="&#59472;" d="M640.16512 341.333333v-341.333333a42.666667 42.666667 0 0 1 85.333333 0v341.333333a42.666667 42.666667 0 0 1-85.333333 0zM298.831787 341.333333v-341.333333a42.666667 42.666667 0 0 1 85.333333 0v341.333333a42.666667 42.666667 0 0 1-85.333333 0zM469.498453 256v-341.333333a42.666667 42.666667 0 0 1 85.333334 0v341.333333a42.666667 42.666667 0 0 1-85.333334 0zM405.498453 895.36A384 384 0 0 1 144.207787 212.053333a42.666667 42.666667 0 0 1 53.248 66.645334A298.666667 298.666667 0 1 0 673.103787 586.666667a42.666667 42.666667 0 0 1 41.301333-32H768.16512a170.666667 170.666667 0 0 0 68.224-326.997334 42.666667 42.666667 0 0 1 34.218667-78.165333A256 256 0 0 1 768.207787 640h-22.229334A384 384 0 0 1 405.498453 895.36z"  horiz-adv-x="1024" />

    
    <glyph glyph-name="cloud-off" unicode="&#59473;" d="M420.661732 767.370083a42.474214 42.474214 0 0 1-45.971088-38.721472 42.559504 42.559504 0 0 1 38.508249-46.226956 297.3195 297.3195 0 0 0 261.583163-223.885166 42.431569 42.431569 0 0 1 41.109581-32.154174h53.433926a169.38512 169.38512 0 0 0 141.580714-76.248891 171.389425 171.389425 0 0 0 14.840388-160.813516 42.730083 42.730083 0 0 1 22.516451-55.864679 42.303635 42.303635 0 0 1 55.608811 22.60174 257.062815 257.062815 0 0 1-22.260582 241.198952A254.077679 254.077679 0 0 1 769.240273 511.671902h-21.876779a382.054704 382.054704 0 0 1-326.701762 255.698181zM197.544172 719.607914c-153.308032-85.289587-229.215765-264.568299-184.097573-434.763669 45.160836-170.238015 199.748212-287.681777 374.890379-284.86722h380.988585c29.552842 0 58.849815 5.24531 86.568931 15.352126 22.004713 8.059866 33.348228 32.495333 25.373652 54.62798a42.34628 42.34628 0 0 1-54.329467 25.544231c-18.50784-6.737877-37.996511-10.23475-57.655761-10.23475H387.654662a297.276855 297.276855 0 0 0-292.24477 221.539702 299.153226 299.153226 0 0 0 143.158572 338.130567c20.469501 11.38616 27.93234 37.356839 16.631469 57.954274a42.26099 42.26099 0 0 1-57.655761 16.674115zM13.020151 822.68038l938.185456-938.185456a42.644793 42.644793 0 0 1 60.299738 60.299738l-938.185456 938.185456A42.644793 42.644793 0 1 1 13.020151 822.68038z"  horiz-adv-x="1024" />

    
    <glyph glyph-name="codepen" unicode="&#59474;" d="M535.253333 846.421333l426.666667-277.333333A42.666667 42.666667 0 0 0 981.333333 533.333333v-298.666666a42.666667 42.666667 0 0 0-19.413333-35.754667l-426.666667-277.333333a42.666667 42.666667 0 0 0-46.506666 0l-426.666667 277.333333A42.666667 42.666667 0 0 0 42.666667 234.66666699999996v298.666666a42.666667 42.666667 0 0 0 19.413333 35.754667l426.666667 277.333333a42.666667 42.666667 0 0 0 46.506666 0zM469.333333 732.074667L161.621333 531.9680000000001 298.666667 436.096l170.666666 119.466667V732.032z m85.333334 0V555.52l170.666666-119.466667 137.045334 95.914667L554.666667 732.032zM512 286.72L650.922667 384 512 481.28 373.077333 384 512 286.72z m384 29.866667v134.741333L799.744 384 896 316.58666700000003z m-33.621333-80.64L725.333333 331.904l-170.666666-119.466667v-176.469333l307.712 200.021333z m-700.757334 0L469.333333 35.96799999999996v176.469333l-170.666666 119.466667-137.045334-95.914667zM128 316.58666700000003L224.256 384 128 451.413333v-134.826666z"  horiz-adv-x="1024" />

    
    <glyph glyph-name="cloud-snow" unicode="&#59475;" d="M405.632 852.693333A384 384 0 0 1 144.298667 169.386667a42.666667 42.666667 0 0 1 53.290666 66.645333A298.666667 298.666667 0 1 0 673.194667 544a42.666667 42.666667 0 0 1 41.301333-32h53.76a170.666667 170.666667 0 0 0 68.266667-326.997333 42.666667 42.666667 0 0 1 34.218666-78.165334A256 256 0 0 1 768.341333 597.333333h-22.272a384 384 0 0 1-340.48 255.36zM682.666667 256m-42.666667 0a42.666667 42.666667 0 1 1 85.333333 0 42.666667 42.666667 0 1 1-85.333333 0ZM512 170.666667m-42.666667 0a42.666667 42.666667 0 1 1 85.333334 0 42.666667 42.666667 0 1 1-85.333334 0ZM341.333333 256m-42.666666 0a42.666667 42.666667 0 1 1 85.333333 0 42.666667 42.666667 0 1 1-85.333333 0ZM341.333333 42.666667m-42.666666 0a42.666667 42.666667 0 1 1 85.333333 0 42.666667 42.666667 0 1 1-85.333333 0ZM512-42.666667m-42.666667 0a42.666667 42.666667 0 1 1 85.333334 0 42.666667 42.666667 0 1 1-85.333334 0ZM682.666667 42.666667m-42.666667 0a42.666667 42.666667 0 1 1 85.333333 0 42.666667 42.666667 0 1 1-85.333333 0ZM682.666667 42.666667m-42.666667 0a42.666667 42.666667 0 1 1 85.333333 0 42.666667 42.666667 0 1 1-85.333333 0Z"  horiz-adv-x="1024" />

    
    <glyph glyph-name="compass" unicode="&#59476;" d="M512-85.333333C252.8-85.333333 42.666667 124.8 42.666667 384S252.8 853.333333 512 853.333333s469.333333-210.133333 469.333333-469.333333-210.133333-469.333333-469.333333-469.333333z m0 85.333333a384 384 0 1 1 0 768 384 384 0 0 1 0-768zM455.253333 440.746667L398.592 270.506667l170.154667 56.746666 56.746666 170.154667-170.154666-56.746667z m278.144 110.677333l-90.453333-271.36a42.666667 42.666667 0 0 0-27.008-27.008l-271.36-90.453333a42.666667 42.666667 0 0 0-53.973333 53.973333l90.453333 271.36a42.666667 42.666667 0 0 0 27.008 27.008l271.36 90.453333a42.666667 42.666667 0 0 0 53.973333-53.973333z"  horiz-adv-x="1024" />

    
    <glyph glyph-name="copy" unicode="&#59477;" d="M426.666667 426.538667v-383.744A42.666667 42.666667 0 0 1 469.461333 0h383.744A42.666667 42.666667 0 0 1 896 42.794667v383.744A42.666667 42.666667 0 0 1 853.205333 469.333333h-383.744A42.666667 42.666667 0 0 1 426.666667 426.538667z m-85.333334 0A128 128 0 0 0 469.461333 554.666667h383.744A128 128 0 0 0 981.333333 426.538667v-383.744A128 128 0 0 0 853.205333-85.333333h-383.744A128 128 0 0 0 341.333333 42.794667v383.744zM213.333333 298.666667H170.666667a42.666667 42.666667 0 0 0-42.666667 42.666666V725.333333a42.666667 42.666667 0 0 0 42.666667 42.666667h384a42.666667 42.666667 0 0 0 42.666666-42.666667v-42.666666a42.666667 42.666667 0 0 1 85.333334 0V725.333333a128 128 0 0 1-128 128H170.666667a128 128 0 0 1-128-128v-384a128 128 0 0 1 128-128h42.666666a42.666667 42.666667 0 0 1 0 85.333334z"  horiz-adv-x="1024" />

    
    <glyph glyph-name="corner-down-right" unicode="&#59478;" d="M609.834667 72.832a42.666667 42.666667 0 0 1 60.330666-60.330667l213.333334 213.333334a42.666667 42.666667 0 0 1 0 60.330666l-213.333334 213.333334a42.666667 42.666667 0 0 1-60.330666-60.330667L793.002667 256l-183.168-183.168zM128 725.333333v-298.666666a213.333333 213.333333 0 0 1 213.333333-213.333334h512a42.666667 42.666667 0 0 1 0 85.333334H341.333333a128 128 0 0 0-128 128V725.333333a42.666667 42.666667 0 1 1-85.333333 0z"  horiz-adv-x="1024" />

    
    <glyph glyph-name="corner-down-left" unicode="&#59479;" d="M414.165333 439.168a42.666667 42.666667 0 1 1-60.330666 60.330667l-213.333334-213.333334a42.666667 42.666667 0 0 1 0-60.330666l213.333334-213.333334a42.666667 42.666667 0 1 1 60.330666 60.330667L230.997333 256l183.168 183.168zM810.666667 725.333333v-298.666666a128 128 0 0 0-128-128H170.666667a42.666667 42.666667 0 0 1 0-85.333334h512a213.333333 213.333333 0 0 1 213.333333 213.333334V725.333333a42.666667 42.666667 0 0 1-85.333333 0z"  horiz-adv-x="1024" />

    
    <glyph glyph-name="corner-left-down" unicode="&#59480;" d="M200.832 286.165333a42.666667 42.666667 0 1 1-60.330667-60.330666l213.333334-213.333334a42.666667 42.666667 0 0 1 60.330666 0l213.333334 213.333334a42.666667 42.666667 0 0 1-60.330667 60.330666L384 102.997333l-183.168 183.168zM853.333333 768h-298.666666a213.333333 213.333333 0 0 1-213.333334-213.333333v-512a42.666667 42.666667 0 0 1 85.333334 0V554.666667a128 128 0 0 0 128 128h298.666666a42.666667 42.666667 0 0 1 0 85.333333z"  horiz-adv-x="1024" />

    
    <glyph glyph-name="corner-left-up" unicode="&#59481;" d="M567.168 481.834667a42.666667 42.666667 0 1 1 60.330667 60.330666l-213.333334 213.333334a42.666667 42.666667 0 0 1-60.330666 0l-213.333334-213.333334a42.666667 42.666667 0 0 1 60.330667-60.330666L384 665.002667l183.168-183.168zM853.333333 85.333333h-298.666666a128 128 0 0 0-128 128V725.333333a42.666667 42.666667 0 1 1-85.333334 0v-512a213.333333 213.333333 0 0 1 213.333334-213.333333h298.666666a42.666667 42.666667 0 0 1 0 85.333333z"  horiz-adv-x="1024" />

    
    <glyph glyph-name="corner-up-left" unicode="&#59482;" d="M414.165333 695.168a42.666667 42.666667 0 1 1-60.330666 60.330667l-213.333334-213.333334a42.666667 42.666667 0 0 1 0-60.330666l213.333334-213.333334a42.666667 42.666667 0 1 1 60.330666 60.330667L230.997333 512l183.168 183.168zM896 42.666667v298.666666a213.333333 213.333333 0 0 1-213.333333 213.333334H170.666667a42.666667 42.666667 0 1 1 0-85.333334h512a128 128 0 0 0 128-128v-298.666666a42.666667 42.666667 0 0 1 85.333333 0z"  horiz-adv-x="1024" />

    
    <glyph glyph-name="corner-up-right" unicode="&#59483;" d="M609.834667 328.832a42.666667 42.666667 0 0 1 60.330666-60.330667l213.333334 213.333334a42.666667 42.666667 0 0 1 0 60.330666l-213.333334 213.333334a42.666667 42.666667 0 0 1-60.330666-60.330667L793.002667 512l-183.168-183.168zM213.333333 42.666667v298.666666a128 128 0 0 0 128 128h512a42.666667 42.666667 0 0 1 0 85.333334H341.333333a213.333333 213.333333 0 0 1-213.333333-213.333334v-298.666666a42.666667 42.666667 0 0 1 85.333333 0z"  horiz-adv-x="1024" />

    
    <glyph glyph-name="corner-right-down" unicode="&#59484;" d="M456.832 286.16533300000003a42.666667 42.666667 0 1 1-60.330667-60.330666l213.333334-213.333334a42.666667 42.666667 0 0 1 60.330666 0l213.333334 213.333334a42.666667 42.666667 0 0 1-60.330667 60.330666L640 102.99733300000003l-183.168 183.168zM170.666667 682.666667h298.666666a128 128 0 0 0 128-128v-512a42.666667 42.666667 0 0 1 85.333334 0V554.666667a213.333333 213.333333 0 0 1-213.333334 213.333333H170.666667a42.666667 42.666667 0 1 1 0-85.333333z"  horiz-adv-x="1024" />

    
    <glyph glyph-name="corner-right-up" unicode="&#59485;" d="M823.168 481.834667a42.666667 42.666667 0 1 1 60.330667 60.330666l-213.333334 213.333334a42.666667 42.666667 0 0 1-60.330666 0l-213.333334-213.333334a42.666667 42.666667 0 1 1 60.330667-60.330666L640 665.002667l183.168-183.168zM170.666667 0h298.666666a213.333333 213.333333 0 0 1 213.333334 213.333333V725.333333a42.666667 42.666667 0 0 1-85.333334 0v-512a128 128 0 0 0-128-128H170.666667a42.666667 42.666667 0 0 1 0-85.333333z"  horiz-adv-x="1024" />

    
    <glyph glyph-name="cpu" unicode="&#59486;" d="M213.333333 640.256v-512.512c0-23.381333 19.029333-42.410667 42.410667-42.410667h512.512a42.453333 42.453333 0 0 1 42.410667 42.410667V640.256A42.453333 42.453333 0 0 1 768.256 682.666667H255.744A42.453333 42.453333 0 0 1 213.333333 640.256z m-85.333333 0A127.786667 127.786667 0 0 0 255.744 768h512.512A127.786667 127.786667 0 0 0 896 640.256v-512.512A127.786667 127.786667 0 0 0 768.256 0H255.744A127.786667 127.786667 0 0 0 128 127.74400000000003V640.256zM426.666667 298.66666699999996h170.666666v170.666666h-170.666666v-170.666666zM384 554.666667h256a42.666667 42.666667 0 0 0 42.666667-42.666667v-256a42.666667 42.666667 0 0 0-42.666667-42.666667H384a42.666667 42.666667 0 0 0-42.666667 42.666667V512a42.666667 42.666667 0 0 0 42.666667 42.666667zM341.333333 853.333333a42.666667 42.666667 0 1 0 85.333334 0v-128a42.666667 42.666667 0 1 0-85.333334 0V853.333333z m256 0a42.666667 42.666667 0 0 0 85.333334 0v-128a42.666667 42.666667 0 0 0-85.333334 0V853.333333zM341.333333 42.66666699999996a42.666667 42.666667 0 0 0 85.333334 0v-128a42.666667 42.666667 0 0 0-85.333334 0v128z m256 0a42.666667 42.666667 0 0 0 85.333334 0v-128a42.666667 42.666667 0 0 0-85.333334 0v128z m256 426.666666a42.666667 42.666667 0 0 0 0 85.333334h128a42.666667 42.666667 0 0 0 0-85.333334h-128z m0-213.333333a42.666667 42.666667 0 0 0 0 85.333333h128a42.666667 42.666667 0 0 0 0-85.333333h-128zM42.666667 469.333333a42.666667 42.666667 0 1 0 0 85.333334h128a42.666667 42.666667 0 1 0 0-85.333334H42.666667z m0-213.333333a42.666667 42.666667 0 0 0 0 85.333333h128a42.666667 42.666667 0 0 0 0-85.333333H42.666667z"  horiz-adv-x="1024" />

    
    <glyph glyph-name="credit-card" unicode="&#59487;" d="M0 640.256A127.616 127.616 0 0 0 127.616 768H896.426667A127.744 127.744 0 0 0 1024 640.256v-512.512A127.616 127.616 0 0 0 896.384 0H127.573333A127.744 127.744 0 0 0 0 127.74400000000003V640.256zM938.666667 512V640.256A42.410667 42.410667 0 0 1 896.384 682.666667H127.573333A42.282667 42.282667 0 0 1 85.333333 640.256V512h853.333334z m0-85.333333H85.333333v-298.922667c0-23.381333 18.986667-42.410667 42.282667-42.410667H896.426667a42.282667 42.282667 0 0 1 42.282666 42.410667V426.666667z"  horiz-adv-x="1024" />

    
    <glyph glyph-name="crosshair" unicode="&#59488;" d="M469.333333 2.346667000000025V128a42.666667 42.666667 0 0 0 85.333334 0v-125.653333A384.170667 384.170667 0 0 1 893.653333 341.33333300000004H768a42.666667 42.666667 0 0 0 0 85.333334h125.653333A384.170667 384.170667 0 0 1 554.666667 765.653333V640a42.666667 42.666667 0 0 0-85.333334 0V765.653333A384.170667 384.170667 0 0 1 130.346667 426.666667H256a42.666667 42.666667 0 0 0 0-85.333334H130.346667A384.170667 384.170667 0 0 1 469.333333 2.346667000000025zM512-85.33333300000004C252.8-85.33333300000004 42.666667 124.79999999999995 42.666667 384S252.8 853.333333 512 853.333333s469.333333-210.133333 469.333333-469.333333-210.133333-469.333333-469.333333-469.333333z"  horiz-adv-x="1024" />

    
    <glyph glyph-name="disc" unicode="&#59489;" d="M512-85.333333C252.8-85.333333 42.666667 124.8 42.666667 384S252.8 853.333333 512 853.333333s469.333333-210.133333 469.333333-469.333333-210.133333-469.333333-469.333333-469.333333z m0 85.333333a384 384 0 1 1 0 768 384 384 0 0 1 0-768zM512 213.333333a170.666667 170.666667 0 1 0 0 341.333334 170.666667 170.666667 0 0 0 0-341.333334z m0 85.333334a85.333333 85.333333 0 1 1 0 170.666666 85.333333 85.333333 0 0 1 0-170.666666z"  horiz-adv-x="1024" />

    
    <glyph glyph-name="delete" unicode="&#59490;" d="M896 768a128 128 0 0 0 128-128v-512a128 128 0 0 0-128-128H341.333333a42.666667 42.666667 0 0 0-32.128 14.549333l-298.666666 341.333334a42.666667 42.666667 0 0 0 0 56.234666l298.666666 341.333334A42.666667 42.666667 0 0 0 341.333333 768h554.666667z m0-682.666667a42.666667 42.666667 0 0 1 42.666667 42.666667V640a42.666667 42.666667 0 0 1-42.666667 42.666667H360.704l-261.333333-298.666667 261.333333-298.666667H896zM737.834667 542.165333l-256-256a42.666667 42.666667 0 0 1 60.330666-60.330666l256 256a42.666667 42.666667 0 1 1-60.330666 60.330666zM481.834667 481.834667l256-256a42.666667 42.666667 0 0 1 60.330666 60.330666l-256 256a42.666667 42.666667 0 0 1-60.330666-60.330666z"  horiz-adv-x="1024" />

    
    <glyph glyph-name="download-cloud" unicode="&#59491;" d="M512.468907 17.663999999999987l-140.501334 140.501333a42.666667 42.666667 0 1 1-60.330666-60.330666l170.666666-170.666667a42.666667 42.666667 0 0 1 60.330667 0l170.666667 170.666667a42.666667 42.666667 0 0 1-60.330667 60.330666L512.468907 17.663999999999987zM469.80224 341.33333300000004v-384a42.666667 42.666667 0 0 1 85.333333 0v384a42.666667 42.666667 0 0 1-85.333333 0zM427.988907 765.9946669999999a384 384 0 0 1-331.477334-635.989334 42.666667 42.666667 0 0 1 63.914667 56.576A298.666667 298.666667 0 1 0 673.32224 458.666667a42.666667 42.666667 0 0 1 41.344-32.042667H768.468907a170.666667 170.666667 0 0 0 98.346666-310.272 42.666667 42.666667 0 0 1 49.066667-69.802667A256 256 0 0 1 768.468907 512h-22.101334a384 384 0 0 1-318.293333 253.994667z"  horiz-adv-x="1024" />

    
    <glyph glyph-name="download" unicode="&#59492;" d="M85.333333 170.666667v-128a128 128 0 0 1 128-128h597.333334a128 128 0 0 1 128 128v128a42.666667 42.666667 0 0 1-85.333334 0v-128a42.666667 42.666667 0 0 0-42.666666-42.666667H213.333333a42.666667 42.666667 0 0 0-42.666666 42.666667v128a42.666667 42.666667 0 0 1-85.333334 0zM512 273.664l-140.501333 140.501333a42.666667 42.666667 0 1 1-60.330667-60.330666l170.666667-170.666667a42.666667 42.666667 0 0 1 60.330666 0l170.666667 170.666667a42.666667 42.666667 0 0 1-60.330667 60.330666L512 273.664zM469.333333 810.666667v-597.333334a42.666667 42.666667 0 0 1 85.333334 0V810.666667a42.666667 42.666667 0 0 1-85.333334 0z"  horiz-adv-x="1024" />

    
    <glyph glyph-name="droplet" unicode="&#59493;" d="M301.098667 501.034667a290.986667 290.986667 0 0 1-64.853334-320.64c46.250667-109.952 155.136-181.674667 275.968-181.674667s229.717333 71.68 275.968 181.674667a290.986667 290.986667 0 0 1-64.853333 320.64L512 709.162667 301.098667 501.034667z m241.066666 297.301333l241.493334-237.866667a374.144 374.144 0 0 0 83.328-412.245333C807.594667 6.869333 667.562667-85.333333 512.213333-85.333333c-155.306667 0-295.381333 92.16-354.773333 233.557333a374.144 374.144 0 0 0 83.285333 412.202667l241.066667 237.909333a43.093333 43.093333 0 0 0 60.373333 0z"  horiz-adv-x="1024" />

    
    <glyph glyph-name="edit-" unicode="&#59494;" d="M170.666667 195.669333V42.666667h153.002666l512 512L682.666667 707.669333l-512-512zM712.832 798.165333l213.333333-213.333333a42.666667 42.666667 0 0 0 0-60.330667l-554.666666-554.666666A42.666667 42.666667 0 0 0 341.333333-42.666667H128a42.666667 42.666667 0 0 0-42.666667 42.666667v213.333333a42.666667 42.666667 0 0 0 12.501334 30.165334l554.666666 554.666666a42.666667 42.666667 0 0 0 60.330667 0z"  horiz-adv-x="1024" />

    
    <glyph glyph-name="edit" unicode="&#59495;" d="M810.666667 270.506667V42.666667a42.666667 42.666667 0 0 0-42.666667-42.666667H170.666667a42.666667 42.666667 0 0 0-42.666667 42.666667V640a42.666667 42.666667 0 0 0 42.666667 42.666667h227.84a42.666667 42.666667 0 1 1 0 85.333333H170.666667a128 128 0 0 1-128-128v-597.333333a128 128 0 0 1 128-128h597.333333a128 128 0 0 1 128 128v227.84a42.666667 42.666667 0 0 1-85.333333 0zM384 366.336V256h110.336l384 384L768 750.336l-384-384z m414.165333 474.496l170.666667-170.666667a42.666667 42.666667 0 0 0 0-60.330666l-426.666667-426.666667A42.666667 42.666667 0 0 0 512 170.666667H341.333333a42.666667 42.666667 0 0 0-42.666666 42.666666v170.666667a42.666667 42.666667 0 0 0 12.501333 30.165333l426.666667 426.666667a42.666667 42.666667 0 0 0 60.330666 0z"  horiz-adv-x="1024" />

    
    <glyph glyph-name="edit-1" unicode="&#59496;" d="M170.666667 323.669333V213.333333h110.336l426.666666 426.666667L597.333333 750.336l-426.666666-426.666667zM627.498667 840.832l170.666666-170.666667a42.666667 42.666667 0 0 0 0-60.330666l-469.333333-469.333334A42.666667 42.666667 0 0 0 298.666667 128H128a42.666667 42.666667 0 0 0-42.666667 42.666667v170.666666a42.666667 42.666667 0 0 0 12.501334 30.165334l469.333333 469.333333a42.666667 42.666667 0 0 0 60.330667 0zM128-85.333333h768a42.666667 42.666667 0 0 1 0 85.333333H128a42.666667 42.666667 0 0 1 0-85.333333z"  horiz-adv-x="1024" />

    
    <glyph glyph-name="external-link" unicode="&#59497;" d="M725.333333 341.333333v-256a42.666667 42.666667 0 0 0-42.666666-42.666666H213.333333a42.666667 42.666667 0 0 0-42.666666 42.666666V554.666667a42.666667 42.666667 0 0 0 42.666666 42.666666h256a42.666667 42.666667 0 0 1 0 85.333334H213.333333a128 128 0 0 1-128-128v-469.333334a128 128 0 0 1 128-128h469.333334a128 128 0 0 1 128 128v256a42.666667 42.666667 0 0 1-85.333334 0zM853.333333 725.333333v-213.333333a42.666667 42.666667 0 0 1 85.333334 0V768a42.666667 42.666667 0 0 1-42.666667 42.666667h-256a42.666667 42.666667 0 0 1 0-85.333334h213.333333zM456.832 268.501333l469.333333 469.333334a42.666667 42.666667 0 1 1-60.330666 60.330666l-469.333334-469.333333a42.666667 42.666667 0 0 1 60.330667-60.330667z"  horiz-adv-x="1024" />

    
    <glyph glyph-name="eye" unicode="&#59498;" d="M109.844053 353.834667c24.533333-37.973333 53.504-75.989333 86.613334-111.36C289.172053 143.744 394.900053 85.333333 512.020053 85.333333c117.12 0 222.890667 58.368 315.52 157.184A789.888 789.888 0 0 1 932.713387 384a789.888 789.888 0 0 1-105.130667 141.482667C734.91072 624.298667 629.140053 682.666667 512.020053 682.666667 394.900053 682.666667 289.129387 624.298667 196.500053 525.482667A789.888 789.888 0 0 1 91.32672 384c5.376-9.301333 11.52-19.413333 18.474667-30.165333zM4.54272 403.072c5.973333 11.989333 17.237333 32 33.621333 57.429333a874.325333 874.325333 0 0 0 96.042667 123.306667C241.556053 698.410667 367.80672 768 512.020053 768c144.213333 0 270.464-69.632 377.813334-184.149333a874.325333 874.325333 0 0 0 96-123.349334c16.426667-25.429333 27.690667-45.44 33.706666-57.429333a42.666667 42.666667 0 0 0 0-38.144c-6.016-11.989333-17.28-32-33.706666-57.429333a874.325333 874.325333 0 0 0-96-123.306667C782.484053 69.589333 656.233387 0 512.020053 0c-144.213333 0-270.464 69.632-377.813333 184.149333a874.325333 874.325333 0 0 0-96 123.349334 648.021333 648.021333 0 0 0-33.706667 57.429333 42.666667 42.666667 0 0 0 0 38.144zM512.020053 213.333333a170.666667 170.666667 0 1 0 0 341.333334 170.666667 170.666667 0 0 0 0-341.333334z m0 85.333334a85.333333 85.333333 0 1 1 0 170.666666 85.333333 85.333333 0 0 1 0-170.666666z"  horiz-adv-x="1024" />

    
    <glyph glyph-name="feather" unicode="&#59499;" d="M230.997333 42.66666699999996l-115.498666-115.498667a42.666667 42.666667 0 1 0-60.330667 60.330667L170.666667 102.99733300000003V448a42.666667 42.666667 0 0 0 12.501333 30.165333l288 288a298.794667 298.794667 0 0 0 422.613333-422.570666l-287.573333-288.426667A42.666667 42.666667 0 0 0 576 42.66666699999996H230.997333z m256 256l241.365334-0.085334 104.96 105.301334a213.504 213.504 0 1 1-301.824 301.952L256 430.336v-242.005333l396.501333 396.501333a42.666667 42.666667 0 0 0 60.330667-60.330667L486.997333 298.66666699999996z m156.373334-85.333334H401.664l-85.333333-85.333333h241.92l85.12 85.333333z"  horiz-adv-x="1024" />

    
    <glyph glyph-name="facebook" unicode="&#59500;" d="M384 597.333333a256 256 0 0 0 256 256h128a42.666667 42.666667 0 0 0 42.666667-42.666666v-170.666667a42.666667 42.666667 0 0 0-42.666667-42.666667h-128v-85.333333h128a42.666667 42.666667 0 0 0 41.386667-53.034667l-42.666667-170.666666A42.666667 42.666667 0 0 0 725.333333 256h-85.333333v-298.666667a42.666667 42.666667 0 0 0-42.666667-42.666666h-170.666666a42.666667 42.666667 0 0 0-42.666667 42.666666v298.666667H298.666667a42.666667 42.666667 0 0 0-42.666667 42.666667v170.666666a42.666667 42.666667 0 0 0 42.666667 42.666667h85.333333V597.333333z m341.333333 170.666667h-85.333333a170.666667 170.666667 0 0 1-170.666667-170.666667v-128a42.666667 42.666667 0 0 0-42.666666-42.666666H341.333333v-85.333334h85.333334a42.666667 42.666667 0 0 0 42.666666-42.666666v-298.666667h85.333334v298.666667a42.666667 42.666667 0 0 0 42.666666 42.666666h94.72l21.333334 85.333334H597.333333a42.666667 42.666667 0 0 0-42.666666 42.666666V597.333333a85.333333 85.333333 0 0 0 85.333333 85.333334h85.333333V768z"  horiz-adv-x="1024" />

    
    <glyph glyph-name="file-minus" unicode="&#59501;" d="M554.666667 768H256a42.666667 42.666667 0 0 1-42.666667-42.666667v-682.666666a42.666667 42.666667 0 0 1 42.666667-42.666667h512a42.666667 42.666667 0 0 1 42.666667 42.666667V512h-213.333334a42.666667 42.666667 0 0 0-42.666666 42.666667V768z m85.333333-60.330667V597.333333h110.336L640 707.669333zM597.333333 853.333333a42.666667 42.666667 0 0 0 30.165334-12.501333l256-256A42.666667 42.666667 0 0 0 896 554.666667v-512a128 128 0 0 0-128-128H256a128 128 0 0 0-128 128V725.333333a128 128 0 0 0 128 128h341.333333zM384 213.33333300000004a42.666667 42.666667 0 0 0 0 85.333334h256a42.666667 42.666667 0 0 0 0-85.333334H384z"  horiz-adv-x="1024" />

    
    <glyph glyph-name="eye-off" unicode="&#59502;" d="M284.838065 603.144984a42.644793 42.644793 0 1 1-51.77078 67.805221A829.441232 829.441232 0 0 1 5.642602 403.908509a42.644793 42.644793 0 0 1-0.554382-39.23321c5.970271-11.983187 17.228497-31.983595 33.604097-57.399892 27.164733-42.005122 59.148329-83.967598 95.99343-123.243453C241.937402 69.488038 368.123346-0.06562 512.262748-0.06562a472.546956 472.546956 0 0 1 279.152818 96.590457 42.644793 42.644793 0 1 1-51.68549 67.805222A386.788277 386.788277 0 0 0 511.580431 85.223967c-116.420286 0-222.094084 58.338077-314.718575 157.103419a789.483061 789.483061 0 0 0-104.948837 141.282201 744.151646 744.151646 0 0 0 192.925046 219.535397z m571.78139-327.981107a42.644793 42.644793 0 0 1 65.246534-54.926494 831.573472 831.573472 0 0 1 97.102195 143.414441 42.644793 42.644793 0 0 1 0.511737 39.14792c-5.970271 11.983187-17.228497 31.983595-33.604097 57.399892a873.877107 873.877107 0 0 1-95.99343 123.243453C782.588094 697.987004 656.40215 767.540662 512.262748 767.540662a431.352086 431.352086 0 0 1-99.277079-11.343515 42.644793 42.644793 0 0 1 19.446026-83.072057A346.275723 346.275723 0 0 0 512.177458 682.251075c117.145248 0 222.861691-58.338077 315.443537-157.103419a789.483061 789.483061 0 0 0 105.034127-141.324845 746.283885 746.283885 0 0 0-76.035667-108.658934z m-285.165734 47.250431a85.289587 85.289587 0 1 0-120.514186 120.514187 42.644793 42.644793 0 1 1-58.167498 62.431977 170.579174 170.579174 0 1 1 241.113662-241.113662 42.644793 42.644793 0 1 1-62.431978 58.167498zM13.020151 822.68038l938.185456-938.185456a42.644793 42.644793 0 0 1 60.299738 60.299738l-938.185456 938.185456A42.644793 42.644793 0 1 1 13.020151 822.68038z"  horiz-adv-x="1024" />

    
    <glyph glyph-name="fast-forward" unicode="&#59503;" d="M580.864 51.626667A42.666667 42.666667 0 0 0 512 85.333333V682.666667a42.666667 42.666667 0 0 0 68.864 33.706666l384-298.666666a42.666667 42.666667 0 0 0 0-67.413334l-384-298.666666zM869.12 384L597.333333 595.413333v-422.826666L869.162667 384zM111.530667 51.626667A42.666667 42.666667 0 0 0 42.666667 85.333333V682.666667a42.666667 42.666667 0 0 0 68.864 33.706666l384-298.666666a42.666667 42.666667 0 0 0 0-67.413334l-384-298.666666zM399.786667 384L128 595.413333v-422.826666L399.829333 384z"  horiz-adv-x="1024" />

    
    <glyph glyph-name="file-text" unicode="&#59504;" d="M554.666667 768H256a42.666667 42.666667 0 0 1-42.666667-42.666667v-682.666666a42.666667 42.666667 0 0 1 42.666667-42.666667h512a42.666667 42.666667 0 0 1 42.666667 42.666667V512h-213.333334a42.666667 42.666667 0 0 0-42.666666 42.666667V768z m85.333333-60.330667V597.333333h110.336L640 707.669333zM597.333333 853.333333a42.666667 42.666667 0 0 0 30.165334-12.501333l256-256A42.666667 42.666667 0 0 0 896 554.666667v-512a128 128 0 0 0-128-128H256a128 128 0 0 0-128 128V725.333333a128 128 0 0 0 128 128h341.333333z m85.333334-469.333333a42.666667 42.666667 0 0 0 0-85.333333H341.333333a42.666667 42.666667 0 0 0 0 85.333333h341.333334z m0-170.666667a42.666667 42.666667 0 0 0 0-85.333333H341.333333a42.666667 42.666667 0 0 0 0 85.333333h341.333334z m-256 341.333334a42.666667 42.666667 0 0 0 0-85.333334H341.333333a42.666667 42.666667 0 1 0 0 85.333334h85.333334z"  horiz-adv-x="1024" />

    
    <glyph glyph-name="film" unicode="&#59505;" d="M42.666667 717.738667A135.68 135.68 0 0 0 178.261333 853.333333h667.477334A135.68 135.68 0 0 0 981.333333 717.738667v-667.477334A135.68 135.68 0 0 0 845.738667-85.33333300000004H178.261333A135.68 135.68 0 0 0 42.666667 50.261333000000036V717.738667zM341.333333 768v-341.333333h341.333334V768H341.333333z m0-768h341.333334v341.333333H341.333333v-341.333333z m554.666667 426.666667V554.666667h-128v-128h128z m0-85.333334h-128v-128h128v128zM128 341.33333300000004v-128h128v128H128z m0 85.333334h128V554.666667H128v-128z m640 341.333333v-128h128V717.738667A50.346667 50.346667 0 0 1 845.738667 768H768z m128-640h-128v-128h77.738667A50.346667 50.346667 0 0 1 896 50.261333000000036V128zM256 768H178.261333A50.346667 50.346667 0 0 1 128 717.738667V640h128V768z m0-768v128H128v-77.738667C128 22.61333300000001 150.570667 0 178.261333 0H256z"  horiz-adv-x="1024" />

    
    <glyph glyph-name="file" unicode="&#59506;" d="M554.666667 853.333333a42.666667 42.666667 0 0 0 30.165333-12.501333l298.666667-298.666667A42.666667 42.666667 0 0 0 896 512v-469.333333a128 128 0 0 0-128-128H256a128 128 0 0 0-128 128V725.333333a128 128 0 0 0 128 128h298.666667z m-42.666667-341.333333V768H256a42.666667 42.666667 0 0 1-42.666667-42.666667v-682.666666a42.666667 42.666667 0 0 1 42.666667-42.666667h512a42.666667 42.666667 0 0 1 42.666667 42.666667V469.333333h-256a42.666667 42.666667 0 0 0-42.666667 42.666667z m85.333333 195.669333V554.666667h153.002667L597.333333 707.669333z"  horiz-adv-x="1024" />

    
    <glyph glyph-name="file-plus" unicode="&#59507;" d="M554.666667 768H256a42.666667 42.666667 0 0 1-42.666667-42.666667v-682.666666a42.666667 42.666667 0 0 1 42.666667-42.666667h512a42.666667 42.666667 0 0 1 42.666667 42.666667V512h-213.333334a42.666667 42.666667 0 0 0-42.666666 42.666667V768z m85.333333-60.330667V597.333333h110.336L640 707.669333zM597.333333 853.333333a42.666667 42.666667 0 0 0 30.165334-12.501333l256-256A42.666667 42.666667 0 0 0 896 554.666667v-512a128 128 0 0 0-128-128H256a128 128 0 0 0-128 128V725.333333a128 128 0 0 0 128 128h341.333333z m-128-640H384a42.666667 42.666667 0 0 0 0 85.333334h85.333333v85.333333a42.666667 42.666667 0 0 0 85.333334 0v-85.333333h85.333333a42.666667 42.666667 0 0 0 0-85.333334h-85.333333v-85.333333a42.666667 42.666667 0 0 0-85.333334 0v85.333333z"  horiz-adv-x="1024" />

    
    <glyph glyph-name="folder" unicode="&#59508;" d="M170.666667 725.333333a42.666667 42.666667 0 0 1-42.666667-42.666666v-597.333334a42.666667 42.666667 0 0 1 42.666667-42.666666h682.666666a42.666667 42.666667 0 0 1 42.666667 42.666666V554.666667a42.666667 42.666667 0 0 1-42.666667 42.666666h-384a42.666667 42.666667 0 0 0-35.498666 18.986667L361.173333 725.333333H170.666667z m682.666666-42.666666a128 128 0 0 0 128-128v-469.333334a128 128 0 0 0-128-128H170.666667a128 128 0 0 0-128 128V682.666667a128 128 0 0 0 128 128h213.333333a42.666667 42.666667 0 0 0 35.498667-18.986667L492.16 682.666667H853.333333z"  horiz-adv-x="1024" />

    
    <glyph glyph-name="filter" unicode="&#59509;" d="M384 348.757333l-331.264 391.68A42.666667 42.666667 0 0 0 85.333333 810.666667h853.333334a42.666667 42.666667 0 0 0 32.597333-70.229334L640 348.757333V0a42.666667 42.666667 0 0 0-61.738667-38.144l-170.666666 85.333333A42.666667 42.666667 0 0 0 384 85.33333300000004v263.424zM177.28 725.333333l281.984-333.397333a42.666667 42.666667 0 0 0 10.069333-27.562667v-252.672l85.333334-42.666666V364.373333a42.666667 42.666667 0 0 0 10.069333 27.562667L846.72 725.333333H177.28z"  horiz-adv-x="1024" />

    
    <glyph glyph-name="flag" unicode="&#59510;" d="M128-42.66666699999996V768a42.666667 42.666667 0 0 0 12.501333 30.165333c9.386667 9.386667 26.197333 20.608 51.626667 30.762667C230.698667 844.373333 280.064 853.333333 341.333333 853.333333c60.458667 0 101.674667-11.776 186.496-45.738666C603.008 777.557333 636.458667 768 682.666667 768c50.730667 0 89.344 7.04 117.504 18.261333 14.549333 5.845333 21.674667 10.624 22.997333 11.946667C850.048 825.045333 896 805.973333 896 768v-512a42.666667 42.666667 0 0 0-12.501333-30.165333c-9.386667-9.386667-26.197333-20.608-51.626667-30.762667-38.528-15.445333-87.893333-24.405333-149.205333-24.405333-60.458667 0-101.674667 11.776-186.496 45.738666C420.992 246.44266700000003 387.541333 256 341.333333 256c-50.730667 0-89.344-7.04-117.504-18.261333a174.677333 174.677333 0 0 1-10.496-4.608V-42.66666699999996a42.666667 42.666667 0 0 0-85.333333 0z m213.333333 384c60.458667 0 101.674667-11.776 186.496-45.738666 75.178667-30.037333 108.629333-39.594667 154.837334-39.594667 50.730667 0 89.344 7.04 117.504 18.261333 4.053333 1.664 7.552 3.2 10.496 4.608v420.693334c-34.986667-10.794667-77.397333-16.896-128-16.896-60.458667 0-101.674667 11.776-186.496 45.738666C420.992 758.442667 387.541333 768 341.333333 768c-50.730667 0-89.344-7.04-117.504-18.261333A174.677333 174.677333 0 0 1 213.333333 745.130667v-420.693334C248.32 335.23199999999997 290.730667 341.33333300000004 341.333333 341.33333300000004z"  horiz-adv-x="1024" />

    
    <glyph glyph-name="globe" unicode="&#59511;" d="M512-85.33333300000004C252.8-85.33333300000004 42.666667 124.79999999999995 42.666667 384S252.8 853.333333 512 853.333333s469.333333-210.133333 469.333333-469.333333-210.133333-469.333333-469.333333-469.333333z m211.2 426.666666a695.466667 695.466667 0 0 0-114.176-328.96A384.341333 384.341333 0 0 1 893.653333 341.33333300000004H723.2z m-422.272 0H130.346667a384.341333 384.341333 0 0 1 284.629333-328.96A696.789333 696.789333 0 0 0 300.928 341.33333300000004z m308.096 414.293334A696.789333 696.789333 0 0 0 723.072 426.666667h170.581333a384.341333 384.341333 0 0 1-284.629333 328.96z m-194.048 0A384.341333 384.341333 0 0 1 130.346667 426.666667H300.8a695.466667 695.466667 0 0 0 114.176 328.96zM386.474667 341.33333300000004A610.133333 610.133333 0 0 1 512 23.46666700000003 609.621333 609.621333 0 0 1 637.653333 341.33333300000004H386.474667z m251.050666 85.333334A610.133333 610.133333 0 0 1 512 744.533333 609.621333 609.621333 0 0 1 386.346667 426.666667h251.178666z"  horiz-adv-x="1024" />

    
    <glyph glyph-name="grid" unicode="&#59512;" d="M170.666667 512h213.333333V725.333333H170.666667v-213.333333zM128 810.666667h298.666667a42.666667 42.666667 0 0 0 42.666666-42.666667v-298.666667a42.666667 42.666667 0 0 0-42.666666-42.666666H128a42.666667 42.666667 0 0 0-42.666667 42.666666V768a42.666667 42.666667 0 0 0 42.666667 42.666667zM640 512h213.333333V725.333333h-213.333333v-213.333333z m-42.666667 298.666667h298.666667a42.666667 42.666667 0 0 0 42.666667-42.666667v-298.666667a42.666667 42.666667 0 0 0-42.666667-42.666666h-298.666667a42.666667 42.666667 0 0 0-42.666666 42.666666V768a42.666667 42.666667 0 0 0 42.666666 42.666667zM640 42.666667h213.333333v213.333333h-213.333333v-213.333333z m-42.666667 298.666666h298.666667a42.666667 42.666667 0 0 0 42.666667-42.666666v-298.666667a42.666667 42.666667 0 0 0-42.666667-42.666667h-298.666667a42.666667 42.666667 0 0 0-42.666666 42.666667v298.666667a42.666667 42.666667 0 0 0 42.666666 42.666666zM170.666667 42.666667h213.333333v213.333333H170.666667v-213.333333z m-42.666667 298.666666h298.666667a42.666667 42.666667 0 0 0 42.666666-42.666666v-298.666667a42.666667 42.666667 0 0 0-42.666666-42.666667H128a42.666667 42.666667 0 0 0-42.666667 42.666667v298.666667a42.666667 42.666667 0 0 0 42.666667 42.666666z"  horiz-adv-x="1024" />

    
    <glyph glyph-name="heart" unicode="&#59513;" d="M527.061333 729.472A277.333333 277.333333 0 0 0 1000.618667 533.333333a277.333333 277.333333 0 0 0-81.28-196.138666l-377.173334-377.173334a42.666667 42.666667 0 0 0-60.330666 0l-377.173334 377.173334a277.376 277.376 0 0 0 392.277334 392.277333l15.061333-15.061333 15.061333 15.061333z m286.72-377.173333l45.226667 45.226666a192 192 0 0 1-135.808 327.893334 192 192 0 0 1-135.808-56.32l-45.226667-45.226667a42.666667 42.666667 0 0 0-60.330666 0l-45.226667 45.226667a192.042667 192.042667 0 0 1-271.616-271.573334L512 50.517333l301.781333 301.781334z"  horiz-adv-x="1024" />

    
    <glyph glyph-name="home" unicode="&#59514;" d="M101.802667 545.7066669999999l384 298.666666a42.666667 42.666667 0 0 0 52.394666 0l384-298.666666A42.666667 42.666667 0 0 0 938.666667 512v-469.333333a128 128 0 0 0-128-128H213.333333a128 128 0 0 0-128 128V512a42.666667 42.666667 0 0 0 16.469334 33.706667zM682.666667 0h128a42.666667 42.666667 0 0 1 42.666666 42.666667V491.093333l-341.333333 265.514667-341.333333-265.472V42.66666699999996a42.666667 42.666667 0 0 1 42.666666-42.666667h128v384a42.666667 42.666667 0 0 0 42.666667 42.666667h256a42.666667 42.666667 0 0 0 42.666667-42.666667v-384z m-256 0h170.666666v341.333333h-170.666666v-341.333333z"  horiz-adv-x="1024" />

    
    <glyph glyph-name="github" unicode="&#59515;" d="M371.754667 83.541333c-91.818667-27.562667-128.896-12.970667-174.805334 43.861334-3.072 3.797333-15.786667 19.968-19.2 24.192-27.477333 33.92-49.408 52.309333-82.048 60.458666a42.666667 42.666667 0 0 1-20.736-82.773333c9.813333-2.474667 19.712-10.752 36.394667-31.36 2.986667-3.626667 15.701333-19.797333 19.2-24.106667 66.304-82.133333 138.026667-110.293333 265.685333-72.021333a42.666667 42.666667 0 0 1-24.490666 81.749333zM960 489.813333a274.773333 274.773333 0 0 1-58.837333 169.856 258.986667 258.986667 0 0 1-12.458667 167.808 42.666667 42.666667 0 0 1-27.093333 24.106667 64.085333 64.085333 0 0 1-8.96 1.877333c-40.064 5.802667-98.858667-10.026667-177.621334-59.989333a613.546667 613.546667 0 0 1-283.392 0C312.874667 843.434667 254.08 859.306667 213.973333 853.461333a64.085333 64.085333 0 0 1-8.96-1.877333 42.666667 42.666667 0 0 1-27.050666-24.106667 258.986667 258.986667 0 0 1-12.458667-167.808A274.773333 274.773333 0 0 1 106.666667 488.32c0-196.778667 87.893333-292.949333 247.466666-329.6a186.453333 186.453333 0 0 1-12.714666-81.92L341.333333-85.333333a42.666667 42.666667 0 0 1 85.333334 0v165.12c-2.133333 31.616 8.106667 59.776 28.117333 80.426666a42.666667 42.666667 0 0 1-25.429333 71.978667C267.52 252.330667 192 315.776 192 488.533333a189.568 189.568 0 0 0 52.224 131.84 42.666667 42.666667 0 0 1 9.088 44.373334 173.653333 173.653333 0 0 0-5.973333 102.058666c2.986667-0.64 6.272-1.493333 9.856-2.56 27.52-7.893333 61.781333-24.490667 103.04-52.181333a42.666667 42.666667 0 0 1 34.944-5.717333 528.213333 528.213333 0 0 0 276.309333 0 42.666667 42.666667 0 0 1 34.944 5.717333c41.258667 27.690667 75.52 44.288 103.04 52.224 3.584 1.024 6.826667 1.877333 9.813333 2.56a173.653333 173.653333 0 0 0-5.930666-102.101333 42.666667 42.666667 0 0 1 9.088-44.373334A189.44 189.44 0 0 0 874.666667 489.813333c0-174.421333-76.032-238.336-236.8-256.256a42.666667 42.666667 0 0 1-25.941334-72.106666 101.12 101.12 0 0 0 28.202667-78.336L640-85.333333a42.666667 42.666667 0 0 1 85.333333 0v165.12a177.237333 177.237333 0 0 1-12.373333 79.658666c158.72 35.2 247.04 132.266667 247.04 330.368z"  horiz-adv-x="1024" />

    
    <glyph glyph-name="image" unicode="&#59516;" d="M213.333333-42.66666699999996h-0.213333A127.786667 127.786667 0 0 0 85.333333 85.12V682.88A127.786667 127.786667 0 0 0 213.12 810.666667h597.76A127.786667 127.786667 0 0 0 938.666667 682.88v-597.76A127.786667 127.786667 0 0 0 810.88-42.66666699999996H213.333333z m640 401.664v323.84A42.453333 42.453333 0 0 1 810.88 725.333333H213.12A42.453333 42.453333 0 0 1 170.666667 682.88v-597.76c0-18.261333 11.52-33.792 27.648-39.808L652.501333 499.498667a42.666667 42.666667 0 0 0 60.330667 0L853.333333 358.997333z m0-120.661333l-170.666666 170.666667L316.330667 42.66666699999996h494.506666c23.466667 0 42.496 18.986667 42.496 42.453333v153.173333zM362.666667 426.666667a106.666667 106.666667 0 1 0 0 213.333333 106.666667 106.666667 0 0 0 0-213.333333z m0 85.333333a21.333333 21.333333 0 1 1 0 42.666667 21.333333 21.333333 0 0 1 0-42.666667z"  horiz-adv-x="1024" />

    
    <glyph glyph-name="inbox" unicode="&#59517;" d="M311.466667 768h401.066666a128 128 0 0 0 117.077334-76.117333l148.053333-333.226667A42.666667 42.666667 0 0 0 981.333333 341.33333300000004v-213.333333a128 128 0 0 0-128-128H170.666667a128 128 0 0 0-128 128v213.333333a42.666667 42.666667 0 0 0 3.669333 17.322667l148.053333 333.226667A128 128 0 0 0 311.466667 768z m561.536-384l-121.386667 273.28A42.666667 42.666667 0 0 1 712.533333 682.666667H311.466667a42.666667 42.666667 0 0 1-39.082667-25.386667L151.04 384H341.333333a42.666667 42.666667 0 0 0 35.498667-18.986667L449.493333 256h125.013334l72.661333 109.013333A42.666667 42.666667 0 0 0 682.666667 384h190.336zM896 128v170.666667h-190.506667l-72.661333-109.013334A42.666667 42.666667 0 0 0 597.333333 170.66666699999996h-170.666666a42.666667 42.666667 0 0 0-35.498667 18.986666L318.506667 298.66666699999996H128v-170.666667a42.666667 42.666667 0 0 1 42.666667-42.666667h682.666666a42.666667 42.666667 0 0 1 42.666667 42.666667z"  horiz-adv-x="1024" />

    
    <glyph glyph-name="layers" unicode="&#59518;" d="M492.928 848.810667a42.666667 42.666667 0 0 0 38.144 0l426.666667-213.333334a42.666667 42.666667 0 0 0 0-76.288l-426.666667-213.333333a42.666667 42.666667 0 0 0-38.144 0l-426.666667 213.333333a42.666667 42.666667 0 0 0 0 76.288l426.666667 213.333334zM180.736 597.333333L512 431.701333 843.264 597.333333 512 762.965333 180.736 597.333333zM104.405333 208.810667a42.666667 42.666667 0 0 1-38.144-76.288l426.666667-213.333334a42.666667 42.666667 0 0 1 38.144 0l426.666667 213.333334a42.666667 42.666667 0 0 1-38.144 76.288L512 5.034667l-407.594667 203.776zM104.405333 422.144a42.666667 42.666667 0 0 1-38.144-76.288l426.666667-213.333333a42.666667 42.666667 0 0 1 38.144 0l426.666667 213.333333a42.666667 42.666667 0 0 1-38.144 76.288L512 218.368l-407.594667 203.776z"  horiz-adv-x="1024" />

    
    <glyph glyph-name="info" unicode="&#59519;" d="M512-85.333333C252.8-85.333333 42.666667 124.8 42.666667 384S252.8 853.333333 512 853.333333s469.333333-210.133333 469.333333-469.333333-210.133333-469.333333-469.333333-469.333333z m0 85.333333a384 384 0 1 1 0 768 384 384 0 0 1 0-768zM554.666667 213.333333v170.666667a42.666667 42.666667 0 0 1-85.333334 0v-170.666667a42.666667 42.666667 0 0 1 85.333334 0zM512 554.666667m-42.666667 0a42.666667 42.666667 0 1 1 85.333334 0 42.666667 42.666667 0 1 1-85.333334 0Z"  horiz-adv-x="1024" />

    
    <glyph glyph-name="instagram" unicode="&#59520;" d="M128 597.546667v-427.093334A170.453333 170.453333 0 0 1 298.453333 0h427.093334A170.453333 170.453333 0 0 1 896 170.453333V597.546667A170.453333 170.453333 0 0 1 725.546667 768H298.453333A170.453333 170.453333 0 0 1 128 597.546667z m-85.333333 0A255.786667 255.786667 0 0 0 298.453333 853.333333h427.093334A255.786667 255.786667 0 0 0 981.333333 597.546667v-427.093334A255.786667 255.786667 0 0 0 725.546667-85.333333H298.453333A255.786667 255.786667 0 0 0 42.666667 170.453333V597.546667zM640.426667 404.608a128 128 0 1 1-253.184-37.546667 128 128 0 0 1 253.226666 37.546667z m84.48 12.544a213.333333 213.333333 0 1 0-422.101334-62.592 213.333333 213.333333 0 0 0 422.058667 62.592zM725.333333 640m-42.666666 0a42.666667 42.666667 0 1 1 85.333333 0 42.666667 42.666667 0 1 1-85.333333 0Z"  horiz-adv-x="1024" />

    
    <glyph glyph-name="layout" unicode="&#59521;" d="M85.333333 682.88A127.786667 127.786667 0 0 0 213.12 810.666667h597.76A127.786667 127.786667 0 0 0 938.666667 682.88v-597.76A127.786667 127.786667 0 0 0 810.88-42.66666699999996H213.12A127.786667 127.786667 0 0 0 85.333333 85.12V682.88zM853.333333 554.666667V682.88A42.453333 42.453333 0 0 1 810.88 725.333333H213.12A42.453333 42.453333 0 0 1 170.666667 682.88V554.666667h682.666666z m0-85.333334H426.666667v-426.666666h384.213333c23.466667 0 42.453333 18.986667 42.453333 42.453333V469.333333zM341.333333 42.66666699999996V469.333333H170.666667v-384.213333c0-23.466667 18.986667-42.453333 42.453333-42.453333H341.333333z"  horiz-adv-x="1024" />

    
    <glyph glyph-name="link-" unicode="&#59522;" d="M640 554.666667h128a170.666667 170.666667 0 1 0 0-341.333334h-128a42.666667 42.666667 0 0 1 0-85.333333h128a256 256 0 1 1 0 512h-128a42.666667 42.666667 0 0 1 0-85.333333z m-256-341.333334H256a170.666667 170.666667 0 0 0 0 341.333334h128a42.666667 42.666667 0 1 1 0 85.333333H256a256 256 0 1 1 0-512h128a42.666667 42.666667 0 0 1 0 85.333333zM341.333333 341.333333h341.333334a42.666667 42.666667 0 0 1 0 85.333334H341.333333a42.666667 42.666667 0 0 1 0-85.333334z"  horiz-adv-x="1024" />

    
    <glyph glyph-name="life-buoy" unicode="&#59523;" d="M272.298667 83.96799999999996A382.378667 382.378667 0 0 1 512 0a382.378667 382.378667 0 0 1 239.701333 83.968l-122.026666 122.026667A212.352 212.352 0 0 0 512 170.66666699999996a212.352 212.352 0 0 0-117.632 35.328l-122.026667-122.026667z m-60.330667 60.330667l122.026667 122.026666A212.352 212.352 0 0 0 298.666667 384c0 43.52 13.013333 83.925333 35.328 117.632l-122.026667 122.026667A382.378667 382.378667 0 0 1 128 384c0-90.666667 31.402667-173.994667 83.968-239.701333z m60.330667 539.733333l122.026666-122.026667A212.352 212.352 0 0 0 512 597.333333c43.52 0 83.925333-13.013333 117.632-35.328l122.026667 122.026667A382.378667 382.378667 0 0 1 512 768a382.378667 382.378667 0 0 1-239.701333-83.968z m539.733333-60.330667l-122.026667-122.026666c22.314667-33.749333 35.328-74.197333 35.328-117.674667 0-43.52-13.013333-83.925333-35.328-117.632l122.026667-122.026667A382.378667 382.378667 0 0 1 896 384a382.378667 382.378667 0 0 1-83.968 239.701333zM512-85.33333300000004C252.8-85.33333300000004 42.666667 124.79999999999995 42.666667 384S252.8 853.333333 512 853.333333s469.333333-210.133333 469.333333-469.333333-210.133333-469.333333-469.333333-469.333333z m0 341.333333a128 128 0 1 1 0 256 128 128 0 0 1 0-256z"  horiz-adv-x="1024" />

    
    <glyph glyph-name="link" unicode="&#59524;" d="M392.533333 315.776a256 256 0 0 1 386.005334-27.648l128 128a256 256 0 1 1-361.472 362.496l-73.813334-73.386667a42.666667 42.666667 0 1 1 60.16-60.501333l73.386667 72.96a170.538667 170.538667 0 0 0 238.805333-2.517333 170.666667 170.666667 0 0 0 2.090667-239.232l-127.488-127.488A170.666667 170.666667 0 0 0 460.8 366.933333a42.666667 42.666667 0 1 1-68.352-51.114666zM631.466667 452.224a256 256 0 0 1-386.005334 27.648l-128-128a256 256 0 1 1 361.472-362.496l73.472 73.472a42.666667 42.666667 0 0 1-60.330666 60.330667l-72.96-72.96c-66.432-64.170667-172.885333-63.232-238.72 2.602666a170.666667 170.666667 0 0 0-2.090667 239.232l127.488 127.488a170.666667 170.666667 0 0 0 257.365333-18.432 42.666667 42.666667 0 1 1 68.352 51.114667z"  horiz-adv-x="1024" />

    
    <glyph glyph-name="log-in" unicode="&#59525;" d="M597.333333-85.333333h213.333334a128 128 0 0 1 128 128V725.333333a128 128 0 0 1-128 128h-213.333334a42.666667 42.666667 0 0 1 0-85.333333h213.333334a42.666667 42.666667 0 0 0 42.666666-42.666667v-682.666666a42.666667 42.666667 0 0 0-42.666666-42.666667h-213.333334a42.666667 42.666667 0 0 1 0-85.333333zM439.168 243.498667a42.666667 42.666667 0 0 1 60.330667-60.330667l170.666666 170.666667a42.666667 42.666667 0 0 1 0 60.330666l-170.666666 170.666667a42.666667 42.666667 0 0 1-60.330667-60.330667L579.669333 384l-140.501333-140.501333zM640 426.666667H128a42.666667 42.666667 0 0 1 0-85.333334h512a42.666667 42.666667 0 0 1 0 85.333334z"  horiz-adv-x="1024" />

    
    <glyph glyph-name="list" unicode="&#59526;" d="M341.333333 597.333333h554.666667a42.666667 42.666667 0 0 1 0 85.333334H341.333333a42.666667 42.666667 0 1 1 0-85.333334zM341.333333 341.333333h554.666667a42.666667 42.666667 0 0 1 0 85.333334H341.333333a42.666667 42.666667 0 0 1 0-85.333334zM341.333333 85.333333h554.666667a42.666667 42.666667 0 0 1 0 85.333334H341.333333a42.666667 42.666667 0 0 1 0-85.333334zM128 640m-42.666667 0a42.666667 42.666667 0 1 1 85.333334 0 42.666667 42.666667 0 1 1-85.333334 0ZM128 384m-42.666667 0a42.666667 42.666667 0 1 1 85.333334 0 42.666667 42.666667 0 1 1-85.333334 0ZM128 128m-42.666667 0a42.666667 42.666667 0 1 1 85.333334 0 42.666667 42.666667 0 1 1-85.333334 0Z"  horiz-adv-x="1024" />

    
    <glyph glyph-name="lock" unicode="&#59527;" d="M256 469.333333V597.333333a256 256 0 1 0 512 0v-128h42.88A127.957333 127.957333 0 0 0 938.666667 341.674667v-299.349334A127.701333 127.701333 0 0 0 810.88-85.33333300000004H213.12A127.957333 127.957333 0 0 0 85.333333 42.325333v299.349334A127.701333 127.701333 0 0 0 213.12 469.333333H256z m-85.333333-127.658666v-299.349334c0-23.168 19.157333-42.325333 42.453333-42.325333h597.76c23.466667 0 42.453333 18.944 42.453333 42.325333v299.349334a42.624 42.624 0 0 1-42.453333 42.325333H213.12a42.368 42.368 0 0 1-42.453333-42.325333z m170.666666 127.786666h341.333334V597.333333a170.666667 170.666667 0 1 1-341.333334 0v-127.872z"  horiz-adv-x="1024" />

    
    <glyph glyph-name="log-out" unicode="&#59528;" d="M426.666667 0H213.333333a42.666667 42.666667 0 0 0-42.666666 42.666667V725.333333a42.666667 42.666667 0 0 0 42.666666 42.666667h213.333334a42.666667 42.666667 0 0 1 0 85.333333H213.333333a128 128 0 0 1-128-128v-682.666666a128 128 0 0 1 128-128h213.333334a42.666667 42.666667 0 0 1 0 85.333333zM695.168 243.498667a42.666667 42.666667 0 0 1 60.330667-60.330667l170.666666 170.666667a42.666667 42.666667 0 0 1 0 60.330666l-170.666666 170.666667a42.666667 42.666667 0 0 1-60.330667-60.330667L835.669333 384l-140.501333-140.501333zM896 426.666667H384a42.666667 42.666667 0 0 1 0-85.333334h512a42.666667 42.666667 0 0 1 0 85.333334z"  horiz-adv-x="1024" />

    
    <glyph glyph-name="loader" unicode="&#59529;" d="M469.333333 810.666667v-170.666667a42.666667 42.666667 0 0 1 85.333334 0V810.666667a42.666667 42.666667 0 0 1-85.333334 0zM469.333333 128v-170.666667a42.666667 42.666667 0 0 1 85.333334 0v170.666667a42.666667 42.666667 0 0 1-85.333334 0zM180.181333 655.488l120.746667-120.746667a42.666667 42.666667 0 0 1 60.330667 60.330667l-120.746667 120.746667a42.666667 42.666667 0 0 1-60.330667-60.330667zM662.741333 172.928l120.746667-120.746667a42.666667 42.666667 0 0 1 60.330667 60.330667l-120.746667 120.746667a42.666667 42.666667 0 0 1-60.330667-60.330667zM85.333333 341.333333h170.666667a42.666667 42.666667 0 0 1 0 85.333334H85.333333a42.666667 42.666667 0 0 1 0-85.333334zM768 341.333333h170.666667a42.666667 42.666667 0 0 1 0 85.333334h-170.666667a42.666667 42.666667 0 0 1 0-85.333334zM240.512 52.181333l120.746667 120.746667a42.666667 42.666667 0 0 1-60.330667 60.330667l-120.746667-120.746667a42.666667 42.666667 0 0 1 60.330667-60.330667zM723.072 534.741333l120.746667 120.746667a42.666667 42.666667 0 1 1-60.330667 60.330667l-120.746667-120.746667a42.666667 42.666667 0 1 1 60.330667-60.330667z"  horiz-adv-x="1024" />

    
    <glyph glyph-name="mail" unicode="&#59530;" d="M170.666667 768h682.666666c70.485333 0 128-57.514667 128-128v-512c0-70.485333-57.514667-128-128-128H170.666667c-70.485333 0-128 57.514667-128 128V640c0 70.485333 57.514667 128 128 128z m720.768-108.970667A42.922667 42.922667 0 0 1 853.333333 682.666667H170.666667c-16.554667 0-31.061333-9.685333-38.101334-23.637334L512 393.429333l379.434667 265.6zM896 558.0799999999999l-359.552-251.648a42.666667 42.666667 0 0 0-48.896 0L128 558.037333V128c0-23.381333 19.285333-42.666667 42.666667-42.666667h682.666666c23.381333 0 42.666667 19.285333 42.666667 42.666667V558.0799999999999z"  horiz-adv-x="1024" />

    
    <glyph glyph-name="maximize-" unicode="&#59531;" d="M853.333333 725.333333v-213.333333a42.666667 42.666667 0 0 1 85.333334 0V768a42.666667 42.666667 0 0 1-42.666667 42.666667h-256a42.666667 42.666667 0 0 1 0-85.333334h213.333333zM170.666667 256a42.666667 42.666667 0 0 1-85.333334 0v-256a42.666667 42.666667 0 0 1 42.666667-42.666667h256a42.666667 42.666667 0 0 1 0 85.333334H170.666667v213.333333zM865.834667 798.165333l-298.666667-298.666666a42.666667 42.666667 0 1 1 60.330667-60.330667l298.666666 298.666667a42.666667 42.666667 0 1 1-60.330666 60.330666zM158.165333-30.165333l298.666667 298.666666a42.666667 42.666667 0 0 1-60.330667 60.330667l-298.666666-298.666667a42.666667 42.666667 0 0 1 60.330666-60.330666z"  horiz-adv-x="1024" />

    
    <glyph glyph-name="map" unicode="&#59532;" d="M640 613.6320000000001l-256 128v-587.264l256-128V613.6320000000001z m85.333333 1.621333v-584.405333l213.333334 121.898667V737.152L725.333333 615.253333zM319.530667 847.36a42.453333 42.453333 0 0 0 41.642666 1.066667l320.170667-160.042667 278.826667 159.317333A42.666667 42.666667 0 0 0 1024 810.666667v-682.666667a42.666667 42.666667 0 0 0-21.504-37.034667l-298.666667-170.666666a42.666667 42.666667 0 0 0-40.234666-1.109334l-320.938667 160.426667-278.826667-159.317333A42.666667 42.666667 0 0 0 0-42.66666699999996V640a42.666667 42.666667 0 0 0 21.504 37.034667L319.530667 847.36zM298.666667 737.152L85.333333 615.253333v-584.405333l213.333334 121.898667V737.152z"  horiz-adv-x="1024" />

    
    <glyph glyph-name="map-pin" unicode="&#59534;" d="M545.408-7.253333a1243.946667 1243.946667 0 0 1 127.616 116.608C786.218667 228.821333 853.333333 351.872 853.333333 469.333333a341.333333 341.333333 0 0 1-682.666666 0c0-117.461333 67.114667-240.469333 180.309333-359.978666A1243.946667 1243.946667 0 0 1 512-32.981333c10.325333 7.68 21.546667 16.213333 33.408 25.685333z m189.568 57.898666a1328.298667 1328.298667 0 0 0-181.504-158.976c-8.32-6.016-14.378667-10.24-17.792-12.501333a42.666667 42.666667 0 0 0-47.36 0c-3.413333 2.304-9.472 6.485333-17.792 12.501333a1328.298667 1328.298667 0 0 0-181.504 158.976C162.218667 184.490667 85.333333 325.461333 85.333333 469.333333 85.333333 704.981333 276.352 896 512 896s426.666667-191.018667 426.666667-426.666667c0-143.872-76.885333-284.842667-203.690667-418.688zM512 298.666667a170.666667 170.666667 0 1 0 0 341.333333 170.666667 170.666667 0 0 0 0-341.333333z m0 85.333333a85.333333 85.333333 0 1 1 0 170.666667 85.333333 85.333333 0 0 1 0-170.666667z"  horiz-adv-x="1024" />

    
    <glyph glyph-name="menu" unicode="&#59535;" d="M128 341.333333h768a42.666667 42.666667 0 0 1 0 85.333334H128a42.666667 42.666667 0 0 1 0-85.333334zM128 597.333333h768a42.666667 42.666667 0 0 1 0 85.333334H128a42.666667 42.666667 0 1 1 0-85.333334zM128 85.333333h768a42.666667 42.666667 0 0 1 0 85.333334H128a42.666667 42.666667 0 0 1 0-85.333334z"  horiz-adv-x="1024" />

    
    <glyph glyph-name="message-circle" unicode="&#59536;" d="M357.717333 121.557333a42.666667 42.666667 0 0 0 32.725334-2.389333A314.965333 314.965333 0 0 1 533.333333 85.333333a320.085333 320.085333 0 0 1 286.165334 177.066667A314.88 314.88 0 0 1 853.333333 405.248l0.085334 19.114667C844.458667 586.752 714.752 716.373333 554.666667 725.333333h-21.461334a315.093333 315.093333 0 0 1-142.933333-33.92A320 320 0 0 1 213.333333 405.205333a314.88 314.88 0 0 1 33.834667-142.762666 42.666667 42.666667 0 0 0 2.389333-32.725334L195.413333 67.413333l162.261334 54.101334z m538.026667 102.570667A405.333333 405.333333 0 0 0 533.504 0a400.213333 400.213333 0 0 0-165.12 35.157333L141.525333-40.533333a42.666667 42.666667 0 0 0-53.973333 53.973333l75.648 226.901333A405.248 405.248 0 0 0 351.957333 767.701333 400.085333 400.085333 0 0 0 533.333333 810.666667l23.68-0.085334C762.88 799.232 927.232 634.88 938.666667 426.666667v-21.290667a400.042667 400.042667 0 0 0-42.88-181.248z"  horiz-adv-x="1024" />

    
    <glyph glyph-name="message-square" unicode="&#59537;" d="M268.501333 200.832A42.666667 42.666667 0 0 0 298.666667 213.333333h512a42.666667 42.666667 0 0 1 42.666666 42.666667V682.666667a42.666667 42.666667 0 0 1-42.666666 42.666666H213.333333a42.666667 42.666667 0 0 1-42.666666-42.666666v-579.669334l97.834666 97.834667z m-110.336-230.997333C131.285333-57.045333 85.333333-38.016 85.333333 0V682.666667a128 128 0 0 0 128 128h597.333334a128 128 0 0 0 128-128v-426.666667a128 128 0 0 0-128-128H316.330667l-158.165334-158.165333z"  horiz-adv-x="1024" />

    
    <glyph glyph-name="minimize-" unicode="&#59538;" d="M384 42.666667a42.666667 42.666667 0 0 1 85.333333 0v256a42.666667 42.666667 0 0 1-42.666666 42.666666H170.666667a42.666667 42.666667 0 0 1 0-85.333333h213.333333v-213.333333zM640 725.333333a42.666667 42.666667 0 0 1-85.333333 0v-256a42.666667 42.666667 0 0 1 42.666666-42.666666h256a42.666667 42.666667 0 0 1 0 85.333333h-213.333333V725.333333zM627.498667 439.168l298.666666 298.666667a42.666667 42.666667 0 1 1-60.330666 60.330666l-298.666667-298.666666a42.666667 42.666667 0 1 1 60.330667-60.330667zM158.165333-30.165333l298.666667 298.666666a42.666667 42.666667 0 0 1-60.330667 60.330667l-298.666666-298.666667a42.666667 42.666667 0 0 1 60.330666-60.330666z"  horiz-adv-x="1024" />

    
    <glyph glyph-name="mic-off" unicode="&#59539;" d="M13.020151 822.68038l938.185456-938.185456a42.644793 42.644793 0 0 1 60.299738 60.299738l-938.185456 938.185456A42.644793 42.644793 0 1 1 13.020151 822.68038zM341.683574 511.671902v-127.934381a170.579174 170.579174 0 0 1 291.136005-120.599476 42.644793 42.644793 0 0 1-60.299738 60.385028A85.289587 85.289587 0 0 0 426.973161 383.737521V511.671902a42.644793 42.644793 0 1 1-85.289587 0z m341.158348-14.49923V724.895869a170.579174 170.579174 0 0 1-337.746764 34.07319 42.644793 42.644793 0 0 1 83.583795-16.972628 85.289587 85.289587 0 0 0 168.873382-17.057917V497.172672a42.644793 42.644793 0 0 1 85.289587 0zM695.038333 202.497149A255.868761 255.868761 0 0 0 256.393987 383.439008V469.027108a42.644793 42.644793 0 1 1-85.289587 0v-85.289587a341.158348 341.158348 0 0 1 584.830698-240.943083 42.644793 42.644793 0 0 1-60.896765 59.702711zM768.131509 469.027108v-85.289587c0-15.053612-1.364633-30.064579-4.008611-44.904967a42.644793 42.644793 0 1 1 83.924954-15.096257A341.158348 341.158348 0 0 1 853.421095 383.737521V469.027108a42.644793 42.644793 0 0 1-85.289586 0zM469.617955 85.223967v-170.579174a42.644793 42.644793 0 0 1 85.289586 0v170.579174a42.644793 42.644793 0 0 1-85.289586 0zM341.683574-128h341.158348a42.644793 42.644793 0 0 1 0 85.289587H341.683574a42.644793 42.644793 0 0 1 0-85.289587z"  horiz-adv-x="1024" />

    
    <glyph glyph-name="minus-circle" unicode="&#59540;" d="M512-85.333333C252.8-85.333333 42.666667 124.8 42.666667 384S252.8 853.333333 512 853.333333s469.333333-210.133333 469.333333-469.333333-210.133333-469.333333-469.333333-469.333333z m0 85.333333a384 384 0 1 1 0 768 384 384 0 0 1 0-768zM341.333333 341.333333h341.333334a42.666667 42.666667 0 0 1 0 85.333334H341.333333a42.666667 42.666667 0 0 1 0-85.333334z"  horiz-adv-x="1024" />

    
    <glyph glyph-name="mic" unicode="&#59541;" d="M682.666667 725.333333v-341.333333a170.666667 170.666667 0 1 0-341.333334 0V725.333333a170.666667 170.666667 0 1 0 341.333334 0z m-170.666667 85.333334a85.333333 85.333333 0 0 1-85.333333-85.333334v-341.333333a85.333333 85.333333 0 1 1 170.666666 0V725.333333a85.333333 85.333333 0 0 1-85.333333 85.333334zM768 469.333333v-85.333333a256 256 0 0 0-512 0v85.333333a42.666667 42.666667 0 1 1-85.333333 0v-85.333333a341.333333 341.333333 0 0 1 682.666666 0v85.333333a42.666667 42.666667 0 0 1-85.333333 0zM469.333333 85.333333v-170.666666a42.666667 42.666667 0 0 1 85.333334 0v170.666666a42.666667 42.666667 0 0 1-85.333334 0zM341.333333-128h341.333334a42.666667 42.666667 0 0 1 0 85.333333H341.333333a42.666667 42.666667 0 0 1 0-85.333333z"  horiz-adv-x="1024" />

    
    <glyph glyph-name="minus-square" unicode="&#59542;" d="M170.666667 682.88v-597.76c0-23.466667 18.986667-42.453333 42.453333-42.453333h597.76c23.466667 0 42.453333 18.986667 42.453333 42.453333V682.88A42.453333 42.453333 0 0 1 810.88 725.333333H213.12A42.453333 42.453333 0 0 1 170.666667 682.88z m-85.333334 0A127.786667 127.786667 0 0 0 213.12 810.666667h597.76A127.786667 127.786667 0 0 0 938.666667 682.88v-597.76A127.786667 127.786667 0 0 0 810.88-42.666667H213.12A127.786667 127.786667 0 0 0 85.333333 85.12V682.88zM341.333333 341.333333h341.333334a42.666667 42.666667 0 0 1 0 85.333334H341.333333a42.666667 42.666667 0 0 1 0-85.333334z"  horiz-adv-x="1024" />

    
    <glyph glyph-name="minus" unicode="&#59543;" d="M213.333333 341.333333h597.333334a42.666667 42.666667 0 0 1 0 85.333334H213.333333a42.666667 42.666667 0 0 1 0-85.333334z"  horiz-adv-x="1024" />

    
    <glyph glyph-name="moon" unicode="&#59544;" d="M476.202667 348.245333a342.058667 342.058667 0 0 0-79.786667 358.229334 341.973333 341.973333 0 1 1 438.016-438.016 342.058667 342.058667 0 0 0-358.229333 79.786666z m462.250666-2.773333A427.477333 427.477333 0 1 0 473.472 810.496c36.778667 3.413333 60.245333-38.272 38.314667-67.968a256.469333 256.469333 0 0 1 358.698666-358.741333c29.696 21.973333 71.381333-1.536 67.968-38.314667z"  horiz-adv-x="1024" />

    
    <glyph glyph-name="monitor" unicode="&#59545;" d="M554.666667 128v-85.333333h128a42.666667 42.666667 0 0 0 0-85.333334H341.333333a42.666667 42.666667 0 0 0 0 85.333334h128v85.333333H170.24A127.914667 127.914667 0 0 0 42.666667 256.256V682.410667A128.128 128.128 0 0 0 170.24 810.666667h683.52A127.914667 127.914667 0 0 0 981.333333 682.410667v-426.154667A128.128 128.128 0 0 0 853.76 128H554.666667zM128 682.410667v-426.154667A42.581333 42.581333 0 0 1 170.24 213.33333300000004h683.52c23.04 0 42.24 19.285333 42.24 42.922667V682.410667A42.581333 42.581333 0 0 1 853.76 725.333333H170.24C147.2 725.333333 128 706.048 128 682.410667z"  horiz-adv-x="1024" />

    
    <glyph glyph-name="more-vertical" unicode="&#59546;" d="M512 256a128 128 0 1 0 0 256 128 128 0 0 0 0-256z m0 85.333333a42.666667 42.666667 0 1 1 0 85.333334 42.666667 42.666667 0 0 1 0-85.333334zM512 597.333333a128 128 0 1 0 0 256 128 128 0 0 0 0-256z m0 85.333334a42.666667 42.666667 0 1 1 0 85.333333 42.666667 42.666667 0 0 1 0-85.333333zM512-85.333333a128 128 0 1 0 0 256 128 128 0 0 0 0-256z m0 85.333333a42.666667 42.666667 0 1 1 0 85.333333 42.666667 42.666667 0 0 1 0-85.333333z"  horiz-adv-x="1024" />

    
    <glyph glyph-name="more-horizontal" unicode="&#59547;" d="M512 256a128 128 0 1 0 0 256 128 128 0 0 0 0-256z m0 85.333333a42.666667 42.666667 0 1 1 0 85.333334 42.666667 42.666667 0 0 1 0-85.333334zM853.333333 256a128 128 0 1 0 0 256 128 128 0 0 0 0-256z m0 85.333333a42.666667 42.666667 0 1 1 0 85.333334 42.666667 42.666667 0 0 1 0-85.333334zM170.666667 256a128 128 0 1 0 0 256 128 128 0 0 0 0-256z m0 85.333333a42.666667 42.666667 0 1 1 0 85.333334 42.666667 42.666667 0 0 1 0-85.333334z"  horiz-adv-x="1024" />

    
    <glyph glyph-name="move" unicode="&#59548;" d="M243.498667 481.834667a42.666667 42.666667 0 0 1-60.330667 60.330666l-128-128a42.666667 42.666667 0 0 1 0-60.330666l128-128a42.666667 42.666667 0 1 1 60.330667 60.330666L145.664 384l97.834667 97.834667zM609.834667 652.501333a42.666667 42.666667 0 0 1 60.330666 60.330667l-128 128a42.666667 42.666667 0 0 1-60.330666 0l-128-128a42.666667 42.666667 0 0 1 60.330666-60.330667L512 750.336l97.834667-97.834667zM414.165333 115.498667a42.666667 42.666667 0 1 1-60.330666-60.330667l128-128a42.666667 42.666667 0 0 1 60.330666 0l128 128a42.666667 42.666667 0 0 1-60.330666 60.330667L512 17.664l-97.834667 97.834667zM780.501333 286.165333a42.666667 42.666667 0 0 1 60.330667-60.330666l128 128a42.666667 42.666667 0 0 1 0 60.330666l-128 128a42.666667 42.666667 0 0 1-60.330667-60.330666L878.336 384l-97.834667-97.834667zM85.333333 341.333333h853.333334a42.666667 42.666667 0 0 1 0 85.333334H85.333333a42.666667 42.666667 0 0 1 0-85.333334zM469.333333 810.666667v-853.333334a42.666667 42.666667 0 0 1 85.333334 0V810.666667a42.666667 42.666667 0 0 1-85.333334 0z"  horiz-adv-x="1024" />

    
    <glyph glyph-name="music" unicode="&#59549;" d="M426.666667 646.528V85.33333300000004a128 128 0 0 0-128-128H213.333333a128 128 0 0 0 0 256h128V682.666667a42.666667 42.666667 0 0 0 35.669334 42.069333l512 85.333333A42.666667 42.666667 0 0 0 938.666667 768v-597.333333a128 128 0 0 0-128-128h-85.333334a128 128 0 0 0 0 256h128V717.653333L426.666667 646.528zM341.333333 128H213.333333a42.666667 42.666667 0 0 1 0-85.333333h85.333334a42.666667 42.666667 0 0 1 42.666666 42.666666v42.666667z m512 85.333333h-128a42.666667 42.666667 0 0 1 0-85.333333h85.333334a42.666667 42.666667 0 0 1 42.666666 42.666667v42.666666z"  horiz-adv-x="1024" />

    
    <glyph glyph-name="navigation-" unicode="&#59550;" d="M293.845333 52.48l196.992 112.554667a42.666667 42.666667 0 0 0 42.325334 0l196.992-112.554667L512 644.565333 293.845333 52.48z m-59.306666-132.181333c-34.602667-19.754667-75.008 14.421333-61.226667 51.797333l298.666667 810.666667c13.696 37.205333 66.346667 37.205333 80.042666 0l298.666667-810.666667c13.781333-37.376-26.624-71.552-61.184-51.797333L512 78.848l-277.504-158.549333z"  horiz-adv-x="1024" />

    
    <glyph glyph-name="navigation" unicode="&#59551;" d="M479.701333 340.053333a42.666667 42.666667 0 0 0 31.018667-31.018666l56.405333-225.706667 281.856 594.986667-594.986666-281.856 225.706666-56.405334z m-362.069333 2.56c-38.826667 9.728-44.117333 62.805333-7.893333 79.957334l810.666666 384c36.266667 17.152 73.984-20.608 56.832-56.832l-384-810.666667c-17.152-36.224-70.229333-30.933333-79.957333 7.893333l-79.146667 316.501334-316.501333 79.146666z"  horiz-adv-x="1024" />

    
    </font>
</defs>
</svg>
