<?xml version="1.0" encoding="UTF-8" standalone="no"?>
<!DOCTYPE svg PUBLIC "-//W3C//DTD SVG 1.1//EN"
 "http://www.w3.org/Graphics/SVG/1.1/DTD/svg11.dtd">
<!-- Generated by graphviz version 2.40.1 (20161225.0304)
 -->
<!-- Title: dependencies Pages: 1 -->
<svg width="626pt" height="284pt"
 viewBox="0.00 0.00 626.00 284.00" xmlns="http://www.w3.org/2000/svg" xmlns:xlink="http://www.w3.org/1999/xlink">
<g id="graph0" class="graph" transform="scale(1 1) rotate(0) translate(4 280)">
<title>dependencies</title>
<polygon fill="#ffffff" stroke="transparent" points="-4,4 -4,-280 622,-280 622,4 -4,4"/>
<text text-anchor="start" x="288.0091" y="-42.4" font-family="sans-serif" font-weight="bold" font-size="14.00" fill="#000000">Legend</text>
<polygon fill="#ffffb3" stroke="transparent" points="75,-10 75,-30 95,-30 95,-10 75,-10"/>
<text text-anchor="start" x="98.629" y="-15.4" font-family="sans-serif" font-size="14.00" fill="#000000"> &#160;Declarations</text>
<polygon fill="#8dd3c7" stroke="transparent" points="188,-10 188,-30 208,-30 208,-10 188,-10"/>
<text text-anchor="start" x="211.7251" y="-15.4" font-family="sans-serif" font-size="14.00" fill="#000000"> &#160;Module</text>
<polygon fill="#80b1d3" stroke="transparent" points="274,-10 274,-30 294,-30 294,-10 274,-10"/>
<text text-anchor="start" x="297.7812" y="-15.4" font-family="sans-serif" font-size="14.00" fill="#000000"> &#160;Bootstrap</text>
<polygon fill="#fdb462" stroke="transparent" points="371,-10 371,-30 391,-30 391,-10 371,-10"/>
<text text-anchor="start" x="394.6732" y="-15.4" font-family="sans-serif" font-size="14.00" fill="#000000"> &#160;Providers</text>
<polygon fill="#fb8072" stroke="transparent" points="467,-10 467,-30 487,-30 487,-10 467,-10"/>
<text text-anchor="start" x="490.7258" y="-15.4" font-family="sans-serif" font-size="14.00" fill="#000000"> &#160;Exports</text>
<g id="clust1" class="cluster">
<title>cluster_LugarModule</title>
<polygon fill="none" stroke="#000000" stroke-dasharray="1,5" points="8,-70 8,-268 610,-268 610,-70 8,-70"/>
</g>
<g id="clust3" class="cluster">
<title>cluster_LugarModule_imports</title>
<polygon fill="none" stroke="#000000" points="216,-78 216,-130 602,-130 602,-78 216,-78"/>
</g>
<g id="clust4" class="cluster">
<title>cluster_LugarModule_exports</title>
<polygon fill="none" stroke="#000000" points="260,-208 260,-260 422,-260 422,-208 260,-208"/>
</g>
<g id="clust6" class="cluster">
<title>cluster_LugarModule_providers</title>
<polygon fill="none" stroke="#000000" points="16,-78 16,-130 208,-130 208,-78 16,-78"/>
</g>
<!-- ThemeModule -->
<g id="node1" class="node">
<title>ThemeModule</title>
<polygon fill="#8dd3c7" stroke="#000000" points="594.4231,-122 591.4231,-126 570.4231,-126 567.4231,-122 495.5769,-122 495.5769,-86 594.4231,-86 594.4231,-122"/>
<text text-anchor="middle" x="545" y="-99.8" font-family="Times,serif" font-size="14.00" fill="#000000">ThemeModule</text>
</g>
<!-- LugarModule -->
<g id="node4" class="node">
<title>LugarModule</title>
<polygon fill="#8dd3c7" stroke="#000000" points="387.4776,-187 384.4776,-191 363.4776,-191 360.4776,-187 294.5224,-187 294.5224,-151 387.4776,-151 387.4776,-187"/>
<text text-anchor="middle" x="341" y="-164.8" font-family="Times,serif" font-size="14.00" fill="#000000">LugarModule</text>
</g>
<!-- ThemeModule&#45;&gt;LugarModule -->
<g id="edge1" class="edge">
<title>ThemeModule&#45;&gt;LugarModule</title>
<path fill="none" stroke="#000000" d="M545,-122.1061C545,-141.3391 545,-169 545,-169 545,-169 397.546,-169 397.546,-169"/>
<polygon fill="#000000" stroke="#000000" points="397.5461,-165.5001 387.546,-169 397.546,-172.5001 397.5461,-165.5001"/>
</g>
<!-- LugarRoutingModule -->
<g id="node2" class="node">
<title>LugarRoutingModule</title>
<polygon fill="#8dd3c7" stroke="#000000" points="478.0954,-122 475.0954,-126 454.0954,-126 451.0954,-122 339.9046,-122 339.9046,-86 478.0954,-86 478.0954,-122"/>
<text text-anchor="middle" x="409" y="-99.8" font-family="Times,serif" font-size="14.00" fill="#000000">LugarRoutingModule</text>
</g>
<!-- LugarRoutingModule&#45;&gt;LugarModule -->
<g id="edge2" class="edge">
<title>LugarRoutingModule&#45;&gt;LugarModule</title>
<path fill="none" stroke="#000000" d="M363.7206,-122.1061C363.7206,-122.1061 363.7206,-140.991 363.7206,-140.991"/>
<polygon fill="#000000" stroke="#000000" points="360.2206,-140.9909 363.7206,-150.991 367.2206,-140.991 360.2206,-140.9909"/>
</g>
<!-- SharedModule -->
<g id="node3" class="node">
<title>SharedModule</title>
<polygon fill="#8dd3c7" stroke="#000000" points="322.4231,-122 319.4231,-126 298.4231,-126 295.4231,-122 223.5769,-122 223.5769,-86 322.4231,-86 322.4231,-122"/>
<text text-anchor="middle" x="273" y="-99.8" font-family="Times,serif" font-size="14.00" fill="#000000">SharedModule</text>
</g>
<!-- SharedModule&#45;&gt;LugarModule -->
<g id="edge3" class="edge">
<title>SharedModule&#45;&gt;LugarModule</title>
<path fill="none" stroke="#000000" d="M308.3612,-122.1061C308.3612,-122.1061 308.3612,-140.991 308.3612,-140.991"/>
<polygon fill="#000000" stroke="#000000" points="304.8612,-140.9909 308.3612,-150.991 311.8612,-140.991 304.8612,-140.9909"/>
</g>
<!-- CrudLugarComponent  -->
<g id="node5" class="node">
<title>CrudLugarComponent </title>
<polygon fill="#fb8072" stroke="#000000" points="414.2576,-252 267.7424,-252 267.7424,-216 414.2576,-216 414.2576,-252"/>
<text text-anchor="middle" x="341" y="-229.8" font-family="Times,serif" font-size="14.00" fill="#000000">CrudLugarComponent </text>
</g>
<!-- LugarModule&#45;&gt;CrudLugarComponent  -->
<g id="edge4" class="edge">
<title>LugarModule&#45;&gt;CrudLugarComponent </title>
<path fill="none" stroke="#000000" stroke-dasharray="5,2" d="M341,-187.1061C341,-187.1061 341,-205.991 341,-205.991"/>
<polygon fill="#000000" stroke="#000000" points="337.5001,-205.9909 341,-215.991 344.5001,-205.991 337.5001,-205.9909"/>
</g>
<!-- UbicacionesService -->
<g id="node6" class="node">
<title>UbicacionesService</title>
<ellipse fill="#fdb462" stroke="#000000" cx="112" cy="-104" rx="87.9374" ry="18"/>
<text text-anchor="middle" x="112" y="-99.8" font-family="Times,serif" font-size="14.00" fill="#000000">UbicacionesService</text>
</g>
<!-- UbicacionesService&#45;&gt;LugarModule -->
<g id="edge5" class="edge">
<title>UbicacionesService&#45;&gt;LugarModule</title>
<path fill="none" stroke="#000000" d="M112,-122.1061C112,-141.3391 112,-169 112,-169 112,-169 284.3824,-169 284.3824,-169"/>
<polygon fill="#000000" stroke="#000000" points="284.3824,-172.5001 294.3824,-169 284.3824,-165.5001 284.3824,-172.5001"/>
</g>
</g>
</svg>
