<?xml version="1.0" standalone="no"?>
<!DOCTYPE svg PUBLIC "-//W3C//DTD SVG 1.1//EN" "http://www.w3.org/Graphics/SVG/1.1/DTD/svg11.dtd" >
<svg xmlns="http://www.w3.org/2000/svg">
<metadata>Generated by IcoMoon</metadata>
<defs>
<font id="icomoon" horiz-adv-x="1024">
<font-face units-per-em="1024" ascent="960" descent="-64" />
<missing-glyph horiz-adv-x="1024" />
<glyph unicode="&#x20;" horiz-adv-x="512" d="" />
<glyph unicode="&#xe900;" glyph-name="nb-minimize" d="M298.667 234.667h-213.333v42.667h256v-256h-42.667v213.333zM384 320h-213.333v42.667h256v-256h-42.667v213.333zM640 576h213.333v-42.667h-256v256h42.667v-213.333zM725.333 661.333h213.333v-42.667h-256v256h42.667v-213.333z" />
<glyph unicode="&#xe901;" glyph-name="nb-maximize" d="M170.667 106.667h213.333v-42.667h-256v256h42.667v-213.333zM256 192h213.333v-42.667h-256v256h42.667v-213.333zM768 704h-213.333v42.667h256v-256h-42.667v213.333zM853.333 789.333h-213.333v42.667h256v-256h-42.667v213.333z" />
<glyph unicode="&#xe902;" glyph-name="nb-help" d="M339.826 240.817c3.614-2.983 4.952-6.425 5.439-10.24l-0.041-3.334-15.95-104.45c-1.229-8.048 7.657-13.748 14.47-9.268 35.623 23.37 62.353 40.893 80.19 52.572 8.922 5.842 15.621 10.222 20.099 13.142 3.085 2.010 3.085 2.010 5.074 3.3 0.192 0.994 0.192 0.994 11.247 2.627l1.831-0.498c24.663-4.801 46.073-6.965 69.146-6.965 172.449 0 311.334 135.691 311.334 304.055 0 168.38-138.881 304.076-311.334 304.076s-311.334-135.695-311.334-304.076c0-94.552 43.943-183.069 119.828-240.94zM195.967 481.757c0 181.779 149.763 328.107 335.365 328.107s335.365-146.328 335.365-328.107c0-181.762-149.768-328.086-335.365-328.086-23.808 0-46.022 2.163-71.71 7.042-0.557-0.362-1.282-0.835-2.461-1.603-4.463-2.91-11.151-7.284-20.062-13.118-17.83-11.674-44.554-29.194-80.161-52.553-24.19-15.906-55.788 4.363-51.418 32.982l15.1 98.887c-78.992 62.451-124.652 156.333-124.652 256.45zM531.332 392.166c-12.373 0-20.648 8.057-20.648 20.151v66.492c0 12.095 8.274 20.151 20.648 20.151 28.903 0 51.619 22.17 51.619 50.378s-22.716 50.378-51.619 50.378c-28.903 0-51.619-22.17-51.619-50.378 0-12.076-8.255-20.133-20.629-20.133-12.412 0-20.667 8.057-20.667 20.133 0 50.378 41.295 90.681 92.915 90.681s92.915-40.284 92.915-90.681c0-42.303-30.991-78.587-72.267-88.662v-48.36c0-10.076-8.274-20.151-20.648-20.151zM558.379 332.398c0-13.347-11.090-24.17-24.766-24.17s-24.766 10.823-24.766 24.17c0 13.347 11.090 24.17 24.766 24.17s24.766-10.823 24.766-24.17z" />
<glyph unicode="&#xe903;" glyph-name="nb-fold" d="M175.216 422.745v50.51h673.568v-50.51z" />
<glyph unicode="&#xe904;" glyph-name="nb-danger" d="M682.139 717.632l-21.907 37.568h-298.028l-22.144-36.203c-8.48-13.865-18.958-26.423-31.135-37.321-11.099-9.931-23.436-18.322-36.673-24.935l-41.852-20.915v-143.77c0-85.441 27.19-166.521 78.709-234.706 45.383-60.064 106.548-105.358 176.926-131.028l25.965-9.471 25.965 9.471c70.378 25.67 131.543 70.964 176.924 131.027 51.52 68.187 78.71 149.265 78.71 234.707v139.395l-41.839 20.917c-29.131 14.563-53.223 37.147-69.622 65.264zM763.208 675.265l55.992-27.992v-155.218c0-91.014-29.008-177.51-83.885-250.14-48.352-63.994-113.562-112.282-188.577-139.644l-34.737-12.671-34.738 12.671c-75.016 27.362-140.226 75.65-188.579 139.645-54.878 72.63-83.884 159.129-83.884 250.139v159.596l56.008 27.99c11.204 5.597 21.647 12.702 31.046 21.113 10.319 9.235 19.19 19.867 26.367 31.601l29.632 48.446h327.085l29.316-50.273c13.889-23.815 34.275-42.925 58.954-55.262zM587.358 556.253l-23.797-65.803-51.2 162.35-51.921-162.35-23.797 65.803-50.554-138.763c-1.38-3.788-2.088-7.817-2.088-11.88 0-75.3 57.080-136.385 127.639-136.8 71.28 0.415 128.361 61.499 128.361 136.8 0 4.064-0.708 8.092-2.088 11.88l-50.554 138.763z" />
<glyph unicode="&#xe905;" glyph-name="nb-collapse" d="M896 960h-768c-70.692 0-128-57.308-128-128v0-768c0-70.692 57.308-128 128-128v0h768c70.692 0 128 57.308 128 128v0 768c0 70.692-57.308 128-128 128v0zM960 64c0-35.346-28.654-64-64-64v0h-768c-35.346 0-64 28.654-64 64v0 768c0 35.346 28.654 64 64 64v0h768c35.346 0 64-28.654 64-64v0zM573.76 508.48h223.68v63.68h-117.12l152.64 152.64-45.12 45.12-151.68-151.68v115.2h-63.68v-223.68h1.28v-1.28zM450.24 387.52h-223.68v-63.68h117.12l-152.64-152.64 45.12-45.12 151.68 151.68v-115.2h63.68v223.68h-1.28v1.28zM797.44 323.84v63.68h-223.68v-1.28h-1.28v-223.68h63.68v117.12l152.64-152.64 45.12 45.12-151.68 151.68h115.2zM387.84 616.32l-152.64 152.64-45.12-45.12 151.68-151.68h-115.2v-63.68h223.68v1.28h1.28v223.68h-63.68v-117.12z" />
<glyph unicode="&#xe906;" glyph-name="nb-checkmark-circle" d="M512 89.6c-197.939 0-358.4 160.461-358.4 358.4s160.461 358.4 358.4 358.4c197.939 0 358.4-160.461 358.4-358.4s-160.461-358.4-358.4-358.4zM512 115.2c183.8 0 332.8 149 332.8 332.8s-149 332.8-332.8 332.8c-183.8 0-332.8-149-332.8-332.8s149-332.8 332.8-332.8zM620.308 552.281c8.108 11.583 24.070 14.4 35.653 6.292s14.4-24.070 6.292-35.653l-141.409-202.013-128.912 107.427c-10.861 9.051-12.329 25.194-3.278 36.055s25.194 12.329 36.055 3.278l86.128-71.773 109.471 156.387z" />
<glyph unicode="&#xe907;" glyph-name="nb-e-commerce" horiz-adv-x="1004" d="M901.12 714.24c-4.096 0-12.288 4.096-16.384 8.192l-126.976 155.648h-532.48l-126.976-155.648c-8.192-8.192-20.48-12.288-28.672-4.096s-12.288 20.48-4.096 28.672l135.168 163.84c4.096 8.192 12.288 8.192 16.384 8.192h552.96c8.192 0 12.288-4.096 16.384-8.192l131.072-163.84c8.192-8.192 4.096-20.48-4.096-28.672-4.096-4.096-8.192-4.096-12.288-4.096zM819.2-23.040h-655.36c-57.344 0-102.4 45.056-102.4 102.4v655.36c0 12.288 8.192 20.48 20.48 20.48h819.2c12.288 0 20.48-8.192 20.48-20.48v-655.36c0-57.344-45.056-102.4-102.4-102.4zM102.4 714.24v-634.88c0-32.768 28.672-61.44 61.44-61.44h655.36c32.768 0 61.44 28.672 61.44 61.44v634.88h-778.24zM491.52 345.6c-102.4 0-184.32 81.92-184.32 184.32 0 12.288 8.192 20.48 20.48 20.48s20.48-8.192 20.48-20.48c0-77.824 65.536-143.36 143.36-143.36s143.36 65.536 143.36 143.36c0 12.288 8.192 20.48 20.48 20.48s20.48-8.192 20.48-20.48c0-102.4-81.92-184.32-184.32-184.32z" />
<glyph unicode="&#xe908;" glyph-name="nb-info" d="M979.478 448c0 258.175-209.303 467.478-467.478 467.478s-467.478-209.303-467.478-467.478c0-258.175 209.303-467.478 467.478-467.478s467.478 209.303 467.478 467.478zM1024 448c0-282.764-229.236-512-512-512s-512 229.236-512 512c0 282.764 229.236 512 512 512s512-229.236 512-512zM489.739 692.87h66.783l-9.918-353.749h-48.269l-8.596 353.749zM503.625 205.555c-3.086 0-5.731 1.102-7.935 3.306s-3.306 4.849-3.306 7.935v57.526c0 7.935 3.747 11.902 11.241 11.902h37.689c7.935 0 11.902-3.967 11.902-11.902v-57.526c0-7.494-3.967-11.241-11.902-11.241h-37.689z" />
<glyph unicode="&#xe909;" glyph-name="nb-expand" d="M896 960h-768c-70.692 0-128-57.308-128-128v0-768c0-70.692 57.308-128 128-128v0h768c70.692 0 128 57.308 128 128v0 768c0 70.692-57.308 128-128 128v0zM960 64c0-35.346-28.654-64-64-64v0h-768c-35.346 0-64 28.654-64 64v0 768c0 35.346 28.654 64 64 64v0h768c35.346 0 64-28.654 64-64v0zM831.36 769.92h-223.68v-63.68h117.44l-152.64-152.64 45.12-45.12 151.36 151.36v-114.88h64v223.36h-1.6v1.6zM192.64 126.080h223.68v63.68h-117.12l152.32 152.64-45.12 45.12-151.36-151.36v114.88h-64v-223.36h1.6v-1.6zM608.96 191.040v-64h223.36v1.6h1.6v223.68h-63.68v-117.44l-152.64 152.64-45.12-45.12 151.36-151.36h-114.88zM253.76 660.8l152.64-152.32 45.12 45.12-151.36 151.36h114.88v64h-223.36v-1.6h-1.6v-223.68h63.68v117.12z" />
<glyph unicode="&#xe90a;" glyph-name="nb-drops" d="M311.766 917.035l-272.756-490.775c-67.351-121.111-45.94-274.246 52.131-372.177 60.788-60.835 140.707-91.229 220.625-91.229s159.837 30.394 220.625 91.229c98.071 97.932 119.482 251.066 52.131 372.177l-272.756 490.775zM994.583 665.559l-144.617 260.143-144.617-260.143c-35.654-64.233-24.343-145.408 27.648-197.353 31.232-31.232 72.751-48.454 116.969-48.454 44.172 0 85.69 17.222 116.969 48.454 51.945 51.945 63.302 133.12 27.648 197.353z" />
<glyph unicode="&#xe90b;" glyph-name="nb-drop" d="M512 777.143l-191.968-338.584c-47.402-83.554-32.333-189.201 36.69-256.764 42.783-41.97 99.031-62.939 155.278-62.939s112.495 20.969 155.278 62.939c69.023 67.563 84.093 173.209 36.69 256.764l-191.968 338.584zM512 777.143l-191.968-338.584c-47.402-83.554-32.333-189.201 36.69-256.764 42.783-41.97 99.031-62.939 155.278-62.939s112.495 20.969 155.278 62.939c69.023 67.563 84.093 173.209 36.69 256.764l-191.968 338.584z" />
<glyph unicode="&#xe90c;" glyph-name="nb-volume-mute" d="M736.794 704.358c0 8.483-6.877 15.36-15.36 15.36v0h-0.947c-0.275 0.018-0.596 0.028-0.92 0.028-3.521 0-6.766-1.185-9.356-3.178l0.036 0.027-204.8-156.621c-1.034-0.805-1.934-1.706-2.714-2.705l-0.026-0.034c-6.096 3.22-13.322 5.114-20.99 5.12h-139.138c-25.449 0-46.080-20.631-46.080-46.080v0-139.034c0-25.449 20.631-46.080 46.080-46.080v0h139.034c0.010 0 0.022 0 0.033 0 8.216 0 15.927 2.165 22.593 5.955l-0.226-0.118c0.933-1.334 2.024-2.474 3.266-3.429l0.036-0.027 204.8-156.621c2.554-1.964 5.797-3.148 9.316-3.148 8.483 0 15.36 6.877 15.36 15.36 0 0.297-0.008 0.592-0.025 0.884l0.002-0.041c0 0.23 0 0.461 0 0.691zM496.973 377.19c0-8.483-6.877-15.36-15.36-15.36v0h-139.034c-8.483 0-15.36 6.877-15.36 15.36v0 139.059c0 8.483 6.877 15.36 15.36 15.36v0h139.034c8.483 0 15.36-6.877 15.36-15.36v0zM524.006 359.27c2.319 5.284 3.674 11.442 3.686 17.915v139.064c-0.005 6.889-1.533 13.42-4.265 19.276l0.118-0.281 0.461 0.307 182.067 139.238v-454.63l-180.096 137.728c-0.57 0.432-1.215 0.848-1.89 1.214l-0.081 0.040z" />
<glyph unicode="&#xe90d;" glyph-name="nb-volume-high" d="M549.914 722.278h-0.947c-0.275 0.018-0.596 0.028-0.92 0.028-3.521 0-6.766-1.185-9.356-3.178l0.036 0.027-204.8-156.621c-1.034-0.805-1.934-1.706-2.714-2.705l-0.026-0.034c-6.096 3.22-13.322 5.114-20.99 5.12h-139.138c-25.449 0-46.080-20.631-46.080-46.080v0-139.034c0-25.449 20.631-46.080 46.080-46.080v0h139.034c0.010 0 0.022 0 0.033 0 8.216 0 15.927 2.165 22.593 5.955l-0.226-0.118c0.933-1.334 2.024-2.474 3.266-3.429l0.036-0.027 204.8-156.621c2.554-1.964 5.797-3.148 9.316-3.148 8.483 0 15.36 6.877 15.36 15.36 0 0.297-0.008 0.592-0.025 0.884l0.002-0.041c0 0.23 0 0.461 0 0.691v513.69c0 0 0 0 0 0 0 8.474-6.862 15.345-15.333 15.36h-0.001zM325.453 379.75c0-8.483-6.877-15.36-15.36-15.36v0h-139.034c-8.483 0-15.36 6.877-15.36 15.36v0 139.059c0 8.483 6.877 15.36 15.36 15.36v0h139.034c8.483 0 15.36-6.877 15.36-15.36v0zM352.486 361.83c2.319 5.284 3.674 11.442 3.686 17.915v139.064c-0.005 6.889-1.533 13.42-4.265 19.276l0.118-0.281 0.461 0.307 182.067 139.238v-454.63l-180.096 137.728c-0.57 0.432-1.215 0.848-1.89 1.214l-0.081 0.040zM719.488 610.995c-2.614 2.123-5.982 3.409-9.651 3.409-8.486 0-15.365-6.879-15.365-15.365 0-4.817 2.216-9.116 5.685-11.933l0.028-0.022c39.333-31.91 64.266-80.244 64.266-134.401 0-55.759-26.429-105.345-67.444-136.915l-0.406-0.3c-3.57-2.838-5.839-7.181-5.839-12.053 0-8.483 6.877-15.36 15.36-15.36 3.442 0 6.62 1.132 9.181 3.045l-0.040-0.029c48.804 37.544 79.945 95.964 79.945 161.658 0 63.806-29.377 120.75-75.343 158.046l-0.378 0.297zM792.883 672.819c-2.614 2.123-5.982 3.409-9.651 3.409-8.486 0-15.365-6.879-15.365-15.365 0-4.817 2.216-9.116 5.685-11.933l0.028-0.022c58.88-47.462 94.72-123.904 93.773-199.501s-38.938-151.040-98.995-196.966c-3.57-2.838-5.839-7.181-5.839-12.053 0-8.483 6.877-15.36 15.36-15.36 3.442 0 6.62 1.132 9.181 3.045l-0.040-0.029c67.379 51.482 109.926 136.166 111.053 220.954s-39.194 170.522-105.19 223.821zM653.466 550.4c-2.614 2.123-5.982 3.409-9.651 3.409-8.486 0-15.365-6.879-15.365-15.365 0-4.817 2.216-9.116 5.685-11.933l0.028-0.022c21.616-17.542 35.317-44.109 35.317-73.876 0-30.648-14.524-57.903-37.065-75.259l-0.223-0.165c-3.57-2.838-5.839-7.181-5.839-12.053 0-8.483 6.877-15.36 15.36-15.36 3.442 0 6.62 1.132 9.181 3.045l-0.040-0.029c30.112 23.191 49.324 59.256 49.324 99.809 0 39.408-18.142 74.578-46.531 97.615l-0.233 0.183z" />
<glyph unicode="&#xe90e;" glyph-name="nb-trash" d="M790.733 672.768h-162.97v60.39c-0.015 13.708-11.124 24.817-24.831 24.832h-172.008c-13.708-0.015-24.817-11.124-24.832-24.831v-60.391h-167.706c-8.483 0-15.36-6.877-15.36-15.36s6.877-15.36 15.36-15.36v0h32.307v-392.346c0.073-61.402 49.83-111.159 111.225-111.232h265.274c61.402 0.073 111.159 49.83 111.232 111.225v392.353h32.307c8.483 0 15.36 6.877 15.36 15.36s-6.877 15.36-15.36 15.36v0zM436.813 727.27h160.23v-54.502h-160.23zM727.706 249.702c-0.058-44.442-36.070-80.454-80.506-80.512h-265.273c-44.442 0.058-80.454 36.070-80.512 80.506v392.352h426.291zM515.277 249.37c8.483 0 15.36 6.877 15.36 15.36v0 286.413c0 8.483-6.877 15.36-15.36 15.36s-15.36-6.877-15.36-15.36v0-286.413c0-8.483 6.877-15.36 15.36-15.36v0zM419.84 286.464c8.483 0 15.36 6.877 15.36 15.36v0 211.456c0 8.483-6.877 15.36-15.36 15.36s-15.36-6.877-15.36-15.36v0-211.456c0-8.483 6.877-15.36 15.36-15.36v0zM608.384 286.464c8.483 0 15.36 6.877 15.36 15.36v0 211.456c0 8.483-6.877 15.36-15.36 15.36s-15.36-6.877-15.36-15.36v0-211.456c0-8.483 6.877-15.36 15.36-15.36v0z" />
<glyph unicode="&#xe90f;" glyph-name="nb-title" d="M764.365 767.053h-479.13c-0.015 0-0.033 0-0.051 0-16.109 0-29.169-13.052-29.184-29.157v-158.567c0.015-16.098 13.060-29.144 29.157-29.158h87.323c16.098 0.015 29.144 13.060 29.158 29.157v42.113h50.867v-313.984h-51.789c-16.098-0.015-29.144-13.060-29.158-29.157v-87.323c0.015-16.098 13.060-29.144 29.157-29.158h248.193c16.098 0.015 29.144 13.060 29.158 29.157v87.323c-0.015 16.098-13.060 29.144-29.157 29.158h-50.715v313.984h49.715v-42.112c0.015-16.098 13.060-29.144 29.157-29.158h87.323c0.008 0 0.017 0 0.026 0 16.109 0 29.169 13.052 29.184 29.157v158.567c-0.015 16.107-13.075 29.158-29.184 29.158-0.018 0-0.036 0-0.054 0h0.003zM762.88 580.915h-84.275v71.245h-111.13v-375.424h79.846v-84.173h-245.043v84.173h80.998v375.424h-112.282v-71.245h-84.275v155.418h476.16zM778.24 132.173h-506.88c-8.483 0-15.36-6.877-15.36-15.36s6.877-15.36 15.36-15.36v0h506.88c8.483 0 15.36 6.877 15.36 15.36s-6.877 15.36-15.36 15.36v0z" />
<glyph unicode="&#xe910;" glyph-name="nb-tables" d="M814.080 775.68h-573.44c-25.449 0-46.080-20.631-46.080-46.080v0-573.44c0-25.449 20.631-46.080 46.080-46.080v0h573.44c25.449 0 46.080 20.631 46.080 46.080v0 573.44c0 25.449-20.631 46.080-46.080 46.080v0zM225.28 729.6c-0.013 0.233-0.020 0.506-0.020 0.781s0.007 0.548 0.021 0.819l-0.002-0.038c0.388 3.657 2.007 6.876 4.429 9.293v0q0.512 0.512 1.101 0.998c2.633 2.183 6.047 3.507 9.77 3.507 0.021 0 0.043 0 0.064 0h573.437c3.717-0.004 7.124-1.328 9.779-3.528l-0.026 0.021q0.563-0.461 1.101-0.998c2.45-2.408 4.095-5.628 4.499-9.223l0.006-0.070c0.013-0.233 0.020-0.506 0.020-0.781s-0.007-0.548-0.021-0.819l0.002 0.038v-72.704h-604.16zM829.44 156.16c0-8.483-6.877-15.36-15.36-15.36v0h-573.44c-8.483 0-15.36 6.877-15.36 15.36v0 470.016h604.16zM324.582 181.76h125.978c25.449 0 46.080 20.631 46.080 46.080v0 313.344c0 25.449-20.631 46.080-46.080 46.080v0h-125.978c-25.449 0-46.080-20.631-46.080-46.080v0-313.344c0-25.449 20.631-46.080 46.080-46.080v0zM309.222 541.184c0 8.483 6.877 15.36 15.36 15.36v0h125.978c8.483 0 15.36-6.877 15.36-15.36v0-313.344c0-8.483-6.877-15.36-15.36-15.36v0h-125.978c-8.483 0-15.36 6.877-15.36 15.36v0zM606.182 181.76h125.978c25.449 0 46.080 20.631 46.080 46.080v0 313.344c0 25.449-20.631 46.080-46.080 46.080v0h-125.978c-25.449 0-46.080-20.631-46.080-46.080v0-313.344c0-25.449 20.631-46.080 46.080-46.080v0zM590.822 541.184c0 8.483 6.877 15.36 15.36 15.36v0h125.978c8.483 0 15.36-6.877 15.36-15.36v0-313.344c0-8.483-6.877-15.36-15.36-15.36v0h-125.978c-8.483 0-15.36 6.877-15.36 15.36v0zM298.906 700.186c0-9.232-7.484-16.717-16.717-16.717s-16.717 7.484-16.717 16.717c0 9.232 7.484 16.717 16.717 16.717s16.717-7.484 16.717-16.717zM360.73 700.186c0-9.232-7.484-16.717-16.717-16.717s-16.717 7.484-16.717 16.717c0 9.232 7.484 16.717 16.717 16.717s16.717-7.484 16.717-16.717zM422.554 700.186c0-9.232-7.484-16.717-16.717-16.717s-16.717 7.484-16.717 16.717c0 9.232 7.484 16.717 16.717 16.717s16.717-7.484 16.717-16.717z" />
<glyph unicode="&#xe911;" glyph-name="nb-sunny" d="M504.32 712.909c-146.305 0-264.909-118.604-264.909-264.909s118.604-264.909 264.909-264.909c146.305 0 264.909 118.604 264.909 264.909v0c-0.175 146.235-118.674 264.734-264.892 264.909h-0.017zM504.32 213.709c-129.339 0-234.189 104.85-234.189 234.189s104.85 234.189 234.189 234.189c129.303 0 234.13-104.791 234.189-234.081v-0.006c-0.146-129.28-104.908-234.043-234.175-234.189h-0.014zM504.32 779.341c8.483 0 15.36 6.877 15.36 15.36v0 88.499c0 8.483-6.877 15.36-15.36 15.36s-15.36-6.877-15.36-15.36v0-88.499c0-8.483 6.877-15.36 15.36-15.36v0zM670.003 734.95c2.204-1.295 4.854-2.060 7.683-2.060 5.66 0 10.605 3.062 13.27 7.619l0.039 0.073 44.237 76.621c1.209 2.144 1.921 4.708 1.921 7.437 0 8.483-6.877 15.36-15.36 15.36-5.556 0-10.424-2.95-13.121-7.37l-0.038-0.068-44.262-76.621c-1.295-2.204-2.060-4.854-2.060-7.683 0-5.66 3.062-10.605 7.619-13.27l0.073-0.039zM804.582 605.978c0.005 0 0.011 0 0.017 0 2.821 0 5.464 0.76 7.736 2.087l-0.073-0.039 76.646 44.237c4.487 2.735 7.437 7.603 7.437 13.159 0 8.483-6.877 15.36-15.36 15.36-2.73 0-5.293-0.712-7.515-1.961l0.077 0.040-76.646-44.237c-4.633-2.703-7.697-7.65-7.697-13.312 0-8.483 6.877-15.36 15.36-15.36 0.006 0 0.012 0 0.018 0h-0.001zM939.52 463.36h-88.499c-8.483 0-15.36-6.877-15.36-15.36s6.877-15.36 15.36-15.36v0h88.499c8.483 0 15.36 6.877 15.36 15.36s-6.877 15.36-15.36 15.36v0zM888.883 243.712l-76.646 44.237c-2.26 1.382-4.996 2.201-7.923 2.201-8.483 0-15.36-6.877-15.36-15.36 0-5.753 3.163-10.768 7.845-13.399l0.077-0.040 76.646-44.237c2.144-1.209 4.708-1.921 7.437-1.921 8.483 0 15.36 6.877 15.36 15.36 0 5.556-2.95 10.424-7.37 13.121l-0.068 0.038zM690.97 155.418c-2.735 4.487-7.603 7.437-13.159 7.437-8.483 0-15.36-6.877-15.36-15.36 0-2.73 0.712-5.293 1.961-7.515l-0.040 0.077 44.237-76.646c2.735-4.487 7.603-7.437 13.159-7.437 8.483 0 15.36 6.877 15.36 15.36 0 2.73-0.712 5.293-1.961 7.515l0.040-0.077zM504.32 116.659c-8.483 0-15.36-6.877-15.36-15.36v0-88.499c0-8.483 6.877-15.36 15.36-15.36s15.36 6.877 15.36 15.36v0 88.499c0 8.483-6.877 15.36-15.36 15.36v0zM338.637 161.050c-2.204 1.295-4.854 2.060-7.683 2.060-5.66 0-10.605-3.062-13.27-7.619l-0.039-0.073-44.237-76.621c-1.382-2.26-2.201-4.996-2.201-7.923 0-8.483 6.877-15.36 15.36-15.36 5.753 0 10.768 3.163 13.399 7.845l0.040 0.077 44.237 76.646c1.292 2.202 2.055 4.849 2.055 7.675 0 5.648-3.048 10.584-7.589 13.252l-0.072 0.039zM196.378 287.949l-76.621-44.237c-4.759-2.671-7.923-7.686-7.923-13.439 0-8.483 6.877-15.36 15.36-15.36 2.927 0 5.662 0.819 7.99 2.239l-0.068-0.038 76.646 44.237c4.759 2.671 7.923 7.686 7.923 13.439 0 8.483-6.877 15.36-15.36 15.36-2.927 0-5.662-0.819-7.99-2.239l0.068 0.038zM172.979 448c0 8.483-6.877 15.36-15.36 15.36v0h-88.499c-8.483 0-15.36-6.877-15.36-15.36s6.877-15.36 15.36-15.36v0h88.499c8.483 0 15.36 6.877 15.36 15.36v0zM211.738 634.65l-76.621 44.262c-2.144 1.209-4.708 1.921-7.437 1.921-8.483 0-15.36-6.877-15.36-15.36 0-5.556 2.95-10.424 7.37-13.121l0.068-0.038 76.646-44.237c2.144-1.209 4.708-1.921 7.437-1.921 8.483 0 15.36 6.877 15.36 15.36 0 5.556-2.95 10.424-7.37 13.121l-0.068 0.038zM317.67 740.582c2.735-4.487 7.603-7.437 13.159-7.437 8.483 0 15.36 6.877 15.36 15.36 0 2.73-0.712 5.293-1.961 7.515l0.040-0.077-44.237 76.621c-2.735 4.487-7.603 7.437-13.159 7.437-8.483 0-15.36-6.877-15.36-15.36 0-2.73 0.712-5.293 1.961-7.515l-0.040 0.077zM480 618.803c-69.121-13.782-123.843-63.92-143.979-129.227l-0.354-1.333c-0.496-1.445-0.783-3.109-0.783-4.84 0-8.483 6.877-15.36 15.36-15.36 7.035 0 12.966 4.73 14.785 11.183l0.026 0.108c17.166 55.772 62.975 97.73 119.827 109.093l1.005 0.168c7.126 1.428 12.419 7.635 12.419 15.078 0 8.485-6.878 15.363-15.363 15.363-1.042 0-2.059-0.104-3.042-0.301l0.098 0.016z" />
<glyph unicode="&#xe912;" glyph-name="nb-sunny-circled" d="M514.56 940.877c-273.203 0-495.411-222.234-495.411-495.437s222.208-495.36 495.36-495.36 495.36 222.208 495.36 495.36-222.234 495.437-495.309 495.437zM514.56-19.123c-256.205 0-464.64 208.435-464.64 464.64s208.384 464.64 464.64 464.64 464.64-208.435 464.64-464.64-208.486-464.64-464.64-464.64zM519.68 629.914c-0.061 0-0.133 0-0.205 0-100.496 0-181.965-81.468-181.965-181.965s81.468-181.965 181.965-181.965c100.496 0 181.965 81.468 181.965 181.965 0 0.018 0 0.036 0 0.054v-0.003c-0.145 100.356-81.417 181.681-181.738 181.914h-0.022zM519.68 296.73c-0.061 0-0.133 0-0.205 0-83.53 0-151.245 67.715-151.245 151.245s67.715 151.245 151.245 151.245c83.521 0 151.23-67.7 151.245-151.218v-0.002c-0.073-83.434-67.624-151.067-151.021-151.27h-0.019zM519.68 664.064c8.483 0 15.36 6.877 15.36 15.36v0 59.059c0 8.483-6.877 15.36-15.36 15.36s-15.36-6.877-15.36-15.36v0-59.059c0-8.483 6.877-15.36 15.36-15.36v0zM627.661 635.11c2.204-1.295 4.854-2.060 7.683-2.060 5.66 0 10.605 3.062 13.27 7.619l0.039 0.073 29.542 51.2c1.382 2.26 2.201 4.996 2.201 7.923 0 8.483-6.877 15.36-15.36 15.36-5.753 0-10.768-3.163-13.399-7.845l-0.040-0.077-29.542-51.2c-1.299-2.206-2.066-4.861-2.066-7.694 0-5.652 3.053-10.592 7.6-13.259l0.072-0.039zM720.077 548.326c0.005 0 0.011 0 0.017 0 2.821 0 5.464 0.76 7.736 2.087l-0.073-0.039 51.2 29.542c4.759 2.671 7.923 7.686 7.923 13.439 0 8.483-6.877 15.36-15.36 15.36-2.927 0-5.662-0.819-7.99-2.239l0.068 0.038-51.2-29.542c-4.633-2.703-7.697-7.65-7.697-13.312 0-8.483 6.877-15.36 15.36-15.36 0.006 0 0.012 0 0.018 0h-0.001zM810.138 463.36h-59.085c-8.483 0-15.36-6.877-15.36-15.36s6.877-15.36 15.36-15.36v0h59.085c8.483 0 15.36 6.877 15.36 15.36s-6.877 15.36-15.36 15.36v0zM778.906 316.006l-51.2 29.542c-2.26 1.382-4.996 2.201-7.923 2.201-8.483 0-15.36-6.877-15.36-15.36 0-5.753 3.163-10.768 7.845-13.399l0.077-0.040 51.2-29.542c2.26-1.382 4.996-2.201 7.923-2.201 8.483 0 15.36 6.877 15.36 15.36 0 5.753-3.163 10.768-7.845 13.399l-0.077 0.040zM648.653 255.206c-2.671 4.759-7.686 7.923-13.439 7.923-8.483 0-15.36-6.877-15.36-15.36 0-2.927 0.819-5.662 2.239-7.99l-0.038 0.068 29.542-51.2c2.735-4.487 7.603-7.437 13.159-7.437 8.483 0 15.36 6.877 15.36 15.36 0 2.73-0.712 5.293-1.961 7.515l0.040-0.077zM519.68 231.885c-8.483 0-15.36-6.877-15.36-15.36v0-59.085c0-8.483 6.877-15.36 15.36-15.36s15.36 6.877 15.36 15.36v0 59.085c0 8.483-6.877 15.36-15.36 15.36v0zM411.571 260.838c-2.204 1.295-4.854 2.060-7.683 2.060-5.66 0-10.605-3.062-13.27-7.619l-0.039-0.073-29.542-51.2c-1.382-2.26-2.201-4.996-2.201-7.923 0-8.483 6.877-15.36 15.36-15.36 5.753 0 10.768 3.163 13.399 7.845l0.040 0.077 29.542 51.2c1.299 2.206 2.066 4.861 2.066 7.694 0 5.652-3.053 10.592-7.6 13.259l-0.072 0.039zM311.501 345.6l-51.2-29.542c-4.759-2.671-7.923-7.686-7.923-13.439 0-8.483 6.877-15.36 15.36-15.36 2.927 0 5.662 0.819 7.99 2.239l-0.068-0.038 51.2 29.542c4.487 2.735 7.437 7.603 7.437 13.159 0 8.483-6.877 15.36-15.36 15.36-2.73 0-5.293-0.712-7.515-1.961l0.077 0.040zM303.514 448c0 8.483-6.877 15.36-15.36 15.36v0h-59.059c-8.483 0-15.36-6.877-15.36-15.36s6.877-15.36 15.36-15.36v0h59.085c8.472 0.015 15.334 6.886 15.334 15.36 0 0 0 0 0 0v0zM326.861 576.998l-51.2 29.542c-2.144 1.209-4.708 1.921-7.437 1.921-8.483 0-15.36-6.877-15.36-15.36 0-5.556 2.95-10.424 7.37-13.121l0.068-0.038 51.2-29.542c2.144-1.209 4.708-1.921 7.437-1.921 8.483 0 15.36 6.877 15.36 15.36 0 5.556-2.95 10.424-7.37 13.121l-0.068 0.038zM390.579 640.717c2.735-4.487 7.603-7.437 13.159-7.437 8.483 0 15.36 6.877 15.36 15.36 0 2.73-0.712 5.293-1.961 7.515l0.040-0.077-29.542 51.2c-2.735 4.487-7.603 7.437-13.159 7.437-8.483 0-15.36-6.877-15.36-15.36 0-2.73 0.712-5.293 1.961-7.515l-0.040 0.077zM502.4 566.989c-48.001-9.57-86.005-44.379-100.003-89.723l-0.246-0.926c-0.496-1.445-0.783-3.109-0.783-4.84 0-8.483 6.877-15.36 15.36-15.36 7.035 0 12.966 4.73 14.785 11.183l0.026 0.108c10.914 35.437 40.031 62.091 76.162 69.295l0.638 0.106c7.126 1.428 12.419 7.635 12.419 15.078 0 8.485-6.878 15.363-15.363 15.363-1.042 0-2.059-0.104-3.042-0.301l0.098 0.016z" />
<glyph unicode="&#xe913;" glyph-name="nb-star" d="M846.080 519.962c0.242 0.388 0.498 0.858 0.729 1.342l0.039 0.091c0.179 0.41 0.358 0.819 0.512 1.229 0.139 0.371 0.288 0.858 0.413 1.355l0.022 0.105c0 0.461 0.205 0.947 0.282 1.408s0 0.435 0.128 0.64c0.013 0.241 0.021 0.523 0.021 0.806s-0.008 0.566-0.023 0.845l0.002-0.039c-0.004 1.017-0.106 2.007-0.298 2.965l0.016-0.098c-0.21 1.057-0.493 1.983-0.856 2.867l0.037-0.102c-0.412 0.985-0.866 1.826-1.392 2.616l0.035-0.056c-0.582 0.883-1.206 1.654-1.897 2.358l0.002-0.002c-0.681 0.678-1.426 1.293-2.225 1.834l-0.054 0.034h-0.205c-0.731 0.472-1.574 0.91-2.457 1.269l-0.103 0.037h-0.256c-0.718 0.297-1.575 0.561-2.459 0.75l-0.101 0.018h-0.256l-1.126 0.179-204.672 22.195-101.376 185.882-0.384 0.538-0.512 0.666-0.461 0.538-0.538 0.589-0.538 0.512-0.563 0.486-0.614 0.461-0.589 0.41-0.691 0.435-0.589 0.333-0.794 0.384-0.435 0.205h-0.179l-0.768 0.282-0.691 0.23-0.589 0.154-0.896 0.205h-0.41l-1.075 0.154h-3.533l-0.87-0.128-0.666-0.154-0.794-0.205-0.589-0.205-0.845-0.307-0.486-0.23-0.896-0.435-0.307-0.205-0.87-0.538-0.461-0.333-0.742-0.563-0.486-0.41-0.614-0.589-0.486-0.512-0.512-0.589-0.461-0.589-0.435-0.614-0.435-0.691-0.333-0.589c-0.154-0.256-0.282-0.538-0.41-0.819l-0.205-0.41-81.203-188.954-205.082-22.272c-0.985-0.207-1.842-0.471-2.663-0.805l0.103 0.037h-0.307c-0.929-0.387-1.72-0.808-2.466-1.291l0.060 0.036-0.23-0.154c-0.833-0.563-1.561-1.161-2.229-1.819l0.002 0.002c-0.688-0.688-1.312-1.442-1.86-2.25l-0.034-0.054c-0.5-0.735-0.962-1.576-1.344-2.46l-0.038-0.1c-0.69-1.674-1.094-3.618-1.101-5.655v-0.003s0 0 0 0c-0.014-0.245-0.022-0.531-0.022-0.819s0.008-0.575 0.023-0.859l-0.002 0.040c0-0.205 0-0.41 0.128-0.614s0.179-0.947 0.282-1.408 0.256-0.973 0.435-1.459 0.307-0.819 0.512-1.229c0.271-0.576 0.527-1.046 0.806-1.5l-0.038 0.066c0.205-0.358 0.435-0.717 0.666-1.050 0.374-0.515 0.743-0.965 1.136-1.394l-0.010 0.011c0.179-0.179 0.307-0.41 0.486-0.589l146.842-147.891-19.891-206.771c0-0.179 0-0.358 0-0.538s0-0.589 0-0.87 0-0.486 0-0.717 0-0.538 0-0.794 0-0.512 0-0.768 0-0.486 0-0.717 0-0.538 0.179-0.794 0-0.435 0.179-0.666 0.179-0.538 0.282-0.819l0.23-0.614c0-0.282 0.256-0.563 0.384-0.845l0.256-0.512c0.154-0.307 0.358-0.614 0.538-0.922l0.205-0.333c0.361-0.543 0.715-1.010 1.093-1.456l-0.018 0.022 0.333-0.358c0.282-0.307 0.563-0.614 0.87-0.896l0.461-0.41 0.973-0.768 0.384-0.282c0.415-0.289 0.901-0.586 1.403-0.856l0.082-0.040h0.23q0.666-0.333 1.357-0.614l0.461-0.154 1.203-0.384 0.538-0.128 1.178-0.205h2.227c0.915 0.015 1.798 0.107 2.656 0.271l-0.096-0.015 0.794 0.179c0.698 0.161 1.28 0.337 1.846 0.546l-0.105-0.034 0.819 0.307c0.644 0.282 1.173 0.556 1.684 0.858l-0.071-0.039 0.666 0.384h0.205l170.803 112.179 176.64-103.373c0.602-0.355 1.31-0.699 2.046-0.988l0.104-0.036 0.384-0.154c0.632-0.242 1.395-0.463 2.181-0.623l0.098-0.017h0.384c0.715-0.132 1.546-0.216 2.393-0.23h0.398c0.664 0.005 1.312 0.051 1.948 0.137l-0.079-0.009h0.256l0.973 0.205h0.538l0.64 0.205c1.223 0.375 2.283 0.845 3.273 1.422l-0.073-0.039 0.256 0.154 0.717 0.486 0.538 0.358 0.461 0.384c0.784 0.638 1.48 1.326 2.105 2.075l0.020 0.024 0.563 0.691 0.256 0.384c0.205 0.307 0.41 0.589 0.589 0.922v0l0.179 0.358c0.179 0.307 0.333 0.614 0.486 0.922l0.23 0.563c0 0.282 0.23 0.563 0.333 0.845s0.128 0.435 0.205 0.64 0.154 0.512 0.23 0.794 0 0.461 0.154 0.717 0 0.512 0.128 0.768 0 0.486 0 0.742 0 0.486 0 0.742 0 0.538 0 0.819 0 0.461 0 0.691 0 0.589 0 0.896 0 0.358 0 0.538l-30.72 205.158 145.536 144.922c0.179 0.179 0.333 0.41 0.486 0.614 0.383 0.417 0.753 0.868 1.096 1.339l0.030 0.044c0.666 0.23 0.896 0.64 1.101 0.922zM667.136 372.173l26.624-178.125-154.010 90.112c-3.073 1.842-6.781 2.932-10.742 2.932-4.352 0-8.397-1.315-11.76-3.569l0.076 0.048-148.915-97.792 17.254 179.354c0.063 0.613 0.099 1.324 0.099 2.043 0 5.832-2.367 11.111-6.192 14.929v0l-127.514 127.718 177.331 19.251c7.788 0.883 14.238 5.842 17.226 12.663l0.054 0.137 70.81 165.043 87.859-160.64c3.324-6.004 9.305-10.187 16.313-10.974l0.097-0.009 177.562-19.277-126.029-125.594c-3.914-3.88-6.337-9.258-6.337-15.202 0-1.076 0.079-2.134 0.233-3.168l-0.014 0.117z" />
<glyph unicode="&#xe914;" glyph-name="nb-square" d="M227.84 757.76h573.44c16.966 0 30.72-13.754 30.72-30.72v-573.44c0-16.966-13.754-30.72-30.72-30.72h-573.44c-16.966 0-30.72 13.754-30.72 30.72v573.44c0 16.966 13.754 30.72 30.72 30.72z" />
<glyph unicode="&#xe915;" glyph-name="nb-square-outline" d="M801.28 778.24h-573.44c-25.449 0-46.080-20.631-46.080-46.080v0-573.44c0-25.449 20.631-46.080 46.080-46.080v0h573.44c25.449 0 46.080 20.631 46.080 46.080v0 573.44c0 25.449-20.631 46.080-46.080 46.080v0zM816.64 158.72c0-8.483-6.877-15.36-15.36-15.36v0h-573.44c-8.483 0-15.36 6.877-15.36 15.36v0 573.44c0 8.483 6.877 15.36 15.36 15.36v0h573.44c8.483 0 15.36-6.877 15.36-15.36v0z" />
<glyph unicode="&#xe916;" glyph-name="nb-snowy-circled" d="M518.4 943.36c-273.152 0-495.36-222.208-495.36-495.36s222.208-495.36 495.36-495.36 495.36 222.208 495.36 495.36-222.208 495.36-495.36 495.36zM518.4-16.64c-256.205 0-464.64 208.435-464.64 464.64s208.435 464.64 464.64 464.64 464.64-208.435 464.64-464.64-208.435-464.64-464.64-464.64zM807.654 463.36h-62.413l48.64 48.64c2.731 2.771 4.417 6.578 4.417 10.779 0 8.483-6.877 15.36-15.36 15.36-4.194 0-7.996-1.681-10.768-4.407l-70.372-70.372h-147.584l106.496 106.496h95.974c8.483 0 15.36 6.877 15.36 15.36s-6.877 15.36-15.36 15.36v0h-65.254l42.010 41.984c2.731 2.771 4.417 6.578 4.417 10.779 0 8.483-6.877 15.36-15.36 15.36-4.194 0-7.996-1.681-10.768-4.407l-43.006-43.006v67.354c0 8.483-6.877 15.36-15.36 15.36s-15.36-6.877-15.36-15.36v0-97.997l-105.523-105.549v151.040l68.096 68.096c2.731 2.771 4.417 6.578 4.417 10.779 0 8.483-6.877 15.36-15.36 15.36-4.194 0-7.996-1.681-10.768-4.407l0.002 0.002-46.387-46.49v59.059c0 8.483-6.877 15.36-15.36 15.36s-15.36-6.877-15.36-15.36v0-60.006l-47.309 47.334c-2.787 2.8-6.644 4.532-10.906 4.532-8.498 0-15.387-6.889-15.387-15.387 0-4.236 1.712-8.073 4.482-10.855l69.119-69.119v-150.016l-105.933 105.933v97.050c0 8.483-6.877 15.36-15.36 15.36s-15.36-6.877-15.36-15.36v0-66.278l-42.547 42.573c-2.77 2.723-6.572 4.405-10.766 4.405-8.483 0-15.36-6.877-15.36-15.36 0-4.201 1.686-8.008 4.419-10.781l42.571-42.571h-66.278c-8.483 0-15.36-6.877-15.36-15.36s6.877-15.36 15.36-15.36v0h96.998l105.907-105.907h-148.787l-68.403 68.403c-2.788 2.829-6.66 4.581-10.943 4.581-8.483 0-15.36-6.877-15.36-15.36 0-4.289 1.758-8.167 4.592-10.953l46.671-46.671h-61.21c-8.483 0-15.36-6.877-15.36-15.36s6.877-15.36 15.36-15.36v0h61.44l-46.925-47.027c-2.836-2.789-4.594-6.667-4.594-10.955 0-8.483 6.877-15.36 15.36-15.36 4.282 0 8.155 1.752 10.941 4.579l68.789 68.764h148.48l-103.501-103.501h-97.792c-8.483 0-15.36-6.877-15.36-15.36s6.877-15.36 15.36-15.36v0h67.021l-44.979-44.979c-2.731-2.771-4.417-6.578-4.417-10.779 0-8.483 6.877-15.36 15.36-15.36 4.194 0 7.996 1.681 10.768 4.407l44.235 44.235v-65.51c0-8.483 6.877-15.36 15.36-15.36s15.36 6.877 15.36 15.36v0 96.23l104.243 104.269v-146.355l-69.12-69.12c-2.731-2.771-4.417-6.578-4.417-10.779 0-8.483 6.877-15.36 15.36-15.36 4.194 0 7.996 1.681 10.768 4.407l47.409 47.384v-63.642c0-8.483 6.877-15.36 15.36-15.36s15.36 6.877 15.36 15.36v0 62.694l46.336-46.336c2.788-2.829 6.66-4.581 10.943-4.581 8.483 0 15.36 6.877 15.36 15.36 0 4.289-1.758 8.167-4.592 10.953l-0.002 0.002-68.045 67.917v147.43l104.55-104.55v-95.77c0-8.483 6.877-15.36 15.36-15.36s15.36 6.877 15.36 15.36v0 65.075l43.93-43.955c2.783-2.787 6.63-4.51 10.88-4.51 8.493 0 15.378 6.885 15.378 15.378 0 4.243-1.719 8.085-4.498 10.867v0l-45.158 45.158h67.482c8.483 0 15.36 6.877 15.36 15.36s-6.877 15.36-15.36 15.36v0h-98.202l-103.347 103.322h151.296l66.714-66.714c2.788-2.829 6.66-4.581 10.943-4.581 8.483 0 15.36 6.877 15.36 15.36 0 4.289-1.758 8.167-4.592 10.953l-44.981 44.981h58.701c8.483 0 15.36 6.877 15.36 15.36s-6.877 15.36-15.36 15.36v0z" />
<glyph unicode="&#xe917;" glyph-name="nb-skip-forward" d="M670.72 759.424c-0.008 0-0.017 0-0.026 0-23.546 0-42.635-19.080-42.65-42.623v-258.868l-293.862 280.883c-0.656 0.616-1.375 1.181-2.142 1.679l-0.060 0.036-0.307 0.179c-0.675 0.419-1.459 0.814-2.277 1.141l-0.104 0.037h-0.333c-0.72 0.274-1.579 0.513-2.466 0.677l-0.094 0.014h-0.333c-0.711 0.124-1.535 0.198-2.374 0.205h-0.545c-0.967-0.025-1.892-0.136-2.788-0.325l0.1 0.018c-1.042-0.233-1.948-0.532-2.813-0.909l0.099 0.038c-0.984-0.42-1.825-0.883-2.614-1.417l0.054 0.035h-0.154c-0.81-0.577-1.521-1.191-2.172-1.864l-0.004-0.004v-0.154c-0.615-0.649-1.18-1.36-1.679-2.118l-0.036-0.058-0.205-0.307c-0.417-0.668-0.813-1.443-1.141-2.252l-0.037-0.103-0.128-0.358c-0.274-0.72-0.513-1.579-0.677-2.466l-0.014-0.094v-0.358c-0.124-0.711-0.198-1.535-0.205-2.374v-566.663c0.007-0.846 0.081-1.669 0.218-2.471l-0.013 0.091v-0.358c0.178-0.981 0.417-1.84 0.726-2.666l-0.035 0.106 0.128-0.358c0.364-0.911 0.759-1.686 1.215-2.42l-0.037 0.064 0.205-0.307c0.535-0.816 1.1-1.527 1.722-2.183l-0.006 0.007v-0.154l0.666-0.614 0.486-0.435 0.691-0.512 0.538-0.41 0.717-0.435 0.973-0.538 0.947-0.461 0.435-0.154 0.998-0.358h0.461l1.024-0.256h0.589l0.896-0.128h1.459c0.915 0.015 1.798 0.107 2.656 0.271l-0.096-0.015h0.23c0.981 0.186 1.84 0.434 2.664 0.752l-0.104-0.035h0.282c0.902 0.365 1.668 0.76 2.393 1.215l-0.063-0.037 0.282 0.179c0.806 0.528 1.509 1.085 2.158 1.697l-0.008-0.007h0.128l293.786 280.73v-253.44c0-23.526 19.072-42.598 42.598-42.598s42.598 19.072 42.598 42.598v0 539.392c-0.014 23.499-19.031 42.551-42.515 42.624h-0.007z" />
<glyph unicode="&#xe918;" glyph-name="nb-skip-forward-outline" d="M644.198 759.424c-16.197-0.015-29.323-13.141-29.338-29.336v-261.889l-286.797 274.202c-0.656 0.616-1.375 1.181-2.142 1.679l-0.060 0.036-0.307 0.179c-0.676 0.42-1.46 0.815-2.278 1.142l-0.102 0.036h-0.333c-0.721 0.275-1.581 0.515-2.467 0.677l-0.093 0.014h-0.333c-0.711 0.123-1.534 0.197-2.374 0.205h-0.545c-0.967-0.025-1.892-0.136-2.788-0.325l0.1 0.018h-0.128c-1.032-0.234-1.929-0.533-2.785-0.909l0.097 0.038c-0.984-0.42-1.825-0.883-2.614-1.417l0.054 0.035h-0.179c-0.81-0.577-1.521-1.191-2.172-1.864l-0.004-0.004v-0.154c-0.615-0.649-1.18-1.36-1.679-2.118l-0.036-0.058-0.205-0.307c-0.419-0.669-0.814-1.444-1.141-2.253l-0.036-0.102-0.128-0.358c-0.274-0.72-0.513-1.579-0.677-2.466l-0.014-0.094v-0.358c-0.124-0.711-0.198-1.535-0.205-2.374v-566.765c0.007-0.846 0.081-1.669 0.218-2.471l-0.013 0.091v-0.358c0.178-0.981 0.417-1.84 0.726-2.666l-0.035 0.106 0.128-0.358c0.365-0.912 0.76-1.687 1.215-2.421l-0.038 0.066 0.205-0.307c0.535-0.816 1.1-1.527 1.722-2.183l-0.006 0.007v-0.154l0.666-0.614 0.486-0.435 0.691-0.512 0.538-0.41 0.717-0.435 0.973-0.538 0.947-0.461 0.435-0.154 0.998-0.358h0.461l1.024-0.256h0.589l0.896-0.128h1.459c0.916 0.016 1.799 0.109 2.657 0.271l-0.097-0.015h0.23c0.98 0.185 1.839 0.433 2.663 0.752l-0.103-0.035h0.282c0.902 0.365 1.668 0.76 2.393 1.215l-0.063-0.037 0.282 0.179c0.806 0.529 1.509 1.085 2.158 1.697l-0.008-0.007h0.128l286.874 273.92v-263.398c0-16.203 13.135-29.338 29.338-29.338s29.338 13.135 29.338 29.338v0 565.965c-0.015 16.206-13.155 29.338-29.363 29.338 0 0 0 0 0 0v0zM591.667 448l-258.714-247.526v494.797z" />
<glyph unicode="&#xe919;" glyph-name="nb-skip-backward" d="M728.934 155.955c0.417 0.668 0.813 1.443 1.141 2.252l0.037 0.103 0.128 0.358c0.276 0.721 0.515 1.581 0.677 2.468l0.014 0.092v0.358c0.124 0.711 0.198 1.535 0.205 2.374v566.663c-0.007 0.846-0.081 1.669-0.218 2.471l0.013-0.091v0.358c-0.176 0.979-0.415 1.839-0.725 2.664l0.034-0.104-0.128 0.358c-0.365 0.912-0.76 1.687-1.215 2.421l0.038-0.066-0.205 0.307c-0.535 0.816-1.1 1.527-1.722 2.183l0.006-0.007v0.154c-0.655 0.678-1.366 1.291-2.129 1.837l-0.047 0.032-0.179 0.128c-0.735 0.5-1.576 0.962-2.46 1.344l-0.1 0.038c-0.718 0.328-1.571 0.626-2.454 0.848l-0.106 0.023h-0.154c-0.752 0.162-1.632 0.273-2.532 0.306l-0.028 0.001h-0.538c-0.846-0.007-1.669-0.081-2.471-0.218l0.091 0.013h-0.333c-0.98-0.177-1.839-0.416-2.665-0.726l0.105 0.034h-0.307c-0.931-0.371-1.723-0.774-2.471-1.241l0.065 0.038-0.282-0.179c-0.837-0.536-1.564-1.101-2.237-1.724l0.010 0.009-294.349-281.037v253.44c0 23.526-19.072 42.598-42.598 42.598s-42.598-19.072-42.598-42.598v0-539.418c0-23.526 19.072-42.598 42.598-42.598s42.598 19.072 42.598 42.598v0 258.918l293.888-280.909c0.642-0.605 1.344-1.161 2.093-1.654l0.058-0.036 0.282-0.179c0.661-0.416 1.427-0.811 2.227-1.14l0.102-0.037h0.282c0.72-0.283 1.579-0.531 2.465-0.702l0.095-0.015h0.23c0.761-0.147 1.644-0.24 2.546-0.256h1.473l0.896 0.128h0.614l0.973 0.256h0.486l0.922 0.333 0.512 0.179 0.768 0.358q0.691 0.333 1.331 0.742l0.538 0.333 0.589 0.435 0.64 0.486 0.512 0.461 0.64 0.614h0.128v0.154c0.615 0.649 1.18 1.36 1.679 2.118l0.036 0.058z" />
<glyph unicode="&#xe91a;" glyph-name="nb-skip-backward-outline" d="M714.829 185.754c0.419 0.669 0.814 1.444 1.141 2.253l0.036 0.102 0.128 0.358c0.275 0.721 0.515 1.581 0.677 2.467l0.014 0.093v0.358c0.124 0.711 0.198 1.535 0.205 2.374v566.561c-0.006 0.908-0.089 1.793-0.244 2.653l0.014-0.093v0.358c-0.176 0.979-0.415 1.839-0.725 2.664l0.034-0.104-0.128 0.358c-0.365 0.912-0.76 1.687-1.215 2.421l0.038-0.066-0.205 0.307c-0.535 0.816-1.1 1.527-1.722 2.183l0.006-0.007v0.154c-0.655 0.678-1.366 1.291-2.129 1.837l-0.047 0.032h-0.179c-0.735 0.501-1.577 0.964-2.461 1.345l-0.099 0.038c-0.759 0.338-1.656 0.637-2.586 0.851l-0.102 0.020h-0.128c-0.796 0.171-1.721 0.282-2.668 0.307h-0.558c-0.854-0.005-1.686-0.080-2.497-0.218l0.091 0.013h-0.333c-0.98-0.177-1.839-0.416-2.665-0.726l0.105 0.034h-0.307c-0.931-0.371-1.723-0.774-2.471-1.241l0.065 0.038-0.282-0.179c-0.837-0.536-1.564-1.101-2.237-1.724l0.010 0.009-286.925-274.202v263.424c0 16.203-13.135 29.338-29.338 29.338s-29.338-13.135-29.338-29.338v0-565.965c0-16.203 13.135-29.338 29.338-29.338s29.338 13.135 29.338 29.338v0 261.914l286.848-274.125c0.642-0.605 1.344-1.161 2.093-1.654l0.058-0.036 0.282-0.179c0.661-0.416 1.427-0.811 2.227-1.14l0.102-0.037h0.282c0.719-0.281 1.578-0.529 2.463-0.701l0.097-0.016h0.23c0.762-0.149 1.645-0.241 2.547-0.256h1.447l0.947 0.128h0.563l1.024 0.256h0.461l1.459 0.538 0.87 0.41 1.152 0.64 0.614 0.384 0.589 0.435 0.64 0.486 0.486 0.461 0.64 0.614h0.128v0.154c0.615 0.649 1.18 1.36 1.679 2.118l0.036 0.058zM686.336 724.48v-494.822l-258.816 247.398z" />
<glyph unicode="&#xe91b;" glyph-name="nb-shuffle" d="M806.938 193.229c0.205 0.357 0.428 0.803 0.628 1.261l0.038 0.096c0.179 0.461 0.307 0.947 0.461 1.408s0.282 0.947 0.384 1.408 0 0.973 0.179 1.459 0 0.973 0 1.459 0 0.973 0 1.459 0 0.973-0.179 1.459-0.256 0.947-0.384 1.408-0.256 0.947-0.461 1.408c-0.238 0.554-0.461 0.999-0.704 1.432l0.039-0.075c-0.23 0.435-0.435 0.87-0.717 1.306-0.331 0.474-0.65 0.882-0.989 1.274l0.016-0.019c-0.256 0.307-0.461 0.64-0.742 0.947l-0.256 0.23-0.23 0.256-83.379 79.795h-0.128c-0.656 0.616-1.375 1.181-2.142 1.679l-0.060 0.036-0.307 0.179c-0.675 0.419-1.459 0.814-2.277 1.141l-0.104 0.037h-0.333c-0.72 0.274-1.579 0.513-2.466 0.677l-0.094 0.014h-0.333c-0.711 0.124-1.535 0.198-2.374 0.205h-0.545c-0.927-0.034-1.807-0.144-2.66-0.325l0.1 0.018h-0.358c-1.032-0.234-1.929-0.533-2.785-0.909l0.097 0.038c-0.984-0.42-1.825-0.883-2.614-1.417l0.054 0.035h-0.154c-0.81-0.578-1.521-1.192-2.172-1.865l-0.004-0.004c-0.626-0.663-1.199-1.391-1.705-2.168l-0.036-0.059-0.179-0.282c-0.42-0.676-0.815-1.46-1.142-2.278l-0.036-0.102v-0.333c-0.275-0.721-0.515-1.581-0.677-2.467l-0.014-0.093v-0.358c-0.124-0.711-0.198-1.535-0.205-2.374v-66.567c-1.28 0.387-2.751 0.612-4.274 0.614h-0.001c-115.2 0-208.717 88.755-208.717 197.862s93.619 197.862 208.717 197.862c1.199 0.003 2.365 0.143 3.483 0.405l-0.104-0.021v-62.464c0.007-0.846 0.081-1.669 0.218-2.471l-0.013 0.091v-0.358c0.178-0.981 0.417-1.84 0.726-2.666l-0.035 0.106 0.128-0.358c0.364-0.911 0.759-1.686 1.215-2.42l-0.037 0.064 0.205-0.307c0.535-0.816 1.1-1.527 1.722-2.183l-0.006 0.007v-0.154l0.666-0.614 0.486-0.435 0.691-0.512 0.538-0.41 0.717-0.435 0.973-0.538 0.947-0.461 0.435-0.154 0.998-0.358h0.461l1.024-0.256h0.589l0.896-0.128h1.459c0.915 0.015 1.798 0.107 2.656 0.271l-0.096-0.015h0.23c0.982 0.187 1.841 0.435 2.665 0.752l-0.105-0.036h0.282c0.902 0.367 1.669 0.761 2.394 1.215l-0.065-0.038 0.282 0.179c0.806 0.529 1.509 1.085 2.158 1.697l-0.008-0.007h0.128l83.405 79.744v0.128l0.384 0.358c0.282 0.307 0.486 0.64 0.742 0.973 0.671 0.733 1.237 1.577 1.664 2.499l0.025 0.061c0.23 0.435 0.486 0.87 0.666 1.331 0.145 0.363 0.303 0.841 0.436 1.328l0.025 0.106c0.128 0.461 0.282 0.922 0.384 1.408s0 0.973 0.179 1.485 0 0.973 0 1.459 0 0.973 0 1.459 0 0.998-0.179 1.485-0.256 0.947-0.384 1.408c-0.158 0.593-0.316 1.070-0.496 1.536l0.035-0.103c-0.179 0.461-0.435 0.896-0.666 1.331-0.265 0.536-0.512 0.971-0.779 1.393l0.037-0.062c-0.324 0.465-0.635 0.865-0.964 1.249l0.017-0.020c-0.256 0.307-0.461 0.666-0.742 0.973l-0.256 0.23-0.23 0.256-83.2 79.283h-0.128c-0.656 0.616-1.375 1.181-2.142 1.679l-0.060 0.036-0.307 0.179c-0.676 0.42-1.46 0.815-2.278 1.142l-0.102 0.036h-0.333c-0.72 0.274-1.579 0.513-2.466 0.677l-0.094 0.014h-0.333c-0.711 0.124-1.535 0.198-2.374 0.205h-0.545c-0.967-0.025-1.892-0.136-2.788-0.325l0.1 0.018h-0.128c-1.033-0.235-1.93-0.534-2.787-0.909l0.099 0.039c-0.984-0.42-1.825-0.883-2.614-1.417l0.054 0.035h-0.179c-0.81-0.577-1.521-1.191-2.172-1.864l-0.004-0.004v-0.154c-0.615-0.649-1.18-1.36-1.679-2.118l-0.036-0.058-0.205-0.307c-0.419-0.669-0.814-1.444-1.141-2.253l-0.036-0.102-0.128-0.358c-0.274-0.72-0.513-1.579-0.677-2.466l-0.014-0.094v-0.358c-0.124-0.711-0.198-1.535-0.205-2.374v-67.181c-1.014 0.241-2.18 0.381-3.377 0.384h-0.002c-107.52 0-198.682-67.994-228.838-161.28-27.315 97.536-120.678 169.6-231.347 169.6-8.483 0-15.36-6.877-15.36-15.36s6.877-15.36 15.36-15.36v0c115.2 0 208.717-88.755 208.717-197.862s-93.619-197.862-208.717-197.862c-8.483 0-15.36-6.877-15.36-15.36s6.877-15.36 15.36-15.36v0c107.52 0 198.682 67.994 228.838 161.28 27.315-97.536 120.678-169.6 231.347-169.6 1.524 0.003 2.995 0.227 4.384 0.642l-0.109-0.028v-63.309c0.007-0.846 0.081-1.669 0.218-2.471l-0.013 0.091v-0.358c0.176-0.979 0.416-1.839 0.725-2.664l-0.034 0.104v-0.333c0.362-0.921 0.758-1.705 1.215-2.446l-0.038 0.065 0.179-0.282c0.541-0.836 1.115-1.564 1.748-2.235l-0.007 0.008 0.717-0.666 0.435-0.41 0.717-0.538 0.538-0.384 0.666-0.41 1.126-0.614 0.87-0.41 0.486-0.179 0.947-0.333h0.486l0.998-0.256h0.614l0.896-0.128h1.459c0.915 0.015 1.798 0.107 2.656 0.271l-0.096-0.015h0.23c0.982 0.187 1.841 0.435 2.665 0.752l-0.105-0.036h0.282c0.902 0.367 1.669 0.761 2.394 1.215l-0.065-0.038 0.282 0.179c0.806 0.528 1.509 1.085 2.158 1.697l-0.008-0.007h0.128l83.405 79.744v0.154l0.358 0.333c0.282 0.282 0.486 0.64 0.742 0.947 0.322 0.372 0.642 0.781 0.94 1.205l0.033 0.049c0.538 0.23 0.845 0.666 1.075 1.101zM724.48 671.232l45.824-43.802-45.824-43.75zM725.376 244.147l45.824-43.802-45.824-43.802z" />
<glyph unicode="&#xe91c;" glyph-name="nb-search" d="M811.187 196.198l-179.405 179.405c31.246 41.588 50.038 94.086 50.038 150.973 0 139.603-113.171 252.774-252.774 252.774s-252.774-113.171-252.774-252.774c0-139.603 113.171-252.774 252.774-252.774 56.887 0 109.385 18.792 151.625 50.507l-0.652-0.469 179.405-179.405c6.575-6.35 15.539-10.262 25.417-10.262 20.218 0 36.608 16.39 36.608 36.608 0 9.878-3.912 18.842-10.272 25.428l0.010-0.011zM207.36 526.336c0 0.038 0 0.083 0 0.128 0 122.51 99.314 221.824 221.824 221.824s221.824-99.314 221.824-221.824c0-122.474-99.256-221.766-221.716-221.824h-0.006c-122.45 0.087-221.708 99.264-221.926 221.675v0.021z" />
<glyph unicode="&#xe91d;" glyph-name="nb-roller-shades" d="M812.109 762.701h-518.4c-21.366-0.070-39.403-14.238-45.301-33.686l-0.088-0.336v1.946h-51.533c-8.483 0-15.36-6.877-15.36-15.36v0-243.968c-17.751-6.296-30.24-22.935-30.259-42.494v-47.695c0-24.855 20.149-45.005 45.005-45.005s45.005 20.149 45.005 45.005v0 47.693c-0.036 19.086-11.94 35.382-28.723 41.905l-0.307 0.105v229.094h36.173v1.869c3.91-12.733 12.648-22.971 24.024-28.777l0.27-0.125v-369.741c0.014-13.941 11.283-25.246 25.209-25.318h11.476v-134.605c0-25.449 20.631-46.080 46.080-46.080v0h403.507c25.449 0 46.080 20.631 46.080 46.080v0 133.274h10.982c13.958 0.015 25.267 11.333 25.267 25.293 0 0.009 0 0.018 0 0.027v-0.001 376.090c11.195 8.752 18.324 22.257 18.324 37.427 0 26.17-21.215 47.386-47.386 47.386-0.016 0-0.032 0-0.048 0h0.002zM210.509 381.133c0-7.889-6.396-14.285-14.285-14.285s-14.285 6.396-14.285 14.285v47.667c0 7.889 6.396 14.285 14.285 14.285s14.285-6.396 14.285-14.285v0zM541.696 127.821h-186.419c-8.483 0-15.36 6.877-15.36 15.36v0 134.528l201.779-0.486zM774.246 143.181c0-8.483-6.877-15.36-15.36-15.36v0h-186.47v149.325l201.83-0.486zM810.496 308.070l-507.264 1.203v46.438h507.264zM810.496 386.432h-507.238v48.41h507.238zM810.496 465.587h-507.238v48.41h507.238zM810.496 544.742h-507.238v48.41h507.238zM810.496 623.898h-507.238v43.93h507.238zM812.109 698.573h-518.4c-9.232 0-16.717 7.484-16.717 16.717s7.484 16.717 16.717 16.717h518.4c9.232 0 16.717-7.484 16.717-16.717s-7.484-16.717-16.717-16.717v0z" />
<glyph unicode="&#xe91e;" glyph-name="nb-rainy" d="M827.366 571.853c0.307 4.736 0.486 9.498 0.486 14.234 0 0.014 0 0.030 0 0.046 0 115.936-93.984 209.92-209.92 209.92-62.552 0-118.714-27.359-157.172-70.764l-0.191-0.22c-11.157 2.676-23.967 4.211-37.135 4.211-87.053 0-158.439-67.075-165.297-152.362l-0.038-0.585c-70.938-13.368-123.882-74.844-123.882-148.685 0-83.488 67.68-151.168 151.168-151.168 0.073 0 0.146 0 0.219 0h45.583l-132.787-137.523c-2.863-2.793-4.639-6.689-4.639-11 0-8.483 6.877-15.36 15.36-15.36 4.502 0 8.552 1.937 11.361 5.023l0.011 0.012 153.395 158.848h86.912l-106.266-109.286c-2.898-2.798-4.698-6.717-4.698-11.057 0-8.483 6.877-15.36 15.36-15.36 4.493 0 8.535 1.929 11.343 5.003l0.011 0.012 127.027 130.688h77.85l-144.333-150.733c-2.64-2.754-4.266-6.499-4.266-10.624 0-8.485 6.878-15.363 15.363-15.363 4.36 0 8.296 1.816 11.092 4.734l0.005 0.005 164.685 171.981h83.046l-106.266-109.286c-2.898-2.798-4.698-6.717-4.698-11.057 0-8.483 6.877-15.36 15.36-15.36 4.493 0 8.535 1.929 11.343 5.003l0.011 0.012 127.104 130.688h32.051c0.026 0 0.058 0 0.089 0 83.488 0 151.168 67.68 151.168 151.168 0 67.293-43.97 124.316-104.747 143.907l-1.070 0.298zM781.926 307.2h-496.333c-66.498 0.050-120.386 53.969-120.386 120.474 0 62.168 47.088 113.337 107.544 119.788l0.528 0.046c8.14 1.097 14.428 7.737 14.973 15.948l0.003 0.052c0.164 74.471 60.572 134.778 135.065 134.778 63.168 0 116.209-43.364 130.976-101.948l0.199-0.932c1.542-6.982 7.678-12.128 15.016-12.128 8.483 0 15.36 6.877 15.36 15.36 0 1.418-0.192 2.791-0.552 4.095l0.025-0.108c-12.273 50.004-46.069 90.311-90.762 111.19l-1.014 0.426c32.297 31.676 76.585 51.226 125.44 51.226 98.969 0 179.2-80.231 179.2-179.2 0-0.063 0-0.126 0-0.189v0.010c-0.002-8.37-0.57-16.605-1.666-24.672l0.105 0.941c-0.086-0.609-0.134-1.312-0.134-2.027 0-7.772 5.773-14.196 13.264-15.218l0.080-0.009c54.081-12.604 93.755-60.395 93.755-117.453 0-66.522-53.926-120.448-120.448-120.448-0.084 0-0.168 0-0.251 0h0.013z" />
<glyph unicode="&#xe91f;" glyph-name="nb-power" d="M624.64 761.6c-1.424 0.482-3.065 0.76-4.77 0.76-8.483 0-15.36-6.877-15.36-15.36 0-6.517 4.058-12.086 9.786-14.317l0.105-0.036c119.959-43.415 204.134-156.34 204.134-288.925 0-169.294-137.24-306.534-306.534-306.534s-306.534 137.24-306.534 306.534c0 132.585 84.176 245.51 202.001 288.249l2.133 0.676c5.832 2.267 9.89 7.836 9.89 14.353 0 8.483-6.877 15.36-15.36 15.36-1.705 0-3.346-0.278-4.879-0.791l0.108 0.031c-131.901-47.935-224.445-172.127-224.614-317.957v-0.021c0-185.958 151.296-337.254 337.254-337.254s337.254 151.296 337.254 337.254c-0.169 145.851-92.714 270.043-222.265 317.23l-2.349 0.748zM512 572.467c8.483 0 15.36 6.877 15.36 15.36v0 168.755c0 8.483-6.877 15.36-15.36 15.36s-15.36-6.877-15.36-15.36v0-168.755c0-8.483 6.877-15.36 15.36-15.36v0z" />
<glyph unicode="&#xe920;" glyph-name="nb-power-circled" d="M624.64 761.6c-1.424 0.482-3.065 0.76-4.77 0.76-8.483 0-15.36-6.877-15.36-15.36 0-6.517 4.058-12.086 9.786-14.317l0.105-0.036c119.959-43.415 204.134-156.34 204.134-288.925 0-169.294-137.24-306.534-306.534-306.534s-306.534 137.24-306.534 306.534c0 132.585 84.176 245.51 202.001 288.249l2.133 0.676c5.832 2.267 9.89 7.836 9.89 14.353 0 8.483-6.877 15.36-15.36 15.36-1.705 0-3.346-0.278-4.879-0.791l0.108 0.031c-131.901-47.935-224.445-172.127-224.614-317.957v-0.021c0-185.958 151.296-337.254 337.254-337.254s337.254 151.296 337.254 337.254c-0.169 145.851-92.714 270.043-222.265 317.23l-2.349 0.748zM512 572.467c8.483 0 15.36 6.877 15.36 15.36v0 168.755c0 8.483-6.877 15.36-15.36 15.36s-15.36-6.877-15.36-15.36v0-168.755c0-8.483 6.877-15.36 15.36-15.36v0zM510.72 942.080c-273.152 0-495.36-222.208-495.36-495.36s222.208-495.36 495.36-495.36 495.36 222.208 495.36 495.36-222.208 495.36-495.36 495.36zM510.72-17.92c-256.205 0-464.64 208.435-464.64 464.64s208.435 464.64 464.64 464.64 464.64-208.435 464.64-464.64-208.435-464.64-464.64-464.64z" />
<glyph unicode="&#xe921;" glyph-name="nb-plus" d="M793.6 463.36h-266.035v266.010c0 8.483-6.877 15.36-15.36 15.36s-15.36-6.877-15.36-15.36v0-266.010h-266.445c-8.483 0-15.36-6.877-15.36-15.36s6.877-15.36 15.36-15.36v0h266.445v-266.47c0-8.483 6.877-15.36 15.36-15.36s15.36 6.877 15.36 15.36v0 266.47h266.035c8.483 0 15.36 6.877 15.36 15.36s-6.877 15.36-15.36 15.36v0z" />
<glyph unicode="&#xe922;" glyph-name="nb-plus-circled" d="M726.733 455.68h-199.219v199.27c0 8.483-6.877 15.36-15.36 15.36s-15.36-6.877-15.36-15.36v0-199.27h-199.526c-8.483 0-15.36-6.877-15.36-15.36s6.877-15.36 15.36-15.36v0h199.526v-199.526c0-8.483 6.877-15.36 15.36-15.36s15.36 6.877 15.36 15.36v0 199.526h199.219c8.483 0 15.36 6.877 15.36 15.36s-6.877 15.36-15.36 15.36v0zM512 773.12c-183.8 0-332.8-149-332.8-332.8s149-332.8 332.8-332.8c183.8 0 332.8 149 332.8 332.8v0c-0.218 183.712-149.088 332.582-332.779 332.8h-0.021zM512 138.24c-166.834 0-302.080 135.246-302.080 302.080s135.246 302.080 302.080 302.080c166.834 0 302.080-135.246 302.080-302.080v0c-0.189-166.758-135.322-301.891-302.062-302.080h-0.018z" />
<glyph unicode="&#xe923;" glyph-name="nb-play" d="M692.966 412.723c0.23 0.435 0.486 0.87 0.666 1.331 0.145 0.363 0.303 0.841 0.436 1.328l0.025 0.106c0.128 0.461 0.282 0.922 0.384 1.408s0 0.973 0.179 1.485 0 0.973 0 1.459 0 0.973 0 1.459 0 0.998-0.179 1.485-0.256 0.947-0.384 1.408c-0.158 0.593-0.316 1.070-0.496 1.536l0.035-0.103c-0.179 0.461-0.435 0.896-0.666 1.331-0.265 0.536-0.512 0.971-0.779 1.393l0.037-0.062c-0.324 0.465-0.635 0.865-0.964 1.249l0.017-0.020c-0.256 0.307-0.461 0.666-0.742 0.973l-0.256 0.23-0.23 0.256-310.682 296.96c-0.656 0.615-1.376 1.179-2.142 1.679l-0.060 0.037-0.307 0.179c-0.675 0.419-1.459 0.814-2.277 1.141l-0.104 0.037h-0.358c-0.721 0.275-1.58 0.514-2.467 0.677l-0.093 0.014h-0.358c-0.711 0.124-1.535 0.198-2.374 0.205h-0.545c-0.927-0.034-1.807-0.144-2.66-0.325l0.1 0.018h-0.128c-1.033-0.235-1.93-0.534-2.787-0.909l0.099 0.039c-0.984-0.42-1.825-0.883-2.614-1.417l0.054 0.035-0.179-0.128c-0.811-0.571-1.522-1.177-2.174-1.841l-0.002-0.002v-0.154c-0.615-0.649-1.18-1.36-1.679-2.118l-0.036-0.058-0.205-0.307c-0.419-0.669-0.814-1.444-1.141-2.253l-0.036-0.102-0.128-0.358c-0.274-0.72-0.513-1.579-0.677-2.466l-0.014-0.094v-0.358c-0.124-0.711-0.198-1.535-0.205-2.374v-593.85c0.007-0.846 0.081-1.669 0.218-2.471l-0.013 0.091v-0.358c0.178-0.981 0.417-1.84 0.726-2.666l-0.035 0.106 0.128-0.358c0.364-0.911 0.759-1.686 1.215-2.42l-0.037 0.064 0.205-0.307c0.535-0.816 1.1-1.527 1.722-2.183l-0.006 0.007v-0.154l0.666-0.614 0.486-0.435 0.691-0.512 0.538-0.41 0.717-0.435 0.973-0.538 0.947-0.461 0.435-0.154 0.998-0.358h0.461l1.024-0.256h0.589l0.896-0.128h1.459c0.915 0.015 1.798 0.107 2.656 0.271l-0.096-0.015h0.23c0.981 0.186 1.84 0.434 2.664 0.752l-0.104-0.035h0.282c0.902 0.365 1.668 0.76 2.393 1.215l-0.063-0.037 0.282 0.179c0.806 0.528 1.509 1.085 2.158 1.697l-0.008-0.007h0.128l310.938 297.446c0.282 0.307 0.486 0.64 0.742 0.973 0.671 0.733 1.237 1.577 1.664 2.499l0.025 0.061z" />
<glyph unicode="&#xe924;" glyph-name="nb-play-outline" d="M727.424 471.603c0.23 0.435 0.486 0.87 0.666 1.331 0.145 0.363 0.303 0.841 0.436 1.328l0.025 0.106c0.128 0.461 0.282 0.922 0.384 1.408s0 0.973 0.179 1.485 0 0.973 0 1.459 0 0.973 0 1.459 0 0.998-0.179 1.485-0.256 0.947-0.384 1.408c-0.158 0.593-0.316 1.070-0.496 1.536l0.035-0.103c-0.179 0.461-0.435 0.896-0.666 1.331-0.265 0.536-0.512 0.971-0.779 1.393l0.037-0.062c-0.324 0.465-0.635 0.865-0.964 1.249l0.017-0.020c-0.256 0.307-0.461 0.666-0.742 0.973l-0.256 0.23-0.23 0.256-310.682 296.934c-0.656 0.616-1.375 1.181-2.142 1.679l-0.060 0.036-0.307 0.179c-0.676 0.42-1.46 0.816-2.279 1.142l-0.102 0.036h-0.333c-0.72 0.274-1.579 0.513-2.466 0.677l-0.094 0.014h-0.358c-0.711 0.124-1.535 0.198-2.374 0.205h-0.545c-0.927-0.034-1.807-0.144-2.66-0.325l0.1 0.018h-0.128c-1.033-0.235-1.93-0.534-2.787-0.909l0.099 0.039c-0.984-0.42-1.825-0.883-2.614-1.417l0.054 0.035h-0.179c-0.81-0.577-1.521-1.191-2.172-1.864l-0.004-0.004v-0.154c-0.615-0.649-1.18-1.36-1.679-2.118l-0.036-0.058-0.205-0.307c-0.419-0.669-0.814-1.444-1.141-2.253l-0.036-0.102-0.128-0.358c-0.274-0.72-0.513-1.579-0.677-2.466l-0.014-0.094v-0.358c-0.124-0.711-0.198-1.535-0.205-2.374v-593.927c0.007-0.846 0.081-1.669 0.218-2.471l-0.013 0.091v-0.358c0.178-0.981 0.417-1.84 0.726-2.666l-0.035 0.106 0.128-0.358c0.364-0.911 0.759-1.686 1.215-2.42l-0.037 0.064 0.205-0.307c0.535-0.816 1.1-1.527 1.722-2.183l-0.006 0.007v-0.154l0.666-0.614 0.486-0.435 0.691-0.512 0.538-0.41 0.717-0.435 0.973-0.538 0.947-0.461 0.435-0.154 0.998-0.358h0.461l1.024-0.256h0.589l0.896-0.128h1.459c0.915 0.015 1.798 0.107 2.656 0.271l-0.096-0.015h0.23c0.981 0.186 1.84 0.434 2.664 0.752l-0.104-0.035h0.282c0.902 0.365 1.668 0.76 2.393 1.215l-0.063-0.037 0.282 0.179c0.806 0.528 1.509 1.085 2.158 1.697l-0.008-0.007h0.128l310.989 297.267c0.282 0.307 0.486 0.64 0.742 0.973 0.671 0.733 1.237 1.577 1.664 2.499l0.025 0.061zM691.584 478.72l-272.896-261.12v522.24z" />
<glyph unicode="&#xe925;" glyph-name="nb-phone" d="M822.067 344.858l-62.106 76.262c-12.773 15.603-32.034 25.482-53.603 25.482-16.623 0-31.875-5.868-43.799-15.645l0.122 0.097c-6.758-5.504-13.338-11.213-19.712-16.768-10.957-9.523-21.325-18.534-32.538-26.573-15.693-11.264-32.256-21.862-47.258-17.408-14.437 4.847-26.83 12.403-37.143 22.138l0.048-0.045c-15.157 14.24-29.112 29.283-41.988 45.233l-0.662 0.847c-12.219 15.036-24.32 31.837-35.438 49.323l-1.298 2.184c-7.264 11.656-12.259 25.461-14.009 40.26l-0.045 0.47c-1.331 15.59 12.416 29.67 26.624 42.752 10.24 9.344 21.043 17.664 32.589 26.47 6.707 5.12 13.645 10.419 20.48 15.923 15.603 12.773 25.482 32.034 25.482 53.603 0 16.623-5.868 31.875-15.645 43.799l0.097-0.122-62.131 76.16c-12.773 15.603-32.034 25.482-53.603 25.482-16.623 0-31.875-5.868-43.799-15.645l0.122 0.097-36.813-30.054c-2.918-2.381-5.939-4.966-9.498-8.166q-3.328-2.995-6.579-6.016-3.814-3.558-7.68-7.194c-2.842-2.765-5.35-5.299-7.68-7.68-2.765-2.893-4.966-5.35-6.912-7.68-0.666-0.819-1.331-1.638-1.997-2.56-9.566-12.227-17.618-26.283-23.5-41.422l-0.385-1.125c-4.504-11.472-7.689-24.77-8.944-38.626l-0.042-0.568c-3.2-37.76 3.789-79.155 21.402-126.592 14.398-37.44 29.843-69.113 47.624-99.243l-1.672 3.064c16.689-29.186 34.026-54.291 53.229-77.811l-0.8 1.011c20.102-24.461 41.298-46.356 64.137-66.426l0.631-0.543c25.257-22.718 52.969-43.945 82.288-62.9l2.576-1.56c42.88-26.854 81.92-42.086 119.629-46.592 5.039-0.636 10.87-0.998 16.785-0.998 0.012 0 0.024 0 0.036 0h-0.002c8.254 0.004 16.349 0.674 24.238 1.96l-0.865-0.116c17.411 2.848 33.043 8 47.471 15.203l-0.956-0.432 2.842 1.434c2.714 1.434 5.555 3.098 8.934 5.12 2.816 1.766 5.786 3.686 9.088 5.939q4.326 2.918 8.576 5.965 3.635 2.56 7.245 5.12c3.84 2.842 7.014 5.248 9.933 7.68l36.915 30.080c15.603 12.773 25.482 32.034 25.482 53.603 0 16.623-5.868 31.875-15.645 43.799l0.097-0.122zM806.707 297.344c-1.047-10.478-6.202-19.583-13.807-25.802l-0.068-0.054-36.915-30.054c-2.56-2.048-5.299-4.198-8.755-6.733q-3.379-2.56-6.835-4.941-3.968-2.816-7.987-5.555c-2.995-2.022-5.658-3.763-8.141-5.325s-5.12-3.072-7.117-4.173l-1.843-0.947c-10.965-5.522-23.688-9.727-37.080-11.95l-0.783-0.107c-5.521-0.934-11.882-1.467-18.367-1.467-4.714 0-9.362 0.282-13.929 0.83l0.551-0.054c-33.024 3.942-68.019 17.741-106.982 42.112-30.414 19.561-56.839 39.793-81.499 61.951l0.578-0.511c-22.107 19.455-42.081 40.118-60.294 62.283l-0.736 0.923-11.904-9.728 11.853 9.779c-17.387 21.264-33.767 44.979-48.169 69.978l-1.367 2.573c-15.375 25.812-30.123 56.016-42.409 87.454l-1.47 4.271c-16 43.085-22.4 80.128-19.584 113.28 1.032 11.392 3.554 21.892 7.387 31.738l-0.27-0.788c5.107 13.231 11.666 24.665 19.678 34.906l-0.222-0.295 1.28 1.613c1.51 1.818 3.277 3.763 5.53 6.144s4.275 4.403 6.861 6.912 4.685 4.506 7.040 6.707 4.122 3.814 6.221 5.683c3.174 2.867 5.837 5.12 8.346 7.194l36.864 30.234c6.548 5.352 15.001 8.595 24.212 8.595 11.968 0 22.657-5.475 29.7-14.057l0.054-0.067 62.106-76.134c5.352-6.548 8.595-15.001 8.595-24.212 0-11.968-5.475-22.657-14.057-29.7l-0.067-0.054c-6.374-5.12-13.107-10.24-19.635-15.36-11.597-8.858-23.603-17.92-34.79-28.314-13.67-12.595-39.142-36.070-36.403-67.968 2.212-20.226 8.772-38.548 18.724-54.539l-0.318 0.548c13.132-20.876 25.96-38.713 39.76-55.729l-0.823 1.048 0.256-0.307c14.495-17.949 29.446-34.028 45.436-49.013l0.26-0.242c13.578-12.793 30.015-22.714 48.238-28.694l0.914-0.26c30.72-9.139 58.88 11.059 73.933 21.888 12.365 8.858 23.757 18.765 34.765 28.314 6.195 5.376 12.595 10.957 18.97 16.128 6.548 5.352 15.001 8.595 24.212 8.595 11.968 0 22.657-5.475 29.7-14.057l0.054-0.067 62.106-76.262c5.333-6.504 8.566-14.908 8.566-24.067 0-1.442-0.080-2.865-0.236-4.265l0.016 0.172z" />
<glyph unicode="&#xe926;" glyph-name="nb-person" d="M851.2 208.358s0 0 0 0.179 0 0.282 0 0.41c-0.41 125.747-75.699 240.64-189.619 292.634 20.294 27.223 32.492 61.523 32.492 98.67 0 91.716-74.351 166.067-166.067 166.067s-166.067-74.351-166.067-166.067c0-37.338 12.323-71.799 33.123-99.536l-0.309 0.43c-113.331-52.173-188.211-166.886-188.646-292.173 0-0.128 0-0.282 0-0.41s0 0 0-0.179 0-0.307 0-0.461v0c0.353-8.203 7.089-14.72 15.347-14.72 0.005 0 0.009 0 0.014 0h614.399c0.004 0 0.009 0 0.013 0 8.258 0 14.994 6.517 15.346 14.688l0.001 0.032c-0.026 0.128-0.026 0.282-0.026 0.435zM528 735.462c74.75 0 135.347-60.597 135.347-135.347s-60.597-135.347-135.347-135.347c-74.75 0-135.347 60.597-135.347 135.347v0c0.087 74.715 60.632 135.26 135.339 135.347h0.008zM416.486 477.158c29.323-26.736 68.497-43.11 111.495-43.11 43.199 0 82.537 16.527 112.037 43.604l-0.121-0.11c101.603-43.294 172.99-139.338 180.029-252.807l0.042-0.838h-582.656c7.106 113.952 78.073 209.74 177.265 252.528l1.91 0.733z" />
<glyph unicode="&#xe927;" glyph-name="nb-pause" d="M397.21 785.024c-26.625-0.029-48.201-21.605-48.23-48.228v-528.157c0-26.644 21.599-48.243 48.243-48.243s48.243 21.599 48.243 48.243v0 528.154c-0.029 26.634-21.62 48.216-48.255 48.23h-0.001zM627.61 785.024c-26.625-0.029-48.201-21.605-48.23-48.228v-528.157c0-26.644 21.599-48.243 48.243-48.243s48.243 21.599 48.243 48.243v0 528.154c-0.029 26.634-21.62 48.216-48.255 48.23h-0.001z" />
<glyph unicode="&#xe928;" glyph-name="nb-pause-outline" d="M615.117 765.21c-8.483 0-15.36-6.877-15.36-15.36v0-593.92c0-8.483 6.877-15.36 15.36-15.36s15.36 6.877 15.36 15.36v0 593.92c0 8.483-6.877 15.36-15.36 15.36v0zM408.883 765.21c-8.483 0-15.36-6.877-15.36-15.36v0-593.92c0-8.483 6.877-15.36 15.36-15.36s15.36 6.877 15.36 15.36v0 593.92c0 8.483-6.877 15.36-15.36 15.36v0z" />
<glyph unicode="&#xe929;" glyph-name="nb-partlysunny" d="M773.786 407.834c42.155 31.78 69.122 81.759 69.122 138.037 0 89.874-68.775 163.685-156.567 171.674l-0.671 0.049c-4.501 0.417-9.735 0.655-15.023 0.655-59.045 0-111.17-29.627-142.32-74.826l-0.378-0.581c-1.371-2.003-2.289-4.418-2.555-7.026l-0.005-0.065c-53.068-6.428-99.227-31.895-132.234-69.254l-0.194-0.224c-11.157 2.676-23.967 4.211-37.135 4.211-87.053 0-158.439-67.075-165.297-152.362l-0.038-0.585c-70.736-13.539-123.466-74.915-123.466-148.608 0-83.406 67.548-151.035 150.923-151.168h496.295c0.143 0 0.312-0.001 0.481-0.001 83.417 0 151.040 67.623 151.040 151.040 0 62.101-37.478 115.448-91.050 138.657l-0.978 0.377zM682.982 687.053c72.722-6.611 129.26-67.289 129.26-141.173 0-44.227-20.259-83.723-52.003-109.713l-0.251-0.2c-4.707 108.042-90.294 194.65-197.469 200.959l-0.573 0.027c26.222 31.050 65.176 50.636 108.705 50.636 4.341 0 8.637-0.195 12.878-0.576l-0.547 0.040zM714.24 148.48h-496.282c-66.498 0.050-120.386 53.969-120.386 120.474 0 62.168 47.088 113.337 107.544 119.788l0.528 0.046c8.14 1.097 14.428 7.737 14.973 15.948l0.003 0.052c0.164 74.471 60.572 134.778 135.065 134.778 63.168 0 116.209-43.364 130.976-101.948l0.199-0.932c1.542-6.982 7.678-12.128 15.016-12.128 8.483 0 15.36 6.877 15.36 15.36 0 1.418-0.192 2.791-0.552 4.095l0.025-0.108c-12.267 49.999-46.054 90.305-90.737 111.19l-1.014 0.426c32.297 31.676 76.585 51.226 125.44 51.226 98.969 0 179.2-80.231 179.2-179.2 0-0.063 0-0.126 0-0.189v0.010c-0.003-8.37-0.57-16.605-1.666-24.673l0.105 0.941c-0.083-0.601-0.131-1.296-0.131-2.002 0-7.771 5.771-14.194 13.261-15.218l0.080-0.009c54.138-12.56 93.87-60.38 93.87-117.479 0-66.522-53.926-120.448-120.448-120.448-0.151 0-0.303 0-0.454 0.001h0.023zM688.358 747.955h1.357c0.018 0 0.039 0 0.060 0 8.005 0 14.581 6.124 15.296 13.943l0.004 0.060 4.813 55.45c0.037 0.403 0.059 0.871 0.059 1.344 0 8.516-6.903 15.419-15.419 15.419-8.042 0-14.647-6.157-15.356-14.015l-0.004-0.060-4.89-55.475c-0.038-0.406-0.060-0.877-0.060-1.354 0-8.054 6.198-14.66 14.085-15.308l0.055-0.004zM786.995 711.987c2.457-1.742 5.517-2.785 8.821-2.785 5.183 0 9.767 2.568 12.549 6.5l0.032 0.048 31.974 45.594c1.741 2.457 2.783 5.516 2.783 8.819 0 8.486-6.879 15.365-15.365 15.365-5.183 0-9.767-2.567-12.55-6.498l-0.032-0.048-31.846-45.619c-1.761-2.466-2.816-5.542-2.816-8.864 0-5.141 2.526-9.693 6.405-12.481l0.046-0.031zM868.378 622.618c2.351 0 4.578 0.529 6.57 1.473l-0.093-0.040 50.483 23.629c5.195 2.537 8.711 7.781 8.711 13.846 0 8.483-6.877 15.36-15.36 15.36-2.284 0-4.452-0.499-6.4-1.393l0.096 0.039-50.509-23.501c-5.288-2.503-8.88-7.795-8.88-13.926 0-8.483 6.877-15.36 15.36-15.36 0.008 0 0.016 0 0.024 0h-0.001zM944.64 537.139l-55.475 4.89c-0.403 0.037-0.871 0.059-1.344 0.059-8.516 0-15.419-6.903-15.419-15.419 0-8.042 6.157-14.647 14.015-15.356l0.060-0.004 55.603-4.787h1.357c0.199-0.009 0.432-0.014 0.666-0.014 8.491 0 15.374 6.883 15.374 15.374 0 8.257-6.509 14.994-14.676 15.359l-0.033 0.001zM903.68 401.203l-45.594 31.974c-2.457 1.741-5.516 2.783-8.819 2.783-8.486 0-15.365-6.879-15.365-15.365 0-5.183 2.567-9.767 6.498-12.55l0.048-0.032 45.594-31.974c2.457-1.741 5.516-2.783 8.819-2.783 8.486 0 15.365 6.879 15.365 15.365 0 5.183-2.567 9.767-6.498 12.55l-0.048 0.032zM437.453 690.56l45.594-31.974c2.457-1.741 5.516-2.783 8.819-2.783 8.486 0 15.365 6.879 15.365 15.365 0 5.183-2.567 9.767-6.498 12.55l-0.048 0.032-45.619 31.974c-2.457 1.741-5.516 2.783-8.819 2.783-8.486 0-15.365-6.879-15.365-15.365 0-5.183 2.567-9.767 6.498-12.55l0.048-0.032zM564.506 737.28c2.27-5.826 7.836-9.88 14.349-9.88 8.483 0 15.36 6.877 15.36 15.36 0 2.683-0.688 5.205-1.896 7.399l0.040-0.079-23.501 50.509c-2.466 5.383-7.808 9.055-14.006 9.055-8.483 0-15.36-6.877-15.36-15.36 0-2.418 0.559-4.705 1.554-6.74l-0.040 0.091z" />
<glyph unicode="&#xe92a;" glyph-name="nb-paper-plane" d="M809.19 760.755s0 0.23 0 0.333 0 0.128 0 0.205 0 0.128 0 0.205 0 0.461 0 0.691 0 0.282 0 0.41 0 0.307 0 0.461 0 0.384 0 0.589 0 0.307 0 0.461 0 0.307 0 0.461v0.538c0 0.154 0 0.333 0 0.486v0.435l-0.154 0.563c0 0.154 0 0.307 0 0.461l-0.128 0.358-0.256 0.666v0.307l-0.128 0.282-0.358 0.742-0.179 0.358v0.205l-0.435 0.742-0.205 0.333-0.179 0.256-0.461 0.614-0.256 0.333-0.256 0.307-0.435 0.461-0.307 0.333-0.358 0.333-0.768 0.666-0.435 0.333-0.179 0.128h-0.179l-0.435 0.307-0.461 0.282-0.435 0.256-0.41 0.23-0.973 0.486-0.358 0.154-0.384 0.154-0.717 0.256h-0.666l-0.845 0.205h-6.605l-0.666-0.154h-0.717l-0.768-0.282-0.589-0.23-0.87-0.435h-0.205l-567.167-308.967-0.512-0.589-0.435-0.563-0.461-0.64-0.384-0.614-0.384-0.666-0.358-0.691-0.307-0.666c0-0.256-0.205-0.538-0.307-0.794l-0.179-0.435v-0.179c0-0.282-0.154-0.563-0.23-0.845s0-0.435-0.154-0.64 0-0.538-0.128-0.794 0-0.461 0-0.691 0-0.512 0-0.768 0-0.486 0-0.742 0-0.538 0-0.794 0-0.461 0-0.691 0-0.563 0-0.845 0-0.41 0-0.614 0.128-0.563 0.205-0.845 0-0.41 0.154-0.589 0.179-0.512 0.256-0.768 0.154-0.435 0.23-0.666l0.307-0.666 0.358-0.742v-0.179l0.154-0.256q0.384-0.666 0.819-1.306l0.282-0.384c0.387-0.51 0.772-0.961 1.183-1.388l-0.005 0.005 0.307-0.282q0.512-0.512 1.101-0.973l0.435-0.333q0.614-0.461 1.28-0.845l0.282-0.179c0.446-0.264 0.984-0.538 1.539-0.781l0.56-0.218 0.845-0.333 267.904-86.912 163.482-231.27 0.41-0.461 0.87-0.845 0.358-0.333c0.395-0.343 0.829-0.679 1.281-0.991l0.050-0.033 0.307-0.179 1.152-0.666 0.512-0.256 1.024-0.435 0.589-0.205 0.998-0.307 0.64-0.154h1.638c0.252-0.015 0.548-0.023 0.845-0.023s0.592 0.008 0.885 0.025l-0.041-0.002h0.179c0.822 0.011 1.618 0.085 2.395 0.218l-0.091-0.013 0.87 0.205c0.635 0.132 1.158 0.273 1.67 0.44l-0.109-0.031 0.947 0.384c0.461 0.179 0.896 0.384 1.331 0.614l0.973 0.563c0.23 0.154 0.486 0.256 0.717 0.435l0.589 0.461 0.358 0.282c0.585 0.491 1.111 1.001 1.6 1.547l0.013 0.015 0.256 0.307c0.481 0.554 0.936 1.164 1.345 1.807l0.037 0.062v0.154c0.361 0.59 0.713 1.28 1.012 1.998l0.038 0.102v0.23c0.261 0.654 0.499 1.442 0.673 2.254l0.018 0.101v0.205l124.518 628.173c0 0.128 0 0.282 0 0.41s0.205 0.538 0.23 0.794zM660.864 171.955l-138.394 195.968 242.97 330.010zM497.715 386.125l-228.198 74.035 471.194 256z" />
<glyph unicode="&#xe92b;" glyph-name="nb-notifications" d="M776.371 225.28l-25.6 64.742v171.52c-0.158 115.408-82.054 211.643-190.894 233.925l-1.541 0.264v39.117c0 26.086-21.146 47.232-47.232 47.232s-47.232-21.146-47.232-47.232v0-39.578c-109.438-23.306-190.361-119.083-190.515-233.788v-171.537l-25.728-64.666c-0.683-1.676-1.080-3.62-1.080-5.658 0-8.483 6.877-15.36 15.36-15.36 0.002 0 0.003 0 0.005 0h146.483c6.002-52.394 50.095-92.71 103.603-92.71s97.601 40.316 103.558 92.228l0.045 0.481h147.661c7.982 0.495 14.269 7.090 14.269 15.153 0 2.078-0.417 4.058-1.173 5.862l0.037-0.1zM284.518 234.982l14.566 36.736h425.83l14.566-36.736zM494.438 734.95c0 9.119 7.393 16.512 16.512 16.512s16.512-7.393 16.512-16.512v0-35.302c-5.12 0.333-10.24 0.512-15.539 0.512q-8.806 0-17.485-0.64zM512 669.44c114.808-0.131 207.843-93.166 207.974-207.962v-159.142h-415.949v159.13c0.131 114.808 93.166 207.843 207.962 207.974h0.012zM512 142.080c-36.546 0.056-66.847 26.721-72.57 61.654l-0.058 0.426h145.254c-5.781-35.359-36.082-62.024-72.621-62.080h-0.006z" />
<glyph unicode="&#xe92c;" glyph-name="nb-menu" d="M241.050 593.075h539.75c8.483 0 15.36 6.877 15.36 15.36s-6.877 15.36-15.36 15.36v0h-539.75c-8.483 0-15.36-6.877-15.36-15.36s6.877-15.36 15.36-15.36v0zM780.8 432.947h-539.75c-8.483 0-15.36-6.877-15.36-15.36s6.877-15.36 15.36-15.36v0h539.75c8.483 0 15.36 6.877 15.36 15.36s-6.877 15.36-15.36 15.36v0zM780.8 242.099h-539.75c-8.483 0-15.36-6.877-15.36-15.36s6.877-15.36 15.36-15.36v0h539.75c8.483 0 15.36 6.877 15.36 15.36s-6.877 15.36-15.36 15.36v0z" />
<glyph unicode="&#xe92d;" glyph-name="nb-loop" d="M799.59 302.49c-2.194 1.28-4.83 2.036-7.642 2.036-5.671 0-10.625-3.074-13.285-7.646l-0.039-0.073c-53.042-91.603-150.589-152.239-262.298-152.239-166.834 0-302.080 135.246-302.080 302.080 0 0.026 0 0.051 0 0.077v-0.004c0 0.41 0 0.794 0 1.203l24.141-25.011c2.797-2.891 6.712-4.687 11.046-4.687 8.484 0 15.362 6.878 15.362 15.362 0 4.15-1.645 7.915-4.319 10.679l0.004-0.004-45.85 47.488c-3.924 4.050-9.413 6.564-15.489 6.564-5.808 0-11.080-2.297-14.956-6.033l0.007 0.006-47.514-45.85c-2.891-2.797-4.687-6.712-4.687-11.046 0-8.484 6.878-15.362 15.362-15.362 4.15 0 7.915 1.645 10.679 4.319l25.596 24.649c0-0.742 0-1.51 0-2.253 0.089-183.733 149.054-332.644 332.8-332.644 122.979 0 230.379 66.705 287.991 165.907l0.854 1.592c1.26 2.18 2.003 4.795 2.003 7.584 0 5.658-3.059 10.601-7.613 13.266l-0.073 0.039zM895.386 482.355c-2.797 2.892-6.712 4.687-11.047 4.687-4.144 0-7.904-1.641-10.667-4.308l0.005 0.004-24.781-23.936c-6.4 177.92-153.114 320.717-332.57 320.717-123.021-0.203-230.415-66.913-288.169-166.089l-0.855-1.591c-1.292-2.204-2.055-4.853-2.055-7.68 0-8.494 6.886-15.38 15.38-15.38 5.667 0 10.617 3.065 13.285 7.627l0.039 0.073c53.032 91.643 150.601 152.311 262.338 152.311 162.78 0 295.487-128.752 301.842-289.974l0.018-0.577-24.858 25.754c-2.797 2.891-6.712 4.687-11.046 4.687-8.484 0-15.362-6.878-15.362-15.362 0-4.15 1.645-7.915 4.319-10.679l-0.004 0.004 45.875-47.488c3.924-4.050 9.413-6.564 15.489-6.564 5.808 0 11.080 2.297 14.956 6.033l-0.007-0.006 47.488 45.875c2.938 2.803 4.765 6.748 4.765 11.121 0 4.182-1.672 7.975-4.383 10.744l0.003-0.003z" />
<glyph unicode="&#xe92e;" glyph-name="nb-loop-circled" d="M513.28 947.2c-273.152 0-495.36-222.208-495.36-495.36s222.208-495.36 495.36-495.36 495.36 222.208 495.36 495.36-222.208 495.36-495.36 495.36zM513.28-12.8c-256.205 0-464.64 208.435-464.64 464.64s208.435 464.64 464.64 464.64 464.64-208.435 464.64-464.64-208.435-464.64-464.64-464.64zM738.611 340.941c-2.194 1.28-4.83 2.036-7.642 2.036-5.671 0-10.625-3.074-13.285-7.646l-0.039-0.073c-41.273-71.176-117.106-118.282-203.94-118.282-127.201 0-230.793 101.081-234.834 227.299l-0.009 0.371 13.338-13.824c2.797-2.891 6.712-4.687 11.046-4.687 8.484 0 15.362 6.878 15.362 15.362 0 4.15-1.645 7.915-4.319 10.679l0.004-0.004-36.147 37.453c-3.686 3.807-8.844 6.171-14.554 6.171-5.455 0-10.406-2.157-14.047-5.665l0.006 0.006-37.478-36.198c-2.891-2.797-4.687-6.712-4.687-11.046 0-8.484 6.878-15.362 15.362-15.362 4.15 0 7.915 1.645 10.679 4.319l-0.004-0.004 14.669 14.157c3.328-144.149 120.971-259.732 265.61-259.732 98.18 0 183.922 53.256 229.913 132.457l0.682 1.271c1.273 2.189 2.025 4.818 2.025 7.623 0 5.667-3.069 10.617-7.635 13.279l-0.073 0.039zM793.139 482.56l-14.387-13.901c-9.066 139.332-124.298 248.911-265.123 248.911-98.242 0-184.028-53.328-229.99-132.616l-0.682-1.274c-1.292-2.204-2.055-4.853-2.055-7.68 0-8.494 6.886-15.38 15.38-15.38 5.667 0 10.617 3.065 13.285 7.627l0.039 0.073c41.256 71.247 117.127 118.409 204.013 118.409 123.514 0 224.767-95.305 234.234-216.388l0.051-0.811-13.542 14.029c-2.82 3.098-6.87 5.035-11.372 5.035-8.483 0-15.36-6.877-15.36-15.36 0-4.311 1.776-8.207 4.636-10.997l0.003-0.003 36.147-37.453c3.686-3.807 8.844-6.171 14.554-6.171 5.455 0 10.406 2.157 14.047 5.665l-0.006-0.006 37.453 36.147c2.891 2.797 4.687 6.712 4.687 11.046 0 8.484-6.878 15.362-15.362 15.362-4.15 0-7.915-1.645-10.679-4.319l0.004 0.004z" />
<glyph unicode="&#xe92f;" glyph-name="nb-locked" d="M815.795 486.4c0 25.449-20.631 46.080-46.080 46.080v0 0h-69.12l-0.179 117.146c-0.421 96.769-78.827 175.085-175.589 175.36h-0.309c-96.905-0.262-175.36-78.879-175.36-175.82 0-0.027 0-0.055 0-0.082v0.004l0.179-117.146h-69.12c-25.449 0-46.080-20.631-46.080-46.080v0l0.538-336.614c0-25.449 20.631-46.080 46.080-46.080v0 0l489.702 0.768c25.449 0 46.080 20.631 46.080 46.080v0zM379.699 648.832c0 0.015 0 0.034 0 0.052 0 79.988 64.734 144.856 144.67 145.075h0.251c79.841-0.275 144.505-64.866 144.896-144.654v-0.037l0.179-117.146-289.818-0.461zM269.158 496.256c2.768 2.784 6.595 4.513 10.825 4.531h0.004l489.702 0.768c8.483 0 15.36-6.877 15.36-15.36v0l0.435-277.069-520.422-0.819-0.435 277.069c0 0.004 0 0.008 0 0.012 0 4.258 1.732 8.111 4.53 10.893l0.001 0.001zM781.158 138.778c-2.768-2.784-6.595-4.513-10.825-4.531h-0.004l-489.702-0.768c-8.483 0-15.36 6.877-15.36 15.36v0 28.826l520.422 0.819v-28.826c-0.033-4.254-1.79-8.091-4.606-10.852l-0.002-0.002zM526.72 249.293v0c27.236 0.131 49.266 22.233 49.28 49.483v112.078c-0.073 27.243-22.159 49.302-49.405 49.331h-0.003c-27.26-0.073-49.331-22.188-49.331-49.459 0-0.009 0-0.018 0-0.027v0.001l0.179-112.077c0.072-27.198 22.086-49.23 49.27-49.331h0.010zM526.515 429.466v0c10.306-0.015 18.659-8.358 18.688-18.66v-0.003l0.179-112.077c-0.043-10.3-8.367-18.641-18.656-18.714h-0.007c-10.306 0.015-18.659 8.358-18.688 18.66v0.003l-0.179 112.077c0.015 10.306 8.358 18.659 18.66 18.688h0.003z" />
<glyph unicode="&#xe930;" glyph-name="nb-location" d="M916.096 166.579l-130.56 311.27c-1.663 6.814-7.711 11.793-14.924 11.802h-77.339c1.587 4.096 3.098 8.166 4.506 12.211 2.56 7.322 4.864 14.669 6.861 21.888s3.84 14.874 5.299 22.17 2.714 15.027 3.584 22.4 1.459 15.13 1.69 22.528 0 15.206-0.384 22.554c-0.533 8.472-1.444 16.191-2.744 23.777l0.184-1.3c-1.548 8.91-3.325 16.414-5.495 23.749l0.375-1.477c-4.851 16.529-11.037 30.886-18.701 44.287l0.525-0.997q-1.536 2.765-3.174 5.478c-30.231 50.055-84.342 83.008-146.149 83.008-0.721 0-1.44-0.004-2.159-0.013l0.109 0.001h-1.997c-62.249-0.468-116.528-34.144-146.048-84.169l-0.435-0.797c-3.495-5.801-7.148-12.808-10.401-20.033l-0.53-1.317c-5.732-12.635-10.47-27.391-13.485-42.764l-0.211-1.294c-1.253-6.152-2.341-13.812-3.015-21.59l-0.057-0.81c-0.614-7.347-0.87-14.925-0.768-22.477s0.563-14.899 1.331-22.451 1.869-14.822 3.277-22.323 3.072-14.72 5.12-22.118 4.147-14.541 6.605-21.837c1.818-5.35 3.866-10.829 6.016-16.282h-91.162c-6.479-0.076-12.039-3.938-14.576-9.473l-0.042-0.101-131.558-313.805c-0.724-1.743-1.145-3.767-1.145-5.89 0-8.598 6.903-15.583 15.469-15.716h742.259c8.481 0.003 15.356 6.878 15.356 15.36 0 2.391-0.546 4.654-1.52 6.671l0.040-0.092zM751.053 175.36c-15.078 80.691-93.312 82.893-119.936 83.61-17.434 0.486-37.069-0.691-57.856-1.92-79.488-4.685-169.6-10.010-191.539 70.016-9.626 35.149 4.301 75.955 32.256 99.328 0.691-1.152 1.331-2.33 2.022-3.482 3.84-6.426 7.936-12.8 12.16-19.328s8.397-12.467 12.8-18.611 8.755-11.93 13.312-17.92 9.088-11.213 13.696-16.845 9.19-10.778 13.901-16 9.293-10.24 14.003-14.976c9.037-9.318 18.893-18.714 31.974-30.464 3.030-2.835 7.107-4.583 11.592-4.608h1.362c4.076 0.385 7.68 2.15 10.396 4.815l-0.003-0.003 3.763 3.533c7.68 7.27 15.744 14.771 23.347 22.656 4.685 4.838 9.344 9.83 13.875 14.874s9.293 10.496 13.85 15.923 9.216 11.213 13.645 16.896 9.011 11.827 13.338 17.792 8.781 12.442 12.8 18.586 8.346 12.8 12.237 19.328 7.834 13.338 11.443 19.994 7.168 13.568 10.394 20.275h80.435l118.784-283.469zM301.696 458.906h94.72c0.845-1.741 1.664-3.456 2.56-5.12-40.397-30.336-60.365-85.658-46.899-134.784 28.518-104.013 140.8-97.28 222.976-92.57 20.096 1.178 39.117 2.304 55.219 1.869 40.192-1.101 78.259-8.678 89.37-52.915h-536.832zM392.013 614.554c0.6 7.354 1.506 13.933 2.747 20.394l-0.187-1.168c1.46 7.595 3.090 13.944 5.052 20.144l-0.342-1.251c2.342 7.536 4.696 13.687 7.379 19.658l-0.441-1.098c3.225 7.283 6.339 13.256 9.769 19.019l-0.451-0.818c24.858 42.394 71.936 69.683 120.115 69.683h2.816c48.205 0.717 95.642-25.984 120.909-68.070q1.382-2.304 2.714-4.659c2.834-4.918 5.801-10.909 8.424-17.080l0.433-1.147c2.125-4.874 4.348-11.055 6.218-17.387l0.31-1.224c1.522-5.002 3.024-11.404 4.171-17.928l0.155-1.067c0.982-5.382 1.792-12.006 2.247-18.727l0.031-0.575c0.435-6.374 0.538-12.979 0.333-19.61s-0.691-13.158-1.485-19.814-1.843-13.286-3.2-19.968-2.918-13.312-4.787-20.019-3.917-13.286-6.246-19.968-4.838-13.21-7.68-19.84-5.658-13.056-8.781-19.584-6.374-12.8-9.856-19.226-7.014-12.57-10.778-18.79-7.526-12.186-11.546-18.253-7.936-11.75-12.16-17.587-8.32-11.315-12.621-16.87-8.55-10.778-12.954-16.026-8.73-10.24-13.133-15.104-8.73-9.498-13.158-14.080c-5.478-5.683-11.136-11.11-16.998-16.666-8.192 7.552-14.976 14.131-21.274 20.659-4.454 4.608-8.909 9.37-13.235 14.182s-8.909 10.061-13.184 15.181-8.781 10.675-12.979 16.077-8.576 11.238-12.621 16.87-8.243 11.725-12.109 17.587-7.834 12.16-11.443 18.202c-3.098 5.12-6.067 10.394-8.909 15.59-0.296 0.749-0.597 1.373-0.936 1.971l0.040-0.077c-0.34 0.584-0.67 1.077-1.026 1.549l0.028-0.039c-3.379 6.298-6.605 12.646-9.549 18.867s-5.99 13.056-8.602 19.482-5.12 13.261-7.373 19.738-4.275 13.312-6.016 19.866-3.302 13.363-4.531 19.891-2.227 13.338-2.918 19.84-1.075 13.261-1.178 19.686 0.282 13.235 0.819 19.584zM538.138 521.523c51.521 0 93.286 41.766 93.286 93.286s-41.766 93.286-93.286 93.286c-51.521 0-93.286-41.766-93.286-93.286v0c0.058-51.497 41.789-93.228 93.281-93.286h0.006zM538.138 677.376c34.554 0 62.566-28.012 62.566-62.566s-28.012-62.566-62.566-62.566c-34.554 0-62.566 28.012-62.566 62.566v0c0.044 34.537 28.030 62.523 62.562 62.566h0.004z" />
<glyph unicode="&#xe931;" glyph-name="nb-list" d="M330.65 623.795h539.75c8.483 0 15.36 6.877 15.36 15.36s-6.877 15.36-15.36 15.36v0h-539.75c-8.483 0-15.36-6.877-15.36-15.36s6.877-15.36 15.36-15.36v0zM870.4 463.667h-539.75c-8.483 0-15.36-6.877-15.36-15.36s6.877-15.36 15.36-15.36v0h539.75c8.483 0 15.36 6.877 15.36 15.36s-6.877 15.36-15.36 15.36v0zM870.4 272.819h-539.75c-8.483 0-15.36-6.877-15.36-15.36s6.877-15.36 15.36-15.36v0h539.75c8.483 0 15.36 6.877 15.36 15.36s-6.877 15.36-15.36 15.36v0zM196.787 697.498c-32.335 0-58.547-26.212-58.547-58.547s26.212-58.547 58.547-58.547c32.335 0 58.547 26.212 58.547 58.547v0c-0.029 32.323-26.224 58.518-58.544 58.547h-0.003zM196.787 611.149c-15.369 0-27.827 12.459-27.827 27.827s12.459 27.827 27.827 27.827c15.369 0 27.827-12.459 27.827-27.827v0c0-15.374-12.456-27.838-27.826-27.853h-0.001zM196.787 506.88c-32.335 0-58.547-26.212-58.547-58.547s26.212-58.547 58.547-58.547c32.335 0 58.547 26.212 58.547 58.547v0c-0.029 32.323-26.224 58.518-58.544 58.547h-0.003zM196.787 420.531c-15.369 0-27.827 12.459-27.827 27.827s12.459 27.827 27.827 27.827c15.369 0 27.827-12.459 27.827-27.827v0c-0.015-15.363-12.465-27.813-27.826-27.827h-0.001zM196.787 315.597c-32.335 0-58.547-26.212-58.547-58.547s26.212-58.547 58.547-58.547c32.335 0 58.547 26.212 58.547 58.547v0c-0.029 32.323-26.224 58.518-58.544 58.547h-0.003zM196.787 229.248c-15.369 0-27.827 12.459-27.827 27.827s12.459 27.827 27.827 27.827c15.369 0 27.827-12.459 27.827-27.827v0c0-15.374-12.456-27.838-27.826-27.853h-0.001z" />
<glyph unicode="&#xe932;" glyph-name="nb-lightbulb" d="M595.558 230.886c86.542 34.39 146.611 117.413 146.611 214.467 0 127.119-103.050 230.17-230.17 230.17s-230.17-103.050-230.17-230.17c0-97.054 60.069-180.077 145.057-213.921l1.554-0.546v-110.566c0-0.179 0-0.384 0-0.563s0-0.384 0-0.563c0-8.483 6.877-15.36 15.36-15.36v0h7.373v-49.766c0-0.282 0-0.563 0-0.845s0-0.563 0-0.845c0-8.483 6.877-15.36 15.36-15.36v0h93.21c8.483 0 15.36 6.877 15.36 15.36v0c0 0.282 0 0.589 0 0.87 0.096 0.637 0.151 1.373 0.154 2.122v0.002l-0.179 48.486h5.12c8.483 0 15.36 6.877 15.36 15.36v0c0 0.435 0 0.845 0 1.28s0 0.794 0 1.229zM575.334 256.205h-0.282l-1.050-0.41-0.486-0.23-0.845-0.435-0.589-0.358-0.64-0.41-0.64-0.486-0.512-0.41-0.614-0.563-0.461-0.461-0.538-0.589-0.461-0.538-0.435-0.563-0.461-0.666-0.333-0.538-0.435-0.768-0.256-0.512c-0.128-0.282-0.256-0.538-0.358-0.845l-0.205-0.563c0-0.282-0.205-0.563-0.282-0.845s0-0.435-0.179-0.666 0-0.512-0.179-0.768 0-0.563-0.128-0.845 0-0.41 0-0.589 0-0.717 0-1.050 0-0.23 0-0.358v-107.059h-1.792c-0.783-0.007-1.545-0.072-2.289-0.191l0.087 0.011h-1.203c-8.483 0-15.36-6.877-15.36-15.36v0l0.179-51.2h-62.694v49.818c-0.613 8.952-7.716 16.065-16.609 16.688l-0.057 0.003h-6.067v107.187c0 0.282 0 0.538 0 0.794s0 0.333 0 0.486 0 0.742-0.154 1.126v0.333c0 0.41-0.179 0.819-0.282 1.229v0.205c0 0.435-0.256 0.845-0.41 1.254v0.128q-0.23 0.614-0.538 1.203v0.154c-0.179 0.384-0.384 0.742-0.614 1.101v0.205c-0.205 0.333-0.435 0.64-0.666 0.947l-0.205 0.282-0.666 0.794-0.307 0.358-0.691 0.666-0.41 0.358-0.742 0.589-0.435 0.333-0.87 0.563-0.384 0.23-1.050 0.538-0.282 0.128-1.229 0.486h-0.154c-79.786 27.296-136.128 101.634-136.128 189.131 0 110.153 89.297 199.45 199.45 199.45s199.45-89.297 199.45-199.45c0-87.497-56.342-161.835-134.725-188.713l-1.403-0.418zM203.878 417.024h-79.36c-8.483 0-15.36-6.877-15.36-15.36s6.877-15.36 15.36-15.36v0h79.36c8.483 0 15.36 6.877 15.36 15.36s-6.877 15.36-15.36 15.36v0zM899.405 417.024h-79.36c-8.483 0-15.36-6.877-15.36-15.36s6.877-15.36 15.36-15.36v0h79.36c8.483 0 15.36 6.877 15.36 15.36s-6.877 15.36-15.36 15.36v0zM514.381 751.309c8.483 0 15.36 6.877 15.36 15.36v0 79.36c0 8.483-6.877 15.36-15.36 15.36s-15.36-6.877-15.36-15.36v0-79.36c0-8.483 6.877-15.36 15.36-15.36v0zM197.914 686.618l61.875-49.587c2.605-2.099 5.954-3.369 9.6-3.369 8.484 0 15.363 6.878 15.363 15.363 0 4.839-2.237 9.155-5.733 11.971l-0.030 0.023-61.875 49.587c-2.605 2.099-5.954 3.369-9.6 3.369-8.484 0-15.363-6.878-15.363-15.363 0-4.839 2.237-9.155 5.733-11.971l0.030-0.023zM755.661 632.32c3.532 0.002 6.786 1.195 9.379 3.201l-0.035-0.026 62.899 48.282c3.668 2.836 6.007 7.238 6.007 12.186 0 8.485-6.878 15.364-15.364 15.364-3.537 0-6.795-1.195-9.392-3.204l0.035 0.026-62.899-48.282c-3.669-2.836-6.009-7.237-6.009-12.186 0-8.483 6.877-15.36 15.36-15.36 0.007 0 0.013 0 0.020 0h-0.001zM757.581 258.381c-2.838 3.594-7.194 5.879-12.085 5.879-8.483 0-15.36-6.877-15.36-15.36 0-3.55 1.205-6.82 3.227-9.421l-0.026 0.035 48.64-62.566c2.836-3.649 7.226-5.974 12.158-5.974 8.483 0 15.36 6.877 15.36 15.36 0 3.593-1.233 6.897-3.3 9.513l0.025-0.032zM289.28 259.456c-2.559 1.977-5.812 3.168-9.343 3.168-4.949 0-9.351-2.34-12.16-5.975l-0.026-0.035-48.128-62.925c-2.114-2.61-3.394-5.971-3.394-9.631 0-8.483 6.877-15.36 15.36-15.36 5.077 0 9.579 2.463 12.376 6.26l0.030 0.042 48.23 62.925c1.954 2.55 3.131 5.784 3.131 9.294 0 4.977-2.367 9.402-6.038 12.209l-0.037 0.027zM604.902 479.437c-1.332 0.418-2.863 0.659-4.451 0.659-6.892 0-12.723-4.539-14.669-10.79l-0.029-0.109-9.293-30.72h-125.594l-9.293 30.72c-1.973 6.368-7.809 10.913-14.707 10.913-8.487 0-15.367-6.88-15.367-15.367 0-1.589 0.241-3.122 0.689-4.563l-0.029 0.109 31.744-105.165c0.261-0.844 0.548-1.556 0.884-2.239l-0.040 0.089 0.179-0.384c0.365-0.704 0.73-1.299 1.133-1.865l-0.032 0.047 0.282-0.384c0.409-0.549 0.82-1.033 1.259-1.49l-0.005 0.005 0.154-0.179c0.492-0.484 1.018-0.937 1.573-1.354l0.040-0.029 0.358-0.256c0.521-0.381 1.116-0.755 1.736-1.087l0.082-0.040h0.23c0.523-0.268 1.158-0.536 1.812-0.761l0.108-0.032h0.205c0.568-0.192 1.266-0.37 1.98-0.498l0.093-0.014h0.486c0.603-0.092 1.303-0.147 2.015-0.154h37.716v-160.358c0-8.483 6.877-15.36 15.36-15.36s15.36 6.877 15.36 15.36v0 160.051h41.805c6.898 0.006 12.731 4.559 14.665 10.822l0.029 0.109 31.744 105.165c0.419 1.334 0.661 2.868 0.661 4.458 0 6.883-4.527 12.709-10.767 14.661l-0.109 0.029zM557.312 374.912h-87.27l-9.907 32.794h107.085z" />
<glyph unicode="&#xe933;" glyph-name="nb-layout-two-column" d="M811.52 780.8h-573.44c-25.449 0-46.080-20.631-46.080-46.080v0-573.44c0-25.449 20.631-46.080 46.080-46.080v0h573.44c25.449 0 46.080 20.631 46.080 46.080v0 573.44c0 25.449-20.631 46.080-46.080 46.080v0zM222.72 734.72c-0.013 0.233-0.020 0.506-0.020 0.781s0.007 0.548 0.021 0.819l-0.002-0.038c0.388 3.657 2.007 6.876 4.429 9.293v0q0.512 0.512 1.101 0.998c2.633 2.183 6.047 3.507 9.77 3.507 0.021 0 0.043 0 0.064 0h573.437c3.717-0.004 7.124-1.328 9.779-3.528l-0.026 0.021q0.563-0.461 1.101-0.998c2.45-2.408 4.095-5.628 4.499-9.223l0.006-0.070c0.013-0.233 0.020-0.506 0.020-0.781s-0.007-0.548-0.021-0.819l0.002 0.038v-72.704h-604.16zM826.88 161.28c0-8.483-6.877-15.36-15.36-15.36v0h-573.44c-8.483 0-15.36 6.877-15.36 15.36v0 470.016h604.16zM385.101 212.096h58.88c25.449 0 46.080 20.631 46.080 46.080v0 264.371c0 25.449-20.631 46.080-46.080 46.080v0h-58.88c-25.449 0-46.080-20.631-46.080-46.080v0-264.371c0-25.449 20.631-46.080 46.080-46.080v0zM369.741 522.522c0 8.483 6.877 15.36 15.36 15.36v0h58.88c8.483 0 15.36-6.877 15.36-15.36v0-264.346c0-8.483-6.877-15.36-15.36-15.36v0h-58.88c-8.483 0-15.36 6.877-15.36 15.36v0zM599.040 212.096h58.88c25.449 0 46.080 20.631 46.080 46.080v0 264.371c0 25.449-20.631 46.080-46.080 46.080v0h-58.88c-25.449 0-46.080-20.631-46.080-46.080v0-264.371c0-25.449 20.631-46.080 46.080-46.080v0zM583.68 522.522c0 8.483 6.877 15.36 15.36 15.36v0h58.88c8.483 0 15.36-6.877 15.36-15.36v0-264.346c0-8.483-6.877-15.36-15.36-15.36v0h-58.88c-8.483 0-15.36 6.877-15.36 15.36v0z" />
<glyph unicode="&#xe934;" glyph-name="nb-layout-sidebar-right" d="M798.72 780.8h-573.44c-25.449 0-46.080-20.631-46.080-46.080v0-573.44c0-25.449 20.631-46.080 46.080-46.080v0h573.44c25.449 0 46.080 20.631 46.080 46.080v0 573.44c0 25.449-20.631 46.080-46.080 46.080v0zM209.92 734.72c-0.013 0.233-0.020 0.506-0.020 0.781s0.007 0.548 0.021 0.819l-0.002-0.038c0.388 3.657 2.007 6.876 4.429 9.293v0q0.512 0.512 1.101 0.998c2.633 2.183 6.047 3.507 9.77 3.507 0.021 0 0.043 0 0.064 0h573.437c3.717-0.004 7.124-1.328 9.779-3.528l-0.026 0.021q0.563-0.461 1.101-0.998c2.45-2.408 4.095-5.628 4.499-9.223l0.006-0.070c0.013-0.233 0.020-0.506 0.020-0.781s-0.007-0.548-0.021-0.819l0.002 0.038v-72.704h-604.16zM814.080 161.28c0-8.483-6.877-15.36-15.36-15.36v0h-573.44c-8.483 0-15.36 6.877-15.36 15.36v0 470.016h604.16zM302.080 210.432h264.397c25.449 0 46.080 20.631 46.080 46.080v0 264.346c0 25.449-20.631 46.080-46.080 46.080v0h-264.397c-25.449 0-46.080-20.631-46.080-46.080v0-264.346c0-25.449 20.631-46.080 46.080-46.080v0zM286.72 520.858c0 8.483 6.877 15.36 15.36 15.36v0h264.397c8.483 0 15.36-6.877 15.36-15.36v0-264.346c0-8.483-6.877-15.36-15.36-15.36v0h-264.397c-8.483 0-15.36 6.877-15.36 15.36v0zM726.605 210.432c22.723 0.029 41.136 18.442 41.165 41.162v274.179c0 22.735-18.43 41.165-41.165 41.165s-41.165-18.43-41.165-41.165v0-274.176c0.029-22.723 18.442-41.136 41.162-41.165h0.003z" />
<glyph unicode="&#xe935;" glyph-name="nb-layout-sidebar-left" d="M798.72 780.8h-573.44c-25.449 0-46.080-20.631-46.080-46.080v0-573.44c0-25.449 20.631-46.080 46.080-46.080v0h573.44c25.449 0 46.080 20.631 46.080 46.080v0 573.44c0 25.449-20.631 46.080-46.080 46.080v0zM209.92 734.72c-0.013 0.233-0.020 0.506-0.020 0.781s0.007 0.548 0.021 0.819l-0.002-0.038c0.388 3.657 2.007 6.876 4.429 9.293v0q0.512 0.512 1.101 0.998c2.633 2.183 6.047 3.507 9.77 3.507 0.021 0 0.043 0 0.064 0h573.437c3.717-0.004 7.124-1.328 9.779-3.528l-0.026 0.021q0.563-0.461 1.101-0.998c2.45-2.408 4.095-5.628 4.499-9.223l0.006-0.070c0.013-0.233 0.020-0.506 0.020-0.781s-0.007-0.548-0.021-0.819l0.002 0.038v-72.704h-604.16zM814.080 161.28c0-8.483-6.877-15.36-15.36-15.36v0h-573.44c-8.483 0-15.36 6.877-15.36 15.36v0 470.016h604.16zM457.523 210.432h264.397c25.449 0 46.080 20.631 46.080 46.080v0 264.346c0 25.449-20.631 46.080-46.080 46.080v0h-264.397c-25.449 0-46.080-20.631-46.080-46.080v0-264.346c0-25.449 20.631-46.080 46.080-46.080v0zM442.163 520.858c0 8.483 6.877 15.36 15.36 15.36v0h264.397c8.483 0 15.36-6.877 15.36-15.36v0-264.346c0-8.483-6.877-15.36-15.36-15.36v0h-264.397c-8.483 0-15.36 6.877-15.36 15.36v0zM297.395 210.432c22.723 0.029 41.136 18.442 41.165 41.162v274.179c0 22.735-18.43 41.165-41.165 41.165s-41.165-18.43-41.165-41.165v0-274.176c0.029-22.723 18.442-41.136 41.162-41.165h0.003z" />
<glyph unicode="&#xe936;" glyph-name="nb-layout-one-column" d="M785.92 780.8h-573.44c-25.449 0-46.080-20.631-46.080-46.080v0-573.44c0-25.449 20.631-46.080 46.080-46.080v0h573.44c25.449 0 46.080 20.631 46.080 46.080v0 573.44c0 25.449-20.631 46.080-46.080 46.080v0zM197.12 734.72c-0.013 0.233-0.020 0.506-0.020 0.781s0.007 0.548 0.021 0.819l-0.002-0.038c0.388 3.657 2.007 6.876 4.429 9.293v0q0.512 0.512 1.101 0.998c2.633 2.183 6.047 3.507 9.77 3.507 0.021 0 0.043 0 0.064 0h573.437c3.717-0.004 7.124-1.328 9.779-3.528l-0.026 0.021q0.563-0.461 1.101-0.998c2.45-2.408 4.095-5.628 4.499-9.223l0.006-0.070c0.013-0.233 0.020-0.506 0.020-0.781s-0.007-0.548-0.021-0.819l0.002 0.038v-72.704h-604.16zM801.28 161.28c0-8.483-6.877-15.36-15.36-15.36v0h-573.44c-8.483 0-15.36 6.877-15.36 15.36v0 470.016h604.16zM469.76 210.432h58.88c25.449 0 46.080 20.631 46.080 46.080v0 264.346c0 25.449-20.631 46.080-46.080 46.080v0h-58.88c-25.449 0-46.080-20.631-46.080-46.080v0-264.346c0-25.449 20.631-46.080 46.080-46.080v0zM454.4 520.858c0 8.483 6.877 15.36 15.36 15.36v0h58.88c8.483 0 15.36-6.877 15.36-15.36v0-264.346c0-8.483-6.877-15.36-15.36-15.36v0h-58.88c-8.483 0-15.36 6.877-15.36 15.36v0z" />
<glyph unicode="&#xe937;" glyph-name="nb-layout-default" d="M811.52 780.8h-573.44c-25.449 0-46.080-20.631-46.080-46.080v0-573.44c0-25.449 20.631-46.080 46.080-46.080v0h573.44c25.449 0 46.080 20.631 46.080 46.080v0 573.44c0 25.449-20.631 46.080-46.080 46.080v0zM222.72 734.72c-0.013 0.233-0.020 0.506-0.020 0.781s0.007 0.548 0.021 0.819l-0.002-0.038c0.388 3.657 2.007 6.876 4.429 9.293v0q0.512 0.512 1.101 0.998c2.633 2.183 6.047 3.507 9.77 3.507 0.021 0 0.043 0 0.064 0h573.437c3.717-0.004 7.124-1.328 9.779-3.528l-0.026 0.021q0.563-0.461 1.101-0.998c2.45-2.408 4.095-5.628 4.499-9.223l0.006-0.070c0.013-0.233 0.020-0.506 0.020-0.781s-0.007-0.548-0.021-0.819l0.002 0.038v-72.704h-604.16zM826.88 161.28c0-8.483-6.877-15.36-15.36-15.36v0h-573.44c-8.483 0-15.36 6.877-15.36 15.36v0 470.016h604.16zM368.41 212.096h307.789c25.449 0 46.080 20.631 46.080 46.080v0 264.371c0 25.449-20.631 46.080-46.080 46.080v0h-307.789c-25.449 0-46.080-20.631-46.080-46.080v0-264.371c0-25.449 20.631-46.080 46.080-46.080v0zM353.050 522.522c0 8.483 6.877 15.36 15.36 15.36v0h307.789c8.483 0 15.36-6.877 15.36-15.36v0-264.346c0-8.483-6.877-15.36-15.36-15.36v0h-307.789c-8.483 0-15.36 6.877-15.36 15.36v0z" />
<glyph unicode="&#xe938;" glyph-name="nb-layout-centre" d="M811.52 780.8h-573.44c-25.449 0-46.080-20.631-46.080-46.080v0-573.44c0-25.449 20.631-46.080 46.080-46.080v0h573.44c25.449 0 46.080 20.631 46.080 46.080v0 573.44c0 25.449-20.631 46.080-46.080 46.080v0zM222.72 734.72c-0.013 0.233-0.020 0.506-0.020 0.781s0.007 0.548 0.021 0.819l-0.002-0.038c0.388 3.657 2.007 6.876 4.429 9.293v0q0.512 0.512 1.101 0.998c2.633 2.183 6.047 3.507 9.77 3.507 0.021 0 0.043 0 0.064 0h573.437c3.717-0.004 7.124-1.328 9.779-3.528l-0.026 0.021q0.563-0.461 1.101-0.998c2.45-2.408 4.095-5.628 4.499-9.223l0.006-0.070c0.013-0.233 0.020-0.506 0.020-0.781s-0.007-0.548-0.021-0.819l0.002 0.038v-72.704h-604.16zM826.88 161.28c0-8.483-6.877-15.36-15.36-15.36v0h-573.44c-8.483 0-15.36 6.877-15.36 15.36v0 470.016h604.16zM433.562 208.768h180.838c25.449 0 46.080 20.631 46.080 46.080v0 264.346c0 25.449-20.631 46.080-46.080 46.080v0h-180.838c-25.449 0-46.080-20.631-46.080-46.080v0-264.346c0-25.449 20.631-46.080 46.080-46.080v0zM418.202 519.194c0 8.483 6.877 15.36 15.36 15.36v0h180.838c8.483 0 15.36-6.877 15.36-15.36v0-264.346c0-8.483-6.877-15.36-15.36-15.36v0h-180.838c-8.483 0-15.36 6.877-15.36 15.36v0z" />
<glyph unicode="&#xe939;" glyph-name="nb-keypad" d="M295.706 780.8c-0.015 0-0.033 0-0.051 0-47.378 0-85.786-38.408-85.786-85.786s38.408-85.786 85.786-85.786c47.378 0 85.786 38.408 85.786 85.786v0c0 47.36-38.378 85.756-85.732 85.786h-0.003zM295.706 640c-0.015 0-0.033 0-0.051 0-30.412 0-55.066 24.654-55.066 55.066s24.654 55.066 55.066 55.066c30.412 0 55.066-24.654 55.066-55.066 0-0.018 0-0.036 0-0.054v0.003c-0.073-30.354-24.66-54.942-55.007-55.014h-0.007zM527.36 780.8c-47.378 0-85.786-38.408-85.786-85.786s38.408-85.786 85.786-85.786c47.378 0 85.786 38.408 85.786 85.786v0c0 47.378-38.408 85.786-85.786 85.786v0zM527.36 640c-30.412 0-55.066 24.654-55.066 55.066s24.654 55.066 55.066 55.066c30.412 0 55.066-24.654 55.066-55.066v0c-0.044-30.394-24.671-55.022-55.061-55.066h-0.004zM759.014 609.28c0.015 0 0.033 0 0.051 0 47.378 0 85.786 38.408 85.786 85.786s-38.408 85.786-85.786 85.786c-47.378 0-85.786-38.408-85.786-85.786 0-0.018 0-0.036 0-0.054v0.003c0.029-47.338 38.396-85.705 85.732-85.734h0.003zM759.014 750.080c0.015 0 0.033 0 0.051 0 30.412 0 55.066-24.654 55.066-55.066s-24.654-55.066-55.066-55.066c-30.412 0-55.066 24.654-55.066 55.065v0c0.044 30.376 24.642 54.993 55.007 55.066h0.007zM295.706 549.146c-0.015 0-0.033 0-0.051 0-47.378 0-85.786-38.408-85.786-85.786s38.408-85.786 85.786-85.786c47.378 0 85.786 38.408 85.786 85.786v0c0 47.36-38.378 85.756-85.732 85.786h-0.003zM295.706 408.346c-0.015 0-0.033 0-0.051 0-30.412 0-55.066 24.654-55.066 55.066s24.654 55.066 55.066 55.066c30.412 0 55.066-24.654 55.066-55.066 0-0.018 0-0.036 0-0.054v0.003c-0.044-30.376-24.642-54.993-55.007-55.066h-0.007zM527.36 549.146c-47.378 0-85.786-38.408-85.786-85.786s38.408-85.786 85.786-85.786c47.378 0 85.786 38.408 85.786 85.786v0c0 47.378-38.408 85.786-85.786 85.786v0zM527.36 408.346c-30.412 0-55.066 24.654-55.066 55.066s24.654 55.066 55.066 55.066c30.412 0 55.066-24.654 55.066-55.066 0-0.018 0-0.036 0-0.054v0.003c-0.044-30.394-24.671-55.022-55.061-55.066h-0.004zM759.014 549.146c-47.378 0-85.786-38.408-85.786-85.786s38.408-85.786 85.786-85.786c47.378 0 85.786 38.408 85.786 85.786v0c0 47.378-38.408 85.786-85.786 85.786v0zM759.014 408.346c-30.412 0-55.066 24.654-55.066 55.066s24.654 55.066 55.066 55.066c30.412 0 55.066-24.654 55.066-55.066 0-0.018 0-0.036 0-0.054v0.003c-0.044-30.394-24.671-55.022-55.061-55.066h-0.004zM295.706 317.44c-0.015 0-0.033 0-0.051 0-47.378 0-85.786-38.408-85.786-85.786s38.408-85.786 85.786-85.786c47.378 0 85.786 38.408 85.786 85.786 0 0.018 0 0.036 0 0.054v-0.003c-0.029 47.338-38.396 85.705-85.732 85.734h-0.003zM295.706 176.64c-0.015 0-0.033 0-0.051 0-30.412 0-55.066 24.654-55.066 55.066s24.654 55.066 55.066 55.066c30.412 0 55.066-24.654 55.066-55.065v0c-0.044-30.376-24.642-54.993-55.007-55.066h-0.007zM527.36 317.44c-47.378 0-85.786-38.408-85.786-85.786s38.408-85.786 85.786-85.786c47.378 0 85.786 38.408 85.786 85.786v0c0 47.378-38.408 85.786-85.786 85.786v0zM527.36 176.64c-30.412 0-55.066 24.654-55.066 55.066s24.654 55.066 55.066 55.066c30.412 0 55.066-24.654 55.066-55.066v0c-0.044-30.394-24.671-55.022-55.061-55.066h-0.004zM759.014 317.44c-47.378 0-85.786-38.408-85.786-85.786s38.408-85.786 85.786-85.786c47.378 0 85.786 38.408 85.786 85.786 0 0.018 0 0.036 0 0.054v-0.003c-0.029 47.356-38.426 85.734-85.786 85.734v0zM759.014 176.64c-30.412 0-55.066 24.654-55.066 55.066s24.654 55.066 55.066 55.066c30.412 0 55.066-24.654 55.066-55.066v0c-0.044-30.394-24.671-55.022-55.061-55.066h-0.004z" />
<glyph unicode="&#xe93a;" glyph-name="nb-home" d="M793.446 471.27c0 5.12 0 10.598 0 16.077-0.218 5.968-2.614 11.337-6.411 15.372l0.011-0.012c-1.702 1.763-3.533 3.375-5.488 4.831l-0.118 0.084-239.59 186.317-0.845 0.41-0.435 0.41c-0.589 0.512-1.178 1.024-1.792 1.536-1.306 1.075-2.56 2.099-3.994 3.149l-13.67 10.701c-2.738 2.214-6.262 3.553-10.099 3.553s-7.361-1.34-10.13-3.577l0.031 0.024-263.834-204.8c-1.53-1.169-2.879-2.429-4.095-3.809l-0.027-0.031c-1.29-1.444-2.331-3.144-3.035-5.009l-0.037-0.111c-0.584-1.588-0.922-3.422-0.922-5.335 0-0.032 0-0.065 0-0.097v0.005l0.486-361.472c0-16.051 14.899-29.133 33.28-29.133l159.616-0.205c0.083-0.001 0.18-0.002 0.278-0.002 6.943 0 13.241 2.764 17.852 7.252l-0.006-0.006c3.938 3.872 6.384 9.252 6.4 15.203v0.003l-0.23 178.022c0.697 0.276 1.505 0.436 2.35 0.436 0.029 0 0.058 0 0.087-0.001h-0.004l123.341-0.154c0.042 0.001 0.092 0.002 0.142 0.002 0.871 0 1.702-0.17 2.462-0.478l-0.044 0.016 0.23-178.074c0-12.57 10.803-22.426 24.55-22.451l161.101-0.205c0.137-0.002 0.3-0.003 0.462-0.003 9.507 0 18.136 3.758 24.483 9.87l-0.011-0.011c5.024 4.889 8.159 11.699 8.218 19.24v0.011l-0.435 335.488c-0.179 2.253-0.154 4.608-0.128 6.963zM760.678 130.304v0l-154.957 0.256-0.23 171.853c0 16.051-14.899 29.107-33.28 29.133l-123.341 0.154c-0.134 0.002-0.293 0.003-0.452 0.003-9.51 0-18.143-3.758-24.494-9.87l0.011 0.011c-5.028-4.897-8.163-11.715-8.218-19.267v-0.010l0.23-171.776-153.395 0.205c-0.044-0.001-0.095-0.002-0.147-0.002-0.869 0-1.699 0.17-2.457 0.478l0.044-0.016-0.461 352.666 251.213 195.098 5.12-3.917 3.482-2.739 0.717-0.64c1.516-1.428 3.191-2.721 4.986-3.839l0.134-0.078 237.466-184.678c0-3.814 0-7.68 0-11.725 0-2.56 0-4.966 0-7.424l0.435-333.414c-0.713-0.291-1.54-0.46-2.406-0.461v0zM838.912 550.4l-310.682 240c-4.434 3.453-10.082 5.536-16.218 5.536s-11.784-2.083-16.277-5.581l0.059 0.045-123.034-95.078v26.291c0 18.79-17.382 34.074-38.758 34.074h-48.64c-21.376 0-38.758-15.36-38.758-34.074v-123.878l-61.517-47.334c-3.647-2.838-5.971-7.227-5.971-12.16 0-8.487 6.88-15.367 15.367-15.367 3.554 0 6.826 1.207 9.43 3.233l-0.035-0.026 308.122 238.029 308.147-238.080c2.569-2 5.841-3.207 9.395-3.207 8.487 0 15.367 6.88 15.367 15.367 0 4.933-2.324 9.322-5.937 12.134l-0.035 0.026zM277.197 721.536c0.256 0.947 3.123 3.43 8.038 3.43h48.64c4.915 0 7.68-2.56 8.038-3.354v-50.022l-64.819-50.099z" />
<glyph unicode="&#xe93b;" glyph-name="nb-heart" d="M824.32 577.741c-29.030 92.774-117.965 151.040-211.482 138.752-35.066-4.713-66.296-18.303-92.21-38.417l0.434 0.324-0.435-0.358c-0.87-0.691-1.997-1.562-2.944-2.227-1.203 0.896-2.739 2.176-3.763 3.072-1.739 1.529-3.641 3.041-5.616 4.457l-0.221 0.151c-6.109 4.26-13.184 8.551-20.528 12.401l-1.104 0.527c-18.423 9.741-39.864 16.773-62.556 19.881l-1.009 0.113c-93.491 12.365-182.451-46.080-211.482-138.752-34.995-111.744 41.882-216.422 76.544-256.23 58.547-66.904 134.408-117.275 220.616-144.226l3.435-0.926c1.731-0.549 3.721-0.866 5.786-0.866s4.055 0.317 5.926 0.904l-0.14-0.038c89.673 27.864 165.562 78.238 223.647 144.591l0.481 0.561c34.816 39.808 111.693 144.486 76.621 256.307zM724.48 341.632c-54.145-61.868-124.084-108.631-203.556-134.099l-3.215-0.89c-82.686 26.358-152.626 73.12-206.32 134.463l-0.451 0.526c-31.283 35.84-100.762 129.894-70.4 226.944 22.374 71.501 86.528 118.861 157.235 118.861 7.368-0.003 14.617-0.505 21.717-1.475l-0.827 0.092c19.959-2.714 38.016-8.638 54.423-17.273l-0.894 0.429c7.145-3.708 13.132-7.344 18.863-11.324l-0.559 0.367c0.819-0.563 2.125-1.664 3.379-2.739 5.478-4.634 13.773-11.648 24.832-10.982 9.421 0.538 16.23 5.914 20.736 9.446l0.435 0.333c21.406 16.565 47.645 27.91 76.271 31.682l0.811 0.087c78.618 10.394 153.6-38.989 178.125-117.478 30.362-97.101-39.142-191.078-70.426-226.995z" />
<glyph unicode="&#xe93c;" glyph-name="nb-grid-b" d="M233.139 755.584h124.877c16.966 0 30.72-13.754 30.72-30.72v-124.877c0-16.966-13.754-30.72-30.72-30.72h-124.877c-16.966 0-30.72 13.754-30.72 30.72v124.877c0 16.966 13.754 30.72 30.72 30.72zM683.418 755.584h124.877c16.966 0 30.72-13.754 30.72-30.72v-124.877c0-16.966-13.754-30.72-30.72-30.72h-124.877c-16.966 0-30.72 13.754-30.72 30.72v124.877c0 16.966 13.754 30.72 30.72 30.72zM458.266 755.584h124.877c16.966 0 30.72-13.754 30.72-30.72v-124.877c0-16.966-13.754-30.72-30.72-30.72h-124.877c-16.966 0-30.72 13.754-30.72 30.72v124.877c0 16.966 13.754 30.72 30.72 30.72zM233.139 531.302h124.877c16.966 0 30.72-13.754 30.72-30.72v-124.877c0-16.966-13.754-30.72-30.72-30.72h-124.877c-16.966 0-30.72 13.754-30.72 30.72v124.877c0 16.966 13.754 30.72 30.72 30.72zM683.418 531.302h124.877c16.966 0 30.72-13.754 30.72-30.72v-124.877c0-16.966-13.754-30.72-30.72-30.72h-124.877c-16.966 0-30.72 13.754-30.72 30.72v124.877c0 16.966 13.754 30.72 30.72 30.72zM458.266 531.302h124.877c16.966 0 30.72-13.754 30.72-30.72v-124.877c0-16.966-13.754-30.72-30.72-30.72h-124.877c-16.966 0-30.72 13.754-30.72 30.72v124.877c0 16.966 13.754 30.72 30.72 30.72zM233.139 307.021h124.877c16.966 0 30.72-13.754 30.72-30.72v-124.877c0-16.966-13.754-30.72-30.72-30.72h-124.877c-16.966 0-30.72 13.754-30.72 30.72v124.877c0 16.966 13.754 30.72 30.72 30.72zM683.418 307.021h124.877c16.966 0 30.72-13.754 30.72-30.72v-124.877c0-16.966-13.754-30.72-30.72-30.72h-124.877c-16.966 0-30.72 13.754-30.72 30.72v124.877c0 16.966 13.754 30.72 30.72 30.72zM458.266 307.021h124.877c16.966 0 30.72-13.754 30.72-30.72v-124.877c0-16.966-13.754-30.72-30.72-30.72h-124.877c-16.966 0-30.72 13.754-30.72 30.72v124.877c0 16.966 13.754 30.72 30.72 30.72z" />
</font>
</defs>
</svg>
