<?xml version="1.0" encoding="UTF-8" standalone="no"?>
<!DOCTYPE svg PUBLIC "-//W3C//DTD SVG 1.1//EN"
 "http://www.w3.org/Graphics/SVG/1.1/DTD/svg11.dtd">
<!-- Generated by graphviz version 2.40.1 (20161225.0304)
 -->
<!-- Title: dependencies Pages: 1 -->
<svg width="504pt" height="211pt"
 viewBox="0.00 0.00 504.00 211.00" xmlns="http://www.w3.org/2000/svg" xmlns:xlink="http://www.w3.org/1999/xlink">
<g id="graph0" class="graph" transform="scale(1 1) rotate(0) translate(4 207)">
<title>dependencies</title>
<polygon fill="#ffffff" stroke="transparent" points="-4,4 -4,-207 500,-207 500,4 -4,4"/>
<text text-anchor="start" x="227.0091" y="-42.4" font-family="sans-serif" font-weight="bold" font-size="14.00" fill="#000000">Legend</text>
<polygon fill="#ffffb3" stroke="transparent" points="14,-10 14,-30 34,-30 34,-10 14,-10"/>
<text text-anchor="start" x="37.629" y="-15.4" font-family="sans-serif" font-size="14.00" fill="#000000"> &#160;Declarations</text>
<polygon fill="#8dd3c7" stroke="transparent" points="127,-10 127,-30 147,-30 147,-10 127,-10"/>
<text text-anchor="start" x="150.7251" y="-15.4" font-family="sans-serif" font-size="14.00" fill="#000000"> &#160;Module</text>
<polygon fill="#80b1d3" stroke="transparent" points="213,-10 213,-30 233,-30 233,-10 213,-10"/>
<text text-anchor="start" x="236.7812" y="-15.4" font-family="sans-serif" font-size="14.00" fill="#000000"> &#160;Bootstrap</text>
<polygon fill="#fdb462" stroke="transparent" points="310,-10 310,-30 330,-30 330,-10 310,-10"/>
<text text-anchor="start" x="333.6732" y="-15.4" font-family="sans-serif" font-size="14.00" fill="#000000"> &#160;Providers</text>
<polygon fill="#fb8072" stroke="transparent" points="406,-10 406,-30 426,-30 426,-10 406,-10"/>
<text text-anchor="start" x="429.7258" y="-15.4" font-family="sans-serif" font-size="14.00" fill="#000000"> &#160;Exports</text>
<g id="clust1" class="cluster">
<title>cluster_MiscellaneousModule</title>
<polygon fill="none" stroke="#000000" stroke-dasharray="1,5" points="81,-70 81,-195 415,-195 415,-70 81,-70"/>
</g>
<g id="clust3" class="cluster">
<title>cluster_MiscellaneousModule_imports</title>
<polygon fill="none" stroke="#000000" points="89,-78 89,-130 407,-130 407,-78 89,-78"/>
</g>
<!-- ThemeModule -->
<g id="node1" class="node">
<title>ThemeModule</title>
<polygon fill="#8dd3c7" stroke="#000000" points="399.4231,-122 396.4231,-126 375.4231,-126 372.4231,-122 300.5769,-122 300.5769,-86 399.4231,-86 399.4231,-122"/>
<text text-anchor="middle" x="350" y="-99.8" font-family="Times,serif" font-size="14.00" fill="#000000">ThemeModule</text>
</g>
<!-- MiscellaneousModule -->
<g id="node3" class="node">
<title>MiscellaneousModule</title>
<polygon fill="#8dd3c7" stroke="#000000" points="333.4144,-187 330.4144,-191 309.4144,-191 306.4144,-187 192.5856,-187 192.5856,-151 333.4144,-151 333.4144,-187"/>
<text text-anchor="middle" x="263" y="-164.8" font-family="Times,serif" font-size="14.00" fill="#000000">MiscellaneousModule</text>
</g>
<!-- ThemeModule&#45;&gt;MiscellaneousModule -->
<g id="edge1" class="edge">
<title>ThemeModule&#45;&gt;MiscellaneousModule</title>
<path fill="none" stroke="#000000" d="M316.9979,-122.1061C316.9979,-122.1061 316.9979,-140.991 316.9979,-140.991"/>
<polygon fill="#000000" stroke="#000000" points="313.498,-140.9909 316.9979,-150.991 320.498,-140.991 313.498,-140.9909"/>
</g>
<!-- MiscellaneousRoutingModule -->
<g id="node2" class="node">
<title>MiscellaneousRoutingModule</title>
<polygon fill="#8dd3c7" stroke="#000000" points="282.5322,-122 279.5322,-126 258.5322,-126 255.5322,-122 97.4678,-122 97.4678,-86 282.5322,-86 282.5322,-122"/>
<text text-anchor="middle" x="190" y="-99.8" font-family="Times,serif" font-size="14.00" fill="#000000">MiscellaneousRoutingModule</text>
</g>
<!-- MiscellaneousRoutingModule&#45;&gt;MiscellaneousModule -->
<g id="edge2" class="edge">
<title>MiscellaneousRoutingModule&#45;&gt;MiscellaneousModule</title>
<path fill="none" stroke="#000000" d="M237.7795,-122.1061C237.7795,-122.1061 237.7795,-140.991 237.7795,-140.991"/>
<polygon fill="#000000" stroke="#000000" points="234.2795,-140.9909 237.7795,-150.991 241.2795,-140.991 234.2795,-140.9909"/>
</g>
</g>
</svg>
