<?xml version="1.0" encoding="UTF-8" standalone="no"?>
<!DOCTYPE svg PUBLIC "-//W3C//DTD SVG 1.1//EN"
 "http://www.w3.org/Graphics/SVG/1.1/DTD/svg11.dtd">
<!-- Generated by graphviz version 2.40.1 (20161225.0304)
 -->
<!-- Title: dependencies Pages: 1 -->
<svg width="952pt" height="284pt"
 viewBox="0.00 0.00 952.00 284.00" xmlns="http://www.w3.org/2000/svg" xmlns:xlink="http://www.w3.org/1999/xlink">
<g id="graph0" class="graph" transform="scale(1 1) rotate(0) translate(4 280)">
<title>dependencies</title>
<polygon fill="#ffffff" stroke="transparent" points="-4,4 -4,-280 948,-280 948,4 -4,4"/>
<text text-anchor="start" x="451.0091" y="-42.4" font-family="sans-serif" font-weight="bold" font-size="14.00" fill="#000000">Legend</text>
<polygon fill="#ffffb3" stroke="transparent" points="238,-10 238,-30 258,-30 258,-10 238,-10"/>
<text text-anchor="start" x="261.629" y="-15.4" font-family="sans-serif" font-size="14.00" fill="#000000"> &#160;Declarations</text>
<polygon fill="#8dd3c7" stroke="transparent" points="351,-10 351,-30 371,-30 371,-10 351,-10"/>
<text text-anchor="start" x="374.7251" y="-15.4" font-family="sans-serif" font-size="14.00" fill="#000000"> &#160;Module</text>
<polygon fill="#80b1d3" stroke="transparent" points="437,-10 437,-30 457,-30 457,-10 437,-10"/>
<text text-anchor="start" x="460.7812" y="-15.4" font-family="sans-serif" font-size="14.00" fill="#000000"> &#160;Bootstrap</text>
<polygon fill="#fdb462" stroke="transparent" points="534,-10 534,-30 554,-30 554,-10 534,-10"/>
<text text-anchor="start" x="557.6732" y="-15.4" font-family="sans-serif" font-size="14.00" fill="#000000"> &#160;Providers</text>
<polygon fill="#fb8072" stroke="transparent" points="630,-10 630,-30 650,-30 650,-10 630,-10"/>
<text text-anchor="start" x="653.7258" y="-15.4" font-family="sans-serif" font-size="14.00" fill="#000000"> &#160;Exports</text>
<g id="clust1" class="cluster">
<title>cluster_InfoPersonaModule</title>
<polygon fill="none" stroke="#000000" stroke-dasharray="1,5" points="8,-70 8,-268 936,-268 936,-70 8,-70"/>
</g>
<g id="clust3" class="cluster">
<title>cluster_InfoPersonaModule_imports</title>
<polygon fill="none" stroke="#000000" points="508,-78 508,-130 928,-130 928,-78 508,-78"/>
</g>
<g id="clust4" class="cluster">
<title>cluster_InfoPersonaModule_exports</title>
<polygon fill="none" stroke="#000000" points="294,-208 294,-260 691,-260 691,-208 294,-208"/>
</g>
<g id="clust6" class="cluster">
<title>cluster_InfoPersonaModule_providers</title>
<polygon fill="none" stroke="#000000" points="16,-78 16,-130 500,-130 500,-78 16,-78"/>
</g>
<!-- ThemeModule -->
<g id="node1" class="node">
<title>ThemeModule</title>
<polygon fill="#8dd3c7" stroke="#000000" points="920.4231,-122 917.4231,-126 896.4231,-126 893.4231,-122 821.5769,-122 821.5769,-86 920.4231,-86 920.4231,-122"/>
<text text-anchor="middle" x="871" y="-99.8" font-family="Times,serif" font-size="14.00" fill="#000000">ThemeModule</text>
</g>
<!-- InfoPersonaModule -->
<g id="node4" class="node">
<title>InfoPersonaModule</title>
<polygon fill="#8dd3c7" stroke="#000000" points="556.6881,-187 553.6881,-191 532.6881,-191 529.6881,-187 429.3119,-187 429.3119,-151 556.6881,-151 556.6881,-187"/>
<text text-anchor="middle" x="493" y="-164.8" font-family="Times,serif" font-size="14.00" fill="#000000">InfoPersonaModule</text>
</g>
<!-- ThemeModule&#45;&gt;InfoPersonaModule -->
<g id="edge1" class="edge">
<title>ThemeModule&#45;&gt;InfoPersonaModule</title>
<path fill="none" stroke="#000000" d="M871,-122.2843C871,-143.3211 871,-175 871,-175 871,-175 566.6951,-175 566.6951,-175"/>
<polygon fill="#000000" stroke="#000000" points="566.6951,-171.5001 556.6951,-175 566.6951,-178.5001 566.6951,-171.5001"/>
</g>
<!-- InfoPersonaRoutingModule -->
<g id="node2" class="node">
<title>InfoPersonaRoutingModule</title>
<polygon fill="#8dd3c7" stroke="#000000" points="804.3061,-122 801.3061,-126 780.3061,-126 777.3061,-122 631.6939,-122 631.6939,-86 804.3061,-86 804.3061,-122"/>
<text text-anchor="middle" x="718" y="-99.8" font-family="Times,serif" font-size="14.00" fill="#000000">InfoPersonaRoutingModule</text>
</g>
<!-- InfoPersonaRoutingModule&#45;&gt;InfoPersonaModule -->
<g id="edge2" class="edge">
<title>InfoPersonaRoutingModule&#45;&gt;InfoPersonaModule</title>
<path fill="none" stroke="#000000" d="M657.5405,-122.0225C657.5405,-139.3734 657.5405,-163 657.5405,-163 657.5405,-163 566.6157,-163 566.6157,-163"/>
<polygon fill="#000000" stroke="#000000" points="566.6157,-159.5001 556.6157,-163 566.6156,-166.5001 566.6157,-159.5001"/>
</g>
<!-- SharedModule -->
<g id="node3" class="node">
<title>SharedModule</title>
<polygon fill="#8dd3c7" stroke="#000000" points="614.4231,-122 611.4231,-126 590.4231,-126 587.4231,-122 515.5769,-122 515.5769,-86 614.4231,-86 614.4231,-122"/>
<text text-anchor="middle" x="565" y="-99.8" font-family="Times,serif" font-size="14.00" fill="#000000">SharedModule</text>
</g>
<!-- SharedModule&#45;&gt;InfoPersonaModule -->
<g id="edge3" class="edge">
<title>SharedModule&#45;&gt;InfoPersonaModule</title>
<path fill="none" stroke="#000000" d="M536.1915,-122.1061C536.1915,-122.1061 536.1915,-140.991 536.1915,-140.991"/>
<polygon fill="#000000" stroke="#000000" points="532.6915,-140.9909 536.1915,-150.991 539.6915,-140.991 532.6915,-140.9909"/>
</g>
<!-- CrudInfoPersonaComponent  -->
<g id="node5" class="node">
<title>CrudInfoPersonaComponent </title>
<polygon fill="#fb8072" stroke="#000000" points="683.4684,-252 502.5316,-252 502.5316,-216 683.4684,-216 683.4684,-252"/>
<text text-anchor="middle" x="593" y="-229.8" font-family="Times,serif" font-size="14.00" fill="#000000">CrudInfoPersonaComponent </text>
</g>
<!-- InfoPersonaModule&#45;&gt;CrudInfoPersonaComponent  -->
<g id="edge4" class="edge">
<title>InfoPersonaModule&#45;&gt;CrudInfoPersonaComponent </title>
<path fill="none" stroke="#000000" stroke-dasharray="5,2" d="M529.68,-187.1061C529.68,-187.1061 529.68,-205.991 529.68,-205.991"/>
<polygon fill="#000000" stroke="#000000" points="526.1801,-205.9909 529.68,-215.991 533.1801,-205.991 526.1801,-205.9909"/>
</g>
<!-- ViewInfoPersonaComponent  -->
<g id="node6" class="node">
<title>ViewInfoPersonaComponent </title>
<polygon fill="#fb8072" stroke="#000000" points="484.2891,-252 301.7109,-252 301.7109,-216 484.2891,-216 484.2891,-252"/>
<text text-anchor="middle" x="393" y="-229.8" font-family="Times,serif" font-size="14.00" fill="#000000">ViewInfoPersonaComponent </text>
</g>
<!-- InfoPersonaModule&#45;&gt;ViewInfoPersonaComponent  -->
<g id="edge5" class="edge">
<title>InfoPersonaModule&#45;&gt;ViewInfoPersonaComponent </title>
<path fill="none" stroke="#000000" stroke-dasharray="5,2" d="M456.9003,-187.1061C456.9003,-187.1061 456.9003,-205.991 456.9003,-205.991"/>
<polygon fill="#000000" stroke="#000000" points="453.4003,-205.9909 456.9003,-215.991 460.4003,-205.991 453.4003,-205.9909"/>
</g>
<!-- PersonaService -->
<g id="node7" class="node">
<title>PersonaService</title>
<ellipse fill="#fdb462" stroke="#000000" cx="421" cy="-104" rx="70.622" ry="18"/>
<text text-anchor="middle" x="421" y="-99.8" font-family="Times,serif" font-size="14.00" fill="#000000">PersonaService</text>
</g>
<!-- PersonaService&#45;&gt;InfoPersonaModule -->
<g id="edge6" class="edge">
<title>PersonaService&#45;&gt;InfoPersonaModule</title>
<path fill="none" stroke="#000000" d="M460.4835,-119.0757C460.4835,-119.0757 460.4835,-140.7642 460.4835,-140.7642"/>
<polygon fill="#000000" stroke="#000000" points="456.9836,-140.7642 460.4835,-150.7642 463.9836,-140.7642 456.9836,-140.7642"/>
</g>
<!-- EnteService -->
<g id="node8" class="node">
<title>EnteService</title>
<ellipse fill="#fdb462" stroke="#000000" cx="275" cy="-104" rx="57.881" ry="18"/>
<text text-anchor="middle" x="275" y="-99.8" font-family="Times,serif" font-size="14.00" fill="#000000">EnteService</text>
</g>
<!-- EnteService&#45;&gt;InfoPersonaModule -->
<g id="edge7" class="edge">
<title>EnteService&#45;&gt;InfoPersonaModule</title>
<path fill="none" stroke="#000000" d="M317.1478,-116.5124C317.1478,-133.8313 317.1478,-163 317.1478,-163 317.1478,-163 419.0159,-163 419.0159,-163"/>
<polygon fill="#000000" stroke="#000000" points="419.0159,-166.5001 429.0159,-163 419.0158,-159.5001 419.0159,-166.5001"/>
</g>
<!-- CampusMidService -->
<g id="node9" class="node">
<title>CampusMidService</title>
<ellipse fill="#fdb462" stroke="#000000" cx="112" cy="-104" rx="87.98" ry="18"/>
<text text-anchor="middle" x="112" y="-99.8" font-family="Times,serif" font-size="14.00" fill="#000000">CampusMidService</text>
</g>
<!-- CampusMidService&#45;&gt;InfoPersonaModule -->
<g id="edge8" class="edge">
<title>CampusMidService&#45;&gt;InfoPersonaModule</title>
<path fill="none" stroke="#000000" d="M112,-122.2843C112,-143.3211 112,-175 112,-175 112,-175 419.2292,-175 419.2292,-175"/>
<polygon fill="#000000" stroke="#000000" points="419.2292,-178.5001 429.2292,-175 419.2291,-171.5001 419.2292,-178.5001"/>
</g>
</g>
</svg>
