<?xml version="1.0" standalone="no"?>
<!DOCTYPE svg PUBLIC "-//W3C//DTD SVG 1.1//EN" "http://www.w3.org/Graphics/SVG/1.1/DTD/svg11.dtd" >
<svg xmlns="http://www.w3.org/2000/svg" xmlns:xlink="http://www.w3.org/1999/xlink" version="1.1">
<metadata></metadata>
<defs>
<font id="sociconregular" horiz-adv-x="2048" >
<font-face units-per-em="2048" ascent="1920" descent="-128" />
<missing-glyph horiz-adv-x="1024" />
<glyph horiz-adv-x="0" d="M0 0z" />
<glyph horiz-adv-x="0" d="M0 0z" />
<glyph horiz-adv-x="682" />
<glyph horiz-adv-x="0" d="M0 0z" />
<glyph unicode=" " horiz-adv-x="1024" d="M0 0z" />
<glyph unicode="&#x22;" d="M0 780q0 -150 107 -256t257 -106h930q126 0 215 89t89 215q0 108 -68 191t-170 105q-12 102 -57 191t-117 155t-166 103t-198 37q-88 0 -168 -26t-147 -75t-118 -116t-79 -149q-132 -18 -221 -120t-89 -238zM136 780q0 94 67 160t161 66q44 0 86 -17t74 -49 q20 -20 48 -20t48 20t20 48t-20 48q-34 36 -77 60t-89 36q48 106 148 171t220 65q82 0 156 -32t129 -86t87 -128t32 -158q0 -32 -5 -64t-15 -62q-10 -26 3 -51t39 -35q6 -2 11 -3t11 -1q22 0 40 13t24 35q8 20 13 40t7 42q48 -18 78 -61t30 -95q0 -70 -49 -119t-119 -49 h-930q-94 0 -161 66t-67 160zM1611 464q-5 28 11 50q30 46 46 99t16 109q0 54 -16 107t-46 99q-16 24 -11 52t29 42q22 16 50 11t44 -29q42 -62 64 -134t22 -148t-22 -148t-64 -136q-10 -14 -25 -22t-31 -8q-10 0 -20 3t-18 9q-24 16 -29 44zM1805 1090q5 28 29 44t52 10 t42 -30q60 -86 90 -186t30 -206t-30 -206t-90 -188q-8 -14 -24 -22t-32 -8q-10 0 -19 3t-19 9q-22 14 -28 42t10 52q46 70 71 151t25 167q0 84 -25 165t-71 153q-16 22 -11 50z" />
<glyph unicode="#" d="M128 760q0 -122 31 -232t87 -206q62 -102 148 -185t188 -141q2 0 2 -1t2 -1l3 -3t3 -1q2 -2 4 -2t2 -2q2 0 4 -1l6 -3l2 -1t4 -3q2 0 3 -1l1 -1l6 -3t4 -1l2 -2q92 -44 194 -68t208 -24q178 0 339 62t283 175t194 273t72 356t-62 340t-140 241t-151 150t-97 69q-2 0 -3 1 t-3 1q-66 42 -132 69t-132 65q-8 4 -16 9t-16 11q-46 30 -105 95t-111 129h-1h-1q-2 -32 -7 -58t-11 -46q-14 -44 -33 -72t-41 -48q-2 -2 -5 -3t-5 -3q-76 -60 -131 -87t-119 -63q-6 -4 -14 -8t-18 -10q-38 -24 -102 -73t-128 -125q-82 -96 -145 -236t-63 -332zM516 454 q2 114 97 206t231 92q86 2 160 -34t137 -79t115 -78t96 -35q74 2 192 99t188 97q74 0 100 -59t26 -105t-16 -118t-52 -122q-34 -52 -62 -73t-70 -19q-52 4 -143 116t-159 116q-44 0 -109 -37t-141 -82t-156 -83t-154 -38q-88 0 -125 12t-67 32q-44 30 -66 78t-22 114z M928 66q2 12 10 18q6 6 13 10t15 4h11t5 -4q30 -24 80 -40t146 -16q94 0 159 21t95 43q12 10 19 5t9 -11q0 -6 1 -14t-9 -20q-8 -6 -68 -40t-140 -42t-176 -2t-160 64q-12 12 -10 24zM1117 215q3 13 19 27t41 34t49 32q26 10 43 11t41 1t47 -3t41 -15t29 -34t17 -38 q6 -14 1 -24t-17 -16q-10 -6 -15 -1t-15 23q-10 20 -26 36t-68 16t-76 -15t-48 -37q-26 -20 -37 -26t-21 4q-8 12 -5 25z" />
<glyph unicode="$" d="M10 1514q-28 -76 21 -187t179 -187t341 -84t505 122q-2 4 -7 16t-7 16q-108 220 -269 333t-317 139t-282 -21t-164 -147zM536 194q-8 -22 2 -44t32 -30q16 -6 58 -21t46 -17q72 -24 170 -51t210 -45q-66 64 -119 139t-91 159q-38 86 -58 178t-22 186q-62 -96 -109 -188 t-77 -162q-2 -4 -19 -45t-23 -59zM928 730q-8 -94 8 -191t58 -189q40 -90 98 -164t130 -132q44 -34 115 -55t135 -21q60 0 120 17t112 43q18 10 46 27t30 19q-32 8 -62 22t-56 34q-92 72 -165 166t-125 212q-54 120 -75 239t-11 237q2 34 12 65t24 61q-2 0 -6 -2l-4 -2 q-50 -12 -96 -32t-88 -48q-62 -40 -112 -98t-72 -128q-6 -20 -11 -40t-5 -40zM1131 1513q-13 -115 47 -263q0 -2 3 -9t5 -9q166 74 244 168t97 181t-7 152t-68 81q-58 22 -131 -7t-125 -104t-65 -190zM1470 978q-10 -96 9 -193t61 -191t100 -172t134 -136q20 -14 43 -22 t47 -8q44 0 83 23t57 63q44 106 44 225t-50 233t-138 193t-194 117q-12 4 -23 6t-21 2q-56 0 -102 -41t-50 -99z" />
<glyph unicode="&#x26;" d="M8 1574q16 -40 85 -209t146 -356t139 -337l62 -150l-26 -56q-32 -86 -78 -140t-142 -54q-10 0 -33 1t-25 3q-32 0 -58 -18t-34 -50q-10 -36 8 -68t54 -42q26 -4 52 -6t48 -2q178 0 257 93t137 243l68 169t150 375t154 383t78 193q2 6 4 11t4 9l1 1q1 1 1 3q12 38 -7 75 t-57 49q-40 12 -75 -5t-49 -55l-1 -4t-1 -6v-4v-2q-14 -30 -65 -165t-108 -285t-102 -270l-45 -120h-4l-338 858v1v1l-4 12q-18 38 -56 54t-76 0q-40 -14 -58 -52t-6 -78zM1170 634q0 -30 71 -93t157 -128t163 -117t91 -60l16 -8q8 -2 17 -3t17 -1q32 0 58 14t44 40 q24 40 17 86t-47 76q-62 34 -142 74t-160 74t-148 57t-106 23q-12 0 -21 -2t-15 -8q-6 -4 -10 -10t-2 -14zM1170 1168q-2 -6 2 -13t10 -11t15 -7t21 -3q38 0 107 23t148 57t160 75t145 75q36 30 43 75t-17 85q-18 26 -44 41t-58 15q-8 0 -17 -2t-19 -4l-14 -8 q-14 -8 -91 -60t-163 -117t-157 -128t-71 -93zM1320 892q0 -10 2 -16q18 -34 117 -54t211 -29t205 -11t97 2q46 8 74 45t24 83q-2 40 -29 72t-67 40h-14q-18 0 -110 -8t-199 -24t-199 -37t-108 -47q-4 -6 -4 -16z" />
<glyph unicode="'" d="M0 902q0 -212 80 -399t219 -326t326 -219t399 -80t399 80t326 219t219 326t80 399t-80 398t-219 325t-326 220t-399 81t-399 -81t-326 -220t-219 -325t-80 -398zM430 748q-6 22 6 43t36 27t44 -6t26 -36q22 -82 68 -150t110 -118t142 -77t162 -27t162 27t142 77t110 118 t66 150q8 24 28 36t44 6t36 -27t6 -43q-26 -102 -83 -187t-135 -146t-175 -95t-201 -34t-201 34t-175 95t-135 146t-83 187z" />
<glyph unicode="(" d="M222 -122h1334v860h-164v-698h-1022l6 688l-154 2v-852zM472 164v164h798v-164h-798zM476 458l16 176l804 -78l-16 -174zM518 812l48 170l776 -220l-46 -168zM664 1224l90 150l692 -418l-92 -150zM1004 1644l144 102l470 -656l-142 -102zM1520 1896l174 30l132 -798 l-172 -28z" />
<glyph unicode=")" d="M0 190q0 -30 22 -52t52 -22h1300l674 786l-674 784h-1300q-30 0 -52 -22t-22 -52v-1422zM408 442l23 131t107 163q86 34 120 40t62 24h3t1 2v66q-28 26 -50 62t-36 80q-16 16 -24 36t-8 40q0 14 4 28t12 26q4 106 63 170t143 64q82 0 141 -64t65 -170q8 -12 12 -26t4 -28 q0 -20 -9 -40t-25 -36q-12 -44 -34 -80t-52 -62v-66l2 -2h2q30 -18 63 -24t119 -40q86 -32 108 -163l22 -131l-92 -7t-328 -7q-234 0 -326 7z" />
<glyph unicode="*" d="M30 873q0 -21 10 -31q6 -6 51 -7t179 1q90 2 156 5t68 5q2 0 1 9t-3 21q-4 16 -9 22t-21 10q-14 2 -56 4t-96 2q-90 0 -178 -3t-92 -7q-10 -10 -10 -31zM528 918q2 -2 45 -5t101 -5q90 -4 119 -3t37 9q18 16 34 18t38 -8q18 -10 24 -22t2 -36q-4 -28 -38 -38t-54 10 q-8 10 -34 11t-116 -3q-56 -2 -98 -5l-42 -3q-6 -6 12 -33t42 -47q44 -40 113 -65t161 -35q118 -14 269 13t281 83q84 36 172 98t120 108q8 10 17 21t11 15q28 30 41 90t3 104q-6 26 -29 62t-35 36q-8 0 -61 -57t-57 -69q-6 -24 9 -33t59 -9q46 0 44 -6t-54 -26 q-64 -24 -78 -50t10 -76q6 -16 10 -27l4 -11q-2 -2 -14 1t-28 9q-36 10 -56 10t-40 -8q-18 -8 -40 -47t-22 -61q0 -8 -2 -14t-6 -8q-6 -4 -15 15t-9 39q0 8 -8 22t-18 28q-20 22 -31 26t-49 4q-20 0 -44 -2t-38 -4l-32 -6l46 48q32 32 39 45t7 37q0 28 -14 52t-46 52l-24 22 l32 -6q84 -16 124 11t52 105q2 14 5 24t7 10q2 0 8 -12l14 -28q18 -38 33 -47t39 9q18 12 56 54t42 54q4 14 -60 22t-148 8q-66 0 -130 -5t-106 -15q-92 -22 -121 -33t-23 -23q2 -6 7 -19t9 -25q14 -40 23 -58t15 -18q8 0 27 -23t19 -33q0 -6 -6 -16t-14 -18 q-18 -20 -42 -21t-42 17q-12 10 -15 19t1 29q2 24 -6 49t-38 89l-10 18l-56 -28q-132 -66 -215 -147t-111 -173q-4 -14 -7 -25t-1 -11zM609 606q-5 -4 15 -48q8 -16 16 -36t14 -32q4 -12 11 -27t11 -25q8 -16 20 -43t36 -83q6 -14 13 -30t11 -26q8 -16 22 -49t30 -71 q30 -70 46 -97t42 -53q36 -32 88 -58t110 -38q86 -18 201 -10t213 40q100 32 169 73t131 103q50 50 63 66t29 50q20 40 24 84t-4 122q-4 38 -10 89t-10 83t-10 78t-10 78q-4 30 -9 71t-7 65q-2 32 -6 47t-8 15q-2 0 -4 -6t-4 -20q-4 -30 -30 -156t-30 -136q-2 -6 -6 -25 t-8 -43q-4 -22 -10 -51t-10 -45t-11 -51t-13 -69q-16 -72 -26 -105t-16 -33q-2 0 -61 56t-139 134l-196 192l-14 -30q-4 -14 -10 -33t-8 -33t-6 -28t-6 -20q-4 -4 -13 -35t-19 -69q-10 -36 -21 -75t-15 -55q-6 -16 -13 -44t-13 -50q-12 -48 -25 -52t-41 28q-28 30 -85 94 t-65 72q-2 4 -18 21t-34 37t-35 40t-25 28q-6 8 -26 30t-42 46t-40 44t-20 24q-4 2 -18 17t-28 33q-32 34 -37 30zM690 1840q26 -52 42 -86q6 -14 0 -1t0 1q40 -90 80 -181t78 -181q4 -8 14 -33t24 -19q30 12 30 17t-10 35q-14 44 -31 87t-31 87q-22 66 -50 131t-50 131 q-6 20 -25 65t-51 27q-46 -28 -20 -80zM1388 1108q-10 -36 16 -56q8 -4 17 -8t13 -4q14 0 31 19t17 37q0 10 17 32t57 64q30 32 82 86t96 100t99 103t87 91q78 82 90 99t2 35q-4 8 -13 16t-17 10h-6h-6q-12 0 -32 -21t-74 -85q-16 -20 -36 -43t-32 -37q-12 -12 -34 -38 t-42 -50q-20 -22 -46 -52t-44 -50q-52 -60 -85 -99t-61 -71q-18 -22 -31 -32t-23 -10q-32 0 -42 -36z" />
<glyph unicode="+" d="M430 208l586 346l-586 332v-678zM430 886l588 344l580 -328v680l-574 -340v688l-594 -348v-696zM1024 -118l574 346v674l-574 -346v-674z" />
<glyph unicode="," d="M4 152q0 112 80 192t192 80t192 -80t80 -192q0 -114 -80 -193t-192 -79t-192 79t-80 193zM4 836q96 0 188 -18t178 -54t164 -88t144 -120q68 -68 120 -146t88 -164t54 -179t18 -189h392q0 280 -106 526t-288 429t-428 290t-524 107v-394zM4 1532q342 0 642 -130t523 -355 t353 -526t130 -643h392q0 422 -160 795t-437 651t-649 440t-794 162v-394z" />
<glyph unicode="-" d="M134 -52q-4 -28 14 -49t46 -21h352q38 0 67 24t35 62l80 510q6 36 35 61t67 25h232q182 0 326 44t249 132t171 219t94 305q24 154 1 273t-95 203q-78 94 -215 142t-323 48h-736q-38 0 -67 -25t-35 -63zM806 970l78 494q4 22 21 37t41 15h50q100 0 188 -10t136 -66 q30 -34 38 -85t-2 -121q-30 -198 -161 -231t-277 -33h-112z" />
<glyph unicode="." d="M426 824q-38 -76 1 -124t137 -110q82 -54 185 -78t177 -30l-82 -82l-168 -168l-138 -138q-34 -36 -34 -85t34 -83l14 -14q34 -36 84 -36t84 36l306 304l166 -166l138 -138q36 -36 85 -36t83 36l14 14q36 34 36 83t-36 85l-388 388q74 8 176 31t184 77q98 62 137 110 t1 124q-22 44 -80 66t-138 -42q-110 -86 -245 -101l-135 -15l-135 15t-245 101q-80 64 -138 42t-80 -66zM506 1406q0 -106 41 -201t111 -165t164 -111t202 -41t202 41t164 111t111 165t41 201q0 108 -41 202t-111 165t-164 111t-202 40t-202 -40t-164 -111t-111 -165 t-41 -202zM768 1406q0 106 75 181t181 75t181 -75t75 -181t-75 -180t-181 -74t-181 74t-75 180z" />
<glyph unicode="/" d="M76 360q-6 -54 2 -110q16 -114 88 -205t178 -135q40 -16 82 -24t86 -8h27t27 2q52 6 104 24t102 46q62 34 125 87t129 125q68 -72 130 -125t126 -87q50 -28 102 -46t102 -24q14 -2 28 -2h26q44 0 86 8t82 24q108 44 179 135t89 205q6 56 0 110t-26 112q-6 18 -14 37 t-16 37q-12 26 -24 53t-24 53v2q-54 116 -109 232t-112 232t-115 232t-116 230l-8 14q-12 22 -24 47t-26 49q-14 28 -32 56t-40 56q-52 60 -120 92t-144 32t-144 -32t-118 -92q-24 -28 -41 -57t-33 -55q-12 -26 -25 -50t-25 -48l-6 -12q-60 -114 -118 -230t-115 -232 t-112 -232t-107 -232l-2 -4l-24 -52l-24 -52q-8 -18 -15 -36t-15 -38q-20 -58 -26 -112zM206 347q4 39 20 81q4 16 11 31t15 33q12 26 23 52t23 50l2 6q54 114 108 229t111 231t114 231t117 229l6 12l24 48t26 48q12 24 26 47t32 43q32 38 73 57t89 19t90 -19t74 -57 q16 -20 30 -43t28 -47l24 -48t24 -46l6 -14q60 -114 118 -229t114 -231t111 -231t107 -229l2 -4l24 -52t22 -52q8 -18 15 -33t13 -31q14 -42 19 -81t-1 -77q-12 -80 -62 -144t-126 -96q-36 -14 -76 -19t-80 -1t-78 18t-78 36q-56 32 -113 80t-121 118q100 126 163 240 t85 214q12 48 14 92t-4 84q-6 38 -20 73t-34 67q-48 68 -124 107t-166 39q-88 0 -165 -39t-123 -107q-22 -30 -35 -66t-19 -74q-8 -40 -5 -84t13 -90q24 -102 86 -216t162 -240q-62 -70 -119 -118t-113 -80q-40 -22 -79 -36t-79 -18t-80 1t-76 19q-74 32 -125 96t-61 144 q-6 38 -2 77zM810 812q-2 32 2 60q4 24 12 46t22 40q28 42 76 65t104 23t104 -23t78 -65q12 -18 20 -40t12 -46q4 -28 3 -60t-9 -66q-20 -82 -72 -179t-136 -203q-82 106 -135 203t-71 179q-8 34 -10 66z" />
<glyph unicode="1" d="M12 128l1192 -250v2048l-1192 -232v-1566zM344 894q0 82 19 148t57 116t88 76t112 26q60 0 108 -24t84 -74q36 -48 54 -112t18 -142q0 -82 -19 -147t-55 -115q-38 -50 -88 -75t-110 -25t-108 24t-86 72q-36 48 -55 111t-19 141zM476 902q0 -52 9 -92t29 -70 q18 -30 44 -45t56 -15q32 0 58 15t44 43q18 30 28 70t10 92t-9 94t-27 72t-43 45t-57 15q-34 0 -60 -16t-44 -46q-20 -30 -29 -71t-9 -91zM1278 396v544l128 -86q14 -10 27 -5l13 5q-8 -6 83 55t204 136t208 138l95 63v-736q0 -60 -32 -87t-76 -27h-650zM1278 1090l140 -88 h9h7l602 406q0 36 -25 59t-45 23h-688v-400z" />
<glyph unicode="2" d="M-4 1572q0 -106 75 -180t181 -74t180 74t74 180t-74 181t-180 75t-181 -75t-75 -181zM762 902q0 -106 74 -181t180 -75t181 75t75 181q0 104 -75 179t-181 75t-180 -75t-74 -179zM762 1572q0 -106 74 -180t180 -74t181 74t75 180t-75 181t-181 75t-180 -75t-74 -181z M1534 230q0 -106 75 -181t181 -75t180 75t74 181t-74 180t-180 74t-181 -74t-75 -180zM1534 902q0 -106 75 -181t181 -75t180 75t74 181q0 104 -74 179t-180 75t-181 -75t-75 -179zM1534 1572q0 -106 75 -180t181 -74t180 74t74 180t-74 181t-180 75t-181 -75t-75 -181z" />
<glyph unicode="3" d="M0 814q0 -106 41 -200t111 -165t164 -111t202 -40q118 0 220 49t174 133l118 -164l100 170q72 -86 176 -138t224 -52q108 0 202 41t164 112t111 165t41 200q0 94 -31 178t-85 150q14 44 36 91t54 77h-340q-4 0 -8 1t-10 3q-12 22 -141 107t-507 85q-416 0 -535 -98 l-119 -98h-354q34 -30 58 -84t38 -100q-48 -66 -76 -145t-28 -167zM102 814q0 86 32 162t89 132t133 89t162 33t161 -33t132 -89t89 -132t32 -162t-32 -162t-89 -132t-132 -89t-161 -33t-162 33t-133 89t-89 132t-32 162zM268 814q0 -50 19 -95t55 -81q34 -34 80 -53t96 -19 q102 0 175 73t73 175t-73 175t-175 73q-50 0 -96 -19t-80 -53q-36 -36 -55 -81t-19 -95zM344 814q0 34 13 66t39 56q24 24 55 37t67 13q70 0 121 -50t51 -122t-51 -122t-121 -50q-36 0 -67 13t-55 37q-26 24 -39 56t-13 66zM434 814q0 34 24 59t60 25q34 0 59 -25t25 -59 t-25 -59t-59 -25q-36 0 -60 25t-24 59zM524 1302l111 76t377 76h34q266 0 377 -76l111 -76l-61 3q-61 3 -144 -29t-168 -117t-131 -259q-48 174 -133 259t-168 117t-144 29zM1116 814q0 86 32 162t89 132t132 89t161 33t162 -33t133 -89t89 -132t32 -162t-32 -162t-89 -132 t-133 -89t-162 -33t-161 33t-132 89t-89 132t-32 162zM1282 814q0 -50 19 -95t55 -81q34 -34 79 -53t95 -19q104 0 177 73t73 175t-73 175t-177 73q-50 0 -95 -19t-79 -53q-36 -36 -55 -81t-19 -95zM1358 814q0 34 13 66t37 56q26 24 57 37t65 13q72 0 123 -50t51 -122 t-51 -122t-123 -50q-34 0 -65 13t-57 37q-24 24 -37 56t-13 66zM1446 814q0 34 25 59t59 25q36 0 60 -25t24 -59t-24 -59t-60 -25q-34 0 -59 25t-25 59z" />
<glyph unicode="4" d="M-2 128h210l234 358h1164l234 -358h210l-1026 1546zM576 664l448 676l448 -676h-896z" />
<glyph unicode="5" d="M368 1188q0 -142 38 -269t108 -223q84 -110 202 -168t268 -58q152 0 283 62t207 170v-214q0 -232 -111 -344t-349 -112q-202 0 -305 84t-111 246l-2 48h-144l2 -46q4 -116 43 -206t111 -153t176 -95t238 -32q150 0 265 39t193 117t118 192t40 262v1396h-164v-204 q-76 116 -199 179t-267 63t-262 -53t-202 -149t-130 -232t-46 -300zM532 1188q0 100 26 204t85 188t154 137t231 53q96 0 177 -33t143 -95q80 -82 123 -200t43 -254q0 -106 -30 -207t-92 -181t-158 -129t-228 -49q-108 0 -196 40t-150 114t-95 179t-33 233z" />
<glyph unicode="6" d="M1 773q-3 29 11 55q24 46 81 58t99 -22q12 -10 21 -23t11 -31q0 -6 3 -8t9 -2l734 10q10 0 11 -1t-1 -9q-2 -10 -2 -19t2 -17q0 -8 -2 -9t-8 -1l-726 8q-8 0 -15 -1t-11 -7q-6 -4 -10 -12t-10 -14q-12 -12 -26 -20t-30 -14q-30 -8 -62 -1t-56 29q-20 22 -23 51zM715 1054 q3 -20 17 -34q12 -12 29 -15t33 3q4 0 8 3t8 3t7 -3l5 -5l176 -136q4 -4 6 -3t4 5q6 8 11 15t13 13q6 6 -2 11t-12 7l-168 120q-8 4 -15 9t-1 17v3v1q-4 44 -48 53t-66 -29q-8 -18 -5 -38zM776 580q0 22 0 8t0 -8zM776 580q-2 -38 29 -60t65 -14q28 8 44 32t12 52q-2 4 0 6 l4 4q26 14 50 28t48 30q6 2 3 6t-7 6q-4 6 -9 11t-7 11q-4 4 -6 4t-6 -2q-22 -14 -43 -28t-43 -28q-4 -2 -7 -2t-7 2q-18 14 -38 16t-40 -8t-31 -27t-11 -39zM1022 783q-2 -37 20 -69q20 -30 53 -44t67 -16q-2 0 0 -1t10 -1l14 2h-4q46 4 86 30t56 70q14 40 0 81t-50 65 q-54 36 -125 22t-105 -70q-20 -32 -22 -69zM1086 1167q16 -51 70 -69q4 0 6 -3t2 -9l-8 -114q-2 -6 1 -8t9 -2q10 2 19 2t17 -2q6 0 8 2t2 8q0 28 -1 57t-3 59q0 10 9 12t17 6t16 10t14 12q12 14 19 31t7 37q0 34 -19 62t-51 38q-32 12 -64 2t-52 -36q-34 -44 -18 -95z M1298 657q0 -1 4 -3q8 -6 16 -11t18 -9q6 -4 5 -10t-1 -12q0 -4 1 -10t3 -12q6 -10 16 -17t22 -9q22 -2 37 13t15 35q0 24 -16 39t-38 9q-12 -2 -20 1t-16 11l-3 3l-3 3q-4 6 -8 6t-10 -6q-4 -4 -9 -8t-9 -8t-4 -5zM1323 912q5 -4 9 -8q4 -6 8 -10t6 -10q4 -6 9 -3t9 5 l242 156q4 0 9 -3t7 -5q20 -10 43 -8t39 14q42 34 25 85t-71 51q-36 0 -58 -28t-14 -62q0 -6 -1 -9t-7 -5q-64 -36 -127 -74t-125 -78q-8 -4 -3 -8zM1370 757q2 -1 6 -1l478 8q8 -2 11 -13t7 -17q4 -8 11 -15t15 -13q14 -12 32 -17t38 -1q34 4 57 31t23 61q0 36 -22 63 t-56 33q-38 4 -68 -14t-40 -54q0 -4 -3 -6t-7 -2l-476 6q-4 -2 -3 -8t1 -10q0 -6 -1 -12t-3 -12t0 -7zM1658 1176h4h2h-2h-4z" />
<glyph unicode="7" d="M78 1740q2 8 13 24t23 24t28 14t38 14q28 14 87 36t123 41t121 29t83 -4q50 -26 81 -132t65 -210q30 -96 56 -192t54 -182l240 -764q14 -8 26 -2t24 10q132 38 271 83t285 91q56 18 106 32t78 -4q20 -12 31 -38t19 -50q4 -12 5 -26t5 -30q2 -10 7 -19t7 -21q0 -4 -3 -7 l-3 -3q6 -30 14 -49t10 -47q0 -4 -1 -15t-3 -23q0 -10 -5 -29t-13 -29q-2 -2 -7 -2t-7 -2q0 -2 1 -4t1 -4q-2 0 -7 -1t-7 -3q-10 -28 -115 -56t-151 -42l-636 -200q-96 -32 -177 -57t-123 -9q-62 24 -106 170t-82 262q-28 92 -53 177t-50 167t-51 162t-56 164q-4 8 -6 17 t-6 17q-2 4 -6 7t-6 11q-18 48 -30 107t-38 109q-4 6 -8 9t-6 9q-10 26 -19 58t-19 64q-20 60 -41 110t-41 126q-10 34 -17 65t-3 47z" />
<glyph unicode="8" d="M34 951q-22 -31 8 -73q54 -66 160 -144t264 -142q-84 -288 -9 -457t198 -227t239 -9t110 197q0 -6 1 129t1 257q16 -4 29 -7t25 -7q0 -122 1 -250t1 -122q-6 -148 110 -197t239 9t198 227t-9 457q158 64 262 142t158 144q30 42 5 73t-71 -1q-6 -4 -10 -8t-18 -8v792 q0 82 -49 141t-125 59h-1436q-76 0 -135 -59t-59 -141v-794q0 4 -7 9t-13 9q-46 32 -68 1zM246 868v768q0 104 31 145t127 41h1270q92 0 120 -44t28 -142v-762q-100 -56 -193 -82t-175 -35t-150 -7t-116 4q-72 4 -100 -24t-30 -74q-18 12 -34 26t-34 32q-4 2 -6 5t-6 5 q-14 16 -39 24t-65 6q-48 -2 -118 -4t-152 6t-174 33t-184 79zM516 1078q0 -94 70 -160t170 -66t170 66t70 160q0 92 -70 158t-170 66t-170 -66t-70 -158zM1084 1080q0 -94 71 -160t171 -66t171 66t71 160t-71 160t-171 66t-171 -66t-71 -160z" />
<glyph unicode="9" d="M20 348q2 -18 14 -24l24 -12l224 -104t223 -104t223 -104l224 -104q34 -16 70 -17t72 15q112 52 224 105t225 105t225 105t224 105q6 2 11 4t9 6q16 10 16 23t-16 25l-8 4l-8 4q-40 20 -80 38l-80 36q-34 16 -69 16t-69 -16q-76 -36 -151 -71t-151 -70t-151 -70t-151 -71 q-34 -16 -69 -16t-71 16q-74 36 -149 71t-151 70t-151 70t-149 69q-36 18 -73 18t-73 -16q-38 -18 -75 -36t-75 -34q-12 -6 -25 -13t-13 -23zM20 900q2 -18 14 -24l24 -12l224 -104t223 -104t223 -104l224 -104q34 -16 70 -17t72 15q112 52 224 105t225 105t225 105t224 105 q6 2 11 4t9 6q16 10 16 23t-16 25l-8 4l-8 4q-40 20 -80 38l-80 36q-34 16 -69 16t-69 -16q-76 -36 -151 -71t-151 -70t-151 -70t-151 -71q-34 -16 -69 -16t-71 16q-74 36 -149 71t-151 70t-151 70t-149 71q-36 16 -73 16t-73 -16q-38 -18 -75 -35t-75 -35q-12 -6 -25 -13 t-13 -23zM20 1455q0 -11 12 -21q6 -4 14 -8l16 -8q110 -52 222 -104t223 -104l222 -104t223 -104q34 -16 71 -16t73 16q110 52 222 104l224 104t223 104t223 104q8 4 15 8t15 10q10 8 10 19t-10 19q-8 6 -15 10t-15 8q-112 52 -223 103t-222 103l-222 104t-221 104 q-38 18 -75 18t-75 -18q-112 -52 -223 -104l-222 -104t-223 -104t-222 -104q-8 -2 -15 -6t-13 -8q-12 -10 -12 -21z" />
<glyph unicode=":" d="M0 84l424 58q64 -54 137 -98t154 -75t168 -47t179 -16q204 0 384 78t313 213t211 317t78 388t-78 387t-211 316t-313 213t-384 78q-206 0 -385 -78t-313 -213t-212 -316t-78 -387q0 -112 23 -216t67 -198zM676 410v982h372q132 0 234 -35t172 -99t107 -154t37 -198v-2 q0 -108 -37 -199t-108 -156t-174 -102t-235 -37h-368zM942 656h110q122 0 201 62t79 182v2q0 120 -79 182t-201 62h-110v-490z" />
<glyph unicode=";" d="M0 1412q0 -60 24 -112t48 -100q32 -64 65 -127t69 -125q2 -2 4 -5t4 -5q4 -8 8 -15t8 -13q2 -4 4 -7t4 -7q4 -6 8 -13t10 -15q0 -2 2 -5t4 -5q6 -10 12 -19t12 -19h1h1q6 -10 12 -19t12 -19q2 -2 4 -5t4 -5q4 -8 9 -14t9 -12q2 -4 5 -7t5 -7q4 -6 9 -13t9 -13q2 -2 4 -5 t4 -5q8 -10 15 -19t13 -19q94 -118 215 -216t327 -120q66 -6 144 -5t102 39q28 50 21 135t59 95q48 8 86 -40t64 -78q44 -50 100 -98t134 -62h5h5q70 30 221 8t163 66q4 28 -23 69t-45 63q-44 58 -87 102t-99 96q-26 24 -53 50t-29 60q-2 44 29 85t53 69q2 4 5 7l7 7 q0 2 2 4l2 2q2 4 4 6l4 4q0 2 2 4l4 4q0 2 1 3l3 3t4 5t4 5q40 50 78 98t76 110q12 22 39 80t13 88q-16 36 -89 33t-125 -3q-64 0 -128 6t-108 -12q-28 -10 -47 -57t-35 -81q-22 -52 -44 -94t-46 -80q0 -2 -2 -5t-4 -7h-1t-1 -2q-2 -2 -3 -5t-3 -5l-1 -1l-1 -1q-4 -6 -7 -11 t-7 -9v-2l-2 -2q0 -2 -2 -4t-2 -4q-2 0 -3 -2t-3 -4q0 -2 -2 -4l-2 -2q-2 -4 -4 -6t-2 -4l-3 -3t-1 -3q-4 -2 -6 -6t-6 -8q-22 -30 -46 -61t-64 -35l-3 3t-3 1l-1 1l-1 1l-1 1l-3 3h-2q0 2 -1 3l-1 1l-1 1l-1 1l-1 1l-1 1l-2 2v2q-2 0 -2 1v1q-2 0 -2 1v1l-2 2v2q-2 0 -2 1 v1l-1 1t-1 3l-1 1l-1 1l-1 2l-1 2v1v1q-2 2 -2 3t-2 3v1v1l-1 2l-1 2v2v2l-1 1t-1 3v1v1q0 2 -1 3l-1 1v2v2v1v3l-1 1l-1 1v3v3v1v1q0 2 -1 3l-1 1v2v2v2v2v2v2v2v4v2q-2 2 -2 4v4v4v4v1v1q0 2 -1 3t-1 3v1v1v3v3l1 1l1 1v3v3v1v3v2v2v3v1v3v3v1v1q2 2 2 4v4v2v14v14v3v1 q2 8 2 16v14q2 66 11 143t-21 127q-28 48 -112 50t-156 2q-86 0 -152 -12t-92 -64q30 -20 59 -28t45 -40q18 -32 22 -94t4 -124q0 -2 -1 -5t-1 -7q0 -54 -9 -122t-43 -74q-36 -8 -66 32t-48 68q-4 4 -7 9t-7 9q0 2 -1 3l-3 3q-2 4 -4 7t-4 7q-2 0 -3 2t-1 4q-2 2 -4 6t-6 8 l-1 1t-1 3q-2 4 -5 8t-7 10q-28 44 -53 91t-53 103q-16 34 -36 79t-40 55q-34 18 -97 14t-109 -4q-56 0 -107 1t-85 -25z" />
<glyph unicode="=" d="M0 -104v260v259v259t2 260q0 136 40 264t114 244q60 94 132 170t157 135t182 99t207 62q68 14 135 17t135 -3q86 -6 167 -26t157 -52t146 -77t134 -103q108 -96 183 -214t115 -256q16 -50 25 -102t15 -104q8 -106 -4 -210t-46 -204q-42 -114 -100 -211t-134 -175 t-171 -140t-207 -106q-88 -34 -180 -50t-186 -16q-108 2 -217 1t-217 -1q-20 0 -24 4t-4 24v252v252t1 252t1 254q0 80 29 155t80 135t121 102t150 56q96 16 186 -3t163 -68t125 -125t72 -170q22 -96 1 -189t-73 -169t-131 -129t-173 -69q-88 -14 -169 1t-157 59q-2 2 -6 4 t-10 4v-9v-9q-2 -78 -1 -155t-1 -155q0 -10 5 -16t15 -8q108 -32 211 -38t200 16t187 70t176 124q104 92 164 210t80 256q20 144 -12 282t-107 253t-187 200t-254 127q-162 46 -321 23t-292 -101t-230 -206t-137 -292q-10 -42 -15 -86t-5 -86q0 -126 -1 -252t-1 -251t1 -251 t1 -250q0 -20 -4 -24t-22 -4q-50 0 -98 1t-98 -1q-12 0 -16 4t-4 16z" />
<glyph unicode="?" d="M0 1085q0 -89 6 -179q6 -82 28 -163t56 -157q62 -136 162 -248t224 -192q70 -44 145 -76t153 -52t159 -27t163 -1q80 4 157 23t151 48t143 70t131 93q114 94 198 217t128 265q24 82 34 166t10 168v179v177v90v88q0 42 -3 81t-25 75q-18 28 -46 49t-60 29q-40 12 -83 12 h-85h-180t-180 1t-181 1h-181h-40h-40h-49h-49h-179h-179h-90h-90h-48h-48q-20 0 -38 -2t-38 -8q-64 -18 -100 -71t-36 -119v-180v-180v-177zM406 1175q10 75 82 105q32 14 68 11t66 -23q18 -12 34 -29t32 -31q18 -18 35 -34t35 -34q66 -64 132 -129t136 -127q78 74 155 148 t155 148q32 32 66 67t82 43q36 6 72 -7t58 -43q24 -26 31 -61t-3 -69q-12 -38 -44 -67t-60 -57q-68 -66 -137 -131t-137 -131q-36 -34 -70 -68t-70 -68q-28 -24 -62 -34t-70 -2q-42 10 -73 42t-61 60q-34 32 -67 64t-67 64q-68 66 -138 132t-138 134q-52 52 -42 127z" />
<glyph unicode="@" d="M0 218h2048v1228l-958 -782q-14 -12 -31 -18t-35 -6t-35 6t-31 18l-958 782v-1228zM158 1584l810 -662q12 -10 26 -16t30 -6t30 6t26 16l810 662h-1732z" />
<glyph unicode="A" d="M0 498q0 -128 50 -241t134 -197t191 -133t219 -49h824q124 0 239 49t202 134t138 200t51 243v492q0 68 -29 109t-113 41h-90q-66 0 -101 37t-35 85v58q0 110 -55 217t-141 192t-193 138t-209 53h-434q-136 0 -254 -51t-206 -139t-138 -206t-50 -254v-778zM530 522 q0 50 35 81t83 31h740q48 0 83 -31t35 -81q0 -48 -35 -80t-83 -32h-740q-48 0 -83 32t-35 80zM530 1270q0 48 35 85t83 37h372q50 0 85 -37t35 -85q0 -50 -35 -87t-85 -37h-372q-48 0 -83 37t-35 87z" />
<glyph unicode="B" d="M-4 1392q14 150 85 280t163 254h1804v-1416q-130 -80 -272 -129t-288 -71q-119 -18 -240 -18q-27 0 -55 1q-149 5 -293 31q-72 -36 -141 -80t-136 -90t-135 -91t-138 -85q8 110 21 219t25 219q2 44 5 95v6q0 46 -43 71q-90 70 -162 162t-121 196t-70 217q-13 72 -13 145 q0 42 4 84zM404 1248q-1 -11 -1 -22q0 -116 58 -221q63 -115 163 -191q104 -80 230 -124t258 -51q26 -1 51 -1q106 0 212 23q131 29 247 93q126 72 217 195t93 273v15q0 126 -64 236q-68 117 -176 193q-118 88 -263 127q-126 34 -252 34q-19 0 -39 -1q-80 -2 -161 -18 t-157 -46t-144 -76t-124 -106q-64 -66 -105 -152t-43 -180z" />
<glyph unicode="C" d="M0 918q0 -62 33 -111t85 -73q-4 -24 -7 -47t-3 -47q0 -122 71 -231t195 -190t290 -127t356 -46q188 0 354 46t290 127t196 190t72 231q0 24 -3 46t-7 44q56 22 91 73t35 115q0 82 -59 141t-141 59q-48 0 -89 -20t-67 -56q-60 44 -132 78t-153 59t-170 39t-183 18l150 438 l370 -86q4 -2 7 -2h7q2 -64 48 -109t110 -45q66 0 113 47t47 113t-47 112t-113 46q-48 0 -87 -26t-57 -68q-2 2 -5 3t-7 3l-402 94q-14 4 -27 -3t-17 -21l-170 -498q-92 -2 -178 -16t-165 -39t-149 -58t-128 -75q-28 34 -68 53t-86 19q-82 0 -141 -59t-59 -141zM554 756 q0 60 44 105t106 45q60 0 103 -45t43 -105t-43 -103t-103 -43q-62 0 -106 43t-44 103zM686 366q0 10 6 18q8 6 17 6t17 -6q44 -46 118 -67t178 -21q108 0 182 21t118 67q8 6 17 6t17 -6q6 -8 6 -18t-6 -16q-52 -52 -134 -77t-196 -25q-118 0 -200 25t-134 77q-6 6 -6 16z M1198 756q0 60 44 105t104 45q62 0 105 -45t43 -105t-43 -103t-105 -43q-60 0 -104 43t-44 103z" />
<glyph unicode="D" d="M-2 894q0 -212 81 -399t220 -326t325 -219t398 -80t398 80t325 219t220 326t81 399q0 210 -81 397t-220 326t-325 220t-398 81t-398 -81t-325 -220t-220 -326t-81 -397zM148 894v13v13q14 0 95 1t205 12t279 37t319 74q20 -36 38 -73t34 -75q-10 -2 -18 -5t-16 -5 q-170 -56 -299 -148t-219 -183t-138 -163l-56 -84q-52 58 -94 125t-71 141t-44 154t-15 166zM166 1072q22 102 65 194t106 171t142 142t171 105q8 -12 40 -56t77 -112t99 -154t108 -184q-154 -40 -294 -62t-249 -32t-180 -11t-85 -1zM486 204q4 12 43 74t120 146t209 172 t314 154h2t2 2q48 -120 81 -228t55 -195t34 -150t18 -91q-80 -34 -166 -52t-176 -18q-152 0 -289 49t-247 137zM816 1744q50 12 101 18t105 6q166 0 315 -59t265 -161q-12 -18 -119 -124t-339 -192q-54 98 -109 186t-100 156t-77 113t-42 57zM1210 1102q122 48 211 105 t148 107t91 86t38 46q92 -112 144 -251t54 -293q-10 2 -66 12t-140 18t-189 10h-26q-92 0 -187 -12q-6 10 -10 22t-10 22l-28 64t-30 64zM1340 792q92 14 176 14h21q93 -2 167 -13t122 -23t60 -16q-16 -92 -48 -176t-81 -159t-111 -138t-136 -113q-2 20 -13 76t-32 138 t-51 187t-74 223z" />
<glyph unicode="E" d="M0 576v144v140h350v-280q0 -44 32 -76t76 -32q46 0 78 32t32 76v662q2 92 39 172t99 140t144 95t174 35q94 0 176 -35t143 -95t98 -141t39 -173v-146l-208 -62l-140 66v126q0 44 -32 76t-76 32t-76 -32t-32 -76v-654q-2 -94 -38 -176t-98 -143t-145 -96t-177 -35 q-96 0 -179 36t-145 98t-98 145t-36 177zM1132 572v286l140 -64l208 62v-288q0 -46 32 -77t78 -31q44 0 76 31t32 77v292h350v-140v-144q0 -94 -36 -177t-98 -145t-146 -98t-178 -36t-177 35t-145 97t-98 144t-38 176z" />
<glyph unicode="F" d="M0 532v696h328v288h204v-984h-532zM204 696h124v368h-124v-368zM614 532v696h206v-696h-206zM614 1310h206v206h-206v-206zM902 286v164h326v82h-326v696h532v-942h-532zM1106 696h122v368h-122v-368zM1516 286v164h328v82h-328v696h532v-942h-532zM1720 696h124v368 h-124v-368z" />
<glyph unicode="G" d="M132 866q-5 -49 -5 -97q0 -125 34 -244q47 -165 156 -305t271 -230q160 -90 336 -108q49 -5 97 -5q124 0 243 34q164 47 305 155t231 268q102 186 116 443q4 71 4 140q0 183 -27 357q-37 240 -106 421t-131 215q-28 15 -86 15q-34 0 -78 -5q-120 -14 -274 -62 q-136 -92 -258 -208t-215 -263t-150 -326t-65 -399q-4 -10 -23 -4t-25 10q-72 140 -94 298q-6 41 -6 86q0 128 46 284q12 20 -13 38t-31 10q-14 -12 -59 -65t-83 -117q-92 -160 -110 -336z" />
<glyph unicode="H" d="M0 286v1270h594q44 0 85 -7t79 -15t69 -24t59 -34q26 -18 46 -42t36 -56q14 -28 21 -66t7 -82q0 -46 -11 -86t-31 -72q-22 -32 -54 -58t-76 -46q58 -18 102 -47t72 -71t42 -92t14 -110q0 -48 -9 -89t-27 -75q-18 -36 -43 -64t-57 -50q-30 -22 -66 -38t-76 -26t-82 -15 t-84 -5h-610zM266 492h308q20 0 39 3t37 7q20 4 36 11t30 15q14 10 26 23t20 29t12 37t4 47q0 48 -14 82t-40 54q-28 22 -64 31t-82 9h-312v-348zM266 1044h292q36 0 67 6t55 24t36 44t12 66q0 22 -4 40t-12 32t-19 25t-23 19q-14 8 -29 14t-33 10q-18 2 -35 5t-37 3h-270 v-288zM1136 738q0 50 9 98t25 92q18 44 41 83t55 71q30 32 67 57t81 45q42 18 90 27t100 9q58 0 109 -11t93 -33q44 -22 80 -52t62 -68q28 -38 48 -83t34 -93q12 -48 16 -103q2 -28 2 -53t-2 -48h-658q0 -46 17 -97t45 -77q28 -28 69 -42t93 -14q38 0 71 11t61 31 q26 18 43 36t23 50h220q-26 -92 -66 -148t-96 -92q-54 -36 -120 -56t-144 -20q-54 0 -103 9t-91 25q-44 18 -81 43t-67 57q-30 30 -53 68t-39 84q-16 44 -25 92t-9 102zM1332 1332v122h512v-122h-512zM1388 840h408q-4 46 -20 82t-38 60t-59 37t-83 13q-30 0 -55 -5t-45 -15 q-18 -12 -34 -24t-28 -28q-12 -14 -21 -29t-13 -33q-6 -16 -8 -29t-4 -29z" />
<glyph unicode="I" d="M0 -122v1024h1024v1024h1024v-1024h-1024v-1024h-1024z" />
<glyph unicode="J" d="M8 612q-8 -40 -8 -81q0 -50 12 -101h245h241h241h245v297v289q30 0 63 1t61 -1q78 -4 155 -19t149 -45q96 -42 161 -113t91 -175q2 -6 4 -18t4 -12h-167h-173v10v16q0 60 -1 119v39q0 40 1 80q0 12 -5 17t-17 9q-38 6 -73 13t-73 13q-26 4 -55 5t-45 1v-269v-257h245h242 h242h245q2 30 5 48t5 40v20q0 79 -27 147q-31 77 -89 145q-70 86 -161 144t-191 100q-130 52 -269 76t-279 26h-22h-26v95v97q-62 -6 -126 -13t-142 -13v-14v-10v-76t2 -74q0 -12 -4 -17t-16 -9q-102 -20 -199 -56t-185 -90q-70 -42 -129 -94t-105 -118q-54 -82 -72 -172z M378 634q8 108 112 219t226 125v-167v-177h-173h-165z" />
<glyph unicode="K" d="M170 -122l854 2048l854 -2048h-752v338l346 174l-24 52l-322 -162v158l200 106l-28 54l-172 -90v230h-204v-354l-172 122l-32 -50l204 -142v-436h-752z" />
<glyph unicode="L" d="M80 -6v1820q0 44 17 70t45 42q20 0 44 -1t50 -15l1242 -682l426 -234q64 -36 64 -87t-64 -85l-424 -228l-1244 -690q-26 -14 -51 -19t-45 1q-26 10 -43 37t-17 71z" />
<glyph unicode="M" d="M285 441v33q0 33 1 66q2 12 8 25t14 23l196 232t195 231t195 230t196 231q2 2 5 6t7 8q-26 -4 -49 -8t-45 -8q-68 -10 -137 -14q-23 -1 -46 -1q-46 0 -91 5q-32 2 -61 10t-57 22q-40 20 -53 44q-11 21 -11 57v11q2 34 11 68t25 64q18 34 39 65t43 61q12 20 28 23t36 -9 q36 -20 73 -32t77 -20q76 -16 155 -20q53 -3 105 -3q26 0 52 1q106 0 210 13t206 33q4 0 9 1t9 1q16 0 24 -8t6 -24q-6 -40 -10 -80t-10 -80q0 -10 -5 -20t-11 -18q-110 -126 -221 -254l-222 -256t-221 -255t-222 -255q-16 -20 -20 -34t-2 -42q14 0 28 -1t28 -3 q68 -8 128 -33t116 -59q48 -28 95 -57t95 -55q44 -26 92 -48t100 -32q60 -14 121 -16h14q54 0 107 14q28 8 53 20t49 28q2 2 6 4t10 6q2 -26 4 -51t2 -49q-2 -62 -17 -119t-47 -111q-32 -50 -76 -83t-106 -39q-18 -3 -35 -3q-21 0 -42 4q-39 7 -75 17q-84 28 -161 69 t-149 89q-36 26 -72 53t-72 55q-72 52 -150 86t-164 44q-42 6 -83 8t-81 4q-28 2 -55 1t-55 -1q-18 0 -28 9t-10 27q0 50 -1 99z" />
<glyph unicode="N" d="M0 1504v74l6 2h520v-30v-42q-52 -6 -99 -33q-34 -20 -34 -55q0 -14 5 -30q48 -110 96 -219t94 -219t93 -219t97 -219l222 416q-64 132 -118 265t-126 261q-22 38 -75 45t-97 9v68l492 -2l2 -66q-34 -4 -65 -17q-27 -12 -27 -44v-9l140 -308q34 74 71 146t67 148 q3 13 3 24q0 39 -39 48q-50 12 -92 14l-2 64l440 2v-66q-48 -4 -91 -20t-69 -50q-64 -100 -115 -211t-103 -219q50 -116 102 -232t102 -224l374 864q-18 42 -57 61t-81 29l-4 70l416 -4v-68q-14 -2 -27 -6t-27 -10q-24 -12 -46 -33t-38 -49l-516 -1188h-86l-246 578 l-298 -578h-88q-66 136 -124 275t-115 278t-117 277t-128 272q-34 58 -87 109t-95 67z" />
<glyph unicode="O" d="M150 836q0 122 37 237t106 204t165 143t214 54q70 0 125 -14t103 -38q46 -28 85 -39t81 -11q34 0 72 7t76 23q90 34 152 54t98 20q90 0 163 -29t131 -83q24 -24 49 -56t47 -72q-110 -34 -175 -159t-65 -237q0 -142 76 -273t208 -167q-18 -62 -51 -131t-75 -132t-89 -117 t-93 -88q-40 -28 -87 -40t-103 -12q-38 0 -81 9t-97 31q-46 20 -86 31t-68 11q-22 0 -72 -15t-120 -43q-38 -12 -70 -19t-54 -7q-62 0 -119 25t-115 71q-88 82 -156 180t-115 208t-72 230t-25 244zM1014 1462q0 84 32 159t88 147q60 64 135 104t161 54q0 -88 -30 -172 t-90 -152q-64 -72 -137 -106t-159 -34z" />
<glyph unicode="P" d="M0 24q6 4 9 7t5 7q114 112 226 225t226 225q6 6 9 13t3 17q0 134 -1 268v90q0 90 1 180q0 40 4 82t12 82q14 78 57 133t121 79l32 8t32 6q72 2 143 3t141 3l2 -1l2 -1v-8v-8v-151v-151q0 -4 -1 -8t1 -8q4 -6 9 -14t11 -12q8 -6 16 -3t14 9q4 2 7 6t7 6q100 100 200 201 t200 201l200 200l200 200q4 4 7 10t7 6h-10h-8h-288h-288h-288h-288q-50 0 -100 -5t-100 -15q-174 -36 -293 -136t-179 -268q-34 -92 -47 -188t-13 -194v-269v-269v-268v-270v-8v-12zM148 -118l108 108t110 108q74 74 148 149t149 149t149 149t148 149l4 4l4 4q8 8 17 12 t19 -2q12 -4 16 -14t4 -20v-154v-152v-11v-9q0 -2 4 -2h6q64 0 129 1t131 3q24 2 48 8t46 14q72 24 112 77t54 125q8 38 12 78t4 80v275v273q0 10 3 17t9 13l224 224l224 224q4 4 6 8l4 8q2 0 5 -1t3 -3v-8v-8v-271v-270v-270v-269q-2 -100 -15 -199t-49 -193 q-62 -162 -179 -258t-283 -130q-52 -12 -104 -16t-104 -4h-287h-287h-288h-288h-8h-8v1v3z" />
<glyph unicode="Q" d="M121 615q-17 -3 -17 -13q0 -18 58 -58l51 -40q51 -40 97 -156l85 -108q55 -69 189 -69q75 0 174 21q0 -84 1 -187t1 -127h658q0 32 1 165t1 267q0 92 -27 153t-63 93q112 12 220 44t195 104t140 194t53 314q0 108 -37 198t-101 160q12 24 27 119q3 21 3 43q0 82 -42 190 l-88 -4t-278 -134q-80 22 -164 34t-168 12q-86 0 -170 -12t-164 -34q-190 130 -278 134l-88 4q-42 -108 -42 -190q0 -22 3 -43q15 -95 27 -119q-64 -70 -101 -160t-37 -198q0 -192 53 -313t139 -194t195 -105t219 -46q-28 -24 -52 -68t-32 -110q-58 -24 -178 -33h-13 q-112 0 -197 145l-52 65q-52 65 -152 71zM228 578q2 6 9 7t13 -3q8 -2 12 -8t0 -12q-2 -4 -9 -5t-13 1q-8 4 -11 10t-1 10zM281 524q-1 8 5 12q4 4 12 3t14 -9q8 -6 9 -14t-5 -14q-4 -4 -12 -2t-14 8q-8 8 -9 16zM334 455q0 9 6 15q6 4 14 0t16 -12q6 -8 6 -18t-8 -14 q-6 -4 -14 -1t-14 13q-6 8 -6 17zM396 376q-2 10 4 16q4 6 14 4t20 -10q8 -8 10 -18t-4 -16q-4 -6 -14 -5t-20 11q-8 8 -10 18zM484 326q4 8 13 11t21 -1t18 -12t4 -14q-2 -8 -12 -12t-22 0q-10 4 -17 12t-5 16zM592 300q0 8 8 14t20 6t20 -5t8 -13q2 -10 -7 -16t-21 -6 t-20 6t-8 14zM694 308q-2 8 5 15t19 9t21 -2t11 -12t-5 -15t-19 -9t-21 2t-11 12z" />
<glyph unicode="R" d="M366 902q0 210 81 397t220 326t325 220t398 81q38 0 77 -3t69 -9v-140q-30 6 -69 9t-77 3q-182 0 -344 -70t-282 -190t-190 -281t-70 -343q0 -184 70 -345t190 -281t282 -190t344 -70q38 0 77 4t69 10v-142q-30 -6 -69 -8t-77 -2q-212 0 -398 80t-325 219t-220 326 t-81 399zM668 902q0 -150 57 -282t155 -230t229 -155t281 -57q38 0 77 4t69 12v208q-30 -10 -69 -16t-77 -6q-108 0 -202 41t-165 112t-112 166t-41 203q0 106 41 201t112 166t165 112t202 41q38 0 77 -6t69 -16v208q-30 8 -69 12t-77 4q-150 0 -281 -57t-229 -155 t-155 -230t-57 -280zM1104 904q0 -152 103 -242t249 -90q56 0 118 19t108 65l-130 136q-16 -20 -40 -34t-56 -14q-74 0 -115 44t-41 116t41 116t115 44q30 0 56 -14t40 -34l130 136q-46 46 -108 65t-118 19q-146 0 -249 -90t-103 -242z" />
<glyph unicode="S" d="M0 812v360h360v180q0 110 38 209t104 172t154 115t188 42h304v-354h-304q-44 0 -84 -53t-40 -131v-180h540v180q0 110 38 209t103 172t154 115t189 42h304v-354h-304q-44 0 -85 -53t-41 -131v-180h360v-360h-360v-900h-358v900h-540v-900h-360v900h-360z" />
<glyph unicode="T" d="M486 616q0 60 42 102t102 42t103 -42t43 -102q0 -6 -1 -12t-1 -12l180 -130v430l-252 182q-16 -10 -34 -15t-38 -5q-60 0 -102 43t-42 103t42 102t102 42t103 -42t43 -102q0 -6 -1 -12t-1 -12l180 -132v404l-254 184q-14 -8 -32 -13t-38 -5q-60 0 -102 42t-42 102t42 103 t102 43t103 -43t43 -103q0 -6 -1 -13t-1 -13l180 -130v324h140v-614l180 130q-2 6 -2 11v9q0 60 43 103t103 43t102 -43t42 -103t-42 -102t-102 -42q-22 0 -41 5t-35 15l-248 -178v-404l180 130q-2 4 -2 8v10q0 60 43 102t103 42t102 -42t42 -102q0 -62 -42 -104t-102 -42 q-22 0 -42 6t-36 16l-246 -178v-430l180 130q-2 4 -2 8v8q0 60 43 103t103 43t102 -43t42 -103t-42 -102t-102 -42q-22 0 -42 6t-36 16l-246 -176v-142h-140v430l-252 182q-16 -10 -34 -15t-38 -5q-60 0 -102 43t-42 103z" />
<glyph unicode="U" d="M0 956q0 -188 73 -354t200 -289t297 -195t364 -72q110 0 214 25t196 69l704 -206l-230 732q24 68 37 142t13 150q0 188 -73 354t-200 290t-297 195t-362 71q-194 0 -364 -72t-297 -195t-201 -289t-74 -356zM300 956q0 128 50 241t136 197t202 133t246 49q132 0 247 -49 t201 -133t136 -196t50 -240q0 -58 -11 -113t-31 -105l118 -332l10 -30l2 2l40 -108l-150 36l-320 102q-66 -34 -140 -52t-152 -18q-132 0 -247 48t-201 132t-136 196t-50 240z" />
<glyph unicode="V" d="M102 696v1024q0 86 60 146t146 60q84 0 144 -60t60 -146v-1024q0 -84 32 -159t88 -130t130 -88t160 -33h204q170 0 290 105t120 255t-67 254t-137 104h-410q-86 0 -146 60t-60 144q0 86 60 146t146 60h410q126 0 238 -61t195 -165t132 -244t49 -298q0 -160 -65 -300 t-176 -244t-260 -164t-319 -60h-204q-170 0 -319 64t-260 175t-176 260t-65 319z" />
<glyph unicode="W" d="M137 286q-1 4 -1 8q0 35 88 96q24 56 51 107t29 63t27 136t69 262q42 140 93 210t63 80q10 6 14 11t-6 11t-76 95q-52 70 -52 200q0 35 4 75q4 22 12 13t14 -57q6 -50 48 -142t130 -128h3q17 0 104 32q97 36 419 60q2 56 9 106l7 50l-16 17q-16 17 -20 51 q-10 -16 -18 -22t-22 -4q-14 4 -15 56v34q0 34 1 66q4 48 44 69t60 25q28 14 52 14h24l56 30q32 17 92 17q44 0 102 -9l85 -3t167 -57q30 2 54 -12t40 -42t33 -86q7 -25 7 -48q0 -29 -12 -52q-8 -8 -19 14l-11 22l-11 -31q-11 -31 -33 -47v-13q0 -77 -22 -130 q-24 -57 -34 -77q-4 -12 -2 -23t6 -21q4 -12 43 -160q35 -134 35 -203v-13q-2 -68 -30 -137t-56 -95q2 -14 1 -27q0 -40 -13 -74q-18 -45 -32 -69q-12 -22 -34 -90t-30 -108t-9 -78t7 -50q8 -14 35 -46t25 -52q-4 -20 -35 -38t-51 -18t-53 13t-43 39q-10 28 -11 69v11 q0 33 5 56q8 28 37 185q14 77 14 145q0 70 -15 130q-70 -32 -159 -37l-89 -5l-18 -79q-18 -79 -42 -139q-8 -16 -9 -93t-1 -139t15 -136l15 -74l19 -19q19 -19 15 -47q-4 -26 -33 -41t-59 -15t-62 21t-32 59q0 36 4 109q2 36 2 70t-2 65q-2 62 -3 105t-11 83q-10 38 -32 126 t-24 166q-10 0 -18 5l-8 5l-37 -42q-37 -42 -71 -74q4 -20 13 -51t9 -39q0 -10 8 -17t22 -13t46 -27t30 -45t-47 -28q-7 -1 -14 -1q-38 0 -79 19q-12 6 -43 103t-35 115q-6 18 -9 31t5 29q6 16 20 58q12 37 12 64v8q-4 30 -47 66t-81 36q-28 0 -68 -33t-72 -59 q-38 -30 -76 -66t-48 -44q-12 -8 -77 -126t-83 -164q-6 -20 -29 -84q-22 -62 -94 -62h-5q-34 4 -45 40z" />
<glyph unicode="X" d="M0 330l116 -46q30 -142 144 -236t266 -94q80 0 153 29t129 80t91 120t43 149l538 394q118 0 220 44t178 120t120 178t44 218q0 118 -44 220t-120 178t-179 120t-219 44t-217 -43t-178 -119t-121 -177t-46 -217l-350 -502q-10 2 -21 2h-21q-60 0 -114 -15t-102 -43 l-310 126v-530zM252 228q38 -14 76 -30t76 -30q46 -19 92 -19l96 21q94 40 132 134q19 46 19 91q0 48 -21 96q-40 93 -134 131l-130 52q16 4 33 6t35 2q128 0 218 -90t90 -220q0 -128 -90 -218t-218 -90q-90 0 -163 46t-111 118zM1104 1286q0 156 110 267t266 111t267 -111 t111 -267t-111 -266t-267 -110t-266 110t-110 266zM1182 1288q0 126 88 214t212 88t213 -88t89 -214q0 -124 -89 -212t-213 -88t-212 88t-88 212z" />
<glyph unicode="Y" d="M-8 910q0 -90 15 -176t44 -167t71 -155t94 -140l-11 70q-3 16 -3 36q0 66 28 170q36 136 151 336t367 460q-226 138 -353 201l-127 63q-64 -68 -115 -148t-87 -168t-55 -184t-19 -198zM276 206q70 -74 153 -132t177 -99t197 -64t213 -23t213 23t197 64t177 100t153 131 l-27 77q-27 77 -107 205t-226 293t-384 341q-214 -158 -355 -321t-226 -295t-120 -216zM352 1688l46 19t132 19t209 -36t277 -148v-2v1v1q154 110 277 147t209 37t132 -19l46 -19q-66 58 -143 103t-161 77t-175 49t-185 17q-96 0 -186 -17t-174 -49t-161 -77t-143 -103z M1286 1344q252 -260 366 -460t151 -336q28 -103 28 -168q0 -21 -3 -38l-12 -70q54 66 95 140t70 155t44 167t15 176q0 102 -19 198t-54 184t-86 168t-115 148l-127 -63q-127 -63 -353 -201z" />
<glyph unicode="Z" d="M-6 840l4 -680l842 -110v790h-846zM-6 942h846v822l-842 -122zM922 38l1126 -154v956h-1126v-802zM922 942h1126v988l-1126 -152v-836z" />
<glyph unicode="]" d="M0 942q-2 -158 6 -308t30 -293t64 -281l32 -4t32 -2q102 0 186 37t124 57q6 86 -2 158t-20 144q-6 36 -7 75t17 87q60 -76 113 -159t105 -169q34 -54 66 -105t56 -99q18 0 34 -1t32 -1q40 0 76 4l72 8q36 6 73 10t79 4l32 -12q46 104 56 249t12 293q2 136 14 270t74 240 q32 -152 71 -303t85 -301t98 -300t112 -302q42 6 87 18t87 26q32 10 60 18t52 8q12 0 22 -5t18 -11q-36 98 -65 201t-55 210t-49 215t-45 216q-28 140 -58 278t-64 271t-74 257t-90 234q-12 0 -24 -8t-24 -8q-34 0 -65 -19t-63 -15q-28 6 -58 -28t-66 -34h-12q-8 0 -16 38 t-12 40q-80 -106 -136 -229t-98 -256t-76 -275t-70 -290q-40 70 -77 145t-73 149q-64 128 -131 257t-141 235q-20 2 -41 3t-39 1q-86 0 -164 -13t-152 -35l-4 -262q-4 -170 -6 -328z" />
<glyph unicode="^" d="M0 434q4 -68 127 -93t243 -45q110 -18 211 -9t193 41v94v-192l330 -106v6l2 -6l288 100l480 168l-312 98l-458 -158v110l294 100l172 58q134 24 171 -8t-93 -72l-86 -30l312 -98l6 2q94 34 135 77t31 87q-16 72 -126 113t-288 53q-128 10 -253 -15t-249 -67l-26 -8v722 q0 46 64 44t64 -54v-566q194 -56 294 28t102 300q0 92 -29 165t-85 130t-137 97t-183 68l-420 112v-860l-130 -44l130 -40v-216l-308 -102q-76 -28 -120 13t26 67l76 26l-284 90q-66 -22 -117 -68t-47 -112zM164 614l284 -90l326 118v94l-130 40l-474 -160l-2 -1t-4 -1z" />
<glyph unicode="_" d="M148 662q0 -52 36 -89t88 -37t89 37t37 89v494q0 54 -37 91t-89 37t-88 -37t-36 -91v-494zM470 1360h1108q-10 126 -90 228t-202 160l104 148q4 8 3 15t-7 11t-13 2t-13 -8l-106 -154q-52 20 -110 31t-120 11t-120 -11t-110 -31l-106 154q-6 6 -13 8t-13 -2t-7 -12t3 -14 l104 -148q-122 -58 -202 -160t-90 -228zM472 376q0 -40 29 -69t69 -29h110v-274q0 -52 37 -89t87 -37q52 0 89 37t37 89v274h194v-274q0 -52 36 -89t88 -37t88 37t36 89v274h112q40 0 68 29t28 69v904h-1108v-904zM728 1574q0 26 18 44t44 18t44 -18t18 -44q0 -24 -18 -42 t-44 -18t-44 18t-18 42zM1204 1574q0 26 18 44t44 18q24 0 42 -18t18 -44q0 -24 -18 -42t-42 -18q-26 0 -44 18t-18 42zM1650 662q0 -52 37 -89t89 -37t88 37t36 89v494q0 54 -36 91t-88 37t-89 -37t-37 -91v-494z" />
<glyph unicode="a" d="M0 258q24 -4 49 -5t51 -1q148 0 281 48t241 132q-138 2 -245 84t-147 208q18 -4 38 -6t40 -2q30 0 57 4t55 10q-144 30 -241 145t-97 267v3v3q42 -24 90 -37t100 -15q-84 56 -135 148t-51 202q0 56 15 110t41 100q78 -94 174 -172t206 -135t233 -91t253 -40q-4 22 -7 46 t-3 50q0 86 33 163t90 134t133 90t164 33q90 0 170 -36t136 -98q72 14 139 40t129 62q-24 -72 -72 -132t-114 -100q64 8 125 25t117 41q-42 -62 -95 -117t-115 -101q0 -12 1 -26t1 -28q0 -208 -78 -421t-230 -385t-375 -281t-513 -109q-88 0 -174 13t-167 37t-157 60 t-146 80z" />
<glyph unicode="b" d="M526 838v346h254v90v206q0 86 29 167t90 143t154 99t223 37q106 0 175 -7l69 -7l-8 -324l-67 1q-67 1 -155 1q-92 0 -118 -41t-26 -113v-12v-4v-74v-162h376l-16 -346h-360v-960h-366v960h-254z" />
<glyph unicode="c" d="M0 346q0 -66 31 -123t91 -105q60 -50 151 -76t215 -28q146 2 258 37t188 103q76 66 113 141t37 159q0 60 -14 108t-40 84q-28 38 -60 71t-70 63l-78 64q-10 10 -18 19t-18 21t-16 27t-6 33q0 20 6 36t16 30q8 14 18 26l20 24q18 16 35 31t33 31t30 32t26 34q26 38 40 88 t16 112q0 34 -4 64t-12 56q-10 26 -20 48t-22 40q-14 20 -27 36t-25 30q-14 12 -26 25t-24 13h144l144 82h-466q-46 0 -96 -4t-102 -14q-54 -14 -106 -40t-102 -66q-72 -70 -108 -148t-36 -162q0 -72 26 -134t76 -116q48 -56 119 -85t165 -31q18 0 36 1t38 3q-2 -8 -6 -18 t-8 -22q-4 -10 -6 -23t-2 -27q0 -26 6 -48t16 -40q10 -20 21 -37t25 -35q-42 0 -93 -5t-113 -15t-121 -32t-117 -54q-50 -30 -85 -65t-53 -75q-20 -40 -30 -76t-10 -68zM198 396q0 30 6 57t20 49q10 22 24 39t30 31t33 25t33 19q16 6 28 11t22 9q38 10 75 19t73 13t59 5 t31 -1h29t23 -2q66 -44 114 -83t78 -69q30 -34 44 -72t14 -84q0 -54 -21 -99t-63 -79q-44 -34 -107 -53t-145 -19q-92 0 -164 21t-126 61t-82 90t-28 112zM314 1462v12q0 40 11 78q13 44 39 82q32 36 71 56t87 20q36 0 67 -11t59 -31t49 -48t39 -62q34 -70 52 -139t18 -137 q0 -16 -1 -36t-5 -44q-4 -22 -13 -45t-25 -45q-30 -32 -68 -48t-84 -18q-38 0 -70 11t-60 33t-51 49t-41 59q-38 68 -56 134t-18 130zM1146 1250v142h390v390h122v-390h390v-142h-390v-390h-122v390h-390z" />
<glyph unicode="d" d="M204 1166q0 52 9 105t27 107q16 52 43 103t63 101t79 93t93 83q50 38 111 68t133 54q72 22 150 34t162 12t163 -15t151 -45q74 -28 135 -67t109 -87q50 -48 89 -104t67 -118q28 -64 42 -129t14 -131q0 -182 -46 -331t-138 -267t-210 -177t-262 -59q-48 0 -93 11t-87 33 t-72 49t-46 59q-36 -140 -57 -224t-29 -110q-18 -72 -61 -156t-111 -180h-84q-10 105 -10 194v30q2 102 22 182l156 662q-18 40 -28 88t-10 106q0 66 17 122t51 100q34 46 76 69t90 23q40 0 70 -13t50 -39q22 -26 33 -59t11 -73q0 -24 -5 -54t-13 -64q-10 -36 -21 -76 t-27 -88q-14 -46 -25 -83t-17 -65q-7 -26 -7 -50q0 -20 5 -39q10 -41 38 -77q30 -34 69 -51t87 -17q84 0 154 47t124 141t81 209t27 249q0 102 -34 186t-100 150q-66 64 -159 97t-213 33q-134 0 -242 -43t-190 -129q-84 -84 -125 -187t-41 -223q0 -70 20 -130t60 -110 q14 -14 18 -31t0 -35q-4 -14 -10 -39t-14 -59q-4 -12 -10 -19t-14 -11t-18 -4t-20 4q-62 24 -108 68t-78 108q-32 62 -48 134t-16 154z" />
<glyph unicode="e" d="M290 4q0 -60 25 -86t43 -34q18 -6 60 -6t72 34l80 94q80 94 178 207t180 208t86 99q10 10 13 12t13 2h137h197q106 0 136 57t42 101q4 18 29 141t56 280t62 312t47 239q11 53 11 95q0 60 -22 100q-37 67 -157 67h-150h-340h-368h-234q-114 0 -155 -66t-41 -120v-301v-593 v-580v-262zM516 278v1356q0 22 18 44t48 22h132h294h300h150q26 0 44 -20t12 -50l-46 -240q-4 -18 -25 -35t-43 -17h-80h-145h-139h-62q-36 0 -59 -23t-23 -57v-54q0 -34 23 -57t59 -23h52h116h122h70q26 0 46 -23t14 -51q-4 -28 -23 -124t-23 -110q-2 -16 -19 -35t-47 -19 h-160h-134q-42 0 -61 -9t-45 -43q-14 -16 -72 -86t-122 -147t-115 -138l-51 -61q-2 -4 -4 -3t-2 3zM1552 692q4 18 29 141t56 280t62 312t47 239z" />
<glyph unicode="f" d="M0 1544q11 6 71 6q36 0 89 -2q71 -3 147 -3t157 3q54 2 135 3q41 1 80.5 1t78.5 -1q78 -1 139 -3t75 -4l-10 -72q-32 -8 -147 -13t-155 -17q52 -76 116 -161t125 -164t112 -145t77 -104q14 20 76 70t131 108t126 112t61 84q-40 8 -139 23t-119 15l-18 92q24 4 99 4 q37 0 87 -1q150 -3 244 -3h221t189 -6l-60 -86q-28 -4 -113 -22t-121 -26q-20 -6 -108 -69t-187 -144t-183 -159t-96 -112q-6 -24 -8 -58t-2 -70l-4 -74q0 -40 8 -96t14 -90q18 -4 93 -4h56h57q76 0 100 -4l-4 -96q-16 2 -73 2h-132h-156h-145t-222 -4q-105 -3 -169 -3 q-32 0 -53 1l16 90q34 4 141 4t139 32q16 18 15 48t-1 126v62q0 20 -1 57t-5 75q-8 20 -80 116t-165 209t-183 215t-130 134q-24 8 -135 21t-149 21z" />
<glyph unicode="g" d="M14 1366q0 -76 20 -148t58 -134q-10 -46 -15 -95t-5 -99q0 -200 75 -375t206 -306t307 -206t374 -75q46 0 90 4t88 12q58 -32 125 -49t139 -17q114 0 216 43t178 119t120 178t44 218q0 66 -15 129t-43 119q10 50 16 102t6 104q0 200 -76 375t-206 306t-306 207t-376 76 q-42 0 -83 -4t-81 -10q-64 40 -140 63t-158 23q-114 0 -216 -44t-178 -120t-120 -178t-44 -218zM460 618q0 28 10 50t30 42q20 18 45 27t55 9q24 0 46 -7t38 -21q18 -14 32 -35t26 -49t26 -53t28 -45q14 -18 35 -34t47 -28t61 -18t79 -6q60 0 108 12t86 38q36 24 53 54 t17 66q0 28 -9 51t-27 41q-20 18 -46 32t-58 24t-76 21t-100 23q-74 16 -138 35t-114 41q-52 22 -94 52t-72 68q-30 40 -46 88t-16 106q0 54 16 103t50 91q32 42 79 75t107 55t131 33t151 11q66 0 122 -7t104 -21q48 -16 88 -36t70 -44q32 -24 56 -51t38 -55q16 -28 23 -55 t7 -55q0 -26 -10 -49t-30 -43q-18 -20 -43 -31t-55 -11q-26 0 -47 7t-37 19q-12 12 -26 31t-30 45q-18 36 -40 62t-46 46q-26 18 -66 27t-96 9q-52 0 -94 -10t-72 -30t-45 -43t-15 -49q0 -18 5 -31t13 -25q12 -14 26 -25t32 -19q20 -10 39 -17t39 -13t53 -14t81 -18 q58 -14 111 -28t101 -28q48 -16 89 -35t75 -41q36 -22 63 -51t47 -63q18 -36 28 -78t10 -92q0 -60 -17 -114t-49 -102q-34 -46 -83 -84t-113 -64t-140 -39t-162 -13q-104 0 -190 18t-154 54q-48 26 -88 61t-70 79q-32 44 -47 88t-15 86z" />
<glyph unicode="h" d="M196 595v33l28 348q2 16 15 34t31 28q24 14 60 3l36 -11l434 -218l32 -23q32 -23 32 -63q-2 -54 -22 -65t-34 -21l-506 -112l-39 -8q-9 -2 -16 -2q-27 0 -41 22q-10 22 -10 55zM420 1722q16 24 38 35l22 11l404 150q12 2 31 7q3 1 6 1q19 0 57 -24q30 -16 39 -62l9 -46 l4 -692l-12 -43t-54 -53q-13 -3 -25 -3q-24 0 -42 13l-27 20l-420 570l-26 40q-14 22 -14 42q0 18 10 34zM524 48q-2 8 -2 16q0 21 14 45l20 33l338 372l32 20q18 11 36 11l28 -7q30 -16 36 -43l6 -27l-8 -504l-2 -37q-2 -37 -34 -45q-24 -8 -49 -5l-25 3l-340 108 q-18 8 -30 22t-20 38zM1185 893l9 27l274 432l20 27q20 27 56 23q30 -2 46 -20l16 -18l232 -272l9 -27q9 -27 1 -53q-6 -26 -41 -44l-35 -18l-486 -142l-37 -1h-2q-35 0 -53 31q-18 28 -9 55zM1202 556q-3 10 -3 19q0 24 19 43q24 24 52 22l28 -2l486 -156l35 -13 q35 -13 35 -47q-2 -24 -12 -47l-10 -23l-206 -294l-23 -15q-23 -15 -51 -15t-54 29l-26 29l-260 434z" />
<glyph unicode="i" d="M308 788q0 -208 52 -376t143 -286t216 -183t271 -65h9q137 0 268 59q135 61 240 162t169 230t64 263q0 154 -38 264t-101 191t-146 140t-171 111q13 -69 13 -131q0 -59 -12 -111q-25 -106 -85 -173t-149 -92q-40 -11 -84 -11q-52 0 -109 16q144 235 144 374v11 q-6 141 -61 247t-104 213q-21 46 -21 104q0 79 38 181q-102 -74 -200 -205t-175 -288t-124 -326t-47 -319zM491 609q17 185 153 405q-17 -76 -17 -146q0 -47 8 -91q19 -109 68 -189t119 -126t144 -46q82 0 149 36t118 100t87 151t60 187q132 -100 170 -248q16 -62 16 -123 q0 -83 -30 -162q-52 -137 -190 -236t-356 -103h-15q-137 0 -254 69q-123 73 -185 205q-49 104 -49 240q0 37 4 77z" />
<glyph unicode="j" d="M0 1672q0 50 18 94t54 80q38 36 81 55t95 19t95 -19t81 -55q36 -36 54 -80t18 -94q0 -52 -18 -96t-54 -80q-38 -36 -81 -54t-95 -18t-95 18t-81 54q-36 36 -54 80t-18 96zM14 -66v1290q0 10 4 19t10 17q8 8 17 12t21 4h364q12 0 21 -4t17 -12q6 -8 10 -17t4 -19v-1290 q0 -10 -4 -19t-10 -17q-8 -8 -17 -11t-21 -3h-364q-12 0 -21 3t-17 11q-6 8 -10 17t-4 19zM682 -66v1290q0 10 4 19t12 17t17 12t19 4h354q10 0 18 -2t14 -6t10 -10t6 -16t3 -17t1 -11v-11v-21q70 64 161 96t205 32q126 0 226 -32t172 -94q72 -64 108 -159t36 -219v-870 q0 -12 -4 -21t-12 -17t-17 -11t-19 -3h-374q-10 0 -19 3t-17 11t-12 17t-4 21v784q0 54 -10 92t-30 64q-20 24 -55 36t-87 12q-64 0 -110 -19t-72 -57q-28 -38 -41 -92t-13 -122v-700q0 -10 -4 -19t-12 -17q-6 -8 -16 -11t-20 -3h-366q-10 0 -19 3t-17 11t-12 17t-4 19z" />
<glyph unicode="k" d="M144 612q0 146 48 273t142 233q106 118 239 177t293 59q68 0 130 -10t120 -32q-18 -36 -33 -80t-21 -92q-44 18 -94 28t-102 10q-112 0 -207 -42t-175 -124q-80 -84 -120 -185t-40 -219q0 -76 18 -147t56 -137q36 -66 85 -117t111 -87q40 -24 85 -39t91 -23 q198 78 295 277t135 412q36 202 36 367v17q-2 171 -4 189q-8 24 -29 81t-57 138t-85 180t-113 207l38 -32t88 -104t96 -187t62 -279v-1v-3l3 -9l1 -3q85 -229 85 -417q0 -68 -11 -130q-42 -235 -140 -393t-199 -238l-101 -80q72 0 139 18t129 52q62 36 111 87t85 117t54 137 t18 147q0 62 -11 119t-33 109q38 8 81 24t89 44q28 -66 42 -140t14 -152q0 -148 -51 -276t-151 -238q-102 -110 -232 -165t-288 -55q-160 0 -290 55t-230 165q-102 110 -152 238t-50 276zM864 50l1 -1l1 -1l1 1l1 1h-1h-3zM1259 1320q-11 31 -11 62q0 87 88 176l48 36 q48 36 168 66l91 40q91 40 157 178l26 -44q26 -44 49 -122t29 -184q1 -13 1 -27q0 -95 -37 -203l-41 -83q-41 -83 -127 -133q-60 -37 -144 -37h-13q-93 3 -197 103l65 38q65 38 144 98t146 134t73 146l-25 -45q-25 -45 -81 -106t-146 -122t-220 -89z" />
<glyph unicode="l" d="M152 532q0 12 6 24l314 554v2l-200 344q-6 14 -6 25t4 21q6 10 17 14t25 4h294q34 0 53 -18t29 -36l32 -55t70 -122t70 -122l32 -55q-4 -8 -55 -97t-109 -193t-106 -189l-48 -85q-12 -22 -30 -40t-52 -18h-294q-14 0 -24 6t-16 14q-6 10 -6 22zM816 704q8 14 111 197 t225 399t222 392l100 176q10 22 28 40t50 18h298q14 0 24 -5t16 -15t6 -22t-6 -24l-654 -1156q-2 0 -2 -1t2 -1l416 -760q6 -12 6 -24t-6 -22t-16 -14t-22 -4h-296q-34 0 -53 18t-29 38l-66 120q-66 120 -144 264t-144 264t-66 122z" />
<glyph unicode="m" d="M0 274v52v92q0 118 84 202t202 84t202 -84t84 -202v-92v-52h-572zM22 1026q0 110 77 187t187 77t187 -77t77 -187t-77 -187t-187 -77t-187 77t-77 187zM634 274v58v102q0 132 93 225t225 93t225 -93t93 -225v-102v-58h-636zM658 1110q0 122 86 208t208 86t208 -86 t86 -208t-86 -208t-208 -86t-208 86t-86 208zM1334 274v65v115q0 148 104 253t252 105t253 -105t105 -253v-115v-65h-714zM1362 1200q0 136 96 232t232 96t232 -96t96 -232t-96 -232t-232 -96t-232 96t-96 232z" />
<glyph unicode="n" d="M0 574v246h40v-246h-40zM102 492v388h42v-388h-42zM184 472v450h42v-450h-42zM266 450v452h42v-452h-42zM368 450v594h42v-594h-42zM450 450v676h42v-676h-42zM552 450v718h42v-718h-42zM634 450v738h42v-738h-42zM738 450v718h40v-718h-40zM820 450v696h40v-696h-40z M902 450v778h40v-778h-40zM1004 450v840h40v-840h-40zM1064 486v800q0 12 6 19t22 11q36 14 77 22t83 8q88 0 166 -31t137 -86t97 -129t46 -160q22 10 47 15t51 5q104 0 178 -74t74 -178t-73 -178t-179 -74h-110h-242h-241h-109q-12 2 -21 10t-9 20z" />
<glyph unicode="o" d="M6 1322q-6 20 -6 39q0 31 16 62q26 49 80 67q190 56 434 78q125 11 253 11q122 0 247 -10q256 -21 504 -87t448 -186q48 -28 62 -82q5 -18 5 -35q0 -35 -19 -67q-30 -48 -84 -62q-17 -4 -34 -4q-36 0 -68 20q-174 102 -394 160t-449 76q-111 9 -220 9q-114 0 -225 -10 q-216 -19 -382 -69q-21 -6 -40 -6q-32 0 -63 16q-49 26 -65 80zM102 862q-5 18 -5 35q0 27 13 52q22 41 66 53q196 60 411 76q84 6 167 6q130 0 260 -15q212 -25 412 -90t366 -167q40 -24 51 -70q3 -14 3 -28q0 -30 -16 -56q-24 -40 -70 -51q-14 -3 -28 -3q-30 0 -56 16 q-146 90 -324 147t-367 79q-116 13 -232 13q-74 0 -148 -5q-191 -14 -363 -66q-17 -5 -34 -5q-26 0 -51 13q-41 22 -55 66zM160 442q-3 12 -3 24q0 23 13 44q20 32 56 40q206 46 397 60q76 6 150 6q111 0 216 -13q175 -21 334 -74t301 -139q32 -20 40 -56q2 -11 2 -22 q0 -24 -12 -46q-20 -32 -56 -41q-11 -3 -22 -3q-24 0 -46 14q-126 78 -269 125t-301 64q-93 10 -191 10q-69 0 -141 -5q-174 -12 -362 -56q-10 -2 -20 -2q-25 0 -47 14q-31 20 -39 56z" />
<glyph unicode="p" d="M0 902q0 -212 80 -399t219 -326t326 -219t399 -80t399 80t326 219t219 326t80 399t-80 398t-219 325t-326 220t-399 81t-399 -81t-326 -220t-219 -325t-80 -398zM234 900q0 52 6 103t18 101q4 14 9 29t11 31q28 86 76 162t111 140t139 113t162 79q64 22 131 34t135 12 q100 0 196 -25t183 -71t160 -113t129 -149q26 -42 48 -87t40 -91h-2q6 -16 11 -32t9 -30q12 -50 18 -102t6 -104q0 -96 -41 -175q-25 -48 -81 -48q-35 0 -82 19q-58 24 -105 70t-83 96l-84 112t-88 110q-42 50 -89 97t-95 91q-50 44 -105 83t-113 69q-40 18 -82 33t-84 27 q-4 2 -14 5t-14 -3q-4 -4 -3 -10t3 -10q0 -8 1 -17t3 -17q12 -106 12 -215t-32 -213q-18 -54 -50 -104t-74 -88q-36 -32 -84 -59q-45 -25 -91 -25h-7q-10 0 -19 2t-19 4q-54 18 -65 68t-11 98z" />
<glyph unicode="q" d="M0 882q0 138 34 247t101 185t165 116t228 40q116 0 206 -22t158 -72t117 -130t87 -194l76 -234q44 -128 130 -212t262 -84q120 0 182 29t62 93q0 52 -35 88t-123 58l-160 38q-146 34 -209 110t-63 196q0 192 129 264t289 72q178 0 283 -70t119 -228l-234 -28 q-8 76 -53 110t-129 34q-78 0 -123 -34t-45 -94q0 -52 28 -85t106 -51l150 -32q152 -36 231 -115t79 -221q0 -176 -135 -250t-353 -74q-152 0 -258 32t-177 88t-115 131t-72 159l-74 236q-42 128 -108 216t-222 88q-106 0 -197 -88t-91 -304q0 -168 78 -267t200 -99 q136 0 220 68l84 68l76 -204l-97 -62t-295 -62q-124 0 -219 36t-160 105t-99 172t-34 237z" />
<glyph unicode="r" d="M176 466q0 100 4 203t26 199q16 66 67 112t117 54q158 18 317 21t317 3q160 0 319 -3t315 -21q68 -8 118 -54t66 -112q22 -96 26 -199t4 -203q0 -98 -4 -201t-26 -199q-16 -68 -66 -113t-118 -53q-158 -18 -317 -21t-317 -3t-318 3t-316 21q-68 8 -118 53t-66 113 q-22 96 -26 199t-4 201zM308 758h122v-656h102v656h124v102h-348v-102zM450 1926q18 -46 37 -103l37 -111q28 -80 41 -140t29 -102v-324h102v324l150 456h-116l-78 -302l-82 302h-120zM676 218q0 -30 2 -50t6 -34q8 -22 23 -32t41 -10q28 0 55 17t57 53v-60h102v574h-102 v-442q-16 -24 -31 -36t-29 -12q-12 0 -17 6t-7 18q0 2 1 12t1 28v426h-102v-458zM860 1344v200q0 46 5 80t21 56q22 28 50 43t66 15q40 0 68 -15t48 -43q18 -22 23 -56t5 -80v-200q0 -44 -6 -78t-22 -56q-22 -28 -50 -43t-68 -15q-38 0 -65 15t-49 43q-16 22 -21 56t-5 78z M942 1326q0 -40 13 -60t39 -20q24 0 37 20t13 60v240q0 40 -13 59t-37 19q-26 0 -39 -19t-13 -59v-240zM1064 102h82v52q32 -30 59 -46t55 -16q30 0 51 16t31 48q6 18 8 46t2 68v224q0 40 -2 69t-6 45q-10 32 -33 48t-53 16q-28 0 -54 -15t-58 -47v250h-82v-758zM1146 210 v346q16 12 29 18t27 6q22 0 35 -19t13 -59v-240q0 -38 -13 -57t-35 -19q-14 0 -27 6t-29 18zM1228 1280q0 -30 5 -51t11 -35q6 -22 26 -32t44 -10q30 0 59 17t61 53v-76h102v574h-102v-426q-16 -24 -33 -36t-33 -12q-10 0 -14 6t-6 18q0 2 2 12t2 28v410h-124v-440z M1434 284q0 -46 9 -79t25 -55q22 -28 53 -43t73 -15q40 0 71 15t53 47q10 14 15 29t7 31v25v41v6h-100q0 -30 -1 -45t-1 -19q-4 -20 -16 -29t-32 -9q-26 0 -40 20t-14 60v104h204v114q0 44 -6 77t-22 55q-22 30 -52 44t-68 14t-70 -14t-54 -44q-18 -22 -26 -55t-8 -77v-198z M1536 450h102v52q0 38 -13 58t-37 20q-26 0 -39 -20t-13 -58v-52z" />
<glyph unicode="s" d="M0 1310q76 68 151 134t147 134q102 86 178 132t126 52q13 1 26 1q102 0 168 -72q74 -81 100 -257q30 -188 51 -306t33 -164q34 -156 72 -234t80 -78q32 0 80 51t112 151q64 102 99 179t39 131q2 20 2 37q0 61 -27 95q-35 44 -113 44q-36 0 -74 -9t-78 -25q38 124 93 216 t127 152t162 88q79 24 170 24h26q158 -4 232 -106q67 -92 67 -264q0 -19 -1 -38q-4 -76 -32 -164t-80 -191t-129 -219t-177 -246q-106 -136 -202 -238t-184 -170t-169 -101t-153 -33q-88 0 -164 82t-138 248q-42 152 -83 303t-83 303q-46 166 -95 248t-101 82q-12 0 -52 -24 t-110 -72z" />
<glyph unicode="t" d="M296 122l86 -86l2 4l178 844l-178 -850l224 22l124 686l40 24l2 2l4 26l2 12l40 322l-40 6l-30 -46l-32 -216l-144 32l-56 -48l-26 -108l-28 -22l-166 -598zM600 10l108 -46l24 6l6 2l46 420l42 134l-42 -134l-46 -420l-2 -20l176 -74l358 60v18l6 2l56 -8v2l-6 2l190 32 l-8 38h2l58 -16l78 16l-2 16v-2l110 20l-154 738l-64 24l-70 -28l-18 114l-130 50l-42 422l66 68l-274 176l-46 28l-18 10l-208 -276l52 -38l-68 -540l-4 -38v-2l24 -14l62 -32l-4 -32v2l4 30l-2 2h-2l-56 30l-26 14v2h2h-2l-4 -2l-40 -24l-124 -686zM822 884l2 24l136 96 v-22zM838 1012l2 16l124 102l2 -2v-20l-126 -100zM850 1108l2 10v16l120 112l-2 -24zM862 1208l2 14l2 14l110 112l-2 -26zM876 1332l4 22l100 94l-2 -22zM962 670l10 182zM976 888l8 -2l-8 2v2v-2l10 -2l4 -2l-6 2zM992 884zM1024 1650l44 -30l-14 306h-8zM1090 1418v74 l46 -24l2 -76zM1092 930l64 -24v-110l-14 4l2 38l-50 14zM1092 1094v96l54 -26l4 -94zM1092 1216v76l50 -26l4 -74zM1092 1320l2 70l48 -26v-70zM1094 964v98l58 -24l4 -96zM1176 1448l42 -24l4 -76l-44 24zM1180 1342l46 -22l2 -70l-46 24zM1182 1246l46 -24l6 -74l-48 24z M1186 1144l50 -22l6 -92l-52 22zM1190 738l46 -18l4 -106l8 -160l18 -398l4 -74v-10l-4 80l-18 400l-8 162l-46 16zM1190 894l52 -14l6 -86l-16 -8v-14l-38 14zM1192 1018l52 -20l4 -92l-54 18zM1314 38l4 -86h-2z" />
<glyph unicode="u" d="M126 1618h350q32 -284 87 -500t125 -382t153 -293t171 -235q98 98 189 225t165 275q-88 44 -158 113t-118 157t-74 192t-26 218t33 212t94 171t150 113t201 40q110 0 195 -33t142 -97t87 -156t30 -210q0 -86 -19 -180t-53 -172q-54 -11 -98 -11q-88 0 -133 44l-67 65 q14 40 27 102t13 124q0 110 -37 164t-97 54q-64 0 -104 -59t-40 -175q0 -118 36 -210t98 -155t145 -96t181 -33q34 0 70 4t82 14v-244q-62 -16 -128 -22t-120 -6q-64 -136 -149 -259t-169 -220t-156 -163t-110 -88q-48 -28 -97 -28t-103 32q-46 28 -150 126t-221 296 t-227 512t-170 774z" />
<glyph unicode="v" d="M0 902q0 96 36 180t99 147t148 100t181 37t181 -37t148 -100t99 -147t36 -180q0 -98 -36 -182t-99 -147t-148 -100t-181 -37t-181 37t-148 100t-99 147t-36 182zM1120 902q0 96 36 180t99 147t148 100t181 37t181 -37t148 -100t99 -147t36 -180q0 -98 -36 -182t-99 -147 t-148 -100t-181 -37t-181 37t-148 100t-99 147t-36 182z" />
<glyph unicode="w" d="M0 716h96h96q2 -6 3 -11t3 -11q10 -42 34 -72t68 -42q26 -7 51 -6q20 0 39 4q42 10 76 48q44 46 49 117q1 9 1 18q0 60 -30 107q-38 56 -110 68q-17 3 -32 3q-52 0 -94 -31l-16 -12t-12 -14q-10 -16 -24 -20t-32 -2h-66h-70q24 132 47 263t47 263h265h267v-77v-81h-10 h-10h-177t-179 2q-10 0 -14 -4t-6 -14q-8 -48 -17 -95t-17 -93v-5v-7q54 50 117 64q34 8 69 8q30 0 62 -6q72 -12 121 -55t83 -105q4 8 7 15t7 13q48 96 135 141q66 34 144 34q24 0 49 -3q66 -8 121 -36t101 -72q28 -26 55 -55t55 -59l5 5t5 7q30 30 57 60t57 58 q40 36 86 60t100 32q26 4 52 4q71 0 146 -28q102 -38 150 -150q38 -86 38 -171v-8q-2 -89 -46 -177q-40 -80 -108 -120t-156 -46q-12 -1 -23 -1q-57 0 -109 17q-62 20 -116 64q-30 24 -58 53t-58 57l-10 10l-14 14q-16 -16 -31 -33t-31 -31q-22 -22 -46 -44t-50 -40 q-64 -46 -137 -60q-34 -7 -69 -7q-40 0 -80 9q-76 16 -129 62t-87 114q-2 2 -3 5t-3 7l-1 1l-1 1q-10 -16 -19 -32t-21 -30q-50 -70 -119 -105t-155 -37h-21l-75 5q-48 7 -92 27q-94 40 -136 113t-44 155zM836 780q-1 -9 0 -18q0 -62 36 -103q42 -47 112 -47q32 2 60 10 t54 24q40 22 71 52t63 60q4 4 4 8t-4 8q-26 24 -50 47t-48 45q-22 20 -47 34t-53 24q-27 8 -52 8q-36 0 -69 -17q-55 -29 -71 -95q-4 -10 -5 -20t-1 -20zM1460 768q30 -28 58 -54t56 -50q32 -26 69 -39t77 -13q56 2 92 31t48 83q4 18 4 37t-2 37q-8 64 -54 101 q-40 32 -92 32q-9 0 -18 -1q-40 -4 -72 -21t-60 -43q-26 -24 -52 -49t-54 -51z" />
<glyph unicode="x" d="M0 98q0 -10 2 -20q10 -84 77 -142t153 -58h395h395h396h394h15h13q86 12 146 78t60 154v396v395v395v396v9v11q-10 92 -78 153t-160 61h-393h-393h-393t-393 -2h-21t-21 -2q-88 -18 -141 -83t-53 -155v-196v-196v-196v-196v-194v-196v-196v-196v-20zM226 196v213v213v213 v213q0 4 0 3t0 13h94h92q-21 -85 -21 -166q0 -35 4 -69q13 -113 71 -219q42 -80 102 -144t140 -110q76 -44 162 -65q79 -19 158 -19h15q87 2 171 29t158 77q84 56 143 132t95 170t41 186q1 16 1 32q0 78 -20 166h84h86q0 -14 0 -13t0 -1q0 -108 1 -214t1 -213t1 -214t1 -213 q0 -36 -22 -59t-58 -23h-353h-354h-355h-354q-36 0 -60 23t-24 59zM628 900q0 82 31 154t85 125t125 84t153 31t154 -31t125 -84t84 -125t31 -152q0 -82 -31 -154t-84 -125t-125 -84t-154 -31t-153 31t-125 84t-85 125t-31 152zM1416 1374v118v118q0 34 23 56t57 22h117h117 q34 0 57 -23t23 -57v-117v-117q0 -34 -23 -57t-57 -23h-59h-59h-57h-59q-34 0 -57 23t-23 57z" />
<glyph unicode="y" d="M0 902q0 -212 81 -399t220 -326t325 -219t398 -80t398 80t325 219t220 326t81 399q0 210 -81 397t-220 326t-325 220t-398 81t-398 -81t-325 -220t-220 -326t-81 -397zM104 902q0 100 20 194t60 180l438 -1204q-114 56 -210 141t-164 193t-106 233t-38 263zM254 1406 q62 94 145 171t182 131t211 84t232 30q90 0 175 -17t164 -48t150 -76t133 -101h-7h-5q-68 0 -111 -50t-43 -112q0 -58 27 -109t63 -107q26 -46 51 -108t25 -146q0 -60 -20 -131t-50 -167l-92 -306l-334 988q42 2 74 6l32 4q38 4 35 41t-41 35l-86 -6t-160 -6q-66 0 -154 6 l-88 6q-36 2 -39 -36t33 -40l30 -4q30 -4 68 -6l142 -392l-200 -604l-336 996q42 2 74 6l32 4q36 4 33 41t-39 35l-87 -6q-87 -6 -159 -6h-28h-32zM764 18l276 802l284 -774q0 -4 2 -7t4 -7q-72 -24 -149 -38t-157 -14q-68 0 -133 10t-127 28zM1486 106l282 812 q40 98 55 179t15 151q0 26 -2 49t-4 45q54 -98 83 -209t29 -231q0 -128 -33 -246t-93 -220t-144 -186t-188 -144z" />
<glyph unicode="z" d="M394 1086v290q60 20 111 48t95 64q42 36 77 80t61 96t44 117t28 145h290v-518h486v-322h-486v-526q0 -88 5 -145t15 -83t27 -46t43 -34q34 -20 73 -31t83 -11q78 0 155 26t153 76v-324q-64 -30 -124 -52t-112 -34q-54 -12 -112 -18t-120 -6q-70 0 -132 8t-116 26t-100 43 t-84 59q-38 32 -64 67t-42 73q-14 36 -21 90t-7 124v718h-226z" />
<glyph unicode="{" d="M44 144v1424l134 358h1826v-1248l-534 -534h-402l-266 -266h-268v266h-490zM356 456h402v-266l266 266h490l312 312v980h-1470v-1292zM846 856h178v534h-178v-534zM1336 856h178v534h-178v-534z" />
<glyph unicode="}" d="M0 440q0 -116 44 -218t120 -179t179 -121t219 -44t219 44t179 121t120 179t44 218q0 120 0 115t0 45h-200v-20v-140q0 -74 -29 -140t-77 -114q-50 -50 -115 -78t-141 -28q-74 0 -140 28t-114 78q-50 48 -78 114t-28 140q0 76 28 141t78 115q48 48 114 77t140 29h196h264 h265h199q116 0 219 44t179 120t120 178t44 218t-44 219t-120 179t-179 120t-219 44t-219 -44t-179 -120t-120 -179t-44 -219v-138v-20h200v20v138q0 74 29 140t77 116q50 48 115 76t141 28q74 0 140 -28t116 -78q48 -48 76 -114t28 -140q0 -76 -28 -141t-76 -115 q-50 -48 -116 -76t-140 -28h-924q-116 0 -219 -44t-179 -120t-120 -179t-44 -219z" />
<glyph unicode="&#xa0;" horiz-adv-x="1024" d="M0 0z" />
<glyph unicode="&#xa3;" d="M4 504q-10 -14 6 -28q100 -90 215 -162t243 -122t267 -76t287 -26q104 0 216 16t220 48t209 79t185 109q28 22 12 44t-46 10q-94 -40 -191 -70t-196 -50t-196 -29t-189 -9q-138 0 -273 18t-264 53t-249 85t-228 112q-18 12 -28 -2zM546 882q0 -156 87 -234t213 -78 q106 0 176 31t154 115q26 -40 45 -66t69 -68q10 -6 24 -5t22 9h2q30 26 76 67t76 65q14 10 13 25t-11 29q-28 38 -52 77t-24 109v310q0 100 -7 189t-81 157q-58 54 -143 76t-159 22q-142 0 -278 -65t-168 -241q-4 -18 7 -28t23 -14l194 -20q12 0 22 12t12 24q12 62 58 91 t102 29q32 0 63 -12t51 -40q20 -30 22 -69t2 -75v-26q-88 -10 -192 -22t-184 -48q-94 -40 -154 -122t-60 -204zM838 916q0 128 94 165t204 37v-44q0 -58 -4 -109t-34 -103q-24 -42 -60 -66t-78 -24q-58 0 -90 40t-32 104zM1664 467q2 -11 18 -9q54 6 147 12t115 -20 q22 -28 -8 -117t-50 -139q-6 -16 4 -21t24 7q90 76 117 198t9 144q-18 24 -142 29t-220 -63q-16 -10 -14 -21z" />
<glyph unicode="&#xa8;" d="M154 885q-48 -187 3 -411t209 -410t438 -186q266 0 533 208t425 452t153 438t-281 166q-170 -16 -278 -27t-232 -17t-302 -12t-490 -12q-130 -2 -178 -189zM304 744q26 122 66 124q284 10 472 22t320 20t229 14t197 6q104 0 70 -131t-155 -289t-304 -289t-377 -131 q-244 0 -360 121t-150 266t-8 267zM372 1708q-10 -72 38 -131t166 -57q142 2 209 70t57 144q-6 62 -68 112t-178 50q-96 0 -155 -59t-69 -129zM1302 1734q-10 -74 43 -136t173 -54q136 8 198 65t62 125q2 76 -67 138t-191 52q-98 -8 -153 -65t-65 -125z" />
<glyph unicode="&#xad;" d="M134 -52q-4 -28 14 -49t46 -21h352q38 0 67 24t35 62l80 510q6 36 35 61t67 25h232q182 0 326 44t249 132t171 219t94 305q24 154 1 273t-95 203q-78 94 -215 142t-323 48h-736q-38 0 -67 -25t-35 -63zM806 970l78 494q4 22 21 37t41 15h50q100 0 188 -10t136 -66 q30 -34 38 -85t-2 -121q-30 -198 -161 -231t-277 -33h-112z" />
<glyph unicode="&#x2000;" horiz-adv-x="967" />
<glyph unicode="&#x2001;" horiz-adv-x="1934" />
<glyph unicode="&#x2002;" horiz-adv-x="967" />
<glyph unicode="&#x2003;" horiz-adv-x="1934" />
<glyph unicode="&#x2004;" horiz-adv-x="644" />
<glyph unicode="&#x2005;" horiz-adv-x="483" />
<glyph unicode="&#x2006;" horiz-adv-x="322" />
<glyph unicode="&#x2007;" horiz-adv-x="322" />
<glyph unicode="&#x2008;" horiz-adv-x="241" />
<glyph unicode="&#x2009;" horiz-adv-x="386" />
<glyph unicode="&#x200a;" horiz-adv-x="107" />
<glyph unicode="&#x2010;" d="M134 -52q-4 -28 14 -49t46 -21h352q38 0 67 24t35 62l80 510q6 36 35 61t67 25h232q182 0 326 44t249 132t171 219t94 305q24 154 1 273t-95 203q-78 94 -215 142t-323 48h-736q-38 0 -67 -25t-35 -63zM806 970l78 494q4 22 21 37t41 15h50q100 0 188 -10t136 -66 q30 -34 38 -85t-2 -121q-30 -198 -161 -231t-277 -33h-112z" />
<glyph unicode="&#x2011;" d="M134 -52q-4 -28 14 -49t46 -21h352q38 0 67 24t35 62l80 510q6 36 35 61t67 25h232q182 0 326 44t249 132t171 219t94 305q24 154 1 273t-95 203q-78 94 -215 142t-323 48h-736q-38 0 -67 -25t-35 -63zM806 970l78 494q4 22 21 37t41 15h50q100 0 188 -10t136 -66 q30 -34 38 -85t-2 -121q-30 -198 -161 -231t-277 -33h-112z" />
<glyph unicode="&#x2012;" d="M134 -52q-4 -28 14 -49t46 -21h352q38 0 67 24t35 62l80 510q6 36 35 61t67 25h232q182 0 326 44t249 132t171 219t94 305q24 154 1 273t-95 203q-78 94 -215 142t-323 48h-736q-38 0 -67 -25t-35 -63zM806 970l78 494q4 22 21 37t41 15h50q100 0 188 -10t136 -66 q30 -34 38 -85t-2 -121q-30 -198 -161 -231t-277 -33h-112z" />
<glyph unicode="&#x2013;" horiz-adv-x="1289" d="M133 -52q-2 -28 8.5 -49t26.5 -21h202q22 0 38.5 24t20.5 62l46 510q3 36 20 61t39 25h133q105 0 187.5 44t143 132t98.5 219t54 305q14 154 0.5 273t-54.5 203q-45 94 -123.5 142t-185.5 48h-424q-21 0 -38 -25t-20 -63zM520 970l45 494q2 22 11.5 37t23.5 15h29 q58 0 108.5 -10t77.5 -66q18 -34 22.5 -85t-1.5 -121q-17 -198 -92.5 -231t-159.5 -33h-64z" />
<glyph unicode="&#x2014;" horiz-adv-x="2313" d="M134 -52q-5 -28 16 -49t53 -21h405q43 0 76.5 24t40.5 62l92 510q7 36 40 61t77 25h267q209 0 374.5 44t286.5 132t197 219t108 305q28 154 1.5 273t-109.5 203q-90 94 -247.5 142t-371.5 48h-846q-44 0 -77.5 -25t-39.5 -63zM907 970l89 494q5 22 24.5 37t47.5 15h57 q115 0 216 -10t157 -66q34 -34 43.5 -85t-2.5 -121q-34 -198 -185 -231t-319 -33h-128z" />
<glyph unicode="&#x202f;" horiz-adv-x="386" />
<glyph unicode="&#x205f;" horiz-adv-x="483" />
<glyph unicode="&#x25fc;" horiz-adv-x="1930" d="M0 0v1930h1930v-1930h-1930z" />
</font>
</defs>
</svg>
