<?xml version="1.0" ?><!DOCTYPE svg  PUBLIC '-//W3C//DTD SVG 1.0//EN'  'http://www.w3.org/TR/2001/REC-SVG-20010904/DTD/svg10.dtd'><svg height="110px" style="enable-background:new 0 0 110 110;" version="1.0" viewBox="0 0 110 110" width="110px" xml:space="preserve" xmlns="http://www.w3.org/2000/svg" xmlns:xlink="http://www.w3.org/1999/xlink"><g id="Artboard"/><g id="Multicolor"><circle cx="55" cy="55" r="55" style="fill:#00abff;"/><g><path d="M87,73.727c0,1.607-1.302,2.909-2.909,2.909H25.909c-1.607,0-2.909-1.302-2.909-2.909V33    c0-1.607,1.302-2.909,2.909-2.909h58.182C85.698,30.091,87,31.393,87,33V73.727z" style="fill:#3E3E3F;"/><rect height="7.455" style="fill:#E2E4E5;" width="17.455" x="46.273" y="76.636"/><path d="M69.545,85.545c0,0.803-0.651,1.455-1.455,1.455H41.909c-0.803,0-1.455-0.651-1.455-1.455    s0.651-1.455,1.455-1.455h26.182C68.894,84.091,69.545,84.742,69.545,85.545z" style="fill:#F0F1F1;"/><path d="M87,73.727V65H23v8.727c0,1.607,1.303,2.909,2.909,2.909h58.182C85.697,76.636,87,75.334,87,73.727    z" style="fill:#FFFFFF;"/><path d="M55,74.909c-2.156,0-3.909-1.753-3.909-3.909c0-2.155,1.754-3.909,3.909-3.909    s3.909,1.753,3.909,3.909C58.909,73.156,57.156,74.909,55,74.909z M55,69.091c-1.053,0-1.909,0.856-1.909,1.909    c0,1.053,0.856,1.909,1.909,1.909s1.909-0.856,1.909-1.909C56.909,69.948,56.053,69.091,55,69.091z" style="fill:#CFD3D4;"/><path d="M23,32.909v32h19.724L77.633,30H25.909C24.303,30,23,31.303,23,32.909z" style="fill:#5B5C5F;"/><g><path d="M30.414,37.489c0-1.104,0.378-1.724,1.104-1.724c0.727,0,1.104,0.62,1.104,1.724     c0,1.109-0.378,1.729-1.104,1.729C30.792,39.218,30.414,38.598,30.414,37.489z M32.163,37.489c0-0.974-0.237-1.371-0.644-1.371     c-0.402,0-0.644,0.397-0.644,1.371c0,0.979,0.242,1.376,0.644,1.376C31.925,38.864,32.163,38.467,32.163,37.489z M31.518,37.174     c0.184,0,0.32,0.14,0.32,0.315c0,0.179-0.136,0.32-0.32,0.32c-0.179,0-0.315-0.141-0.315-0.32     C31.203,37.314,31.339,37.174,31.518,37.174z" style="fill:#FFFFFF;"/><path d="M34.408,36.312l-0.799,0.484l-0.213-0.31l1.066-0.664h0.392v2.979h0.683v0.359H33.59v-0.359h0.819     V36.312z" style="fill:#FFFFFF;"/><path d="M41.06,36.273l0.213,0.334l-1.695,1.037l1.695,1.041l-0.233,0.325l-1.846-1.153v-0.431     L41.06,36.273z" style="fill:#FFFFFF;"/><path d="M43.742,39.16v-1.564h-1.211v1.564h-0.46v-3.337h0.46v1.395h1.211v-1.395h0.46v3.337H43.742z" style="fill:#FFFFFF;"/><path d="M46.264,36.21v2.95h-0.46v-2.95h-1.032v-0.387h2.538l-0.048,0.387H46.264z" style="fill:#FFFFFF;"/><path d="M49.822,39.16l-0.097-1.71c-0.024-0.47-0.024-1.012-0.019-1.119h-0.015l-0.528,2.233h-0.441     l-0.552-2.233h-0.019c0,0.111,0.01,0.688-0.01,1.119l-0.082,1.71h-0.426l0.189-3.337h0.61l0.514,2.228h0.019l0.489-2.228h0.615     l0.189,3.337H49.822z" style="fill:#FFFFFF;"/><path d="M51.031,39.16v-3.337h0.46v2.935h1.516l-0.053,0.402H51.031z" style="fill:#FFFFFF;"/><path d="M55.796,37.426v0.431L53.95,39.01l-0.233-0.325l1.695-1.041l-1.695-1.037l0.213-0.334     L55.796,37.426z" style="fill:#FFFFFF;"/><path d="M30.414,43.298c0-1.104,0.378-1.724,1.104-1.724c0.727,0,1.104,0.62,1.104,1.724     c0,1.109-0.378,1.729-1.104,1.729C30.792,45.027,30.414,44.407,30.414,43.298z M32.163,43.298c0-0.974-0.237-1.371-0.644-1.371     c-0.402,0-0.644,0.397-0.644,1.371c0,0.979,0.242,1.376,0.644,1.376C31.925,44.673,32.163,44.276,32.163,43.298z M31.518,42.983     c0.184,0,0.32,0.14,0.32,0.315c0,0.179-0.136,0.32-0.32,0.32c-0.179,0-0.315-0.141-0.315-0.32     C31.203,43.123,31.339,42.983,31.518,42.983z" style="fill:#FFFFFF;"/><path d="M33.895,44.596h1.516l-0.053,0.373h-1.986v-0.354c1.153-1.143,1.507-1.604,1.507-2.107     c0-0.359-0.242-0.562-0.567-0.562c-0.276,0-0.465,0.102-0.669,0.358l-0.31-0.218c0.262-0.324,0.591-0.514,1.003-0.514     c0.61,0,1.003,0.388,1.003,0.921C35.338,43.075,34.878,43.656,33.895,44.596z" style="fill:#FFFFFF;"/><path d="M41.06,42.082l0.213,0.334l-1.695,1.037l1.695,1.041l-0.233,0.325l-1.846-1.153v-0.431     L41.06,42.082z" style="fill:#FFFFFF;"/><path d="M43.049,44.969h-0.92v-3.337h0.848c0.596,0,1.192,0.189,1.192,0.843     c0,0.426-0.3,0.649-0.581,0.712v0.019c0.334,0.063,0.727,0.257,0.727,0.809C44.313,44.746,43.674,44.969,43.049,44.969z      M43.059,41.995h-0.47v1.046h0.509c0.388,0,0.601-0.16,0.601-0.538C43.698,42.135,43.456,41.995,43.059,41.995z M43.131,43.409     h-0.543v1.187h0.523c0.325,0,0.717-0.092,0.717-0.572C43.829,43.535,43.514,43.409,43.131,43.409z" style="fill:#FFFFFF;"/><path d="M46.041,45.027c-0.819,0-1.24-0.683-1.24-1.719c0-1.017,0.421-1.734,1.24-1.734     c0.819,0,1.24,0.693,1.24,1.729C47.281,44.32,46.859,45.027,46.041,45.027z M46.041,41.951c-0.543,0-0.761,0.475-0.761,1.356     s0.233,1.342,0.761,1.342c0.543,0,0.76-0.465,0.76-1.347C46.801,42.421,46.583,41.951,46.041,41.951z" style="fill:#FFFFFF;"/><path d="M48.659,44.969h-0.78v-3.337h0.727c0.79,0,1.574,0.266,1.574,1.652     C50.18,44.678,49.367,44.969,48.659,44.969z M48.708,42H48.34v2.606h0.373c0.475,0,0.978-0.242,0.978-1.322     C49.691,42.15,49.163,42,48.708,42z" style="fill:#FFFFFF;"/><path d="M52.082,43.685v1.284h-0.465V43.69l-1.124-2.059h0.509l0.853,1.632h0.015l0.857-1.632h0.479     L52.082,43.685z" style="fill:#FFFFFF;"/><path d="M55.796,43.235v0.431l-1.846,1.153l-0.233-0.325l1.695-1.041l-1.695-1.037l0.213-0.334     L55.796,43.235z" style="fill:#FFFFFF;"/><path d="M30.414,49.107c0-1.104,0.378-1.724,1.104-1.724c0.727,0,1.104,0.62,1.104,1.724     c0,1.109-0.378,1.729-1.104,1.729C30.792,50.836,30.414,50.216,30.414,49.107z M32.163,49.107c0-0.974-0.237-1.371-0.644-1.371     c-0.402,0-0.644,0.397-0.644,1.371c0,0.979,0.242,1.376,0.644,1.376C31.925,50.482,32.163,50.085,32.163,49.107z M31.518,48.792     c0.184,0,0.32,0.14,0.32,0.315c0,0.179-0.136,0.32-0.32,0.32c-0.179,0-0.315-0.141-0.315-0.32     C31.203,48.932,31.339,48.792,31.518,48.792z" style="fill:#FFFFFF;"/><path d="M34.292,50.836c-0.388,0-0.785-0.14-1.041-0.45l0.29-0.242c0.189,0.223,0.465,0.329,0.736,0.329     c0.45,0,0.722-0.252,0.722-0.659c0-0.465-0.286-0.62-0.678-0.62h-0.257l0.053-0.344h0.175c0.32,0,0.62-0.179,0.62-0.567     c0-0.354-0.271-0.548-0.615-0.548c-0.286,0-0.484,0.102-0.702,0.305l-0.242-0.266c0.286-0.271,0.615-0.393,0.969-0.393     c0.639,0,1.037,0.383,1.037,0.838c0,0.407-0.3,0.708-0.634,0.771v0.019c0.368,0.024,0.741,0.3,0.741,0.809     C35.464,50.395,34.994,50.836,34.292,50.836z" style="fill:#FFFFFF;"/><path d="M41.06,47.891l0.213,0.334l-1.695,1.037l1.695,1.041l-0.233,0.325l-1.846-1.153v-0.431     L41.06,47.891z" style="fill:#FFFFFF;"/><path d="M43.742,50.778v-1.564h-1.211v1.564h-0.46V47.44h0.46v1.395h1.211V47.44h0.46v3.337H43.742z" style="fill:#FFFFFF;"/><path d="M45.59,47.808v1.09h1.23v0.368h-1.23v1.148h1.507v0.363H45.13V47.44h1.928l-0.053,0.368H45.59z" style="fill:#FFFFFF;"/><path d="M49.575,49.94h-1.284l-0.257,0.838h-0.46l1.08-3.337h0.581l1.08,3.337h-0.484L49.575,49.94z      M48.403,49.567h1.061l-0.518-1.71h-0.019L48.403,49.567z" style="fill:#FFFFFF;"/><path d="M51.564,50.778h-0.78V47.44h0.727c0.79,0,1.574,0.266,1.574,1.652     C53.085,50.487,52.271,50.778,51.564,50.778z M51.612,47.808h-0.368v2.606h0.373c0.475,0,0.978-0.242,0.978-1.322     C52.596,47.959,52.068,47.808,51.612,47.808z" style="fill:#FFFFFF;"/><path d="M54.304,47.808v1.09h1.23v0.368h-1.23v1.148h1.507v0.363h-1.967V47.44h1.928l-0.053,0.368H54.304z     " style="fill:#FFFFFF;"/><path d="M58.022,49.306L59,50.778h-0.547l-0.891-1.414h-0.426v1.414h-0.46V47.44h0.877     c0.833,0,1.269,0.319,1.269,0.944C58.821,48.884,58.472,49.189,58.022,49.306z M57.595,47.799h-0.46v1.211H57.6     c0.465,0,0.731-0.174,0.731-0.625C58.332,47.968,58.094,47.799,57.595,47.799z" style="fill:#FFFFFF;"/><path d="M61.605,49.044v0.431l-1.846,1.153l-0.233-0.325l1.695-1.041l-1.695-1.037l0.213-0.334     L61.605,49.044z" style="fill:#FFFFFF;"/><path d="M30.414,54.916c0-1.104,0.378-1.724,1.104-1.724c0.727,0,1.104,0.62,1.104,1.724     c0,1.109-0.378,1.729-1.104,1.729C30.792,56.645,30.414,56.025,30.414,54.916z M32.163,54.916c0-0.974-0.237-1.371-0.644-1.371     c-0.402,0-0.644,0.397-0.644,1.371c0,0.979,0.242,1.376,0.644,1.376C31.925,56.292,32.163,55.894,32.163,54.916z M31.518,54.601     c0.184,0,0.32,0.14,0.32,0.315c0,0.179-0.136,0.32-0.32,0.32c-0.179,0-0.315-0.141-0.315-0.32     C31.203,54.742,31.339,54.601,31.518,54.601z" style="fill:#FFFFFF;"/><path d="M35.101,55.788v0.799H34.67v-0.799h-1.366v-0.315l0.978-2.282l0.373,0.155l-0.882,2.088h0.896     l0.044-0.872h0.387v0.872h0.421v0.354H35.101z" style="fill:#FFFFFF;"/><path d="M41.06,53.7l0.213,0.334l-1.695,1.037l1.695,1.041l-0.233,0.325l-1.846-1.153v-0.431L41.06,53.7z" style="fill:#FFFFFF;"/><path d="M42.284,57.091l-0.359-0.16l2.068-4.267l0.354,0.17L42.284,57.091z" style="fill:#FFFFFF;"/><path d="M46.646,56.587v-1.564h-1.211v1.564h-0.46V53.25h0.46v1.395h1.211V53.25h0.46v3.337H46.646z" style="fill:#FFFFFF;"/><path d="M48.495,53.618v1.09h1.23v0.368h-1.23v1.148h1.507v0.363h-1.967V53.25h1.928l-0.053,0.368H48.495z     " style="fill:#FFFFFF;"/><path d="M52.479,55.749h-1.284l-0.257,0.838h-0.46l1.08-3.337h0.581l1.08,3.337h-0.484L52.479,55.749z      M51.307,55.376h1.061l-0.518-1.71H51.83L51.307,55.376z" style="fill:#FFFFFF;"/><path d="M54.468,56.587h-0.78V53.25h0.727c0.79,0,1.574,0.266,1.574,1.652     C55.989,56.297,55.176,56.587,54.468,56.587z M54.517,53.618h-0.368v2.606h0.373c0.475,0,0.978-0.242,0.978-1.322     C55.5,53.768,54.972,53.618,54.517,53.618z" style="fill:#FFFFFF;"/><path d="M57.208,53.618v1.09h1.23v0.368h-1.23v1.148h1.507v0.363h-1.967V53.25h1.928l-0.053,0.368H57.208z     " style="fill:#FFFFFF;"/><path d="M60.926,55.114l0.979,1.473h-0.547l-0.891-1.414H60.04v1.414h-0.46V53.25h0.877     c0.833,0,1.269,0.319,1.269,0.944C61.726,54.693,61.377,54.998,60.926,55.114z M60.5,53.608h-0.46v1.211h0.465     c0.465,0,0.731-0.174,0.731-0.625C61.236,53.778,60.999,53.608,60.5,53.608z" style="fill:#FFFFFF;"/><path d="M64.509,54.853v0.431l-1.846,1.153l-0.233-0.325l1.695-1.041l-1.695-1.037l0.213-0.334     L64.509,54.853z" style="fill:#FFFFFF;"/></g></g></g></svg>
