<?xml version="1.0" encoding="UTF-8" standalone="no"?>
<!DOCTYPE svg PUBLIC "-//W3C//DTD SVG 1.1//EN"
 "http://www.w3.org/Graphics/SVG/1.1/DTD/svg11.dtd">
<!-- Generated by graphviz version 2.40.1 (20161225.0304)
 -->
<!-- Title: dependencies Pages: 1 -->
<svg width="638pt" height="284pt"
 viewBox="0.00 0.00 638.00 284.00" xmlns="http://www.w3.org/2000/svg" xmlns:xlink="http://www.w3.org/1999/xlink">
<g id="graph0" class="graph" transform="scale(1 1) rotate(0) translate(4 280)">
<title>dependencies</title>
<polygon fill="#ffffff" stroke="transparent" points="-4,4 -4,-280 634,-280 634,4 -4,4"/>
<text text-anchor="start" x="294.0091" y="-42.4" font-family="sans-serif" font-weight="bold" font-size="14.00" fill="#000000">Legend</text>
<polygon fill="#ffffb3" stroke="transparent" points="81,-10 81,-30 101,-30 101,-10 81,-10"/>
<text text-anchor="start" x="104.629" y="-15.4" font-family="sans-serif" font-size="14.00" fill="#000000"> &#160;Declarations</text>
<polygon fill="#8dd3c7" stroke="transparent" points="194,-10 194,-30 214,-30 214,-10 194,-10"/>
<text text-anchor="start" x="217.7251" y="-15.4" font-family="sans-serif" font-size="14.00" fill="#000000"> &#160;Module</text>
<polygon fill="#80b1d3" stroke="transparent" points="280,-10 280,-30 300,-30 300,-10 280,-10"/>
<text text-anchor="start" x="303.7812" y="-15.4" font-family="sans-serif" font-size="14.00" fill="#000000"> &#160;Bootstrap</text>
<polygon fill="#fdb462" stroke="transparent" points="377,-10 377,-30 397,-30 397,-10 377,-10"/>
<text text-anchor="start" x="400.6732" y="-15.4" font-family="sans-serif" font-size="14.00" fill="#000000"> &#160;Providers</text>
<polygon fill="#fb8072" stroke="transparent" points="473,-10 473,-30 493,-30 493,-10 473,-10"/>
<text text-anchor="start" x="496.7258" y="-15.4" font-family="sans-serif" font-size="14.00" fill="#000000"> &#160;Exports</text>
<g id="clust1" class="cluster">
<title>cluster_IdiomasModule</title>
<polygon fill="none" stroke="#000000" stroke-dasharray="1,5" points="8,-70 8,-268 622,-268 622,-70 8,-70"/>
</g>
<g id="clust3" class="cluster">
<title>cluster_IdiomasModule_imports</title>
<polygon fill="none" stroke="#000000" points="216,-78 216,-130 614,-130 614,-78 216,-78"/>
</g>
<g id="clust4" class="cluster">
<title>cluster_IdiomasModule_exports</title>
<polygon fill="none" stroke="#000000" points="143,-208 143,-260 487,-260 487,-208 143,-208"/>
</g>
<g id="clust6" class="cluster">
<title>cluster_IdiomasModule_providers</title>
<polygon fill="none" stroke="#000000" points="16,-78 16,-130 208,-130 208,-78 16,-78"/>
</g>
<!-- ThemeModule -->
<g id="node1" class="node">
<title>ThemeModule</title>
<polygon fill="#8dd3c7" stroke="#000000" points="606.4231,-122 603.4231,-126 582.4231,-126 579.4231,-122 507.5769,-122 507.5769,-86 606.4231,-86 606.4231,-122"/>
<text text-anchor="middle" x="557" y="-99.8" font-family="Times,serif" font-size="14.00" fill="#000000">ThemeModule</text>
</g>
<!-- IdiomasModule -->
<g id="node4" class="node">
<title>IdiomasModule</title>
<polygon fill="#8dd3c7" stroke="#000000" points="365.1514,-187 362.1514,-191 341.1514,-191 338.1514,-187 260.8486,-187 260.8486,-151 365.1514,-151 365.1514,-187"/>
<text text-anchor="middle" x="313" y="-164.8" font-family="Times,serif" font-size="14.00" fill="#000000">IdiomasModule</text>
</g>
<!-- ThemeModule&#45;&gt;IdiomasModule -->
<g id="edge1" class="edge">
<title>ThemeModule&#45;&gt;IdiomasModule</title>
<path fill="none" stroke="#000000" d="M557,-122.1061C557,-141.3391 557,-169 557,-169 557,-169 375.3441,-169 375.3441,-169"/>
<polygon fill="#000000" stroke="#000000" points="375.3442,-165.5001 365.3441,-169 375.3441,-172.5001 375.3442,-165.5001"/>
</g>
<!-- IdiomasRoutingModule -->
<g id="node2" class="node">
<title>IdiomasRoutingModule</title>
<polygon fill="#8dd3c7" stroke="#000000" points="489.7688,-122 486.7688,-126 465.7688,-126 462.7688,-122 340.2312,-122 340.2312,-86 489.7688,-86 489.7688,-122"/>
<text text-anchor="middle" x="415" y="-99.8" font-family="Times,serif" font-size="14.00" fill="#000000">IdiomasRoutingModule</text>
</g>
<!-- IdiomasRoutingModule&#45;&gt;IdiomasModule -->
<g id="edge2" class="edge">
<title>IdiomasRoutingModule&#45;&gt;IdiomasModule</title>
<path fill="none" stroke="#000000" d="M352.7206,-122.1061C352.7206,-122.1061 352.7206,-140.991 352.7206,-140.991"/>
<polygon fill="#000000" stroke="#000000" points="349.2206,-140.9909 352.7206,-150.991 356.2206,-140.991 349.2206,-140.9909"/>
</g>
<!-- SharedModule -->
<g id="node3" class="node">
<title>SharedModule</title>
<polygon fill="#8dd3c7" stroke="#000000" points="322.4231,-122 319.4231,-126 298.4231,-126 295.4231,-122 223.5769,-122 223.5769,-86 322.4231,-86 322.4231,-122"/>
<text text-anchor="middle" x="273" y="-99.8" font-family="Times,serif" font-size="14.00" fill="#000000">SharedModule</text>
</g>
<!-- SharedModule&#45;&gt;IdiomasModule -->
<g id="edge3" class="edge">
<title>SharedModule&#45;&gt;IdiomasModule</title>
<path fill="none" stroke="#000000" d="M291.4429,-122.1061C291.4429,-122.1061 291.4429,-140.991 291.4429,-140.991"/>
<polygon fill="#000000" stroke="#000000" points="287.9429,-140.9909 291.4429,-150.991 294.9429,-140.991 287.9429,-140.9909"/>
</g>
<!-- CrudIdiomasComponent  -->
<g id="node5" class="node">
<title>CrudIdiomasComponent </title>
<polygon fill="#fb8072" stroke="#000000" points="478.9306,-252 321.0694,-252 321.0694,-216 478.9306,-216 478.9306,-252"/>
<text text-anchor="middle" x="400" y="-229.8" font-family="Times,serif" font-size="14.00" fill="#000000">CrudIdiomasComponent </text>
</g>
<!-- IdiomasModule&#45;&gt;CrudIdiomasComponent  -->
<g id="edge4" class="edge">
<title>IdiomasModule&#45;&gt;CrudIdiomasComponent </title>
<path fill="none" stroke="#000000" stroke-dasharray="5,2" d="M343.1801,-187.1061C343.1801,-187.1061 343.1801,-205.991 343.1801,-205.991"/>
<polygon fill="#000000" stroke="#000000" points="339.6801,-205.9909 343.1801,-215.991 346.6801,-205.991 339.6801,-205.9909"/>
</g>
<!-- ListIdiomasComponent  -->
<g id="node6" class="node">
<title>ListIdiomasComponent </title>
<polygon fill="#fb8072" stroke="#000000" points="302.7121,-252 151.2879,-252 151.2879,-216 302.7121,-216 302.7121,-252"/>
<text text-anchor="middle" x="227" y="-229.8" font-family="Times,serif" font-size="14.00" fill="#000000">ListIdiomasComponent </text>
</g>
<!-- IdiomasModule&#45;&gt;ListIdiomasComponent  -->
<g id="edge5" class="edge">
<title>IdiomasModule&#45;&gt;ListIdiomasComponent </title>
<path fill="none" stroke="#000000" stroke-dasharray="5,2" d="M281.7653,-187.1061C281.7653,-187.1061 281.7653,-205.991 281.7653,-205.991"/>
<polygon fill="#000000" stroke="#000000" points="278.2653,-205.9909 281.7653,-215.991 285.2653,-205.991 278.2653,-205.9909"/>
</g>
<!-- CampusMidService -->
<g id="node7" class="node">
<title>CampusMidService</title>
<ellipse fill="#fdb462" stroke="#000000" cx="112" cy="-104" rx="87.98" ry="18"/>
<text text-anchor="middle" x="112" y="-99.8" font-family="Times,serif" font-size="14.00" fill="#000000">CampusMidService</text>
</g>
<!-- CampusMidService&#45;&gt;IdiomasModule -->
<g id="edge6" class="edge">
<title>CampusMidService&#45;&gt;IdiomasModule</title>
<path fill="none" stroke="#000000" d="M175.4419,-116.5327C175.4419,-135.4209 175.4419,-169 175.4419,-169 175.4419,-169 250.6028,-169 250.6028,-169"/>
<polygon fill="#000000" stroke="#000000" points="250.6028,-172.5001 260.6028,-169 250.6027,-165.5001 250.6028,-172.5001"/>
</g>
</g>
</svg>
