<?xml version="1.0" encoding="UTF-8" standalone="no"?>
<!DOCTYPE svg PUBLIC "-//W3C//DTD SVG 1.1//EN"
 "http://www.w3.org/Graphics/SVG/1.1/DTD/svg11.dtd">
<!-- Generated by graphviz version 2.40.1 (20161225.0304)
 -->
<!-- Title: dependencies Pages: 1 -->
<svg width="853pt" height="284pt"
 viewBox="0.00 0.00 853.00 284.00" xmlns="http://www.w3.org/2000/svg" xmlns:xlink="http://www.w3.org/1999/xlink">
<g id="graph0" class="graph" transform="scale(1 1) rotate(0) translate(4 280)">
<title>dependencies</title>
<polygon fill="#ffffff" stroke="transparent" points="-4,4 -4,-280 849,-280 849,4 -4,4"/>
<text text-anchor="start" x="401.5091" y="-42.4" font-family="sans-serif" font-weight="bold" font-size="14.00" fill="#000000">Legend</text>
<polygon fill="#ffffb3" stroke="transparent" points="188.5,-10 188.5,-30 208.5,-30 208.5,-10 188.5,-10"/>
<text text-anchor="start" x="212.129" y="-15.4" font-family="sans-serif" font-size="14.00" fill="#000000"> &#160;Declarations</text>
<polygon fill="#8dd3c7" stroke="transparent" points="301.5,-10 301.5,-30 321.5,-30 321.5,-10 301.5,-10"/>
<text text-anchor="start" x="325.2251" y="-15.4" font-family="sans-serif" font-size="14.00" fill="#000000"> &#160;Module</text>
<polygon fill="#80b1d3" stroke="transparent" points="387.5,-10 387.5,-30 407.5,-30 407.5,-10 387.5,-10"/>
<text text-anchor="start" x="411.2812" y="-15.4" font-family="sans-serif" font-size="14.00" fill="#000000"> &#160;Bootstrap</text>
<polygon fill="#fdb462" stroke="transparent" points="484.5,-10 484.5,-30 504.5,-30 504.5,-10 484.5,-10"/>
<text text-anchor="start" x="508.1732" y="-15.4" font-family="sans-serif" font-size="14.00" fill="#000000"> &#160;Providers</text>
<polygon fill="#fb8072" stroke="transparent" points="580.5,-10 580.5,-30 600.5,-30 600.5,-10 580.5,-10"/>
<text text-anchor="start" x="604.2258" y="-15.4" font-family="sans-serif" font-size="14.00" fill="#000000"> &#160;Exports</text>
<g id="clust1" class="cluster">
<title>cluster_InfoCaracteristicaModule</title>
<polygon fill="none" stroke="#000000" stroke-dasharray="1,5" points="8,-70 8,-268 837,-268 837,-70 8,-70"/>
</g>
<g id="clust3" class="cluster">
<title>cluster_InfoCaracteristicaModule_imports</title>
<polygon fill="none" stroke="#000000" points="375,-78 375,-130 829,-130 829,-78 375,-78"/>
</g>
<g id="clust4" class="cluster">
<title>cluster_InfoCaracteristicaModule_exports</title>
<polygon fill="none" stroke="#000000" points="200,-208 200,-260 663,-260 663,-208 200,-208"/>
</g>
<g id="clust6" class="cluster">
<title>cluster_InfoCaracteristicaModule_providers</title>
<polygon fill="none" stroke="#000000" points="16,-78 16,-130 367,-130 367,-78 16,-78"/>
</g>
<!-- ThemeModule -->
<g id="node1" class="node">
<title>ThemeModule</title>
<polygon fill="#8dd3c7" stroke="#000000" points="821.4231,-122 818.4231,-126 797.4231,-126 794.4231,-122 722.5769,-122 722.5769,-86 821.4231,-86 821.4231,-122"/>
<text text-anchor="middle" x="772" y="-99.8" font-family="Times,serif" font-size="14.00" fill="#000000">ThemeModule</text>
</g>
<!-- InfoCaracteristicaModule -->
<g id="node4" class="node">
<title>InfoCaracteristicaModule</title>
<polygon fill="#8dd3c7" stroke="#000000" points="511.8235,-187 508.8235,-191 487.8235,-191 484.8235,-187 352.1765,-187 352.1765,-151 511.8235,-151 511.8235,-187"/>
<text text-anchor="middle" x="432" y="-164.8" font-family="Times,serif" font-size="14.00" fill="#000000">InfoCaracteristicaModule</text>
</g>
<!-- ThemeModule&#45;&gt;InfoCaracteristicaModule -->
<g id="edge1" class="edge">
<title>ThemeModule&#45;&gt;InfoCaracteristicaModule</title>
<path fill="none" stroke="#000000" d="M772,-122.1061C772,-141.3391 772,-169 772,-169 772,-169 522.1447,-169 522.1447,-169"/>
<polygon fill="#000000" stroke="#000000" points="522.1447,-165.5001 512.1447,-169 522.1447,-172.5001 522.1447,-165.5001"/>
</g>
<!-- InfoCaracteristicaRoutingModule -->
<g id="node2" class="node">
<title>InfoCaracteristicaRoutingModule</title>
<polygon fill="#8dd3c7" stroke="#000000" points="704.4412,-122 701.4412,-126 680.4412,-126 677.4412,-122 499.5588,-122 499.5588,-86 704.4412,-86 704.4412,-122"/>
<text text-anchor="middle" x="602" y="-99.8" font-family="Times,serif" font-size="14.00" fill="#000000">InfoCaracteristicaRoutingModule</text>
</g>
<!-- InfoCaracteristicaRoutingModule&#45;&gt;InfoCaracteristicaModule -->
<g id="edge2" class="edge">
<title>InfoCaracteristicaRoutingModule&#45;&gt;InfoCaracteristicaModule</title>
<path fill="none" stroke="#000000" d="M505.7206,-122.1061C505.7206,-122.1061 505.7206,-140.991 505.7206,-140.991"/>
<polygon fill="#000000" stroke="#000000" points="502.2206,-140.9909 505.7206,-150.991 509.2206,-140.991 502.2206,-140.9909"/>
</g>
<!-- SharedModule -->
<g id="node3" class="node">
<title>SharedModule</title>
<polygon fill="#8dd3c7" stroke="#000000" points="481.4231,-122 478.4231,-126 457.4231,-126 454.4231,-122 382.5769,-122 382.5769,-86 481.4231,-86 481.4231,-122"/>
<text text-anchor="middle" x="432" y="-99.8" font-family="Times,serif" font-size="14.00" fill="#000000">SharedModule</text>
</g>
<!-- SharedModule&#45;&gt;InfoCaracteristicaModule -->
<g id="edge3" class="edge">
<title>SharedModule&#45;&gt;InfoCaracteristicaModule</title>
<path fill="none" stroke="#000000" d="M432,-122.1061C432,-122.1061 432,-140.991 432,-140.991"/>
<polygon fill="#000000" stroke="#000000" points="428.5001,-140.9909 432,-150.991 435.5001,-140.991 428.5001,-140.9909"/>
</g>
<!-- CrudInfoCaracteristicaComponent  -->
<g id="node5" class="node">
<title>CrudInfoCaracteristicaComponent </title>
<polygon fill="#fb8072" stroke="#000000" points="654.6032,-252 441.3968,-252 441.3968,-216 654.6032,-216 654.6032,-252"/>
<text text-anchor="middle" x="548" y="-229.8" font-family="Times,serif" font-size="14.00" fill="#000000">CrudInfoCaracteristicaComponent </text>
</g>
<!-- InfoCaracteristicaModule&#45;&gt;CrudInfoCaracteristicaComponent  -->
<g id="edge4" class="edge">
<title>InfoCaracteristicaModule&#45;&gt;CrudInfoCaracteristicaComponent </title>
<path fill="none" stroke="#000000" stroke-dasharray="5,2" d="M476.6801,-187.1061C476.6801,-187.1061 476.6801,-205.991 476.6801,-205.991"/>
<polygon fill="#000000" stroke="#000000" points="473.1801,-205.9909 476.6801,-215.991 480.1801,-205.991 473.1801,-205.9909"/>
</g>
<!-- ViewInfoCaracteristicaComponent  -->
<g id="node6" class="node">
<title>ViewInfoCaracteristicaComponent </title>
<polygon fill="#fb8072" stroke="#000000" points="423.9248,-252 208.0752,-252 208.0752,-216 423.9248,-216 423.9248,-252"/>
<text text-anchor="middle" x="316" y="-229.8" font-family="Times,serif" font-size="14.00" fill="#000000">ViewInfoCaracteristicaComponent </text>
</g>
<!-- InfoCaracteristicaModule&#45;&gt;ViewInfoCaracteristicaComponent  -->
<g id="edge5" class="edge">
<title>InfoCaracteristicaModule&#45;&gt;ViewInfoCaracteristicaComponent </title>
<path fill="none" stroke="#000000" stroke-dasharray="5,2" d="M387.9003,-187.1061C387.9003,-187.1061 387.9003,-205.991 387.9003,-205.991"/>
<polygon fill="#000000" stroke="#000000" points="384.4003,-205.9909 387.9003,-215.991 391.4003,-205.991 384.4003,-205.9909"/>
</g>
<!-- PersonaService -->
<g id="node7" class="node">
<title>PersonaService</title>
<ellipse fill="#fdb462" stroke="#000000" cx="288" cy="-104" rx="70.622" ry="18"/>
<text text-anchor="middle" x="288" y="-99.8" font-family="Times,serif" font-size="14.00" fill="#000000">PersonaService</text>
</g>
<!-- PersonaService&#45;&gt;InfoCaracteristicaModule -->
<g id="edge6" class="edge">
<title>PersonaService&#45;&gt;InfoCaracteristicaModule</title>
<path fill="none" stroke="#000000" d="M358.8296,-104C365.9808,-104 370.6749,-104 370.6749,-104 370.6749,-104 370.6749,-140.8939 370.6749,-140.8939"/>
<polygon fill="#000000" stroke="#000000" points="367.175,-140.8938 370.6749,-150.8939 374.175,-140.8939 367.175,-140.8938"/>
</g>
<!-- UbicacionesService -->
<g id="node8" class="node">
<title>UbicacionesService</title>
<ellipse fill="#fdb462" stroke="#000000" cx="112" cy="-104" rx="87.9374" ry="18"/>
<text text-anchor="middle" x="112" y="-99.8" font-family="Times,serif" font-size="14.00" fill="#000000">UbicacionesService</text>
</g>
<!-- UbicacionesService&#45;&gt;InfoCaracteristicaModule -->
<g id="edge7" class="edge">
<title>UbicacionesService&#45;&gt;InfoCaracteristicaModule</title>
<path fill="none" stroke="#000000" d="M112,-122.1061C112,-141.3391 112,-169 112,-169 112,-169 342.0759,-169 342.0759,-169"/>
<polygon fill="#000000" stroke="#000000" points="342.076,-172.5001 352.0759,-169 342.0759,-165.5001 342.076,-172.5001"/>
</g>
</g>
</svg>
