<?xml version="1.0" encoding="UTF-8" standalone="no"?>
<!DOCTYPE svg PUBLIC "-//W3C//DTD SVG 1.1//EN"
 "http://www.w3.org/Graphics/SVG/1.1/DTD/svg11.dtd">
<!-- Generated by graphviz version 2.40.1 (20161225.0304)
 -->
<!-- Title: dependencies Pages: 1 -->
<svg width="600pt" height="284pt"
 viewBox="0.00 0.00 600.00 284.00" xmlns="http://www.w3.org/2000/svg" xmlns:xlink="http://www.w3.org/1999/xlink">
<g id="graph0" class="graph" transform="scale(1 1) rotate(0) translate(4 280)">
<title>dependencies</title>
<polygon fill="#ffffff" stroke="transparent" points="-4,4 -4,-280 596,-280 596,4 -4,4"/>
<text text-anchor="start" x="275.0091" y="-42.4" font-family="sans-serif" font-weight="bold" font-size="14.00" fill="#000000">Legend</text>
<polygon fill="#ffffb3" stroke="transparent" points="62,-10 62,-30 82,-30 82,-10 62,-10"/>
<text text-anchor="start" x="85.629" y="-15.4" font-family="sans-serif" font-size="14.00" fill="#000000"> &#160;Declarations</text>
<polygon fill="#8dd3c7" stroke="transparent" points="175,-10 175,-30 195,-30 195,-10 175,-10"/>
<text text-anchor="start" x="198.7251" y="-15.4" font-family="sans-serif" font-size="14.00" fill="#000000"> &#160;Module</text>
<polygon fill="#80b1d3" stroke="transparent" points="261,-10 261,-30 281,-30 281,-10 261,-10"/>
<text text-anchor="start" x="284.7812" y="-15.4" font-family="sans-serif" font-size="14.00" fill="#000000"> &#160;Bootstrap</text>
<polygon fill="#fdb462" stroke="transparent" points="358,-10 358,-30 378,-30 378,-10 358,-10"/>
<text text-anchor="start" x="381.6732" y="-15.4" font-family="sans-serif" font-size="14.00" fill="#000000"> &#160;Providers</text>
<polygon fill="#fb8072" stroke="transparent" points="454,-10 454,-30 474,-30 474,-10 454,-10"/>
<text text-anchor="start" x="477.7258" y="-15.4" font-family="sans-serif" font-size="14.00" fill="#000000"> &#160;Exports</text>
<g id="clust1" class="cluster">
<title>cluster_GeneroModule</title>
<polygon fill="none" stroke="#000000" stroke-dasharray="1,5" points="8,-70 8,-268 584,-268 584,-70 8,-70"/>
</g>
<g id="clust3" class="cluster">
<title>cluster_GeneroModule_imports</title>
<polygon fill="none" stroke="#000000" points="182,-78 182,-130 576,-130 576,-78 182,-78"/>
</g>
<g id="clust4" class="cluster">
<title>cluster_GeneroModule_exports</title>
<polygon fill="none" stroke="#000000" points="224,-208 224,-260 394,-260 394,-208 224,-208"/>
</g>
<g id="clust6" class="cluster">
<title>cluster_GeneroModule_providers</title>
<polygon fill="none" stroke="#000000" points="16,-78 16,-130 174,-130 174,-78 16,-78"/>
</g>
<!-- ThemeModule -->
<g id="node1" class="node">
<title>ThemeModule</title>
<polygon fill="#8dd3c7" stroke="#000000" points="568.4231,-122 565.4231,-126 544.4231,-126 541.4231,-122 469.5769,-122 469.5769,-86 568.4231,-86 568.4231,-122"/>
<text text-anchor="middle" x="519" y="-99.8" font-family="Times,serif" font-size="14.00" fill="#000000">ThemeModule</text>
</g>
<!-- GeneroModule -->
<g id="node4" class="node">
<title>GeneroModule</title>
<polygon fill="#8dd3c7" stroke="#000000" points="359.2465,-187 356.2465,-191 335.2465,-191 332.2465,-187 258.7535,-187 258.7535,-151 359.2465,-151 359.2465,-187"/>
<text text-anchor="middle" x="309" y="-164.8" font-family="Times,serif" font-size="14.00" fill="#000000">GeneroModule</text>
</g>
<!-- ThemeModule&#45;&gt;GeneroModule -->
<g id="edge1" class="edge">
<title>ThemeModule&#45;&gt;GeneroModule</title>
<path fill="none" stroke="#000000" d="M519,-122.1061C519,-141.3391 519,-169 519,-169 519,-169 369.3002,-169 369.3002,-169"/>
<polygon fill="#000000" stroke="#000000" points="369.3003,-165.5001 359.3002,-169 369.3002,-172.5001 369.3003,-165.5001"/>
</g>
<!-- GeneroRoutingModule -->
<g id="node2" class="node">
<title>GeneroRoutingModule</title>
<polygon fill="#8dd3c7" stroke="#000000" points="451.8641,-122 448.8641,-126 427.8641,-126 424.8641,-122 306.1359,-122 306.1359,-86 451.8641,-86 451.8641,-122"/>
<text text-anchor="middle" x="379" y="-99.8" font-family="Times,serif" font-size="14.00" fill="#000000">GeneroRoutingModule</text>
</g>
<!-- GeneroRoutingModule&#45;&gt;GeneroModule -->
<g id="edge2" class="edge">
<title>GeneroRoutingModule&#45;&gt;GeneroModule</title>
<path fill="none" stroke="#000000" d="M332.7206,-122.1061C332.7206,-122.1061 332.7206,-140.991 332.7206,-140.991"/>
<polygon fill="#000000" stroke="#000000" points="329.2206,-140.9909 332.7206,-150.991 336.2206,-140.991 329.2206,-140.9909"/>
</g>
<!-- SharedModule -->
<g id="node3" class="node">
<title>SharedModule</title>
<polygon fill="#8dd3c7" stroke="#000000" points="288.4231,-122 285.4231,-126 264.4231,-126 261.4231,-122 189.5769,-122 189.5769,-86 288.4231,-86 288.4231,-122"/>
<text text-anchor="middle" x="239" y="-99.8" font-family="Times,serif" font-size="14.00" fill="#000000">SharedModule</text>
</g>
<!-- SharedModule&#45;&gt;GeneroModule -->
<g id="edge3" class="edge">
<title>SharedModule&#45;&gt;GeneroModule</title>
<path fill="none" stroke="#000000" d="M273.419,-122.1061C273.419,-122.1061 273.419,-140.991 273.419,-140.991"/>
<polygon fill="#000000" stroke="#000000" points="269.9191,-140.9909 273.419,-150.991 276.9191,-140.991 269.9191,-140.9909"/>
</g>
<!-- CrudGeneroComponent  -->
<g id="node5" class="node">
<title>CrudGeneroComponent </title>
<polygon fill="#fb8072" stroke="#000000" points="386.026,-252 231.974,-252 231.974,-216 386.026,-216 386.026,-252"/>
<text text-anchor="middle" x="309" y="-229.8" font-family="Times,serif" font-size="14.00" fill="#000000">CrudGeneroComponent </text>
</g>
<!-- GeneroModule&#45;&gt;CrudGeneroComponent  -->
<g id="edge4" class="edge">
<title>GeneroModule&#45;&gt;CrudGeneroComponent </title>
<path fill="none" stroke="#000000" stroke-dasharray="5,2" d="M309,-187.1061C309,-187.1061 309,-205.991 309,-205.991"/>
<polygon fill="#000000" stroke="#000000" points="305.5001,-205.9909 309,-215.991 312.5001,-205.991 305.5001,-205.9909"/>
</g>
<!-- PersonaService -->
<g id="node6" class="node">
<title>PersonaService</title>
<ellipse fill="#fdb462" stroke="#000000" cx="95" cy="-104" rx="70.622" ry="18"/>
<text text-anchor="middle" x="95" y="-99.8" font-family="Times,serif" font-size="14.00" fill="#000000">PersonaService</text>
</g>
<!-- PersonaService&#45;&gt;GeneroModule -->
<g id="edge5" class="edge">
<title>PersonaService&#45;&gt;GeneroModule</title>
<path fill="none" stroke="#000000" d="M95,-122.1061C95,-141.3391 95,-169 95,-169 95,-169 248.556,-169 248.556,-169"/>
<polygon fill="#000000" stroke="#000000" points="248.556,-172.5001 258.556,-169 248.5559,-165.5001 248.556,-172.5001"/>
</g>
</g>
</svg>
