<?xml version="1.0" standalone="no"?>
<!DOCTYPE svg PUBLIC "-//W3C//DTD SVG 1.1//EN" "http://www.w3.org/Graphics/SVG/1.1/DTD/svg11.dtd">
<svg xmlns="http://www.w3.org/2000/svg">
<defs >
<font id="Exo" horiz-adv-x="537" ><font-face
    font-family="Exo"
    units-per-em="1000"
    panose-1="2 0 6 3 0 0 0 0 0 0"
    ascent="1002"
    descent="-327"
    alphabetic="0" />
<glyph unicode=" " glyph-name="space" horiz-adv-x="250" />
<glyph unicode="!" glyph-name="exclam" horiz-adv-x="266" d="M119 114H183Q206 114 202 89L192 23Q189 0 166 0H102Q91 0 85 6T81 23L91 89Q95 114 119 114ZM118 199L193 731H297L203 199H118Z" />
<glyph unicode="&quot;" glyph-name="quotedbl" horiz-adv-x="398" d="M175 531L184 665L195 732H287L276 665L245 531H175ZM322 531L332 665L343 732H434L423 665L392 531H322Z" />
<glyph unicode="#" glyph-name="numbersign" horiz-adv-x="696" d="M54 226L74 290H231L279 443H122L143 507H301L373 732H437L365 507H519L590 732H654L583 507H759L737 443H562L513 289H689L669 225H492L419 0H355L428 225L273 226L200 0H136L209 226H54ZM295
290L449 289L498 443H343L295 290Z" />
<glyph unicode="$" glyph-name="dollar" horiz-adv-x="572" d="M596 641L363 650Q357 650 353 650Q304 650 272 630T231 554L222 496Q220 482 220 462T234 424T304 406H425Q562 406 562 275Q562 251 558 224L548 161Q531 57 457 20Q399 -8 326 -8Q316 -8 306 -8L293
-90H228L241 -4Q141 6 77 18L89 86Q94 86 182 83T306 79T362 83T401 95T437 121T456 164L465 224Q475 285 460 298Q442 314 401 314H281Q197 314 161 356Q126 398 126 445Q126 465 129 496L139 561Q158 678 241 715Q288 737 359 738L372 824H438L424 735Q492 730
607 713L596 641Z" />
<glyph unicode="%" glyph-name="percent" horiz-adv-x="962" d="M284 732H385Q451 732 477 701Q496 680 496 639Q496 623 493 604L473 474Q461 403 430 376T323 349H222Q162 349 136 378T110 449Q110 463 113 478L133 608Q144 675 175 703T284 732ZM187 480Q185
469 185 460T188 442Q194 423 237 423H331Q368 423 381 434T399 480L419 601Q422 615 422 623T420 641Q416 658 370 658H276Q238 658 225 647T207 601L187 480ZM220 0L776 732H855L300 0H220ZM755 383H856Q922 383 948 353Q967 331 967 290Q967 274 964 255L944
125Q933 55 902 28T793 0H692Q632 0 607 29T582 99Q582 113 584 128L604 258Q614 323 643 352Q675 383 755 383ZM659 131Q656 120 656 112T659 93Q665 74 707 74H801Q839 74 852 85T871 131L890 252Q892 267 892 279T885 300T840 309H747Q709 309 696 298T678 252L659
131Z" />
<glyph unicode="&amp;" glyph-name="ampersand" horiz-adv-x="638" d="M385 648Q282 648 282 594Q282 569 303 532L475 233L609 352L638 322L567 203L519 157L612 0H515L453 106L378 41Q325 -6 251 -6Q215 -6 178 8Q124 29 92 80T60 182Q60 285 167 366L261 438L214
518Q191 560 191 596Q191 609 194 620Q205 665 240 694T324 727T406 732T476 730T587 710L577 648H385ZM257 80Q297 80 332 110L410 179L301 361L221 300Q147 245 147 186Q147 157 167 128Q200 80 257 80Z" />
<glyph unicode="&apos;" glyph-name="quotesingle" horiz-adv-x="196" d="M146 531L156 665L167 732H260L249 665L218 531H146Z" />
<glyph unicode="(" glyph-name="parenleft" horiz-adv-x="346" d="M199 158Q199 13 249 -122Q267 -169 281 -194L295 -219H200Q158 -149 130 -26Q109 67 109 164Q109 330 167 496Q212 624 294 754Q325 803 345 827L364 851H465Q438 819 398 757T326 635T263 489T215
317T199 158Z" />
<glyph unicode=")" glyph-name="parenright" horiz-adv-x="348" d="M251 472Q251 617 201 753Q184 800 170 825L156 851H250Q292 780 320 656Q341 563 341 466Q341 261 258 66Q211 -41 178 -93Q121 -180 99 -207L89 -219H-14Q13 -187 53 -125T124 -4T188 142T236
314T251 472Z" />
<glyph unicode="*" glyph-name="asterisk" horiz-adv-x="436" d="M136 566L142 610L286 638L279 561L136 566ZM177 415L222 550L295 532L216 401L177 415ZM278 473L331 538L426 447L397 412L278 473ZM286 718L332 735L386 615L310 584L286 718ZM338 571L470 648L486
609L378 512L338 571Z" />
<glyph unicode="+" glyph-name="plus" horiz-adv-x="507" d="M95 313L108 399H272L298 564H384L358 399H524L511 313H345L318 148H232L259 313H95Z" />
<glyph unicode="," glyph-name="comma" horiz-adv-x="265" d="M104 0Q93 0 87 6T83 25L93 88Q97 115 123 115H183Q202 115 202 95Q202 92 202 88L186 -11Q182 -39 168 -57Q143 -90 91 -90Q86 -90 81 -90L70 -88L76 -52Q90 -52 98 -46T108 -35T112 -22L115 0H104Z" />
<glyph unicode="-" glyph-name="hyphen" horiz-adv-x="354" d="M60 247L74 333H388L374 247H60Z" />
<glyph unicode="." glyph-name="period" horiz-adv-x="268" d="M121 114H183Q205 114 205 96Q205 93 204 89L193 23Q190 0 165 0H103Q93 0 87 6T82 23L93 89Q96 114 121 114Z" />
<glyph unicode="/" glyph-name="slash" horiz-adv-x="415" d="M7 -72L421 770H518L104 -72H7Z" />
<glyph unicode="0" glyph-name="zero" horiz-adv-x="638" d="M353 732H517Q562 732 594 718T642 680Q667 641 667 597Q667 581 663 566L600 166Q586 79 539 40T406 0H242Q164 0 121 41Q88 72 88 129Q88 146 91 166L154 564Q181 732 353 732ZM184 173Q182 160 182
149T183 128T189 113T196 103T207 96T219 92T234 90Q245 89 262 89H408Q495 89 509 172L571 560Q573 573 573 591T560 626T498 643H350Q258 643 246 560L184 173Z" />
<glyph unicode="1" glyph-name="one" horiz-adv-x="363" d="M130 584L139 648Q177 648 220 668Q285 699 314 732H404L290 0H198L297 624Q276 608 231 596T130 584Z" />
<glyph unicode="2" glyph-name="two" horiz-adv-x="592" d="M542 558Q542 652 431 652H140L151 720Q309 742 458 742Q508 742 545 724Q611 691 628 605Q633 581 633 561T631 514T608 446T561 370T496 295T424 228T350 168Q294 126 238 89H558L544 0H44L58 83Q376
277 492 431Q542 498 542 558Z" />
<glyph unicode="3" glyph-name="three" horiz-adv-x="591" d="M340 -7H281Q268 -7 263 -7T230 -7T193 -6T161 -4T126 0T96 5Q67 10 37 21L47 83H333Q378 83 412 104T454 169L463 221Q468 257 464 270T457 291T446 303T432 311T415 315Q399 318 377 319L147 326L159
399L391 409Q494 413 509 500L518 560Q520 572 520 582Q520 645 429 645H130L139 706Q225 735 359 735Q408 735 473 734T580 684Q613 647 613 593Q613 579 611 563L600 498Q591 440 567 406T510 364Q560 339 560 263Q560 241 556 216L547 161Q520 -7 340 -7Z" />
<glyph unicode="4" glyph-name="four" horiz-adv-x="607" d="M54 224L438 732H548L202 272H451L483 469L533 544H589L546 272H631L620 200L531 180L504 2H409L437 180H80L54 224Z" />
<glyph unicode="5" glyph-name="five" horiz-adv-x="601" d="M238 422Q271 453 371 453Q388 453 416 452T453 450Q523 449 562 400Q591 361 591 307Q591 291 589 274L572 164Q556 65 500 28Q450 -4 376 -5Q361 -5 315 -5Q210 -5 74 19L85 89H383Q416 89 432 100T455
119T468 138Q478 157 481 176L496 271Q499 285 499 298Q499 363 428 363H293Q261 363 236 346T205 293H118L210 732H639L625 643H284L238 422Z" />
<glyph unicode="6" glyph-name="six" horiz-adv-x="617" d="M217 412Q365 433 470 433Q534 433 566 407Q599 379 604 344Q609 318 609 303T606 274L586 148Q573 67 525 34T396 0H251Q219 0 194 9T148 46Q105 98 105 222Q105 293 120 387T161 552T219 661Q280 736
348 737Q371 738 394 738Q530 738 652 718L640 649H362Q331 649 305 625T262 560Q230 488 217 412ZM195 222Q195 86 273 86H403Q486 86 498 164L515 273Q517 286 517 303T504 332T445 345H206Q195 274 195 222Z" />
<glyph unicode="7" glyph-name="seven" horiz-adv-x="548" d="M130 643L144 732H606L628 680L261 0H155L506 643H130Z" />
<glyph unicode="8" glyph-name="eight" horiz-adv-x="629" d="M218 362Q147 388 147 473Q147 488 148 502L159 567Q174 663 224 700T365 737H513Q590 737 627 691Q654 657 654 602Q654 583 651 561L640 499Q636 461 608 424Q583 392 543 384Q581 373 594 331Q603
304 603 284T601 250L586 156Q568 40 489 13Q452 0 395 0H248Q200 0 167 13T118 44T97 86T91 124T95 161L109 252Q117 302 147 329T218 362ZM187 160Q185 150 185 133T201 102T269 88H400Q435 88 461 105T494 160L509 255Q511 264 511 272Q511 297 494 314T442
331H299Q248 331 221 300Q206 282 202 255L187 160ZM238 476Q238 448 258 432T312 416H454Q534 416 547 494L557 556Q560 576 560 597T550 630Q535 650 490 650H358Q303 650 280 629T249 556L239 494Q238 484 238 476Z" />
<glyph unicode="9" glyph-name="nine" horiz-adv-x="616" d="M517 326Q369 305 264 305Q188 305 157 342Q126 378 126 419Q126 432 129 464L148 588Q160 669 209 703T337 737H483Q629 737 629 514Q629 442 614 347T573 182T515 74Q454 2 386 0Q358 -1 331 -1Q185
-1 82 19L93 88H372Q402 88 428 112T472 177Q504 249 517 326ZM219 464Q217 451 217 440T222 416Q230 392 288 392H528Q539 463 539 515Q539 651 461 651H331Q248 651 236 573L219 464Z" />
<glyph unicode=":" glyph-name="colon" horiz-adv-x="269" d="M121 114H183Q205 114 205 96Q205 93 204 89L193 23Q190 0 165 0H103Q93 0 87 6T82 23L93 89Q96 114 121 114ZM163 532T187 532H249Q271 532 271 514Q271 511 270 507L260 441Q256 418 231 418H169Q159
418 153 424T149 441L159 507Q163 532 187 532Z" />
<glyph unicode=";" glyph-name="semicolon" horiz-adv-x="269" d="M104 0Q94 0 88 7T83 25L93 88Q95 99 103 107T123 115H183Q202 115 202 95Q202 92 202 88L186 -11Q182 -39 168 -57Q143 -90 91 -90Q86 -90 81 -90L70 -88L76 -52Q90 -52 98 -46T108 -35T112 -22L115
0H104ZM189 533H251Q273 533 273 515Q273 512 272 508L262 442Q258 419 234 419H172Q161 419 155 425T151 442L161 508Q164 533 189 533Z" />
<glyph unicode="&lt;" glyph-name="less" horiz-adv-x="467" d="M95 307L110 400L509 558L495 464L203 350L458 228L443 138L95 307Z" />
<glyph unicode="=" glyph-name="equal" horiz-adv-x="467" d="M52 204L66 290H493L479 204H52ZM84 415L99 501H526L511 415H84Z" />
<glyph unicode="&gt;" glyph-name="greater" horiz-adv-x="468" d="M68 138L84 234L381 355L120 472L135 558L485 400L470 307L68 138Z" />
<glyph unicode="?" glyph-name="question" horiz-adv-x="540" d="M312 293L297 195H211L238 366Q282 365 316 365T382 366T446 390T486 458L500 546Q502 562 502 574Q502 611 480 631T386 652H121L132 717Q139 718 164 722T197 727T226 730T256 734T284 737T316
739T343 739T373 740T418 739Q515 739 560 684Q595 641 595 584Q595 567 592 549L577 453Q560 344 487 310Q440 287 376 287Q345 287 312 293ZM211 114H273Q295 114 295 96Q295 93 294 89L283 23Q279 0 255 0H193Q183 0 177 6T172 23L183 89Q186 114 211 114Z"
/>
<glyph unicode="@" glyph-name="at" horiz-adv-x="875" d="M562 61Q504 -4 409 -4Q366 -4 335 9T281 54Q253 94 253 175Q253 219 261 280T288 390T329 467T378 514Q424 544 479 544Q641 544 706 481L649 88Q690 88 711 104T742 178L792 515Q798 556 795 571T788
594T778 606T767 614T752 618Q738 620 720 620H344Q241 620 225 515L145 14Q143 -4 143 -17T144 -41Q147 -65 168 -81T231 -98H617L607 -155Q472 -182 315 -182H218Q131 -182 89 -125Q57 -83 57 -23Q57 -4 60 16L140 521Q170 705 359 705H731Q818 705 854 654Q880
618 880 559Q880 537 877 512L825 165Q813 82 771 43Q754 27 723 15T649 3H585L562 61ZM342 257Q336 213 336 177T345 119Q361 80 421 80Q475 80 508 99T570 142L618 446Q562 461 479 461Q368 461 342 257Z" />
<glyph unicode="A" glyph-name="A" horiz-adv-x="667" d="M42 0L421 732H518L654 0H560L524 193H243L143 0H42ZM287 280H510L453 607L287 280Z" />
<glyph unicode="B" glyph-name="B" horiz-adv-x="597" d="M478 732Q563 732 603 689Q644 643 644 576Q644 556 643 535Q634 468 602 430T522 380Q552 375 577 330Q598 294 598 237Q598 219 595 200Q583 102 528 51T362 0H75L191 732H478ZM503 210Q506 227 506
252T491 303Q469 341 415 341H222L182 88L375 87Q483 87 503 210ZM553 570Q553 606 533 625T463 644H270L236 427H427Q532 427 550 537Q553 555 553 570Z" />
<glyph unicode="C" glyph-name="C" horiz-adv-x="576" d="M264 707T309 723T436 740T656 708L645 636Q531 651 432 651Q422 651 416 651T403 651T388 651T368 649T345 643T323 632T299 614T277 589T256 553T236 504Q217 453 205 379T192 256Q192 91 316 83Q334
82 383 82T561 91L551 18Q466 -6 311 -6Q191 -6 143 75Q101 145 101 256Q101 366 138 501Q172 624 232 679Q264 707 309 723Z" />
<glyph unicode="D" glyph-name="D" horiz-adv-x="664" d="M470 732Q578 732 626 665Q674 600 679 516Q681 490 681 470Q681 413 671 358Q642 184 567 92T357 0H75L191 731Q191 732 470 732ZM366 90Q423 90 469 129Q553 200 580 364Q590 427 590 483Q590 645 452
645H269L181 90H366Z" />
<glyph unicode="E" glyph-name="E" horiz-adv-x="565" d="M313 732Q318 732 468 725T636 716L625 642H318Q274 642 262 607Q259 598 257 586L229 410L545 400L533 326L215 316L186 139Q181 101 201 93Q216 87 241 87H538L525 14L217 -3Q212 -3 199 -3T164 3Q91
23 91 102Q91 116 93 130L167 598Q189 732 313 732Z" />
<glyph unicode="F" glyph-name="F" horiz-adv-x="566" d="M315 732Q320 732 470 725T638 716L626 642H320Q275 642 263 607Q260 598 259 586L231 410L546 399L535 325L216 315L166 0H74L168 594Q190 732 315 732Z" />
<glyph unicode="G" glyph-name="G" horiz-adv-x="610" d="M422 739Q514 739 656 709L646 636Q557 650 413 652Q350 652 318 629Q279 599 255 547Q224 476 212 390T199 269T200 219Q204 157 234 120T317 83Q318 83 319 83Q352 83 396 96T468 123L495 137L526 311H375L385
372Q468 396 564 396Q595 396 631 394L568 0H499L484 56Q447 22 374 3Q273 -23 205 16Q133 57 112 164Q103 209 103 235T103 289T115 383T141 502T179 603T235 678Q302 739 415 739Q419 739 422 739Z" />
<glyph unicode="H" glyph-name="H" horiz-adv-x="638" d="M79 0L195 732H287L233 398H556L610 732H702L586 0H494L544 310H221L171 0H79Z" />
<glyph unicode="I" glyph-name="I" horiz-adv-x="233" d="M83 0L199 732H291L175 0H83Z" />
<glyph unicode="J" glyph-name="J" horiz-adv-x="359" d="M50 91Q107 79 125 79T153 80T180 88T207 106Q232 134 239 182L326 732H418L328 165Q316 84 287 47Q244 -6 148 -6Q74 -6 36 22L50 91Z" />
<glyph unicode="K" glyph-name="K" horiz-adv-x="585" d="M75 0L191 732H281L230 410H309L572 732H685L388 360L569 0H460L302 322H217L166 0H75Z" />
<glyph unicode="L" glyph-name="L" horiz-adv-x="533" d="M243 89H534L520 0H214Q155 0 124 28T92 101Q92 115 94 130L191 732H283L188 141Q182 103 202 95Q217 89 243 89Z" />
<glyph unicode="M" glyph-name="M" horiz-adv-x="809" d="M65 0L234 732H356L442 153L706 732H833L776 0H685L732 569L471 0H372L288 568L157 0H65Z" />
<glyph unicode="N" glyph-name="N" horiz-adv-x="662" d="M75 0L191 732H281L541 170L630 732H722L606 0H517L256 560L168 0H75Z" />
<glyph unicode="O" glyph-name="O" horiz-adv-x="666" d="M361 733T387 735T451 737T520 734T580 720T631 692Q678 652 690 578Q696 544 696 518T696 459T684 358T659 236T627 144T586 80T538 37T482 11Q397 -13 280 -1Q208 6 169 36Q120 75 106 146Q100 181 100
207T100 264T111 361T134 479T163 567T196 633T236 679T280 709T331 727ZM218 437Q191 308 191 223Q191 129 244 103Q280 85 344 85T443 95T509 135Q565 189 592 361Q605 444 605 491T600 559T588 595T569 620T545 635T515 644Q487 648 454 648T408 648T375 645T345
639T318 628T293 610T271 584T251 547Q229 490 218 437Z" />
<glyph unicode="P" glyph-name="P" horiz-adv-x="595" d="M492 732Q536 732 564 718T607 686Q645 641 645 568Q645 542 640 506T626 437T605 382T579 342T549 316T518 301T485 293T453 291T416 290T305 298T212 308L162 0H70L186 732H492ZM548 516Q552 556 552
572T546 602T533 624T515 637Q497 644 475 644H264L222 378H432Q503 378 530 444Q541 472 548 516Z" />
<glyph unicode="Q" glyph-name="Q" horiz-adv-x="670" d="M452 737Q488 737 515 734T569 724T616 704T654 672Q685 636 696 556Q700 531 700 507Q700 439 689 364T662 235T630 144T589 79T542 36T485 11Q409 -10 298 -2Q241 2 214 14T168 40T138 74Q103 131 103
226Q103 339 138 480Q160 568 200 634Q228 680 283 710Q334 737 452 737ZM221 437Q194 308 194 223Q194 129 247 103Q284 85 347 85T446 95T512 135Q568 189 595 361Q608 444 608 491T603 559T591 595T572 620T549 635T518 644Q491 648 458 648T411 648T378 645T348
639T321 628T296 610T275 584T254 547Q232 490 221 437ZM364 -33Q400 -70 454 -70Q483 -70 527 -55L513 -144Q488 -153 470 -153T430 -152T377 -139T324 -99T305 -33H364Z" />
<glyph unicode="R" glyph-name="R" horiz-adv-x="608" d="M498 732Q573 732 613 679Q643 638 643 561Q643 453 605 383Q569 314 501 301Q493 300 483 298L588 0H486L391 290L210 303L162 0H70L186 732H498ZM533 448Q543 474 546 503T549 556T543 603T523 635T480
644H265L223 379H434Q506 379 533 448Z" />
<glyph unicode="S" glyph-name="S" horiz-adv-x="573" d="M607 640L362 649Q353 649 346 649Q297 649 269 632T231 554L222 496Q216 460 219 447T226 428T235 417T247 411T262 407Q277 406 289 406T304 406H434Q479 406 510 390T553 347Q572 308 572 277T568 228L559
160Q537 3 365 -7Q348 -8 307 -8T189 0T77 18L88 91Q164 81 335 81Q454 81 466 164L476 224Q480 241 480 258T474 288Q462 314 411 314H283Q125 314 125 448Q125 469 129 492L139 561Q156 673 221 709Q274 738 351 738Q405 738 490 730T618 713L607 640Z" />
<glyph unicode="T" glyph-name="T" horiz-adv-x="581" d="M134 643L149 732H666L651 643H436L334 0H242L344 643H134Z" />
<glyph unicode="U" glyph-name="U" horiz-adv-x="655" d="M215 305Q207 246 207 224T207 196Q209 116 273 94Q301 84 346 84Q440 84 488 133T555 305L622 732H715L649 300Q620 120 536 53Q464 -5 337 -5Q179 -5 136 96Q113 148 113 203T122 309L189 732H282L215 305Z" />
<glyph unicode="V" glyph-name="V" horiz-adv-x="674" d="M147 732H244L348 137L652 732H756L378 0H280L147 732Z" />
<glyph unicode="W" glyph-name="W" horiz-adv-x="1004" d="M147 732H241L347 140L647 732H749L629 494L686 135L987 732H1086L715 0H618L561 354L380 0H280L147 732Z" />
<glyph unicode="X" glyph-name="X" horiz-adv-x="612" d="M36 0L311 367L150 732H248L373 444L588 732H696L413 353L569 0H470L351 276L144 0H36Z" />
<glyph unicode="Y" glyph-name="Y" horiz-adv-x="637" d="M147 732H245L361 360L611 732H719L393 251L353 0H261L301 251L147 732Z" />
<glyph unicode="Z" glyph-name="Z" horiz-adv-x="562" d="M33 0L47 89L513 643H134L149 732H645L630 643L167 89H543L529 0H33Z" />
<glyph unicode="[" glyph-name="bracketleft" horiz-adv-x="324" d="M359 833H439L425 747H353Q322 747 304 730T278 667L166 -38Q162 -68 161 -86T167 -116Q178 -133 213 -133H286L272 -219H190Q153 -219 128 -206T91 -173Q69 -139 69 -85Q69 -63 74 -35L187
676Q199 750 231 789Q268 833 359 833Z" />
<glyph unicode="\" glyph-name="backslash" horiz-adv-x="406" d="M140 770H229L377 -72H288L140 770Z" />
<glyph unicode="]" glyph-name="bracketright" horiz-adv-x="324" d="M233 833Q354 833 354 697Q354 676 351 652L240 -62Q228 -133 197 -173Q161 -219 69 -219H-14L-1 -133H72Q103 -133 121 -116T147 -53L259 652Q263 681 263 700T258 729Q248 747 211 747H139L153
833H233Z" />
<glyph unicode="^" glyph-name="asciicircum" horiz-adv-x="389" d="M131 531L266 663H346L427 531H352L303 607L222 531H131Z" />
<glyph unicode="_" glyph-name="underscore" horiz-adv-x="673" d="M20 -1L34 85H668L654 -1H20Z" />
<glyph unicode="`" glyph-name="grave" horiz-adv-x="252" d="M124 666H220L318 531H243L124 666Z" />
<glyph unicode="a" glyph-name="a" horiz-adv-x="540" d="M235 526T258 532T304 540T359 543T461 528T566 479L496 0H428L414 59Q386 36 335 15T242 -7T173 0T123 27T88 80Q74 124 74 175T85 286T115 392T156 465T206 509ZM206 380T194 344T175 259T167 177T176
120Q193 79 245 79T334 90T421 128L469 443Q405 461 370 461T313 457T280 449T249 433T218 400Z" />
<glyph unicode="b" glyph-name="b" horiz-adv-x="554" d="M414 539Q560 539 560 360Q560 280 534 177Q512 88 470 44Q423 -6 345 -6Q294 -6 236 16T156 58L126 0H56L180 785H270L226 500Q271 518 324 528T414 539ZM468 371Q468 455 395 455Q307 455 216 431L167
123Q255 80 337 80Q387 80 415 125T456 250T468 371Z" />
<glyph unicode="c" glyph-name="c" horiz-adv-x="494" d="M226 530T248 534T307 538T411 530T531 509L522 446Q396 454 341 454T273 452T246 440T220 409Q195 362 177 262Q168 203 168 169T178 115Q197 78 242 78Q329 78 436 86L472 88L462 24Q361 -6 239 -6Q232
-6 226 -6Q143 -5 102 61Q77 103 77 160T87 279T116 392T153 471T199 514Z" />
<glyph unicode="d" glyph-name="d" horiz-adv-x="551" d="M229 528T253 533T309 539T393 529T485 500L531 785H621L496 0H426L414 58Q384 37 329 16T226 -6T145 18T97 83Q79 137 79 185T85 266T96 322T108 371T126 417T148 457T175 491T210 517ZM171 189Q171 80
243 80Q325 80 425 123L474 431Q391 455 301 455Q271 455 250 441Q202 408 178 264Q171 222 171 189Z" />
<glyph unicode="e" glyph-name="e" horiz-adv-x="525" d="M353 541Q508 541 538 466Q549 440 549 420Q549 344 518 302T447 241Q371 208 292 208Q252 208 217 212T170 222Q164 182 164 153T172 107Q188 76 241 75Q264 74 317 74T482 90L471 22Q367 -7 237 -7Q226
-7 214 -7Q119 -6 89 65Q73 103 73 158T84 271T103 360T125 422T157 474T203 510Q254 541 352 541H353ZM179 286Q207 283 226 283T254 283T286 285T331 290T373 301T411 319Q456 349 456 403Q456 433 438 442Q409 456 348 456Q264 456 231 420Q207 394 200 370Q190
341 186 320T181 296Q180 290 179 286Z" />
<glyph unicode="f" glyph-name="f" horiz-adv-x="403" d="M382 785Q404 785 430 780Q476 772 505 761L496 703H390V703Q365 703 350 698T325 674Q309 648 297 567L291 531H446L433 448H277L203 0H111L184 448H89L100 512L199 531L207 576Q223 680 250 722Q290
785 382 785Z" />
<glyph unicode="g" glyph-name="g" horiz-adv-x="554" d="M291 -187Q343 -187 371 -145Q386 -123 391 -92L410 31Q321 -7 252 -7T147 15T95 76Q78 121 78 175T88 281Q108 407 166 472T315 538T579 513L483 -96Q468 -189 417 -231T303 -273Q293 -273 282 -272L32
-248L42 -187H291ZM170 204T170 183T171 152T177 125T191 99Q213 76 256 76T332 80T421 100L478 455H316Q268 455 238 417Q209 380 199 349Q185 301 178 253Z" />
<glyph unicode="h" glyph-name="h" horiz-adv-x="545" d="M535 490Q560 452 560 402Q560 385 557 366L499 0H407L465 366Q467 378 467 397T451 436T391 456T311 444T212 402L148 0H56L180 784H272L222 470Q227 473 250 486T295 509Q358 540 429 540T535 490Z" />
<glyph unicode="i" glyph-name="i" horiz-adv-x="203" d="M55 0L139 531H231L147 0H55ZM180 703H245Q265 703 265 684Q265 681 264 678L255 614Q251 591 228 591H163Q152 591 147 597T143 614L152 678Q156 703 180 703Z" />
<glyph unicode="j" glyph-name="j" horiz-adv-x="224" d="M23 -270L150 531H242L157 -4Q133 -165 86 -270H23ZM256 703Q276 703 276 683Q276 680 275 678L265 614Q262 591 238 591H173Q163 591 157 597T153 614L163 678Q167 703 191 703H256Z" />
<glyph unicode="k" glyph-name="k" horiz-adv-x="501" d="M56 0L180 782H272L199 322Q267 343 346 409T439 531H540Q518 454 448 385T318 288L508 0H400L228 261L190 260L148 0H56Z" />
<glyph unicode="l" glyph-name="l" horiz-adv-x="294" d="M202 0Q80 0 80 131Q80 158 85 189L179 783H271L178 195Q165 117 183 99Q193 89 239 77T286 65L276 0H202Z" />
<glyph unicode="m" glyph-name="m" horiz-adv-x="891" d="M461 537T496 514T543 455Q659 537 768 537Q838 537 877 488Q906 451 906 398Q906 381 903 362L845 0H753L811 363Q812 373 812 391T795 431T743 453Q686 453 646 442T557 401Q557 400 554 381T551 360L494
0H402L459 363Q461 373 461 381Q461 410 444 431T391 453T326 446T277 431T211 400L148 0H56L140 531H209L222 469Q231 473 248 483T274 497T298 510T325 521T352 530Q379 537 420 537Z" />
<glyph unicode="n" glyph-name="n" horiz-adv-x="545" d="M423 540Q501 540 535 490Q560 452 560 402Q560 385 557 366L499 0H407L465 366Q467 378 467 397T451 436T391 456T311 444T212 402L148 0H56L140 531H209L222 470Q226 473 240 481T259 491T277 500T297
510T315 517T335 525T355 531T377 536Q404 540 423 540Z" />
<glyph unicode="o" glyph-name="o" horiz-adv-x="562" d="M364 536Q490 536 536 468Q566 422 566 344Q566 304 558 254Q534 105 478 50T290 -5T111 57Q79 99 79 179Q79 216 89 280T118 396T172 480T250 524T364 536ZM198 345Q170 258 170 170Q170 135 190 108Q211
79 294 80Q355 80 382 92T422 123T446 176T466 258Q475 311 475 343T470 397T448 431T409 447T353 452T298 449T256 434T222 402T198 345Z" />
<glyph unicode="p" glyph-name="p" horiz-adv-x="558" d="M404 534Q450 534 482 517T532 472Q562 422 562 337Q562 194 509 97Q451 -8 335 -8Q295 -8 243 1T153 29L104 -270H13L145 518Q257 534 404 534ZM343 74T366 84T408 113Q445 150 464 265Q471 307 471 339Q471
451 390 451H224L165 99Q232 74 287 74Z" />
<glyph unicode="q" glyph-name="q" horiz-adv-x="553" d="M318 538Q405 538 579 513L455 -270H363L410 29Q319 -10 251 -10T147 11T96 70Q79 115 79 168T88 272Q130 538 318 538ZM169 196T169 178T170 143T176 117T186 99T201 85Q223 74 254 74T309 76Q352 79
422 98L478 455H312Q285 455 263 441T228 408T203 361Q187 319 178 258Z" />
<glyph unicode="r" glyph-name="r" horiz-adv-x="424" d="M313 515T349 526T429 537T488 529L473 439Q448 444 397 444T307 432T209 386L148 0H56L140 531H210L221 464Q225 466 247 479T291 503Z" />
<glyph unicode="s" glyph-name="s" horiz-adv-x="508" d="M340 76Q389 76 397 125L405 171Q407 179 407 189T399 210T363 221H223Q149 221 115 253Q91 277 91 323Q91 339 94 358L102 408Q113 475 149 507T250 540T403 534T526 521L515 456H260Q210 456 197 420Q195
413 193 403L186 359Q180 321 195 313Q206 307 219 307T236 308H379Q445 308 476 270Q500 241 500 200Q500 187 498 174L489 111Q481 58 455 31Q429 5 405 -1Q370 -9 329 -9T187 -2T62 12L72 76H340Z" />
<glyph unicode="t" glyph-name="t" horiz-adv-x="377" d="M259 0Q138 0 138 131Q138 158 143 189L183 449H88L98 511L197 532L239 680H312L289 532H434L420 449H275L235 195Q224 117 241 99Q250 89 296 77T344 64L335 0H259Z" />
<glyph unicode="u" glyph-name="u" horiz-adv-x="544" d="M165 165Q163 150 163 130T178 93T238 76T319 87T419 130L482 531H574L490 0H421L407 60Q404 58 381 46T337 22Q274 -9 201 -9T95 40Q70 75 70 126Q70 145 73 166L131 531H223L165 165Z" />
<glyph unicode="v" glyph-name="v" horiz-adv-x="520" d="M554 531Q560 511 560 484T543 422L324 0H210L91 531H188L279 109L449 443Q470 487 476 531H554Z" />
<glyph unicode="w" glyph-name="w" horiz-adv-x="806" d="M546 529Q552 508 552 483T539 429L513 371L563 118L740 443Q761 487 767 531H842Q848 509 848 482T831 422L596 0H501L448 259L314 0H210L91 531H185L274 113L444 440Q466 484 472 529H546Z" />
<glyph unicode="x" glyph-name="x" d="M22 0L255 270L106 531H214L319 339L483 531H599L366 257L511 0H405L301 187L142 0H22Z" />
<glyph unicode="y" glyph-name="y" horiz-adv-x="552" d="M588 533Q593 514 593 486T575 420L367 1Q303 -130 239 -194T96 -274V-209Q152 -174 190 -123T265 0Q230 0 198 21Q158 47 148 117L91 531H187L242 128Q249 86 304 89Q306 89 306 89L483 444Q500 480 508
533H588Z" />
<glyph unicode="z" glyph-name="z" horiz-adv-x="460" d="M43 1L54 87L382 445H100L112 531H517L505 445L184 87H446L433 1H43Z" />
<glyph unicode="{" glyph-name="braceleft" horiz-adv-x="320" d="M191 -49Q191 -135 273 -135Q277 -135 281 -134L268 -219Q214 -219 177 -201T123 -153Q97 -107 97 -53Q97 -30 102 -8L141 233Q142 237 142 242Q142 265 121 280T72 295Q69 295 65 294L77 372Q81
372 90 372T105 372T120 373T134 376T147 381T158 389Q168 400 171 416L208 652Q237 833 434 833L421 747Q419 747 418 747Q368 747 338 722T297 635L263 414Q256 377 229 355T160 327Q212 318 229 279Q235 266 235 256T234 239L195 -2Q191 -28 191 -49Z" />
<glyph unicode="|" glyph-name="bar" horiz-adv-x="245" d="M68 -72L201 770H287L154 -72H68Z" />
<glyph unicode="}" glyph-name="braceright" horiz-adv-x="316" d="M229 661Q229 747 147 747Q143 747 139 747L153 833Q238 833 278 788Q320 742 320 677Q320 649 317 620L280 387Q275 356 301 339Q325 323 356 325L344 248Q342 247 332 247T319 247T306 247T293
245T282 241T270 236T261 228Q253 220 250 203L211 -37Q196 -128 142 -173T-14 -219L-1 -134Q1 -135 2 -135Q51 -135 81 -110T122 -25L159 206Q165 241 192 263T260 293Q222 298 204 319T186 366Q186 373 187 381L224 612Q229 640 229 661Z" />
<glyph unicode="~" glyph-name="asciitilde" horiz-adv-x="432" d="M224 638T237 641T270 645T318 628T361 610T386 612T403 616T421 623T436 631T452 641T466 650L481 603Q480 602 463 587T438 566T415 550Q387 531 360 531T301 548T251 566T219 562T184 547T152
531L137 576Q144 581 161 595T187 615T209 629Z" />
<glyph unicode="&#xa1;" glyph-name="exclamdown" horiz-adv-x="272" d="M39 -269L135 262H221L149 -269H39ZM141 376L151 439Q154 460 179 462H238Q247 461 253 454T258 436L248 376Q243 355 224 350H159Q139 352 141 376Z" />
<glyph unicode="&#xa2;" glyph-name="cent" horiz-adv-x="488" d="M186 518T210 526T252 536T283 538T308 538L324 634H391L375 533Q459 523 524 508L513 446Q387 453 332 453T265 451T237 439T211 409Q187 362 169 262Q159 203 159 169T169 115Q188 78 234 78Q320
78 428 86L464 88L453 24Q377 -1 289 -5L276 -96H208L222 -6Q138 -5 97 56Q69 96 69 171Q69 214 78 273T101 377T132 452T168 500Z" />
<glyph unicode="&#xa3;" glyph-name="sterling" horiz-adv-x="592" d="M624 720L659 716L647 644H461Q413 644 386 639T338 618T307 576T289 502L272 396L526 380L518 326H261L224 89H559L545 0H47L58 72L132 89L169 325H98L106 378L180 396L197 503Q219 640 278
687Q300 703 318 712T364 725Q405 732 462 732T624 720Z" />
<glyph unicode="&#xa4;" glyph-name="currency" horiz-adv-x="460" d="M440 332Q440 263 398 213L441 161L391 120L350 170Q312 145 258 145T167 174L114 129L76 178L129 223Q111 258 111 293Q111 304 113 314Q121 369 148 402L110 447L159 486L195 444Q241 473
297 473T389 442L445 489L481 442L426 394Q440 364 440 332ZM177 295Q177 265 198 238Q220 211 261 211Q330 211 360 271Q376 301 376 329T356 383T292 409Q245 409 215 381Q177 346 177 295Z" />
<glyph unicode="&#xa5;" glyph-name="yen" horiz-adv-x="610" d="M110 149L120 214H277L284 260H127L138 326H281L134 732H232L348 400L596 732H706L397 326H565L554 260H376L369 214H547L537 149H361L341 0H249L269 149H110Z" />
<glyph unicode="&#xa6;" glyph-name="brokenbar" horiz-adv-x="246" d="M68 -72L120 256H206L154 -72H68ZM147 429L201 770H287L233 429H147Z" />
<glyph unicode="&#xa7;" glyph-name="section" horiz-adv-x="548" d="M236 582Q236 548 281 548H445Q510 548 537 517T565 444Q565 432 563 420L554 365Q542 281 494 272Q528 261 528 211Q528 199 525 183L515 114Q503 40 469 16T357 -8Q315 -8 218 -1T89 11L100
78H358Q387 78 403 86T423 119L433 182Q434 190 434 201T426 219T387 226H228Q165 226 135 254T104 325Q104 337 107 352L115 406Q122 446 135 469T180 502Q143 526 143 571Q143 582 145 593L154 657Q174 784 307 784Q348 784 448 777T580 765L570 698H305Q279
698 265 688T246 652L237 592Q236 586 236 582ZM199 357Q198 347 198 336T206 317T244 310H398Q424 310 437 317T454 332T461 358L470 413Q472 428 472 435T468 450Q461 464 423 464H269Q237 464 225 454T208 411L199 357Z" />
<glyph unicode="&#xa8;" glyph-name="dieresis" horiz-adv-x="453" d="M159 620T172 627T204 634T233 621T245 597Q245 563 225 546T184 529T150 543T138 567T139 587T150 608ZM433 634T455 634T488 621T500 597Q500 563 480 546T439 529T405 543T393 567Q393
601 413 617Z" />
<glyph unicode="&#xa9;" glyph-name="copyright" horiz-adv-x="802" d="M399 732H650Q744 732 783 667Q823 599 823 500Q823 353 777 221Q701 0 543 0H292Q237 0 198 27T138 95Q100 173 100 280Q100 398 142 521Q214 732 399 732ZM178 368Q170 325 170 299T172
240T185 165T226 96T296 70H550Q614 70 666 146Q725 232 749 422Q754 469 754 496T753 540T746 583T727 625Q700 662 648 662H388Q269 662 214 514Q192 454 178 368ZM349 293Q349 217 411 217Q485 217 593 233L584 175Q490 147 395 147Q330 147 298 201Q278 236
278 281T286 379T312 474T353 541Q397 583 462 583T638 559L629 501Q546 513 457 513Q417 513 392 477T358 382T349 293Z" />
<glyph unicode="&#xaa;" glyph-name="ordfeminine" horiz-adv-x="368" d="M70 266L79 328H388L378 266H70ZM216 723T231 726T259 731T294 733T366 722T441 688L395 379H351L340 433Q322 412 286 394T220 375T171 384T131 415Q104 445 104 508Q104 533 109 569T129
636T158 684T195 712ZM175 513Q175 446 230 446Q259 446 285 458T345 495L367 655Q322 667 298 667T262 664T242 658T223 647T204 627Q186 599 181 564T175 513Z" />
<glyph unicode="&#xab;" glyph-name="guillemotleft" horiz-adv-x="562" d="M103 354L341 557L392 497L216 347L343 198L281 146L103 354ZM300 354L538 557L589 497L413 347L540 198L478 146L300 354Z" />
<glyph unicode="&#xac;" glyph-name="logicalnot" horiz-adv-x="517" d="M525 336L497 159H413L427 252H85L98 336H525Z" />
<glyph unicode="&#xad;" glyph-name="uni00AD" horiz-adv-x="354" d="M59 247L73 333H387L373 247H59Z" />
<glyph unicode="&#xae;" glyph-name="registered" horiz-adv-x="802" d="M399 732H650Q744 732 783 667Q823 599 823 500Q823 353 777 221Q701 0 543 0H292Q237 0 198 27T138 95Q100 173 100 280Q100 398 142 521Q214 732 399 732ZM178 368Q170 325 170 299T172
240T185 165T226 96T296 70H550Q614 70 666 146Q725 232 749 422Q754 469 754 496T753 540T746 583T727 625Q700 662 648 662H388Q269 662 214 514Q192 454 178 368ZM525 580Q572 580 607 554Q640 530 640 472Q640 422 620 377Q613 360 600 348T575 332T558 326T541
323T527 320L590 153H510L448 320L379 332L350 153H279L347 580H525ZM494 382Q532 382 546 395T566 450Q568 460 568 468T566 486T554 502Q539 510 514 510H407L387 382H494Z" />
<glyph unicode="&#xaf;" glyph-name="overscore" horiz-adv-x="385" d="M131 531L141 598H433L423 531H131Z" />
<glyph unicode="&#xb0;" glyph-name="degree" horiz-adv-x="293" d="M206 734T248 734T319 705T348 634Q348 590 318 561T246 531T174 560T145 631T175 704ZM269 684T248 684T211 669T195 632T210 596T246 581T283 596Q298 611 298 632T284 669Z" />
<glyph unicode="&#xb1;" glyph-name="plusminus" horiz-adv-x="519" d="M65 82L79 168H495L481 82H65ZM113 386L126 472H290L316 636H402L376 472H542L529 386H363L336 220H250L277 386H113Z" />
<glyph unicode="&#xb2;" glyph-name="twosuperior" horiz-adv-x="388" d="M339 629T351 652T367 691T370 723T358 753T304 767H135Q132 767 143 818L144 824Q265 840 332 840Q376 840 405 814Q448 776 448 719Q448 663 410 608T339 523T266 464T222 428H402L391
356H73L84 424Q91 429 121 449T170 482T220 519T273 562T316 605Z" />
<glyph unicode="&#xb3;" glyph-name="threesuperior" horiz-adv-x="405" d="M262 352H232Q147 352 120 357T74 370L84 423L256 424Q326 424 335 480L339 500Q340 507 340 514Q340 560 281 562L145 567L155 626L293 631Q362 634 370 689L373 709Q374 717 374 729T363
752T314 763H133L141 816Q197 835 288 835Q314 835 343 835Q399 834 424 803T449 735Q449 725 448 715L442 681Q436 646 419 621T379 589Q414 568 414 517Q414 507 413 496L409 470Q400 411 367 382T265 352Q264 352 262 352Z" />
<glyph unicode="&#xb4;" glyph-name="acute" horiz-adv-x="242" d="M103 531L226 666H329L178 531H103Z" />
<glyph unicode="&#xb5;" glyph-name="uni00B5" horiz-adv-x="592" d="M202 165Q200 153 200 134T216 95T276 76T356 87T455 130L519 531H611L527 0H459L445 60Q439 57 425 50T405 39T386 30T365 20T345 12T324 5T303 -1Q228 -19 178 13L133 -270H41L168 531H260L202 165Z" />
<glyph unicode="&#xb6;" glyph-name="paragraph" horiz-adv-x="579" d="M309 732H677L664 648H599L497 0H415L518 650H432L286 -270H204L306 372Q305 372 298 369T284 363Q264 355 236 355T178 369Q128 393 116 452Q114 466 114 478T115 502L129 595Q151 732 309
732ZM198 504Q197 494 197 484T201 463T217 445Q236 436 260 436H316L350 653H298Q241 653 223 621Q214 607 211 585L198 504Z" />
<glyph unicode="&#xb7;" glyph-name="middot" horiz-adv-x="268" d="M172 441H234Q256 441 256 423Q256 420 255 416L245 350Q241 327 217 327H155Q144 327 138 333T134 350L144 416Q148 441 172 441Z" />
<glyph unicode="&#xb8;" glyph-name="cedilla" horiz-adv-x="249" d="M71 -174H19L26 -131L78 -116Q99 -108 108 -89T123 -37H197Q185 -114 159 -144Q132 -174 71 -174Z" />
<glyph unicode="&#xb9;" glyph-name="onesuperior" horiz-adv-x="277" d="M114 719L122 770Q152 770 186 786Q239 811 260 835H332L256 356H182L245 750Q229 738 194 729T114 719Z" />
<glyph unicode="&#xba;" glyph-name="ordmasculine" horiz-adv-x="387" d="M81 269L91 330H402L393 269H81ZM428 695Q452 666 452 607Q452 580 446 539T428 466T394 413Q354 372 261 372T134 415Q111 445 111 500Q111 524 115 552Q132 658 171 697Q211 737 302
737T428 695ZM212 641T204 617T190 556T184 503T188 474T197 456T215 446Q235 441 261 441T295 441T319 447T343 464Q380 511 380 612Q380 658 347 665Q328 668 299 668T256 666T227 652Z" />
<glyph unicode="&#xbb;" glyph-name="guillemotright" horiz-adv-x="559" d="M79 207L255 358L130 504L191 557L368 350L131 146L79 207ZM279 207L456 358L330 504L391 557L569 350L331 146L279 207Z" />
<glyph unicode="&#xbc;" glyph-name="onequarter" horiz-adv-x="920" d="M114 619L122 670Q152 670 186 686Q239 711 260 735H332L256 256H182L245 650Q229 638 194 629T114 619ZM177 0L750 770H823L250 0H177ZM530 144L781 477H867L654 189H801L819 305L854 354H901L875
189H931L921 128L863 114L845 0H771L789 114H549L530 144Z" />
<glyph unicode="&#xbd;" glyph-name="onehalf" horiz-adv-x="992" d="M114 619L122 670Q152 670 186 686Q239 711 260 735H332L256 256H182L245 650Q229 638 194 629T114 619ZM168 0L741 770H814L241 0H168ZM902 273T915 296T930 335T933 367T922 397T868 411H699Q697
411 705 454L708 468Q828 484 896 484Q940 484 968 458Q1012 420 1012 363Q1012 307 974 252T903 167T830 108T785 72H966L954 0H637L647 68Q654 73 684 93T734 126T784 163T837 206T880 249Z" />
<glyph unicode="&#xbe;" glyph-name="threequarters" horiz-adv-x="1034" d="M379 489Q414 468 414 417Q414 407 413 396L409 370Q400 311 367 282T265 252Q264 252 261 252T239 252T214 252T193 252T170 252T151 254T130 256T112 260Q94 263 74 270L84 323L256
324Q326 324 335 380L339 400Q340 407 340 414Q340 460 281 462L145 467L155 526L293 531Q362 534 370 589L373 609Q374 617 374 629T363 652T314 663H133L141 716Q197 735 288 735Q314 735 343 735Q399 734 424 703T449 635Q449 625 448 615L442 581Q436 546 419
521T379 489ZM276 0L849 770H922L349 0H276ZM616 144L867 477H952L739 189H887L905 305L940 354H987L961 189H1016L1007 128L949 114L931 0H857L875 114H635L616 144Z" />
<glyph unicode="&#xbf;" glyph-name="questiondown" horiz-adv-x="538" d="M310 -269T299 -269T272 -270T241 -271T197 -270Q100 -270 55 -213Q21 -170 21 -113Q21 -96 24 -78L39 15Q56 124 128 159Q176 182 240 182Q271 182 303 176L319 274H404L377 103Q332
104 299 104T233 103T169 80T130 11L116 -77Q113 -92 113 -105Q113 -142 135 -162T228 -183H493L483 -248Q479 -249 451 -253T418 -257T390 -261T359 -264T331 -267ZM363 469H427Q438 469 443 463T448 446L438 380Q434 355 410 355H346Q326 355 326 374Q326 377
327 380L337 446Q340 469 363 469Z" />
<glyph unicode="&#xc0;" glyph-name="Agrave" horiz-adv-x="667" d="M324 932H419L518 797H443L324 932ZM42 0L421 732H518L654 0H560L524 193H243L143 0H42ZM287 280H510L453 607L287 280Z" />
<glyph unicode="&#xc1;" glyph-name="Aacute" horiz-adv-x="667" d="M443 797L566 932H669L518 797H443ZM42 0L421 732H518L654 0H560L524 193H243L143 0H42ZM287 280H510L453 607L287 280Z" />
<glyph unicode="&#xc2;" glyph-name="Acircumflex" horiz-adv-x="667" d="M332 797L467 928H547L628 797H556L503 875L418 797H332ZM42 0L421 732H518L654 0H560L524 193H243L143 0H42ZM287 280H510L453 607L287 280Z" />
<glyph unicode="&#xc3;" glyph-name="Atilde" horiz-adv-x="667" d="M473 906T503 890T540 874T556 873T600 887T646 908L661 861Q654 856 638 844T612 826T588 812Q539 785 494 807Q476 816 462 824T432 832T402 828T379 821T354 809T332 797L317 842Q369 883
397 895T449 907ZM42 0L421 732H518L654 0H560L524 193H243L143 0H42ZM287 280H510L453 607L287 280Z" />
<glyph unicode="&#xc4;" glyph-name="Adieresis" horiz-adv-x="667" d="M348 902T370 902T403 889T415 865Q415 832 395 815T353 797T320 811T308 836Q308 869 328 885ZM603 902T625 902T658 889T670 865Q670 832 650 815T608 797T575 811T563 836Q563 869 583
885ZM42 0L421 732H518L654 0H560L524 193H243L143 0H42ZM287 280H510L453 607L287 280Z" />
<glyph unicode="&#xc5;" glyph-name="Aring" horiz-adv-x="667" d="M537 934T495 934T419 903T384 822Q384 786 409 758T477 730T554 761T588 842Q588 878 563 906ZM469 884T490 884T524 870T537 837Q537 804 508 788Q496 781 478 781T447 795T434 830T451 867ZM42
0L421 732H518L654 0H560L524 193H243L143 0H42ZM287 280H510L453 607L287 280Z" />
<glyph unicode="&#xc6;" glyph-name="AE" horiz-adv-x="946" d="M625 733L665 732Q675 732 829 725T1001 716L990 641H681Q646 641 635 624Q627 611 622 588L593 405L909 395L897 321L578 311L550 137Q544 99 564 91Q579 85 605 85H902L889 12L581 -5Q576 -5 563
-5T529 1Q454 20 454 97Q454 109 456 121L470 221H277L133 0H28L417 596Q472 680 527 708Q576 733 625 733ZM333 308H485L536 616L333 308Z" />
<glyph unicode="&#xc7;" glyph-name="Ccedilla" horiz-adv-x="576" d="M264 707T309 723T436 740T656 708L645 636Q531 651 432 651Q422 651 416 651T402 651T386 651T363 648T338 640T313 625T288 601T264 566T241 516Q218 451 207 377T195 270T196 222Q200 161
230 124T316 83Q334 82 383 82T561 91L551 18Q466 -6 311 -6Q191 -6 143 75Q101 145 101 256Q101 366 138 501Q172 624 232 679Q264 707 309 723ZM238 -174H185L192 -131L245 -116Q266 -110 275 -91T290 -37H364Q356 -89 342 -118T304 -160T238 -174Z" />
<glyph unicode="&#xc8;" glyph-name="Egrave" horiz-adv-x="565" d="M278 926H374L472 792H397L278 926ZM313 732Q318 732 468 725T636 716L625 642H318Q274 642 262 607Q259 598 257 586L229 410L545 400L533 326L215 316L186 139Q181 101 201 93Q216 87 241
87H538L525 14L217 -3Q212 -3 199 -3T164 3Q91 23 91 102Q91 116 93 130L167 598Q189 732 313 732Z" />
<glyph unicode="&#xc9;" glyph-name="Eacute" horiz-adv-x="565" d="M394 792L517 926H620L468 792H394ZM313 732Q318 732 468 725T636 716L625 642H318Q274 642 262 607Q259 598 257 586L229 410L545 400L533 326L215 316L186 139Q181 101 201 93Q216 87 241
87H538L525 14L217 -3Q212 -3 199 -3T164 3Q91 23 91 102Q91 116 93 130L167 598Q189 732 313 732Z" />
<glyph unicode="&#xca;" glyph-name="Ecircumflex" horiz-adv-x="565" d="M282 792L418 924H498L579 792H504L455 868L374 792H282ZM313 732Q318 732 468 725T636 716L625 642H318Q274 642 262 607Q259 598 257 586L229 410L545 400L533 326L215 316L186 139Q181
101 201 93Q216 87 241 87H538L525 14L217 -3Q212 -3 199 -3T164 3Q91 23 91 102Q91 116 93 130L167 598Q189 732 313 732Z" />
<glyph unicode="&#xcb;" glyph-name="Edieresis" horiz-adv-x="565" d="M290 895T312 895T345 882T357 858Q357 824 337 807T296 790T262 804T250 828Q250 862 270 878ZM545 895T567 895T600 882T612 858Q612 824 592 807T551 790T517 804T505 828Q505 862 525
878ZM313 732Q318 732 468 725T636 716L625 642H318Q274 642 262 607Q259 598 257 586L229 410L545 400L533 326L215 316L186 139Q181 101 201 93Q216 87 241 87H538L525 14L217 -3Q212 -3 199 -3T164 3Q91 23 91 102Q91 116 93 130L167 598Q189 732 313 732Z"
/>
<glyph unicode="&#xcc;" glyph-name="Igrave" horiz-adv-x="233" d="M99 932H195L293 797H218L99 932ZM83 0L199 732H291L175 0H83Z" />
<glyph unicode="&#xcd;" glyph-name="Iacute" horiz-adv-x="233" d="M218 797L342 932H445L293 797H218ZM83 0L199 732H291L175 0H83Z" />
<glyph unicode="&#xce;" glyph-name="Icircumflex" horiz-adv-x="233" d="M107 797L243 928H323L404 797H332L279 875L194 797H107ZM83 0L199 732H291L175 0H83Z" />
<glyph unicode="&#xcf;" glyph-name="Idieresis" horiz-adv-x="233" d="M123 902T145 902T178 889T190 865Q190 832 171 815T129 797T95 811T83 836Q83 869 103 885ZM378 902T400 902T433 889T445 865Q445 832 426 815T384 797T350 811T338 836Q338 869 358 885ZM83
0L199 732H291L175 0H83Z" />
<glyph unicode="&#xd0;" glyph-name="Eth" horiz-adv-x="663" d="M470 732Q578 732 626 665Q674 599 679 515Q681 489 681 469Q681 412 671 358Q642 185 567 93T357 0H74L129 344H64L73 402H138L190 731Q190 732 470 732ZM366 90Q423 90 468 129Q552 200 579 364Q589
427 589 484Q589 644 453 644H268L230 402H362L352 344H221L180 90H366Z" />
<glyph unicode="&#xd1;" glyph-name="Ntilde" horiz-adv-x="662" d="M453 902T483 886T520 869T536 869T581 883T626 904L641 857Q634 852 618 840T592 822T568 808Q514 778 457 811Q429 828 413 828Q385 828 368 821T335 805T312 793L297 838Q349 878 377 890T429
903ZM75 0L191 732H281L541 170L630 732H722L606 0H517L256 560L168 0H75Z" />
<glyph unicode="&#xd2;" glyph-name="Ograve" horiz-adv-x="666" d="M302 932H398L496 797H421L302 932ZM361 733T387 735T448 737T511 735T566 725T613 705T651 672Q682 637 693 557Q696 531 696 508Q696 439 685 364T659 236T627 144T586 80T538 37T482 11Q397
-13 280 -1Q208 6 169 36Q120 75 106 146Q100 181 100 207T100 264T111 361T134 479T163 567T196 633T236 679T280 709T331 727ZM225 472T218 438T201 346T192 262T191 212T199 159T229 113T279 91T352 85T427 91T484 114T531 162Q571 227 592 361Q605 444 605
491T600 559T588 595T569 620T545 635T515 644Q487 648 454 648T408 648T375 645T345 639T318 628T293 610T271 584T251 547T234 499Z" />
<glyph unicode="&#xd3;" glyph-name="Oacute" horiz-adv-x="666" d="M421 797L545 932H648L496 797H421ZM361 733T387 735T448 737T511 735T566 725T613 705T651 672Q682 637 693 557Q696 531 696 508Q696 439 685 364T659 236T627 144T586 80T538 37T482 11Q397
-13 280 -1Q208 6 169 36Q120 75 106 146Q100 181 100 207T100 264T111 361T134 479T163 567T196 633T236 679T280 709T331 727ZM225 472T218 438T201 346T192 262T191 212T199 159T229 113T279 91T352 85T427 91T484 114T531 162Q571 227 592 361Q605 444 605
491T600 559T588 595T569 620T545 635T515 644Q487 648 454 648T408 648T375 645T345 639T318 628T293 610T271 584T251 547T234 499Z" />
<glyph unicode="&#xd4;" glyph-name="Ocircumflex" horiz-adv-x="666" d="M311 797L446 928H526L607 797H535L482 875L397 797H311ZM361 733T387 735T448 737T511 735T566 725T613 705T651 672Q682 637 693 557Q696 531 696 508Q696 439 685 364T659 236T627 144T586
80T538 37T482 11Q397 -13 280 -1Q208 6 169 36Q120 75 106 146Q100 181 100 207T100 264T111 361T134 479T163 567T196 633T236 679T280 709T331 727ZM225 472T218 438T201 346T192 262T191 212T199 159T229 113T279 91T352 85T427 91T484 114T531 162Q571 227
592 361Q605 444 605 491T600 559T588 595T569 620T545 635T515 644Q487 648 454 648T408 648T375 645T345 639T318 628T293 610T271 584T251 547T234 499Z" />
<glyph unicode="&#xd5;" glyph-name="Otilde" horiz-adv-x="666" d="M451 906T481 890T518 874T534 873T579 887T625 908L639 861Q632 856 616 844T590 826T566 812Q512 782 456 815Q428 832 411 832Q384 832 367 825T333 809T311 797L296 842Q348 883 376 895T427
907ZM361 733T387 735T448 737T511 735T566 725T613 705T651 672Q682 637 693 557Q696 531 696 508Q696 439 685 364T659 236T627 144T586 80T538 37T482 11Q397 -13 280 -1Q208 6 169 36Q120 75 106 146Q100 181 100 207T100 264T111 361T134 479T163 567T196
633T236 679T280 709T331 727ZM225 472T218 438T201 346T192 262T191 212T199 159T229 113T279 91T352 85T427 91T484 114T531 162Q571 227 592 361Q605 444 605 491T600 559T588 595T569 620T545 635T515 644Q487 648 454 648T408 648T375 645T345 639T318 628T293
610T271 584T251 547T234 499Z" />
<glyph unicode="&#xd6;" glyph-name="Odieresis" horiz-adv-x="666" d="M327 902T349 902T382 889T393 865Q393 832 374 815T332 797T299 811T287 836Q287 869 307 885ZM582 902T604 902T637 889T648 865Q648 832 629 815T587 797T554 811T542 836Q542 869 562
885ZM361 733T387 735T448 737T511 735T566 725T613 705T651 672Q682 637 693 557Q696 531 696 508Q696 439 685 364T659 236T627 144T586 80T538 37T482 11Q397 -13 280 -1Q208 6 169 36Q120 75 106 146Q100 181 100 207T100 264T111 361T134 479T163 567T196
633T236 679T280 709T331 727ZM225 472T218 438T201 346T192 262T191 212T199 159T229 113T279 91T352 85T427 91T484 114T531 162Q571 227 592 361Q605 444 605 491T600 559T588 595T569 620T545 635T515 644Q487 648 454 648T408 648T375 645T345 639T318 628T293
610T271 584T251 547T234 499Z" />
<glyph unicode="&#xd7;" glyph-name="multiply" horiz-adv-x="459" d="M90 241L224 357L127 472L193 528L290 413L431 535L483 473L342 351L440 234L374 179L277 295L142 178L90 241Z" />
<glyph unicode="&#xd8;" glyph-name="Oslash" horiz-adv-x="666" d="M132 480Q154 568 194 634Q222 680 277 710Q328 737 450 737T626 695L656 732H721L660 657Q694 603 694 501Q694 438 683 363T656 235T624 144T583 79T536 36T479 11Q426 -4 354 -4T237 5T160
41L127 0H62L127 80Q96 133 96 235T132 480ZM222 472T215 438T199 346T189 241T198 166L565 621Q546 638 517 643T453 648T405 648T372 645T342 639T315 628T290 610T269 584T249 547T231 499ZM352 85Q405 85 440 95T506 135Q562 189 589 361Q601 441 601 493T592
574L222 117Q255 85 352 85Z" />
<glyph unicode="&#xd9;" glyph-name="Ugrave" horiz-adv-x="655" d="M306 932H402L500 797H425L306 932ZM215 305Q207 246 207 224T207 196Q209 116 273 94Q301 84 346 84Q440 84 488 133T555 305L622 732H715L649 300Q620 120 536 53Q464 -5 337 -5Q179 -5 136
96Q113 148 113 203T122 309L189 732H282L215 305Z" />
<glyph unicode="&#xda;" glyph-name="Uacute" horiz-adv-x="655" d="M425 797L549 932H652L500 797H425ZM215 305Q207 246 207 224T207 196Q209 116 273 94Q301 84 346 84Q440 84 488 133T555 305L622 732H715L649 300Q620 120 536 53Q464 -5 337 -5Q179 -5 136
96Q113 148 113 203T122 309L189 732H282L215 305Z" />
<glyph unicode="&#xdb;" glyph-name="Ucircumflex" horiz-adv-x="655" d="M315 797L450 928H530L611 797H539L486 875L401 797H315ZM215 305Q207 246 207 224T207 196Q209 116 273 94Q301 84 346 84Q440 84 488 133T555 305L622 732H715L649 300Q620 120 536 53Q464
-5 337 -5Q179 -5 136 96Q113 148 113 203T122 309L189 732H282L215 305Z" />
<glyph unicode="&#xdc;" glyph-name="Udieresis" horiz-adv-x="655" d="M331 902T353 902T386 889T397 865Q397 832 378 815T336 797T303 811T291 836Q291 869 311 885ZM586 902T608 902T641 889T652 865T651 846T641 824Q621 797 595 797T558 811T546 836Q546
869 566 885ZM215 305Q207 246 207 224T207 196Q209 116 273 94Q301 84 346 84Q440 84 488 133T555 305L622 732H715L649 300Q620 120 536 53Q464 -5 337 -5Q179 -5 136 96Q113 148 113 203T122 309L189 732H282L215 305Z" />
<glyph unicode="&#xdd;" glyph-name="Yacute" horiz-adv-x="637" d="M406 797L530 932H632L481 797H406ZM147 732H245L361 360L611 732H719L393 251L353 0H261L301 251L147 732Z" />
<glyph unicode="&#xde;" glyph-name="Thorn" horiz-adv-x="552" d="M56 0Q56 0 171 729H263L241 588H425Q461 588 487 576T528 548Q569 503 569 426Q569 402 565 366T551 295T529 238T500 199T469 174T433 161Q401 153 349 153Q232 153 176 173L148 0H56ZM358
241Q382 241 398 245T430 263Q459 288 473 376Q477 394 477 404T475 427T471 453T461 475T447 489T430 496Q415 500 398 500H227L186 241H358Z" />
<glyph unicode="&#xdf;" glyph-name="germandbls" horiz-adv-x="570" d="M237 82L396 77Q427 77 449 94T478 140L484 172Q485 176 485 184T474 204T443 220T399 235T357 255Q320 276 320 327Q320 337 321 348Q329 405 353 433T456 505Q522 544 522 621Q522 658
495 674T400 690T290 661T236 552L148 0H56L146 566Q161 661 224 719T407 778Q555 778 601 693Q614 669 615 653T616 623T611 583T591 531Q563 477 521 448Q512 443 489 431T455 410T431 387Q414 365 414 346T424 315T455 297T499 281T543 261Q580 242 580 192Q580
182 578 171L572 128Q566 88 547 60T500 18Q449 -8 390 -8Q337 -8 285 1T227 11L237 82Z" />
<glyph unicode="&#xe0;" glyph-name="agrave" horiz-adv-x="540" d="M202 737H297L396 603H321L202 737ZM235 526T258 532T304 540T359 543T461 528T566 479L496 0H428L414 59Q386 36 335 15T242 -7T173 0T123 27T88 80Q74 124 74 175T85 286T115 392T156 465T206
509ZM196 351T188 322T174 252T167 177T176 120Q193 79 245 79T334 90T421 128L469 443Q405 461 370 461T317 458T290 452T266 443T243 429T223 406T204 371Z" />
<glyph unicode="&#xe1;" glyph-name="aacute" horiz-adv-x="540" d="M329 603L453 737H555L404 603H329ZM235 526T258 532T304 540T359 543T461 528T566 479L496 0H428L414 59Q386 36 335 15T242 -7T173 0T123 27T88 80Q74 124 74 175T85 286T115 392T156 465T206
509ZM196 351T188 322T174 252T167 177T176 120Q193 79 245 79T334 90T421 128L469 443Q405 461 370 461T317 458T290 452T266 443T243 429T223 406T204 371Z" />
<glyph unicode="&#xe2;" glyph-name="acircumflex" horiz-adv-x="540" d="M210 603L346 734H426L506 603H435L381 681L296 603H210ZM235 526T258 532T304 540T359 543T461 528T566 479L496 0H428L414 59Q386 36 335 15T242 -7T173 0T123 27T88 80Q74 124 74 175T85
286T115 392T156 465T206 509ZM196 351T188 322T174 252T167 177T176 120Q193 79 245 79T334 90T421 128L469 443Q405 461 370 461T317 458T290 452T266 443T243 429T223 406T204 371Z" />
<glyph unicode="&#xe3;" glyph-name="atilde" horiz-adv-x="540" d="M357 712T387 696T425 679T441 679T485 693T531 714L546 667Q538 662 522 650T496 632T473 618Q419 588 362 621Q334 638 317 638Q290 638 273 630T239 614T217 603L202 648Q266 698 290 705T336
713ZM235 526T258 532T304 540T359 543T461 528T566 479L496 0H428L414 59Q386 36 335 15T242 -7T173 0T123 27T88 80Q74 124 74 175T85 286T115 392T156 465T206 509ZM196 351T188 322T174 252T167 177T176 120Q193 79 245 79T334 90T421 128L469 443Q405 461
370 461T317 458T290 452T266 443T243 429T223 406T204 371Z" />
<glyph unicode="&#xe4;" glyph-name="adieresis" horiz-adv-x="540" d="M207 694T220 701T251 708T281 695T293 671Q293 637 273 620T231 603T198 617T186 641T187 661T197 682ZM462 694T475 701T506 708T536 695T548 671Q548 637 528 620T486 603T453 617T441
641T442 661T452 682ZM235 526T258 532T304 540T359 543T461 528T566 479L496 0H428L414 59Q386 36 335 15T242 -7T173 0T123 27T88 80Q74 124 74 175T85 286T115 392T156 465T206 509ZM196 351T188 322T174 252T167 177T176 120Q193 79 245 79T334 90T421 128L469
443Q405 461 370 461T317 458T290 452T266 443T243 429T223 406T204 371Z" />
<glyph unicode="&#xe5;" glyph-name="aring" horiz-adv-x="540" d="M315 780T340 793T399 807T459 779T485 715Q485 681 468 655Q434 603 375 603Q333 603 307 630T281 694Q281 728 298 754ZM365 654T379 654T405 660Q435 676 435 710Q435 728 422 742T394 756T368
752T350 741Q334 726 332 708T336 679T353 661ZM235 526T258 532T304 540T359 543T461 528T566 479L496 0H428L414 59Q386 36 335 15T242 -7T173 0T123 27T88 80Q74 124 74 175T85 286T115 392T156 465T206 509ZM196 351T188 322T174 252T167 177T176 120Q193 79
245 79T334 90T421 128L469 443Q405 461 370 461T317 458T290 452T266 443T243 429T223 406T204 371Z" />
<glyph unicode="&#xe6;" glyph-name="ae" horiz-adv-x="887" d="M201 527T222 532T267 540T317 543T400 533T498 499Q554 541 661 541H662Q860 541 860 411Q860 344 829 302T758 241Q682 208 604 208Q564 208 529 212T481 222Q474 184 474 164Q474 106 495 91T545
75T628 74T792 90L781 22Q677 -7 549 -7Q537 -7 526 -7Q433 -6 402 63Q373 36 312 15T201 -7Q41 -7 41 174Q41 221 52 284T83 394T123 468T172 511ZM445 438Q367 460 309 460Q254 460 214 432Q196 419 184 400Q155 350 140 256Q132 207 132 174T139 120Q155 79
219 79Q265 79 315 92T386 125Q384 141 384 176T401 301T445 438ZM490 286Q518 283 537 283T565 283T598 285T642 290T685 301T723 319Q768 349 768 403Q768 432 746 444T658 456Q575 456 542 420Q518 394 511 370Q501 341 497 320T492 296Q491 290 490 286Z" />
<glyph unicode="&#xe7;" glyph-name="ccedilla" horiz-adv-x="496" d="M249 534T266 536T314 538T413 530T533 509L524 446Q397 453 342 453T275 451T247 439T221 409Q197 362 179 262Q170 203 170 169T180 115Q198 78 244 78Q331 78 438 86L474 88L464 24Q405
5 355 0T270 -6T227 -6Q144 -5 104 61Q79 103 79 160T88 269T108 362T132 431T161 479T193 510T228 527ZM194 -175H141L148 -131L201 -116Q228 -106 238 -72Q242 -59 245 -37H320Q312 -90 298 -119T260 -161T194 -175Z" />
<glyph unicode="&#xe8;" glyph-name="egrave" horiz-adv-x="525" d="M205 736H301L399 601H324L205 736ZM283 208Q203 208 170 222Q164 182 164 153T172 107Q188 76 241 75Q264 74 317 74T482 90L471 22Q367 -7 237 -7Q226 -7 214 -7Q119 -6 89 65Q73 103 73 158T84
271T103 360T125 422T157 474T203 510Q254 541 352 541H353Q549 541 549 412Q549 352 524 313T468 254Q395 208 283 208ZM179 286Q206 283 235 283T285 284T337 292T391 308T432 338Q456 364 456 398T434 444T347 457Q264 457 231 420Q207 394 200 370Q190 341
185 316T179 286Z" />
<glyph unicode="&#xe9;" glyph-name="eacute" horiz-adv-x="525" d="M324 601L448 736H551L399 601H324ZM283 208Q203 208 170 222Q164 182 164 153T172 107Q188 76 241 75Q264 74 317 74T482 90L471 22Q367 -7 237 -7Q226 -7 214 -7Q119 -6 89 65Q73 103 73 158T84
271T103 360T125 422T157 474T203 510Q254 541 352 541H353Q549 541 549 412Q549 352 524 313T468 254Q395 208 283 208ZM179 286Q206 283 235 283T285 284T337 292T391 308T432 338Q456 364 456 398T434 444T347 457Q264 457 231 420Q207 394 200 370Q190 341
185 316T179 286Z" />
<glyph unicode="&#xea;" glyph-name="ecircumflex" horiz-adv-x="525" d="M214 601L349 732H429L510 601H438L385 679L300 601H214ZM283 208Q203 208 170 222Q164 182 164 153T172 107Q188 76 241 75Q264 74 317 74T482 90L471 22Q367 -7 237 -7Q226 -7 214 -7Q119
-6 89 65Q73 103 73 158T84 271T103 360T125 422T157 474T203 510Q254 541 352 541H353Q549 541 549 412Q549 352 524 313T468 254Q395 208 283 208ZM179 286Q206 283 235 283T285 284T337 292T391 308T432 338Q456 364 456 398T434 444T347 457Q264 457 231 420Q207
394 200 370Q190 341 185 316T179 286Z" />
<glyph unicode="&#xeb;" glyph-name="edieresis" horiz-adv-x="525" d="M230 706T251 706T284 693T296 669Q296 636 277 619T235 601T201 615T189 640Q189 673 209 689ZM485 706T506 706T539 693T551 669Q551 636 532 619T490 601T456 615T444 640Q444 673 464
689ZM283 208Q203 208 170 222Q164 182 164 153T172 107Q188 76 241 75Q264 74 317 74T482 90L471 22Q367 -7 237 -7Q226 -7 214 -7Q119 -6 89 65Q73 103 73 158T84 271T103 360T125 422T157 474T203 510Q254 541 352 541H353Q549 541 549 412Q549 352 524 313T468
254Q395 208 283 208ZM179 286Q206 283 235 283T285 284T337 292T391 308T432 338Q456 364 456 398T434 444T347 457Q264 457 231 420Q207 394 200 370Q190 341 185 316T179 286Z" />
<glyph unicode="&#xec;" glyph-name="igrave" horiz-adv-x="203" d="M38 731H133L232 596H157L38 731ZM54 0L138 531H230L146 0H54Z" />
<glyph unicode="&#xed;" glyph-name="iacute" horiz-adv-x="203" d="M155 596L279 731H381L230 596H155ZM54 0L138 531H230L146 0H54Z" />
<glyph unicode="&#xee;" glyph-name="icircumflex" horiz-adv-x="203" d="M43 596L178 728H258L339 596H267L214 675L129 596H43ZM54 0L138 531H230L146 0H54Z" />
<glyph unicode="&#xef;" glyph-name="idieresis" horiz-adv-x="203" d="M55 702T77 702T110 689T122 664Q122 631 102 614T61 596T27 610T15 635Q15 668 35 685ZM310 702T332 702T365 689T377 664Q377 631 357 614T316 596T282 610T270 635Q270 668 290 685ZM54
0L138 531H230L146 0H54Z" />
<glyph unicode="&#xf0;" glyph-name="eth" d="M297 531H388Q444 531 458 517Q446 595 408 640L262 583L246 642L351 683Q311 705 246 705Q237 705 226 704L238 783Q380 783 451 724L569 770L586 710L496 676Q556 587 556 429Q556 350 541 254Q519 118 470 59T322
0H213Q164 0 131 21T85 79Q68 124 68 172T77 262Q101 406 150 468T297 531ZM169 259Q161 197 161 166T172 118T196 95T219 89T232 89H328Q329 89 340 89T366 94T398 117Q431 151 449 259Q459 319 459 352T453 403Q439 442 382 442H293Q260 442 238 429Q192 399
169 259Z" />
<glyph unicode="&#xf1;" glyph-name="ntilde" horiz-adv-x="545" d="M365 709T395 693T432 677T448 676T493 690T538 711L553 664Q546 659 530 647T504 629T480 615Q426 585 370 618Q341 635 325 635Q297 635 280 628T247 612T224 600L209 645Q261 686 289 698T341
710ZM423 540Q501 540 535 490Q560 452 560 402Q560 385 557 366L499 0H407L465 366Q467 378 467 397T451 436T391 456T311 444T212 402L148 0H56L140 531H209L222 470Q226 473 240 481T259 491T277 500T297 510T315 517T335 525T355 531T377 536Q404 540 423 540Z"
/>
<glyph unicode="&#xf2;" glyph-name="ograve" horiz-adv-x="562" d="M215 731H311L409 596H334L215 731ZM206 512T250 524T372 536Q531 536 560 412Q567 382 567 343T558 254Q534 105 478 50T290 -5T111 57Q79 99 79 179Q79 216 89 280T118 396T172 480ZM216 400T203
362T180 269T170 189T172 149T182 120T199 99T225 87Q250 79 288 79T347 82T388 94T422 123T446 176T466 258Q475 311 475 343T470 397T447 431Q419 452 365 452T285 446T238 420Z" />
<glyph unicode="&#xf3;" glyph-name="oacute" horiz-adv-x="562" d="M335 596L459 731H561L410 596H335ZM206 512T250 524T372 536Q531 536 560 412Q567 382 567 343T558 254Q534 105 478 50T290 -5T111 57Q79 99 79 179Q79 216 89 280T118 396T172 480ZM216 400T203
362T180 269T170 189T172 149T182 120T199 99T225 87Q250 79 288 79T347 82T388 94T422 123T446 176T466 258Q475 311 475 343T470 397T447 431Q419 452 365 452T285 446T238 420Z" />
<glyph unicode="&#xf4;" glyph-name="ocircumflex" horiz-adv-x="562" d="M223 596L358 728H438L519 596H447L394 675L309 596H223ZM206 512T250 524T372 536Q531 536 560 412Q567 382 567 343T558 254Q534 105 478 50T290 -5T111 57Q79 99 79 179Q79 216 89 280T118
396T172 480ZM216 400T203 362T180 269T170 189T172 149T182 120T199 99T225 87Q250 79 288 79T347 82T388 94T422 123T446 176T466 258Q475 311 475 343T470 397T447 431Q419 452 365 452T285 446T238 420Z" />
<glyph unicode="&#xf5;" glyph-name="otilde" horiz-adv-x="562" d="M364 705T394 689T431 673T447 673T492 686T537 708L552 661Q545 656 532 647T511 632T491 619T470 607Q420 585 369 615Q340 631 324 631Q296 631 279 624T246 608T224 596L208 641Q261 682
289 694T340 706ZM206 512T250 524T372 536Q531 536 560 412Q567 382 567 343T558 254Q534 105 478 50T290 -5T111 57Q79 99 79 179Q79 216 89 280T118 396T172 480ZM216 400T203 362T180 269T170 189T172 149T182 120T199 99T225 87Q250 79 288 79T347 82T388
94T422 123T446 176T466 258Q475 311 475 343T470 397T447 431Q419 452 365 452T285 446T238 420Z" />
<glyph unicode="&#xf6;" glyph-name="odieresis" horiz-adv-x="562" d="M240 702T258 702T287 695Q310 680 307 654T285 612T245 596T212 610T200 635Q200 668 220 685ZM513 702Q547 702 558 676Q561 668 561 661Q561 631 542 614T500 596T467 610T455 635Q455
668 475 685T513 702ZM206 512T250 524T372 536Q531 536 560 412Q567 382 567 343T558 254Q534 105 478 50T290 -5T111 57Q79 99 79 179Q79 216 89 280T118 396T172 480ZM216 400T203 362T180 269T170 189T172 149T182 120T199 99T225 87Q250 79 288 79T347 82T388
94T422 123T446 176T466 258Q475 311 475 343T470 397T447 431Q419 452 365 452T285 446T238 420Z" />
<glyph unicode="&#xf7;" glyph-name="divide" horiz-adv-x="511" d="M96 310L109 396H527L513 310H96ZM269 250H325Q345 250 345 232Q345 229 344 226L335 168Q332 145 308 145H252Q241 145 236 151T231 168L241 226Q244 250 269 250ZM292 556T317 556H373Q393
556 393 538Q393 535 392 531L384 474Q381 451 357 451H300Q290 451 285 457T280 474L289 531Q292 556 317 556Z" />
<glyph unicode="&#xf8;" glyph-name="oslash" horiz-adv-x="565" d="M173 480Q231 536 365 536Q454 536 502 504L527 531H596L538 469Q569 424 569 346Q569 305 560 254Q535 105 479 50T290 -5Q188 -5 138 31L109 0H45L105 66Q80 105 80 182T105 349T173 480ZM439
436Q413 452 362 452T287 446T240 420T204 362T182 271T173 191T179 146L439 436ZM357 80T384 92T424 124Q453 167 468 258Q476 304 476 338T467 392L201 100Q226 80 291 80Z" />
<glyph unicode="&#xf9;" glyph-name="ugrave" horiz-adv-x="544" d="M206 731H302L400 596H325L206 731ZM165 165Q163 150 163 130T178 93T238 76T319 87T419 130L482 531H574L490 0H421L407 60Q404 58 381 46T337 22Q274 -9 201 -9T95 40Q70 75 70 126Q70 145
73 166L131 531H223L165 165Z" />
<glyph unicode="&#xfa;" glyph-name="uacute" horiz-adv-x="544" d="M325 596L449 731H551L400 596H325ZM165 165Q163 150 163 130T178 93T238 76T319 87T419 130L482 531H574L490 0H421L407 60Q404 58 381 46T337 22Q274 -9 201 -9T95 40Q70 75 70 126Q70 145
73 166L131 531H223L165 165Z" />
<glyph unicode="&#xfb;" glyph-name="ucircumflex" horiz-adv-x="544" d="M214 596L350 728H430L511 596H439L386 675L301 596H214ZM165 165Q163 150 163 130T178 93T238 76T319 87T419 130L482 531H574L490 0H421L407 60Q404 58 381 46T337 22Q274 -9 201 -9T95
40Q70 75 70 126Q70 145 73 166L131 531H223L165 165Z" />
<glyph unicode="&#xfc;" glyph-name="udieresis" horiz-adv-x="544" d="M230 702T252 702T285 689T297 664Q297 631 278 614T236 596T202 610T190 635Q190 668 210 685ZM485 702T507 702T540 689T552 664Q552 631 533 614T491 596T457 610T445 635Q445 668 465
685ZM165 165Q163 150 163 130T178 93T238 76T319 87T419 130L482 531H574L490 0H421L407 60Q404 58 381 46T337 22Q274 -9 201 -9T95 40Q70 75 70 126Q70 145 73 166L131 531H223L165 165Z" />
<glyph unicode="&#xfd;" glyph-name="yacute" horiz-adv-x="552" d="M314 592L438 726H540L389 592H314ZM588 533Q593 514 593 486T575 420L367 1Q303 -130 239 -194T96 -274V-209Q152 -174 190 -123T265 0Q230 0 198 21Q158 47 148 117L91 531H187L242 128Q247
97 281 90Q291 88 298 88T306 89L483 444Q500 480 508 533H588Z" />
<glyph unicode="&#xfe;" glyph-name="thorn" horiz-adv-x="551" d="M397 538T433 538T501 514T545 450Q565 392 565 344T560 264T551 212T539 161T521 108T494 63T457 24Q408 -11 341 -11Q303 -11 252 -1T161 28L114 -270H22L189 782H281L232 472Q278 503 337
520ZM466 266Q471 304 471 329T468 383T448 432T407 453Q340 453 222 406L173 97Q224 80 256 78T296 76T319 74T339 73Q385 73 418 115T466 266Z" />
<glyph unicode="&#xff;" glyph-name="ydieresis" horiz-adv-x="552" d="M220 694T242 694T275 681T287 657Q287 623 267 606T225 589T192 603T180 627Q180 661 200 677ZM475 694T497 694T530 681T542 657Q542 623 522 606T480 589T447 603T435 627Q435 661 455
677ZM588 533Q593 514 593 486T575 420L367 1Q303 -130 239 -194T96 -274V-209Q152 -174 190 -123T265 0Q230 0 198 21Q158 47 148 117L91 531H187L242 128Q247 97 281 90Q291 88 298 88T306 89L483 444Q500 480 508 533H588Z" />
<glyph unicode="&#x2013;" glyph-name="endash" horiz-adv-x="456" d="M60 244L74 331H547L533 244H60Z" />
<glyph unicode="&#x2014;" glyph-name="emdash" horiz-adv-x="736" d="M60 246L74 333H770L756 246H60Z" />
<glyph unicode="&#x2018;" glyph-name="quoteleft" horiz-adv-x="266" d="M212 716T230 723T261 732T281 734T293 733L304 732L297 691Q297 691 296 691Q264 691 258 657L254 631H266Q289 631 289 611Q289 608 289 605L278 537Q274 508 246 508H182Q160 508 160
528Q160 532 161 537L177 646Q182 676 197 696Z" />
<glyph unicode="&#x2019;" glyph-name="quoteright" horiz-adv-x="266" d="M199 609Q172 609 177 637L188 704Q192 734 219 734H284Q306 734 306 713Q306 709 305 704L288 596Q283 566 268 546T236 519Q207 507 192 507T173 508L162 509L169 551Q184 550 193 557T204
569T207 584L211 609H199Z" />
<glyph unicode="&#x201a;" glyph-name="quotesinglbase" horiz-adv-x="266" d="M101 -1Q90 -1 84 6T79 27L90 94Q94 124 122 124H186Q208 124 208 103Q208 99 207 94L190 -14Q181 -72 133 -94Q113 -103 94 -103T64 -101L71 -60Q103 -61 109 -26L113 -1H101Z" />
<glyph unicode="&#x201c;" glyph-name="quotedblleft" horiz-adv-x="416" d="M205 716T222 722T254 731T274 733T285 733L297 731L291 691Q290 691 289 691Q257 691 251 657L248 631H260Q283 631 283 611Q283 608 282 604L272 537Q267 508 239 508H175Q153 508
153 528Q153 532 154 537L171 645Q176 676 190 696ZM370 716T387 722T418 731T439 733T450 733L461 731L455 691Q455 691 454 691Q422 691 416 657L412 631H424Q447 631 447 611Q447 608 447 604L437 537Q432 508 404 508H340Q318 508 318 528Q318 532 319 537L336
645Q340 676 355 696Z" />
<glyph unicode="&#x201d;" glyph-name="quotedblright" horiz-adv-x="417" d="M192 609Q165 609 169 637L180 704Q185 734 212 734H276Q299 734 299 713Q299 709 298 704L280 596Q275 566 261 546T228 518Q200 507 185 507T166 507L155 509L161 550Q176 550 185
556T196 569T200 584L204 609H192ZM356 609Q345 609 339 616T334 637L345 704Q349 733 377 733H441Q463 733 463 713Q463 709 462 704L445 596Q440 566 426 546T393 518Q364 507 350 507T330 507L319 509L326 550Q359 550 364 584L368 609H356Z" />
<glyph unicode="&#x201e;" glyph-name="quotedblbase" horiz-adv-x="416" d="M94 0Q82 0 76 7T71 28L83 95Q87 124 114 124H178Q201 124 201 104Q201 100 200 95L183 -13Q178 -44 163 -64T131 -91Q102 -102 87 -102T68 -102L57 -100L63 -60Q96 -60 102 -25L106
0H94ZM259 0Q247 0 241 7T236 28L247 95Q252 124 279 124H343Q366 124 366 104Q366 100 365 95L347 -13Q342 -44 328 -64T295 -91Q267 -102 252 -102T233 -102L221 -100L228 -60Q261 -60 267 -25L271 0H259Z" />
<glyph unicode="&#x2022;" glyph-name="bullet" horiz-adv-x="309" d="M160 304Q132 304 132 329Q132 332 133 336L146 426Q148 442 158 451T185 461H270Q299 461 299 434Q299 431 299 426L285 336Q280 304 244 304H160Z" />
<glyph unicode="&#x2039;" glyph-name="guilsinglleft" horiz-adv-x="297" d="M33 354L271 557L322 497L148 348L273 201L211 146L33 354Z" />
<glyph unicode="&#x203a;" glyph-name="guilsinglright" horiz-adv-x="359" d="M103 207L277 356L152 503L215 557L392 350L154 146L103 207Z" />
</font>
</defs>
</svg>
