<?xml version="1.0" standalone="no"?>
<!DOCTYPE svg PUBLIC "-//W3C//DTD SVG 1.1//EN" "http://www.w3.org/Graphics/SVG/1.1/DTD/svg11.dtd">
<svg xmlns="http://www.w3.org/2000/svg">
<defs >
<font id="Exo" horiz-adv-x="538" ><font-face
    font-family="Exo"
    units-per-em="1000"
    panose-1="2 0 6 3 0 0 0 0 0 0"
    ascent="1002"
    descent="-327"
    alphabetic="0" />
<glyph unicode=" " glyph-name="space" horiz-adv-x="250" />
<glyph unicode="!" glyph-name="exclam" horiz-adv-x="270" d="M78 23V89Q78 114 102 114H166Q177 114 183 107T189 89V23Q189 0 166 0H102Q91 0 85 6T78 23ZM82 731H185L176 196H90L82 731Z" />
<glyph unicode="&quot;" glyph-name="quotedbl" horiz-adv-x="397" d="M171 732V665L161 531H91L79 665V732H171ZM227 732H318V665L308 531H238L227 665V732Z" />
<glyph unicode="#" glyph-name="numbersign" horiz-adv-x="696" d="M19 226L28 290H186L210 443H53L63 507H221L258 732H322L285 507H439L475 732H539L503 507H679L668 443H492L468 289H644L634 225H457L420 0H356L393 225L238 226L201 0H137L174 226H19ZM250
290L404 289L428 443H274L250 290Z" />
<glyph unicode="$" glyph-name="dollar" horiz-adv-x="573" d="M495 641L260 650Q252 650 240 650T211 648T177 636Q143 617 143 554V496Q143 406 241 406H361Q472 406 506 325Q522 285 522 228V165Q522 61 454 22Q400 -8 326 -8Q317 -8 308 -8V-90H242V-4Q142
5 74 18V88Q80 88 168 85T312 81Q430 81 430 164V224Q430 267 413 290T352 314H232Q111 314 71 397Q51 438 51 492V557Q53 660 108 700Q157 736 242 738V824H308V735Q375 731 495 713V641Z" />
<glyph unicode="%" glyph-name="percent" horiz-adv-x="956" d="M39 476V606Q39 672 68 702T170 732H271Q342 732 370 702T399 606V476Q399 409 371 379T269 349H168Q96 349 68 379T39 476ZM113 480Q113 446 125 435T172 423H265Q304 423 314 435T325 480V601Q325
635 313 646T267 658H174Q135 658 124 647T113 601V480ZM222 0L662 732H741L302 0H222ZM558 129V259Q558 324 585 354Q614 385 688 385H789Q861 385 889 355T918 259V129Q918 62 890 32T787 2H686Q615 2 587 32T558 129ZM632 133Q632 100 644 88T690 76H783Q822
76 833 88T844 133V254Q844 288 832 299T785 311H692Q654 311 643 300T632 254V133Z" />
<glyph unicode="&amp;" glyph-name="ampersand" horiz-adv-x="648" d="M278 735Q369 735 476 710V646H284Q201 646 201 604Q201 577 235 530L451 236L568 354L598 320L544 213L504 168L626 0H518L439 107L368 42Q317 -5 242 -5Q203 -5 156 13T70 87T31 204Q31
297 113 367L194 436L134 518Q102 563 102 611Q102 669 154 708Q179 727 210 731T278 735ZM173 305Q120 261 120 218T145 142T195 96T236 83T257 84Q289 86 313 109L385 177L244 365L173 305Z" />
<glyph unicode="&apos;" glyph-name="quotesingle" horiz-adv-x="195" d="M51 732H144V665L134 531H62L51 665V732Z" />
<glyph unicode="(" glyph-name="parenleft" horiz-adv-x="346" d="M105 54T88 144T70 320T87 491T128 639Q177 770 217 833L234 860H328Q305 824 274 758T220 632T180 488T162 334T171 201T195 87T227 -11T263 -95Q300 -168 319 -196L328 -210H234Q211 -181 180
-122T127 -4Z" />
<glyph unicode=")" glyph-name="parenright" horiz-adv-x="346" d="M149 66T167 153T185 344T144 581T60 788L19 860H113Q136 826 167 762T219 638T259 493T277 321T260 145T219 -5Q169 -132 130 -187L113 -210H19Q42 -178 73 -115T127 7Z" />
<glyph unicode="*" glyph-name="asterisk" horiz-adv-x="436" d="M47 566V610L186 638L191 561L47 566ZM112 415L136 550L211 532L153 401L112 415ZM173 718L216 735L289 615L218 584L173 718ZM203 473L246 538L356 447L332 412L203 473ZM248 571L368 648L390
609L298 512L248 571Z" />
<glyph unicode="+" glyph-name="plus" horiz-adv-x="507" d="M46 313V399H210V564H296V399H462V313H296V148H210V313H46Z" />
<glyph unicode="," glyph-name="comma" horiz-adv-x="267" d="M188 -11Q188 -90 106 -90Q100 -90 95 -90L84 -88V-52Q98 -52 106 -46Q115 -39 115 -22V0H104Q93 0 86 6T79 25V88Q79 115 104 115H164Q188 115 188 88V-11Z" />
<glyph unicode="-" glyph-name="hyphen" horiz-adv-x="354" d="M20 247V333H334V247H20Z" />
<glyph unicode="." glyph-name="period" horiz-adv-x="269" d="M79 23V89Q79 114 103 114H165Q190 114 190 89V23Q190 0 165 0H103Q93 0 86 6T79 23Z" />
<glyph unicode="/" glyph-name="slash" horiz-adv-x="415" d="M19 -72L300 770H397L116 -72H19Z" />
<glyph unicode="0" glyph-name="zero" horiz-adv-x="639" d="M65 166V564Q65 645 114 688T241 732H405Q533 732 565 629Q574 600 574 566V166Q574 81 530 41T404 0H240Q162 0 114 40T65 166ZM157 173Q157 128 183 109T249 89H395Q482 89 482 172V560Q482 643 396
643H248Q201 643 179 619T157 560V173Z" />
<glyph unicode="1" glyph-name="one" horiz-adv-x="364" d="M290 732V0H198V633L37 584V648L198 732H290Z" />
<glyph unicode="2" glyph-name="two" horiz-adv-x="594" d="M37 652V720Q192 742 341 742Q463 742 517 649Q548 597 548 536T519 415T452 307T361 211Q286 141 213 89H548V0H44V83Q141 148 218 213T341 327T421 430T455 535T424 618T328 652H37Z" />
<glyph unicode="3" glyph-name="three" horiz-adv-x="591" d="M341 -7H282Q270 -7 264 -7T231 -7T194 -6T162 -4T127 0T96 5Q66 10 34 21L35 83H321Q402 83 419 123Q428 141 428 169V221Q428 315 327 318L96 326V398L327 408Q430 413 430 500V560Q430 590 414
610Q387 645 327 645H28V706Q109 735 243 735Q292 735 348 734Q428 733 474 687T521 566V501Q521 391 453 364Q521 325 521 218V164Q521 -7 341 -7Z" />
<glyph unicode="4" glyph-name="four" horiz-adv-x="607" d="M412 272V469L447 544H504V272H589V200L504 180V2H412V180H53L19 224L323 732H429L156 272H412Z" />
<glyph unicode="5" glyph-name="five" horiz-adv-x="601" d="M170 422Q200 453 293 453Q320 453 347 452T400 451T457 437T508 401Q546 356 546 280V169Q546 120 530 85T486 31Q435 -4 377 -4Q275 -4 221 0T71 20V90H369Q415 90 434 115T454 177V275Q454 308 449
319T438 339T423 352Q403 363 371 363H233Q201 363 179 346T157 293H73L95 732H523V643H181L170 422Z" />
<glyph unicode="6" glyph-name="six" horiz-adv-x="619" d="M79 155T70 223T61 385T75 550T116 660Q165 736 233 737Q254 738 274 738Q406 738 539 718V649H261Q217 649 193 605Q169 562 163 522Q154 458 153 412Q297 432 399 432Q491 432 533 386Q563 352 563
278V152Q563 -1 398 -1H250Q215 -1 188 9T136 44T95 112ZM153 345Q153 230 169 180Q188 118 218 100Q237 88 262 88H391Q429 88 445 98Q472 116 472 164V273Q472 314 451 329T392 345H153Z" />
<glyph unicode="7" glyph-name="seven" horiz-adv-x="548" d="M28 643V732H490L520 680L261 0H155L404 643H28Z" />
<glyph unicode="8" glyph-name="eight" horiz-adv-x="631" d="M70 158V249Q70 333 153 358Q122 369 103 393Q70 434 70 499V564Q70 659 117 698T249 737H397Q480 737 521 696T562 564V502Q563 476 554 449Q536 396 487 386Q506 382 521 367T546 332Q562 291 562
253V159Q562 52 484 17Q445 0 396 0H249Q199 0 164 13T111 42T83 84Q70 117 70 158ZM162 160Q162 88 256 88H387Q422 88 446 106T470 160V255Q470 292 447 311T390 331H246Q209 331 186 313T162 255V160ZM162 494Q162 465 177 446Q201 416 246 416H389Q470 416
470 494V556Q470 607 450 628T388 650H256Q206 650 184 632T162 556V494Z" />
<glyph unicode="9" glyph-name="nine" horiz-adv-x="619" d="M56 459V584Q56 737 222 737H369Q404 737 431 728T483 692T524 624Q559 532 559 352Q559 89 449 19Q420 0 388 -1T327 -2Q176 -2 80 18V87H359Q385 87 404 104T435 147T454 206Q465 260 467 325Q323
304 247 304T137 316T86 351Q56 392 56 459ZM147 463Q147 423 168 407T228 391H467Q467 578 413 627Q390 648 358 648H228Q190 648 174 638Q147 620 147 572V463Z" />
<glyph unicode=":" glyph-name="colon" horiz-adv-x="269" d="M79 23V89Q79 114 103 114H165Q190 114 190 89V23Q190 0 165 0H103Q93 0 86 6T79 23ZM79 441V507Q79 532 103 532H165Q190 532 190 507V441Q190 418 165 418H103Q89 418 84 426T79 441Z" />
<glyph unicode=";" glyph-name="semicolon" horiz-adv-x="271" d="M188 -11Q188 -90 106 -90Q100 -90 95 -90L84 -88V-52Q98 -52 106 -46Q115 -39 115 -22V0H104Q94 0 87 7T79 25V88Q79 104 88 109T104 115H164Q188 115 188 88V-11ZM81 442V508Q81 533 105 533H167Q192
533 192 508V442Q192 419 167 419H105Q91 419 86 427T81 442Z" />
<glyph unicode="&lt;" glyph-name="less" horiz-adv-x="468" d="M47 307V400L422 558V464L159 354L422 234V138L47 307Z" />
<glyph unicode="=" glyph-name="equal" horiz-adv-x="467" d="M20 204V290H447V204H20ZM20 415V501H447V415H20Z" />
<glyph unicode="&gt;" glyph-name="greater" horiz-adv-x="468" d="M47 138V234L309 354L47 464V558L422 400V307L47 138Z" />
<glyph unicode="?" glyph-name="question" horiz-adv-x="541" d="M187 739T199 739T226 739T256 740T313 740T396 724T460 681Q504 629 504 551V457Q504 360 440 319Q392 289 320 289Q295 289 266 293V195H180V366H315Q372 368 398 406Q413 427 413 458V546Q413
601 383 625T284 649H19V717Q25 718 50 722T81 727T109 730T140 734T168 737ZM168 23V89Q168 114 192 114H255Q279 114 279 89V23Q279 0 255 0H192Q181 0 175 6T168 23Z" />
<glyph unicode="@" glyph-name="at" horiz-adv-x="850" d="M239 512H448Q510 512 555 484Q607 452 607 368V0H542L526 62Q526 62 517 55T491 38T454 16Q405 -9 355 -9Q353 -9 351 -9Q297 -9 262 25T227 112V162Q227 225 261 261T360 297H524Q525 330 525 347T524
364Q524 401 506 414T446 428H239Q170 428 153 385Q145 366 145 338V6Q145 -98 239 -98H584Q660 -98 678 -52Q687 -30 687 6V503Q687 559 659 588T584 618H180V675Q310 702 459 702Q466 702 472 702H584Q669 701 720 651T771 503V6Q771 -184 585 -184H239Q158 -184
110 -137T61 3V339Q61 421 104 466Q122 485 157 498T239 512ZM368 75Q369 75 370 75T372 75Q433 75 524 126V238L368 223Q341 220 327 204T313 162Q312 161 312 142T313 122Q313 105 329 90T368 75Z" />
<glyph unicode="A" glyph-name="A" horiz-adv-x="676" d="M42 0L305 732H402L654 0H549L489 193H212L149 0H42ZM241 280H461L353 600L241 280Z" />
<glyph unicode="B" glyph-name="B" horiz-adv-x="598" d="M362 732Q415 732 454 715T515 669Q557 613 557 540Q557 406 462 380Q503 371 533 327T563 207Q563 118 521 62Q475 0 363 0H75V732H362ZM168 88H361Q471 88 471 210Q471 266 444 303T361 340H168V88ZM168
426H360Q411 426 438 454T465 537Q465 622 397 640Q380 644 360 644H168V426Z" />
<glyph unicode="C" glyph-name="C" horiz-adv-x="576" d="M51 362Q51 442 57 497T80 599T124 677Q183 740 297 740Q347 740 418 732T544 713V640Q544 640 539 640T524 641T503 643T475 644T444 646T409 648T373 650Q336 651 298 651T230 640T181 598T152 511T143
393T145 299T153 239T167 186T188 143T218 110Q253 83 303 83Q399 83 508 88L544 90V17Q494 7 424 1T326 -6T297 -6Q161 -6 104 99Q51 197 51 362Z" />
<glyph unicode="D" glyph-name="D" horiz-adv-x="658" d="M75 0V732H357Q421 732 469 708T544 648T588 561Q616 476 616 363Q616 177 530 76Q501 41 457 21T357 0H75ZM167 90H354Q413 90 452 128Q524 197 524 356T481 579T354 644H167V90Z" />
<glyph unicode="E" glyph-name="E" horiz-adv-x="567" d="M202 732Q205 732 357 725T527 716V642H218Q181 642 172 624Q166 610 166 586V410L485 399V325L166 315V139Q167 101 187 93Q203 87 228 87H527V14L219 -3Q211 -3 203 -3Q74 -3 74 129V596Q74 670 111
701T202 732Z" />
<glyph unicode="F" glyph-name="F" horiz-adv-x="567" d="M202 732Q205 732 357 725T527 716V642H218Q181 642 172 624Q166 610 166 586V410L485 399V325L166 315V0H74V595Q74 668 111 700T202 732Z" />
<glyph unicode="G" glyph-name="G" horiz-adv-x="614" d="M473 49Q389 -5 283 -5Q172 -5 116 64Q68 124 56 249Q51 300 51 368T56 487T77 587T118 669Q174 740 287 740Q339 740 414 732T548 712V639Q547 639 530 640T486 644T428 648Q353 653 306 653T232 642T188
609T161 552Q143 489 143 348T176 146Q210 84 299 84Q331 84 374 95T444 118L471 130V311H321V372Q399 397 495 397Q527 397 563 394V0H495L473 49Z" />
<glyph unicode="H" glyph-name="H" horiz-adv-x="637" d="M75 0V732H167V398H490V732H582V0H490V310H167V0H75Z" />
<glyph unicode="I" glyph-name="I" horiz-adv-x="222" d="M75 0V732H167V0H75Z" />
<glyph unicode="J" glyph-name="J" horiz-adv-x="358" d="M250 18Q212 -6 144 -6T33 22L36 91Q39 90 50 88T71 84T96 80T121 78T145 80T166 86T183 98T198 118Q210 145 210 182V732H302V165Q302 133 300 112T286 62T250 18Z" />
<glyph unicode="K" glyph-name="K" horiz-adv-x="601" d="M75 0V732H165V410H241L459 732H569L324 367L569 0H459L241 322H166V0H75Z" />
<glyph unicode="L" glyph-name="L" horiz-adv-x="552" d="M75 130V732H167V141Q167 103 188 95Q203 89 229 89H520V0H215Q113 0 86 63Q75 90 75 130Z" />
<glyph unicode="M" glyph-name="M" horiz-adv-x="813" d="M51 0L104 732H231L406 153L577 732H703L763 0H671L625 568L456 0H358L184 568L143 0H51Z" />
<glyph unicode="N" glyph-name="N" horiz-adv-x="679" d="M75 0V732H169L532 171V732H624V0H532L168 560V0H75Z" />
<glyph unicode="O" glyph-name="O" horiz-adv-x="674" d="M61 376Q61 461 75 531T112 641T175 703T252 731T339 737T418 734T479 722T532 697T574 653T607 586Q633 499 633 361Q633 199 598 123Q581 83 559 58T501 19Q442 -4 348 -4Q211 -4 159 35Q106 74 86 143Q61
227 61 376ZM156 472T155 438T153 356T156 270T165 201T182 151T208 118T244 97Q283 85 334 85T412 89T462 104T499 135T523 185Q541 241 541 361Q541 450 535 487T524 546T510 582T493 609T471 627T447 639T417 645Q389 648 357 648T312 648T279 645T250 639T225
628T203 610T186 584T171 547T161 499Z" />
<glyph unicode="P" glyph-name="P" horiz-adv-x="586" d="M58 0V732H362Q545 732 545 516Q545 327 432 298Q404 290 385 290T350 290T244 299T150 310V0H58ZM359 644H150V378H359Q400 378 424 401Q452 429 452 516Q451 600 418 625Q392 644 359 644Z" />
<glyph unicode="Q" glyph-name="Q" horiz-adv-x="674" d="M61 299T61 366T68 489T87 585T119 653T161 697T215 722Q266 737 326 737T416 734T478 722T531 697T574 653T607 586Q633 499 633 361Q633 199 598 123Q580 83 558 58T500 19Q440 -4 346 -4Q225 -4 176
24Q125 53 103 99Q74 163 68 231ZM156 472T155 438T153 356T156 270T165 201T182 151T207 118T243 97Q281 85 336 85T422 91T477 114T514 163Q541 227 541 335T532 498T511 583T470 627T417 645T358 648T310 648T278 645T249 639T224 628T202 610T185 584T171 547T161
499ZM372 -33Q414 -70 467 -70Q496 -70 538 -55V-144Q515 -153 497 -153T457 -152T401 -139T342 -99T312 -33H372Z" />
<glyph unicode="R" glyph-name="R" horiz-adv-x="596" d="M372 732Q549 732 549 510Q549 439 538 409T518 362T499 336T479 319T457 307Q440 301 425 298L575 0H474L329 293L150 307V0H58V732H372ZM150 385H368Q423 385 439 414Q456 445 456 498T449 580T428 621Q405
644 368 644H150V385Z" />
<glyph unicode="S" glyph-name="S" horiz-adv-x="585" d="M146 721T180 729T237 738T285 738T394 729T518 713V639Q476 642 380 645Q273 649 254 649T219 648T186 637Q153 620 153 554V496Q153 439 175 423T249 406H383Q544 406 544 228V165Q544 46 455 10Q410
-8 351 -8T208 0T83 18V92Q193 81 272 81T363 82T393 87T423 100Q452 121 452 164V224Q452 267 435 290T374 314H242Q112 314 77 396Q61 435 61 492V557Q61 662 118 702Q146 721 180 729Z" />
<glyph unicode="T" glyph-name="T" horiz-adv-x="582" d="M41 643V732H558V643H343V0H251V643H41Z" />
<glyph unicode="U" glyph-name="U" horiz-adv-x="673" d="M349 -5H335Q217 -5 179 20Q161 32 138 55T103 113Q75 197 75 320V732H167V320Q167 246 173 215T184 167T198 137T214 115T235 100T259 91T286 86Q312 84 342 84T389 85T426 91T459 106T486 132T507 175Q525
231 525 320V732H618V320Q618 124 549 57Q525 33 506 21T454 3Q412 -5 349 -5Z" />
<glyph unicode="V" glyph-name="V" horiz-adv-x="674" d="M42 732H141L342 136L552 732H651L390 0H292L42 732Z" />
<glyph unicode="W" glyph-name="W" horiz-adv-x="970" d="M42 732H141L341 145L508 732H610L547 510L675 140L848 732H947L726 0H628L501 354L390 0H292L42 732Z" />
<glyph unicode="X" glyph-name="X" horiz-adv-x="608" d="M42 732H143L312 441L484 732H585L368 370L580 0H479L312 291L146 0H45L256 370L42 732Z" />
<glyph unicode="Y" glyph-name="Y" horiz-adv-x="637" d="M364 0H272V251L42 732H142L319 357L514 732H614L364 251V0Z" />
<glyph unicode="Z" glyph-name="Z" horiz-adv-x="561" d="M33 0V89L412 643H33V732H529V643L154 89H529V0H33Z" />
<glyph unicode="[" glyph-name="bracketleft" horiz-adv-x="324" d="M79 -30V666Q79 739 106 780Q145 842 224 842H306V756H233Q189 756 176 701Q171 683 171 661V-29Q171 -74 188 -99T233 -124H306V-210H224Q188 -210 161 -198T118 -167T94 -122Q79 -81 79 -30Z" />
<glyph unicode="\" glyph-name="backslash" horiz-adv-x="415" d="M19 770H116L397 -72H300L19 770Z" />
<glyph unicode="]" glyph-name="bracketright" horiz-adv-x="324" d="M19 -124H91Q120 -124 136 -99T153 -29V661Q153 706 137 731T91 756H19V842H100Q160 842 193 812Q225 782 233 752Q245 704 245 666V-30Q245 -119 207 -166Q192 -185 165 -197T100 -210H19V-124Z" />
<glyph unicode="^" glyph-name="asciicircum" horiz-adv-x="389" d="M47 531L161 662H241L343 531H266L199 599L125 531H47Z" />
<glyph unicode="_" glyph-name="underscore" horiz-adv-x="674" d="M20 -1V85H654V-1H20Z" />
<glyph unicode="`" glyph-name="grave" horiz-adv-x="242" d="M19 666H121L224 531H149L19 666Z" />
<glyph unicode="a" glyph-name="a" horiz-adv-x="519" d="M54 509Q156 541 312 541Q410 541 450 475Q472 438 472 382V0H402L380 62Q377 59 347 44T266 11T176 -6Q114 -6 76 31T37 129V187Q37 248 73 285T176 323Q278 323 329 323T380 323Q381 352 381 366T381
390T377 412T367 434T350 448Q332 459 301 458Q219 458 54 447V509ZM129 138Q129 78 186 78Q219 78 267 90T348 115L380 127V257L184 243Q129 238 129 181V138Z" />
<glyph unicode="b" glyph-name="b" horiz-adv-x="554" d="M146 785V500Q189 518 243 528T331 539T390 531T434 510T465 476T487 433T500 380Q508 331 508 263Q508 -6 334 -6Q289 -6 231 16T147 58L126 0H56V785H146ZM324 80Q416 80 416 264Q416 378 392 418Q369
455 324 455Q234 455 147 431V123Q242 80 324 80Z" />
<glyph unicode="c" glyph-name="c" horiz-adv-x="498" d="M47 199T47 266T55 381T78 459T116 507Q156 536 222 536Q282 536 350 527T454 508V446Q327 452 272 452T204 450T177 437T156 407Q139 360 139 274T149 149T179 95T240 80Q320 80 426 87L461 90V25Q391
1 305 -3Q201 -8 171 -1T118 24T80 71T56 150Z" />
<glyph unicode="d" glyph-name="d" horiz-adv-x="554" d="M47 263Q47 421 95 484Q137 539 221 539Q273 539 326 526T408 500V785H499V0H429L408 58Q382 38 324 16T221 -6Q47 -6 47 263ZM139 264Q139 80 231 80Q313 80 408 123V431Q321 455 231 455Q200 455 181
441Q139 408 139 264Z" />
<glyph unicode="e" glyph-name="e" horiz-adv-x="525" d="M70 441Q83 471 100 489T145 518Q193 535 279 535Q381 535 417 516Q456 495 470 460Q488 416 488 345Q488 220 348 220H139Q139 135 161 107T243 79Q408 79 478 90V23Q386 -5 222 -5Q121 -5 84 54T47 250T70
441ZM396 347Q396 385 392 404T375 434T341 449T290 452T246 452T217 449T191 444T172 433T157 414T147 387Q139 361 139 301H338Q396 301 396 347Z" />
<glyph unicode="f" glyph-name="f" horiz-adv-x="401" d="M19 448V514L112 531V630Q112 680 119 700T132 732T149 753T173 771Q199 786 254 786T382 762V704L267 705Q217 706 208 672Q204 655 204 621V531H344V448H204V0H112V448H19Z" />
<glyph unicode="g" glyph-name="g" horiz-adv-x="555" d="M45 112Q45 141 60 166T104 198Q46 235 46 336T92 485T222 533H537V470L462 452Q463 450 469 439T477 423T483 404Q490 381 490 349T487 295T472 245T443 198T394 163T321 149H174Q133 149 133 121Q133
89 174 89H373Q438 89 474 51T510 -54V-116Q510 -229 421 -260Q393 -270 355 -270H205Q105 -270 65 -202Q44 -167 44 -116V-36L85 25Q45 52 45 112ZM180 4Q155 4 136 11V-111Q136 -160 163 -174Q185 -186 216 -186H347Q387 -186 402 -167T418 -112V-59Q418 -25
405 -11T354 4H180ZM223 233H309Q379 233 395 307Q398 322 398 331Q398 395 378 421T308 448H228Q138 448 138 341T223 233Z" />
<glyph unicode="h" glyph-name="h" horiz-adv-x="545" d="M148 784V470Q151 472 164 480T181 491T197 500T215 510T233 517T252 525T270 531T292 536Q318 540 337 540Q415 540 457 490T499 366V0H407V366Q407 411 385 433T319 456T241 444T148 402V0H56V784H148Z" />
<glyph unicode="i" glyph-name="i" horiz-adv-x="205" d="M47 615V678Q47 704 71 704H136Q147 704 153 697T159 678V615Q159 592 136 592H71Q60 592 54 598T47 615ZM55 0V531H147V0H55Z" />
<glyph unicode="j" glyph-name="j" horiz-adv-x="224" d="M56 615V678Q56 704 80 704H145Q156 704 162 697T168 678V615Q168 592 145 592H80Q69 592 63 598T56 615ZM66 -270V531H158V-4Q158 -15 158 -26Q158 -187 129 -270H66Z" />
<glyph unicode="k" glyph-name="k" horiz-adv-x="515" d="M56 0V782H148V345H185L374 531H497L271 304L497 0H385L185 262H148V0H56Z" />
<glyph unicode="l" glyph-name="l" horiz-adv-x="303" d="M56 189V783H148V195Q148 136 161 113T202 83Q278 62 285 62V0H190Q56 0 56 189Z" />
<glyph unicode="m" glyph-name="m" horiz-adv-x="891" d="M494 401V364V0H402V363Q402 404 379 428T321 453T257 446T209 431T148 400V0H56V531H125L148 469Q154 472 165 479T181 489T197 499T214 508T231 516T249 523T267 529T287 534Q310 537 336 537T392 529Q452
510 475 462Q569 537 683 537Q756 537 800 489T845 362V0H753V363Q753 419 714 442Q696 453 656 453Q570 453 494 401Z" />
<glyph unicode="n" glyph-name="n" horiz-adv-x="545" d="M56 0V531H125L148 470Q151 472 164 480T182 491T198 500T216 510T233 518T252 526T270 531T292 536Q318 540 337 540Q415 540 457 490T499 366V0H407V366Q407 432 358 450Q344 456 310 456T241 444T148
402V0H56Z" />
<glyph unicode="o" glyph-name="o" horiz-adv-x="565" d="M47 258Q47 367 70 427T143 511T283 536Q418 536 468 476T519 263T469 52T284 -5T99 54T47 258ZM145 366T142 335T139 260T142 187T155 138T174 107T204 89Q233 79 275 79T337 82T376 94T406 124Q427 167
427 258Q427 350 416 379T396 421T368 441Q340 452 297 452T236 450T200 442T172 423T154 388Z" />
<glyph unicode="p" glyph-name="p" horiz-adv-x="554" d="M303 537T339 537T406 522T456 481T487 420Q508 357 508 289T505 185T490 111T460 48Q418 -8 334 -8Q297 -8 243 2T146 30V-270H56V531H126L147 474Q185 503 244 520ZM324 76Q355 76 374 90Q416 123 416
266Q416 451 324 451Q241 451 147 408V100Q233 76 324 76Z" />
<glyph unicode="q" glyph-name="q" horiz-adv-x="555" d="M47 399T94 468T230 537T499 512V-270H407V29Q366 10 318 0T230 -10T156 3T102 40T68 100Q47 163 47 281ZM186 87T202 81T247 74T298 76Q340 79 407 98V454H241Q192 454 170 419Q147 383 144 352Q139 307
139 269V259Q139 178 144 158T157 121T175 96Z" />
<glyph unicode="r" glyph-name="r" horiz-adv-x="423" d="M231 514T265 525T343 537T404 529V439Q378 444 327 444T239 432T148 386V0H56V531H126L148 464Q151 466 171 479T211 503Z" />
<glyph unicode="s" glyph-name="s" horiz-adv-x="506" d="M256 536T337 529T442 517V451H187Q149 451 139 439T129 399V359Q129 323 146 315Q160 308 187 308H336Q380 308 411 290Q469 257 469 176V126Q469 -5 339 -5Q288 -5 187 2T59 17V81H327Q377 81 377 129V171Q377
204 358 215Q346 221 327 221H178Q105 221 71 250T37 355V401Q37 466 69 501T178 536Z" />
<glyph unicode="t" glyph-name="t" horiz-adv-x="379" d="M206 680V532H351V449H206V196Q206 137 219 114T260 84Q336 63 343 63V1H246Q114 1 114 190V449H19V511L114 532L134 680H206Z" />
<glyph unicode="u" glyph-name="u" horiz-adv-x="545" d="M47 166V531H139V165Q139 120 161 98T227 76T305 87T398 130V531H490V0H421L398 60Q392 57 374 46T349 32T325 20T299 8T272 -1Q245 -9 209 -9Q130 -9 89 41T47 166Z" />
<glyph unicode="v" glyph-name="v" horiz-adv-x="543" d="M19 531H118L271 124L426 531H525L318 0H221L19 531Z" />
<glyph unicode="w" glyph-name="w" horiz-adv-x="807" d="M19 531H118L262 124L388 531H484L435 368L543 124L690 531H789L595 0H498L391 242L311 0H210L19 531Z" />
<glyph unicode="x" glyph-name="x" horiz-adv-x="537" d="M22 0L212 266L22 531H135L267 339L402 531H515L323 263L507 0H402L269 190L136 0H22Z" />
<glyph unicode="y" glyph-name="y" horiz-adv-x="560" d="M20 531H119L237 128Q252 79 298 88Q300 89 300 89L440 531H540L319 -168L245 -270H184L273 0Q177 0 143 117L20 531Z" />
<glyph unicode="z" glyph-name="z" horiz-adv-x="460" d="M28 445V531H433V445L164 87H433V1H43V87L318 445H28Z" />
<glyph unicode="{" glyph-name="braceleft" horiz-adv-x="320" d="M104 425V656Q104 766 190 816Q236 842 302 842V756Q251 756 224 732T196 644V423Q196 386 172 364T108 334Q147 328 171 305T195 248V-28Q195 -76 222 -101T293 -126Q297 -126 302 -126V-210Q150
-210 113 -101Q103 -72 103 -38V242Q103 270 80 282T40 295T19 295V372Q21 372 29 373T43 374T60 377T77 382T91 392Q104 402 104 425Z" />
<glyph unicode="|" glyph-name="bar" horiz-adv-x="245" d="M80 -72V770H166V-72H80Z" />
<glyph unicode="}" glyph-name="braceright" horiz-adv-x="320" d="M27 -126Q71 -126 98 -101T125 -28V248Q125 293 167 318Q187 330 212 334Q172 341 148 363T124 423V644Q124 710 94 734Q66 756 19 756V842Q116 842 166 789T216 656V425Q216 392 244 383Q265
375 282 374T302 372V295Q296 295 286 295T260 291T230 274T217 242V-38Q217 -107 176 -155Q129 -210 19 -210V-126Q23 -126 27 -126Z" />
<glyph unicode="~" glyph-name="asciitilde" horiz-adv-x="432" d="M123 638T136 641T168 645T219 628T265 610T290 612T306 616T322 623T336 631T351 641T364 650L386 603Q383 600 376 593T365 581T353 569T339 557T325 547T308 538Q290 531 270 531T215 548T162
566T130 562T98 546T69 531L47 576Q53 581 68 595T90 615T110 629Z" />
<glyph unicode="&#xa1;" glyph-name="exclamdown" horiz-adv-x="270" d="M79 376V438Q79 459 103 461H162Q175 460 180 451T186 435V377Q184 350 163 350H103Q79 350 79 376ZM82 -270L90 262H176L185 -270H82Z" />
<glyph unicode="&#xa2;" glyph-name="cent" horiz-adv-x="489" d="M49 119T43 163T37 271T46 384T71 464Q100 521 162 534Q184 538 201 538T226 538V634H293V533Q377 524 445 508V446Q317 453 262 453T195 451T168 438T146 407Q129 361 129 275T139 148T170 93T230
78Q310 78 416 86L452 88V24Q383 0 293 -4V-96H225V-7Q223 -7 208 -7T172 -4T128 10T90 40T62 89Z" />
<glyph unicode="&#xa3;" glyph-name="sterling" horiz-adv-x="592" d="M47 0V72L117 89V325H47V378L117 396V499Q117 632 167 681Q200 714 236 722Q288 732 333 732Q403 732 510 720L546 716V644H353Q283 644 270 640T247 631T232 619T222 601T214 576Q209 541
209 502V396L467 380V326H209V89H545V0H47Z" />
<glyph unicode="&#xa4;" glyph-name="currency" horiz-adv-x="455" d="M132 443Q173 472 225 472T320 440L368 487L406 445L359 397Q382 359 382 310T354 219L406 168L362 127L312 177Q272 148 224 148T136 176L89 129L49 173L95 218Q66 260 66 311T92 401L48
446L90 485L132 443ZM153 383T140 361T127 305T155 241T223 211T292 241T321 312T293 381T231 409T176 396Z" />
<glyph unicode="&#xa5;" glyph-name="yen" horiz-adv-x="609" d="M513 326V260H341V214H513V149H341V0H249V149H86V214H249V260H86V326H239L19 732H119L296 396L488 732H591L352 326H513Z" />
<glyph unicode="&#xa6;" glyph-name="brokenbar" horiz-adv-x="246" d="M80 -72V256H166V-72H80ZM80 429V770H166V429H80Z" />
<glyph unicode="&#xa7;" glyph-name="section" horiz-adv-x="549" d="M51 590V654Q51 753 134 777Q157 784 191 784T325 777T460 765V698H195Q161 698 150 680Q144 670 143 652V592Q143 548 195 548H359Q439 548 469 516T498 421V367Q498 281 451 272Q497 265
497 186V118Q497 28 435 4Q404 -8 361 -8T219 -1T88 11V78H347Q375 78 389 86T405 119V182Q405 209 394 217T352 226H187Q119 226 86 251T52 348V403Q52 444 62 468T101 502Q51 519 51 590ZM143 357Q143 327 155 319T196 310H350Q390 310 398 324Q405 335 405 358V413Q405
439 399 449Q388 464 350 464H196Q164 464 154 454T143 411V357Z" />
<glyph unicode="&#xa8;" glyph-name="dieresis" horiz-adv-x="453" d="M47 560T47 582T62 619T100 634T137 619T152 582T137 545T100 529T63 544ZM302 560T302 582T317 619T355 634T392 619T407 582T392 545T355 529T318 544Z" />
<glyph unicode="&#xa9;" glyph-name="copyright" horiz-adv-x="808" d="M51 368Q51 732 286 732H545Q661 732 711 632Q740 575 747 518Q757 441 757 366T745 225T708 108T642 29T545 0H286Q233 0 191 24T123 87T81 175Q51 264 51 368ZM123 369Q123 312 132 260T161
165T212 96T286 70H544Q607 71 646 146T685 368Q685 503 664 561Q640 629 601 649Q577 662 545 662H286Q208 662 171 604Q123 530 123 369ZM229 365Q229 479 267 531T372 583T552 559V501Q468 513 379 513Q338 513 319 477T300 378T306 286T330 237T380 217Q453
217 558 233V175Q469 147 374 147Q268 147 240 257Q229 301 229 365Z" />
<glyph unicode="&#xaa;" glyph-name="ordfeminine" horiz-adv-x="364" d="M28 266V328H337V266H28ZM28 464V507Q28 548 55 573T139 598T228 598T260 598Q261 625 260 626Q260 652 246 663T200 674T112 671T40 666V715Q48 716 77 722T121 731Q168 739 218 739T301
714T335 633V378H284L261 426Q242 408 199 391T131 374Q87 374 58 399T28 464ZM101 478Q101 441 142 441Q192 441 243 464L260 471V550L141 541Q101 537 101 502V478Z" />
<glyph unicode="&#xab;" glyph-name="guillemotleft" horiz-adv-x="557" d="M47 354L253 557L311 499L163 354L316 205L258 146L47 354ZM242 354L448 557L507 499L358 354L511 205L453 146L242 354Z" />
<glyph unicode="&#xac;" glyph-name="logicalnot" horiz-adv-x="518" d="M46 252V336H472V159H388V252H46Z" />
<glyph unicode="&#xad;" glyph-name="uni00AD" horiz-adv-x="354" d="M20 247V333H334V247H20Z" />
<glyph unicode="&#xae;" glyph-name="registered" horiz-adv-x="808" d="M51 368Q51 732 286 732H545Q661 732 711 632Q740 575 747 518Q757 441 757 366T745 225T708 108T642 29T545 0H286Q233 0 191 24T123 87T81 175Q51 264 51 368ZM123 369Q123 312 132 260T161
165T212 96T286 70H544Q607 71 646 146T685 368Q685 503 664 561Q640 629 601 649Q577 662 545 662H286Q208 662 171 604Q123 530 123 369ZM257 153V580H436Q570 580 570 450Q570 365 526 338Q507 326 479 320L569 153H489L400 320L329 332V153H257ZM329 382H436Q475
382 486 395T498 439T493 483T477 502Q461 510 436 510H329V382Z" />
<glyph unicode="&#xaf;" glyph-name="overscore" horiz-adv-x="385" d="M47 531V598H339V531H47Z" />
<glyph unicode="&#xb0;" glyph-name="degree" horiz-adv-x="296" d="M47 604T47 632T60 683T97 721T148 735T199 721T236 684T250 632T237 581T200 544T149 530T98 543T61 580ZM127 684T112 669T97 636T104 606Q119 581 144 581T185 596T200 628T193 658Q178 684
153 684Z" />
<glyph unicode="&#xb1;" glyph-name="plusminus" horiz-adv-x="519" d="M52 82V168H468V82H52ZM52 386V472H216V636H302V472H468V386H302V220H216V386H52Z" />
<glyph unicode="&#xb2;" glyph-name="twosuperior" horiz-adv-x="390" d="M30 810V866Q148 882 217 882Q351 882 351 744Q351 710 334 672T298 607T245 547Q207 509 161 471H351V398H33V467Q40 472 66 491T109 525T154 562T200 605T237 648Q274 695 274 736T257
793T198 810H30Z" />
<glyph unicode="&#xb3;" glyph-name="threesuperior" horiz-adv-x="406" d="M28 859Q81 877 186 877Q204 877 228 877Q289 877 320 844T351 759V725Q351 679 326 653Q315 642 300 636Q351 608 351 541V514Q351 456 322 425T223 394H185Q84 394 32 413L33 466L205
467Q257 467 270 489Q276 501 276 522V542Q276 602 209 604L72 609V667L209 674Q277 677 277 732V751Q277 806 209 806H28V859Z" />
<glyph unicode="&#xb4;" glyph-name="acute" horiz-adv-x="242" d="M19 531L121 666H224L94 531H19Z" />
<glyph unicode="&#xb5;" glyph-name="uni00B5" horiz-adv-x="592" d="M176 531V165Q176 120 198 98T264 76T342 87T435 130V531H527V0H459L435 60Q431 58 415 49T394 36T374 26T353 15T332 7T308 0Q277 -7 244 -7T176 13V-270H84V166V531H176Z" />
<glyph unicode="&#xb6;" glyph-name="paragraph" horiz-adv-x="579" d="M37 499V592Q37 659 83 695T193 732H561V648H497V0H415V650H329V-270H247V372Q247 372 238 367Q217 354 193 355Q118 355 78 396T37 499ZM119 504Q119 450 171 439Q182 436 195 436H247V650H195Q153
650 136 631T119 585V504Z" />
<glyph unicode="&#xb7;" glyph-name="middot" horiz-adv-x="269" d="M79 350V416Q79 441 103 441H165Q190 441 190 416V350Q190 327 165 327H103Q89 327 84 335T79 350Z" />
<glyph unicode="&#xb8;" glyph-name="cedilla" horiz-adv-x="249" d="M129 -37H203Q203 -115 182 -144T99 -174H47V-131L97 -116Q117 -108 123 -89T129 -37Z" />
<glyph unicode="&#xb9;" glyph-name="onesuperior" horiz-adv-x="270" d="M210 876V398H136V799L15 767V821L136 876H210Z" />
<glyph unicode="&#xba;" glyph-name="ordmasculine" horiz-adv-x="391" d="M101 373T65 413T28 555T64 697T196 737T327 697T363 555T328 413T197 373ZM40 269V330H351V269H40ZM107 619T105 599T103 546T108 490T128 457T156 445T191 442T221 442T241 445T258
451T271 463T281 482Q289 513 289 545T287 594T282 623T273 644T260 657T242 664Q225 668 201 668T167 667T144 663T125 653T113 632Z" />
<glyph unicode="&#xbb;" glyph-name="guillemotright" horiz-adv-x="557" d="M47 205L199 354L51 499L110 557L316 354L105 146L47 205ZM242 205L395 354L246 499L305 557L511 354L300 146L242 205Z" />
<glyph unicode="&#xbc;" glyph-name="onequarter" horiz-adv-x="910" d="M210 734V256H136V657L15 625V678L136 734H210ZM208 0L574 738H648L283 0H208ZM760 188V304L787 353H835V188H891V128L835 113V-1H760V113H521L498 143L697 476H780L610 188H760Z" />
<glyph unicode="&#xbd;" glyph-name="onehalf" horiz-adv-x="978" d="M210 734V256H136V657L15 625V678L136 734H210ZM202 0L568 738H643L277 0H202ZM618 411Q617 411 617 427T617 454L618 468Q737 484 806 484Q940 484 940 345Q940 275 878 198Q828 137 750 72H940V0H621V68Q625
72 660 98T714 140T765 185T816 237Q863 296 863 337T846 395T787 411H618Z" />
<glyph unicode="&#xbe;" glyph-name="threequarters" horiz-adv-x="1026" d="M28 716Q80 735 183 735Q202 735 229 735Q290 735 321 701T352 617V583Q352 549 338 526T301 494Q352 466 352 398V372Q352 314 323 283T224 252Q220 252 200 252T176 252T154 252T132
252T112 254T91 256T71 260Q53 263 32 270L33 323L206 324Q246 324 261 336T277 379V399Q277 460 210 462L72 467V524L210 531Q278 534 278 589V609Q278 663 210 663H28V716ZM308 0L673 738H748L383 0H308ZM850 186V305L874 354H922V186H978V128L922 114V0H850V114H607L585
144L783 476H862L693 186H850Z" />
<glyph unicode="&#xbf;" glyph-name="questiondown" horiz-adv-x="543" d="M355 -267T343 -267T315 -268T285 -269T255 -269T239 -268Q107 -268 61 -182Q37 -137 37 -77V17Q36 106 102 149Q151 182 224 182Q248 182 274 178V276H361L362 105Q317 106 283 106T220
105T167 77T140 11Q139 -60 139 -77Q139 -120 167 -149T251 -179Q255 -179 258 -179L524 -178Q523 -178 523 -205Q524 -238 523 -246Q516 -247 491 -251T460 -255T432 -259T402 -263T374 -265ZM370 448V385Q369 361 349 360H284Q265 364 264 385V446Q264 456 271
463T288 471H346Q370 470 370 448Z" />
<glyph unicode="&#xc0;" glyph-name="Agrave" horiz-adv-x="676" d="M186 932H289L391 797H316L186 932ZM42 0L305 732H402L654 0H549L489 193H212L149 0H42ZM241 280H461L353 600L241 280Z" />
<glyph unicode="&#xc1;" glyph-name="Aacute" horiz-adv-x="676" d="M316 797L419 932H521L391 797H316ZM42 0L305 732H402L654 0H549L489 193H212L149 0H42ZM241 280H461L353 600L241 280Z" />
<glyph unicode="&#xc2;" glyph-name="Acircumflex" horiz-adv-x="676" d="M205 797L320 928H400L502 797H425L357 865L283 797H205ZM42 0L305 732H402L654 0H549L489 193H212L149 0H42ZM241 280H461L353 600L241 280Z" />
<glyph unicode="&#xc3;" glyph-name="Atilde" horiz-adv-x="676" d="M411 872Q438 872 501 909L523 862Q521 860 508 849T489 833T472 820T450 808Q404 787 349 816Q318 832 301 832Q270 832 244 817T206 797L184 842Q241 892 272 902Q311 915 354 894T403 873T411
872ZM42 0L305 732H402L654 0H549L489 193H212L149 0H42ZM241 280H461L353 600L241 280Z" />
<glyph unicode="&#xc4;" glyph-name="Adieresis" horiz-adv-x="676" d="M173 828T173 850T189 887T227 902T264 887T279 850T264 813T227 797T189 812ZM428 828T428 850T444 887T482 902T519 887T534 850T519 813T482 797T444 812ZM42 0L305 732H402L654 0H549L489
193H212L149 0H42ZM241 280H461L353 600L241 280Z" />
<glyph unicode="&#xc5;" glyph-name="Aring" horiz-adv-x="676" d="M252 804T266 781T303 744T354 730T405 743T441 780T455 839T426 905T354 935T282 905T252 840ZM302 811T302 832T317 868T358 884T398 858Q405 846 405 829T390 796T354 781T318 796ZM42 0L305
732H402L654 0H549L489 193H212L149 0H42ZM241 280H461L353 600L241 280Z" />
<glyph unicode="&#xc6;" glyph-name="AE" horiz-adv-x="930" d="M509 733L549 732Q559 732 714 725T888 716V641H579Q544 641 536 624Q530 611 529 588V405L846 395V321L529 311V137Q529 118 532 112T538 101T545 95T552 92T562 90T571 89T581 89T591 89L887 88V12L582
-5Q573 -5 565 -5Q437 -5 437 121V218H236L129 0H28L322 596Q364 680 415 708Q460 733 509 733ZM437 305V626L279 305H437Z" />
<glyph unicode="&#xc7;" glyph-name="Ccedilla" horiz-adv-x="576" d="M272 -36H346Q346 -114 324 -144T242 -174H190V-130L240 -115Q259 -107 265 -88T272 -36ZM51 362Q51 442 57 497T80 599T124 677Q183 740 297 740Q419 740 544 713V640Q544 640 539 640T524
641T503 643T475 644T444 646T409 648T373 650Q336 651 298 651T230 640T181 598T152 511T143 393T145 299T153 239T167 186T188 143T218 110Q253 83 303 83Q399 83 508 88L544 90V18Q494 7 424 1T326 -6T297 -6Q161 -6 104 99Q51 197 51 362Z" />
<glyph unicode="&#xc8;" glyph-name="Egrave" horiz-adv-x="567" d="M173 927H275L378 793H303L173 927ZM74 129V596Q74 670 112 701T202 732Q206 732 357 725T527 716V642H218Q181 642 172 624Q166 610 166 586V410L485 400V325L166 315V139Q167 101 187 93Q203
87 228 87H527V14L219 -3Q211 -3 203 -3Q74 -3 74 129Z" />
<glyph unicode="&#xc9;" glyph-name="Eacute" horiz-adv-x="567" d="M284 793L386 927H489L359 793H284ZM74 129V596Q74 670 112 701T202 732Q206 732 357 725T527 716V642H218Q181 642 172 624Q166 610 166 586V410L485 400V325L166 315V139Q167 101 187 93Q203
87 228 87H527V14L219 -3Q211 -3 203 -3Q74 -3 74 129Z" />
<glyph unicode="&#xca;" glyph-name="Ecircumflex" horiz-adv-x="567" d="M168 797L283 928H363L465 797H388L320 865L246 797H168ZM74 129V596Q74 670 112 701T202 732Q206 732 357 725T527 716V642H218Q181 642 172 624Q166 610 166 586V410L485 400V325L166
315V139Q167 101 187 93Q203 87 228 87H527V14L219 -3Q211 -3 203 -3Q74 -3 74 129Z" />
<glyph unicode="&#xcb;" glyph-name="Edieresis" horiz-adv-x="567" d="M136 824T136 846T151 883T189 898T226 883T241 846T226 809T189 793T152 808ZM391 824T391 846T406 883T444 898T481 883T496 846T481 809T444 793T407 808ZM74 129V596Q74 670 112 701T202
732Q206 732 357 725T527 716V642H218Q181 642 172 624Q166 610 166 586V410L485 400V325L166 315V139Q167 101 187 93Q203 87 228 87H527V14L219 -3Q211 -3 203 -3Q74 -3 74 129Z" />
<glyph unicode="&#xcc;" glyph-name="Igrave" horiz-adv-x="222" d="M-47 932H56L158 797H83L-47 932ZM75 0V732H167V0H75Z" />
<glyph unicode="&#xcd;" glyph-name="Iacute" horiz-adv-x="222" d="M83 797L186 932H288L158 797H83ZM75 0V732H167V0H75Z" />
<glyph unicode="&#xce;" glyph-name="Icircumflex" horiz-adv-x="222" d="M-28 797L87 928H167L269 797H192L124 865L50 797H-28ZM75 0V732H167V0H75Z" />
<glyph unicode="&#xcf;" glyph-name="Idieresis" horiz-adv-x="222" d="M-60 828T-60 850T-44 887T-6 902T31 887T46 850T31 813T-6 797T-44 812ZM196 828T196 850T211 887T249 902T286 887T301 850T286 813T249 797T212 812ZM75 0V732H167V0H75Z" />
<glyph unicode="&#xd0;" glyph-name="Eth" horiz-adv-x="658" d="M10 344V402H75V731Q75 732 358 732Q488 732 552 636Q616 542 616 363Q616 177 531 76Q502 41 458 21T358 0H75V344H10ZM167 90H355Q413 90 451 128Q521 197 521 364Q521 640 355 640L167 639V402H298V344H167V90Z"
/>
<glyph unicode="&#xd1;" glyph-name="Ntilde" horiz-adv-x="679" d="M407 872Q434 872 496 909L519 862Q515 859 507 852T494 841T481 830T466 820T452 811T436 803Q396 789 344 816Q314 832 297 832Q269 832 254 824T225 809T201 797L179 842Q236 892 267 902Q306
915 349 894T399 873T407 872ZM75 0V732H169L532 171V732H624V0H532L168 560V0H75Z" />
<glyph unicode="&#xd2;" glyph-name="Ograve" horiz-adv-x="674" d="M180 932H283L385 797H310L180 932ZM61 362Q61 433 68 489T88 585T121 653T164 697T218 722Q269 737 329 737T418 734T479 722T532 697T574 653T607 586Q633 499 633 361Q633 199 598 123Q581
83 559 58T501 19Q442 -4 348 -4Q211 -4 159 35Q106 74 86 143Q61 227 61 362ZM171 554T162 499T153 382T155 288T160 229T170 182T185 147T205 121T230 103T263 92Q297 85 345 85T424 91T478 114T515 163Q541 226 541 361Q541 450 535 487T524 546T510 582T493
609T471 627T447 639T417 645Q389 648 345 648T278 645T226 628T184 584Z" />
<glyph unicode="&#xd3;" glyph-name="Oacute" horiz-adv-x="674" d="M310 797L413 932H515L385 797H310ZM61 362Q61 433 68 489T88 585T121 653T164 697T218 722Q269 737 329 737T418 734T479 722T532 697T574 653T607 586Q633 499 633 361Q633 199 598 123Q581
83 559 58T501 19Q442 -4 348 -4Q211 -4 159 35Q106 74 86 143Q61 227 61 362ZM171 554T162 499T153 382T155 288T160 229T170 182T185 147T205 121T230 103T263 92Q297 85 345 85T424 91T478 114T515 163Q541 226 541 361Q541 450 535 487T524 546T510 582T493
609T471 627T447 639T417 645Q389 648 345 648T278 645T226 628T184 584Z" />
<glyph unicode="&#xd4;" glyph-name="Ocircumflex" horiz-adv-x="674" d="M199 797L314 928H394L496 797H419L351 865L277 797H199ZM61 362Q61 433 68 489T88 585T121 653T164 697T218 722Q269 737 329 737T418 734T479 722T532 697T574 653T607 586Q633 499 633
361Q633 199 598 123Q581 83 559 58T501 19Q442 -4 348 -4Q211 -4 159 35Q106 74 86 143Q61 227 61 362ZM171 554T162 499T153 382T155 288T160 229T170 182T185 147T205 121T230 103T263 92Q297 85 345 85T424 91T478 114T515 163Q541 226 541 361Q541 450 535
487T524 546T510 582T493 609T471 627T447 639T417 645Q389 648 345 648T278 645T226 628T184 584Z" />
<glyph unicode="&#xd5;" glyph-name="Otilde" horiz-adv-x="674" d="M405 872Q432 872 495 909L517 862Q515 860 502 849T483 833T466 820T444 808Q398 787 343 816Q312 832 295 832Q266 832 237 816Q210 801 200 797L178 842Q235 892 266 902Q305 915 348 894T397
873T405 872ZM61 362Q61 433 68 489T88 585T121 653T164 697T218 722Q269 737 329 737T418 734T479 722T532 697T574 653T607 586Q633 499 633 361Q633 199 598 123Q581 83 559 58T501 19Q442 -4 348 -4Q211 -4 159 35Q106 74 86 143Q61 227 61 362ZM171 554T162
499T153 382T155 288T160 229T170 182T185 147T205 121T230 103T263 92Q297 85 345 85T424 91T478 114T515 163Q541 226 541 361Q541 450 535 487T524 546T510 582T493 609T471 627T447 639T417 645Q389 648 345 648T278 645T226 628T184 584Z" />
<glyph unicode="&#xd6;" glyph-name="Odieresis" horiz-adv-x="674" d="M167 828T167 850T183 887T221 902T258 887T273 850T258 813T221 797T183 812ZM422 828T422 850T438 887T476 902T513 887T528 850T513 813T476 797T438 812ZM61 362Q61 433 68 489T88 585T121
653T164 697T218 722Q269 737 329 737T418 734T479 722T532 697T574 653T607 586Q633 499 633 361Q633 199 598 123Q581 83 559 58T501 19Q442 -4 348 -4Q211 -4 159 35Q106 74 86 143Q61 227 61 362ZM171 554T162 499T153 382T155 288T160 229T170 182T185 147T205
121T230 103T263 92Q297 85 345 85T424 91T478 114T515 163Q541 226 541 361Q541 450 535 487T524 546T510 582T493 609T471 627T447 639T417 645Q389 648 345 648T278 645T226 628T184 584Z" />
<glyph unicode="&#xd7;" glyph-name="multiply" horiz-adv-x="459" d="M52 239L169 355L52 472L113 533L230 416L347 533L408 473L290 355L407 239L346 178L230 294L114 179L52 239Z" />
<glyph unicode="&#xd8;" glyph-name="Oslash" horiz-adv-x="676" d="M121 653Q142 681 163 697T217 722Q268 737 339 737T453 730T529 700L550 732H615L569 662Q634 578 634 361Q634 130 558 57Q518 19 469 8T351 -4T238 4T160 35L137 0H72L120 74Q62 155 62 364T121
653ZM181 165L478 624Q451 644 401 647Q382 648 354 648T312 648T280 645T251 639T226 628T204 610T187 584T172 547T162 499Q154 451 154 336T181 165ZM479 114Q542 158 542 361Q542 516 512 577L213 115Q251 85 343 85T479 114Z" />
<glyph unicode="&#xd9;" glyph-name="Ugrave" horiz-adv-x="673" d="M179 932H281L384 797H309L179 932ZM349 -5H335Q217 -5 179 20Q161 32 138 55T103 113Q75 197 75 320V732H167V320Q167 246 173 215T184 167T198 137T214 115T235 100T259 91T286 86Q312 84
342 84T389 85T426 91T459 106T486 132T507 175Q525 231 525 320V732H618V320Q618 124 549 57Q525 33 506 21T454 3Q412 -5 349 -5Z" />
<glyph unicode="&#xda;" glyph-name="Uacute" horiz-adv-x="673" d="M309 797L411 932H514L384 797H309ZM349 -5H335Q217 -5 179 20Q161 32 138 55T103 113Q75 197 75 320V732H167V320Q167 246 173 215T184 167T198 137T214 115T235 100T259 91T286 86Q312 84
342 84T389 85T426 91T459 106T486 132T507 175Q525 231 525 320V732H618V320Q618 124 549 57Q525 33 506 21T454 3Q412 -5 349 -5Z" />
<glyph unicode="&#xdb;" glyph-name="Ucircumflex" horiz-adv-x="673" d="M198 797L312 928H392L494 797H418L350 865L276 797H198ZM349 -5H335Q217 -5 179 20Q161 32 138 55T103 113Q75 197 75 320V732H167V320Q167 246 173 215T184 167T198 137T214 115T235
100T259 91T286 86Q312 84 342 84T389 85T426 91T459 106T486 132T507 175Q525 231 525 320V732H618V320Q618 124 549 57Q525 33 506 21T454 3Q412 -5 349 -5Z" />
<glyph unicode="&#xdc;" glyph-name="Udieresis" horiz-adv-x="673" d="M166 828T166 850T181 887T219 902T256 887T272 850T257 813T219 797T182 812ZM421 828T421 850T436 887T474 902T511 887T526 850T511 813T474 797T437 812ZM349 -5H335Q217 -5 179 20Q161
32 138 55T103 113Q75 197 75 320V732H167V320Q167 246 173 215T184 167T198 137T214 115T235 100T259 91T286 86Q312 84 342 84T389 85T426 91T459 106T486 132T507 175Q525 231 525 320V732H618V320Q618 124 549 57Q525 33 506 21T454 3Q412 -5 349 -5Z" />
<glyph unicode="&#xdd;" glyph-name="Yacute" horiz-adv-x="637" d="M290 797L393 932H496L366 797H290ZM364 0H272V251L42 732H142L319 357L514 732H614L364 251V0Z" />
<glyph unicode="&#xde;" glyph-name="Thorn" horiz-adv-x="554" d="M56 0V729H148V588H332Q508 586 508 375Q508 215 425 170Q386 149 332 149Q326 149 309 149T286 148T264 149T235 153Q192 159 148 168V0H56ZM148 236H320Q321 236 331 236T357 241T386 260Q415
289 415 376Q413 469 368 490Q348 500 320 500H148V236Z" />
<glyph unicode="&#xdf;" glyph-name="germandbls" horiz-adv-x="570" d="M225 82L385 77Q414 77 436 94T460 140V181Q460 209 422 222Q404 228 384 233T343 247T305 267Q266 292 266 343T287 424T378 507Q426 544 426 602Q426 690 285 690Q223 690 186 657T148
552V0H56V566Q56 657 116 717T284 778Q354 778 404 760T479 712Q518 666 518 607Q518 557 494 515T443 452Q433 443 415 428T390 406T373 389Q357 371 357 351T377 321T425 302T483 282T532 244T552 178V135Q552 95 537 66T497 21Q449 -8 391 -8Q338 -8 285 1T225
11V82Z" />
<glyph unicode="&#xe0;" glyph-name="agrave" horiz-adv-x="519" d="M99 736H202L304 601H229L99 736ZM54 510Q156 541 312 541Q410 541 450 475Q472 438 472 382V0H402L380 62Q377 59 347 44T266 11T176 -6Q114 -6 76 31T37 129V187Q37 248 73 285T176 323Q278
323 329 323T380 323Q381 352 381 366T381 390T377 412T367 434T350 448Q332 459 301 458Q219 458 54 447V510ZM129 138Q129 78 186 78Q219 78 267 90T348 115L380 127V257L184 243Q129 238 129 181V138Z" />
<glyph unicode="&#xe1;" glyph-name="aacute" horiz-adv-x="519" d="M225 601L327 736H430L300 601H225ZM54 510Q156 541 312 541Q410 541 450 475Q472 438 472 382V0H402L380 62Q377 59 347 44T266 11T176 -6Q114 -6 76 31T37 129V187Q37 248 73 285T176 323Q278
323 329 323T380 323Q381 352 381 366T381 390T377 412T367 434T350 448Q332 459 301 458Q219 458 54 447V510ZM129 138Q129 78 186 78Q219 78 267 90T348 115L380 127V257L184 243Q129 238 129 181V138Z" />
<glyph unicode="&#xe2;" glyph-name="acircumflex" horiz-adv-x="519" d="M116 601L230 732H310L412 601H335L267 669L194 601H116ZM54 510Q156 541 312 541Q410 541 450 475Q472 438 472 382V0H402L380 62Q377 59 347 44T266 11T176 -6Q114 -6 76 31T37 129V187Q37
248 73 285T176 323Q278 323 329 323T380 323Q381 352 381 366T381 390T377 412T367 434T350 448Q332 459 301 458Q219 458 54 447V510ZM129 138Q129 78 186 78Q219 78 267 90T348 115L380 127V257L184 243Q129 238 129 181V138Z" />
<glyph unicode="&#xe3;" glyph-name="atilde" horiz-adv-x="519" d="M317 676Q344 676 407 713L429 666Q427 664 414 653T395 637T377 624T356 612Q314 593 272 612Q253 620 238 628T215 636T197 636T173 631T141 616T112 601L90 646Q146 696 178 706Q217 719
260 698T309 677T317 676ZM54 510Q156 541 312 541Q410 541 450 475Q472 438 472 382V0H402L380 62Q377 59 347 44T266 11T176 -6Q114 -6 76 31T37 129V187Q37 248 73 285T176 323Q278 323 329 323T380 323Q381 352 381 366T381 390T377 412T367 434T350 448Q332
459 301 458Q219 458 54 447V510ZM129 138Q129 78 186 78Q219 78 267 90T348 115L380 127V257L184 243Q129 238 129 181V138Z" />
<glyph unicode="&#xe4;" glyph-name="adieresis" horiz-adv-x="519" d="M82 632T82 654T97 691T135 707T172 692T188 654T173 617T135 601T98 616ZM337 632T337 654T352 691T390 707T427 692T443 654T428 617T390 601T353 616ZM54 510Q156 541 312 541Q410 541
450 475Q472 438 472 382V0H402L380 62Q377 59 347 44T266 11T176 -6Q114 -6 76 31T37 129V187Q37 248 73 285T176 323Q278 323 329 323T380 323Q381 352 381 366T381 390T377 412T367 434T350 448Q332 459 301 458Q219 458 54 447V510ZM129 138Q129 78 186 78Q219
78 267 90T348 115L380 127V257L184 243Q129 238 129 181V138Z" />
<glyph unicode="&#xe5;" glyph-name="aring" horiz-adv-x="519" d="M222 576T192 605T162 670T176 729T213 766T264 780T315 767T351 730T365 678T352 626T315 590T257 576ZM212 699T212 678T227 642T264 627T300 641T315 677T300 714T264 729T228 714ZM54 510Q156
541 312 541Q410 541 450 475Q472 438 472 382V0H402L380 62Q377 59 347 44T266 11T176 -6Q114 -6 76 31T37 129V187Q37 248 73 285T176 323Q278 323 329 323T380 323Q381 352 381 366T381 390T377 412T367 434T350 448Q332 459 301 458Q219 458 54 447V510ZM129
138Q129 78 186 78Q219 78 267 90T348 115L380 127V257L184 243Q129 238 129 181V138Z" />
<glyph unicode="&#xe6;" glyph-name="ae" horiz-adv-x="863" d="M54 515Q143 546 312 546Q399 546 439 492Q474 529 542 537Q572 540 613 540T678 538T729 530T771 512T801 478Q826 440 826 352Q826 229 686 229H477Q477 143 499 114T581 84Q747 84 816 95V28Q725
0 560 0Q502 0 470 17T408 70Q405 66 367 49T272 16T176 -1Q114 -1 76 36T37 134V172Q37 233 72 270Q109 309 176 309Q278 308 329 308T380 309Q381 347 381 366T381 395T377 417T367 439T350 454Q332 464 301 464Q226 464 54 452V515ZM129 142Q129 109 144 97T189
84T267 96T348 120L380 132V248L184 234Q129 229 129 172V142ZM734 354Q734 391 731 410T713 441T680 454T630 457T591 457T566 456T544 453T526 448T510 439T498 425T488 406T482 381Q477 358 477 308H676Q734 308 734 354Z" />
<glyph unicode="&#xe7;" glyph-name="ccedilla" horiz-adv-x="498" d="M65 101T56 150T47 260T52 365T69 438T96 487T131 518Q169 538 222 538Q327 538 454 508V446Q327 453 272 453T204 451T177 438T156 407Q139 361 139 275T149 148T179 93T240 78Q320 78 426
86L461 88V24Q391 0 305 -5Q201 -10 171 -2T118 23T80 71ZM252 -37H327Q327 -115 305 -145T223 -175H170V-131L221 -116Q240 -108 246 -89T252 -37Z" />
<glyph unicode="&#xe8;" glyph-name="egrave" horiz-adv-x="525" d="M112 730H215L317 596H242L112 730ZM70 441Q83 471 100 489T145 518Q193 535 279 535Q381 535 417 516Q456 495 470 460Q488 416 488 346Q488 220 348 220H139Q139 135 161 107T243 79Q408 79
478 90V23Q386 -5 222 -5Q121 -5 84 54T47 250T70 441ZM338 301Q396 301 396 347Q396 385 392 404T375 434T341 449T291 452T250 452T223 450T199 446T180 438T164 425T153 406T145 380Q139 343 139 301H338Z" />
<glyph unicode="&#xe9;" glyph-name="eacute" horiz-adv-x="525" d="M234 596L336 730H439L309 596H234ZM70 441Q83 471 100 489T145 518Q193 535 279 535Q381 535 417 516Q456 495 470 460Q488 416 488 346Q488 220 348 220H139Q139 135 161 107T243 79Q408 79
478 90V23Q386 -5 222 -5Q121 -5 84 54T47 250T70 441ZM338 301Q396 301 396 347Q396 385 392 404T375 434T341 449T291 452T250 452T223 450T199 446T180 438T164 425T153 406T145 380Q139 343 139 301H338Z" />
<glyph unicode="&#xea;" glyph-name="ecircumflex" horiz-adv-x="525" d="M124 596L238 728H318L420 596H343L275 664L202 596H124ZM70 441Q83 471 100 489T145 518Q193 535 279 535Q381 535 417 516Q456 495 470 460Q488 416 488 346Q488 220 348 220H139Q139
135 161 107T243 79Q408 79 478 90V23Q386 -5 222 -5Q121 -5 84 54T47 250T70 441ZM338 301Q396 301 396 347Q396 385 392 404T375 434T341 449T291 452T250 452T223 450T199 446T180 438T164 425T153 406T145 380Q139 343 139 301H338Z" />
<glyph unicode="&#xeb;" glyph-name="edieresis" horiz-adv-x="525" d="M89 627T89 649T104 686T142 702T179 687T195 649T180 612T142 596T105 611ZM344 627T344 649T359 686T397 702T434 687T450 649T435 612T397 596T360 611ZM70 441Q83 471 100 489T145 518Q193
535 279 535Q381 535 417 516Q456 495 470 460Q488 416 488 346Q488 220 348 220H139Q139 135 161 107T243 79Q408 79 478 90V23Q386 -5 222 -5Q121 -5 84 54T47 250T70 441ZM338 301Q396 301 396 347Q396 385 392 404T375 434T341 449T291 452T250 452T223 450T199
446T180 438T164 425T153 406T145 380Q139 343 139 301H338Z" />
<glyph unicode="&#xec;" glyph-name="igrave" horiz-adv-x="204" d="M-65 730H37L140 596H65L-65 730ZM56 0V531H148V0H56Z" />
<glyph unicode="&#xed;" glyph-name="iacute" horiz-adv-x="204" d="M65 596L167 730H270L140 596H65ZM56 0V531H148V0H56Z" />
<glyph unicode="&#xee;" glyph-name="icircumflex" horiz-adv-x="204" d="M-46 596L68 728H148L250 596H173L106 664L32 596H-46ZM56 0V531H148V0H56Z" />
<glyph unicode="&#xef;" glyph-name="idieresis" horiz-adv-x="204" d="M-78 627T-78 649T-63 686T-25 702T12 687T27 649T12 612T-25 596T-62 611ZM208 596T193 611T177 643T181 669T192 686Q208 702 230 702T267 687T282 649T267 612T230 596ZM56 0V531H148V0H56Z" />
<glyph unicode="&#xf0;" glyph-name="eth" d="M118 0T78 62T37 261T78 464T218 531H306Q362 531 377 518Q354 595 308 640L171 583L146 642L245 684Q201 705 136 705Q126 705 116 704V783Q258 783 338 724L449 770L475 710L391 676Q501 542 501 264Q501 123 454
62T319 0H218Q118 0 78 62ZM138 372T134 341T129 263T134 184T146 133T167 106T192 94T224 91H313Q369 91 389 132T409 272T390 406T313 442H224Q185 442 169 427T145 392Z" />
<glyph unicode="&#xf1;" glyph-name="ntilde" horiz-adv-x="545" d="M335 675Q362 675 425 712L447 665Q445 663 432 652T413 636T396 623T374 611Q328 590 273 619Q242 635 225 635Q194 635 168 620T130 600L108 645Q165 695 196 705Q235 718 278 697T327 676T335
675ZM56 0V531H125L148 470Q152 473 169 483T201 502T239 520Q283 540 337 540Q415 540 457 490T499 366V0H407V366Q407 411 385 433T319 456T241 444T148 402V0H56Z" />
<glyph unicode="&#xf2;" glyph-name="ograve" horiz-adv-x="565" d="M124 730H226L329 596H254L124 730ZM47 258Q47 367 70 427T143 511T283 536Q418 536 468 476T519 263T469 52T284 -5T99 54T47 258ZM145 366T142 335T139 260T142 187T155 138T174 107T204 89Q233
79 275 79T337 82T376 94T406 124Q427 167 427 258Q427 350 416 379T396 421T368 441Q340 452 297 452T236 450T200 442T172 423T154 388Z" />
<glyph unicode="&#xf3;" glyph-name="oacute" horiz-adv-x="565" d="M245 596L348 730H450L320 596H245ZM47 258Q47 367 70 427T143 511T283 536Q418 536 468 476T519 263T469 52T284 -5T99 54T47 258ZM145 366T142 335T139 260T142 187T155 138T174 107T204 89Q233
79 275 79T337 82T376 94T406 124Q427 167 427 258Q427 350 416 379T396 421T368 441Q340 452 297 452T236 450T200 442T172 423T154 388Z" />
<glyph unicode="&#xf4;" glyph-name="ocircumflex" horiz-adv-x="565" d="M139 596L253 728H333L435 596H358L291 664L217 596H139ZM47 258Q47 367 70 427T143 511T283 536Q418 536 468 476T519 263T469 52T284 -5T99 54T47 258ZM145 366T142 335T139 260T142
187T155 138T174 107T204 89Q233 79 275 79T337 82T376 94T406 124Q427 167 427 258Q427 350 416 379T396 421T368 441Q340 452 297 452T236 450T200 442T172 423T154 388Z" />
<glyph unicode="&#xf5;" glyph-name="otilde" horiz-adv-x="565" d="M348 671Q375 671 438 708L460 661Q458 659 445 648T426 632T409 619T387 607Q341 586 286 615Q255 631 238 631Q207 631 181 616T143 596L121 641Q145 662 160 674Q202 706 231 706T281 697T318
680Q335 671 348 671ZM47 258Q47 367 70 427T143 511T283 536Q418 536 468 476T519 263T469 52T284 -5T99 54T47 258ZM145 366T142 335T139 260T142 187T155 138T174 107T204 89Q233 79 275 79T337 82T376 94T406 124Q427 167 427 258Q427 350 416 379T396 421T368
441Q340 452 297 452T236 450T200 442T172 423T154 388Z" />
<glyph unicode="&#xf6;" glyph-name="odieresis" horiz-adv-x="565" d="M104 627T104 649T119 686T157 702T194 687T209 649T194 612T157 596T120 611ZM359 627T359 649T374 686T412 702T449 687T464 649T449 612T412 596T375 611ZM47 258Q47 367 70 427T143 511T283
536Q418 536 468 476T519 263T469 52T284 -5T99 54T47 258ZM145 366T142 335T139 260T142 187T155 138T174 107T204 89Q233 79 275 79T337 82T376 94T406 124Q427 167 427 258Q427 350 416 379T396 421T368 441Q340 452 297 452T236 450T200 442T172 423T154 388Z"
/>
<glyph unicode="&#xf7;" glyph-name="divide" horiz-adv-x="511" d="M47 310V396H464V310H47ZM205 168V226Q205 250 229 250H285Q309 250 309 226V168Q309 145 285 145H229Q218 145 212 151T205 168ZM205 474V531Q205 556 229 556H285Q309 556 309 531V474Q309
451 285 451H229Q211 451 206 466Q205 470 205 474Z" />
<glyph unicode="&#xf8;" glyph-name="oslash" horiz-adv-x="571" d="M94 63Q50 120 50 243T73 427T146 511T288 536T430 510L446 531H515L473 475Q522 416 522 263T472 52T286 -5Q186 -5 133 27L112 0H48L94 63ZM148 366T145 335T142 243T159 146L375 438Q349
452 303 452T239 450T203 442T175 423T157 388ZM349 80T374 92T409 124Q430 167 430 262T410 395L188 99Q214 80 281 80Z" />
<glyph unicode="&#xf9;" glyph-name="ugrave" horiz-adv-x="545" d="M109 730H212L314 596H239L109 730ZM47 166V531H139V165Q139 120 161 98T227 76T305 87T398 130V531H490V0H421L398 60Q392 57 374 46T349 32T325 20T299 8T272 -1Q245 -9 209 -9Q130 -9 89 41T47 166Z" />
<glyph unicode="&#xfa;" glyph-name="uacute" horiz-adv-x="545" d="M231 596L333 730H436L306 596H231ZM47 166V531H139V165Q139 120 161 98T227 76T305 87T398 130V531H490V0H421L398 60Q392 57 374 46T349 32T325 20T299 8T272 -1Q245 -9 209 -9Q130 -9 89 41T47 166Z" />
<glyph unicode="&#xfb;" glyph-name="ucircumflex" horiz-adv-x="545" d="M120 596L234 728H314L416 596H339L272 664L198 596H120ZM47 166V531H139V165Q139 120 161 98T227 76T305 87T398 130V531H490V0H421L398 60Q392 57 374 46T349 32T325 20T299 8T272 -1Q245
-9 209 -9Q130 -9 89 41T47 166Z" />
<glyph unicode="&#xfc;" glyph-name="udieresis" horiz-adv-x="545" d="M88 627T88 649T103 686T141 702T178 687T193 649T178 612T141 596T104 611ZM343 627T343 649T358 686T396 702T433 687T448 649T433 612T396 596T359 611ZM47 166V531H139V165Q139 120 161
98T227 76T305 87T398 130V531H490V0H421L398 60Q392 57 374 46T349 32T325 20T299 8T272 -1Q245 -9 209 -9Q130 -9 89 41T47 166Z" />
<glyph unicode="&#xfd;" glyph-name="yacute" horiz-adv-x="560" d="M242 596L345 730H447L317 596H242ZM20 531H119L237 128Q252 79 298 88Q300 89 300 89L440 531H540L319 -168L245 -270H184L273 0Q177 0 143 117L20 531Z" />
<glyph unicode="&#xfe;" glyph-name="thorn" horiz-adv-x="554" d="M65 -270V782H157V472Q198 503 255 520T347 538T412 524T461 484T494 424Q517 359 517 266Q517 109 470 46Q428 -11 343 -11Q305 -11 252 -1T157 28V-270H65ZM401 103T413 146T425 273T401 404T333
452Q255 448 157 406V96Q219 78 309 74Q328 73 333 73Q363 73 382 88Z" />
<glyph unicode="&#xff;" glyph-name="ydieresis" horiz-adv-x="560" d="M99 627T99 649T115 686T153 702T190 687T205 649T190 612T153 596T115 611ZM354 627T354 649T370 686T408 702T445 687T460 649T445 612T408 596T370 611ZM20 531H119L237 128Q252 79 298
88Q300 89 300 89L440 531H540L319 -168L245 -270H184L273 0Q177 0 143 117L20 531Z" />
<glyph unicode="&#x2013;" glyph-name="endash" horiz-adv-x="513" d="M20 244V331H493V244H20Z" />
<glyph unicode="&#x2014;" glyph-name="emdash" horiz-adv-x="736" d="M20 246V333H716V246H20Z" />
<glyph unicode="&#x2018;" glyph-name="quoteleft" horiz-adv-x="267" d="M75 546V654Q75 684 86 704T114 731Q140 742 155 742T175 742L186 740V699Q186 699 185 699Q153 699 153 666V640H165Q192 640 192 613V546Q192 516 165 516H100Q75 516 75 546Z" />
<glyph unicode="&#x2019;" glyph-name="quoteright" horiz-adv-x="267" d="M75 646V713Q75 742 102 742H167Q192 742 192 713V605Q192 574 181 554T153 527Q126 516 111 516T92 516L81 518V558Q81 558 82 558Q114 558 114 593V618H102Q75 618 75 646Z" />
<glyph unicode="&#x201a;" glyph-name="quotesinglbase" horiz-adv-x="267" d="M75 27V94Q75 124 102 124H167Q192 124 192 94V-14Q192 -45 181 -65T153 -92Q126 -103 112 -103T92 -103L81 -101V-60Q81 -60 82 -60Q114 -60 114 -26V-1H102Q90 -1 83 6T75 27Z" />
<glyph unicode="&#x201c;" glyph-name="quotedblleft" horiz-adv-x="420" d="M235 546V654Q235 684 246 704T274 731Q301 742 316 742T335 741L347 740V699Q346 699 345 699Q313 699 313 666V640H325Q337 640 344 633T352 613V546Q352 516 325 516H261Q235 516
235 546ZM68 546V654Q68 684 79 704T108 731Q134 742 149 742T168 741L180 740V699Q179 699 178 699Q146 699 146 666V640H158Q186 640 186 613V546Q186 516 158 516H94Q68 516 68 546Z" />
<glyph unicode="&#x201d;" glyph-name="quotedblright" horiz-adv-x="420" d="M92 516Q84 516 73 518V558Q74 558 75 558Q107 558 107 592V618H95Q83 618 76 625T68 645V712Q68 742 95 742H159Q186 742 186 712V604Q186 516 92 516ZM259 516Q251 516 240 518V558Q241
558 242 558Q274 558 274 592V618H262Q235 618 235 645V712Q235 742 262 742H326Q352 742 352 712V604Q352 516 259 516Z" />
<glyph unicode="&#x201e;" glyph-name="quotedblbase" horiz-adv-x="420" d="M93 -103Q85 -103 73 -101V-60Q74 -60 75 -60Q107 -60 107 -26V-1H95Q83 -1 76 6T68 27V94Q68 124 95 124H159Q186 124 186 94V-14Q186 -103 93 -103ZM260 -103Q252 -103 240 -101V-60Q241
-60 242 -60Q274 -60 274 -26V-1H262Q250 -1 243 6T235 27V94Q235 124 262 124H326Q352 124 352 94V-14Q352 -103 260 -103Z" />
<glyph unicode="&#x2022;" glyph-name="bullet" horiz-adv-x="311" d="M79 336V426Q79 461 112 461H197Q232 461 232 426V336Q232 304 197 304H112Q97 304 88 312T79 336Z" />
<glyph unicode="&#x2039;" glyph-name="guilsinglleft" horiz-adv-x="356" d="M47 354L253 557L311 499L163 354L316 205L258 146L47 354Z" />
<glyph unicode="&#x203a;" glyph-name="guilsinglright" horiz-adv-x="356" d="M47 205L199 354L51 499L110 557L316 354L105 146L47 205Z" />
</font>
</defs>
</svg>
