<?xml version="1.0" standalone="no"?>
<!DOCTYPE svg PUBLIC "-//W3C//DTD SVG 1.1//EN" "http://www.w3.org/Graphics/SVG/1.1/DTD/svg11.dtd">
<svg xmlns="http://www.w3.org/2000/svg">
<defs >
<font id="Exo" horiz-adv-x="533" ><font-face
    font-family="Exo"
    units-per-em="1000"
    panose-1="2 0 3 3 0 0 0 0 0 0"
    ascent="1002"
    descent="-327"
    alphabetic="0" />
<glyph unicode=" " glyph-name="space" horiz-adv-x="244" />
<glyph unicode="!" glyph-name="exclam" horiz-adv-x="255" d="M117 99H158Q177 99 174 78L165 19Q162 0 143 0H102Q93 0 88 5T85 19L94 78Q97 99 117 99ZM123 199L201 731H268L177 199H123Z" />
<glyph unicode="&quot;" glyph-name="quotedbl" horiz-adv-x="349" d="M156 531L168 665L179 732H237L226 665L196 531H156ZM280 531L291 665L302 732H361L350 665L320 531H280Z" />
<glyph unicode="#" glyph-name="numbersign" horiz-adv-x="668" d="M56 238L68 277H234L290 455H124L138 494H302L378 732H417L341 494H514L588 732H627L553 494H730L716 455H539L483 276H660L648 237H471L395 0H356L432 237L259 238L184 0H145L221 238H56ZM272
277L444 276L500 455H328L272 277Z" />
<glyph unicode="$" glyph-name="dollar" horiz-adv-x="574" d="M87 54Q274 48 310 48T369 52T417 68Q470 92 480 156L490 224Q494 248 494 261T493 282Q489 330 406 330H285Q202 330 167 367Q132 403 132 446Q132 466 135 494L145 560Q162 660 217 698T369 738L383
824H427L414 736Q453 733 597 716L590 673L367 682Q360 682 353 682Q293 682 254 657T203 560L192 494Q190 478 190 465Q190 429 210 409T294 388H415Q464 388 495 374T537 337Q553 305 553 275T548 224L537 156Q511 -8 317 -8Q307 -8 296 -8L283 -89H238L252 -4Q127
7 80 14L87 54Z" />
<glyph unicode="%" glyph-name="percent" horiz-adv-x="969" d="M285 732H386Q453 732 478 703Q496 682 496 643Q496 626 493 607L472 474Q461 404 431 377T325 349H224Q112 349 112 443Q112 458 115 474L136 607Q146 674 177 703T285 732ZM164 474Q161 459 161
442T173 411T230 398H331Q378 398 397 413T424 474L444 607Q448 624 448 635T445 658Q439 683 379 684H278Q229 684 211 668T184 607L164 474ZM225 0L779 732H833L279 0H225ZM739 384H840Q908 384 933 355Q951 334 951 294Q951 278 948 259L927 126Q916 56 885
29T779 1H678Q568 1 568 95Q568 110 570 126L591 259Q602 326 632 355T739 384ZM619 126Q617 111 617 94T629 63T685 49H786Q833 49 852 64T879 126L900 259Q903 275 903 292T892 322T833 335H732Q671 335 654 306Q645 290 640 259L619 126Z" />
<glyph unicode="&amp;" glyph-name="ampersand" horiz-adv-x="646" d="M63 181Q63 206 70 231Q92 306 171 366L266 439L217 524Q193 566 193 603T210 665Q246 718 313 727Q359 732 426 732T584 715L578 678H372Q264 678 247 620Q245 613 245 604Q245 577 267 539L468
192L617 322L635 306L561 200L497 143L582 0H523L457 111L381 44Q324 -5 250 -5Q214 -5 179 9Q125 29 93 80Q63 130 63 181ZM253 49Q302 49 344 85L429 158L294 389L207 323Q117 256 117 179Q117 143 140 110Q179 49 253 49Z" />
<glyph unicode="&apos;" glyph-name="quotesingle" horiz-adv-x="168" d="M130 531L142 665L153 732H211L200 665L170 531H130Z" />
<glyph unicode="(" glyph-name="parenleft" horiz-adv-x="315" d="M263 601T231 515T184 346T170 222Q170 100 186 28Q214 -97 250 -164L264 -190H201Q187 -166 163 -100T130 25Q112 144 112 215T127 349Q140 431 170 516T232 664Q299 793 346 854L366 880H433Q406
846 365 783T294 660Z" />
<glyph unicode=")" glyph-name="parenright" horiz-adv-x="316" d="M157 85T189 172T235 342T250 464Q250 585 234 658Q206 784 170 853L157 880H219Q259 803 285 679Q305 584 305 489Q305 332 249 170Q205 42 125 -90Q94 -140 75 -165L55 -190H-13Q14 -158 54
-96T126 26Z" />
<glyph unicode="*" glyph-name="asterisk" horiz-adv-x="454" d="M139 575L144 606L287 627L282 569L139 575ZM186 412L234 547L289 534L213 403L186 412ZM287 482L326 531L425 443L404 418L287 482ZM292 719L324 731L378 611L321 587L292 719ZM343 565L473 643L484
616L374 521L343 565Z" />
<glyph unicode="+" glyph-name="plus" horiz-adv-x="518" d="M100 327L109 385H283L310 559H368L340 385H515L506 327H331L303 153H246L274 327H100Z" />
<glyph unicode="," glyph-name="comma" horiz-adv-x="235" d="M76 -58Q100 -58 105 -32L110 0H100Q91 0 86 5T83 21L92 78Q95 100 116 100H154Q170 100 170 83Q170 81 170 78L155 -20Q148 -61 117 -76Q103 -83 91 -83T71 -81L74 -58Q75 -58 76 -58Z" />
<glyph unicode="-" glyph-name="hyphen" horiz-adv-x="347" d="M60 261L69 319H373L364 261H60Z" />
<glyph unicode="." glyph-name="period" horiz-adv-x="238" d="M115 99H154Q172 99 172 84Q172 81 172 78L162 19Q159 0 139 0H100Q91 0 86 5T82 19L92 78Q94 99 115 99Z" />
<glyph unicode="/" glyph-name="slash" horiz-adv-x="364" d="M8 -72L422 770H482L68 -72H8Z" />
<glyph unicode="0" glyph-name="zero" horiz-adv-x="644" d="M357 732H511Q596 732 630 685Q656 650 656 602Q656 587 653 570L588 162Q574 76 526 38T395 0H241Q166 0 124 39Q92 69 92 125Q92 142 95 162L160 570Q173 652 224 692T357 732ZM152 162Q151 140 151
123T158 95T173 76T194 64Q217 58 250 58H404Q514 58 531 162L596 570Q598 585 598 607T583 649Q561 674 502 674H348Q234 674 218 570L152 162Z" />
<glyph unicode="1" glyph-name="one" horiz-adv-x="375" d="M134 604L141 645Q182 645 212 657T260 679T292 698Q321 717 338 732H394L280 0H222L327 658Q301 639 250 622T134 604Z" />
<glyph unicode="2" glyph-name="two" horiz-adv-x="588" d="M566 572Q566 683 439 683H148L155 725Q289 742 452 742Q554 742 594 679Q623 633 623 569Q623 511 602 467T553 386T491 314T418 244T344 181T273 126Q212 82 174 58H543L534 0H47L56 53Q248 176 349
263Q480 375 526 447Q557 494 561 524T566 572Z" />
<glyph unicode="3" glyph-name="three" horiz-adv-x="589" d="M335 51Q386 51 426 78T476 163L485 222Q488 239 488 253T483 286T461 315Q432 333 384 335L152 342L160 385L394 394Q449 396 486 423T532 501L542 570Q544 584 544 595Q544 676 440 676H138L143
712Q199 728 260 731T370 735T456 734Q533 733 572 686Q602 651 602 600Q602 585 600 569L589 500Q579 440 548 406T483 364Q527 345 542 291Q547 273 547 255T545 220L535 161Q509 -7 331 -7Q190 -7 131 -2T39 15L45 51H335Z" />
<glyph unicode="4" glyph-name="four" horiz-adv-x="592" d="M55 228L451 732H522L149 255H459L493 472L535 547H564L518 255H608L601 211L509 195L478 2H419L449 195H76L55 228Z" />
<glyph unicode="5" glyph-name="five" horiz-adv-x="610" d="M360 443L450 441Q524 441 561 394Q589 358 589 306Q589 289 586 272L570 165Q543 -3 380 -5Q365 -5 316 -5Q194 -5 79 15L86 56H387Q437 56 471 88T512 167L529 270Q532 287 532 302Q532 384 443 384H291Q252
384 219 359T178 292H124L216 732H639L629 674H261L204 399Q239 439 307 442Q340 443 360 443Z" />
<glyph unicode="6" glyph-name="six" horiz-adv-x="625" d="M185 403Q339 420 457 420Q532 420 564 387Q596 354 596 315Q596 298 594 272L575 148Q562 68 516 34T395 0H255Q149 0 120 114Q109 155 109 223T124 385T164 549T222 660Q283 738 352 738Q532 738 641
722L635 680H353Q318 680 288 651T237 576Q199 489 185 403ZM165 219Q165 55 260 55H399Q503 55 518 151L537 270Q539 286 539 308T521 346T447 363H178Q165 279 165 219Z" />
<glyph unicode="7" glyph-name="seven" horiz-adv-x="544" d="M134 674L143 732H595L612 692L247 0H179L537 674H134Z" />
<glyph unicode="8" glyph-name="eight" horiz-adv-x="635" d="M525 381Q590 360 590 279Q590 266 588 252L573 154Q555 45 477 15Q440 0 387 0H252Q204 0 171 13T123 43T102 83T96 120T99 154L114 252Q120 288 139 313Q174 361 228 365Q194 374 175 398T154 441T152
474T153 501L164 566Q179 662 228 699T365 737H501Q579 737 615 692Q641 659 641 604Q641 584 638 562L627 497Q621 447 580 409Q556 386 525 381ZM154 129Q154 96 177 77T262 57H394Q436 57 471 79T514 151L531 256Q533 268 533 278Q533 310 510 327T445 345H295Q253
345 217 324T173 256L156 151Q154 139 154 129ZM210 494Q208 483 208 471T213 443T235 418Q264 402 303 402H452Q507 402 535 429T569 494L580 562Q583 584 583 610Q583 679 491 679H356Q289 679 260 652T220 562L210 494Z" />
<glyph unicode="9" glyph-name="nine" horiz-adv-x="625" d="M543 333Q389 316 268 316Q193 316 162 349Q131 382 131 422Q131 437 133 465L153 590Q176 736 337 736H474Q619 736 619 515Q619 443 606 358T573 212T531 112T481 46Q432 -2 376 -2Q177 -2 86 14L93
56H374Q432 56 478 136Q522 214 543 333ZM188 437Q188 405 207 389T282 373H550Q563 458 563 519Q563 681 469 681H329Q223 681 208 585L190 464Q188 449 188 437Z" />
<glyph unicode=":" glyph-name="colon" horiz-adv-x="240" d="M117 99H156Q174 99 174 84Q174 81 173 78L164 19Q161 0 141 0H101Q93 0 88 5T84 19L93 78Q96 99 117 99ZM163 531T184 531H223Q241 531 241 516Q241 514 240 511L231 452Q228 433 207 433H168Q159
433 155 438T151 452L160 511Q163 531 184 531Z" />
<glyph unicode=";" glyph-name="semicolon" horiz-adv-x="239" d="M76 -58Q100 -58 105 -32L110 0H100Q92 0 87 6T83 21L92 78Q93 87 100 93T116 100H154Q170 100 170 83Q170 81 170 78L155 -20Q148 -61 117 -76Q103 -83 91 -83T71 -81L74 -58Q75 -58 76 -58ZM185
532H224Q242 532 242 517Q242 514 242 511L232 452Q229 433 209 433H170Q161 433 156 438T152 452L162 511Q165 532 185 532Z" />
<glyph unicode="&lt;" glyph-name="less" horiz-adv-x="473" d="M99 324L109 384L501 556L491 494L170 351L444 198L435 140L99 324Z" />
<glyph unicode="=" glyph-name="equal" horiz-adv-x="465" d="M53 212L63 270H490L480 212H53ZM88 438L98 495H525L515 438H88Z" />
<glyph unicode="&gt;" glyph-name="greater" horiz-adv-x="474" d="M72 140L82 204L409 355L128 502L138 556L475 384L466 324L72 140Z" />
<glyph unicode="?" glyph-name="question" horiz-adv-x="540" d="M285 296L269 195H210L233 344Q276 343 308 343T362 344Q417 345 455 371T503 453L519 554Q522 573 522 589Q522 633 501 654Q471 684 389 684H125L132 722Q273 740 372 740Q389 740 397 740T405
739Q506 739 548 688Q579 650 579 593Q579 574 576 554L560 453Q549 382 512 343T418 295Q391 291 358 291T285 296ZM206 99H245Q263 99 263 84Q263 81 263 78L254 19Q250 0 230 0H191Q182 0 177 5T174 19L183 78Q186 99 206 99Z" />
<glyph unicode="@" glyph-name="at" horiz-adv-x="878" d="M350 699H725Q807 699 842 653Q868 619 868 564Q868 544 865 521L812 167Q800 87 762 48Q746 30 715 17T643 3H597L582 63Q542 19 463 2Q435 -4 404 -4Q316 -4 276 55Q249 94 249 172Q249 217 258 278T286
387T326 464T375 512Q423 544 483 544T604 530T700 482L638 60Q712 60 737 109Q749 132 754 167L808 521Q819 600 791 623Q769 641 721 641H342Q268 641 236 598Q209 564 202 521L121 9Q119 -8 119 -34T136 -86Q160 -122 221 -122H606L600 -158Q493 -179 309 -179H211Q134
-179 92 -126Q61 -85 61 -28Q61 -10 64 9L145 521Q174 699 350 699ZM313 254Q308 202 308 181T308 154Q309 115 323 93T357 62Q377 53 413 53Q507 53 587 114L640 463Q575 487 486 487Q481 487 477 487Q342 485 313 254Z" />
<glyph unicode="A" glyph-name="A" horiz-adv-x="654" d="M45 0L432 732H492L635 0H577L534 220H225L109 0H45ZM256 278H523L452 655L256 278Z" />
<glyph unicode="B" glyph-name="B" horiz-adv-x="594" d="M469 732Q568 732 609 673Q633 639 633 578Q633 562 630 545Q621 476 585 434T499 381Q532 375 557 332T582 238Q582 220 579 200Q553 0 353 0H80L196 732H469ZM524 236Q524 279 502 312Q472 355 411 355Q410
355 409 355H194L148 58H362Q498 58 522 205Q524 221 524 236ZM419 412Q480 412 520 447T572 546Q576 569 576 587Q576 628 556 647Q527 674 461 674H245L204 412H419Z" />
<glyph unicode="C" glyph-name="C" horiz-adv-x="573" d="M327 729Q367 740 434 740T647 712L640 668Q529 683 429 683Q368 683 340 674T295 651T259 615T225 558Q192 484 173 366Q163 304 163 246T181 139Q213 56 306 52Q318 51 363 51T546 61L540 17Q447 -6
302 -6Q247 -6 208 16Q105 72 105 251Q105 349 137 479Q164 588 205 643Q255 709 327 729Z" />
<glyph unicode="D" glyph-name="D" horiz-adv-x="664" d="M462 732Q516 732 556 714T620 664Q668 598 672 515Q674 491 674 471Q674 415 664 360Q600 0 348 0H80L196 731Q196 732 462 732ZM617 477Q617 675 452 675H244L147 60H356Q478 60 550 193Q591 267 604
347T617 477Z" />
<glyph unicode="E" glyph-name="E" horiz-adv-x="565" d="M311 732Q316 732 321 732L629 718L622 675H312Q243 675 232 602L198 393L536 385L529 341L189 332L156 123Q154 112 154 103T157 82T173 64Q191 55 224 55H524L517 12L214 -3Q209 -3 204 -3Q154 -3 125
22T95 94Q95 108 98 125L174 604Q195 732 311 732Z" />
<glyph unicode="F" glyph-name="F" horiz-adv-x="563" d="M312 732Q317 732 322 732L630 718L623 674H312Q274 674 256 656T233 602L200 393L537 385L530 341L190 332L138 0H80L175 601Q196 732 312 732Z" />
<glyph unicode="G" glyph-name="G" horiz-adv-x="619" d="M168 236Q168 51 305 51Q306 51 323 51T393 64T482 91L517 105L555 330H371L378 369Q456 389 554 389Q585 389 621 386L560 0H518L511 56Q483 35 420 15T300 -6T205 16T144 73Q108 136 108 242Q108 352
145 495Q177 618 235 674Q301 739 413 739Q415 739 433 739T522 731T649 711L643 665Q610 670 530 676Q444 682 409 682T350 676T298 650T249 597Q202 520 179 366Q168 293 168 236Z" />
<glyph unicode="H" glyph-name="H" horiz-adv-x="639" d="M85 0L201 732H258L203 383H582L638 732H696L580 0H522L574 325H194L142 0H85Z" />
<glyph unicode="I" glyph-name="I" horiz-adv-x="214" d="M90 0L206 732H264L148 0H90Z" />
<glyph unicode="J" glyph-name="J" horiz-adv-x="346" d="M49 62Q104 46 131 46T175 51T209 69Q246 93 258 165L348 732H405L315 165Q298 53 240 18Q201 -6 141 -6Q75 -6 38 21L49 62Z" />
<glyph unicode="K" glyph-name="K" horiz-adv-x="557" d="M80 0L196 732H254L200 396H309L590 732H662L358 364L546 0H477L304 338H192L138 0H80Z" />
<glyph unicode="L" glyph-name="L" horiz-adv-x="538" d="M156 126Q155 115 155 106T158 85T174 67Q193 58 225 58H521L512 0H217Q162 0 127 25Q97 47 97 97Q97 111 99 126L196 732H253L156 126Z" />
<glyph unicode="M" glyph-name="M" horiz-adv-x="791" d="M71 0L246 732H321L424 96L722 732H803L752 0H694L740 633L442 0H382L281 630L129 0H71Z" />
<glyph unicode="N" glyph-name="N" horiz-adv-x="654" d="M80 0L196 732H252L548 107L648 732H705L589 0H534L237 626L138 0H80Z" />
<glyph unicode="O" glyph-name="O" horiz-adv-x="672" d="M359 733T385 735T449 737T517 734T576 721T625 694Q670 653 681 580Q685 550 685 524Q685 377 647 237Q618 129 576 80Q532 28 475 11Q422 -4 362 -4T274 -1T215 11T166 36Q119 75 108 145Q103 176 103
201T104 260T115 360T138 478T166 566T198 632T237 679T280 709T330 727ZM215 548T201 493T173 356T160 235T161 173T173 127T197 90T234 67Q275 54 334 54T428 60T493 85T546 139Q591 211 615 361Q629 450 629 520Q629 574 609 620Q597 647 560 665Q538 676 505
678T437 680T379 678T325 666T275 637T236 583Z" />
<glyph unicode="P" glyph-name="P" horiz-adv-x="591" d="M487 732Q553 732 597 692Q634 657 634 578Q634 511 617 460T588 386T557 347T524 323T488 311Q460 306 425 306T289 312T184 321L132 0H75L191 732H487ZM428 364Q516 364 549 440Q563 473 569 509T576
558T575 585T571 614T559 641T543 658T522 668Q502 674 478 674H239L190 364H428Z" />
<glyph unicode="Q" glyph-name="Q" horiz-adv-x="677" d="M363 733T389 735T453 737T521 734T580 721T629 694Q674 653 685 580Q689 550 689 524Q689 368 647 220Q617 115 559 56Q514 12 428 1Q394 -4 350 -4T278 -1T219 11T170 36Q123 75 112 145Q107 176 107
201T108 260T119 360T142 478T170 566T202 632T241 679T284 709T334 727ZM219 548T205 493T177 356T164 235T165 173T177 127T201 90T238 67Q279 53 338 53T432 60T497 85T550 139Q595 211 619 361Q633 450 633 520Q633 574 613 620Q601 647 564 665Q542 676 509
678T441 680T383 678T329 666T279 637T240 583ZM447 -80Q479 -80 517 -67L507 -129Q482 -139 466 -139T430 -138T382 -128T333 -93T312 -33H352Q387 -80 447 -80Z" />
<glyph unicode="R" glyph-name="R" horiz-adv-x="610" d="M491 732Q559 732 598 689Q632 653 632 572Q632 488 611 436T573 363T531 329T492 313T459 309L566 0H503L401 304Q387 304 286 310T183 316L132 0H75L191 732H491ZM429 364Q552 364 570 519Q573 569 573
587T567 621T554 648T535 664Q514 673 482 673H240L191 364H429Z" />
<glyph unicode="S" glyph-name="S" horiz-adv-x="569" d="M329 50Q472 50 488 156L499 224Q501 243 501 257T500 281Q493 330 414 330H284Q194 330 160 366Q130 399 130 441Q130 452 134 495L144 561Q162 672 225 708Q277 738 356 738Q416 738 501 729T605 716L598
672L359 681Q351 681 344 681Q285 681 249 658T202 560L191 494Q185 452 190 437T198 414T211 401T227 394T247 389Q266 388 293 388H423Q469 388 499 374T542 336Q560 301 560 271T556 222L545 154Q534 81 496 46Q456 10 421 3Q368 -8 320 -8T192 -1T79 13L86
58Q156 50 329 50Z" />
<glyph unicode="T" glyph-name="T" horiz-adv-x="596" d="M139 674L148 732H666L657 674H424L317 0H260L366 674H139Z" />
<glyph unicode="U" glyph-name="U" horiz-adv-x="664" d="M186 308Q177 245 177 206T184 140T203 96T239 68Q277 53 335 53T430 63T498 100Q559 152 584 308L651 732H709L642 308Q629 228 609 173T555 76Q488 -5 339 -5Q229 -5 178 37Q119 87 119 203Q119 250
128 308L195 732H253L186 308Z" />
<glyph unicode="V" glyph-name="V" horiz-adv-x="669" d="M150 732H211L335 88L674 732H740L353 0H293L150 732Z" />
<glyph unicode="W" glyph-name="W" horiz-adv-x="994" d="M150 732H208L333 89L668 732H733L596 464L668 85L1003 732H1066L685 0H625L552 381L353 0H293L150 732Z" />
<glyph unicode="X" glyph-name="X" horiz-adv-x="581" d="M38 0L314 364L151 732H212L352 415L593 732H663L379 358L537 0H476L340 306L108 0H38Z" />
<glyph unicode="Y" glyph-name="Y" horiz-adv-x="629" d="M150 732H211L348 332L632 732H700L369 260L328 0H270L311 260L150 732Z" />
<glyph unicode="Z" glyph-name="Z" horiz-adv-x="545" d="M35 0L44 58L549 674H142L151 732H634L625 674L120 58H527L518 0H35Z" />
<glyph unicode="[" glyph-name="bracketleft" horiz-adv-x="302" d="M353 862H423L414 804H344Q306 804 282 781T249 702L135 -18Q131 -46 131 -69T138 -107Q151 -133 196 -133H266L256 -190H186Q152 -190 128 -178Q73 -149 73 -64Q73 -44 77 -18L191 702Q210
820 279 849Q310 862 353 862Z" />
<glyph unicode="\" glyph-name="backslash" horiz-adv-x="404" d="M141 770H195L343 -72H289L141 770Z" />
<glyph unicode="]" glyph-name="bracketright" horiz-adv-x="304" d="M66 -133Q106 -133 129 -108T161 -30L275 690Q280 718 280 742T272 780Q258 804 215 804H145L154 862H224Q259 862 283 849T318 818Q337 787 337 737Q337 717 333 690L219 -30Q208 -98 179
-140Q144 -190 57 -190H-13L-4 -133H66Z" />
<glyph unicode="^" glyph-name="asciicircum" horiz-adv-x="403" d="M134 531L277 662H331L419 531H368L302 623L196 531H134Z" />
<glyph unicode="_" glyph-name="underscore" horiz-adv-x="664" d="M19 -1L28 56H652L643 -1H19Z" />
<glyph unicode="`" glyph-name="grave" horiz-adv-x="242" d="M125 664H192L296 531H245L125 664Z" />
<glyph unicode="a" glyph-name="a" horiz-adv-x="542" d="M234 525T256 531T301 540T355 543T452 529T554 479L484 0H444L437 60Q403 38 349 16T254 -7T190 -3T145 14Q104 35 87 98Q79 126 79 148T79 195T90 281T119 389T158 463T206 507ZM187 410T171 365T146
263T137 165Q137 50 241 50Q311 50 374 74Q395 82 440 102L494 460Q413 487 351 487Q297 487 265 473T210 434Z" />
<glyph unicode="b" glyph-name="b" horiz-adv-x="551" d="M394 539Q542 539 542 361Q542 282 517 185Q495 97 452 49Q430 24 396 9T322 -6Q271 -6 208 17T126 59L100 0H60L184 785H240L194 499Q260 524 315 531T394 539ZM321 52Q380 52 419 105T475 263Q483 316
483 359T473 429Q453 482 388 482Q298 482 189 454L133 100Q237 52 321 52Z" />
<glyph unicode="c" glyph-name="c" horiz-adv-x="494" d="M137 159Q137 51 230 51Q312 51 421 62L457 65L451 23Q346 -6 233 -6Q230 -6 227 -6Q80 -5 80 170Q80 214 90 277T119 390T156 469T201 513T251 533T307 537Q387 537 521 510L514 469Q387 480 331 480T259
477T225 461T194 426Q165 373 146 262Q137 200 137 159Z" />
<glyph unicode="d" glyph-name="d" horiz-adv-x="541" d="M197 508T232 523T300 539T367 535Q444 524 501 499L547 785H602L478 0H438L431 59Q404 40 341 17T235 -6T161 11Q107 41 90 117Q83 153 83 189T89 269T106 348T133 422T174 483ZM148 274Q140 221 140
193Q140 109 175 75Q199 52 236 52T312 60Q366 71 438 100L494 454Q393 482 303 482Q182 482 148 274Z" />
<glyph unicode="e" glyph-name="e" horiz-adv-x="528" d="M262 533T289 537T357 541T434 533Q540 510 540 415Q540 346 506 305T430 247Q354 217 274 217Q231 217 191 223T139 234Q131 186 131 150T141 91Q158 49 220 48Q238 47 290 47T465 65L459 22Q353 -7 215
-7Q120 -7 91 62Q76 98 76 152T85 257T98 329T110 375T125 417T144 453T169 483T201 508T240 526ZM145 274Q185 269 220 269T278 270T338 277T404 296T454 332Q482 363 482 406T454 466T348 484Q267 484 229 456Q215 446 205 438T187 414T174 388T163 358Q156 332
151 307T145 274Z" />
<glyph unicode="f" glyph-name="f" horiz-adv-x="388" d="M281 766T305 775T347 785T377 785T430 779T490 766L485 728H363Q314 728 295 699T264 588L255 531H425L415 474H245L168 0H110L187 474H92L99 515L198 531L207 588Q227 716 265 751Q281 766 305 775Z" />
<glyph unicode="g" glyph-name="g" horiz-adv-x="546" d="M293 -216Q333 -216 367 -188T410 -104L431 29Q383 11 330 1T229 -9T146 13T97 74Q81 118 81 171T91 275Q111 401 168 469T313 537Q391 537 472 528T565 517L467 -104Q453 -192 403 -232T298 -273Q290
-273 281 -272L37 -248L43 -211L290 -215Q292 -216 293 -216ZM195 404Q139 303 139 164Q139 117 161 82Q183 48 239 48Q306 48 348 56T438 76L502 478L315 480Q314 480 313 480Q275 480 244 459T195 404Z" />
<glyph unicode="h" glyph-name="h" horiz-adv-x="542" d="M519 490Q546 452 546 402Q546 387 543 370L484 0H427L486 370Q488 383 488 395Q488 431 467 456T393 482T298 470T185 424L118 0H60L184 784H241L191 469Q233 492 260 504Q336 540 409 540T519 490Z" />
<glyph unicode="i" glyph-name="i" horiz-adv-x="178" d="M60 0L144 531H202L118 0H60ZM180 695H218Q234 695 234 680Q234 677 234 675L226 625Q224 605 203 605H166Q158 605 153 610T150 625L157 675Q160 695 180 695Z" />
<glyph unicode="j" glyph-name="j" horiz-adv-x="195" d="M28 -270L155 531H212L128 -4Q103 -165 64 -270H28ZM192 695H229Q245 695 245 680Q245 677 245 675L237 625Q234 605 214 605H177Q157 605 160 625L168 675Q171 695 192 695Z" />
<glyph unicode="k" glyph-name="k" horiz-adv-x="484" d="M60 0L184 782H242L167 310Q260 322 346 393T449 531H513Q497 475 454 422Q377 327 282 289L473 0H404L224 274Q213 271 190 270T161 270L118 0H60Z" />
<glyph unicode="l" glyph-name="l" horiz-adv-x="297" d="M196 0Q84 0 84 125Q84 154 89 189L183 783H240L146 189Q141 152 141 133T144 102T150 82T163 68Q176 62 221 52T270 42L263 0H196Z" />
<glyph unicode="m" glyph-name="m" horiz-adv-x="905" d="M282 514T322 526T404 538T482 514T530 453Q649 538 768 538Q837 538 877 489Q907 451 907 399Q907 384 905 367L846 0H789L847 367Q849 378 849 393T841 430T811 465T758 480Q698 480 649 466T541 420Q542
416 542 405T538 366L480 0H423L481 367Q483 378 483 393T475 429T444 465T379 480T296 468T184 423L118 0H60L144 531H183L192 468Q238 493 260 503Z" />
<glyph unicode="n" glyph-name="n" horiz-adv-x="542" d="M406 540Q482 540 518 490Q546 452 546 402Q546 387 543 370L484 0H427L486 370Q488 383 488 395Q488 430 467 456T393 482T298 470T185 424L118 0H60L144 531H183L191 469Q292 523 349 535Q377 540 406 540Z" />
<glyph unicode="o" glyph-name="o" horiz-adv-x="562" d="M361 536Q485 536 528 468Q556 423 556 348Q556 306 548 256Q523 107 468 51T284 -5T111 56Q82 96 82 172Q82 212 91 269T115 372T151 451T202 502Q259 536 361 536ZM171 358Q139 265 139 159Q139 143
146 122T163 86T195 65Q228 52 280 52T362 58T418 86Q468 124 490 258Q499 314 499 346T494 400T478 438T448 463Q415 478 365 478T291 475T242 459T201 422T171 358Z" />
<glyph unicode="p" glyph-name="p" horiz-adv-x="548" d="M392 535Q436 535 468 518Q546 477 546 342Q546 304 539 256Q502 -9 320 -9Q280 -9 222 1T122 29L74 -270H17L148 523Q243 535 392 535ZM288 48Q307 48 330 50T377 63T421 97Q463 144 482 265Q489 309
489 345Q489 477 388 477H196L131 75Q220 48 288 48Z" />
<glyph unicode="q" glyph-name="q" horiz-adv-x="552" d="M318 537Q400 537 564 518L440 -270H382L429 29Q381 11 328 1T228 -10T147 11T98 71Q82 115 82 168T91 271Q134 537 318 537ZM175 372T165 339T147 250T139 149T163 76T241 48T332 53T437 74L501 480H309Q271
480 242 460T194 406Z" />
<glyph unicode="r" glyph-name="r" horiz-adv-x="415" d="M369 534T382 535T429 537T480 529L471 472Q444 479 415 479T373 478T352 476T330 472T311 468T290 462T272 455T251 447T231 438T207 428T183 417L118 0H60L144 531H183L191 464Q195 466 210 474T231
485T250 495T271 505T292 513T314 521T335 527T358 532Z" />
<glyph unicode="s" glyph-name="s" horiz-adv-x="506" d="M335 49Q372 49 384 59Q412 80 418 116L426 169Q428 178 428 185Q428 235 365 235H223Q148 235 122 258T95 326Q95 342 98 362L105 411Q116 477 152 508T264 539Q301 539 387 535T513 526L506 483H255Q207
483 188 463T163 409L155 360Q149 324 154 316T161 305T169 299T178 295T188 294T199 293T212 293T225 293H368Q430 293 458 262T486 191Q486 179 484 167L475 108Q462 22 398 1Q368 -8 330 -8T194 -2T64 8L71 49H335Z" />
<glyph unicode="t" glyph-name="t" horiz-adv-x="366" d="M249 0Q136 0 136 125Q136 153 141 189L186 474H92L99 517L195 532L233 680H276L253 532H415L405 474H244L199 189Q194 157 194 133T197 95T210 73Q223 62 271 52T322 41L316 0H249Z" />
<glyph unicode="u" glyph-name="u" horiz-adv-x="541" d="M131 133Q131 98 152 74T226 49T321 61T434 107L501 531H558L474 0H435L427 62Q384 39 358 27T292 3T213 -9Q136 -9 100 40Q73 77 73 128Q73 144 76 161L134 531H192L133 161Q131 146 131 133Z" />
<glyph unicode="v" glyph-name="v" horiz-adv-x="520" d="M544 531Q548 518 548 496T531 439L294 0H222L94 531H154L265 72L470 450Q494 498 500 531H544Z" />
<glyph unicode="w" glyph-name="w" horiz-adv-x="800" d="M537 529Q541 516 541 494T523 437L483 357L545 78L755 449Q780 499 785 531H827Q831 516 831 494T813 439L564 0H506L441 287L285 0H222L94 531H152L261 75L465 447Q491 497 496 529H537Z" />
<glyph unicode="x" glyph-name="x" horiz-adv-x="497" d="M24 0L259 267L108 531H176L299 314L490 531H564L330 261L478 0H411L288 214L102 0H24Z" />
<glyph unicode="y" glyph-name="y" horiz-adv-x="544" d="M569 535Q574 520 574 497T556 440L338 1Q276 -120 237 -168Q187 -231 155 -248T98 -269V-229Q132 -214 165 -173Q204 -125 225 -86T250 -39T262 -17T271 0Q245 0 221 14Q175 40 164 110L94 531H154L223
116Q233 60 289 59L300 60L497 453Q517 492 523 535H569Z" />
<glyph unicode="z" glyph-name="z" horiz-adv-x="453" d="M45 1L52 58L423 474H106L114 531H510L502 474L135 58H435L426 1H45Z" />
<glyph unicode="{" glyph-name="braceleft" horiz-adv-x="300" d="M411 805Q352 805 317 776T270 676L233 440Q227 405 200 384T135 355Q183 348 200 310Q206 297 206 287T205 271L163 9Q158 -17 158 -49T176 -103Q201 -133 257 -133Q261 -133 264 -133L255 -190Q171
-190 135 -146Q101 -104 101 -50Q101 -25 105 12L147 267Q148 272 148 277Q148 301 126 317T74 333Q71 333 67 333L76 387Q77 387 86 387T98 388T110 389T123 391T134 394T146 398T156 405T165 414Q173 426 175 440L212 678Q242 862 422 862L413 805Q412 805 411
805Z" />
<glyph unicode="|" glyph-name="bar" horiz-adv-x="235" d="M74 -72L207 770H264L132 -72H74Z" />
<glyph unicode="}" glyph-name="braceright" horiz-adv-x="296" d="M250 707Q250 805 152 805Q148 805 145 805L154 862Q204 862 238 844T287 796Q308 752 308 716T302 655L264 416Q263 411 263 406Q263 381 286 366T341 350Q342 350 344 350L335 296Q334 296
332 296Q245 296 236 243L195 -10Q167 -190 -13 -190L-4 -133Q-3 -133 -1 -133Q57 -133 92 -105T138 -9L179 245Q184 278 211 300T275 328Q240 333 223 354T205 400Q205 407 206 414L245 658Q250 685 250 707Z" />
<glyph unicode="~" glyph-name="asciitilde" horiz-adv-x="454" d="M225 631T237 634T268 637T318 613T364 589T388 591T406 597T424 605T441 614T457 624T471 633L483 603Q480 601 463 586T439 566T416 551Q390 534 364 534T305 558T254 582T221 577T184 559T151
542L140 572Q146 577 163 590T189 609T211 622Z" />
<glyph unicode="&#xa1;" glyph-name="exclamdown" horiz-adv-x="260" d="M45 -269L138 263H193L117 -269H45ZM145 386L154 443Q157 460 177 461H214Q222 461 227 455T231 441L222 386Q218 368 201 365H160Q143 366 145 386Z" />
<glyph unicode="&#xa2;" glyph-name="cent" horiz-adv-x="485" d="M128 159Q128 51 221 51Q303 51 412 62L449 65L442 23Q358 -1 274 -5L261 -91H215L228 -6Q159 -6 118 28Q70 68 70 176Q70 217 80 273T104 376T135 451T171 499Q209 538 296 538Q305 538 314 537L329
629H375L359 534Q437 526 512 510L506 469Q378 480 322 480T250 477T216 461T185 426Q157 373 137 262Q128 199 128 159Z" />
<glyph unicode="&#xa3;" glyph-name="sterling" horiz-adv-x="583" d="M616 722L650 718L643 675H463Q410 675 379 670T322 646T282 595T260 505L241 385L516 371L510 337H232L189 58H544L535 0H50L57 44L131 58L175 337H103L109 371L183 385L202 505Q223 639
282 686Q321 718 357 724Q405 732 461 732T616 722Z" />
<glyph unicode="&#xa4;" glyph-name="currency" horiz-adv-x="466" d="M439 334Q439 263 391 208L431 160L396 133L359 178Q314 144 254 144T156 181L106 137L79 173L130 216Q108 253 108 292Q108 362 156 413L118 457L152 484L188 441Q236 475 295 475T392 441L447
487L473 452L418 406Q439 373 439 334ZM154 292Q154 255 179 223Q205 189 255 189Q320 189 360 239Q395 282 395 325T370 399T293 431Q238 431 200 396Q154 354 154 292Z" />
<glyph unicode="&#xa5;" glyph-name="yen" horiz-adv-x="595" d="M106 168L113 212H288L298 277H123L130 321H301L139 732H200L340 382L619 732H689L363 321H557L550 277H355L345 212H540L533 168H340L316 0H259L283 168H106Z" />
<glyph unicode="&#xa6;" glyph-name="brokenbar" horiz-adv-x="236" d="M74 -72L126 256H184L132 -72H74ZM153 429L207 770H264L210 429H153Z" />
<glyph unicode="&#xa7;" glyph-name="section" horiz-adv-x="553" d="M438 535Q554 535 554 441Q554 428 552 414L542 352Q530 271 483 265Q519 253 518 216Q517 200 515 183L503 110Q491 34 452 12Q417 -8 346 -8Q313 -8 220 -2T93 8L100 50H356Q382 50 398 54T428
71T446 110L457 183Q459 194 459 207T448 229T392 238H227Q109 238 109 325Q109 339 111 355L121 418Q127 457 141 479T184 508Q147 527 147 570Q147 580 148 590L159 661Q179 784 309 784Q342 784 440 778T570 768L564 726H300Q263 726 243 710T217 660L206 590Q205
583 205 569T220 545T269 535H438ZM168 353Q166 341 166 327T177 304T231 296H400Q464 296 475 319Q481 330 484 354L494 416Q496 428 496 442T487 467T430 478H261Q220 478 206 470T187 449T178 414L168 353Z" />
<glyph unicode="&#xa8;" glyph-name="dieresis" horiz-adv-x="451" d="M157 611T167 616T191 621T214 610T221 585T213 562Q198 542 179 542T150 552T141 571T142 586T150 602ZM426 621T443 621T468 611T476 594T475 579T468 562Q453 542 434 542T405 552T396
571T397 588T412 609Z" />
<glyph unicode="&#xa9;" glyph-name="copyright" horiz-adv-x="825" d="M400 732H658Q827 732 827 498Q827 359 782 227Q733 83 650 30Q604 0 549 0H291Q237 0 198 27T140 96Q104 174 104 280Q104 369 132 474Q163 588 222 655Q253 689 298 710T400 732ZM158 368Q150
327 150 299T152 235T168 153T213 77T292 48H555Q626 48 685 131T769 368Q781 443 781 500Q781 684 658 684H392Q209 684 158 368ZM327 287Q327 194 403 194Q497 194 590 210L584 173Q488 147 395 147Q331 147 299 200Q279 233 279 278T286 366Q306 486 351 534T459
583T639 561L633 524Q550 536 457 536Q361 536 333 362Q327 320 327 287Z" />
<glyph unicode="&#xaa;" glyph-name="ordfeminine" horiz-adv-x="359" d="M72 276L79 319H374L368 276H72ZM224 724T236 727T260 731T285 733T325 729T383 713T429 686L384 381H358L352 437Q331 414 294 396T228 377T177 385T136 414T112 461T108 511T112 565T126
623T149 668T177 698T207 717ZM197 657T180 628T158 564T153 502T167 455Q188 424 223 424T288 437T355 478L382 666Q332 686 289 686T222 672Z" />
<glyph unicode="&#xab;" glyph-name="guillemotleft" horiz-adv-x="557" d="M106 354L344 557L379 516L185 349L325 182L284 146L106 354ZM294 354L532 557L568 516L373 349L514 182L472 146L294 354Z" />
<glyph unicode="&#xac;" glyph-name="logicalnot" horiz-adv-x="529" d="M516 322L491 159H433L450 264H90L99 322H516Z" />
<glyph unicode="&#xad;" glyph-name="uni00AD" horiz-adv-x="356" d="M60 261L69 319H383L374 261H60Z" />
<glyph unicode="&#xae;" glyph-name="registered" horiz-adv-x="825" d="M400 732H658Q827 732 827 498Q827 359 782 227Q733 83 650 30Q604 0 549 0H291Q237 0 198 27T140 96Q104 174 104 280Q104 368 132 473Q163 587 222 654Q253 689 298 710T400 732ZM158
368Q150 327 150 299T152 235T167 153T213 77T292 48H555Q626 48 685 131T769 368Q781 443 781 501Q781 684 659 684H392Q209 684 158 368ZM529 580Q577 580 610 555Q641 531 641 476Q641 419 619 378Q597 339 550 333Q543 332 533 331T519 329L588 153H535L466
330L361 340L331 153H284L352 580H529ZM502 372Q545 372 560 384T581 411Q593 442 593 473T578 518T527 532H392L366 372H502Z" />
<glyph unicode="&#xaf;" glyph-name="overscore" horiz-adv-x="392" d="M134 531L141 578H420L413 531H134Z" />
<glyph unicode="&#xb0;" glyph-name="degree" horiz-adv-x="318" d="M248 735Q314 735 340 684Q351 663 351 649T351 632Q349 589 319 560T246 530T176 558T148 626Q148 672 180 703T248 735ZM184 627Q184 603 201 585T246 567T293 586Q315 607 315 634T299 679T260
698T221 689Q184 668 184 627Z" />
<glyph unicode="&#xb1;" glyph-name="plusminus" horiz-adv-x="521" d="M69 104L78 161H484L475 104H69ZM115 395L124 452H298L325 627H383L355 452H530L521 395H346L318 221H261L289 395H115Z" />
<glyph unicode="&#xb2;" glyph-name="twosuperior" horiz-adv-x="388" d="M357 626T371 651T388 695T391 733Q391 791 315 791H141Q139 791 142 808T146 826Q250 838 331 838Q375 838 402 814T436 766T442 727Q442 674 412 626T346 544T277 482T211 432T173 403H392L384
356H75L82 399Q89 405 121 427T173 464T228 504T285 552T333 600Z" />
<glyph unicode="&#xb3;" glyph-name="threesuperior" horiz-adv-x="411" d="M362 514Q362 540 344 556T291 574L149 579L155 614L296 619Q350 622 376 653Q390 669 393 690L396 716Q398 726 398 742T383 772T327 786H139L144 818Q183 830 220 831Q265 833 293
833T340 833Q398 833 421 803T445 738Q445 728 444 718L438 682Q432 647 410 622T365 590Q386 579 398 558T410 522T409 499L404 470Q395 412 363 382T261 352Q124 352 76 368L82 399H258Q345 399 357 475L361 498Q362 506 362 514Z" />
<glyph unicode="&#xb4;" glyph-name="acute" horiz-adv-x="227" d="M104 531L237 664H309L155 531H104Z" />
<glyph unicode="&#xb5;" glyph-name="uni00B5" horiz-adv-x="590" d="M170 137Q170 102 191 76T265 49T360 61T473 107L541 531H598L514 0H475L467 62Q386 19 355 9Q296 -9 252 -9Q187 -9 152 33L104 -270H47L174 531H232L173 161Q170 148 170 137Z" />
<glyph unicode="&#xb6;" glyph-name="paragraph" horiz-adv-x="573" d="M312 732H667L657 672H588L482 0H424L531 674H414L264 -270H207L308 370Q277 356 250 356Q250 356 249 356Q198 356 166 379T125 428T116 471T118 501L132 594Q149 700 253 725Q281 732 312
732ZM176 501Q175 491 175 481T179 457T192 434T215 420Q235 412 258 412H314L356 677H302Q251 677 224 654T190 591L176 501Z" />
<glyph unicode="&#xb7;" glyph-name="middot" horiz-adv-x="274" d="M170 424H209Q227 424 227 409Q227 407 226 403L220 361Q216 342 197 342H157Q148 342 143 347T140 361L146 403Q149 424 170 424Z" />
<glyph unicode="&#xb8;" glyph-name="cedilla" horiz-adv-x="257" d="M66 -173H22L26 -146L74 -134Q112 -124 127 -87Q134 -68 139 -37H189Q180 -98 167 -121T140 -154Q114 -173 66 -173Z" />
<glyph unicode="&#xb9;" glyph-name="onesuperior" horiz-adv-x="276" d="M115 735L120 767Q156 767 193 784T250 817L269 834H315L239 356H192L259 775Q241 761 204 748T115 735Z" />
<glyph unicode="&#xba;" glyph-name="ordmasculine" horiz-adv-x="381" d="M83 278L90 321H387L381 278H83ZM303 738Q389 738 420 696Q441 669 441 627T434 542T416 467T384 413Q346 372 254 372T130 414Q110 442 110 494Q110 520 116 563T134 639T167 696T220
728Q252 738 303 738ZM190 655T180 627T163 558T156 496T160 463T171 441T192 427Q214 419 247 419T295 420T326 429T353 450Q377 482 385 535T394 614T390 654T371 678Q348 691 305 691T244 688T208 670Z" />
<glyph unicode="&#xbb;" glyph-name="guillemotright" horiz-adv-x="554" d="M81 188L278 356L138 521L180 557L356 351L117 146L81 188ZM272 188L469 356L329 521L371 557L547 351L308 146L272 188Z" />
<glyph unicode="&#xbc;" glyph-name="onequarter" horiz-adv-x="909" d="M115 635L120 667Q156 667 193 684T250 717L269 734H315L239 256H192L259 675Q241 661 204 648T115 635ZM185 0L746 770H794L232 0H185ZM513 155L766 475H823L598 185H792L811 306L840 354H866L839
185H898L892 148L831 136L810 0H763L784 136H526L513 155Z" />
<glyph unicode="&#xbd;" glyph-name="onehalf" horiz-adv-x="972" d="M115 635L120 667Q156 667 193 684T250 717L269 734H315L239 256H192L259 675Q241 661 204 648T115 635ZM162 0L724 770H771L209 0H162ZM887 270T901 295T918 339T921 378Q921 435 844 435H670Q668
435 671 452T676 470Q779 482 860 482Q904 482 931 459T965 411T971 372Q971 318 942 270T876 188T806 126T741 76T703 48H921L913 0H604L611 44Q618 49 650 71T703 108T758 149T815 197T862 244Z" />
<glyph unicode="&#xbe;" glyph-name="threequarters" horiz-adv-x="1022" d="M362 414Q362 440 344 456T291 474L149 479L155 514L296 519Q335 521 361 539T393 590L396 616Q398 626 398 642T383 672T327 686H139L144 718Q183 730 220 731Q265 733 293 733T350
733T404 716Q445 690 445 638Q445 628 444 618L438 582Q432 547 410 522T365 490Q394 474 406 440Q410 427 410 417T409 399L404 370Q395 312 363 282T261 252Q124 252 76 268L82 299H258Q345 299 357 375L361 398Q362 406 362 414ZM285 0L847 770H894L333 0H285ZM598
155L851 475H907L681 185H877L896 306L925 354H951L924 185H982L977 148L916 136L895 0H847L869 136H611L598 155Z" />
<glyph unicode="&#xbf;" glyph-name="questiondown" horiz-adv-x="538" d="M318 173L334 275H393L369 126Q326 127 294 127T239 126Q184 125 146 99T99 17L83 -85Q80 -105 80 -125Q80 -182 127 -201Q157 -214 213 -214H477L471 -253Q330 -270 229 -270Q212 -270
203 -270T193 -269Q94 -269 54 -218Q23 -179 23 -123Q23 -104 27 -83L43 17Q59 120 129 155Q176 179 247 179Q280 179 318 173ZM377 469H417Q426 469 431 464T434 450L425 391Q423 371 402 371H361Q345 371 345 386Q345 388 346 391L355 450Q357 469 377 469Z"
/>
<glyph unicode="&#xc0;" glyph-name="Agrave" horiz-adv-x="654" d="M327 930H394L498 797H447L327 930ZM45 0L432 732H492L635 0H577L534 220H225L109 0H45ZM256 278H523L452 655L256 278Z" />
<glyph unicode="&#xc1;" glyph-name="Aacute" horiz-adv-x="654" d="M447 797L580 930H652L498 797H447ZM45 0L432 732H492L635 0H577L534 220H225L109 0H45ZM256 278H523L452 655L256 278Z" />
<glyph unicode="&#xc2;" glyph-name="Acircumflex" horiz-adv-x="654" d="M330 797L473 927H527L615 797H566L497 891L389 797H330ZM45 0L432 732H492L635 0H577L534 220H225L109 0H45ZM256 278H523L452 655L256 278Z" />
<glyph unicode="&#xc3;" glyph-name="Atilde" horiz-adv-x="654" d="M558 850T592 865T640 890L652 860Q646 855 629 843T603 825T580 811Q531 784 489 810Q469 822 454 833T431 845T416 845T394 840T370 832T344 818T320 805L309 835Q361 874 387 885T436 897T492
873Q526 850 542 850ZM45 0L432 732H492L635 0H577L534 220H225L109 0H45ZM256 278H523L452 655L256 278Z" />
<glyph unicode="&#xc4;" glyph-name="Adieresis" horiz-adv-x="654" d="M342 876T358 876T384 865T391 837T375 809T346 797T319 809T311 837T328 865ZM597 876T613 876T638 866T647 849T645 831T630 809T601 797T574 809T566 837T583 865ZM45 0L432 732H492L635
0H577L534 220H225L109 0H45ZM256 278H523L452 655L256 278Z" />
<glyph unicode="&#xc5;" glyph-name="Aring" horiz-adv-x="654" d="M533 935T491 935T413 903T377 820Q377 785 401 758T468 730T546 762T582 845Q582 880 558 907ZM445 767T430 784T414 829T439 879Q461 898 483 898T519 889Q545 873 545 841T520 786Q499 767
472 767ZM45 0L432 732H492L635 0H577L534 220H225L109 0H45ZM256 278H523L452 655L256 278Z" />
<glyph unicode="&#xc6;" glyph-name="AE" horiz-adv-x="912" d="M590 723Q616 730 632 731T663 732T688 732L988 718L981 674H678Q631 674 618 655Q607 640 604 624T601 606Q601 603 600 600L566 390L895 381L888 337L557 329L524 122Q520 108 522 98T526 80T534
67T546 60T560 55Q574 53 592 53H883L875 10L585 -4Q580 -5 568 -5T534 1Q464 18 464 94Q464 107 466 121L484 237H264L97 0H30L449 599Q522 705 590 723ZM302 295H494L551 646L302 295Z" />
<glyph unicode="&#xc7;" glyph-name="Ccedilla" horiz-adv-x="573" d="M429 740Q501 740 647 712L640 668Q529 683 429 683Q368 683 340 674T296 651T260 615T226 558Q193 484 179 393T165 263T166 204Q173 135 208 95T306 52Q318 51 363 51T546 61L540 17Q447
-6 302 -6Q247 -6 208 16Q105 72 105 251Q105 361 142 499Q176 622 235 678Q302 740 429 740ZM235 -173H191L195 -146L243 -134Q271 -128 285 -106T307 -37H358Q345 -114 320 -143T235 -173Z" />
<glyph unicode="&#xc8;" glyph-name="Egrave" horiz-adv-x="565" d="M289 925H356L460 792H409L289 925ZM311 732Q316 732 321 732L629 718L622 674H312Q243 674 232 602L198 393L536 385L529 341L189 332L156 123Q154 112 154 103T157 82T173 64Q191 54 224 54H524L517
12L214 -3Q209 -3 204 -3Q154 -3 125 22T95 94Q95 108 98 125L174 604Q195 732 311 732Z" />
<glyph unicode="&#xc9;" glyph-name="Eacute" horiz-adv-x="565" d="M401 792L534 925H606L452 792H401ZM311 732Q316 732 321 732L629 718L622 674H312Q243 674 232 602L198 393L536 385L529 341L189 332L156 123Q154 112 154 103T157 82T173 64Q191 54 224 54H524L517
12L214 -3Q209 -3 204 -3Q154 -3 125 22T95 94Q95 108 98 125L174 604Q195 732 311 732Z" />
<glyph unicode="&#xca;" glyph-name="Ecircumflex" horiz-adv-x="565" d="M288 792L431 923H485L573 792H522L456 884L350 792H288ZM311 732Q316 732 321 732L629 718L622 674H312Q243 674 232 602L198 393L536 385L529 341L189 332L156 123Q154 112 154 103T157
82T173 64Q191 54 224 54H524L517 12L214 -3Q209 -3 204 -3Q154 -3 125 22T95 94Q95 108 98 125L174 604Q195 732 311 732Z" />
<glyph unicode="&#xcb;" glyph-name="Edieresis" horiz-adv-x="565" d="M286 876T294 879T311 882T329 877Q346 866 343 846T327 815T298 803T271 814T263 838T269 858T280 871ZM554 882T565 882T584 877Q601 866 598 846T582 815T553 803T526 814T518 840T527
863T544 877ZM311 732Q316 732 321 732L629 718L622 674H312Q243 674 232 602L198 393L536 385L529 341L189 332L156 123Q154 112 154 103T157 82T173 64Q191 54 224 54H524L517 12L214 -3Q209 -3 204 -3Q154 -3 125 22T95 94Q95 108 98 125L174 604Q195 732 311
732Z" />
<glyph unicode="&#xcc;" glyph-name="Igrave" horiz-adv-x="214" d="M100 930H167L271 797H220L100 930ZM90 0L206 732H264L148 0H90Z" />
<glyph unicode="&#xcd;" glyph-name="Iacute" horiz-adv-x="214" d="M220 797L352 930H425L271 797H220ZM90 0L206 732H264L148 0H90Z" />
<glyph unicode="&#xce;" glyph-name="Icircumflex" horiz-adv-x="214" d="M103 797L245 927H300L388 797H339L270 891L162 797H103ZM90 0L206 732H264L148 0H90Z" />
<glyph unicode="&#xcf;" glyph-name="Idieresis" horiz-adv-x="214" d="M87 854T100 865T128 876T150 871Q167 860 164 840T148 809T119 797T93 807T84 826T85 844ZM342 854T355 865T383 876Q409 876 417 857Q419 851 419 846T418 830T403 809T374 797T347 809T339
837ZM90 0L206 732H264L148 0H90Z" />
<glyph unicode="&#xd0;" glyph-name="Eth" horiz-adv-x="673" d="M461 732Q515 732 556 714T619 664Q667 598 672 515Q674 491 674 471Q674 342 625 217Q541 0 347 0H79L135 353H70L77 393H142L195 731Q195 732 461 732ZM616 477Q616 675 451 675H243L199 393H345L338
353H192L146 60H355Q477 60 549 193Q590 267 603 347T616 477Z" />
<glyph unicode="&#xd1;" glyph-name="Ntilde" horiz-adv-x="654" d="M541 846T575 861T624 887L635 856Q629 852 612 840T586 822T564 808Q514 780 472 806Q453 818 437 829T414 841T400 841T377 837T354 828T328 815T304 801L292 831Q345 870 371 881T419 893T475
870Q509 846 525 846ZM80 0L196 732H252L548 107L648 732H705L589 0H534L237 626L138 0H80Z" />
<glyph unicode="&#xd2;" glyph-name="Ograve" horiz-adv-x="672" d="M312 930H379L483 797H432L312 930ZM359 733T385 735T449 737T517 734T576 721T625 694Q670 653 681 580Q685 550 685 524Q685 389 651 250Q617 110 554 56Q510 18 471 10Q378 -11 274 -1Q201
6 166 36Q119 75 108 145Q103 176 103 201T104 260T115 360T138 478T166 566T198 632T237 679T280 709T330 727ZM215 548T201 493T173 354T159 228T165 156T183 106T221 73Q262 54 328 54T428 60T493 85T546 139Q591 211 615 361Q629 450 629 520Q629 574 609 620Q597
647 560 665Q538 676 505 678T437 680T379 678T325 666T275 637T236 583Z" />
<glyph unicode="&#xd3;" glyph-name="Oacute" horiz-adv-x="672" d="M432 797L565 930H637L483 797H432ZM359 733T385 735T449 737T517 734T576 721T625 694Q670 653 681 580Q685 550 685 524Q685 389 651 250Q617 110 554 56Q510 18 471 10Q378 -11 274 -1Q201
6 166 36Q119 75 108 145Q103 176 103 201T104 260T115 360T138 478T166 566T198 632T237 679T280 709T330 727ZM215 548T201 493T173 354T159 228T165 156T183 106T221 73Q262 54 328 54T428 60T493 85T546 139Q591 211 615 361Q629 450 629 520Q629 574 609 620Q597
647 560 665Q538 676 505 678T437 680T379 678T325 666T275 637T236 583Z" />
<glyph unicode="&#xd4;" glyph-name="Ocircumflex" horiz-adv-x="672" d="M315 797L458 927H512L600 797H551L482 891L374 797H315ZM359 733T385 735T449 737T517 734T576 721T625 694Q670 653 681 580Q685 550 685 524Q685 389 651 250Q617 110 554 56Q510 18
471 10Q378 -11 274 -1Q201 6 166 36Q119 75 108 145Q103 176 103 201T104 260T115 360T138 478T166 566T198 632T237 679T280 709T330 727ZM215 548T201 493T173 354T159 228T165 156T183 106T221 73Q262 54 328 54T428 60T493 85T546 139Q591 211 615 361Q629
450 629 520Q629 574 609 620Q597 647 560 665Q538 676 505 678T437 680T379 678T325 666T275 637T236 583Z" />
<glyph unicode="&#xd5;" glyph-name="Otilde" horiz-adv-x="672" d="M543 850T577 865T625 890L637 860Q630 855 617 846T596 831T577 818T556 807Q506 785 465 815Q455 822 446 828Q425 845 411 845T385 842T364 836T345 827T325 815T305 805L294 835Q346 874
372 885T421 897T476 873Q511 850 527 850ZM359 733T385 735T449 737T517 734T576 721T625 694Q670 653 681 580Q685 550 685 524Q685 389 651 250Q617 110 554 56Q510 18 471 10Q378 -11 274 -1Q201 6 166 36Q119 75 108 145Q103 176 103 201T104 260T115 360T138
478T166 566T198 632T237 679T280 709T330 727ZM215 548T201 493T173 354T159 228T165 156T183 106T221 73Q262 54 328 54T428 60T493 85T546 139Q591 211 615 361Q629 450 629 520Q629 574 609 620Q597 647 560 665Q538 676 505 678T437 680T379 678T325 666T275
637T236 583Z" />
<glyph unicode="&#xd6;" glyph-name="Odieresis" horiz-adv-x="672" d="M326 876T343 876T369 865T376 837T360 809T331 797T304 809T296 837T312 865ZM581 876T598 876T624 865T631 837T615 809T586 797T559 809T551 837T567 865ZM359 733T385 735T449 737T517
734T576 721T625 694Q670 653 681 580Q685 550 685 524Q685 389 651 250Q617 110 554 56Q510 18 471 10Q378 -11 274 -1Q201 6 166 36Q119 75 108 145Q103 176 103 201T104 260T115 360T138 478T166 566T198 632T237 679T280 709T330 727ZM215 548T201 493T173
354T159 228T165 156T183 106T221 73Q262 54 328 54T428 60T493 85T546 139Q591 211 615 361Q629 450 629 520Q629 574 609 620Q597 647 560 665Q538 676 505 678T437 680T379 678T325 666T275 637T236 583Z" />
<glyph unicode="&#xd7;" glyph-name="multiply" horiz-adv-x="453" d="M93 234L235 357L133 479L176 516L278 394L426 521L461 479L314 352L418 229L374 192L271 315L128 192L93 234Z" />
<glyph unicode="&#xd8;" glyph-name="Oslash" horiz-adv-x="672" d="M131 72Q101 121 101 200T113 357T140 491T172 586T212 653T257 697T312 723Q364 737 436 737T553 727T627 690L661 732H707L651 662Q683 610 683 509Q683 444 671 362T641 220T601 121T553
56T492 18Q432 -4 353 -4T230 5T156 43L121 0H74L131 72ZM213 548T199 493T171 358T158 217T173 123L590 644Q568 667 534 673T450 680T377 678T323 666T273 637T234 583ZM280 56Q307 54 350 54T427 60T492 85T544 139Q589 211 613 361Q626 449 626 512T611 611L194
91Q221 63 280 56Z" />
<glyph unicode="&#xd9;" glyph-name="Ugrave" horiz-adv-x="664" d="M317 930H384L488 797H437L317 930ZM186 308Q177 245 177 206T184 140T203 96T239 68Q277 53 335 53T430 62T498 100Q559 152 584 308L651 732H709L642 308Q629 228 609 173T555 76Q488 -5 339
-5Q229 -5 178 37Q119 87 119 203Q119 250 128 308L195 732H254L186 308Z" />
<glyph unicode="&#xda;" glyph-name="Uacute" horiz-adv-x="664" d="M437 797L570 930H642L488 797H437ZM186 308Q177 245 177 206T184 140T203 96T239 68Q277 53 335 53T430 62T498 100Q559 152 584 308L651 732H709L642 308Q629 228 609 173T555 76Q488 -5 339
-5Q229 -5 178 37Q119 87 119 203Q119 250 128 308L195 732H254L186 308Z" />
<glyph unicode="&#xdb;" glyph-name="Ucircumflex" horiz-adv-x="664" d="M320 797L463 927H517L605 797H556L487 891L379 797H320ZM186 308Q177 245 177 206T184 140T203 96T239 68Q277 53 335 53T430 62T498 100Q559 152 584 308L651 732H709L642 308Q629 228
609 173T555 76Q488 -5 339 -5Q229 -5 178 37Q119 87 119 203Q119 250 128 308L195 732H254L186 308Z" />
<glyph unicode="&#xdc;" glyph-name="Udieresis" horiz-adv-x="664" d="M304 854T318 865T345 876T367 871Q385 860 382 840T366 809T336 797T309 809T301 837ZM559 854T573 865T600 876T622 871Q640 860 637 840T621 809T591 797T564 809T556 837ZM186 308Q177
245 177 206T184 140T203 96T239 68Q277 53 335 53T430 62T498 100Q559 152 584 308L651 732H709L642 308Q629 228 609 173T555 76Q488 -5 339 -5Q229 -5 178 37Q119 87 119 203Q119 250 128 308L195 732H254L186 308Z" />
<glyph unicode="&#xdd;" glyph-name="Yacute" horiz-adv-x="629" d="M410 797L543 930H615L461 797H410ZM150 732H211L348 332L632 732H700L369 260L328 0H270L311 260L150 732Z" />
<glyph unicode="&#xde;" glyph-name="Thorn" horiz-adv-x="554" d="M60 0Q60 0 175 729H232L210 588H414Q452 588 479 576T519 548Q559 504 559 430Q559 405 554 360T532 271T496 206T449 171T400 155T348 152Q196 154 145 169L118 0H60ZM354 210Q410 210 444
240Q481 275 498 377Q502 399 502 411T501 438T496 469T484 496T466 514T445 524Q426 530 405 530H201L151 210H354Z" />
<glyph unicode="&#xdf;" glyph-name="germandbls" horiz-adv-x="562" d="M217 54L392 49Q438 49 466 73T500 132L507 172Q508 176 508 186T495 209T459 227T407 240T356 257T322 287T311 323T314 362T331 406T371 448T460 503Q488 520 510 549Q542 593 542 635T516
696Q480 720 398 720Q232 720 208 566L118 0H60L150 566Q165 661 226 719T400 777Q461 777 504 763T568 726Q601 688 601 640Q601 601 582 562Q547 490 495 459Q483 452 462 441T430 422T404 404Q371 378 371 340Q371 323 383 310T420 292T471 279T522 263T557
235T568 200T567 173L560 126Q545 24 439 -1Q412 -8 385 -8T331 -6T286 -1T242 5T211 10L217 54Z" />
<glyph unicode="&#xe0;" glyph-name="agrave" horiz-adv-x="542" d="M212 736H279L383 603H332L212 736ZM234 525T256 531T301 540T355 543T452 529T554 479L484 0H444L437 60Q403 38 349 16T254 -7T190 -3T145 14Q104 35 87 98Q79 126 79 148T79 195T90 281T119
389T158 463T206 507ZM187 410T171 365T146 263T137 165Q137 50 241 50Q299 50 337 63Q384 78 440 102L494 460Q413 487 351 487Q297 487 265 473T210 434Z" />
<glyph unicode="&#xe1;" glyph-name="aacute" horiz-adv-x="542" d="M339 603L472 736H544L390 603H339ZM234 525T256 531T301 540T355 543T452 529T554 479L484 0H444L437 60Q403 38 349 16T254 -7T190 -3T145 14Q104 35 87 98Q79 126 79 148T79 195T90 281T119
389T158 463T206 507ZM187 410T171 365T146 263T137 165Q137 50 241 50Q299 50 337 63Q384 78 440 102L494 460Q413 487 351 487Q297 487 265 473T210 434Z" />
<glyph unicode="&#xe2;" glyph-name="acircumflex" horiz-adv-x="542" d="M215 603L358 733H412L500 603H451L382 697L274 603H215ZM234 525T256 531T301 540T355 543T452 529T554 479L484 0H444L437 60Q403 38 349 16T254 -7T190 -3T145 14Q104 35 87 98Q79 126
79 148T79 195T90 281T119 389T158 463T206 507ZM187 410T171 365T146 263T137 165Q137 50 241 50Q299 50 337 63Q384 78 440 102L494 460Q413 487 351 487Q297 487 265 473T210 434Z" />
<glyph unicode="&#xe3;" glyph-name="atilde" horiz-adv-x="542" d="M448 656T482 671T531 696L542 666Q536 661 519 649T493 631T471 617Q421 590 379 616Q360 628 344 639T321 651T307 651T284 646T261 638T235 624T211 611L199 641Q252 680 278 691T326 703T382
679Q416 656 432 656ZM234 525T256 531T301 540T355 543T452 529T554 479L484 0H444L437 60Q403 38 349 16T254 -7T190 -3T145 14Q104 35 87 98Q79 126 79 148T79 195T90 281T119 389T158 463T206 507ZM187 410T171 365T146 263T137 165Q137 50 241 50Q299 50 337
63Q384 78 440 102L494 460Q413 487 351 487Q297 487 265 473T210 434Z" />
<glyph unicode="&#xe4;" glyph-name="adieresis" horiz-adv-x="542" d="M227 682T243 682T269 671T277 643T261 615T231 603T204 615T196 643T213 670ZM482 682T498 682T524 671T532 643T516 615T486 603T459 615T451 643T468 670ZM234 525T256 531T301 540T355
543T452 529T554 479L484 0H444L437 60Q403 38 349 16T254 -7T190 -3T145 14Q104 35 87 98Q79 126 79 148T79 195T90 281T119 389T158 463T206 507ZM187 410T171 365T146 263T137 165Q137 50 241 50Q299 50 337 63Q384 78 440 102L494 460Q413 487 351 487Q297
487 265 473T210 434Z" />
<glyph unicode="&#xe5;" glyph-name="aring" horiz-adv-x="542" d="M351 808T393 808T459 780T483 718Q483 683 465 656Q428 603 370 603Q328 603 303 630T278 692Q278 743 314 775ZM315 675T331 658T374 640T422 659Q447 681 447 708T432 753T389 771T341 751Q315
729 315 702ZM234 525T256 531T301 540T355 543T452 529T554 479L484 0H444L437 60Q403 38 349 16T254 -7T190 -3T145 14Q104 35 87 98Q79 126 79 148T79 195T90 281T119 389T158 463T206 507ZM187 410T171 365T146 263T137 165Q137 50 241 50Q299 50 337 63Q384
78 440 102L494 460Q413 487 351 487Q297 487 265 473T210 434Z" />
<glyph unicode="&#xe6;" glyph-name="ae" horiz-adv-x="922" d="M196 526T217 531T260 540T310 543T399 530T504 488Q561 541 678 541Q833 541 862 461Q869 441 869 421Q869 346 835 305T760 247Q683 217 603 217Q560 217 520 223T468 234Q461 187 461 150T470
91Q488 49 550 48Q568 47 620 47T795 65L788 22Q682 -7 545 -7Q447 -7 419 67Q380 40 319 17T216 -7T150 -2T104 15Q63 38 47 101Q40 128 40 149T40 195T51 281T81 390T120 465T168 509ZM106 261Q97 203 97 163T109 97Q131 50 204 50Q284 50 367 86Q391 97 408
108Q405 128 405 166T422 301T472 451Q367 486 302 486Q220 486 170 434Q126 388 106 261ZM474 274Q514 269 549 269T607 270T667 277T733 296T783 332Q812 363 812 406T783 466T677 484Q596 484 558 456Q544 446 534 438T516 414T502 388T492 357Q485 331 480
306T474 274Z" />
<glyph unicode="&#xe7;" glyph-name="ccedilla" horiz-adv-x="496" d="M139 159Q139 51 232 51Q314 51 423 62L459 65L453 23Q348 -6 235 -6Q232 -6 229 -6Q82 -5 82 170Q82 214 92 277T121 390T158 469T203 513T253 533T309 537Q389 537 523 510L516 469Q389
480 336 480T272 479T246 472T222 458T201 432T181 393Q162 342 148 262Q139 200 139 159ZM180 -172H135L140 -145L188 -134Q217 -126 231 -104T252 -36H303Q295 -89 282 -117T245 -159T180 -172Z" />
<glyph unicode="&#xe8;" glyph-name="egrave" horiz-adv-x="528" d="M213 734H279L383 601H333L213 734ZM241 528T274 534T352 541T434 533Q540 510 540 415Q540 346 506 305T430 247Q354 217 274 217Q231 217 191 223T139 234Q131 187 131 163Q131 91 154 70T220
48Q238 47 290 47T465 65L459 22Q353 -7 215 -7Q120 -7 91 62Q76 98 76 152T85 261T101 343T118 399T141 448T173 487T216 517ZM145 274Q185 269 220 269T278 270T338 277T404 296T454 332Q482 363 482 406T454 466T348 484Q267 484 229 456Q215 446 205 438T187
414T174 388T163 358Q156 332 151 307T145 274Z" />
<glyph unicode="&#xe9;" glyph-name="eacute" horiz-adv-x="528" d="M333 601L465 734H537L383 601H333ZM241 528T274 534T352 541T434 533Q540 510 540 415Q540 346 506 305T430 247Q354 217 274 217Q231 217 191 223T139 234Q131 187 131 163Q131 91 154 70T220
48Q238 47 290 47T465 65L459 22Q353 -7 215 -7Q120 -7 91 62Q76 98 76 152T85 261T101 343T118 399T141 448T173 487T216 517ZM145 274Q185 269 220 269T278 270T338 277T404 296T454 332Q482 363 482 406T454 466T348 484Q267 484 229 456Q215 446 205 438T187
414T174 388T163 358Q156 332 151 307T145 274Z" />
<glyph unicode="&#xea;" glyph-name="ecircumflex" horiz-adv-x="528" d="M215 601L358 731H413L501 601H452L382 695L275 601H215ZM241 528T274 534T352 541T434 533Q540 510 540 415Q540 346 506 305T430 247Q354 217 274 217Q231 217 191 223T139 234Q131 187
131 163Q131 91 154 70T220 48Q238 47 290 47T465 65L459 22Q353 -7 215 -7Q120 -7 91 62Q76 98 76 152T85 261T101 343T118 399T141 448T173 487T216 517ZM145 274Q185 269 220 269T278 270T338 277T404 296T454 332Q482 363 482 406T454 466T348 484Q267 484
229 456Q215 446 205 438T187 414T174 388T163 358Q156 332 151 307T145 274Z" />
<glyph unicode="&#xeb;" glyph-name="edieresis" horiz-adv-x="528" d="M213 670T223 675T246 680T269 669T277 641T261 613T232 601T205 613T197 638T206 661ZM468 670T478 675T501 680T524 669T532 641T516 613T487 601T460 613T452 638T461 661ZM241 528T274
534T352 541T434 533Q540 510 540 415Q540 346 506 305T430 247Q354 217 274 217Q231 217 191 223T139 234Q131 187 131 163Q131 91 154 70T220 48Q238 47 290 47T465 65L459 22Q353 -7 215 -7Q120 -7 91 62Q76 98 76 152T85 261T101 343T118 399T141 448T173 487T216
517ZM145 274Q185 269 220 269T278 270T338 277T404 296T454 332Q482 363 482 406T454 466T348 484Q267 484 229 456Q215 446 205 438T187 414T174 388T163 358Q156 332 151 307T145 274Z" />
<glyph unicode="&#xec;" glyph-name="igrave" horiz-adv-x="185" d="M24 729H91L195 596H144L24 729ZM60 0L144 531H202L118 0H60Z" />
<glyph unicode="&#xed;" glyph-name="iacute" horiz-adv-x="185" d="M143 596L275 729H347L193 596H143ZM60 0L144 531H202L118 0H60Z" />
<glyph unicode="&#xee;" glyph-name="icircumflex" horiz-adv-x="185" d="M24 596L167 726H221L309 596H260L191 690L84 596H24ZM60 0L144 531H202L118 0H60Z" />
<glyph unicode="&#xef;" glyph-name="idieresis" horiz-adv-x="185" d="M33 675T49 675T75 664T83 636T67 608T40 596Q14 596 6 616Q3 623 3 628T4 643T19 664ZM288 675T304 675T329 665T338 648T337 630T322 608T295 596T273 601Q255 613 258 633T274 664ZM60
0L144 531H202L118 0H60Z" />
<glyph unicode="&#xf0;" glyph-name="eth" horiz-adv-x="540" d="M479 681Q541 591 541 428Q541 346 527 258Q505 120 455 60T309 0H214Q71 0 71 169Q71 210 79 262Q103 404 151 467T298 531H390Q415 531 443 521T479 499Q467 605 421 660L261 600L250 645L382
694Q329 733 245 733Q242 733 238 733L246 783Q377 783 446 717L575 766L587 721L479 681ZM178 411T163 368T138 267T128 171T134 113Q146 71 184 62Q198 58 209 58T222 58H317Q318 58 319 58Q379 58 415 104T470 260Q480 324 480 348T480 376Q478 473 382 473H292Q262
473 240 465T198 434Z" />
<glyph unicode="&#xf1;" glyph-name="ntilde" horiz-adv-x="542" d="M453 653T487 668T535 693L547 663Q540 658 523 646T498 628T475 614Q421 584 375 618Q365 625 356 631Q335 648 319 648T288 643T265 635T239 621T215 608L204 638Q256 677 282 688T326 700T359
692T387 676Q417 653 435 653ZM406 540Q482 540 518 490Q546 452 546 402Q546 387 543 370L484 0H427L486 370Q488 383 488 395Q488 430 467 456T393 482T298 470T185 424L118 0H60L144 531H183L192 469Q292 523 349 535Q377 540 406 540Z" />
<glyph unicode="&#xf2;" glyph-name="ograve" horiz-adv-x="562" d="M225 729H292L396 596H345L225 729ZM361 536Q485 536 528 468Q556 423 556 348Q556 306 548 256Q523 107 468 51T284 -5T111 56Q82 96 82 172Q82 212 92 277T122 395T175 479T251 523T361 536ZM139
159Q139 143 146 122T163 86T195 65Q228 53 276 53T348 56T397 72T438 106Q473 155 490 258Q499 314 499 346T494 400T478 438T448 463Q415 478 369 478T301 476T257 466T219 443Q184 408 162 329T139 159Z" />
<glyph unicode="&#xf3;" glyph-name="oacute" horiz-adv-x="562" d="M345 596L478 729H550L396 596H345ZM361 536Q485 536 528 468Q556 423 556 348Q556 306 548 256Q523 107 468 51T284 -5T111 56Q82 96 82 172Q82 212 92 277T122 395T175 479T251 523T361 536ZM139
159Q139 143 146 122T163 86T195 65Q228 53 276 53T348 56T397 72T438 106Q473 155 490 258Q499 314 499 346T494 400T478 438T448 463Q415 478 369 478T301 476T257 466T219 443Q184 408 162 329T139 159Z" />
<glyph unicode="&#xf4;" glyph-name="ocircumflex" horiz-adv-x="562" d="M228 596L371 726H425L513 596H464L395 690L287 596H228ZM361 536Q485 536 528 468Q556 423 556 348Q556 306 548 256Q523 107 468 51T284 -5T111 56Q82 96 82 172Q82 212 92 277T122 395T175
479T251 523T361 536ZM139 159Q139 143 146 122T163 86T195 65Q228 53 276 53T348 56T397 72T438 106Q473 155 490 258Q499 314 499 346T494 400T478 438T448 463Q415 478 369 478T301 476T257 466T219 443Q184 408 162 329T139 159Z" />
<glyph unicode="&#xf5;" glyph-name="otilde" horiz-adv-x="562" d="M436 649Q436 649 443 649T472 657Q515 673 538 689L550 659Q543 654 526 642T501 624T478 610Q429 583 386 609Q367 621 352 632T329 644T314 644T291 639T268 631T242 617T218 604L207 634Q259
673 285 684T334 696T389 672T436 649ZM361 536Q485 536 528 468Q556 423 556 348Q556 306 548 256Q523 107 468 51T284 -5T111 56Q82 96 82 172Q82 212 92 277T122 395T175 479T251 523T361 536ZM139 159Q139 143 146 122T163 86T195 65Q228 53 276 53T348 56T397
72T438 106Q473 155 490 258Q499 314 499 346T494 400T478 438T448 463Q415 478 369 478T301 476T257 466T219 443Q184 408 162 329T139 159Z" />
<glyph unicode="&#xf6;" glyph-name="odieresis" horiz-adv-x="562" d="M239 675T256 675T282 664T289 636T273 608T247 596T224 601Q206 613 209 633T225 664ZM494 675T511 675T537 664T544 636T528 608T502 596T479 601Q461 613 464 633T480 664ZM361 536Q485
536 528 468Q556 423 556 348Q556 306 548 256Q523 107 468 51T284 -5T111 56Q82 96 82 172Q82 212 92 277T122 395T175 479T251 523T361 536ZM139 159Q139 143 146 122T163 86T195 65Q228 53 276 53T348 56T397 72T438 106Q473 155 490 258Q499 314 499 346T494
400T478 438T448 463Q415 478 369 478T301 476T257 466T219 443Q184 408 162 329T139 159Z" />
<glyph unicode="&#xf7;" glyph-name="divide" horiz-adv-x="529" d="M100 324L109 382H525L516 324H100ZM279 239H317Q335 239 332 218L324 168Q322 149 302 149H265Q256 149 252 154T248 168L256 218Q259 239 279 239ZM328 550H366Q382 550 382 535Q382 532 381
530L374 479Q372 460 351 460H314Q295 460 298 479L305 530Q308 550 328 550Z" />
<glyph unicode="&#xf8;" glyph-name="oslash" horiz-adv-x="558" d="M80 169Q80 210 89 269T113 374T149 452T201 502Q258 536 354 536T497 499L526 531H576L523 473Q555 429 555 349Q555 307 545 244T516 132T467 53T393 8T283 -5Q177 -5 129 35L98 0H51L105
60Q80 98 80 169ZM352 478Q313 478 289 475T240 459T199 422Q164 369 146 258Q138 209 138 171T147 109L458 455Q427 478 352 478ZM356 52T388 67T436 106Q471 155 489 258Q498 311 498 355T483 428L169 79Q198 52 277 52Z" />
<glyph unicode="&#xf9;" glyph-name="ugrave" horiz-adv-x="541" d="M211 729H278L382 596H331L211 729ZM131 133Q131 98 152 74T226 49T321 61T434 107L501 531H558L474 0H435L427 62Q384 39 358 27T292 3T213 -9Q136 -9 100 40Q73 77 73 128Q73 144 76 161L134
531H192L133 161Q131 146 131 133Z" />
<glyph unicode="&#xfa;" glyph-name="uacute" horiz-adv-x="541" d="M331 596L464 729H536L382 596H331ZM131 133Q131 98 152 74T226 49T321 61T434 107L501 531H558L474 0H435L427 62Q384 39 358 27T292 3T213 -9Q136 -9 100 40Q73 77 73 128Q73 144 76 161L134
531H192L133 161Q131 146 131 133Z" />
<glyph unicode="&#xfb;" glyph-name="ucircumflex" horiz-adv-x="541" d="M214 596L357 726H411L499 596H450L381 690L273 596H214ZM131 133Q131 98 152 74T226 49T321 61T434 107L501 531H558L474 0H435L427 62Q384 39 358 27T292 3T213 -9Q136 -9 100 40Q73
77 73 128Q73 144 76 161L134 531H192L133 161Q131 146 131 133Z" />
<glyph unicode="&#xfc;" glyph-name="udieresis" horiz-adv-x="541" d="M225 675T242 675T268 664T275 636T259 608T230 596T203 608T195 636T211 664ZM480 675T497 675T523 664T530 636T514 608T485 596T458 608T450 636T466 664ZM131 133Q131 98 152 74T226
49T321 61T434 107L501 531H558L474 0H435L427 62Q384 39 358 27T292 3T213 -9Q136 -9 100 40Q73 77 73 128Q73 144 76 161L134 531H192L133 161Q131 146 131 133Z" />
<glyph unicode="&#xfd;" glyph-name="yacute" horiz-adv-x="544" d="M314 591L447 724H519L365 591H314ZM569 535Q574 520 574 497T556 440L338 1Q266 -141 212 -199Q155 -261 98 -269V-229Q132 -214 165 -173Q204 -125 225 -86T250 -39T262 -17T271 0Q245 0 221
14Q175 40 164 110L94 531H154L223 116Q233 60 289 59L300 60L497 453Q517 492 523 535H569Z" />
<glyph unicode="&#xfe;" glyph-name="thorn" horiz-adv-x="543" d="M383 540T421 540T490 515T534 449Q552 392 552 345T547 266T538 213T525 161T506 109T479 63T442 24Q394 -10 327 -10Q289 -10 231 0T132 29L84 -270H27L194 782H252L202 471Q246 500 314 520ZM488
269Q494 309 494 352T479 429Q457 483 408 483Q352 483 266 454Q240 446 195 430L139 74Q207 54 248 52T332 48Q392 48 431 98T488 269Z" />
<glyph unicode="&#xff;" glyph-name="ydieresis" horiz-adv-x="544" d="M217 681T227 681T246 676Q264 665 261 645T245 614T215 602T188 613T180 639T189 662T206 676ZM466 678T471 679T485 681T501 676Q519 665 516 645T500 614T470 602T443 613T435 636T439
652T444 662T452 669T461 675ZM569 535Q574 520 574 497T556 440L338 1Q266 -141 212 -199Q155 -261 98 -269V-229Q132 -214 165 -173Q204 -125 225 -86T250 -39T262 -17T271 0Q245 0 221 14Q175 40 164 110L94 531H154L223 116Q233 60 289 59L300 60L497 453Q517
492 523 535H569Z" />
<glyph unicode="&#x2013;" glyph-name="endash" horiz-adv-x="448" d="M60 258L69 317H542L533 258H60Z" />
<glyph unicode="&#x2014;" glyph-name="emdash" horiz-adv-x="737" d="M59 260L68 319H764L755 260H59Z" />
<glyph unicode="&#x2018;" glyph-name="quoteleft" horiz-adv-x="236" d="M206 717T219 723T243 730T258 732T274 730L270 705Q269 705 268 705Q241 705 236 676L231 645H242Q252 645 257 639T261 621L252 561Q248 535 224 535H183Q164 535 164 553Q164 557 165
561L180 662Q184 686 195 701Z" />
<glyph unicode="&#x2019;" glyph-name="quoteright" horiz-adv-x="236" d="M172 563Q198 563 203 592L208 622H197Q187 622 182 628T178 646L188 707Q192 732 215 732H257Q276 732 276 714Q276 711 275 707L259 606Q255 582 244 566Q223 535 180 535Q177 535 165
536L170 563Q171 563 172 563Z" />
<glyph unicode="&#x201a;" glyph-name="quotesinglbase" horiz-adv-x="236" d="M72 -61Q99 -61 104 -31L108 -1H98Q88 -1 83 5T78 23L88 83Q92 109 116 109H157Q176 109 176 91Q176 88 176 83L160 -17Q152 -63 117 -81Q102 -88 88 -88T66 -87L70 -61Q71 -61 72 -61Z" />
<glyph unicode="&#x201c;" glyph-name="quotedblleft" horiz-adv-x="361" d="M200 717T213 723T236 730T251 732T267 730L263 705Q262 705 261 705Q234 705 230 676L225 645H235Q245 645 251 639T255 621L245 561Q242 535 217 535H176Q157 535 157 553Q157 557
158 561L174 662Q178 686 189 701ZM339 717T352 723T375 730T390 732T406 730L402 705Q402 705 401 705Q373 705 368 676L364 645H374Q384 645 390 639T394 621L384 561Q381 535 356 535H315Q296 535 296 553Q296 557 297 561L313 662Q317 686 328 701Z" />
<glyph unicode="&#x201d;" glyph-name="quotedblright" horiz-adv-x="361" d="M191 622Q180 622 175 628T171 646L181 707Q185 732 208 732H249Q269 732 269 714Q269 711 268 707L252 606Q248 582 237 566Q216 535 173 535Q170 535 158 536L163 563Q176 562 183
568Q193 575 196 592L201 622H191ZM304 563Q330 563 335 592L340 622H329Q319 622 314 628T310 646L320 707Q324 732 347 732H389Q408 732 408 714Q408 711 407 707L391 606Q387 582 376 566Q355 535 312 535Q309 535 297 536L302 563Q303 563 304 563Z" />
<glyph unicode="&#x201e;" glyph-name="quotedblbase" horiz-adv-x="361" d="M91 1Q81 1 76 7T71 24L81 85Q85 110 109 110H150Q169 110 169 93Q169 89 169 85L152 -16Q149 -40 137 -56Q116 -87 73 -87Q70 -87 59 -85L63 -60Q76 -60 84 -54Q94 -47 96 -30L101
1H91ZM204 -60Q231 -60 236 -30L240 1H230Q220 1 214 7T210 24L220 85Q224 110 248 110H289Q308 110 308 93Q308 89 308 85L291 -16Q287 -40 276 -56Q255 -87 212 -87Q209 -87 198 -85L202 -60Q203 -60 204 -60Z" />
<glyph unicode="&#x2022;" glyph-name="bullet" horiz-adv-x="318" d="M166 317Q138 317 138 342Q138 346 139 349L148 413Q151 429 161 438T187 448H245Q274 448 274 421Q274 417 274 413L264 349Q259 317 224 317H166Z" />
<glyph unicode="&#x2039;" glyph-name="guilsinglleft" horiz-adv-x="293" d="M38 354L276 557L312 516L116 349L258 183L216 146L38 354Z" />
<glyph unicode="&#x203a;" glyph-name="guilsinglright" horiz-adv-x="364" d="M106 188L304 356L163 521L205 557L381 351L141 146L106 188Z" />
</font>
</defs>
</svg>
