<?xml version="1.0" standalone="no"?>
<!DOCTYPE svg PUBLIC "-//W3C//DTD SVG 1.1//EN" "http://www.w3.org/Graphics/SVG/1.1/DTD/svg11.dtd">
<svg xmlns="http://www.w3.org/2000/svg">
<defs >
<font id="Exo" horiz-adv-x="537" ><font-face
    font-family="Exo"
    units-per-em="1000"
    panose-1="2 0 5 3 0 0 0 0 0 0"
    ascent="1002"
    descent="-327"
    alphabetic="0" />
<glyph unicode=" " glyph-name="space" horiz-adv-x="250" />
<glyph unicode="!" glyph-name="exclam" horiz-adv-x="269" d="M82 23V80Q82 105 106 105H161Q184 105 184 80V23Q184 0 161 0H106Q82 0 82 23ZM88 731H177L170 196H95L88 731Z" />
<glyph unicode="&quot;" glyph-name="quotedbl" horiz-adv-x="380" d="M85 732H160V665L150 531H96L85 665V732ZM220 732H295V665L285 531H231L220 665V732Z" />
<glyph unicode="#" glyph-name="numbersign" horiz-adv-x="687" d="M20 232L28 284H187L213 449H54L63 501H221L258 732H310L273 501H439L475 732H527L491 501H668L659 449H482L456 283H633L625 231H448L411 0H359L396 231L230 232L193 0H141L178 232H20ZM239
284L404 283L430 449H265L239 284Z" />
<glyph unicode="$" glyph-name="dollar" horiz-adv-x="575" d="M78 72L317 66Q446 66 446 156V224Q446 322 363 322H233Q128 322 88 378Q55 426 55 494V560Q56 659 105 697T244 738V824H302V735Q367 730 493 714V656L253 665Q246 665 233 665T201 663T165 650Q129
628 129 560V494Q129 396 233 396H363Q461 396 494 340Q520 294 520 224V156Q520 57 450 20Q398 -8 323 -8Q313 -8 302 -8V-90H244V-3L78 17V72Z" />
<glyph unicode="%" glyph-name="percent" horiz-adv-x="955" d="M42 474V607Q42 673 70 702T171 732H272Q343 732 371 703T399 607V474Q399 408 371 379T270 349H169Q98 349 70 378T42 474ZM107 474Q107 438 120 426T169 414H270Q312 414 323 426T334 474V607Q334
643 321 655T272 667H171Q130 667 119 655T107 607V474ZM227 0L665 732H736L298 0H227ZM556 127V260Q556 326 584 355T685 385H786Q857 385 885 356T913 260V127Q913 61 885 32T784 2H683Q612 2 584 31T556 127ZM621 127Q621 91 634 79T683 67H784Q826 67 837 79T848
127V260Q848 296 835 308T786 320H685Q644 320 633 308T621 260V127Z" />
<glyph unicode="&amp;" glyph-name="ampersand" horiz-adv-x="637" d="M33 205Q33 297 114 366L200 439L137 524Q104 572 104 612Q104 662 137 694T206 729T278 733Q373 733 473 710V660H270Q225 660 203 650T181 613T216 538L451 220L565 339L588 315L537 208L496
163L613 0H525L443 111L371 44Q320 -4 247 -4Q138 -4 78 82Q33 142 33 205ZM247 68Q285 68 318 95L398 170L242 378L164 313Q105 265 105 210Q105 168 139 125Q183 68 247 68Z" />
<glyph unicode="&apos;" glyph-name="quotesingle" horiz-adv-x="185" d="M55 732H130V665L120 531H66L55 665V732Z" />
<glyph unicode="(" glyph-name="parenleft" horiz-adv-x="335" d="M109 60T92 149T75 320T91 486T131 633Q178 762 218 832L234 860H315Q292 825 261 758T207 631T167 487T149 322T166 156T208 7Q258 -123 298 -184L315 -210H234L217 -184Q206 -168 179 -113T130 1Z" />
<glyph unicode=")" glyph-name="parenright" horiz-adv-x="335" d="M150 67T168 154T186 322T169 485T128 632Q76 765 37 832L20 860H101Q107 849 118 830T156 752T205 632T243 488T260 321T244 150T204 0Q153 -132 118 -186L101 -210H20Q43 -177 74 -114T128 8Z" />
<glyph unicode="*" glyph-name="asterisk" horiz-adv-x="440" d="M50 566V606L189 635L194 561L50 566ZM118 414L142 549L214 532L155 402L118 414ZM176 717L215 733L290 615L222 584L176 717ZM208 476L249 538L359 447L338 415L208 476ZM251 571L371 647L390
612L299 515L251 571Z" />
<glyph unicode="+" glyph-name="plus" horiz-adv-x="516" d="M50 319V393H220V564H294V393H466V319H294V148H220V319H50Z" />
<glyph unicode="," glyph-name="comma" horiz-adv-x="270" d="M85 25V79Q85 106 110 106H161Q185 106 185 79V-11Q185 -38 175 -56Q155 -90 108 -90Q104 -90 100 -90L90 -88V-56Q91 -56 92 -56Q121 -56 121 -25V0H110Q85 0 85 25Z" />
<glyph unicode="-" glyph-name="hyphen" horiz-adv-x="354" d="M20 253V327H334V253H20Z" />
<glyph unicode="." glyph-name="period" horiz-adv-x="272" d="M85 23V80Q85 105 109 105H162Q187 105 187 80V23Q187 0 162 0H109Q85 0 85 23Z" />
<glyph unicode="/" glyph-name="slash" horiz-adv-x="400" d="M20 -72L301 770H380L99 -72H20Z" />
<glyph unicode="0" glyph-name="zero" horiz-adv-x="643" d="M70 162V570Q70 648 118 690T242 732H406Q492 732 532 687T573 570V162Q573 0 406 0H242Q167 0 119 39T70 162ZM144 162Q144 116 172 95T242 74H406Q499 74 499 162V570Q499 658 406 658H242Q192 658
168 634T144 570V162Z" />
<glyph unicode="1" glyph-name="one" horiz-adv-x="362" d="M282 732V0H208V648L40 594V647L208 732H282Z" />
<glyph unicode="2" glyph-name="two" horiz-adv-x="597" d="M40 667V722Q197 742 344 742Q445 742 496 680T547 532Q547 477 516 414T443 301T346 200Q261 121 190 74H547V0H47V68Q245 203 355 320Q402 370 437 428T472 540T440 630T343 667H40Z" />
<glyph unicode="3" glyph-name="three" horiz-adv-x="594" d="M30 706Q108 735 269 735Q307 735 348 734Q428 733 473 687T519 569V500Q519 390 453 364Q519 322 519 220V161Q519 -7 341 -7Q304 -7 282 -7T232 -7T195 -6T163 -4T128 0L98 5Q66 10 36 21L37 68H335Q414
68 434 112Q443 131 443 161V220Q443 322 341 326L98 333V391L341 401Q445 406 445 500V569Q445 614 415 637T341 660H30V706Z" />
<glyph unicode="4" glyph-name="four" horiz-adv-x="603" d="M419 265V472L456 547H493V265H583V206L493 187V2H419V187H54L20 224L341 732H429L135 265H419Z" />
<glyph unicode="5" glyph-name="five" horiz-adv-x="603" d="M283 449L380 446Q465 446 504 402T544 280V166Q544 118 528 83T484 30Q434 -4 380 -4Q279 -4 225 0T76 20V75H380Q427 75 448 102T470 168V278Q470 345 431 363Q411 372 380 372H226Q193 372 169 353T144
297H78L100 732H522V658H168L156 416Q183 449 283 449Z" />
<glyph unicode="6" glyph-name="six" horiz-adv-x="623" d="M65 384Q65 567 115 652T237 738Q400 738 539 719V664H250Q218 664 195 637T161 566Q141 486 139 407Q318 428 406 428T529 388T563 279V148Q563 -1 402 -1H253Q209 -1 177 15T118 73Q65 156 65 384ZM139
354Q139 230 155 178Q163 151 174 126Q198 73 253 73H402Q446 73 468 89T490 154V279Q490 354 402 354H139Z" />
<glyph unicode="7" glyph-name="seven" horiz-adv-x="546" d="M30 658V732H489L516 684L251 0H163L421 658H30Z" />
<glyph unicode="8" glyph-name="eight" horiz-adv-x="634" d="M75 154V252Q75 286 89 309T119 342T160 359Q116 374 96 413T75 499V564Q75 659 121 698T251 737H397Q479 737 519 696T559 564V499Q559 495 559 489T558 471T550 439T526 404T484 383Q521 376 540
334T559 252V154Q559 108 543 76T500 28Q453 0 396 0H251Q202 0 167 12T115 41T88 82Q75 115 75 154ZM149 151Q149 74 251 74H396Q432 74 458 94T485 151V256Q485 296 460 316T399 337H240Q201 337 175 318T149 256V151ZM149 494Q149 449 177 430T240 410H399Q485
410 485 494V562Q485 616 464 639T397 663H251Q197 663 173 644T149 562V494Z" />
<glyph unicode="9" glyph-name="nine" horiz-adv-x="623" d="M60 458V589Q60 738 221 738H370Q414 738 446 722T504 664Q558 581 558 353Q558 170 508 85T386 -1Q176 -1 84 18V73H373Q405 73 428 100T462 171Q482 251 484 330Q306 309 217 309T94 349T60 458ZM133
458Q133 383 221 383H484Q484 506 468 560Q460 586 448 612Q425 664 370 664H221Q177 664 155 648T133 583V458Z" />
<glyph unicode=":" glyph-name="colon" horiz-adv-x="272" d="M85 23V80Q85 105 109 105H162Q187 105 187 80V23Q187 0 162 0H109Q85 0 85 23ZM85 450V507Q85 532 109 532H162Q187 532 187 507V450Q187 427 162 427H109Q85 427 85 450Z" />
<glyph unicode=";" glyph-name="semicolon" horiz-adv-x="274" d="M85 25V79Q85 90 92 98T110 106H161Q172 106 178 99T185 79V-11Q185 -38 175 -56Q155 -90 108 -90Q104 -90 100 -90L90 -88V-56Q91 -56 92 -56Q121 -56 121 -25V0H110Q100 0 93 8T85 25ZM87 451V508Q87
533 111 533H164Q189 533 189 508V451Q189 428 164 428H111Q87 428 87 451Z" />
<glyph unicode="&lt;" glyph-name="less" horiz-adv-x="475" d="M50 314V394L425 556V476L149 354L425 222V140L50 314Z" />
<glyph unicode="=" glyph-name="equal" horiz-adv-x="467" d="M20 212V286H447V212H20ZM20 421V495H447V421H20Z" />
<glyph unicode="&gt;" glyph-name="greater" horiz-adv-x="475" d="M50 140V222L326 354L50 476V556L425 394V314L50 140Z" />
<glyph unicode="?" glyph-name="question" horiz-adv-x="541" d="M200 739L270 741Q291 741 302 739Q408 739 454 688T501 554V453Q501 356 434 318Q387 291 320 291Q291 291 258 296V195H183V357H325Q367 359 397 383T428 453V554Q428 612 396 638T291 664H20V719Q70
727 96 729T156 735T200 739ZM170 23V80Q170 105 194 105H249Q272 105 272 80V23Q272 0 249 0H194Q170 0 170 23Z" />
<glyph unicode="@" glyph-name="at" horiz-adv-x="844" d="M65 0V348Q65 423 102 465Q118 483 152 497T233 512H448Q511 512 556 480T601 372V0H545L531 64L521 56Q434 -9 350 -9Q297 -9 261 24T225 108V161Q225 222 259 258T354 294H529Q530 332 530 351T529
370Q529 410 509 424T445 438H233Q189 438 164 420T139 348V0Q139 -103 233 -103H582Q641 -103 663 -79T685 0V512Q685 568 657 597T582 626H178V673Q308 700 455 700Q461 700 466 700H582Q664 698 711 651T759 512V0Q759 -178 582 -178H233Q155 -178 110 -132T65
0ZM299 114Q299 97 317 81T357 65Q359 65 373 65T422 75T473 92T529 119V242L359 226Q330 223 314 205T299 159V114Z" />
<glyph unicode="A" glyph-name="A" horiz-adv-x="670" d="M45 0L314 732H388L645 0H557L494 204H202L136 0H45ZM229 278H468L350 619L229 278Z" />
<glyph unicode="B" glyph-name="B" horiz-adv-x="596" d="M80 0V732H362Q461 732 506 674T552 542Q552 409 460 380Q498 371 527 327T556 204Q556 120 517 64Q472 0 362 0H80ZM155 74H362Q482 74 482 206Q482 266 452 306T362 346H155V74ZM155 420H362Q478 420
478 539T362 658H155V420Z" />
<glyph unicode="C" glyph-name="C" horiz-adv-x="578" d="M543 656Q363 666 299 666T199 642T146 553T129 366Q129 68 299 68L543 75V16Q425 -6 299 -6Q55 -6 55 368Q55 558 106 649T299 740Q408 740 543 715V656Z" />
<glyph unicode="D" glyph-name="D" horiz-adv-x="657" d="M80 0V732H352Q417 732 465 708T541 646T585 557Q612 474 612 363Q612 254 576 164Q534 62 453 22Q408 0 352 0H80ZM154 77H352Q415 77 458 118Q538 193 538 356T491 588T352 658H154V77Z" />
<glyph unicode="E" glyph-name="E" horiz-adv-x="567" d="M80 602Q80 671 114 701T200 732Q203 732 206 732L522 716V658H206Q182 658 170 649T156 630T154 602V402L482 392V333L154 323V123Q154 98 165 86T186 73T216 71H522V14L216 -3Q208 -3 201 -3Q80 -3 80 123V602Z" />
<glyph unicode="F" glyph-name="F" horiz-adv-x="567" d="M80 0V602Q80 671 114 701T200 732Q203 732 206 732L522 716V658H206Q182 658 170 649T156 630T154 602V402L482 392V333L154 323V0H80Z" />
<glyph unicode="G" glyph-name="G" horiz-adv-x="614" d="M64 197T60 248T55 376T64 513T97 628Q146 740 289 740Q328 740 409 732T543 713V654Q534 654 493 657T420 662Q356 666 289 666Q194 666 162 598T129 365T165 135T293 68Q327 68 375 79T454 102L485 114V314H317V364Q408
389 491 389Q523 389 559 386V0H503L487 49Q389 -5 293 -5Q290 -5 287 -5Q231 -5 188 14T120 64T79 146Z" />
<glyph unicode="H" glyph-name="H" horiz-adv-x="638" d="M80 0V732H154V391H504V732H578V0H504V317H154V0H80Z" />
<glyph unicode="I" glyph-name="I" horiz-adv-x="214" d="M80 0V732H154V0H80Z" />
<glyph unicode="J" glyph-name="J" horiz-adv-x="359" d="M247 18Q209 -6 143 -6T35 21L39 75Q103 59 139 59Q224 59 225 165V732H299V165Q299 51 247 18Z" />
<glyph unicode="K" glyph-name="K" horiz-adv-x="591" d="M80 0V732H154V404H236L466 732H556L304 367L556 0H466L236 330H155V0H80Z" />
<glyph unicode="L" glyph-name="L" horiz-adv-x="557" d="M80 126V732H154V126Q154 88 175 80Q191 74 216 74H522V0H216Q159 0 124 20Q80 45 80 126Z" />
<glyph unicode="M" glyph-name="M" horiz-adv-x="801" d="M55 0L103 732H205L400 123L589 732H690L746 0H672L627 598L439 0H363L169 598L129 0H55Z" />
<glyph unicode="N" glyph-name="N" horiz-adv-x="680" d="M80 0V732H156L546 138V732H620V0H546L155 594V0H80Z" />
<glyph unicode="O" glyph-name="O" horiz-adv-x="676" d="M81 158T73 218T65 362T74 507T102 611T143 677T201 716Q258 737 349 737Q480 737 533 697Q584 658 606 586Q631 498 631 382T619 200T585 93T526 32T448 3T354 -4T265 0T196 16T139 53T99 118ZM145 490T142
450T139 337T148 207T185 119T249 79T342 70T431 76T489 100T529 151Q557 217 557 361Q557 518 533 572Q523 595 515 610T491 635T464 651T430 659T392 662T349 663T307 663T270 660T235 652T207 636T183 610T164 573T150 520Z" />
<glyph unicode="P" glyph-name="P" horiz-adv-x="581" d="M60 0V732H361Q536 732 536 520Q536 356 454 316Q428 304 408 301T360 298T235 307T134 318V0H60ZM134 372H361Q409 372 435 401T461 520Q459 613 422 638Q395 657 361 657H134V372Z" />
<glyph unicode="Q" glyph-name="Q" horiz-adv-x="676" d="M81 158T73 218T65 370T78 532T114 642T174 703T251 731T342 737T429 733T497 716T554 678T596 611Q631 532 631 361Q631 181 584 93Q562 53 524 32T446 3T352 -4T263 0T194 16T138 53T99 118ZM145 490T142
450T139 337T148 207T184 119T247 79T346 70T446 80T510 122T547 210T557 339T554 450T547 520T533 572T515 610T490 635T463 651T428 659T390 662T347 663T305 663T268 660T234 652T206 636T182 610T164 573T150 520ZM369 -33Q419 -68 461 -68T537 -53V-133Q504
-142 482 -142T452 -142Q406 -139 366 -110T317 -33H369Z" />
<glyph unicode="R" glyph-name="R" horiz-adv-x="593" d="M60 0V732H372Q541 732 541 512Q541 320 414 302L568 0H488L334 299L134 313V0H60ZM134 379H372Q431 379 446 408Q466 443 466 521T440 628T372 657H134V379Z" />
<glyph unicode="S" glyph-name="S" horiz-adv-x="584" d="M65 494V560Q65 661 117 699T250 738T513 714V654L263 664Q255 664 247 664Q196 664 168 646T139 560V494Q139 432 163 414T241 396H383Q539 396 539 224V156Q539 55 474 20Q420 -8 337 -8Q302 -8 214
1T87 17V77Q197 66 337 66Q465 66 465 156V224Q465 271 447 296T383 322H243Q129 322 94 377Q65 423 65 494Z" />
<glyph unicode="T" glyph-name="T" horiz-adv-x="578" d="M45 658V732H553V658H333V0H259V658H45Z" />
<glyph unicode="U" glyph-name="U" horiz-adv-x="677" d="M80 320V732H154V320Q154 229 165 176T208 100T264 74T318 69Q318 69 351 69Q422 69 439 76T471 91T495 112T514 144T530 188Q542 243 542 320V732H617V320Q617 227 600 163T560 66T496 17T427 -2T374
-5T332 -5T302 -5T264 -3T226 3T193 15T161 35T134 65T111 106T95 162Q80 219 80 320Z" />
<glyph unicode="V" glyph-name="V" horiz-adv-x="670" d="M45 732H126L340 118L564 732H645L376 0H302L45 732Z" />
<glyph unicode="W" glyph-name="W" horiz-adv-x="962" d="M45 732H126L339 129L520 732H604L536 498L669 123L856 732H937L708 0H634L497 374L376 0H302L45 732Z" />
<glyph unicode="X" glyph-name="X" horiz-adv-x="596" d="M45 732H126L306 425L490 732H571L355 371L566 0H485L306 308L129 0H48L257 371L45 732Z" />
<glyph unicode="Y" glyph-name="Y" horiz-adv-x="630" d="M352 0H278V260L45 732H126L315 348L524 732H605L352 260V0Z" />
<glyph unicode="Z" glyph-name="Z" horiz-adv-x="563" d="M35 0V74L431 658H35V732H528V658L132 74H528V0H35Z" />
<glyph unicode="[" glyph-name="bracketleft" horiz-adv-x="321" d="M85 -38V670Q85 728 107 778Q120 807 149 824T221 842H301V768H221Q193 768 176 742T159 670V-38Q159 -83 176 -109T221 -136H301V-210H221Q178 -210 149 -193T107 -146Q85 -96 85 -38Z" />
<glyph unicode="\" glyph-name="backslash" horiz-adv-x="400" d="M20 770H99L380 -72H301L20 770Z" />
<glyph unicode="]" glyph-name="bracketright" horiz-adv-x="321" d="M20 -136H100Q128 -136 145 -110T162 -38V670Q162 715 145 741T100 768H20V842H100Q143 842 172 825T214 778Q236 728 236 670V-38Q236 -96 214 -146Q201 -175 172 -192T100 -210H20V-136Z" />
<glyph unicode="^" glyph-name="asciicircum" horiz-adv-x="392" d="M50 531L167 661H238L342 531H271L201 602L122 531H50Z" />
<glyph unicode="_" glyph-name="underscore" horiz-adv-x="674" d="M20 -1V73H654V-1H20Z" />
<glyph unicode="`" glyph-name="grave" horiz-adv-x="242" d="M20 664H115L222 531H153L20 664Z" />
<glyph unicode="a" glyph-name="a" horiz-adv-x="519" d="M57 511Q165 541 319 541Q384 541 426 503T469 387V0H414L395 64L380 57Q250 -6 173 -6Q116 -6 78 29T40 126V187Q40 248 75 284T173 320Q284 320 339 320T395 320Q396 353 396 369T395 387Q395 469 309
469T57 457V511ZM114 131Q114 68 173 68Q209 68 264 81T358 106L395 119V262L173 246Q143 243 129 225T114 181V131Z" />
<glyph unicode="b" glyph-name="b" horiz-adv-x="554" d="M60 0V785H132V499Q177 517 234 528T337 539T419 516T474 450Q504 376 504 263Q504 160 471 84Q453 42 417 18T332 -6T221 17T133 59L113 0H60ZM329 68Q430 68 430 263Q430 379 406 422T329 465Q233 465
133 439V114Q246 68 329 68Z" />
<glyph unicode="c" glyph-name="c" horiz-adv-x="500" d="M50 182T50 266T62 405T100 488T154 526T248 536T453 510V456Q314 462 256 462T183 457T152 434Q124 399 124 275T146 110T225 69Q319 69 422 77L460 80V24Q364 -3 225 -5Q184 -5 156 5T102 42T63 126Z" />
<glyph unicode="d" glyph-name="d" horiz-adv-x="554" d="M65 125T58 168T50 266T56 364T80 450Q117 539 225 539Q262 539 319 528T421 499V785H494V0H441L421 59Q396 41 334 18T222 -6T137 18T83 83ZM124 263Q124 68 225 68Q308 68 421 114V439Q321 465 225 465Q173
465 149 422T124 263Z" />
<glyph unicode="e" glyph-name="e" horiz-adv-x="525" d="M50 268Q50 356 62 409T105 490T175 526T275 535T368 530T429 507T472 450T485 347Q485 225 348 225H124Q124 132 145 101T225 69Q407 69 475 79V23Q376 -5 225 -5Q124 -5 87 53T50 268ZM124 298H348Q411
298 411 347Q411 424 389 442T283 461Q180 461 160 440Q132 410 128 374T124 298Z" />
<glyph unicode="f" glyph-name="f" horiz-adv-x="400" d="M20 457V514L117 531V630Q117 711 145 748Q157 763 181 774T254 786T380 762V713L257 714Q211 714 200 690Q191 669 191 630V531H339V457H191V0H117V457H20Z" />
<glyph unicode="g" glyph-name="g" horiz-adv-x="554" d="M48 115Q48 143 63 167T107 198Q49 235 49 336T94 485T222 533H534V477L453 459Q454 457 460 447T469 430T476 410Q484 386 484 351T478 287T455 225T404 170T319 149H163Q122 149 122 119Q122 85 163
85H376Q437 85 471 48T505 -53V-116Q505 -170 480 -214Q465 -240 433 -255T355 -270H205Q132 -270 89 -231T45 -116V-31L85 34Q48 60 48 115ZM164 11Q137 11 119 19V-116Q119 -196 205 -196H355Q431 -196 431 -116V-58Q431 -20 418 -5T363 11H164ZM123 344Q123
302 136 274Q160 223 215 223H313Q367 223 388 259T410 337Q410 397 389 428T312 459H222Q123 459 123 344Z" />
<glyph unicode="h" glyph-name="h" horiz-adv-x="544" d="M60 0V784H134V469Q137 470 156 481T179 495T201 506T225 518T248 526T274 534Q306 540 330 540Q406 540 450 490T494 370V0H420V370Q420 418 396 442T332 466T258 458T204 442T134 409V0H60Z" />
<glyph unicode="i" glyph-name="i" horiz-adv-x="197" d="M50 617V671Q50 696 74 696H124Q147 696 147 671V617Q147 594 124 594H74Q50 594 50 617ZM60 0V531H134V0H60Z" />
<glyph unicode="j" glyph-name="j" horiz-adv-x="217" d="M60 617V671Q60 696 84 696H134Q157 696 157 671V617Q157 594 134 594H84Q60 594 60 617ZM71 -270V531H145V-4Q145 -16 145 -27Q145 -186 119 -270H71Z" />
<glyph unicode="k" glyph-name="k" horiz-adv-x="500" d="M60 0V782H134V342H174L377 531H480L244 305L480 0H388L174 268H134V0H60Z" />
<glyph unicode="l" glyph-name="l" horiz-adv-x="300" d="M60 189V783H134V189Q134 128 148 105T191 74Q273 53 280 53V0H192Q60 0 60 189Z" />
<glyph unicode="m" glyph-name="m" horiz-adv-x="898" d="M60 0V531H112L134 467Q140 471 158 481T184 496T208 509T236 520L261 529Q285 537 329 537T413 516T470 459Q564 537 684 537Q754 537 801 489T848 366V0H774V366Q774 410 749 436T684 463Q624 463 581
451T488 407V0H414V366Q414 410 389 436T325 463T254 455T203 440T134 407V0H60Z" />
<glyph unicode="n" glyph-name="n" horiz-adv-x="544" d="M60 0V531H112L134 469Q137 470 156 481T179 495T201 506T225 518T248 526T274 534Q306 540 330 540Q406 540 450 490T494 370V0H420V370Q420 417 395 441T331 466T258 458T204 442T134 409V0H60Z" />
<glyph unicode="o" glyph-name="o" horiz-adv-x="568" d="M152 -5T101 54T50 266T101 477T285 536T468 477T518 263T468 52T285 -5ZM137 390T131 353T124 254T133 154T166 97T214 74T284 69T355 74T403 97T435 154T444 261T437 370T407 431T360 457T290 462T224
459T180 445T148 412Z" />
<glyph unicode="p" glyph-name="p" horiz-adv-x="554" d="M60 -270V531H113L132 472Q157 490 220 513T332 537T417 513T471 448Q504 371 504 268Q504 68 420 15Q383 -8 338 -8T235 3T132 32V-270H60ZM329 66Q381 66 405 109T430 268Q430 463 329 463Q245 463 132
417V92Q232 66 329 66Z" />
<glyph unicode="q" glyph-name="q" horiz-adv-x="555" d="M50 397T96 467T234 537Q319 537 401 526T495 514V-270H421V29Q325 -10 234 -10Q124 -10 84 70Q50 140 50 268ZM124 268Q124 166 138 128Q162 64 234 64Q290 64 324 68T421 89V463H234Q124 463 124 268Z" />
<glyph unicode="r" glyph-name="r" horiz-adv-x="426" d="M60 0V531H112L134 464Q210 510 230 516T266 528Q296 537 343 537T406 529V456Q382 462 338 462T260 454T205 437T134 404V0H60Z" />
<glyph unicode="s" glyph-name="s" horiz-adv-x="506" d="M40 358V404Q40 469 72 502T188 536T439 520V463H178Q132 463 122 446Q114 433 114 404V358Q114 318 133 309Q149 301 178 301H336Q399 301 432 266T466 172V123Q466 49 430 22T336 -5Q243 -5 62 14V69H336Q336
70 341 69T355 71T372 78Q392 88 392 123V172Q392 200 380 213T336 227H178Q105 227 73 255T40 358Z" />
<glyph unicode="t" glyph-name="t" horiz-adv-x="378" d="M20 458V514L119 532L137 680H193V532H348V458H193V190Q193 129 207 106T250 75Q332 54 339 54V1H251Q119 1 119 190V458H20Z" />
<glyph unicode="u" glyph-name="u" horiz-adv-x="544" d="M50 161V531H124V161Q124 114 149 90T213 65T286 73T340 89T410 122V531H484V0H432L410 62Q407 61 388 50T365 36T343 25T319 13T296 5T270 -3Q238 -9 214 -9Q138 -9 94 41T50 161Z" />
<glyph unicode="v" glyph-name="v" horiz-adv-x="536" d="M20 531H101L267 109L435 531H516L303 0H229L20 531Z" />
<glyph unicode="w" glyph-name="w" horiz-adv-x="801" d="M20 531H101L258 109L396 531H476L422 361L538 109L700 531H781L578 0H504L386 260L299 0H219L20 531Z" />
<glyph unicode="x" glyph-name="x" horiz-adv-x="524" d="M24 0L216 266L24 531H116L260 327L408 531H500L306 263L492 0H408L262 202L116 0H24Z" />
<glyph unicode="y" glyph-name="y" horiz-adv-x="554" d="M21 531H102L231 116Q238 96 244 90T256 81T266 76T275 75T284 74Q293 76 297 77L449 531H532L298 -168L223 -270H177L271 0Q185 0 151 110L21 531Z" />
<glyph unicode="z" glyph-name="z" horiz-adv-x="456" d="M30 457V531H426V457L142 75H426V1H45V75L334 457H30Z" />
<glyph unicode="{" glyph-name="braceleft" horiz-adv-x="320" d="M20 367Q33 367 53 370T77 375T89 382T100 391Q110 405 110 420V656Q110 735 158 788T300 842V768Q246 768 215 744T184 656V420Q184 385 161 363T99 334Q135 329 159 306T183 251V-38Q183 -86
213 -111T289 -136Q295 -136 300 -136V-210Q247 -210 208 -195T148 -153Q109 -103 109 -38V247Q109 276 84 288T43 301T20 300V367Z" />
<glyph unicode="|" glyph-name="bar" horiz-adv-x="245" d="M86 -72V770H160V-72H86Z" />
<glyph unicode="}" glyph-name="braceright" horiz-adv-x="320" d="M31 -136Q76 -136 106 -111T137 -38V251Q137 282 161 305T221 334Q183 341 160 363T136 420V656Q136 719 105 743T20 768V842Q114 842 162 789T210 656V420Q210 393 230 382Q238 378 242 376T257
372T272 370Q294 367 300 367V300Q294 301 278 301T236 289T211 247V-38Q211 -103 172 -153Q151 -179 112 -194T20 -210V-136Q25 -136 31 -136Z" />
<glyph unicode="~" glyph-name="asciitilde" horiz-adv-x="438" d="M273 605Q313 605 366 645L388 603Q354 569 342 559Q308 531 279 531T217 548T165 566T133 561T101 546T71 531L50 572Q58 578 77 595T105 620Q133 640 161 640T222 623T273 605Z" />
<glyph unicode="&#xa1;" glyph-name="exclamdown" horiz-adv-x="269" d="M83 385V438Q83 459 107 461H156Q165 460 172 453T180 435V386Q178 359 157 359H107Q83 359 83 385ZM88 -270L94 261H169L177 -270H88Z" />
<glyph unicode="&#xa2;" glyph-name="cent" horiz-adv-x="490" d="M66 65T53 121T40 265T53 409T93 494T148 530T199 538T231 538V634H291V533Q366 524 443 510V456Q304 464 249 464T181 461T154 447T132 415Q114 368 114 259T137 109T215 67Q309 67 412 75L450
78V22Q377 1 291 -4V-96H231V-7Q226 -7 203 -7T151 1T94 37Z" />
<glyph unicode="&#xa3;" glyph-name="sterling" horiz-adv-x="596" d="M50 0V59L122 74V330H50V375L122 392V505Q122 635 171 684Q202 715 238 722Q290 732 332 732Q400 732 510 720L546 716V659H352Q246 659 228 639Q203 613 200 578T196 505V392L467 375V330H196V74H545V0H50Z"
/>
<glyph unicode="&#xa4;" glyph-name="currency" horiz-adv-x="459" d="M132 443Q173 473 226 473T323 439L371 486L406 446L359 399Q383 361 383 312T355 220L408 167L366 130L317 179Q275 147 226 147T136 176L89 129L52 171L97 215Q66 258 66 311T94 405L51
449L91 485L132 443ZM182 415T152 385T122 312T151 237T224 205T297 237T327 312T297 385T225 415Z" />
<glyph unicode="&#xa5;" glyph-name="yen" horiz-adv-x="600" d="M509 321V262H327V212H509V153H327V0H253V153H82V212H253V262H82V321H252L20 732H101L290 394L496 732H580L328 321H509Z" />
<glyph unicode="&#xa6;" glyph-name="brokenbar" horiz-adv-x="246" d="M86 -72V256H160V-72H86ZM86 429V770H160V429H86Z" />
<glyph unicode="&#xa7;" glyph-name="section" horiz-adv-x="552" d="M56 353V415Q56 494 100 508Q55 521 55 590V660Q55 727 92 755T185 784Q278 784 459 765V710H185Q157 710 144 699T129 660V590Q129 543 185 543H364Q443 543 470 511T497 416V354Q497 271
455 265Q496 259 496 183V110Q496 32 450 10Q414 -8 343 -8T92 11V66H358Q389 66 405 74T422 110V183Q422 213 410 221T364 230H185Q119 230 88 255T56 353ZM129 353Q129 322 141 313T185 304H364Q406 304 415 320Q422 331 422 354V416Q422 446 413 458T364 470H185Q151
470 140 460T129 414V353Z" />
<glyph unicode="&#xa8;" glyph-name="dieresis" horiz-adv-x="456" d="M50 561T50 582T65 617T101 632T136 618T151 582T137 546T101 531T65 546ZM305 561T305 582T320 617T356 632T391 618T406 582T392 546T356 531T320 546Z" />
<glyph unicode="&#xa9;" glyph-name="copyright" horiz-adv-x="811" d="M55 368Q55 732 282 732H552Q666 732 714 628Q756 538 756 368Q756 215 711 112Q688 60 648 30T552 0H282Q229 0 188 26T123 91T82 181Q55 267 55 368ZM119 368Q119 248 161 157T282 64H552Q614
65 653 143T692 368Q692 528 658 598Q644 627 617 647T552 668H282Q206 668 163 602T119 368ZM308 147T270 194T231 360T270 531T375 583Q419 583 553 559V507Q469 519 375 519Q295 519 295 362Q295 290 312 251T375 211Q447 211 559 227V175Q459 147 375 147Q308
147 270 194Z" />
<glyph unicode="&#xaa;" glyph-name="ordfeminine" horiz-adv-x="364" d="M30 268V326H334V268H30ZM30 463V509Q30 550 57 574T130 599Q200 598 235 598T270 599Q270 614 270 622T270 631Q270 681 209 681Q171 681 120 678T42 674V716Q59 718 92 724Q166 739 217
739Q219 739 221 739Q268 739 300 714T332 636V378H292L271 427L262 422Q179 374 134 374T60 397T30 463ZM92 476Q92 436 136 436Q190 436 250 460L270 468V554L136 544Q92 540 92 503V476Z" />
<glyph unicode="&#xab;" glyph-name="guillemotleft" horiz-adv-x="549" d="M50 354L256 557L308 505L153 354L313 198L261 146L50 354ZM236 354L442 557L494 505L339 354L499 198L447 146L236 354Z" />
<glyph unicode="&#xac;" glyph-name="logicalnot" horiz-adv-x="527" d="M50 256V330H477V159H403V256H50Z" />
<glyph unicode="&#xad;" glyph-name="uni00AD" horiz-adv-x="354" d="M20 253V327H334V253H20Z" />
<glyph unicode="&#xae;" glyph-name="registered" horiz-adv-x="811" d="M55 368Q55 732 282 732H552Q666 732 714 628Q756 538 756 368Q756 215 711 112Q688 60 648 30T552 0H282Q229 0 188 26T123 91T82 181Q55 267 55 368ZM119 368Q119 248 161 157T282 64H552Q614
65 653 143T692 368Q692 528 658 598Q644 627 617 647T552 668H282Q206 668 163 602T119 368ZM261 153V580H438Q572 580 572 452Q572 369 535 344Q516 332 507 329T476 321L567 153H495L404 323L325 335V153H261ZM325 379H444Q483 379 495 393T508 440T502 487T485
508Q468 516 444 516H325V379Z" />
<glyph unicode="&#xaf;" glyph-name="overscore" horiz-adv-x="392" d="M50 531V594H342V531H50Z" />
<glyph unicode="&#xb0;" glyph-name="degree" horiz-adv-x="303" d="M50 589T50 632T80 705T152 735T223 705T253 632T224 560T152 530T80 559ZM97 654T97 632T113 594T151 578T190 594T206 632T190 671T152 687T114 671Z" />
<glyph unicode="&#xb1;" glyph-name="plusminus" horiz-adv-x="527" d="M56 87V161H472V87H56ZM56 387V461H226V632H300V461H472V387H300V216H226V387H56Z" />
<glyph unicode="&#xb2;" glyph-name="twosuperior" horiz-adv-x="387" d="M32 826Q31 826 31 838T32 862V873Q156 888 215 888Q345 888 345 752Q345 717 327 677T290 610T234 546T186 500T148 468H344V406H35V464Q43 471 75 495T129 537T181 583T232 638Q280 699
280 744T263 808T204 826H32Z" />
<glyph unicode="&#xb3;" glyph-name="threesuperior" horiz-adv-x="406" d="M34 420L35 463L212 464Q252 464 268 478T284 525V548Q284 615 216 617L74 622V669L216 676Q285 679 285 740V762Q285 822 216 822H30V865Q84 883 154 883Q190 883 225 883Q286 883 316
850T346 766V731Q346 698 332 675T297 643Q346 612 346 549V521Q346 463 318 433T220 402Q186 402 137 402T34 420Z" />
<glyph unicode="&#xb4;" glyph-name="acute" horiz-adv-x="242" d="M20 531L127 664H222L89 531H20Z" />
<glyph unicode="&#xb5;" glyph-name="uni00B5" horiz-adv-x="594" d="M90 -270V531H164V161Q164 114 189 90T253 65T326 73T380 89T450 122V531H524V0H472L450 62Q447 61 428 50T405 36T383 25T359 13T336 5T310 -3Q278 -9 254 -9Q201 -9 164 16V-270H90Z" />
<glyph unicode="&#xb6;" glyph-name="paragraph" horiz-adv-x="581" d="M40 499V592Q40 659 86 695T196 732H561V656H492V0H418V658H324V-270H250V372L241 367Q219 355 196 355Q122 355 81 396T40 499ZM114 501Q114 460 140 445T196 429H250V658H196Q152 658 133
637T114 590V501Z" />
<glyph unicode="&#xb7;" glyph-name="middot" horiz-adv-x="272" d="M85 354V411Q85 436 109 436H162Q187 436 187 411V354Q187 331 162 331H109Q85 331 85 354Z" />
<glyph unicode="&#xb8;" glyph-name="cedilla" horiz-adv-x="252" d="M135 -37H202Q202 -115 181 -144T101 -173H50V-136L103 -121Q135 -107 135 -37Z" />
<glyph unicode="&#xb9;" glyph-name="onesuperior" horiz-adv-x="271" d="M206 882V406H144V813L16 778V827L144 882H206Z" />
<glyph unicode="&#xba;" glyph-name="ordmasculine" horiz-adv-x="390" d="M102 373T66 412T30 554T65 697T196 737T325 697T360 555T325 413T196 373ZM41 271V329H348V271H41ZM103 648T98 622T92 553T98 485T121 451T152 438T197 435T241 437T270 449T292 484Q298
513 298 556T293 623T272 658T242 672T195 675T149 673T119 660Z" />
<glyph unicode="&#xbb;" glyph-name="guillemotright" horiz-adv-x="549" d="M50 198L210 354L55 505L107 557L313 354L102 146L50 198ZM236 198L396 354L241 505L293 557L499 354L288 146L236 198Z" />
<glyph unicode="&#xbc;" glyph-name="onequarter" horiz-adv-x="903" d="M206 732V256H144V663L16 628V677L144 732H206ZM220 0L568 732H633L285 0H220ZM761 184V305L789 353H823V184H882V132L823 119V-1H761V119H518L496 143L705 474H776L595 184H761Z" />
<glyph unicode="&#xbd;" glyph-name="onehalf" horiz-adv-x="974" d="M206 732V256H144V663L16 628V677L144 732H206ZM215 0L563 732H628L280 0H215ZM620 420Q619 420 619 432T620 456V467Q744 482 803 482Q933 482 933 346Q933 311 915 271T878 204T822 140T774
94T736 62H932V0H623V58Q631 65 663 89T717 131T769 177T820 232Q868 293 868 338T851 402T792 420H620Z" />
<glyph unicode="&#xbe;" glyph-name="threequarters" horiz-adv-x="1019" d="M34 270L35 313L212 314Q252 314 268 328T284 375V398Q284 465 216 467L74 472V519L216 526Q285 529 285 590V612Q285 672 216 672H30V715Q84 733 154 733Q190 733 225 733Q286 733
316 700T346 616V581Q346 548 332 525T297 493Q346 462 346 399V371Q346 313 318 283T220 252Q186 252 137 252T34 270ZM319 0L667 732H732L384 0H319ZM850 181V306L874 354H908V181H967V133L908 120V0H850V120H603L581 144L789 474H856L675 181H850Z" />
<glyph unicode="&#xbf;" glyph-name="questiondown" horiz-adv-x="543" d="M340 -268L271 -270Q250 -270 244 -269T237 -268Q40 -268 40 -80V22Q39 108 108 150Q158 179 226 179Q252 179 281 175V276H358L359 114Q312 115 276 115T210 114T155 84T127 15Q126 -65
126 -85Q126 -130 155 -162T243 -194Q246 -194 250 -194L523 -193Q520 -193 521 -219T521 -248Q471 -256 445 -258T385 -264T340 -268ZM270 445Q270 455 277 462T294 471H343Q367 469 367 448V394Q365 370 346 369H290Q272 375 270 394V445Z" />
<glyph unicode="&#xc0;" glyph-name="Agrave" horiz-adv-x="670" d="M184 930H278L386 797H316L184 930ZM45 0L314 732H388L645 0H557L494 204H202L136 0H45ZM229 278H468L350 619L229 278Z" />
<glyph unicode="&#xc1;" glyph-name="Aacute" horiz-adv-x="670" d="M316 797L424 930H518L386 797H316ZM45 0L314 732H388L645 0H557L494 204H202L136 0H45ZM229 278H468L350 619L229 278Z" />
<glyph unicode="&#xc2;" glyph-name="Acircumflex" horiz-adv-x="670" d="M205 797L322 927H393L497 797H426L355 868L277 797H205ZM45 0L314 732H388L645 0H557L494 204H202L136 0H45ZM229 278H468L350 619L229 278Z" />
<glyph unicode="&#xc3;" glyph-name="Atilde" horiz-adv-x="670" d="M408 867Q431 867 498 903L520 861Q517 859 496 842Q442 798 409 798Q379 798 347 815T297 832T264 827T233 812T203 797L182 838Q209 860 222 870T258 891T304 901T361 884T401 867T408 867ZM45
0L314 732H388L645 0H557L494 204H202L136 0H45ZM229 278H468L350 619L229 278Z" />
<glyph unicode="&#xc4;" glyph-name="Adieresis" horiz-adv-x="670" d="M173 827T173 848T188 883T224 898T259 884T274 848T260 812T224 797T188 812ZM428 827T428 848T443 883T479 898T514 884T529 848T515 812T479 797T443 812ZM45 0L314 732H388L645 0H557L494
204H202L136 0H45ZM229 278H468L350 619L229 278Z" />
<glyph unicode="&#xc5;" glyph-name="Aring" horiz-adv-x="670" d="M250 804T263 781T300 744T351 730T402 743T439 780T452 839T423 905T351 935T280 905T250 840ZM296 810T296 832T312 871T351 887T390 871T406 833T390 794T352 778T313 794ZM45 0L314 732H388L645
0H557L494 204H202L136 0H45ZM229 278H468L350 619L229 278Z" />
<glyph unicode="&#xc6;" glyph-name="AE" horiz-adv-x="921" d="M512 733L556 732L876 716V657H556Q521 657 514 640Q508 627 506 604V397L836 387V328L506 318V121Q506 91 518 83T539 74H557H568L875 73V12L568 -5Q560 -5 553 -5Q432 -5 432 121V227H222L111
0H30L328 604Q354 657 372 674T400 701T425 716T450 726T476 731T499 732T512 733ZM432 301V652L259 301H432Z" />
<glyph unicode="&#xc7;" glyph-name="Ccedilla" horiz-adv-x="578" d="M303 -36H370Q370 -114 349 -143T269 -172H218V-135L271 -120Q303 -106 303 -36ZM543 656Q363 666 299 666T199 642T146 553T129 366Q129 68 299 68L543 75V16Q425 -6 299 -6Q55 -6 55 368Q55
558 106 649T299 740Q408 740 543 715V656Z" />
<glyph unicode="&#xc8;" glyph-name="Egrave" horiz-adv-x="567" d="M176 925H271L378 792H309L176 925ZM80 602Q80 671 114 701T200 732Q203 732 206 732L522 716V658H206Q182 658 170 649T156 630T154 602V402L482 392V333L154 323V123Q154 98 165 86T186 73T216
71H522V14L216 -3Q208 -3 201 -3Q80 -3 80 123V602Z" />
<glyph unicode="&#xc9;" glyph-name="Eacute" horiz-adv-x="567" d="M287 792L394 925H489L356 792H287ZM80 602Q80 671 114 701T200 732Q203 732 206 732L522 716V658H206Q182 658 170 649T156 630T154 602V402L482 392V333L154 323V123Q154 98 165 86T186 73T216
71H522V14L216 -3Q208 -3 201 -3Q80 -3 80 123V602Z" />
<glyph unicode="&#xca;" glyph-name="Ecircumflex" horiz-adv-x="567" d="M170 797L287 927H358L462 797H391L320 868L242 797H170ZM80 602Q80 671 114 701T200 732Q203 732 206 732L522 716V658H206Q182 658 170 649T156 630T154 602V402L482 392V333L154 323V123Q154
98 165 86T186 73T216 71H522V14L216 -3Q208 -3 201 -3Q80 -3 80 123V602Z" />
<glyph unicode="&#xcb;" glyph-name="Edieresis" horiz-adv-x="567" d="M139 822T139 843T154 878T190 893T225 879T240 843T226 807T190 792T154 807ZM394 822T394 843T409 878T445 893T480 879T495 843T481 807T445 792T409 807ZM80 602Q80 671 114 701T200
732Q203 732 206 732L522 716V658H206Q182 658 170 649T156 630T154 602V402L482 392V333L154 323V123Q154 98 165 86T186 73T216 71H522V14L216 -3Q208 -3 201 -3Q80 -3 80 123V602Z" />
<glyph unicode="&#xcc;" glyph-name="Igrave" horiz-adv-x="214" d="M-50 930H44L152 797H82L-50 930ZM80 0V732H154V0H80Z" />
<glyph unicode="&#xcd;" glyph-name="Iacute" horiz-adv-x="214" d="M82 797L190 930H284L152 797H82ZM80 0V732H154V0H80Z" />
<glyph unicode="&#xce;" glyph-name="Icircumflex" horiz-adv-x="214" d="M-29 797L88 927H159L263 797H192L121 868L43 797H-29ZM80 0V732H154V0H80Z" />
<glyph unicode="&#xcf;" glyph-name="Idieresis" horiz-adv-x="214" d="M-61 827T-61 848T-46 883T-10 898T25 884T40 848T26 812T-10 797T-46 812ZM194 827T194 848T209 883T245 898T280 884T295 848T281 812T245 797T209 812ZM80 0V732H154V0H80Z" />
<glyph unicode="&#xd0;" glyph-name="Eth" horiz-adv-x="657" d="M15 346V400H80V731Q80 732 353 732Q463 732 520 669Q578 606 595 525Q612 442 612 377T604 262T577 164T528 80T454 22T353 0H80V346H15ZM154 77H353Q446 77 490 157T535 364Q535 653 353 653L154
652V400H293V346H154V77Z" />
<glyph unicode="&#xd1;" glyph-name="Ntilde" horiz-adv-x="680" d="M407 867Q430 867 497 903L519 861Q516 859 494 842Q441 798 408 798Q378 798 346 815T296 832T263 827T232 812T202 797L181 838Q208 860 221 870T257 891T303 901T360 884T400 867T407 867ZM80
0V732H156L546 138V732H620V0H546L155 594V0H80Z" />
<glyph unicode="&#xd2;" glyph-name="Ograve" horiz-adv-x="676" d="M182 930H276L384 797H314L182 930ZM81 158T73 218T65 362T74 507T102 611T143 677T201 716Q258 737 349 737Q480 737 533 697Q584 658 606 586Q631 498 631 382T619 200T585 93T526 32T448
3T354 -4T265 0T196 16T139 53T99 118ZM145 490T142 450T139 337T148 207T185 119T249 79T342 70T431 76T489 100T529 151Q557 217 557 361Q557 518 533 572Q523 595 515 610T491 635T464 651T430 659T392 662T349 663T307 663T270 660T235 652T207 636T183 610T164
573T150 520Z" />
<glyph unicode="&#xd3;" glyph-name="Oacute" horiz-adv-x="676" d="M314 797L422 930H516L384 797H314ZM81 158T73 218T65 362T74 507T102 611T143 677T201 716Q258 737 349 737Q480 737 533 697Q584 658 606 586Q631 498 631 382T619 200T585 93T526 32T448
3T354 -4T265 0T196 16T139 53T99 118ZM145 490T142 450T139 337T148 207T185 119T249 79T342 70T431 76T489 100T529 151Q557 217 557 361Q557 518 533 572Q523 595 515 610T491 635T464 651T430 659T392 662T349 663T307 663T270 660T235 652T207 636T183 610T164
573T150 520Z" />
<glyph unicode="&#xd4;" glyph-name="Ocircumflex" horiz-adv-x="676" d="M203 797L320 927H391L495 797H424L353 868L275 797H203ZM81 158T73 218T65 362T74 507T102 611T143 677T201 716Q258 737 349 737Q480 737 533 697Q584 658 606 586Q631 498 631 382T619
200T585 93T526 32T448 3T354 -4T265 0T196 16T139 53T99 118ZM145 490T142 450T139 337T148 207T185 119T249 79T342 70T431 76T489 100T529 151Q557 217 557 361Q557 518 533 572Q523 595 515 610T491 635T464 651T430 659T392 662T349 663T307 663T270 660T235
652T207 636T183 610T164 573T150 520Z" />
<glyph unicode="&#xd5;" glyph-name="Otilde" horiz-adv-x="676" d="M406 867Q429 867 496 903L518 861Q515 859 494 842Q440 798 407 798Q377 798 345 815T295 832T262 827T231 812T201 797L180 838Q207 860 220 870T256 891T302 901T359 884T399 867T406 867ZM81
158T73 218T65 362T74 507T102 611T143 677T201 716Q258 737 349 737Q480 737 533 697Q584 658 606 586Q631 498 631 382T619 200T585 93T526 32T448 3T354 -4T265 0T196 16T139 53T99 118ZM145 490T142 450T139 337T148 207T185 119T249 79T342 70T431 76T489
100T529 151Q557 217 557 361Q557 518 533 572Q523 595 515 610T491 635T464 651T430 659T392 662T349 663T307 663T270 660T235 652T207 636T183 610T164 573T150 520Z" />
<glyph unicode="&#xd6;" glyph-name="Odieresis" horiz-adv-x="676" d="M171 827T171 848T186 883T222 898T257 884T272 848T258 812T222 797T186 812ZM426 827T426 848T441 883T477 898T512 884T527 848T513 812T477 797T441 812ZM81 158T73 218T65 362T74 507T102
611T143 677T201 716Q258 737 349 737Q480 737 533 697Q584 658 606 586Q631 498 631 382T619 200T585 93T526 32T448 3T354 -4T265 0T196 16T139 53T99 118ZM145 490T142 450T139 337T148 207T185 119T249 79T342 70T431 76T489 100T529 151Q557 217 557 361Q557
518 533 572Q523 595 515 610T491 635T464 651T430 659T392 662T349 663T307 663T270 660T235 652T207 636T183 610T164 573T150 520Z" />
<glyph unicode="&#xd7;" glyph-name="multiply" horiz-adv-x="458" d="M56 235L177 355L56 476L108 529L229 408L351 529L403 477L281 355L402 235L350 182L229 303L109 183L56 235Z" />
<glyph unicode="&#xd8;" glyph-name="Oslash" horiz-adv-x="676" d="M114 642Q136 682 175 703T252 731T348 737Q474 737 528 700L549 732H610L566 664Q631 580 631 361Q631 181 584 93Q562 53 525 32T447 3T348 -4Q218 -4 162 34L140 0H79L124 71Q65 151 65 350T114
642ZM170 142L488 638Q460 659 405 662Q386 663 349 663T294 662T249 656T209 639T180 606T156 552Q139 476 139 340T170 142ZM348 70Q411 70 447 80T510 122T547 210T557 361Q557 531 523 596L204 100Q245 70 348 70Z" />
<glyph unicode="&#xd9;" glyph-name="Ugrave" horiz-adv-x="677" d="M181 930H276L383 797H314L181 930ZM80 320V732H154V320Q154 229 165 176T208 100T264 74T318 69Q318 69 351 69Q422 69 439 76T471 91T495 112T514 144T530 188Q542 243 542 320V732H617V320Q617
227 600 163T560 66T496 17T427 -2T374 -5T332 -5T302 -5T264 -3T226 3T193 15T161 35T134 65T111 106T95 162Q80 219 80 320Z" />
<glyph unicode="&#xda;" glyph-name="Uacute" horiz-adv-x="677" d="M314 797L421 930H516L383 797H314ZM80 320V732H154V320Q154 229 165 176T208 100T264 74T318 69Q318 69 351 69Q422 69 439 76T471 91T495 112T514 144T530 188Q542 243 542 320V732H617V320Q617
227 600 163T560 66T496 17T427 -2T374 -5T332 -5T302 -5T264 -3T226 3T193 15T161 35T134 65T111 106T95 162Q80 219 80 320Z" />
<glyph unicode="&#xdb;" glyph-name="Ucircumflex" horiz-adv-x="677" d="M202 797L320 927H390L494 797H424L352 868L274 797H202ZM80 320V732H154V320Q154 229 165 176T208 100T264 74T318 69Q318 69 351 69Q422 69 439 76T471 91T495 112T514 144T530 188Q542
243 542 320V732H617V320Q617 227 600 163T560 66T496 17T427 -2T374 -5T332 -5T302 -5T264 -3T226 3T193 15T161 35T134 65T111 106T95 162Q80 219 80 320Z" />
<glyph unicode="&#xdc;" glyph-name="Udieresis" horiz-adv-x="677" d="M200 797T185 812T170 842T174 867T185 884Q200 898 221 898T257 884T272 848T257 812T221 797ZM426 827T426 848T440 883T476 898T512 884T526 848T512 812T477 797T441 812ZM80 320V732H154V320Q154
229 165 176T208 100T264 74T318 69H351Q422 69 439 76T471 91T495 112T514 144T530 188Q542 243 542 320V732H617V320Q617 227 600 163T560 66T496 17T427 -2T374 -5T332 -5T302 -5T264 -3T226 3T193 15T161 35T134 65T111 106T95 162Q80 219 80 320Z" />
<glyph unicode="&#xdd;" glyph-name="Yacute" horiz-adv-x="630" d="M290 797L398 930H492L360 797H290ZM352 0H278V260L45 732H126L315 348L524 732H605L352 260V0Z" />
<glyph unicode="&#xde;" glyph-name="Thorn" horiz-adv-x="557" d="M134 168V0H60V729H134V588H331Q507 586 507 375Q507 215 424 170Q399 156 378 153T340 149Q312 149 272 149T134 168ZM134 223H331Q332 223 334 223Q378 223 405 254T432 377Q430 471 393 494Q364
513 331 513H134V223Z" />
<glyph unicode="&#xdf;" glyph-name="germandbls" horiz-adv-x="570" d="M219 71L396 66Q427 66 451 84T476 132V179Q476 200 455 211T403 229T341 246T289 281T267 351T289 425T388 512Q438 550 438 612Q438 703 283 703Q218 703 176 670T134 566V0H60V566Q60
656 120 716T283 777Q354 777 404 759T478 710Q513 666 513 609Q513 557 480 506Q460 474 433 455Q424 447 407 434T384 415T367 399T352 382Q341 365 341 348T362 320T415 302T476 285T528 248T550 179V132Q550 28 444 -1Q418 -8 390 -8T329 -5T263 4T219 11V71Z"
/>
<glyph unicode="&#xe0;" glyph-name="agrave" horiz-adv-x="519" d="M99 734H194L301 601H232L99 734ZM57 511Q165 541 319 541Q384 541 426 503T469 387V0H414L395 64L380 57Q250 -6 173 -6Q116 -6 78 29T40 126V187Q40 248 75 284T173 320Q284 320 339 320T395
320Q396 353 396 369T395 387Q395 469 309 469T57 457V511ZM114 131Q114 68 173 68Q209 68 264 81T358 106L395 119V262L173 246Q143 243 129 225T114 181V131Z" />
<glyph unicode="&#xe1;" glyph-name="aacute" horiz-adv-x="519" d="M227 601L334 734H429L296 601H227ZM57 511Q165 541 319 541Q384 541 426 503T469 387V0H414L395 64L380 57Q250 -6 173 -6Q116 -6 78 29T40 126V187Q40 248 75 284T173 320Q284 320 339 320T395
320Q396 353 396 369T395 387Q395 469 309 469T57 457V511ZM114 131Q114 68 173 68Q209 68 264 81T358 106L395 119V262L173 246Q143 243 129 225T114 181V131Z" />
<glyph unicode="&#xe2;" glyph-name="acircumflex" horiz-adv-x="519" d="M117 601L234 731H305L409 601H338L267 672L189 601H117ZM57 511Q165 541 319 541Q384 541 426 503T469 387V0H414L395 64L380 57Q250 -6 173 -6Q116 -6 78 29T40 126V187Q40 248 75 284T173
320Q284 320 339 320T395 320Q396 353 396 369T395 387Q395 469 309 469T57 457V511ZM114 131Q114 68 173 68Q209 68 264 81T358 106L395 119V262L173 246Q143 243 129 225T114 181V131Z" />
<glyph unicode="&#xe3;" glyph-name="atilde" horiz-adv-x="519" d="M315 671Q338 671 405 707L427 665Q424 663 402 646Q349 602 316 602Q286 602 254 619T204 636T171 631T140 616T110 601L89 642Q116 664 129 674T165 695T211 705T268 688T308 671T315 671ZM57
511Q165 541 319 541Q384 541 426 503T469 387V0H414L395 64L380 57Q250 -6 173 -6Q116 -6 78 29T40 126V187Q40 248 75 284T173 320Q284 320 339 320T395 320Q396 353 396 369T395 387Q395 469 309 469T57 457V511ZM114 131Q114 68 173 68Q209 68 264 81T358 106L395
119V262L173 246Q143 243 129 225T114 181V131Z" />
<glyph unicode="&#xe4;" glyph-name="adieresis" horiz-adv-x="519" d="M83 631T83 652T98 687T134 702T169 688T184 652T170 616T134 601T98 616ZM338 631T338 652T353 687T389 702T424 688T439 652T425 616T389 601T353 616ZM57 511Q165 541 319 541Q384 541
426 503T469 387V0H414L395 64L380 57Q250 -6 173 -6Q116 -6 78 29T40 126V187Q40 248 75 284T173 320Q284 320 339 320T395 320Q396 353 396 369T395 387Q395 469 309 469T57 457V511ZM114 131Q114 68 173 68Q209 68 264 81T358 106L395 119V262L173 246Q143 243
129 225T114 181V131Z" />
<glyph unicode="&#xe5;" glyph-name="aring" horiz-adv-x="519" d="M161 630T161 673T191 746T263 776T334 746T364 673T335 601T263 571T191 600ZM240 728T224 712T208 674T224 635T263 619T301 634T317 673T301 712T263 728ZM57 511Q165 541 319 541Q384 541
426 503T469 387V0H414L395 64L380 57Q250 -6 173 -6Q116 -6 78 29T40 126V187Q40 248 75 284T173 320Q284 320 339 320T395 320Q396 353 396 369T395 387Q395 469 309 469T57 457V511ZM114 131Q114 68 173 68Q209 68 264 81T358 106L395 119V262L173 246Q143 243
129 225T114 181V131Z" />
<glyph unicode="&#xe6;" glyph-name="ae" horiz-adv-x="871" d="M57 517Q148 547 322 547Q403 547 443 489Q469 520 512 530T619 541T714 536T775 513T818 456T831 353Q831 231 694 231H470Q470 138 491 107T571 75Q753 75 821 85V29Q722 1 571 1Q511 1 480 17T417
71L400 64Q312 25 255 13T173 0Q116 0 78 35T40 132V172Q40 233 75 269T173 305Q284 304 339 304T395 305Q396 348 396 370T395 393Q395 475 312 475T57 463V517ZM114 137Q114 74 173 74Q209 74 264 87T358 112L395 125V253L173 237Q143 234 129 216T114 172V137ZM470
304H694Q757 304 757 353Q757 430 735 448T629 467Q526 467 506 446Q478 416 474 380T470 304Z" />
<glyph unicode="&#xe7;" glyph-name="ccedilla" horiz-adv-x="500" d="M50 182T50 266T62 406T100 489T154 527T242 538T453 510V456Q314 464 259 464T191 461T164 447T142 415Q124 368 124 259T147 109T225 67Q319 67 422 75L460 78V22Q364 -5 225 -7Q184 -7
155 3T101 42T63 126ZM260 -37H327Q327 -115 306 -144T226 -173H175V-136L228 -121Q260 -107 260 -37Z" />
<glyph unicode="&#xe8;" glyph-name="egrave" horiz-adv-x="525" d="M114 729H210L316 596H248L114 729ZM50 268Q50 356 62 409T105 490T175 526T275 535T368 530T429 507T472 450T485 347Q485 225 348 225H124Q124 132 145 101T225 69Q407 69 475 79V23Q376 -5
225 -5Q124 -5 87 53T50 268ZM124 298H348Q411 298 411 347Q411 424 389 442T283 461Q180 461 160 440Q132 410 128 374T124 298Z" />
<glyph unicode="&#xe9;" glyph-name="eacute" horiz-adv-x="525" d="M238 596L344 729H440L306 596H238ZM50 268Q50 356 62 409T105 490T175 526T275 535T368 530T429 507T472 450T485 347Q485 225 348 225H124Q124 132 145 101T225 69Q407 69 475 79V23Q376 -5
225 -5Q124 -5 87 53T50 268ZM124 298H348Q411 298 411 347Q411 424 389 442T283 461Q180 461 160 440Q132 410 128 374T124 298Z" />
<glyph unicode="&#xea;" glyph-name="ecircumflex" horiz-adv-x="525" d="M128 596L245 726H316L420 596H349L278 667L200 596H128ZM50 268Q50 356 62 409T105 490T175 526T275 535T368 530T429 507T472 450T485 347Q485 225 348 225H124Q124 132 145 101T225
69Q407 69 475 79V23Q376 -5 225 -5Q124 -5 87 53T50 268ZM124 298H348Q411 298 411 347Q411 424 389 442T283 461Q180 461 160 440Q132 410 128 374T124 298Z" />
<glyph unicode="&#xeb;" glyph-name="edieresis" horiz-adv-x="525" d="M93 626T93 647T108 682T144 697T179 683T194 647T180 611T144 596T108 611ZM348 626T348 647T363 682T399 697T434 683T449 647T435 611T399 596T363 611ZM50 268Q50 356 62 409T105 490T175
526T275 535T368 530T429 507T472 450T485 347Q485 225 348 225H124Q124 132 145 101T225 69Q407 69 475 79V23Q376 -5 225 -5Q124 -5 87 53T50 268ZM124 298H348Q411 298 411 347Q411 424 389 442T283 461Q180 461 160 440Q132 410 128 374T124 298Z" />
<glyph unicode="&#xec;" glyph-name="igrave" horiz-adv-x="194" d="M-70 729H24L132 596H62L-70 729ZM60 0V531H134V0H60Z" />
<glyph unicode="&#xed;" glyph-name="iacute" horiz-adv-x="194" d="M62 596L170 729H264L132 596H62ZM60 0V531H134V0H60Z" />
<glyph unicode="&#xee;" glyph-name="icircumflex" horiz-adv-x="194" d="M-49 596L68 726H139L243 596H172L101 667L23 596H-49ZM60 0V531H134V0H60Z" />
<glyph unicode="&#xef;" glyph-name="idieresis" horiz-adv-x="194" d="M-81 626T-81 647T-66 682T-30 697T5 683T20 647T6 611T-30 596T-66 611ZM174 626T174 647T189 682T225 697T260 683T275 647T261 611T225 596T189 611ZM60 0V531H134V0H60Z" />
<glyph unicode="&#xf0;" glyph-name="eth" horiz-adv-x="538" d="M118 0T79 62T40 261T80 464T218 531H318Q374 531 388 516Q363 599 314 648L169 590L145 650L254 694Q208 718 143 718Q134 718 124 718V783Q256 783 333 724L451 771L476 711L385 675Q498 536
498 264Q498 122 451 61T318 0H218Q118 0 79 62ZM140 430T127 387T114 271T121 160T145 103T176 81T218 76H318Q378 76 401 122T424 273T403 417T318 457H218Q182 457 161 444Z" />
<glyph unicode="&#xf1;" glyph-name="ntilde" horiz-adv-x="544" d="M334 670Q357 670 424 706L446 664Q443 662 422 644Q368 601 335 601Q305 601 273 618T223 635T190 630T159 615T129 600L108 641Q135 663 148 673T184 694T230 704T287 687T327 670T334 670ZM60
0V531H112L134 469Q137 470 156 481T179 495T201 506T225 518T248 526T274 534Q306 540 330 540Q406 540 450 490T494 370V0H420V370Q420 417 395 441T331 466T258 458T204 442T134 409V0H60Z" />
<glyph unicode="&#xf2;" glyph-name="ograve" horiz-adv-x="568" d="M126 729H222L328 596H260L126 729ZM152 -5T101 54T50 266T101 477T285 536T468 477T518 263T468 52T285 -5ZM137 390T131 353T124 254T133 154T166 97T214 74T284 69T355 74T403 97T435 154T444
261T437 370T407 431T360 457T290 462T224 459T180 445T148 412Z" />
<glyph unicode="&#xf3;" glyph-name="oacute" horiz-adv-x="568" d="M250 596L356 729H452L318 596H250ZM152 -5T101 54T50 266T101 477T285 536T468 477T518 263T468 52T285 -5ZM137 390T131 353T124 254T133 154T166 97T214 74T284 69T355 74T403 97T435 154T444
261T437 370T407 431T360 457T290 462T224 459T180 445T148 412Z" />
<glyph unicode="&#xf4;" glyph-name="ocircumflex" horiz-adv-x="568" d="M143 596L260 726H331L435 596H364L293 667L215 596H143ZM152 -5T101 54T50 266T101 477T285 536T468 477T518 263T468 52T285 -5ZM137 390T131 353T124 254T133 154T166 97T214 74T284
69T355 74T403 97T435 154T444 261T437 370T407 431T360 457T290 462T224 459T180 445T148 412Z" />
<glyph unicode="&#xf5;" glyph-name="otilde" horiz-adv-x="568" d="M350 666Q373 666 440 702L462 660Q459 658 438 640Q384 597 351 597Q321 597 289 614T239 631T206 626T175 611T145 596L124 637Q151 659 164 669T200 690T246 700T303 683T343 666T350 666ZM152
-5T101 54T50 266T101 477T285 536T468 477T518 263T468 52T285 -5ZM137 390T131 353T124 254T133 154T166 97T214 74T284 69T355 74T403 97T435 154T444 261T437 370T407 431T360 457T290 462T224 459T180 445T148 412Z" />
<glyph unicode="&#xf6;" glyph-name="odieresis" horiz-adv-x="568" d="M107 626T107 647T122 682T158 697T193 683T208 647T194 611T158 596T122 611ZM362 626T362 647T377 682T413 697T448 683T463 647T449 611T413 596T377 611ZM152 -5T101 54T50 266T101 477T285
536T468 477T518 263T468 52T285 -5ZM137 390T131 353T124 254T133 154T166 97T214 74T284 69T355 74T403 97T435 154T444 261T437 370T407 431T360 457T290 462T224 459T180 445T148 412Z" />
<glyph unicode="&#xf7;" glyph-name="divide" horiz-adv-x="516" d="M50 316V390H466V316H50ZM212 173V227Q212 252 236 252H286Q309 252 309 227V173Q309 150 286 150H236Q212 150 212 173ZM212 472V526Q212 551 236 551H286Q309 551 309 526V472Q309 449 286
449H236Q212 449 212 472Z" />
<glyph unicode="&#xf8;" glyph-name="oslash" horiz-adv-x="568" d="M95 61Q50 118 50 268T101 477T284 536Q376 536 425 511L440 531H506L467 478Q518 419 518 264T468 52T284 -5Q184 -5 132 27L112 0H51L95 61ZM137 390T131 353T124 243T144 127L381 450Q352
462 299 462T224 459T180 445T148 412ZM177 88Q206 69 268 69T355 74T403 97T435 154T444 258Q444 373 420 415L177 88Z" />
<glyph unicode="&#xf9;" glyph-name="ugrave" horiz-adv-x="544" d="M110 729H204L312 596H242L110 729ZM50 161V531H124V161Q124 114 149 90T213 65T286 73T340 89T410 122V531H484V0H432L410 62Q407 61 388 50T365 36T343 25T319 13T296 5T270 -3Q238 -9 214
-9Q138 -9 94 41T50 161Z" />
<glyph unicode="&#xfa;" glyph-name="uacute" horiz-adv-x="544" d="M232 596L340 729H434L302 596H232ZM50 161V531H124V161Q124 114 149 90T213 65T286 73T340 89T410 122V531H484V0H432L410 62Q407 61 388 50T365 36T343 25T319 13T296 5T270 -3Q238 -9 214
-9Q138 -9 94 41T50 161Z" />
<glyph unicode="&#xfb;" glyph-name="ucircumflex" horiz-adv-x="544" d="M121 596L238 726H309L413 596H342L271 667L193 596H121ZM50 161V531H124V161Q124 114 149 90T213 65T286 73T340 89T410 122V531H484V0H432L410 62Q407 61 388 50T365 36T343 25T319 13T296
5T270 -3Q238 -9 214 -9Q138 -9 94 41T50 161Z" />
<glyph unicode="&#xfc;" glyph-name="udieresis" horiz-adv-x="544" d="M89 626T89 647T104 682T140 697T175 683T190 647T176 611T140 596T104 611ZM344 626T344 647T359 682T395 697T430 683T445 647T431 611T395 596T359 611ZM50 161V531H124V161Q124 114 149
90T213 65T286 73T340 89T410 122V531H484V0H432L410 62Q407 61 388 50T365 36T343 25T319 13T296 5T270 -3Q238 -9 214 -9Q138 -9 94 41T50 161Z" />
<glyph unicode="&#xfd;" glyph-name="yacute" horiz-adv-x="554" d="M242 596L349 729H444L311 596H242ZM21 531H102L231 116Q238 96 244 90T256 81T266 76T275 75T284 74Q293 76 297 77L449 531H532L298 -168L223 -270H177L271 0Q185 0 151 110L21 531Z" />
<glyph unicode="&#xfe;" glyph-name="thorn" horiz-adv-x="554" d="M70 -270V782H144V471Q171 490 232 515T341 540T423 517T478 454Q514 378 514 267Q514 113 468 48Q449 23 416 7T342 -10T245 0T144 29V-270H70ZM339 64Q389 64 414 108T440 257T413 414T339
466Q261 461 144 416V89Q191 75 224 72T270 68Q322 64 339 64Z" />
<glyph unicode="&#xff;" glyph-name="ydieresis" horiz-adv-x="554" d="M128 596T113 611T98 641T102 666T113 683Q128 697 149 697T185 683T200 647T185 611T149 596ZM354 626T354 647T368 682T404 697T440 683T454 647T440 611T405 596T369 611ZM21 531H102L231
116Q238 96 244 90T256 81T266 76T275 75T284 74Q293 76 297 77L449 531H532L298 -168L223 -270H177L271 0Q185 0 151 110L21 531Z" />
<glyph unicode="&#x2013;" glyph-name="endash" horiz-adv-x="513" d="M20 250V325H493V250H20Z" />
<glyph unicode="&#x2014;" glyph-name="emdash" horiz-adv-x="736" d="M20 252V327H716V252H20Z" />
<glyph unicode="&#x2018;" glyph-name="quoteleft" horiz-adv-x="270" d="M169 742Q175 742 184 740V705Q183 705 182 705Q150 705 150 671V643H162Q190 643 190 616V557Q190 527 162 527H106Q80 527 80 557V656Q80 742 169 742Z" />
<glyph unicode="&#x2019;" glyph-name="quoteright" horiz-adv-x="270" d="M80 653V712Q80 742 108 742H164Q190 742 190 712V613Q190 584 180 565T154 538Q127 526 114 526T96 526L86 528V563Q87 563 88 563Q120 563 120 598V625H108Q80 625 80 653Z" />
<glyph unicode="&#x201a;" glyph-name="quotesinglbase" horiz-adv-x="270" d="M80 27V86Q80 116 108 116H164Q190 116 190 86V-13Q190 -42 180 -62T154 -88Q126 -100 113 -100T96 -100L86 -98V-63Q87 -63 88 -63Q120 -63 120 -28V-1H108Q80 -1 80 27Z" />
<glyph unicode="&#x201c;" glyph-name="quotedblleft" horiz-adv-x="418" d="M235 557V656Q235 685 246 704Q267 742 320 742Q325 742 329 742L340 740V705Q339 705 338 705Q305 705 305 671V644H318Q345 644 345 616V557Q345 527 318 527H262Q235 527 235 557ZM162
742Q168 742 177 740V705Q176 705 175 705Q143 705 143 671V644H155Q183 644 183 616V557Q183 527 155 527H99Q73 527 73 557V656Q73 742 162 742Z" />
<glyph unicode="&#x201d;" glyph-name="quotedblright" horiz-adv-x="418" d="M73 653V712Q73 742 100 742H156Q183 742 183 712V613Q183 584 172 565T146 538Q120 526 107 526T89 526L78 528V563Q79 563 80 563Q112 563 112 598V625H100Q73 625 73 653ZM235 653V712Q235
742 263 742H319Q345 742 345 712V613Q345 584 335 565T308 538Q282 526 269 526T252 526L241 528V563Q242 563 243 563Q275 563 275 598V625H263Q235 625 235 653Z" />
<glyph unicode="&#x201e;" glyph-name="quotedblbase" horiz-adv-x="418" d="M73 27V86Q73 116 100 116H156Q183 116 183 86V-13Q183 -42 172 -62T146 -88Q119 -100 106 -100T89 -100L78 -98V-63Q79 -63 80 -63Q112 -63 112 -28V-1H100Q73 -1 73 27ZM235 27V86Q235
116 263 116H319Q345 116 345 86V-13Q345 -42 335 -62T308 -88Q281 -100 268 -100T252 -100L241 -98V-63Q242 -63 243 -63Q275 -63 275 -28V-1H263Q235 -1 235 27Z" />
<glyph unicode="&#x2022;" glyph-name="bullet" horiz-adv-x="312" d="M85 341V421Q85 456 118 456H192Q227 456 227 421V341Q227 309 192 309H118Q85 309 85 341Z" />
<glyph unicode="&#x2039;" glyph-name="guilsinglleft" horiz-adv-x="357" d="M50 354L256 557L308 505L153 354L313 198L261 146L50 354Z" />
<glyph unicode="&#x203a;" glyph-name="guilsinglright" horiz-adv-x="357" d="M50 198L210 354L55 505L107 557L313 354L102 146L50 198Z" />
</font>
</defs>
</svg>
