<?xml version="1.0" standalone="no"?>
<!DOCTYPE svg PUBLIC "-//W3C//DTD SVG 1.1//EN" "http://www.w3.org/Graphics/SVG/1.1/DTD/svg11.dtd">
<svg xmlns="http://www.w3.org/2000/svg">
<defs >
<font id="Exo" horiz-adv-x="535" ><font-face
    font-family="Exo"
    units-per-em="1000"
    panose-1="2 0 3 3 0 0 0 0 0 0"
    ascent="1002"
    descent="-327"
    alphabetic="0" />
<glyph unicode=" " glyph-name="space" horiz-adv-x="260" />
<glyph unicode="!" glyph-name="exclam" horiz-adv-x="265" d="M92 19V78Q92 99 112 99H152Q171 99 171 78V19Q171 0 152 0H112Q103 0 98 5T92 19ZM98 731H164L158 196H104L98 731Z" />
<glyph unicode="&quot;" glyph-name="quotedbl" horiz-adv-x="339" d="M138 732V665L129 531H89L80 665V732H138ZM261 732V665L252 531H212L203 665V732H261Z" />
<glyph unicode="#" glyph-name="numbersign" horiz-adv-x="675" d="M22 238L28 277H194L222 455H56L63 494H228L266 732H305L267 494H439L477 732H515L478 494H655L648 455H471L443 276H620L614 237H437L399 0H361L398 237L226 238L188 0H150L187 238H22ZM233
277L404 276L432 455H261L233 277Z" />
<glyph unicode="$" glyph-name="dollar" horiz-adv-x="578" d="M257 824H302V736Q342 733 488 716V673L258 682Q251 682 244 682Q186 682 152 658T118 560V494Q118 434 150 411T237 388H358Q456 388 489 336Q517 292 517 224V156Q517 -8 323 -8Q313 -8 302 -8V-89H257V-4Q134
6 83 14V55Q265 49 317 49Q460 49 460 156V224Q460 294 419 317Q396 330 358 330H238Q118 330 81 404Q61 441 61 494V560Q62 665 118 703Q168 738 257 738V824Z" />
<glyph unicode="%" glyph-name="percent" horiz-adv-x="954" d="M47 474V607Q47 673 75 702T176 732H277Q348 732 376 703T404 607V474Q404 408 376 379T275 349H174Q103 349 75 378T47 474ZM95 474Q95 429 112 413T174 397H275Q323 397 339 413T356 474V607Q356
664 325 677Q308 684 277 684H176Q115 684 102 654Q95 638 95 607V474ZM232 0L670 732H724L286 0H232ZM551 127V260Q551 327 579 356T680 385H781Q852 385 880 356T908 260V127Q908 61 880 32T779 2H678Q607 2 579 31T551 127ZM599 127Q599 82 616 66T678 50H779Q827
50 843 66T860 127V260Q860 317 828 330Q812 337 781 337H680Q631 337 615 322T599 260V127Z" />
<glyph unicode="&amp;" glyph-name="ampersand" horiz-adv-x="642" d="M37 206Q37 297 118 366L204 439L141 524Q108 571 108 610Q108 660 140 691T211 728T313 733T477 715V677H274Q175 677 167 618Q167 615 167 612Q167 582 200 538L454 195L581 324L600 305L542
206L489 151L598 0H529L447 111L375 44Q322 -5 249 -5Q211 -5 165 13T78 87T37 206ZM252 51Q296 51 334 83L412 156L237 392L159 327Q93 272 93 208Q93 162 130 114T227 53Q240 51 252 51Z" />
<glyph unicode="&apos;" glyph-name="quotesingle" horiz-adv-x="160" d="M109 732V665L101 531H61L51 665V732H109Z" />
<glyph unicode="(" glyph-name="parenleft" horiz-adv-x="328" d="M118 60T101 149T84 310T92 441T115 552T146 651T180 736Q216 813 234 845L243 860H305Q283 824 252 758T198 631T159 487T141 322T158 156T199 7Q249 -123 289 -184L306 -210H243Q221 -179 191
-119T139 1Z" />
<glyph unicode=")" glyph-name="parenright" horiz-adv-x="327" d="M151 67T169 154T187 322T170 485T129 632Q79 765 39 831L22 860H85Q107 824 137 758T189 632T227 488T244 321T228 150T188 0Q140 -128 101 -185L85 -210H22Q45 -177 76 -114T129 8Z" />
<glyph unicode="*" glyph-name="asterisk" horiz-adv-x="449" d="M56 575V606L196 626L199 570L56 575ZM128 412L155 547L212 534L157 403L128 412ZM186 719L216 731L289 611L236 587L186 719ZM219 482L250 531L362 443L346 418L219 482ZM262 565L379 643L394
616L300 521L262 565Z" />
<glyph unicode="+" glyph-name="plus" horiz-adv-x="517" d="M56 328V384H230V559H287V384H462V328H287V153H230V328H56Z" />
<glyph unicode="," glyph-name="comma" horiz-adv-x="236" d="M131 -75Q120 -80 112 -81T99 -83T84 -81V-58Q84 -58 85 -58Q109 -58 109 -32V0H100Q80 0 80 21V78Q80 100 100 100H137Q157 100 157 78V-20Q157 -63 131 -75Z" />
<glyph unicode="-" glyph-name="hyphen" horiz-adv-x="348" d="M22 262V318H326V262H22Z" />
<glyph unicode="." glyph-name="period" horiz-adv-x="238" d="M80 19V78Q80 99 99 99H138Q159 99 159 78V19Q159 0 138 0H99Q91 0 86 5T80 19Z" />
<glyph unicode="/" glyph-name="slash" horiz-adv-x="384" d="M22 -72L303 770H362L81 -72H22Z" />
<glyph unicode="0" glyph-name="zero" horiz-adv-x="649" d="M78 162V570Q78 648 126 690T250 732H404Q530 732 562 633Q571 604 571 570V162Q571 0 404 0H250Q178 0 130 36Q78 75 78 162ZM135 162Q135 109 167 83T250 57H404Q514 57 514 162V570Q514 675 404
675H250Q194 675 165 647T135 570V162Z" />
<glyph unicode="1" glyph-name="one" horiz-adv-x="359" d="M270 732V0H213V667L45 608V647L213 732H270Z" />
<glyph unicode="2" glyph-name="two" horiz-adv-x="597" d="M45 684V725Q175 742 339 742Q489 742 530 611Q542 575 542 527T508 414T427 296T321 189Q235 110 159 57H542V0H52V53Q180 145 242 200T346 298T417 379Q484 468 484 534Q484 644 401 674Q374 684 337 684H45Z" />
<glyph unicode="3" glyph-name="three" horiz-adv-x="596" d="M33 712Q86 728 146 731T255 735T341 734Q423 733 468 687T513 569V500Q513 461 499 430Q475 379 428 364Q513 322 513 220V161Q513 -7 335 -7Q194 -7 134 -2T39 15L41 51H330Q420 51 443 104Q454
127 454 161V220Q454 279 419 306T335 335L101 342V385L335 394Q390 395 423 422T456 500V569Q456 623 422 650T336 677H33V712Z" />
<glyph unicode="4" glyph-name="four" horiz-adv-x="593" d="M424 255V472L452 547H481V255H571V211L481 196V2H424V196H49L22 228L339 732H406L108 255H424Z" />
<glyph unicode="5" glyph-name="five" horiz-adv-x="618" d="M302 443L389 441Q474 441 513 397T553 275V166Q553 58 473 17Q434 -4 389 -4Q282 -4 223 -1T85 15V56H389Q440 56 468 87T496 168V273Q496 330 471 356Q444 384 389 384H235Q198 384 169 359T139 292H87L109
732H531V675H162L148 399Q159 413 183 426T234 441Q267 443 302 443Z" />
<glyph unicode="6" glyph-name="six" horiz-adv-x="627" d="M73 386Q73 479 87 549T127 660Q176 738 245 738Q418 738 537 722V681H254Q225 681 202 661T166 610T145 541Q131 476 130 403Q279 420 400 420Q497 420 531 375Q561 337 561 272V148Q561 -1 400 -1H261Q150
0 107 114Q73 206 73 386ZM130 363Q130 229 150 166Q173 93 209 70Q232 56 261 56H400Q449 56 477 75T505 151V272Q505 324 477 343T400 363H130Z" />
<glyph unicode="7" glyph-name="seven" horiz-adv-x="542" d="M33 675V732H485L509 692L253 0H185L436 675H33Z" />
<glyph unicode="8" glyph-name="eight" horiz-adv-x="641" d="M84 499V564Q84 659 130 698T260 737H396Q504 737 539 663Q558 625 558 564V499Q558 468 546 441Q524 390 477 382Q518 373 538 334T558 252V154Q558 52 479 17Q442 0 395 0H260Q137 0 99 76Q87 101
86 121T84 154V252Q84 342 174 361Q125 375 105 413T84 499ZM141 151Q141 57 260 57H395Q437 57 469 80T501 151V256Q501 326 433 342Q417 346 398 346H249Q207 346 174 325T141 256V151ZM141 494Q141 438 178 418Q210 402 249 402H398Q453 402 477 430T501 494V562Q501
625 476 652T396 680H260Q197 680 169 655T141 562V494Z" />
<glyph unicode="9" glyph-name="nine" horiz-adv-x="627" d="M228 736H367Q478 736 520 621Q555 529 555 351Q555 86 446 16Q417 -3 383 -3Q177 -3 91 13V54H373Q410 54 436 83T474 160Q497 245 498 333Q348 315 228 315Q131 315 97 360Q67 399 67 463V587Q67
736 228 736ZM123 463Q123 411 151 392T228 372H498Q498 506 478 570Q455 643 419 665Q396 679 367 679H228Q179 679 151 660T123 584V463Z" />
<glyph unicode=":" glyph-name="colon" horiz-adv-x="239" d="M80 19V78Q80 99 99 99H138Q159 99 159 78V19Q159 0 138 0H99Q91 0 86 5T80 19ZM80 452V511Q80 531 99 531H138Q159 531 159 511V452Q159 433 138 433H99Q91 433 86 438T80 452Z" />
<glyph unicode=";" glyph-name="semicolon" horiz-adv-x="239" d="M131 -75Q120 -80 112 -81T99 -83T84 -81V-58Q84 -58 85 -58Q109 -58 109 -32V0H100Q92 0 86 6T80 21V78Q80 91 87 95T100 100H137Q157 100 157 78V-20Q157 -63 131 -75ZM81 452V511Q81 532 101
532H140Q160 532 160 511V452Q160 433 140 433H101Q92 433 87 438T81 452Z" />
<glyph unicode="&lt;" glyph-name="less" horiz-adv-x="476" d="M56 325V384L421 556V494L132 354L421 204V140L56 325Z" />
<glyph unicode="=" glyph-name="equal" horiz-adv-x="471" d="M22 212V269H449V212H22ZM22 438V495H449V438H22Z" />
<glyph unicode="&gt;" glyph-name="greater" horiz-adv-x="476" d="M56 140V204L345 354L56 494V556L421 384V325L56 140Z" />
<glyph unicode="?" glyph-name="question" horiz-adv-x="537" d="M261 740Q278 740 287 740T297 739Q493 739 493 554V453Q493 291 311 291Q280 291 242 296V195H184V343H313Q369 344 403 370T437 453V554Q437 623 402 652T287 681H22V722Q160 740 261 740ZM173
19V78Q173 99 193 99H234Q253 99 253 78V19Q253 0 234 0H193Q185 0 179 5T173 19Z" />
<glyph unicode="@" glyph-name="at" horiz-adv-x="851" d="M241 512H451Q510 512 553 484Q604 451 604 372V0H561L550 64Q550 64 538 57T507 39T463 17Q406 -9 356 -9Q353 -9 351 -9Q299 -9 263 24T228 108V161Q228 222 261 258T357 294H548Q549 332 549 351T548
370Q548 417 523 436T448 455H241Q189 455 160 432T130 348V0Q130 -71 167 -98Q199 -120 241 -120H580Q645 -120 672 -91T700 0V512Q700 607 630 634Q608 643 580 643H181V679Q283 700 448 700Q458 700 469 700H580Q691 698 734 616Q757 573 757 512V0Q757 -178
580 -178H241Q163 -178 118 -132T73 0V348Q73 396 83 419T105 458T135 486Q175 512 241 512ZM361 48Q362 48 363 48T365 48Q429 48 548 105V255L362 241Q328 238 306 218T285 159Q284 158 284 137T285 114Q285 88 307 68T361 48Z" />
<glyph unicode="A" glyph-name="A" horiz-adv-x="666" d="M50 0L321 732H382L640 0H573L501 221H195L119 0H50ZM216 278H481L351 649L216 278Z" />
<glyph unicode="B" glyph-name="B" horiz-adv-x="597" d="M90 0V732H362Q506 732 542 612Q552 581 552 544Q552 482 525 438T447 381Q487 372 521 327T555 204Q555 121 517 64Q473 0 362 0H90ZM147 57H362Q498 57 498 206Q498 269 462 312T363 355Q362 355 362
355H147V57ZM495 548Q495 675 362 675H147V412H362Q424 412 459 446T495 548Z" />
<glyph unicode="C" glyph-name="C" horiz-adv-x="575" d="M61 368Q61 598 133 677Q191 740 305 740Q344 740 415 733T539 715V672Q539 672 531 672T508 674T476 676T435 678T392 681Q343 683 305 683Q236 683 197 657Q118 605 118 366Q118 51 305 51Q404 51 525
59L539 60V16Q489 7 418 1T305 -6Q61 -6 61 368Z" />
<glyph unicode="D" glyph-name="D" horiz-adv-x="661" d="M90 0V732H355Q438 732 491 695Q545 657 569 604Q597 543 604 497Q615 423 615 367T607 262T578 164T529 80T455 22T355 0H90ZM147 59H355Q407 59 447 85T511 155Q558 243 558 364Q558 675 355 675H147V59Z" />
<glyph unicode="E" glyph-name="E" horiz-adv-x="572" d="M90 123V602Q90 671 124 701T208 732Q212 732 216 732L525 718V675H216Q177 675 162 657T147 602V393L485 385V341L147 333V123Q147 76 173 63Q193 54 226 54H525V12L226 -3Q218 -3 205 -3T173 0T133 16Q90
42 90 123Z" />
<glyph unicode="F" glyph-name="F" horiz-adv-x="572" d="M90 0V602Q90 671 124 701T208 732Q212 732 216 732L525 718V675H216Q177 675 162 657T147 602V393L485 385V341L147 333V0H90Z" />
<glyph unicode="G" glyph-name="G" horiz-adv-x="616" d="M65 245T63 283T61 378T65 486T84 586T123 668T190 720T280 740T409 732T542 713V668Q541 668 524 669T479 673T420 678Q344 683 296 683T217 670T168 632T138 568Q118 498 118 346T156 122Q195 51 296
51Q330 51 381 63T467 87L502 99V331H318V369Q392 389 491 389Q523 389 559 386V0H517L504 51Q451 22 394 9T294 -5Q293 -5 271 -5T216 4T158 31T116 75T88 133T72 204Z" />
<glyph unicode="H" glyph-name="H" horiz-adv-x="646" d="M90 0V732H147V382H527V732H584V0H527V326H147V0H90Z" />
<glyph unicode="I" glyph-name="I" horiz-adv-x="209" d="M90 0V732H147V0H90Z" />
<glyph unicode="J" glyph-name="J" horiz-adv-x="355" d="M43 61Q105 45 120 45T144 45T168 48T196 60T216 82Q236 108 236 165V732H293V165Q293 53 241 18Q205 -6 143 -6T39 21L43 61Z" />
<glyph unicode="K" glyph-name="K" horiz-adv-x="591" d="M90 0V732H147V396H252L486 732H555L305 367L555 0H486L252 338H148V0H90Z" />
<glyph unicode="L" glyph-name="L" horiz-adv-x="557" d="M90 126V732H147V126Q147 79 173 66Q193 57 226 57H521V0H226Q126 0 101 59Q90 86 90 126Z" />
<glyph unicode="M" glyph-name="M" horiz-adv-x="799" d="M61 0L121 732H200L401 95L597 732H677L742 0H685L628 634L432 0H373L171 634L118 0H61Z" />
<glyph unicode="N" glyph-name="N" horiz-adv-x="674" d="M90 0V732H148L555 107V732H612V0H555L147 625V0H90Z" />
<glyph unicode="O" glyph-name="O" horiz-adv-x="675" d="M73 362Q73 433 80 489T98 585T129 653T170 697T222 722Q273 737 333 737T422 734T482 722T533 697T573 653T604 586Q629 499 629 390T621 222T596 123T558 58T503 19Q446 -4 351 -4Q216 -4 166 35Q115
74 96 143Q73 227 73 362ZM142 548T136 493T130 370T133 259T144 182T165 126T195 89T235 67Q279 53 341 53T436 59T498 84T541 138Q572 210 572 361Q572 518 546 580Q537 604 528 620T502 648T473 665T437 675Q403 680 356 680T286 678T233 667T188 638T158 583Z"
/>
<glyph unicode="P" glyph-name="P" horiz-adv-x="582" d="M67 0V732H360Q453 732 496 675Q535 624 535 524Q535 340 426 313Q398 306 364 306T229 313T124 323V0H67ZM124 364H360Q410 364 441 390Q477 422 477 521Q477 632 421 661Q396 674 360 674H124V364Z" />
<glyph unicode="Q" glyph-name="Q" horiz-adv-x="675" d="M73 299T73 366T79 490T97 585T128 653T168 697T220 722Q271 737 331 737T420 734T480 722T532 697T573 653T604 586Q629 499 629 390T621 222T596 123T558 58T502 19Q444 -4 350 -4Q230 -4 183 24Q133
53 113 99Q85 163 79 231ZM142 548T136 493T130 365T134 244T150 161T177 106T220 73Q264 53 333 53T435 59T497 84T540 138Q572 210 572 361Q572 518 546 580Q536 604 527 620T502 648T472 665T436 675Q402 680 355 680T285 678T232 667T187 638T157 583ZM470
-80Q501 -80 537 -68V-129Q514 -139 498 -139T462 -138T412 -128T358 -93T328 -33H367Q409 -80 470 -80Z" />
<glyph unicode="R" glyph-name="R" horiz-adv-x="586" d="M67 0V732H367Q538 732 538 519Q538 465 528 425T503 364T467 330Q437 312 400 309L557 0H495L339 307Q325 307 225 313T124 320V0H67ZM480 523Q480 568 471 601T444 649Q413 674 367 674H124V368H367Q435
368 457 404Q480 441 480 523Z" />
<glyph unicode="S" glyph-name="S" horiz-adv-x="584" d="M264 738Q305 738 387 730T510 716V672L269 681Q262 681 255 681Q196 681 163 658T130 560V494Q130 446 141 429T161 405T185 394Q210 388 247 388H380Q475 388 509 336Q538 292 538 224V156Q538 42 451
9Q406 -8 354 -8T216 -1T93 14V58Q190 49 274 49T375 50T413 58T448 76Q481 102 481 156V224Q481 277 458 303T380 330H249Q122 330 89 401Q73 437 73 494V560Q73 665 129 704Q180 738 264 738Z" />
<glyph unicode="T" glyph-name="T" horiz-adv-x="586" d="M46 675V732H557V675H327V0H270V675H46Z" />
<glyph unicode="U" glyph-name="U" horiz-adv-x="679" d="M355 -5H344Q226 -5 189 20Q172 32 150 55T117 113Q90 198 90 320V732H147V320Q147 151 190 102Q206 83 219 73Q242 55 301 53Q317 52 350 52H355Q428 52 448 60T484 77T509 100T529 134T546 181Q559 241
559 320V732H616V320Q616 124 551 57Q528 33 510 21T459 3Q418 -5 355 -5Z" />
<glyph unicode="V" glyph-name="V" horiz-adv-x="666" d="M50 732H113L340 86L578 732H640L370 0H309L50 732Z" />
<glyph unicode="W" glyph-name="W" horiz-adv-x="965" d="M50 732H113L339 93L542 732H606L526 475L670 89L877 732H939L702 0H641L496 381L370 0H309L50 732Z" />
<glyph unicode="X" glyph-name="X" horiz-adv-x="585" d="M50 732H114L303 412L495 732H559L341 368L554 0H490L303 318L117 0H53L266 368L50 732Z" />
<glyph unicode="Y" glyph-name="Y" horiz-adv-x="626" d="M344 0H287V260L50 732H113L315 329L538 732H600L344 260V0Z" />
<glyph unicode="Z" glyph-name="Z" horiz-adv-x="558" d="M39 0V57L448 675H39V732H522V675L113 57H522V0H39Z" />
<glyph unicode="[" glyph-name="bracketleft" horiz-adv-x="323" d="M95 -38V670Q95 740 118 779Q155 842 231 842H301V785H231Q195 785 174 755T152 670V-38Q152 -90 172 -121T231 -153H301V-210H231Q95 -210 95 -38Z" />
<glyph unicode="\" glyph-name="backslash" horiz-adv-x="384" d="M22 770H81L362 -72H303L22 770Z" />
<glyph unicode="]" glyph-name="bracketright" horiz-adv-x="323" d="M22 -153H92Q131 -153 151 -122T171 -38V670Q171 725 150 755T92 785H22V842H92Q127 842 153 830T192 799T215 756Q228 717 228 670V-38Q228 -161 153 -198Q127 -210 92 -210H22V-153Z" />
<glyph unicode="^" glyph-name="asciicircum" horiz-adv-x="397" d="M56 531L178 661H232L341 531H288L204 617L110 531H56Z" />
<glyph unicode="_" glyph-name="underscore" horiz-adv-x="668" d="M22 -1V56H646V-1H22Z" />
<glyph unicode="`" glyph-name="grave" horiz-adv-x="228" d="M22 664H94L206 531H155L22 664Z" />
<glyph unicode="a" glyph-name="a" horiz-adv-x="519" d="M62 511Q174 541 313 541Q379 541 421 503T464 387V0H422L407 64Q406 64 391 57T352 40T298 19Q230 -6 176 -6T83 29T45 126V187Q45 271 107 304Q137 320 178 320Q292 320 349 320T407 320Q407 353 407
370T407 387Q407 486 304 486Q221 486 62 470V511ZM102 131Q102 89 123 70Q145 51 173 51T232 56T293 70Q354 86 391 99L407 105V277L178 263Q102 258 102 183V131Z" />
<glyph unicode="b" glyph-name="b" horiz-adv-x="553" d="M67 0V785H122V499Q167 517 224 528T319 539T385 529T433 498T465 452T485 395Q498 335 498 279T494 188T477 116T445 53T393 11T317 -6T210 17T123 59L107 0H67ZM319 51Q375 51 408 104T441 263Q441 392
406 439Q375 482 319 482Q228 482 123 455V100Q234 51 319 51Z" />
<glyph unicode="c" glyph-name="c" horiz-adv-x="500" d="M56 266Q56 334 65 383T88 461T125 508T173 530T231 536Q317 536 449 510V470Q320 479 267 479T202 478T177 471T155 456T138 431T124 392Q113 342 113 261T127 132T165 69T231 52Q313 52 420 63L456 66V24Q359
-3 231 -5Q126 -5 89 70Q56 135 56 266Z" />
<glyph unicode="d" glyph-name="d" horiz-adv-x="553" d="M65 152T61 187T56 265T60 344T75 418T106 481Q149 539 234 539Q271 539 328 528T431 499V785H486V0H447L430 59Q407 40 344 17T236 -6T160 10T109 53T77 115ZM113 156T145 104T234 51Q319 51 430 100V455Q325
482 234 482Q162 482 135 417Q113 365 113 261Z" />
<glyph unicode="e" glyph-name="e" horiz-adv-x="525" d="M87 48T72 105T56 245T61 369T78 442T107 490T150 518Q195 535 278 535Q375 535 410 516Q448 496 462 461Q481 417 481 363T466 283Q436 234 344 234H113Q113 94 164 66Q187 52 231 52Q379 52 471 65V23Q372
-5 236 -5Q163 -5 125 21ZM113 290H344Q383 290 403 302T424 354T418 418T392 457T349 474T285 478T224 477T182 469T150 450T129 417Q113 381 113 290Z" />
<glyph unicode="f" glyph-name="f" horiz-adv-x="394" d="M22 474V516L116 531V630Q116 712 141 747Q153 763 175 774T229 786Q307 786 372 766V730H243Q242 730 231 730T205 724T183 702Q173 677 173 630V531H331V474H173V0H116V474H22Z" />
<glyph unicode="g" glyph-name="g" horiz-adv-x="560" d="M53 117Q53 144 71 167T121 195Q53 231 53 344Q53 533 226 533H538V491L447 476Q447 475 453 468T461 457T468 444T476 427T482 405Q488 383 488 353T485 302T471 253T443 206T395 171T323 157H167Q139
157 125 146T110 116T126 87T164 76H375Q439 76 474 40T509 -60V-119Q509 -183 483 -217Q457 -252 424 -261T359 -270H209Q110 -270 71 -201Q50 -166 50 -116V-28L81 51Q53 72 53 117ZM165 20Q131 20 108 35V-116Q108 -177 145 -197Q175 -213 209 -213H359Q452
-213 452 -119V-63Q452 -22 434 -1T366 20H165ZM160 476T135 440T110 346T136 251T219 214H318Q405 214 426 300Q431 319 431 340Q431 476 332 476H223Q160 476 135 440Z" />
<glyph unicode="h" glyph-name="h" horiz-adv-x="546" d="M124 784V469Q162 492 187 504Q256 540 317 540T416 516Q491 468 491 370V0H434V370Q434 423 405 453T332 483T253 476T194 458T124 425V0H67V784H124Z" />
<glyph unicode="i" glyph-name="i" horiz-adv-x="187" d="M56 619V675Q56 696 76 696H113Q132 696 132 675V619Q132 599 113 599H76Q64 599 60 606T56 619ZM64 0V531H121V0H64Z" />
<glyph unicode="j" glyph-name="j" horiz-adv-x="210" d="M67 619V675Q67 696 87 696H124Q143 696 143 675V619Q143 599 124 599H87Q75 599 71 606T67 619ZM76 -270V531H133V-4Q134 -18 134 -32Q134 -185 113 -270H76Z" />
<glyph unicode="k" glyph-name="k" horiz-adv-x="499" d="M67 0V782H124V334H171L396 531H477L225 305L477 0H404L171 276H124V0H67Z" />
<glyph unicode="l" glyph-name="l" horiz-adv-x="299" d="M67 189V783H124V189Q124 110 147 84Q165 63 193 57Q270 39 277 39V0H196Q67 0 67 189Z" />
<glyph unicode="m" glyph-name="m" horiz-adv-x="909" d="M209 515T247 526T328 538T411 517T468 459Q510 493 569 515T695 538T807 490T853 367V0H796V367Q796 417 767 449T693 481T614 474Q550 462 482 420Q487 407 487 369V0H430V367Q430 417 400 449T327 481T250
474T193 456T124 423V0H67V531H106L124 468Q163 491 186 503Z" />
<glyph unicode="n" glyph-name="n" horiz-adv-x="546" d="M212 517T250 528T333 540T416 516Q491 468 491 370V0H434V370Q434 422 405 452T331 483T253 476T194 458T124 425V0H67V531H106L124 469Q162 492 187 504Z" />
<glyph unicode="o" glyph-name="o" horiz-adv-x="569" d="M77 88T67 136T56 275T78 427T149 511T285 536Q415 536 464 475T514 262T465 53T285 -5Q217 -5 174 9T104 55ZM122 382T118 346T113 266T115 195T124 146T137 110T157 85T181 68T211 58Q241 52 278 52T337
54T380 64T414 86T437 123Q457 165 457 236T453 343T438 403T416 443T382 466T339 476T285 479T232 477T190 468T156 446T133 407Z" />
<glyph unicode="p" glyph-name="p" horiz-adv-x="553" d="M288 537T324 537T393 521T444 478T476 415Q498 352 498 288T494 187T478 113T447 50Q404 -8 319 -8Q266 -8 210 6T122 32V-269H67V531H107L123 472Q159 501 223 519ZM319 49Q375 49 406 92Q441 139 441
256T408 426T319 480Q234 480 123 431V76Q228 49 319 49Z" />
<glyph unicode="q" glyph-name="q" horiz-adv-x="556" d="M56 397T102 467T240 537Q330 537 407 528T489 518V-270H432V29Q387 11 332 1T236 -10T162 4T109 42T77 102Q56 165 56 281ZM113 268Q113 137 145 92Q176 47 235 47T331 52T432 74V480H240Q113 480 113 268Z" />
<glyph unicode="r" glyph-name="r" horiz-adv-x="425" d="M67 0V531H106L124 464Q126 465 142 474T161 485T179 495T198 505T217 513T238 522T258 528T281 533Q310 537 347 537T403 529V473Q375 479 346 479T305 478T284 477T263 473T244 469T224 463T206 456T186
447T168 439T146 428T124 418V0H67Z" />
<glyph unicode="s" glyph-name="s" horiz-adv-x="505" d="M45 360V406Q45 470 76 503T183 536Q220 536 306 531T434 522V480H183Q133 480 118 463T102 406V360Q102 312 124 301Q143 293 183 293H331Q392 293 426 260T461 169V120Q461 41 419 16Q384 -5 341 -5T199
1T67 11V52H331Q369 52 379 62Q404 83 404 120V169Q404 236 331 236H183Q108 236 77 261T45 360Z" />
<glyph unicode="t" glyph-name="t" horiz-adv-x="368" d="M22 475V517L116 532L131 680H173V532H335V475H173V189Q173 110 196 84Q214 63 242 57Q319 40 326 40V0H245Q116 0 116 189V475H22Z" />
<glyph unicode="u" glyph-name="u" horiz-adv-x="546" d="M113 531V161Q113 109 142 79T220 48Q280 48 315 60Q363 77 423 107V531H480V0H441L423 62Q385 40 360 27Q291 -9 218 -9T100 41T56 161V531H113Z" />
<glyph unicode="v" glyph-name="v" horiz-adv-x="530" d="M22 531H84L264 83L447 531H508L292 0H234L22 531Z" />
<glyph unicode="w" glyph-name="w" horiz-adv-x="793" d="M22 531H85L255 83L410 531H472L411 351L534 83L709 531H771L565 0H507L383 275L286 0H224L22 531Z" />
<glyph unicode="x" glyph-name="x" horiz-adv-x="509" d="M27 0L219 266L27 531H98L253 314L411 531H482L289 264L477 0H411L255 216L98 0H27Z" />
<glyph unicode="y" glyph-name="y" horiz-adv-x="545" d="M286 58Q289 58 299 59L458 531H521L287 -168L222 -270H188L279 0Q193 1 160 110L23 531H86L221 116Q241 58 286 58Z" />
<glyph unicode="z" glyph-name="z" horiz-adv-x="462" d="M429 531V474L123 58H429V1H49V58L358 474H33V531H429Z" />
<glyph unicode="{" glyph-name="braceleft" horiz-adv-x="314" d="M168 -38Q168 -153 284 -153Q288 -153 292 -153V-210Q194 -210 146 -153Q111 -113 111 -38V247Q111 278 86 292T31 307Q27 307 22 307V360Q75 365 87 374Q112 393 112 420V656Q112 732 152 785Q196
842 292 842V785Q201 785 178 719Q169 693 169 656V420Q169 385 146 363T86 334Q121 329 144 306T168 251V-38Z" />
<glyph unicode="|" glyph-name="bar" horiz-adv-x="248" d="M96 -72V770H153V-72H96Z" />
<glyph unicode="}" glyph-name="braceright" horiz-adv-x="314" d="M30 -153Q146 -153 146 -38V251Q146 282 169 305T228 334Q192 340 169 362T145 420V656Q145 727 113 756T22 785V842Q157 842 192 726Q202 694 202 656V420Q202 370 269 362Q276 362 292 360V307Q288
307 283 307Q255 307 229 293T203 247V-38Q203 -104 169 -153Q129 -210 22 -210V-153Q26 -153 30 -153Z" />
<glyph unicode="~" glyph-name="asciitilde" horiz-adv-x="449" d="M135 631T146 634T174 637T227 613T278 589T304 591T326 600T344 609T362 622T378 633L394 603Q391 600 380 589T363 573T346 559T326 546Q303 534 281 534T222 558T168 582T136 577T102 560T71
542L56 572Q62 577 74 587T92 603T108 616T127 627Z" />
<glyph unicode="&#xa1;" glyph-name="exclamdown" horiz-adv-x="268" d="M93 386V442Q93 460 113 461H149Q157 460 163 455T169 440V386Q167 364 150 364H113Q93 364 93 386ZM99 -270L104 263H158L165 -270H99Z" />
<glyph unicode="&#xa2;" glyph-name="cent" horiz-adv-x="489" d="M63 94T54 144T45 265T54 386T78 466Q107 522 171 533Q193 538 211 538T236 537V629H282V534Q360 526 438 510V470Q309 480 253 480T180 477T148 461T123 425Q102 372 102 276T116 132T154 68T220
51Q302 51 409 61L445 65V23Q367 0 282 -4V-91H236V-6Q233 -6 215 -6T171 -2T120 19T79 64Z" />
<glyph unicode="&#xa3;" glyph-name="sterling" horiz-adv-x="597" d="M56 0V44L128 57V337H56V371L128 385V505Q128 587 141 620T165 671T193 699T226 716T265 727Q304 732 343 732Q407 732 508 722L542 718V676H358Q250 676 224 651Q195 624 189 574Q185 546
185 505V385L463 371V337H185V57H541V0H56Z" />
<glyph unicode="&#xa4;" glyph-name="currency" horiz-adv-x="461" d="M129 440Q172 474 228 474T329 439L376 485L403 455L357 409Q388 368 388 313T356 214L404 166L372 138L328 183Q284 146 228 146T130 182L85 138L58 169L101 211Q68 256 68 312T101 412L57
457L87 484L129 440ZM179 431T145 397T110 321T125 252T167 206T227 189T287 206T330 251T346 313T330 373T287 415T220 431Z" />
<glyph unicode="&#xa5;" glyph-name="yen" horiz-adv-x="594" d="M506 321V277H316V212H506V168H316V0H259V168H79V212H259V277H79V321H258L22 732H86L287 378L507 732H572L317 321H506Z" />
<glyph unicode="&#xa6;" glyph-name="brokenbar" horiz-adv-x="249" d="M96 -72V256H153V-72H96ZM96 429V770H153V429H96Z" />
<glyph unicode="&#xa7;" glyph-name="section" horiz-adv-x="554" d="M61 590V660Q61 756 144 778Q166 784 195 784T323 778T455 768V727H191Q154 727 137 711T118 660V590Q118 558 137 546T191 534H360Q440 534 467 506T493 416V354Q493 271 448 265Q478 260
486 233Q492 212 492 183V110Q492 24 430 2Q400 -8 361 -8T227 -2T98 8V49H354Q394 49 414 61T435 110V183Q435 207 429 218T407 234T360 238H191Q128 238 104 253T71 292T62 353V415Q62 455 72 478T110 508Q61 520 61 590ZM118 353Q118 314 133 305T191 295H360Q424
295 432 319Q435 330 435 354V416Q435 452 422 465T360 478H191Q148 478 133 467T118 414V353Z" />
<glyph unicode="&#xa8;" glyph-name="dieresis" horiz-adv-x="445" d="M79 542T68 554T56 579T61 602Q73 621 92 621T123 610T134 585T129 562Q118 542 99 542ZM311 566T311 582T322 609T350 621T378 610T389 582T378 554T351 542T323 554Z" />
<glyph unicode="&#xa9;" glyph-name="copyright" horiz-adv-x="829" d="M74 232T68 278T61 373T66 469T88 566T128 651T195 709T293 732H558Q768 732 768 368Q768 174 697 74Q646 0 558 0H293Q241 0 199 25T132 90T91 181ZM108 365Q108 248 152 153Q174 105 210
76T293 47H558Q629 48 675 131T721 368Q721 685 558 685H293Q108 685 108 365ZM248 257Q237 301 237 362T248 467T279 535Q318 583 378 583T559 561V524Q475 536 381 536Q284 536 284 362Q284 309 292 274T322 217T381 194Q477 194 565 210V173Q474 147 381 147Q276
147 248 257Z" />
<glyph unicode="&#xaa;" glyph-name="ordfeminine" horiz-adv-x="362" d="M33 276V319H329V276H33ZM33 463V509Q33 565 80 588Q103 599 133 599Q207 599 244 599T281 599Q281 615 281 623T281 631Q281 695 204 695Q158 695 45 685V716Q54 718 80 723T121 731Q167
739 215 739T295 714T327 636V378H297L282 427Q281 427 272 422T246 409T212 393Q167 374 130 374T63 397T33 463ZM80 473Q80 420 139 420Q166 420 201 429T259 448L281 458V566L139 558Q80 554 80 503V473Z" />
<glyph unicode="&#xab;" glyph-name="guillemotleft" horiz-adv-x="548" d="M56 354L261 557L302 517L136 354L307 186L267 146L56 354ZM241 354L447 557L487 517L321 354L493 186L452 146L241 354Z" />
<glyph unicode="&#xac;" glyph-name="logicalnot" horiz-adv-x="528" d="M56 264V322H473V159H416V264H56Z" />
<glyph unicode="&#xad;" glyph-name="uni00AD" horiz-adv-x="358" d="M22 262V318H336V262H22Z" />
<glyph unicode="&#xae;" glyph-name="registered" horiz-adv-x="829" d="M74 232T68 278T61 373T66 469T88 566T128 651T195 709T293 732H558Q768 732 768 368Q768 174 697 74Q646 0 558 0H293Q241 0 199 25T132 90T91 181ZM108 365Q108 248 152 153Q174 105 210
76T293 47H558Q629 48 675 131T721 368Q721 685 558 685H293Q108 685 108 365ZM446 580Q540 580 566 517Q577 491 577 464T575 422T570 396T561 376T551 361T539 350T526 342T512 337T500 334T487 332T476 329L573 153H520L422 330L316 340V153H269V580H446ZM316
372H452Q497 372 513 388T530 452T509 516T452 533H316V372Z" />
<glyph unicode="&#xaf;" glyph-name="overscore" horiz-adv-x="390" d="M56 531V578H335V531H56Z" />
<glyph unicode="&#xb0;" glyph-name="degree" horiz-adv-x="314" d="M56 604T56 632T70 683T107 721T158 735T209 721T245 684T259 625T230 560T166 530T108 543T70 580ZM92 659T92 632T111 586T158 567T204 586T223 632T204 678T158 698T112 679Z" />
<glyph unicode="&#xb1;" glyph-name="plusminus" horiz-adv-x="529" d="M63 104V161H469V104H63ZM63 395V452H237V627H294V452H469V395H294V221H237V395H63Z" />
<glyph unicode="&#xb2;" glyph-name="twosuperior" horiz-adv-x="395" d="M35 824Q34 824 34 842T35 859Q137 871 218 871Q348 871 348 735Q348 617 132 442Q127 438 125 436H347V389H38V432Q46 438 73 459T120 496T168 537T218 585T258 633Q299 685 299 732T280
801T209 824H35Z" />
<glyph unicode="&#xb3;" glyph-name="threesuperior" horiz-adv-x="416" d="M33 851Q81 866 189 866H229Q290 866 320 834T350 751V716Q350 682 331 658T289 627Q350 597 350 532V504Q350 415 285 393Q260 385 222 385T169 385T124 387Q75 389 37 401L38 431L215
432Q263 432 282 449T302 508V531Q302 569 278 587T219 607L77 612V646L219 652Q258 654 281 672T304 723V749Q304 820 222 820H33V851Z" />
<glyph unicode="&#xb4;" glyph-name="acute" horiz-adv-x="228" d="M22 531L134 664H206L73 531H22Z" />
<glyph unicode="&#xb5;" glyph-name="uni00B5" horiz-adv-x="602" d="M158 531V161Q158 109 187 79T269 48T362 61T468 107V531H525V0H486L468 62Q377 8 321 -3Q294 -9 265 -9Q199 -9 158 34V-270H101V161V531H158Z" />
<glyph unicode="&#xb6;" glyph-name="paragraph" horiz-adv-x="577" d="M45 499V592Q45 659 91 695T201 732H556V673H487V0H430V675H312V-270H255V370Q255 370 250 367T241 363T231 359Q217 354 201 355Q127 355 86 396T45 499ZM102 501Q102 474 113 455T141 427Q172
412 201 412H255V675H201Q167 675 144 662Q102 638 102 590V501Z" />
<glyph unicode="&#xb7;" glyph-name="middot" horiz-adv-x="269" d="M95 361V403Q95 424 115 424H154Q174 424 174 403V361Q174 342 154 342H115Q101 342 97 354Q95 357 95 361Z" />
<glyph unicode="&#xb8;" glyph-name="cedilla" horiz-adv-x="257" d="M201 -37Q201 -113 181 -143Q160 -173 100 -173H56V-146L102 -135Q129 -127 140 -105T151 -37H201Z" />
<glyph unicode="&#xb9;" glyph-name="onesuperior" horiz-adv-x="265" d="M193 865V389H146V813L18 775V810L146 865H193Z" />
<glyph unicode="&#xba;" glyph-name="ordmasculine" horiz-adv-x="386" d="M101 373T67 412T33 555T66 697T194 737T321 698T353 555T320 412T194 373ZM45 278V320H343V278H45ZM91 656T86 628T80 553T86 481T108 441T143 423T195 419T246 422T279 439T301 478Q307
507 307 553T302 627T282 668T248 686T194 691T141 688T107 670Z" />
<glyph unicode="&#xbb;" glyph-name="guillemotright" horiz-adv-x="548" d="M56 186L228 354L61 517L101 557L307 354L97 146L56 186ZM241 186L413 354L247 517L287 557L493 354L282 146L241 186Z" />
<glyph unicode="&#xbc;" glyph-name="onequarter" horiz-adv-x="893" d="M193 732V256H146V680L18 642V677L146 732H193ZM217 0L578 745H627L266 0H217ZM765 185V306L786 354H812V185H871V148L812 135V0H765V135H507L491 155L693 474H747L565 185H765Z" />
<glyph unicode="&#xbd;" glyph-name="onehalf" horiz-adv-x="963" d="M193 732V256H146V680L18 642V677L146 732H193ZM210 0L570 745H619L259 0H210ZM605 435Q604 435 604 453T605 470Q707 482 788 482Q918 482 918 346Q918 229 702 53Q697 49 695 47H917V0H608V43Q613
47 650 76T707 121T762 171T818 229Q869 295 869 342T850 412T779 435H605Z" />
<glyph unicode="&#xbe;" glyph-name="threequarters" horiz-adv-x="1012" d="M229 733Q290 733 320 701T350 618V583Q350 549 331 525T289 494Q350 464 350 399V371Q350 282 285 260Q260 252 222 252T169 252T124 254Q75 256 37 268L38 298L215 299Q263 299 282
316T302 375V398Q302 436 278 454T219 474L77 479V513L219 519Q258 521 281 539T304 590V616Q304 687 222 687H33V718Q53 724 67 726T90 729T112 731T133 732T156 733T179 733T204 733T229 733ZM323 0L684 745H733L372 0H323ZM851 183V306L871 354H896V183H955V148L896
136V0H851V136H591L575 155L777 474H828L646 183H851Z" />
<glyph unicode="&#xbf;" glyph-name="questiondown" horiz-adv-x="538" d="M517 -210Q515 -210 515 -230T515 -251Q377 -269 277 -269Q260 -269 251 -269T239 -268Q124 -268 82 -211Q44 -160 44 -81V21Q43 111 110 151Q158 179 232 179Q261 179 294 175V276H354L355
128Q311 128 279 128T224 128Q173 127 143 97T110 16Q109 -71 109 -85Q109 -144 142 -177T245 -211Q248 -211 251 -211L517 -210ZM362 451V395Q360 375 344 374H303Q287 378 286 395V449Q286 458 291 464T305 471H342Q362 470 362 451Z" />
<glyph unicode="&#xc0;" glyph-name="Agrave" horiz-adv-x="666" d="M193 930H265L376 797H326L193 930ZM50 0L321 732H382L640 0H573L501 221H195L119 0H50ZM216 278H481L351 649L216 278Z" />
<glyph unicode="&#xc1;" glyph-name="Aacute" horiz-adv-x="666" d="M326 797L438 930H509L376 797H326ZM50 0L321 732H382L640 0H573L501 221H195L119 0H50ZM216 278H481L351 649L216 278Z" />
<glyph unicode="&#xc2;" glyph-name="Acircumflex" horiz-adv-x="666" d="M209 797L331 927H384L494 797H441L356 883L262 797H209ZM50 0L321 732H382L640 0H573L501 221H195L119 0H50ZM216 278H481L351 649L216 278Z" />
<glyph unicode="&#xc3;" glyph-name="Atilde" horiz-adv-x="666" d="M444 805Q402 785 346 822Q311 845 294 845T262 840T228 822T198 805L182 835Q229 874 244 882Q275 897 295 897T338 884T379 861T407 849T422 850T436 854T449 859T464 866T477 874T491 883T504
890L520 860Q518 858 507 849T491 836T476 824Q464 815 444 805ZM50 0L321 732H382L640 0H573L501 221H195L119 0H50ZM216 278H481L351 649L216 278Z" />
<glyph unicode="&#xc4;" glyph-name="Adieresis" horiz-adv-x="666" d="M185 820T185 836T196 864T224 876T252 865T263 840T258 817Q247 797 228 797T197 808ZM463 797T451 808T439 834T445 856Q456 876 476 876T507 865T518 837T507 809T479 797ZM50 0L321 732H382L640
0H573L501 221H195L119 0H50ZM216 278H481L351 649L216 278Z" />
<glyph unicode="&#xc5;" glyph-name="Aring" horiz-adv-x="666" d="M250 804T263 781T300 744T359 730T423 759T453 824T440 884T403 921T345 935T280 905T250 840ZM286 805T286 832T305 878T352 898T398 879T417 832T398 786T352 767T306 786ZM50 0L321 732H382L640
0H573L501 221H195L119 0H50ZM216 278H481L351 649L216 278Z" />
<glyph unicode="&#xc6;" glyph-name="AE" horiz-adv-x="925" d="M552 732Q566 732 576 732L878 718V674H576Q528 674 517 655Q509 640 509 622T508 600V390L838 381V338L508 329V122Q508 88 517 78T533 64T550 58Q566 56 587 56L877 55V10L587 -4Q580 -5 567 -5T535
-2T495 14Q451 40 451 121V236H225L97 0H33L358 599Q395 669 437 702Q476 732 552 732ZM451 293V654L255 293H451Z" />
<glyph unicode="&#xc7;" glyph-name="Ccedilla" horiz-adv-x="575" d="M361 -36Q361 -114 341 -143T260 -172H216V-145L262 -134Q290 -126 301 -104T311 -36H361ZM61 368Q61 598 133 677Q191 740 305 740Q344 740 415 733T539 715V672Q539 672 531 672T508 674T476
676T435 678T392 681Q343 683 305 683Q236 683 197 657Q118 605 118 366Q118 51 305 51Q404 51 525 59L539 60V16Q489 7 418 1T305 -6Q61 -6 61 368Z" />
<glyph unicode="&#xc8;" glyph-name="Egrave" horiz-adv-x="572" d="M184 925H256L367 792H317L184 925ZM90 123V602Q90 671 124 701T208 732Q212 732 216 732L525 718V675H216Q177 675 162 657T147 602V393L485 385V341L147 333V123Q147 76 173 63Q193 54 226
54H525V12L226 -3Q218 -3 205 -3T173 0T133 16Q90 42 90 123Z" />
<glyph unicode="&#xc9;" glyph-name="Eacute" horiz-adv-x="572" d="M302 792L414 925H486L353 792H302ZM90 123V602Q90 671 124 701T208 732Q212 732 216 732L525 718V675H216Q177 675 162 657T147 602V393L485 385V341L147 333V123Q147 76 173 63Q193 54 226
54H525V12L226 -3Q218 -3 205 -3T173 0T133 16Q90 42 90 123Z" />
<glyph unicode="&#xca;" glyph-name="Ecircumflex" horiz-adv-x="572" d="M180 797L302 927H356L465 797H412L327 883L234 797H180ZM90 123V602Q90 671 124 701T208 732Q212 732 216 732L525 718V675H216Q177 675 162 657T147 602V393L485 385V341L147 333V123Q147
76 173 63Q193 54 226 54H525V12L226 -3Q218 -3 205 -3T173 0T133 16Q90 42 90 123Z" />
<glyph unicode="&#xcb;" glyph-name="Edieresis" horiz-adv-x="572" d="M176 803T165 815T153 840T158 863Q169 882 188 882T219 871T231 843T220 815T192 803ZM407 827T407 843T419 870T447 882T474 871T486 843T475 815T447 803T419 815ZM90 123V602Q90 671
124 701T208 732Q212 732 216 732L525 718V675H216Q177 675 162 657T147 602V393L485 385V341L147 333V123Q147 76 173 63Q193 54 226 54H525V12L226 -3Q218 -3 205 -3T173 0T133 16Q90 42 90 123Z" />
<glyph unicode="&#xcc;" glyph-name="Igrave" horiz-adv-x="209" d="M-40 930H31L143 797H93L-40 930ZM90 0V732H147V0H90Z" />
<glyph unicode="&#xcd;" glyph-name="Iacute" horiz-adv-x="209" d="M93 797L205 930H276L143 797H93ZM90 0V732H147V0H90Z" />
<glyph unicode="&#xce;" glyph-name="Icircumflex" horiz-adv-x="209" d="M-25 797L98 927H151L261 797H208L123 883L29 797H-25ZM90 0V732H147V0H90Z" />
<glyph unicode="&#xcf;" glyph-name="Idieresis" horiz-adv-x="209" d="M-49 820T-49 836T-38 864T-10 876T18 865T30 837T19 809T-9 797T-37 808ZM206 820T206 836T217 864T245 876T273 865T285 837T274 809T246 797T218 808ZM90 0V732H147V0H90Z" />
<glyph unicode="&#xd0;" glyph-name="Eth" horiz-adv-x="661" d="M25 353V393H90V731Q90 732 352 732Q484 732 549 634Q611 538 611 363Q611 277 587 195T504 57Q445 0 352 0H90V353H25ZM552 364Q552 522 500 597T352 672L147 671V393H292V353H147V59H352Q404
59 444 85T507 155Q552 243 552 364Z" />
<glyph unicode="&#xd1;" glyph-name="Ntilde" horiz-adv-x="674" d="M365 810Q344 822 327 833T302 845T288 845T267 841T245 832T222 819T197 805L182 835Q207 856 221 866Q261 897 291 896T358 872T405 849T421 850T435 854T449 859T464 866T477 874T491 883T503
890L520 860Q517 858 506 849T491 836T476 824T459 813T443 805Q406 787 365 810ZM90 0V732H148L555 107V732H612V0H555L147 625V0H90Z" />
<glyph unicode="&#xd2;" glyph-name="Ograve" horiz-adv-x="675" d="M193 930H265L377 797H326L193 930ZM73 362Q73 433 80 489T98 585T129 653T170 697T222 722Q273 737 333 737T422 734T482 722T533 697T573 653T604 586Q629 499 629 390T621 222T596 123T558
58T503 19Q446 -4 351 -4Q216 -4 166 35Q115 74 96 143Q73 227 73 362ZM142 548T136 493T130 370T133 259T144 182T165 126T195 89T235 67Q279 53 341 53T436 59T498 84T541 138Q572 210 572 361Q572 518 546 580Q537 604 528 620T502 648T473 665T437 675Q403
680 356 680T286 678T233 667T188 638T158 583Z" />
<glyph unicode="&#xd3;" glyph-name="Oacute" horiz-adv-x="675" d="M326 797L438 930H510L377 797H326ZM73 362Q73 433 80 489T98 585T129 653T170 697T222 722Q273 737 333 737T422 734T482 722T533 697T573 653T604 586Q629 499 629 390T621 222T596 123T558
58T503 19Q446 -4 351 -4Q216 -4 166 35Q115 74 96 143Q73 227 73 362ZM142 548T136 493T130 370T133 259T144 182T165 126T195 89T235 67Q279 53 341 53T436 59T498 84T541 138Q572 210 572 361Q572 518 546 580Q537 604 528 620T502 648T473 665T437 675Q403
680 356 680T286 678T233 667T188 638T158 583Z" />
<glyph unicode="&#xd4;" glyph-name="Ocircumflex" horiz-adv-x="675" d="M209 797L331 927H385L494 797H441L356 883L262 797H209ZM73 362Q73 433 80 489T98 585T129 653T170 697T222 722Q273 737 333 737T422 734T482 722T533 697T573 653T604 586Q629 499 629
390T621 222T596 123T558 58T503 19Q446 -4 351 -4Q216 -4 166 35Q115 74 96 143Q73 227 73 362ZM142 548T136 493T130 370T133 259T144 182T165 126T195 89T235 67Q279 53 341 53T436 59T498 84T541 138Q572 210 572 361Q572 518 546 580Q537 604 528 620T502
648T473 665T437 675Q403 680 356 680T286 678T233 667T188 638T158 583Z" />
<glyph unicode="&#xd5;" glyph-name="Otilde" horiz-adv-x="675" d="M182 835Q207 856 221 866Q261 897 288 897T338 884T379 861T407 849T422 850T436 854T449 859T464 866T477 874T491 883T504 890L520 860Q518 858 507 849T491 836T476 824T460 813T444 805Q397
783 346 822Q315 845 296 845T262 840T228 822T198 805L182 835ZM73 362Q73 433 80 489T98 585T129 653T170 697T222 722Q273 737 333 737T422 734T482 722T533 697T573 653T604 586Q629 499 629 390T621 222T596 123T558 58T503 19Q446 -4 351 -4Q216 -4 166 35Q115
74 96 143Q73 227 73 362ZM142 548T136 493T130 370T133 259T144 182T165 126T195 89T235 67Q279 53 341 53T436 59T498 84T541 138Q572 210 572 361Q572 518 546 580Q537 604 528 620T502 648T473 665T437 675Q403 680 356 680T286 678T233 667T188 638T158 583Z"
/>
<glyph unicode="&#xd6;" glyph-name="Odieresis" horiz-adv-x="675" d="M185 820T185 836T196 864T224 876T252 865T263 840T258 817Q247 797 228 797T197 808ZM463 797T451 808T439 834T445 856Q456 876 476 876T507 865T518 837T507 809T480 797ZM73 362Q73
433 80 489T98 585T129 653T170 697T222 722Q273 737 333 737T422 734T482 722T533 697T573 653T604 586Q629 499 629 390T621 222T596 123T558 58T503 19Q446 -4 351 -4Q216 -4 166 35Q115 74 96 143Q73 227 73 362ZM142 548T136 493T130 370T133 259T144 182T165
126T195 89T235 67Q279 53 341 53T436 59T498 84T541 138Q572 210 572 361Q572 518 546 580Q537 604 528 620T502 648T473 665T437 675Q403 680 356 680T286 678T233 667T188 638T158 583Z" />
<glyph unicode="&#xd7;" glyph-name="multiply" horiz-adv-x="451" d="M63 233L186 355L63 479L103 519L226 396L350 519L390 479L266 355L390 233L350 192L226 315L104 193L63 233Z" />
<glyph unicode="&#xd8;" glyph-name="Oslash" horiz-adv-x="675" d="M73 361Q73 492 92 565Q114 646 148 678Q188 716 235 727Q283 737 349 737T460 729T536 694L561 732H607L564 666Q629 583 629 361Q629 199 596 123Q579 83 558 58T502 19Q445 -4 364 -4T239
4T162 38L137 0H90L133 67Q73 146 73 361ZM168 122L505 645Q480 667 445 673T359 680T286 678T233 667T188 638T157 582Q130 521 130 354T168 122ZM194 90Q238 53 351 53Q402 53 436 59T498 84T541 138Q572 210 572 377T531 613L194 90Z" />
<glyph unicode="&#xd9;" glyph-name="Ugrave" horiz-adv-x="679" d="M195 930H266L378 797H328L195 930ZM355 -5H344Q226 -5 189 20Q172 32 150 55T117 113Q90 198 90 320V732H147V320Q147 151 190 102Q206 83 219 73Q242 55 301 53Q317 52 350 52H355Q428 52
448 60T484 77T509 100T529 134T546 181Q559 241 559 320V732H616V320Q616 124 551 57Q528 33 510 21T459 3Q418 -5 355 -5Z" />
<glyph unicode="&#xda;" glyph-name="Uacute" horiz-adv-x="679" d="M328 797L440 930H511L378 797H328ZM355 -5H344Q226 -5 189 20Q172 32 150 55T117 113Q90 198 90 320V732H147V320Q147 151 190 102Q206 83 219 73Q242 55 301 53Q317 52 350 52H355Q428 52
448 60T484 77T509 100T529 134T546 181Q559 241 559 320V732H616V320Q616 124 551 57Q528 33 510 21T459 3Q418 -5 355 -5Z" />
<glyph unicode="&#xdb;" glyph-name="Ucircumflex" horiz-adv-x="679" d="M210 797L332 927H386L496 797H443L358 883L264 797H210ZM355 -5H344Q226 -5 189 20Q172 32 150 55T117 113Q90 198 90 320V732H147V320Q147 151 190 102Q206 83 219 73Q242 55 301 53Q317
52 350 52H355Q428 52 448 60T484 77T509 100T529 134T546 181Q559 241 559 320V732H616V320Q616 124 551 57Q528 33 510 21T459 3Q418 -5 355 -5Z" />
<glyph unicode="&#xdc;" glyph-name="Udieresis" horiz-adv-x="679" d="M186 820T186 836T197 864T225 876T253 865T265 837T254 809T226 797T198 808ZM464 797T453 808T441 834T446 856Q458 876 477 876T508 865T520 837T509 809T481 797ZM355 -5H344Q226 -5
189 20Q172 32 150 55T117 113Q90 198 90 320V732H147V320Q147 151 190 102Q206 83 219 73Q242 55 301 53Q317 52 350 52H355Q428 52 448 60T484 77T509 100T529 134T546 181Q559 241 559 320V732H616V320Q616 124 551 57Q528 33 510 21T459 3Q418 -5 355 -5Z"
/>
<glyph unicode="&#xdd;" glyph-name="Yacute" horiz-adv-x="626" d="M300 797L412 930H483L350 797H300ZM344 0H287V260L50 732H113L315 329L538 732H600L344 260V0Z" />
<glyph unicode="&#xde;" glyph-name="Thorn" horiz-adv-x="555" d="M67 0V729H124V588H328Q504 587 504 375Q504 215 421 170Q383 149 328 149Q325 149 307 149T283 149T259 149T229 151T199 154Q167 157 124 165V0H67ZM124 206H328Q329 206 342 206T375 213T412
238Q446 275 446 377Q445 487 389 517Q363 530 328 530H124V206Z" />
<glyph unicode="&#xdf;" glyph-name="germandbls" horiz-adv-x="568" d="M216 54L392 49Q437 49 463 73T490 132V179Q490 223 410 237Q377 243 344 251T288 283T264 349T287 419T389 505Q450 549 450 621Q450 670 406 695T288 720T169 682T124 566V0H67V566Q67
657 124 717T285 777Q356 777 405 759T476 712Q508 671 508 619Q508 566 471 510Q450 479 423 460Q410 450 389 435T360 412T340 393Q321 374 321 352T337 317T379 301T434 289T488 271T530 238T547 179V132Q548 29 445 0Q418 -8 392 -8T337 -6T292 -2T248 5T216
10V54Z" />
<glyph unicode="&#xe0;" glyph-name="agrave" horiz-adv-x="519" d="M110 734H181L293 601H243L110 734ZM62 511Q174 541 313 541Q379 541 421 503T464 387V0H422L407 64Q406 64 391 57T352 40T298 19Q230 -6 176 -6T83 29T45 126V187Q45 271 107 304Q137 320
178 320Q292 320 349 320T407 320Q407 353 407 370T407 387Q407 486 304 486Q221 486 62 470V511ZM102 131Q102 89 123 70Q145 51 173 51T232 56T293 70Q354 86 391 99L407 105V277L178 263Q102 258 102 183V131Z" />
<glyph unicode="&#xe1;" glyph-name="aacute" horiz-adv-x="519" d="M238 601L349 734H421L288 601H238ZM62 511Q174 541 313 541Q379 541 421 503T464 387V0H422L407 64Q406 64 391 57T352 40T298 19Q230 -6 176 -6T83 29T45 126V187Q45 271 107 304Q137 320
178 320Q292 320 349 320T407 320Q407 353 407 370T407 387Q407 486 304 486Q221 486 62 470V511ZM102 131Q102 89 123 70Q145 51 173 51T232 56T293 70Q354 86 391 99L407 105V277L178 263Q102 258 102 183V131Z" />
<glyph unicode="&#xe2;" glyph-name="acircumflex" horiz-adv-x="519" d="M122 601L245 731H298L408 601H355L270 687L176 601H122ZM62 511Q174 541 313 541Q379 541 421 503T464 387V0H422L407 64Q406 64 391 57T352 40T298 19Q230 -6 176 -6T83 29T45 126V187Q45
271 107 304Q137 320 178 320Q292 320 349 320T407 320Q407 353 407 370T407 387Q407 486 304 486Q221 486 62 470V511ZM102 131Q102 89 123 70Q145 51 173 51T232 56T293 70Q354 86 391 99L407 105V277L178 263Q102 258 102 183V131Z" />
<glyph unicode="&#xe3;" glyph-name="atilde" horiz-adv-x="519" d="M352 612Q311 592 255 629Q220 652 203 652T171 647T136 630T106 612L91 642Q116 663 130 673Q170 704 200 704T268 680T315 656T330 657T345 661T358 666T373 674T386 681T400 690T412 698L429
668Q426 665 415 656T400 643T385 631Q373 622 352 612ZM62 511Q174 541 313 541Q379 541 421 503T464 387V0H422L407 64Q406 64 391 57T352 40T298 19Q230 -6 176 -6T83 29T45 126V187Q45 271 107 304Q137 320 178 320Q292 320 349 320T407 320Q407 353 407 370T407
387Q407 486 304 486Q221 486 62 470V511ZM102 131Q102 89 123 70Q145 51 173 51T232 56T293 70Q354 86 391 99L407 105V277L178 263Q102 258 102 183V131Z" />
<glyph unicode="&#xe4;" glyph-name="adieresis" horiz-adv-x="519" d="M97 636T97 652T108 679T136 691T164 680T175 652T164 624T137 612T109 624ZM352 636T352 652T363 679T391 691T419 680T430 652T419 624T392 612T364 624ZM62 511Q174 541 313 541Q379 541
421 503T464 387V0H422L407 64Q406 64 391 57T352 40T298 19Q230 -6 176 -6T83 29T45 126V187Q45 271 107 304Q137 320 178 320Q292 320 349 320T407 320Q407 353 407 370T407 387Q407 486 304 486Q221 486 62 470V511ZM102 131Q102 89 123 70Q145 51 173 51T232
56T293 70Q354 86 391 99L407 105V277L178 263Q102 258 102 183V131Z" />
<glyph unicode="&#xe5;" glyph-name="aring" horiz-adv-x="519" d="M162 677Q162 701 175 724T212 762T263 776T314 762T351 725T364 666T335 601T264 571T192 600T162 677ZM197 700T197 673T216 627T263 608T310 627T329 673T310 719T264 739T217 720ZM62 511Q174
541 313 541Q379 541 421 503T464 387V0H422L407 64Q406 64 391 57T352 40T298 19Q230 -6 176 -6T83 29T45 126V187Q45 271 107 304Q137 320 178 320Q292 320 349 320T407 320Q407 353 407 370T407 387Q407 486 304 486Q221 486 62 470V511ZM102 131Q102 89 123
70Q145 51 173 51T232 56T293 70Q354 86 391 99L407 105V277L178 263Q102 258 102 183V131Z" />
<glyph unicode="&#xe6;" glyph-name="ae" horiz-adv-x="877" d="M62 515Q161 545 315 545Q410 545 445 471Q467 510 510 524T607 539T680 538T723 533T761 522T791 501T814 468Q832 424 832 361T799 270T695 242H465Q465 237 465 214T467 164T475 114T496 79Q524
56 593 56Q731 56 822 69V27Q724 -1 583 -1Q510 -1 476 21Q458 33 449 42T426 68Q426 68 409 61T365 44T305 23Q230 -2 176 -2T83 33T45 130V166Q45 250 107 283Q137 299 178 299Q292 299 349 299T407 299Q407 345 407 367T407 391Q407 490 305 490Q225 490 62
474V515ZM179 55Q256 55 407 111V259L178 246Q102 242 102 166V135Q102 93 123 74Q145 55 179 55ZM695 298Q736 298 755 310T775 354T773 406T763 441T746 463T718 475Q690 482 643 482T574 480T532 472T501 454T480 421Q465 386 465 298H695Z" />
<glyph unicode="&#xe7;" glyph-name="ccedilla" horiz-adv-x="500" d="M56 266Q56 334 64 383T87 461T126 509Q164 537 237 537T449 510V470Q320 480 264 480T191 477T159 461T134 425Q113 372 113 275T127 131T165 68T231 51Q313 51 420 61L456 65V23Q359 -5
231 -6Q127 -6 89 69Q56 135 56 266ZM315 -36Q315 -114 294 -143T214 -172H170V-146L216 -134Q243 -126 254 -104T265 -36H315Z" />
<glyph unicode="&#xe8;" glyph-name="egrave" horiz-adv-x="525" d="M125 727H196L308 594H258L125 727ZM87 48T72 105T56 245T61 369T78 442T107 490T150 518Q195 535 278 535Q375 535 410 516Q448 496 462 461Q481 417 481 353T448 262T344 234H113Q113 94 164
66Q187 52 231 52Q379 52 471 65V23Q372 -5 236 -5Q163 -5 125 21ZM113 290H344Q383 290 403 302T424 354T418 418T392 457T349 474T285 478T224 477T182 469T150 450T129 417Q113 381 113 290Z" />
<glyph unicode="&#xe9;" glyph-name="eacute" horiz-adv-x="525" d="M249 594L361 727H433L300 594H249ZM87 48T72 105T56 245T61 369T78 442T107 490T150 518Q195 535 278 535Q375 535 410 516Q448 496 462 461Q481 417 481 353T448 262T344 234H113Q113 94 164
66Q187 52 231 52Q379 52 471 65V23Q372 -5 236 -5Q163 -5 125 21ZM113 290H344Q383 290 403 302T424 354T418 418T392 457T349 474T285 478T224 477T182 469T150 450T129 417Q113 381 113 290Z" />
<glyph unicode="&#xea;" glyph-name="ecircumflex" horiz-adv-x="525" d="M130 594L252 724H306L416 594H363L278 680L184 594H130ZM87 48T72 105T56 245T61 369T78 442T107 490T150 518Q195 535 278 535Q375 535 410 516Q448 496 462 461Q481 417 481 353T448
262T344 234H113Q113 94 164 66Q187 52 231 52Q379 52 471 65V23Q372 -5 236 -5Q163 -5 125 21ZM113 290H344Q383 290 403 302T424 354T418 418T392 457T349 474T285 478T224 477T182 469T150 450T129 417Q113 381 113 290Z" />
<glyph unicode="&#xeb;" glyph-name="edieresis" horiz-adv-x="525" d="M130 606T119 617T107 642T112 665Q123 684 142 684T173 673T185 646T174 618T146 606ZM361 629T361 645T373 673T401 684T428 673T440 646T429 618T401 606T373 617ZM87 48T72 105T56 245T61
369T78 442T107 490T150 518Q195 535 278 535Q375 535 410 516Q448 496 462 461Q481 417 481 353T448 262T344 234H113Q113 94 164 66Q187 52 231 52Q379 52 471 65V23Q372 -5 236 -5Q163 -5 125 21ZM113 290H344Q383 290 403 302T424 354T418 418T392 457T349
474T285 478T224 477T182 469T150 450T129 417Q113 381 113 290Z" />
<glyph unicode="&#xec;" glyph-name="igrave" horiz-adv-x="191" d="M-63 729H9L121 596H70L-63 729ZM67 0V531H124V0H67Z" />
<glyph unicode="&#xed;" glyph-name="iacute" horiz-adv-x="191" d="M70 596L182 729H254L121 596H70ZM67 0V531H124V0H67Z" />
<glyph unicode="&#xee;" glyph-name="icircumflex" horiz-adv-x="191" d="M-47 596L75 726H129L238 596H185L100 682L7 596H-47ZM67 0V531H124V0H67Z" />
<glyph unicode="&#xef;" glyph-name="idieresis" horiz-adv-x="191" d="M-71 619T-71 635T-60 663T-32 675T-4 664T7 636T-4 608T-31 596T-59 607ZM184 619T184 635T195 663T223 675T251 664T262 636T251 608T224 596T196 607ZM67 0V531H124V0H67Z" />
<glyph unicode="&#xf0;" glyph-name="eth" horiz-adv-x="538" d="M123 0T84 62T45 261T85 464T223 531H313Q338 531 367 521T406 499Q379 604 323 660L172 600L155 645L279 694Q219 733 135 733Q132 733 129 733V783Q259 783 339 717L461 766L479 721L378 681Q493
546 493 264Q493 122 446 61T313 0H223Q123 0 84 62ZM118 414T110 372T102 269T108 171T123 111T149 78T182 63T223 59H313Q382 59 409 111T436 269T411 424T313 474H223Q193 474 173 466T135 436Z" />
<glyph unicode="&#xf1;" glyph-name="ntilde" horiz-adv-x="546" d="M371 608Q330 588 274 625Q239 648 222 648T190 643T155 625T125 608L110 638Q135 659 149 669Q189 700 219 699T287 675T334 652T349 653T364 657T377 662T392 669T405 677T419 686T431 693L448
663Q445 661 434 652T419 639T404 627Q392 618 371 608ZM67 0V531H106L124 469Q214 523 271 535Q298 540 338 540T416 516Q491 468 491 370V0H434V370Q434 422 405 452T323 483T230 470T124 425V0H67Z" />
<glyph unicode="&#xf2;" glyph-name="ograve" horiz-adv-x="569" d="M133 729H205L316 596H266L133 729ZM56 258Q56 340 67 393T107 478T177 523T285 536Q415 536 464 475T514 262T465 53T285 -5T105 53T56 258ZM122 382T118 346T113 266T115 195T124 146T137
110T157 85T181 68T211 58Q241 52 282 52T347 55T394 71T430 106Q457 155 457 258Q457 359 438 404Q428 428 416 443T382 466T339 476T285 479T232 477T190 468T156 446T133 407Z" />
<glyph unicode="&#xf3;" glyph-name="oacute" horiz-adv-x="569" d="M260 596L371 729H443L310 596H260ZM56 258Q56 340 67 393T107 478T177 523T285 536Q415 536 464 475T514 262T465 53T285 -5T105 53T56 258ZM122 382T118 346T113 266T115 195T124 146T137
110T157 85T181 68T211 58Q241 52 282 52T347 55T394 71T430 106Q457 155 457 258Q457 359 438 404Q428 428 416 443T382 466T339 476T285 479T232 477T190 468T156 446T133 407Z" />
<glyph unicode="&#xf4;" glyph-name="ocircumflex" horiz-adv-x="569" d="M145 596L267 726H321L431 596H378L293 682L199 596H145ZM56 258Q56 340 67 393T107 478T177 523T285 536Q415 536 464 475T514 262T465 53T285 -5T105 53T56 258ZM122 382T118 346T113
266T115 195T124 146T137 110T157 85T181 68T211 58Q241 52 282 52T347 55T394 71T430 106Q457 155 457 258Q457 359 438 404Q428 428 416 443T382 466T339 476T285 479T232 477T190 468T156 446T133 407Z" />
<glyph unicode="&#xf5;" glyph-name="otilde" horiz-adv-x="569" d="M383 604Q341 584 286 621Q251 644 234 644T201 639T167 621T137 604L122 634Q147 655 160 665Q201 696 231 695T298 671T345 648T359 648T369 650T380 654T391 659T401 664T412 670T423 676T433
683T443 689L460 659Q457 657 446 648T430 635T415 623Q404 614 383 604ZM56 258Q56 340 67 393T107 478T177 523T285 536Q415 536 464 475T514 262T465 53T285 -5T105 53T56 258ZM122 382T118 346T113 266T115 195T124 146T137 110T157 85T181 68T211 58Q241 52
282 52T347 55T394 71T430 106Q457 155 457 258Q457 359 438 404Q428 428 416 443T382 466T339 476T285 479T232 477T190 468T156 446T133 407Z" />
<glyph unicode="&#xf6;" glyph-name="odieresis" horiz-adv-x="569" d="M119 619T119 635T130 663T158 675T186 664T197 636T186 608T158 596T131 607ZM397 596T385 607T373 633T379 655Q390 675 410 675T441 664T452 636T441 608T413 596ZM56 258Q56 340 67 393T107
478T177 523T285 536Q415 536 464 475T514 262T465 53T285 -5T105 53T56 258ZM122 382T118 346T113 266T115 195T124 146T137 110T157 85T181 68T211 58Q241 52 282 52T347 55T394 71T430 106Q457 155 457 258Q457 359 438 404Q428 428 416 443T382 466T339 476T285
479T232 477T190 468T156 446T133 407Z" />
<glyph unicode="&#xf7;" glyph-name="divide" horiz-adv-x="527" d="M56 324V382H472V324H56ZM229 168V218Q229 239 249 239H286Q305 239 305 218V168Q305 149 286 149H249Q237 149 233 156T229 168ZM229 479V530Q229 550 249 550H286Q305 550 305 530V479Q305
461 286 461H249Q235 461 230 472Q229 475 229 479Z" />
<glyph unicode="&#xf8;" glyph-name="oslash" horiz-adv-x="569" d="M56 258Q56 367 78 427T149 511T289 536T430 504L451 531H501L462 478Q514 418 514 264T465 53T285 -5Q181 -5 130 31L107 0H60L102 57Q56 114 56 258ZM113 258Q113 154 140 108L397 457Q364
479 285 479Q184 479 156 445Q125 409 117 345Q113 309 113 258ZM452 178Q457 212 457 258Q457 382 425 430L164 78Q197 52 290 52T413 85T452 178Z" />
<glyph unicode="&#xf9;" glyph-name="ugrave" horiz-adv-x="546" d="M116 729H188L300 596H249L116 729ZM56 161V531H113V161Q113 109 142 79T224 48T317 61T423 107V531H480V0H441L423 62Q385 40 360 27Q291 -9 218 -9T100 41T56 161Z" />
<glyph unicode="&#xfa;" glyph-name="uacute" horiz-adv-x="546" d="M243 596L355 729H426L293 596H243ZM56 161V531H113V161Q113 109 142 79T224 48T317 61T423 107V531H480V0H441L423 62Q385 40 360 27Q291 -9 218 -9T100 41T56 161Z" />
<glyph unicode="&#xfb;" glyph-name="ucircumflex" horiz-adv-x="546" d="M125 596L248 726H301L411 596H358L273 682L179 596H125ZM56 161V531H113V161Q113 109 142 79T224 48T317 61T423 107V531H480V0H441L423 62Q385 40 360 27Q291 -9 218 -9T100 41T56 161Z" />
<glyph unicode="&#xfc;" glyph-name="udieresis" horiz-adv-x="546" d="M101 619T101 635T112 663T140 675T168 664T180 636T169 608T141 596T113 607ZM356 619T356 635T367 663T395 675T423 664T435 639T430 616Q419 596 399 596T368 607ZM56 161V531H113V161Q113
109 142 79T224 48T317 61T423 107V531H480V0H441L423 62Q385 40 360 27Q291 -9 218 -9T100 41T56 161Z" />
<glyph unicode="&#xfd;" glyph-name="yacute" horiz-adv-x="545" d="M247 596L359 729H430L297 596H247ZM286 58Q289 58 299 59L458 531H521L287 -168L222 -270H188L279 0Q193 1 160 110L23 531H86L221 116Q241 58 286 58Z" />
<glyph unicode="&#xfe;" glyph-name="thorn" horiz-adv-x="556" d="M78 -270V782H135V471Q161 490 226 515T339 540T421 517T476 454Q512 377 512 267Q512 112 465 48Q447 23 415 7T341 -10T239 0T135 29V-270H78ZM398 47T426 97T455 260T424 428T337 483Q265
480 135 430V73Q216 51 337 47Q398 47 426 97Z" />
<glyph unicode="&#xff;" glyph-name="ydieresis" horiz-adv-x="545" d="M116 607T111 616T105 638T116 663T144 675T172 664T184 636T173 608T148 596T125 601ZM384 596T372 607T360 633T365 655Q377 675 396 675T427 664T439 636T428 608T400 596ZM286 58Q289
58 299 59L458 531H521L287 -168L222 -270H188L279 0Q193 1 160 110L23 531H86L221 116Q241 58 286 58Z" />
<glyph unicode="&#x2013;" glyph-name="endash" horiz-adv-x="517" d="M22 258V316H495V258H22Z" />
<glyph unicode="&#x2014;" glyph-name="emdash" horiz-adv-x="740" d="M22 260V318H718V260H22Z" />
<glyph unicode="&#x2018;" glyph-name="quoteleft" horiz-adv-x="235" d="M92 724T104 729T125 737T140 739T156 737V711Q138 712 133 704T127 683V652H138Q152 652 156 644T161 628V568Q161 543 138 543H97Q75 543 75 568V669Q75 692 83 708Z" />
<glyph unicode="&#x2019;" glyph-name="quoteright" horiz-adv-x="235" d="M144 557T132 552T111 544T96 542T80 544V569Q81 569 81 569Q109 569 109 598V629H98Q75 629 75 653V713Q75 739 99 739H139Q162 739 162 713L161 612Q161 588 153 573Z" />
<glyph unicode="&#x201a;" glyph-name="quotesinglbase" horiz-adv-x="235" d="M145 -73T133 -79T111 -86T96 -88T80 -86V-61Q81 -61 82 -61Q109 -61 109 -31V-1H98Q88 -1 82 5T75 23V83Q75 109 98 109H139Q161 109 161 83V-17Q161 -41 153 -57Z" />
<glyph unicode="&#x201c;" glyph-name="quotedblleft" horiz-adv-x="362" d="M225 724T237 729T259 737T274 739T290 737V711Q289 711 288 711Q261 711 261 683V652H272Q294 652 294 628V568Q294 543 272 543H231Q208 543 208 568V669Q208 692 216 708ZM85 724T97
729T118 737T133 739T150 737V711Q149 711 148 711Q121 711 121 683V652H131Q155 652 155 628V568Q155 543 131 543H90Q68 543 68 568V669Q68 692 76 708Z" />
<glyph unicode="&#x201d;" glyph-name="quotedblright" horiz-adv-x="362" d="M138 557T126 552T104 544T89 542T73 544V569Q74 569 75 569Q101 569 101 598V629H91Q81 629 75 635T68 653V713Q68 739 91 739H132Q155 739 155 713V612Q155 588 147 573ZM278 557T266
552T244 544T229 542T213 544V569Q214 569 215 569Q242 569 242 598V629H232Q208 629 208 653V713Q208 739 232 739H273Q294 739 294 713V612Q294 588 286 573Z" />
<glyph unicode="&#x201e;" glyph-name="quotedblbase" horiz-adv-x="362" d="M138 -73T126 -78T104 -85T89 -87T73 -86V-60Q74 -60 75 -60Q101 -60 101 -31V0H91Q81 0 75 6T68 24V84Q68 110 91 110H132Q155 110 155 84V-17Q155 -41 147 -57ZM278 -73T266 -78T244
-85T229 -87T213 -86V-60Q214 -60 215 -60Q242 -60 242 -31V0H232Q208 0 208 24V84Q208 110 232 110H273Q294 110 294 84V-17Q294 -41 286 -57Z" />
<glyph unicode="&#x2022;" glyph-name="bullet" horiz-adv-x="315" d="M95 350V412Q95 448 128 448H185Q220 448 220 412V350Q220 318 185 318H128Q113 318 104 326T95 350Z" />
<glyph unicode="&#x2039;" glyph-name="guilsinglleft" horiz-adv-x="355" d="M56 354L262 557L302 517L135 354L307 186L267 146L56 354Z" />
<glyph unicode="&#x203a;" glyph-name="guilsinglright" horiz-adv-x="355" d="M56 186L228 354L61 517L101 557L307 354L96 146L56 186Z" />
</font>
</defs>
</svg>
