<?xml version="1.0" standalone="no"?>
<!DOCTYPE svg PUBLIC "-//W3C//DTD SVG 1.1//EN" "http://www.w3.org/Graphics/SVG/1.1/DTD/svg11.dtd">
<svg xmlns="http://www.w3.org/2000/svg">
<defs >
<font id="Exo" horiz-adv-x="547" ><font-face
    font-family="Exo"
    units-per-em="1000"
    panose-1="2 0 10 3 0 0 0 0 0 0"
    ascent="1002"
    descent="-328"
    alphabetic="0" />
<glyph unicode=" " glyph-name="space" horiz-adv-x="250" />
<glyph unicode="!" glyph-name="exclam" horiz-adv-x="277" d="M104 165H219Q239 165 239 147Q239 144 238 140L219 23Q216 0 193 0H78Q54 0 57 23L76 140Q79 165 104 165ZM94 196L161 731H345L240 196H94Z" />
<glyph unicode="&quot;" glyph-name="quotedbl" horiz-adv-x="497" d="M144 531L153 665L164 732H348L337 665L306 531H144ZM360 531L371 665L382 732H566L555 665L524 531H360Z" />
<glyph unicode="#" glyph-name="numbersign" horiz-adv-x="749" d="M41 192L82 324H229L258 409H109L151 541H305L373 732H505L437 541H525L592 732H724L657 541H824L784 409H616L587 323H755L716 191H536L469 0H337L404 191L315 192L248 0H116L183 192H41ZM361
324L455 323L484 409H390L361 324Z" />
<glyph unicode="$" glyph-name="dollar" horiz-adv-x="566" d="M309 166Q341 166 356 175T375 207L377 223Q378 230 378 239Q378 267 331 267H271Q179 267 142 319Q105 371 104 423Q104 438 104 450Q104 484 108 505L116 566Q132 669 200 704Q257 734 350 738L363
824H471L458 738Q543 734 621 705L597 554Q507 564 426 564T328 557T307 520L305 509Q304 501 304 491T312 471T358 461H422Q476 461 512 435T560 372Q580 316 580 279T575 224L570 191Q548 48 454 11Q423 -1 399 -4T340 -8L327 -90H219L232 -8Q198 -8 179 -6T155
-4T140 -1T127 3T112 7T97 12T78 19T58 26L82 177Q189 166 309 166Z" />
<glyph unicode="%" glyph-name="percent" horiz-adv-x="967" d="M278 732H379Q449 732 477 692Q498 663 498 618Q498 603 495 585L477 472Q467 408 430 379T317 349H216Q146 349 118 390Q97 420 97 465Q97 481 100 499L118 612Q128 676 165 704T278 732ZM229 494Q229
474 260 474H311Q352 474 357 514L365 567Q366 575 366 585Q366 607 334 607H283Q244 607 238 567L230 514Q229 503 229 494ZM191 0L761 732H885L322 0H191ZM766 386H868Q938 386 966 345Q987 315 987 270Q987 254 984 236L968 123Q958 59 920 31T806 3H704Q587
3 587 110Q587 128 590 148L607 261Q617 326 654 356T766 386ZM719 168Q718 161 718 153T722 136T750 128H800Q841 128 846 168L854 221Q855 229 855 239Q855 261 823 261H773Q733 261 727 221L719 168Z" />
<glyph unicode="&amp;" glyph-name="ampersand" horiz-adv-x="711" d="M46 196Q46 289 149 365L236 430L204 487Q182 529 182 569Q182 633 230 684Q266 722 311 730T427 738T612 710L589 566H456Q401 566 396 551Q395 549 395 545Q395 528 419 488L510 328L648
443L704 355L634 231L589 188L696 0H480L434 81L358 25Q313 -8 261 -8T158 13T77 89T46 196ZM235 194Q251 168 270 168T308 183L351 217L307 290L259 257Q230 233 230 212Q230 203 235 194Z" />
<glyph unicode="&apos;" glyph-name="quotesingle" horiz-adv-x="256" d="M126 531L136 665L147 732H342L331 665L300 531H126Z" />
<glyph unicode="(" glyph-name="parenleft" horiz-adv-x="412" d="M363 519T332 433T288 268T275 146T277 55T294 -59Q321 -178 355 -244L368 -270H197Q194 -266 188 -260T166 -228T136 -172Q79 -52 79 122Q79 319 144 488Q178 578 215 632T287 727T344 784L367
800H538Q530 790 516 772T464 696T395 579Z" />
<glyph unicode=")" glyph-name="parenright" horiz-adv-x="413" d="M151 0T183 89T227 256T239 375T237 464T220 579Q192 705 160 772L147 800H318L327 788Q372 728 406 612Q435 509 435 382Q435 311 420 218T373 32T306 -114T241 -205T189 -256L169 -270H-22Q10
-234 49 -176T120 -59Z" />
<glyph unicode="*" glyph-name="asterisk" horiz-adv-x="417" d="M117 566L128 636L270 655L260 561L117 566ZM142 418L188 556L276 532L205 397L142 418ZM248 459L312 538L411 449L361 393L248 459ZM271 722L341 744L382 618L289 584L271 722ZM320 571L452 652L484
595L367 498L320 571Z" />
<glyph unicode="+" glyph-name="plus" horiz-adv-x="456" d="M64 279L88 433H218L239 564H393L372 433H504L480 279H348L327 148H173L194 279H64Z" />
<glyph unicode="," glyph-name="comma" horiz-adv-x="254" d="M73 0Q51 0 51 19Q51 22 52 25L70 139Q74 166 99 166H210Q231 166 231 146Q231 143 230 139L206 -11Q200 -46 181 -66T140 -92T106 -97Q72 -97 54 -92L39 -88L49 -26Q74 -26 80 -16Q81 -13 84 0H73Z" />
<glyph unicode="-" glyph-name="hyphen" horiz-adv-x="353" d="M61 213L85 367H399L375 213H61Z" />
<glyph unicode="." glyph-name="period" horiz-adv-x="256" d="M98 165H211Q233 165 233 147Q233 144 232 140L213 23Q209 0 185 0H72Q48 0 51 23L70 140Q73 165 98 165Z" />
<glyph unicode="/" glyph-name="slash" horiz-adv-x="503" d="M0 -72L414 770H613L199 -72H0Z" />
<glyph unicode="0" glyph-name="zero" horiz-adv-x="619" d="M328 732H492Q594 732 636 677Q669 635 669 577Q669 559 666 540L611 192Q580 0 415 0H251Q153 0 104 52Q65 92 65 155Q65 172 68 192L122 530Q138 631 187 681T328 732ZM269 233Q268 224 268 213T274
191T291 177T316 174H358Q387 174 402 184T423 232L466 500Q467 509 467 517Q467 558 427 558H370Q333 558 322 533Q312 513 311 500L269 233Z" />
<glyph unicode="1" glyph-name="one" horiz-adv-x="379" d="M226 548Q194 526 135 526Q130 526 126 526L105 528L124 651Q209 677 257 732H449L333 0H139L226 548Z" />
<glyph unicode="2" glyph-name="two" horiz-adv-x="580" d="M442 518Q442 545 422 556T336 567H113L136 712Q278 742 435 742Q547 742 598 666Q637 609 637 532Q637 463 614 420T573 352T520 295T469 248T414 206T373 174H583L555 0H30L57 168Q155 227 293 338T440
499Q442 509 442 518Z" />
<glyph unicode="3" glyph-name="three" horiz-adv-x="574" d="M507 364Q571 346 571 243Q571 218 567 190L562 161Q536 -7 337 -7Q299 -7 276 -7T225 -7T187 -6T153 -4T118 0T86 5Q58 10 26 21L50 168H268Q331 168 350 175T374 216L375 226Q380 264 349 271Q335
274 326 274T291 277L129 286L155 444L319 452Q393 455 403 465Q418 480 421 503T421 538T401 554Q379 560 336 560H105L128 706Q213 734 410 734Q435 734 461 734Q544 732 590 675Q624 631 624 569Q624 550 621 529L614 490Q595 377 507 364Z" />
<glyph unicode="4" glyph-name="four" horiz-adv-x="635" d="M46 224L337 732H545L322 315H419L441 449L480 527H647L613 315H673L650 166L585 137L564 2H370L391 137H66L46 224Z" />
<glyph unicode="5" glyph-name="five" horiz-adv-x="592" d="M323 456Q362 478 429 478Q448 478 467 476Q549 469 582 412Q607 369 607 311Q607 291 604 270L589 156Q563 -4 356 -4Q253 -4 195 0T46 20L71 175H335Q380 175 391 194Q399 208 402 228L407 259Q408
268 408 279T401 301T367 312H323Q279 312 272 267H86L182 732H645L617 558H343L323 456Z" />
<glyph unicode="6" glyph-name="six" horiz-adv-x="599" d="M655 712L632 564H413Q366 564 338 542Q328 533 320 512Q311 490 302 437Q331 451 361 454T458 458Q614 458 614 308Q614 281 609 249L594 148Q579 58 527 29T376 -1H238Q190 -1 158 18T104 83T82 208T98
404Q131 618 220 688Q248 710 272 719Q328 740 428 740T655 712ZM279 294Q273 253 273 229T278 194Q290 173 340 173H362Q387 173 397 182T412 219L416 239Q420 257 420 267T418 282Q412 294 386 294H279Z" />
<glyph unicode="7" glyph-name="seven" horiz-adv-x="561" d="M105 558L133 732H614L648 654L316 0H110L396 558H105Z" />
<glyph unicode="8" glyph-name="eight" horiz-adv-x="616" d="M171 349Q139 366 127 396T114 450T121 519L131 584Q147 685 214 714Q247 728 278 732T354 737H510Q599 737 640 688Q669 651 669 591Q669 569 665 543L658 499Q654 470 631 440T564 403Q595 397 608
367T622 320Q622 302 617 241L605 165Q590 77 548 36Q531 20 501 12T450 2T392 0H237Q66 0 66 149Q66 172 70 199L78 252Q92 336 171 349ZM269 210Q268 202 268 191Q268 164 308 164H360Q390 164 401 175T415 210L421 250Q422 258 422 267T417 287T384 297H330Q301
297 290 285T275 250L269 210ZM465 553Q465 573 425 573H373Q347 573 335 565T318 524L314 494Q313 485 313 474T320 457T354 450H406Q437 450 446 459T460 494L464 524L465 553Z" />
<glyph unicode="9" glyph-name="nine" horiz-adv-x="598" d="M258 274Q103 274 103 439Q103 466 109 493L122 574Q136 665 189 699T338 733H476Q543 733 581 693T632 558Q635 529 635 472T620 323T586 176T546 89T497 38T445 11Q385 -8 287 -8T61 20L84 168H303Q369
168 389 206Q400 226 404 243T415 295Q386 281 356 278T258 274ZM301 493Q297 474 297 464T299 450Q304 438 330 438H437Q443 477 443 502T437 538Q425 559 375 559H354Q329 559 319 550T304 513L301 493Z" />
<glyph unicode=":" glyph-name="colon" horiz-adv-x="257" d="M98 165H211Q233 165 233 147Q233 144 232 140L213 23Q209 0 185 0H72Q48 0 51 23L70 140Q73 165 98 165ZM131 531T156 531H269Q290 531 290 514Q290 510 289 506L271 389Q267 366 243 366H130Q106
366 109 389L128 506Q131 531 156 531Z" />
<glyph unicode=";" glyph-name="semicolon" horiz-adv-x="257" d="M73 0Q51 0 51 19Q51 22 52 25L70 139Q74 166 99 166H210Q231 166 231 146Q231 143 230 139L206 -11Q200 -46 181 -66T140 -92T106 -97Q72 -97 54 -92L39 -88L49 -26Q74 -26 80 -16Q81 -13 84
0H73ZM156 531H269Q291 531 291 513Q291 510 290 506L272 389Q268 366 243 366H130Q110 366 110 384Q110 386 110 389L128 506Q131 531 156 531Z" />
<glyph unicode="&lt;" glyph-name="less" horiz-adv-x="431" d="M70 266L97 436L493 566L466 396L274 348L450 300L423 130L70 266Z" />
<glyph unicode="=" glyph-name="equal" horiz-adv-x="467" d="M45 162L69 316H496L472 162H45ZM80 381L104 535H531L507 381H80Z" />
<glyph unicode="&gt;" glyph-name="greater" horiz-adv-x="430" d="M48 130L75 300L268 362L90 396L117 566L471 436L445 266L48 130Z" />
<glyph unicode="?" glyph-name="question" horiz-adv-x="545" d="M409 515Q409 564 331 564H100L123 709Q245 740 369 740Q389 740 410 739Q517 739 568 672Q610 619 610 556Q610 540 607 524L598 453Q585 351 533 314T374 276Q363 276 352 276L340 195H195L230
417H322Q361 419 380 434T406 487L408 502Q409 509 409 515ZM204 165H317Q339 165 339 147Q339 144 338 140L319 23Q315 0 291 0H178Q154 0 157 23L176 140Q179 165 204 165Z" />
<glyph unicode="@" glyph-name="at" horiz-adv-x="920" d="M409 739H764Q949 739 949 541Q949 505 943 461L898 157Q886 73 839 38T686 3H562L538 53Q500 -4 428 -4Q332 -4 290 78Q264 131 264 208Q264 247 273 309T308 425T368 503T438 537T537 546T653 531T742
477L695 147Q731 147 742 161T762 237L798 481Q802 505 802 530T790 571Q773 594 718 594H376Q308 594 284 558Q263 529 256 481L186 39Q184 26 184 6T196 -32Q214 -55 274 -55H660L641 -172Q506 -199 349 -199H261Q35 -199 35 -4Q35 25 40 59L113 521Q135 657
215 700Q256 723 300 731T409 739ZM466 403T446 375T418 290T409 218T410 183T425 152T460 140Q552 140 558 210L587 398Q551 403 509 403Z" />
<glyph unicode="A" glyph-name="A" horiz-adv-x="711" d="M25 0L370 732H599L705 0H506L485 128H297L240 0H25ZM367 293H472L449 489L367 293Z" />
<glyph unicode="B" glyph-name="B" horiz-adv-x="601" d="M469 732Q581 732 627 672Q661 627 661 561Q661 475 614 423Q578 384 526 380Q580 371 608 320Q629 282 629 232Q629 178 613 130T578 61T541 27T489 8Q438 0 358 0H45L161 732H469ZM374 164Q401 164 414
182Q436 210 436 258T396 306H287L265 164H374ZM411 460Q433 460 447 474Q466 494 466 528Q466 568 428 568H329L312 460H411Z" />
<glyph unicode="C" glyph-name="C" horiz-adv-x="566" d="M400 740Q504 740 549 733T658 700L634 549Q622 551 612 552L587 556Q517 566 464 566H404Q369 566 360 559T339 543T322 519T308 484Q295 449 283 374T271 261T278 206Q295 168 370 168Q474 168 547 174L575
177L551 26Q500 6 451 0T354 -6T282 -6Q76 -3 76 258Q76 321 88 399Q116 580 185 660T400 740Z" />
<glyph unicode="D" glyph-name="D" horiz-adv-x="646" d="M477 732Q685 732 685 468Q685 408 672 319T635 163T573 62T490 13T378 0H45L161 732H477ZM369 164Q416 164 440 209T481 364Q493 428 493 456Q493 536 470 556Q455 568 423 568H329L265 164H369Z" />
<glyph unicode="E" glyph-name="E" horiz-adv-x="555" d="M340 732Q529 732 644 716L618 553H371Q325 553 315 518Q313 511 311 497L305 457L551 446L525 285L276 276L268 228Q262 189 282 182Q297 176 322 176H559L533 14Q430 1 284 -2L233 -3Q229 -3 213 -3T170
3Q61 27 61 135Q61 153 64 173L127 572Q143 674 210 706Q263 732 340 732Z" />
<glyph unicode="F" glyph-name="F" horiz-adv-x="557" d="M342 732Q531 732 646 716L621 553H374Q326 553 317 518Q315 510 313 497L306 453L553 442L528 281L277 272L234 0H40L127 552Q143 655 210 696Q269 732 342 732Z" />
<glyph unicode="G" glyph-name="G" horiz-adv-x="618" d="M221 704T271 722T417 740T554 735T693 701L669 554Q668 554 655 556T618 562T567 568Q492 576 427 576T334 535T287 368Q272 279 272 256T272 219T282 194T307 179T350 173T397 184T423 208L429 219L441
294H392L411 414Q462 439 590 439Q622 439 658 436L588 0H451L404 49Q377 20 353 10Q318 -6 255 -6T148 26Q74 80 74 243Q74 318 92 410T131 561T186 661Z" />
<glyph unicode="H" glyph-name="H" horiz-adv-x="636" d="M45 0L161 732H355L309 441H479L525 732H719L603 0H409L451 267H281L239 0H45Z" />
<glyph unicode="I" glyph-name="I" horiz-adv-x="282" d="M45 0L161 732H355L239 0H45Z" />
<glyph unicode="J" glyph-name="J" horiz-adv-x="354" d="M23 25L47 179Q139 179 156 215Q164 232 171 276L243 732H437L347 165Q330 53 270 18Q231 -4 148 -4T23 25Z" />
<glyph unicode="K" glyph-name="K" horiz-adv-x="660" d="M45 0L161 732H345L299 444H329L524 732H757L498 349L641 0H423L323 280H274L230 0H45Z" />
<glyph unicode="L" glyph-name="L" horiz-adv-x="525" d="M328 174H534L506 0H210Q136 0 96 38Q66 67 66 119Q66 136 69 156L160 732H354L274 226Q268 187 288 180Q303 174 328 174Z" />
<glyph unicode="M" glyph-name="M" horiz-adv-x="849" d="M31 0L225 732H495L492 321L618 732H893L856 0H665L685 399L559 0H332L331 399L227 0H31Z" />
<glyph unicode="N" glyph-name="N" horiz-adv-x="677" d="M45 0L161 732H357L507 353L566 732H760L644 0H450L298 369L240 0H45Z" />
<glyph unicode="O" glyph-name="O" horiz-adv-x="666" d="M359 734T385 735T453 737T527 733T589 718T642 687Q712 626 712 479Q712 415 701 342T673 216T638 127T593 67T542 28T480 7Q422 -4 360 -4T266 0T203 15T150 44Q81 104 81 241Q81 305 93 381T123 513T159
606T207 668T259 707T321 727ZM335 536T319 494T289 372T276 258T282 208Q295 170 363 170T459 208T506 361Q519 427 519 454Q519 530 498 546T429 563T359 550Z" />
<glyph unicode="P" glyph-name="P" horiz-adv-x="600" d="M466 732Q551 732 610 678Q660 634 660 536Q660 452 632 378Q617 341 602 318T562 279T520 256Q494 245 438 245Q386 245 336 255T280 268L238 0H44L160 732H466ZM395 412Q446 412 459 492Q461 506 461
518Q461 567 420 567H328L303 412H395Z" />
<glyph unicode="Q" glyph-name="Q" horiz-adv-x="666" d="M381 736T400 736T457 737T527 733T589 717T642 686Q712 623 712 475Q712 410 701 337T673 211T638 124T593 64T542 27T480 7Q430 -2 364 -3T266 0T203 16T150 47Q81 106 81 246Q81 367 116 493Q142 590
175 633Q195 659 211 676T254 705T299 723T349 733ZM335 536T319 494T289 372T276 258T282 208Q295 170 363 170T459 208T506 361Q519 427 519 454Q519 530 498 546T429 563T359 550ZM382 -33Q380 -76 434 -78Q442 -78 455 -78Q484 -78 535 -68L513 -208Q487 -213
464 -213T408 -208T341 -184T292 -133T277 -75T280 -33H382Z" />
<glyph unicode="R" glyph-name="R" horiz-adv-x="599" d="M467 732Q570 732 622 668Q660 621 660 541Q660 458 632 386Q618 349 604 330T570 298Q543 281 511 277L613 0H392L317 269L281 273L238 0H44L160 732H467ZM392 419Q428 419 440 436T456 482T461 526Q461
567 416 567H329L305 419H392Z" />
<glyph unicode="S" glyph-name="S" horiz-adv-x="586" d="M335 166Q367 166 382 175T401 207L403 223Q404 230 404 239Q404 267 357 267H287Q195 267 154 314Q115 360 110 407Q108 434 108 451T110 484L121 568Q138 686 228 718Q285 739 396 739Q560 739 647 705L623
554Q533 564 394 564Q350 564 334 557T313 520L311 509Q310 501 310 491T318 471T364 461H438Q492 461 528 439T578 385Q602 330 602 282Q602 265 598 249L596 186Q594 132 576 94T535 37T475 7T413 -6T308 -8T180 -3T64 26L88 177Q195 166 335 166Z" />
<glyph unicode="T" glyph-name="T" horiz-adv-x="597" d="M108 558L136 732H704L676 558H486L398 0H204L292 558H108Z" />
<glyph unicode="U" glyph-name="U" horiz-adv-x="652" d="M419 -5H388Q374 -5 358 -5T322 -5T280 -4T231 3T184 20T144 48Q108 76 92 154Q85 185 85 209T85 261T96 350L158 732H352L287 320Q278 258 278 233Q278 169 360 169Q392 169 413 178T446 212Q465 249
475 320L540 732H735L675 290Q648 120 568 47Q544 25 518 16Q462 -5 419 -5Z" />
<glyph unicode="V" glyph-name="V" horiz-adv-x="699" d="M130 732H334L373 238L576 732H790L455 0H221L130 732Z" />
<glyph unicode="W" glyph-name="W" horiz-adv-x="1017" d="M130 732H334L375 248L546 732H750L686 570L730 248L906 732H1110L815 0H589L554 241L462 0H221L130 732Z" />
<glyph unicode="X" glyph-name="X" horiz-adv-x="679" d="M28 0L294 383L141 732H356L429 529L566 732H781L509 343L660 0H445L375 196L243 0H28Z" />
<glyph unicode="Y" glyph-name="Y" horiz-adv-x="679" d="M130 732H341L389 408L551 732H770L455 200L423 0H229L261 200L130 732Z" />
<glyph unicode="Z" glyph-name="Z" horiz-adv-x="552" d="M20 0L48 174L389 558H108L136 732H649L621 558L299 174H561L533 0H20Z" />
<glyph unicode="[" glyph-name="bracketleft" horiz-adv-x="345" d="M241 -66Q241 -116 291 -116H326L302 -270H206Q161 -270 128 -254T78 -212Q44 -158 44 -95Q44 -66 50 -19L153 606Q169 704 222 743T388 782H468L444 628H414Q384 628 366 611T340 550L244 -38Q241
-54 241 -66Z" />
<glyph unicode="\" glyph-name="backslash" horiz-adv-x="497" d="M132 770H328L476 -72H280L132 770Z" />
<glyph unicode="]" glyph-name="bracketright" horiz-adv-x="339" d="M32 -116Q62 -116 81 -99T107 -38L200 550Q202 563 202 574Q202 628 150 628H120L145 782H229Q328 782 368 718Q399 670 399 599Q399 575 395 548L305 -93Q294 -176 245 -223T78 -270H-22L2 -116H32Z" />
<glyph unicode="^" glyph-name="asciicircum" horiz-adv-x="378" d="M112 531L234 671H365L434 531H323L292 582L244 531H112Z" />
<glyph unicode="_" glyph-name="underscore" horiz-adv-x="673" d="M29 -1L53 153H687L663 -1H29Z" />
<glyph unicode="`" glyph-name="grave" horiz-adv-x="243" d="M117 674H262L316 531H207L117 674Z" />
<glyph unicode="a" glyph-name="a" horiz-adv-x="546" d="M338 541Q525 541 590 479L520 2H367L337 52Q306 -5 197 -5Q120 -5 79 82Q56 132 56 191T67 304T94 394T124 454T162 495T202 521T248 534Q286 541 338 541ZM289 377T277 353T259 284T252 221T252 187T262
161T290 150Q350 150 355 202L382 392Q373 400 359 400T328 396T300 385Z" />
<glyph unicode="b" glyph-name="b" horiz-adv-x="559" d="M445 539Q586 539 586 371Q586 307 575 230T545 106T499 36T439 3T363 -6T292 7T237 49L200 0H34L158 785H352L309 509Q371 539 445 539ZM318 151Q342 151 355 174T379 258T389 335T388 367T380 392T357
400Q306 400 290 385L256 173Q265 151 318 151Z" />
<glyph unicode="c" glyph-name="c" horiz-adv-x="489" d="M287 541Q449 541 540 505L522 391Q463 397 404 397T330 395T302 379T279 340Q263 288 259 246T255 195T257 175T263 156T279 144Q294 139 334 139Q415 139 472 145L491 147L473 33Q420 9 368 2T269 -5T202
-5Q123 -4 84 72Q61 118 61 178T71 305T103 421T153 497T214 531T287 541Z" />
<glyph unicode="d" glyph-name="d" horiz-adv-x="549" d="M285 539Q360 539 412 509L456 785H650L526 0H360L338 49Q300 21 270 8T199 -6Q112 -6 78 80Q58 129 58 187T69 303Q91 426 137 482T285 539ZM306 400T292 376T268 292T257 215T258 182T267 159T290 151Q341
151 358 173L392 385Q381 400 329 400Q306 400 292 376Z" />
<glyph unicode="e" glyph-name="e" horiz-adv-x="529" d="M345 541Q567 541 567 392Q567 328 546 283T492 218Q430 178 364 178H352Q280 182 256 192Q255 184 255 178Q255 157 270 148T361 139T531 158L507 22Q406 -11 290 -11Q250 -11 208 -7Q114 1 79 86Q59
134 59 194T71 318Q95 445 149 492T345 541ZM271 316Q287 311 303 311T330 313T352 325Q368 339 368 366Q368 397 334 397Q302 397 290 377T271 316Z" />
<glyph unicode="f" glyph-name="f" horiz-adv-x="406" d="M196 717T246 751T384 786T516 762L498 651L425 652Q423 652 421 652Q392 652 384 639T372 604T368 580Q366 575 366 570L360 531H458L437 397H339L276 0H82L145 397H73L92 514L166 531L182 630Q196 717 246 751Z" />
<glyph unicode="g" glyph-name="g" horiz-adv-x="560" d="M223 -119Q308 -119 323 -24L334 44Q299 6 231 6Q121 6 84 84Q62 131 62 192T72 313Q93 446 153 494T306 543T483 533T604 507L515 -54Q486 -235 350 -267Q317 -275 286 -275T229 -272L5 -248L25 -119H223ZM279
351T276 336T264 276T256 208T258 176Q264 146 299 146T353 165L392 409H345Q304 409 288 371Q279 351 276 336Z" />
<glyph unicode="h" glyph-name="h" horiz-adv-x="555" d="M390 367Q390 396 364 396Q307 396 285 359L228 0H34L158 782H351L303 479Q325 497 341 508T390 530T460 540Q525 540 556 513Q589 485 589 438T582 340L528 0H334L388 344Q390 358 390 367Z" />
<glyph unicode="i" glyph-name="i" horiz-adv-x="252" d="M29 0L113 531H307L223 0H29ZM170 746H320Q339 746 339 728Q339 725 338 721L320 604Q317 581 294 581H144Q124 581 124 599Q124 601 124 604L142 721Q145 746 170 746Z" />
<glyph unicode="j" glyph-name="j" horiz-adv-x="265" d="M-6 -270L121 531H315L230 -4Q222 -59 214 -96T188 -183T142 -270H-6ZM177 746H327Q347 746 347 728Q347 725 346 721L327 604Q324 581 301 581H151Q127 581 130 604L149 721Q152 746 177 746Z" />
<glyph unicode="k" glyph-name="k" horiz-adv-x="564" d="M34 0L158 782H352L284 356Q391 402 434 531H637Q609 429 568 375T474 288L605 0H395L302 224L264 223L228 0H34Z" />
<glyph unicode="l" glyph-name="l" horiz-adv-x="322" d="M262 229Q259 200 259 184T262 157T284 134Q322 113 329 113L311 0H203Q125 0 85 45Q56 77 56 137Q56 161 61 189L155 783H349L262 229Z" />
<glyph unicode="m" glyph-name="m" horiz-adv-x="857" d="M390 367Q390 396 364 396Q307 396 285 359L228 0H34L118 531H280L304 479Q333 501 347 510T391 530T460 540Q556 540 580 479Q613 498 633 508T689 529T762 540Q827 540 858 513Q891 485 891 438T884
340L830 0H636L691 344Q693 358 693 367Q693 396 666 396Q609 396 586 366Q586 360 582 340L528 0H334L388 344Q390 358 390 367Z" />
<glyph unicode="n" glyph-name="n" horiz-adv-x="555" d="M390 367Q390 396 364 396Q307 396 285 359L228 0H34L118 531H280L304 479Q329 499 344 509T391 530T460 540Q525 540 556 513Q589 485 589 438T582 340L528 0H334L388 344Q390 358 390 367Z" />
<glyph unicode="o" glyph-name="o" horiz-adv-x="553" d="M361 539Q498 539 544 466Q575 419 575 335Q575 289 565 224T535 113T480 41T397 5T275 -5Q139 -5 92 66Q60 113 60 195Q60 235 70 300T101 415T159 492T241 529T361 539ZM299 395T289 377T266 283T253
186T254 159Q260 139 299 139T348 156T371 248T384 343T383 370Q378 395 339 395Z" />
<glyph unicode="p" glyph-name="p" horiz-adv-x="555" d="M155 517T241 527T417 537T550 460Q579 410 579 331Q579 288 571 238Q549 96 495 43T324 -10Q256 -10 233 29L186 -270H-8L114 501Q155 517 241 527ZM252 149Q265 130 300 130T349 158T378 275Q386 306
386 327T384 362Q379 403 340 403H293L252 149Z" />
<glyph unicode="q" glyph-name="q" horiz-adv-x="554" d="M92 439T152 490T305 541T481 531T601 505L479 -270H285L332 29Q296 -10 229 -10Q119 -10 82 68Q60 116 60 177T70 298Q92 439 152 490ZM269 301T262 258T254 192T256 160Q262 130 297 130T351 149L391
407H344Q313 407 294 378Q281 359 275 330Z" />
<glyph unicode="r" glyph-name="r" horiz-adv-x="410" d="M320 493T355 514T424 536T474 531L445 345H366Q302 345 286 320Q277 306 273 285L228 0H34L118 531H290L301 464Q320 493 355 514Z" />
<glyph unicode="s" glyph-name="s" horiz-adv-x="510" d="M298 146Q317 146 320 163Q325 186 304 186H209Q138 186 100 234Q72 269 72 322Q72 339 75 358L83 404Q104 536 245 536Q433 536 480 528T540 500L522 386H299Q284 386 280 382Q276 378 274 367T273 353T278
348Q284 346 293 346H393Q471 346 501 298Q523 262 523 217Q523 200 520 182L511 123Q491 -5 357 -5Q345 -5 302 -5T226 -5T150 -1Q70 4 49 32L67 146H298Z" />
<glyph unicode="t" glyph-name="t" horiz-adv-x="375" d="M306 230Q303 200 303 183T306 155T327 133Q366 112 373 112L355 -1H235Q168 -1 130 46Q102 79 102 139Q102 163 106 190L139 398H64L79 494L160 532L212 680H378L354 532H443L422 398H333L306 230Z" />
<glyph unicode="u" glyph-name="u" horiz-adv-x="554" d="M249 164Q249 135 276 135Q333 135 355 172L412 531H606L521 0H359L336 52Q301 19 269 5T176 -9T84 18Q51 46 51 93T58 191L112 531H306L251 187Q249 173 249 164Z" />
<glyph unicode="v" glyph-name="v" horiz-adv-x="551" d="M605 497Q605 421 555 325L391 0H157L75 531H281L301 209L379 395Q411 460 416 533H602Q605 516 605 497Z" />
<glyph unicode="w" glyph-name="w" horiz-adv-x="853" d="M604 500Q604 448 582 386L576 370L604 209L682 395Q714 460 719 533H905Q908 516 908 497Q908 421 858 325L694 0H472L449 142L391 0H157L75 531H281L301 209L379 395Q411 460 416 533H602Q604 517 604 500Z" />
<glyph unicode="x" glyph-name="x" horiz-adv-x="613" d="M14 0L232 280L98 531H330L370 409L451 531H683L462 243L591 0H367L325 115L246 0H14Z" />
<glyph unicode="y" glyph-name="y" horiz-adv-x="575" d="M623 491Q623 418 584 324L454 0Q337 -274 99 -302Q91 -303 87 -304V-168Q156 -136 195 -98T264 0Q110 0 100 156L76 531H277L285 195Q286 158 322 156L408 394Q428 449 434 532H620Q623 512 623 491Z" />
<glyph unicode="z" glyph-name="z" horiz-adv-x="488" d="M32 1L56 153L289 377H77L101 531H557L533 377L316 155H497L473 1H32Z" />
<glyph unicode="{" glyph-name="braceleft" horiz-adv-x="321" d="M301 189Q301 180 300 171L268 -28Q261 -61 261 -77T263 -102Q268 -126 300 -126L277 -270Q150 -270 101 -218Q64 -179 64 -113Q64 -92 68 -68L103 152Q104 158 104 169T94 193T59 205Q56 205
52 205L74 342Q134 347 142 395L179 626Q193 714 254 748T443 782L419 628Q388 628 377 607T355 516L334 380Q325 327 295 303T212 274Q301 255 301 189Z" />
<glyph unicode="|" glyph-name="bar" horiz-adv-x="250" d="M36 -72L169 770H323L190 -72H36Z" />
<glyph unicode="}" glyph-name="braceright" horiz-adv-x="322" d="M124 352Q124 365 127 380L148 516Q156 564 156 582T155 606Q150 628 120 628L145 782Q262 782 310 722Q346 677 346 611Q346 590 342 567L323 395Q323 391 323 388Q323 347 375 342L353 205Q349
205 346 205Q295 205 286 152L242 -108Q225 -205 169 -237T-22 -270L1 -126Q33 -126 43 -105T63 -28L95 171Q108 253 215 274Q164 278 144 299T124 352Z" />
<glyph unicode="~" glyph-name="asciitilde" horiz-adv-x="403" d="M257 672Q280 672 309 655T357 637Q360 637 364 637Q412 637 457 677L471 603Q412 531 347 531Q325 531 291 548T237 566Q189 566 138 531L122 598Q186 672 257 672Z" />
<glyph unicode="&#xa1;" glyph-name="exclamdown" horiz-adv-x="281" d="M4 -270L109 265H256L190 -270H4ZM246 296H130Q109 296 109 316Q109 319 110 323L128 438Q131 459 156 461H270Q279 460 285 453T290 435L272 323Q268 296 246 296Z" />
<glyph unicode="&#xa2;" glyph-name="cent" horiz-adv-x="483" d="M516 386Q457 392 402 392T338 392T315 388T295 377T280 355Q261 322 250 212Q249 204 249 195T251 175T257 156T273 144Q288 139 328 139Q409 139 466 145L485 147L467 33Q405 -6 299 -6L285
-95H177L192 -5Q115 -3 78 73Q55 120 55 180T65 305T96 420T147 494T207 527T281 536L297 634H405L389 534Q472 527 534 500L516 386Z" />
<glyph unicode="&#xa3;" glyph-name="sterling" horiz-adv-x="572" d="M626 720L657 716L633 559H449Q403 559 386 547T361 487L351 422L529 405L513 300H332L312 174H571L543 0H28L52 149L118 174L138 300H76L91 395L157 422L169 495Q188 613 228 658Q250 683
272 698T332 721Q392 732 463 732T626 720Z" />
<glyph unicode="&#xa4;" glyph-name="currency" horiz-adv-x="436" d="M429 334Q429 269 382 216L421 173L359 112L311 165Q278 151 239 151T165 175L111 126L61 182L119 233Q110 260 110 297T140 381L96 429L160 488L202 441Q246 468 291 468T372 444L425 492L478
439L419 387Q429 362 429 334ZM305 373T279 373T229 352T205 291Q205 279 219 263T259 246T306 264Q333 288 333 321Q333 340 319 356Z" />
<glyph unicode="&#xa5;" glyph-name="yen" horiz-adv-x="662" d="M130 128L146 227H261L265 252H150L166 351H219L126 732H337L382 408L535 732H766L539 351H593L577 252H459L455 227H573L557 128H439L419 0H225L245 128H130Z" />
<glyph unicode="&#xa6;" glyph-name="brokenbar" horiz-adv-x="250" d="M36 -72L88 256H242L190 -72H36ZM115 429L169 770H323L269 429H115Z" />
<glyph unicode="&#xa7;" glyph-name="section" horiz-adv-x="531" d="M480 315Q535 305 535 213Q535 198 533 183L527 140Q513 47 460 16Q418 -8 362 -8Q128 -8 69 11L90 146H304Q320 146 326 150T335 167L337 179Q339 190 333 195T312 200H232Q154 200 117 232T80
315Q80 328 82 343L84 355Q94 421 130 446Q149 459 179 468Q122 498 122 572Q122 590 125 610L128 640Q146 784 304 784Q515 784 585 765L564 630H350Q323 630 320 606Q315 575 343 575H420Q576 575 576 466Q576 454 574 440L572 428Q558 340 480 315ZM284 377Q283
371 283 363Q283 344 315 344H325Q348 344 356 350T368 378L371 396Q372 402 372 409T368 423T338 430H328Q297 430 291 413Q289 407 287 394L284 377Z" />
<glyph unicode="&#xa8;" glyph-name="dieresis" horiz-adv-x="441" d="M169 647T196 647T237 630T252 600Q252 560 227 538T175 516T134 533T119 564Q119 605 144 626ZM424 647T451 647T492 630T507 600Q507 560 482 538T430 516T389 533T374 563Q374 605 399 626Z" />
<glyph unicode="&#xa9;" glyph-name="copyright" horiz-adv-x="791" d="M421 732H621Q831 732 831 475Q831 414 819 338Q790 154 711 77T510 0H310Q171 0 116 107Q79 178 79 279Q79 330 90 398T121 525T180 632Q256 732 421 732ZM194 276Q194 104 323 104H513Q586
104 634 164Q695 240 715 442Q717 461 717 478T716 522T704 571T669 611T606 628H406Q286 628 235 499Q214 446 204 382T194 276ZM384 321Q384 251 447 251Q514 251 596 267L582 175Q534 151 461 148Q437 147 392 147Q325 147 290 203Q267 239 267 289T274 382Q292
496 335 539T452 583Q576 583 636 559L622 467Q539 479 476 479Q435 479 417 456T387 362Q384 339 384 321Z" />
<glyph unicode="&#xaa;" glyph-name="ordfeminine" horiz-adv-x="360" d="M57 258L69 336H404L392 258H57ZM272 734Q402 734 444 693L397 370H295L275 412Q264 388 234 377T172 365Q120 365 92 426Q76 460 76 500T85 583T111 656T144 701T186 724T228 733T272
734ZM206 519Q206 481 233 481Q255 481 270 489T287 512L305 632Q297 638 285 638T257 635T230 618T213 567Q206 541 206 519Z" />
<glyph unicode="&#xab;" glyph-name="guillemotleft" horiz-adv-x="596" d="M84 354L322 557L404 462L267 344L371 224L262 146L84 354ZM320 354L558 557L640 462L503 344L607 224L498 146L320 354Z" />
<glyph unicode="&#xac;" glyph-name="logicalnot" horiz-adv-x="466" d="M505 370L471 159H327L338 226H55L78 370H505Z" />
<glyph unicode="&#xad;" glyph-name="uni00AD" horiz-adv-x="353" d="M53 213L77 367H391L367 213H53Z" />
<glyph unicode="&#xae;" glyph-name="registered" horiz-adv-x="791" d="M421 732H621Q831 732 831 475Q831 414 819 338Q790 154 711 77T510 0H310Q171 0 116 107Q79 178 79 279Q79 330 90 398T121 525T180 632Q256 732 421 732ZM194 276Q194 104 323 104H513Q586
104 634 164Q695 240 715 442Q717 461 717 478T716 522T704 571T669 611T606 628H406Q286 628 235 499Q214 446 204 382T194 276ZM514 580Q629 580 629 478Q629 461 626 442Q617 384 597 354T541 311L600 153H479L426 303L399 315L373 153H259L327 580H514ZM451
399Q489 399 498 405T510 430T513 457T506 471T463 476H424L412 399H451Z" />
<glyph unicode="&#xaf;" glyph-name="overscore" horiz-adv-x="348" d="M112 531L127 624H419L404 531H112Z" />
<glyph unicode="&#xb0;" glyph-name="degree" horiz-adv-x="256" d="M194 731T236 731T304 705T330 642Q330 594 297 565T220 535T151 561T125 622Q125 670 159 700ZM247 668T232 668T205 657T192 631T201 607T225 597T250 607Q263 619 263 634T255 658Z" />
<glyph unicode="&#xb1;" glyph-name="plusminus" horiz-adv-x="480" d="M41 57L65 211H481L457 57H41ZM93 377L117 531H247L268 662H422L401 531H533L509 377H377L356 246H202L223 377H93Z" />
<glyph unicode="&#xb2;" glyph-name="twosuperior" horiz-adv-x="409" d="M484 712Q484 591 332 486H449L428 355H61L81 481Q144 515 236 582T333 678Q334 683 334 688Q334 705 320 711T262 718H114L132 827Q232 849 340 849Q418 849 455 800Q484 763 484 712Z" />
<glyph unicode="&#xb3;" glyph-name="threesuperior" horiz-adv-x="410" d="M227 481Q269 481 281 485T296 505Q300 525 288 529T239 535L131 539L149 658L260 662Q311 664 318 669T326 685V689Q329 705 315 709T268 713H113L130 822Q193 845 322 845Q342 845
363 844Q421 843 449 810T477 735Q477 722 475 708L471 682Q459 607 393 598Q443 585 443 519Q443 502 440 482L436 462Q418 350 280 350Q244 350 218 350T185 350T164 352T141 354T121 356T100 360Q80 365 63 371L81 481H227Z" />
<glyph unicode="&#xb4;" glyph-name="acute" horiz-adv-x="244" d="M95 531L195 674H340L204 531H95Z" />
<glyph unicode="&#xb5;" glyph-name="uni00B5" horiz-adv-x="583" d="M272 164Q272 135 299 135Q356 135 378 172L435 531H629L545 0H383L359 52Q305 16 285 7T244 -6L202 -270H8L135 531H329L274 187Q272 173 272 164Z" />
<glyph unicode="&#xb6;" glyph-name="paragraph" horiz-adv-x="573" d="M290 372Q263 355 234 355Q155 355 123 404Q99 442 99 490Q99 505 101 521L115 614Q126 681 170 706T293 732H678L658 606H619L523 0H399L496 608H452L313 -270H189L290 372ZM228 519Q227
510 227 500T233 485T263 479H307L328 608H284Q255 608 247 600T234 558L228 519Z" />
<glyph unicode="&#xb7;" glyph-name="middot" horiz-adv-x="256" d="M146 470H259Q281 470 281 452Q281 449 280 445L261 328Q257 305 233 305H120Q96 305 99 328L118 445Q121 470 146 470Z" />
<glyph unicode="&#xb8;" glyph-name="cedilla" horiz-adv-x="238" d="M61 -183H0L13 -104L52 -89Q74 -80 78 -73T88 -37H205Q193 -115 161 -149T61 -183Z" />
<glyph unicode="&#xb9;" glyph-name="onesuperior" horiz-adv-x="282" d="M196 700Q178 685 133 685Q127 685 122 686L105 687L120 787Q187 805 219 842H363L286 355H140L196 700Z" />
<glyph unicode="&#xba;" glyph-name="ordmasculine" horiz-adv-x="384" d="M72 258L84 336H419L407 258H72ZM127 667T171 700T310 733T438 685Q460 653 460 596Q460 567 454 531Q439 436 397 405T259 373T130 420Q106 453 106 510Q106 535 111 565Q127 667 171
700ZM251 584T249 571T244 539T241 509T242 492Q247 481 273 481T305 488Q311 495 319 549Q327 588 327 598T326 612Q324 625 295 625Q286 625 281 624T271 623T263 618T258 612T255 601T252 589Z" />
<glyph unicode="&#xbb;" glyph-name="guillemotright" horiz-adv-x="595" d="M66 244L206 368L112 472L214 557L387 354L153 146L66 244ZM302 244L442 368L347 472L449 557L623 354L389 146L302 244Z" />
<glyph unicode="&#xbc;" glyph-name="onequarter" horiz-adv-x="1021" d="M196 600Q178 585 133 585Q127 585 122 586L105 587L120 687Q187 705 219 742H363L286 255H140L196 600ZM208 0L696 770H837L349 0H208ZM597 144L792 486H945L796 213H863L877 300L906
351H1025L1003 213H1043L1025 101L979 80L970 1H830L842 79H620L597 144Z" />
<glyph unicode="&#xbd;" glyph-name="onehalf" horiz-adv-x="1040" d="M196 600Q178 585 133 585Q127 585 122 586L105 587L120 687Q187 705 219 742H363L286 255H140L196 600ZM207 0L695 770H836L348 0H207ZM1075 356Q1075 235 923 130H1040L1019 -1H652L672
125Q735 159 827 226T924 322Q925 327 925 338T912 355T854 362H706L723 471Q823 493 931 493Q1009 493 1046 444Q1075 407 1075 356Z" />
<glyph unicode="&#xbe;" glyph-name="threequarters" horiz-adv-x="1130" d="M227 381Q269 381 281 385T296 405Q300 425 288 429T239 435L131 439L149 558L260 562Q311 564 318 569T326 585V589Q329 605 315 609T268 613H113L130 722Q193 745 322 745Q342 745
363 744Q421 743 449 710T477 635Q477 622 475 608L471 582Q459 507 393 498Q443 485 443 419Q443 402 440 382L436 362Q418 250 280 250Q244 250 218 250T185 250T164 252T141 254T121 256T100 260Q80 265 63 271L81 381H227ZM310 0L798 770H939L451 0H310ZM689
144L885 486H1038L888 213H955L969 300L998 351H1117L1095 213H1135L1118 101L1071 80L1062 1H922L934 79H712L689 144Z" />
<glyph unicode="&#xbf;" glyph-name="questiondown" horiz-adv-x="542" d="M208 -42Q208 -92 287 -92H518L495 -237Q373 -268 249 -268Q229 -268 208 -267Q136 -267 87 -230T23 -151T8 -82T11 -40L19 11Q35 115 87 155T245 196Q255 196 265 196L278 277H423L388
55H296Q257 53 238 38T212 -15L209 -30Q208 -37 208 -42ZM326 472H439Q459 472 459 454Q459 452 459 449L441 332Q438 307 413 307H300Q278 307 278 325Q278 328 279 332L297 449Q301 472 326 472Z" />
<glyph unicode="&#xc0;" glyph-name="Agrave" horiz-adv-x="711" d="M350 940H495L549 797H440L350 940ZM25 0L370 732H599L705 0H506L485 128H297L240 0H25ZM367 293H472L449 489L367 293Z" />
<glyph unicode="&#xc1;" glyph-name="Aacute" horiz-adv-x="711" d="M440 797L540 940H685L549 797H440ZM25 0L370 732H599L705 0H506L485 128H297L240 0H25ZM367 293H472L449 489L367 293Z" />
<glyph unicode="&#xc2;" glyph-name="Acircumflex" horiz-adv-x="711" d="M334 797L456 937H587L656 797H545L514 848L456 797H334ZM25 0L370 732H599L705 0H506L485 128H297L240 0H25ZM367 293H472L449 489L367 293Z" />
<glyph unicode="&#xc3;" glyph-name="Atilde" horiz-adv-x="711" d="M467 938Q489 938 518 921T567 903Q570 903 574 903Q622 903 667 943L681 869Q622 797 557 797Q535 797 501 814T447 832Q399 832 348 797L332 864Q396 938 467 938ZM25 0L370 732H599L705 0H506L485
128H297L240 0H25ZM367 293H472L449 489L367 293Z" />
<glyph unicode="&#xc4;" glyph-name="Adieresis" horiz-adv-x="711" d="M362 928T389 928T430 911T445 881Q445 841 420 819T368 797T327 814T312 844Q312 886 337 907ZM617 928T644 928T685 911T700 881Q700 841 675 819T623 797T582 814T567 845Q567 886 592
907ZM25 0L370 732H599L705 0H506L485 128H297L240 0H25ZM367 293H472L449 489L367 293Z" />
<glyph unicode="&#xc5;" glyph-name="Aring" horiz-adv-x="711" d="M542 930T500 930T425 900T391 820Q391 784 417 757T486 730T561 760T594 840Q594 876 568 903ZM504 797T490 797T467 806T459 830T471 854T496 864T519 854T526 830T514 807ZM25 0L370 732H599L705
0H506L485 128H297L240 0H25ZM367 293H472L449 489L367 293Z" />
<glyph unicode="&#xc6;" glyph-name="AE" horiz-adv-x="1094" d="M560 706Q612 724 651 728T717 733T765 732Q955 732 1069 716L1044 553H797Q749 553 740 518Q738 510 736 497L729 453L976 442L951 281L700 272L693 228Q687 189 706 182Q722 176 747 176H984L958
14Q855 1 712 -2L662 -3Q654 -3 646 -3L614 -2Q514 6 488 68Q480 84 480 99T482 124L489 167H342L232 0H17L375 552Q454 671 560 706ZM446 331H515L539 482L446 331Z" />
<glyph unicode="&#xc7;" glyph-name="Ccedilla" horiz-adv-x="566" d="M400 740Q504 740 549 733T658 700L634 549Q622 551 612 552L587 556Q517 566 464 566H404Q369 566 360 559T339 543T322 519T308 484Q295 449 283 374T271 261T278 206Q295 168 370 168Q474
168 547 174L575 177L551 26Q500 6 451 0T354 -6T282 -6Q76 -3 76 258Q76 321 88 399Q116 580 185 660T400 740ZM226 -182H165L178 -103L217 -88Q239 -79 244 -72T254 -36H371Q359 -114 327 -148T226 -182Z" />
<glyph unicode="&#xc8;" glyph-name="Egrave" horiz-adv-x="555" d="M271 935H416L470 792H361L271 935ZM340 732Q529 732 644 716L618 553H371Q325 553 315 518Q313 511 311 497L305 457L551 446L525 285L276 276L268 228Q262 189 282 182Q297 176 322 176H559L533
14Q430 1 284 -2L233 -3Q229 -3 213 -3T170 3Q61 27 61 135Q61 153 64 173L127 572Q143 674 210 706Q263 732 340 732Z" />
<glyph unicode="&#xc9;" glyph-name="Eacute" horiz-adv-x="555" d="M368 792L468 935H613L477 792H368ZM340 732Q529 732 644 716L618 553H371Q325 553 315 518Q313 511 311 497L305 457L551 446L525 285L276 276L268 228Q262 189 282 182Q297 176 322 176H559L533
14Q430 1 284 -2L233 -3Q229 -3 213 -3T170 3Q61 27 61 135Q61 153 64 173L127 572Q143 674 210 706Q263 732 340 732Z" />
<glyph unicode="&#xca;" glyph-name="Ecircumflex" horiz-adv-x="555" d="M267 792L389 932H520L589 792H478L447 843L399 792H267ZM340 732Q529 732 644 716L618 553H371Q325 553 315 518Q313 511 311 497L305 457L551 446L525 285L276 276L268 228Q262 189 282
182Q297 176 322 176H559L533 14Q430 1 284 -2L233 -3Q229 -3 213 -3T170 3Q61 27 61 135Q61 153 64 173L127 572Q143 674 210 706Q263 732 340 732Z" />
<glyph unicode="&#xcb;" glyph-name="Edieresis" horiz-adv-x="555" d="M280 908T307 908T348 891T363 861Q363 821 338 799T286 777T245 794T230 824Q230 866 255 887ZM535 908T562 908T603 891T618 861Q618 821 593 799T541 777T500 794T485 825Q485 866 510
887ZM340 732Q529 732 644 716L618 553H371Q325 553 315 518Q313 511 311 497L305 457L551 446L525 285L276 276L268 228Q262 189 282 182Q297 176 322 176H559L533 14Q430 1 284 -2L233 -3Q229 -3 213 -3T170 3Q61 27 61 135Q61 153 64 173L127 572Q143 674 210
706Q263 732 340 732Z" />
<glyph unicode="&#xcc;" glyph-name="Igrave" horiz-adv-x="282" d="M124 940H269L323 797H214L124 940ZM45 0L161 732H355L239 0H45Z" />
<glyph unicode="&#xcd;" glyph-name="Iacute" horiz-adv-x="282" d="M214 797L314 940H459L323 797H214ZM45 0L161 732H355L239 0H45Z" />
<glyph unicode="&#xce;" glyph-name="Icircumflex" horiz-adv-x="282" d="M107 797L229 937H360L429 797H318L287 848L229 797H107ZM45 0L161 732H355L239 0H45Z" />
<glyph unicode="&#xcf;" glyph-name="Idieresis" horiz-adv-x="282" d="M135 928T162 928T203 911T218 881Q218 841 193 819T141 797T100 814T85 844Q85 886 110 907ZM390 928T417 928T458 911T473 881Q473 841 448 819T396 797T355 814T340 844Q340 886 365 907ZM45
0L161 732H355L239 0H45Z" />
<glyph unicode="&#xd0;" glyph-name="Eth" horiz-adv-x="640" d="M484 732Q556 732 602 699T666 610Q686 544 686 471T674 333Q644 144 580 72T388 0H45L98 336H33L45 410H110L161 732H484ZM374 164Q416 164 439 210T480 364Q493 434 493 461Q493 537 479 552T438
568H329L304 410H393L381 336H292L265 164H374Z" />
<glyph unicode="&#xd1;" glyph-name="Ntilde" horiz-adv-x="677" d="M443 938Q466 938 495 921T543 903Q546 903 550 903Q598 903 643 943L657 869Q598 797 533 797Q511 797 477 814T423 832Q375 832 324 797L308 864Q372 938 443 938ZM45 0L161 732H357L507 353L566
732H760L644 0H450L298 369L240 0H45Z" />
<glyph unicode="&#xd2;" glyph-name="Ograve" horiz-adv-x="666" d="M321 940H466L520 797H411L321 940ZM359 734T385 735T453 737T527 733T589 718T642 687Q712 626 712 479Q712 415 701 342T673 216T638 127T593 67T542 28T480 7Q422 -4 360 -4T266 0T203 15T150
44Q81 104 81 241Q81 305 93 381T123 513T159 606T207 668T259 707T321 727ZM335 536T319 494T289 372T276 258T282 208Q295 170 363 170T459 208T506 361Q519 427 519 454Q519 530 498 546T429 563T359 550Z" />
<glyph unicode="&#xd3;" glyph-name="Oacute" horiz-adv-x="666" d="M411 797L511 940H656L520 797H411ZM359 734T385 735T453 737T527 733T589 718T642 687Q712 626 712 479Q712 415 701 342T673 216T638 127T593 67T542 28T480 7Q422 -4 360 -4T266 0T203 15T150
44Q81 104 81 241Q81 305 93 381T123 513T159 606T207 668T259 707T321 727ZM335 536T319 494T289 372T276 258T282 208Q295 170 363 170T459 208T506 361Q519 427 519 454Q519 530 498 546T429 563T359 550Z" />
<glyph unicode="&#xd4;" glyph-name="Ocircumflex" horiz-adv-x="666" d="M305 797L427 937H558L627 797H516L485 848L427 797H305ZM359 734T385 735T453 737T527 733T589 718T642 687Q712 626 712 479Q712 415 701 342T673 216T638 127T593 67T542 28T480 7Q422
-4 360 -4T266 0T203 15T150 44Q81 104 81 241Q81 305 93 381T123 513T159 606T207 668T259 707T321 727ZM335 536T319 494T289 372T276 258T282 208Q295 170 363 170T459 208T506 361Q519 427 519 454Q519 530 498 546T429 563T359 550Z" />
<glyph unicode="&#xd5;" glyph-name="Otilde" horiz-adv-x="666" d="M437 938Q460 938 489 921T537 903Q540 903 544 903Q592 903 637 943L651 869Q592 797 527 797Q505 797 471 814T417 832Q369 832 318 797L302 864Q366 938 437 938ZM359 734T385 735T453 737T527
733T589 718T642 687Q712 626 712 479Q712 415 701 342T673 216T638 127T593 67T542 28T480 7Q422 -4 360 -4T266 0T203 15T150 44Q81 104 81 241Q81 305 93 381T123 513T159 606T207 668T259 707T321 727ZM335 536T319 494T289 372T276 258T282 208Q295 170 363
170T459 208T506 361Q519 427 519 454Q519 530 498 546T429 563T359 550Z" />
<glyph unicode="&#xd6;" glyph-name="Odieresis" horiz-adv-x="666" d="M333 928T360 928T401 911T416 881Q416 841 391 819T339 797T298 814T283 845Q283 886 308 907ZM588 928T615 928T656 911T671 881Q671 841 646 819T594 797T553 814T538 844Q538 886 563
907ZM359 734T385 735T453 737T527 733T589 718T642 687Q712 626 712 479Q712 415 701 342T673 216T638 127T593 67T542 28T480 7Q422 -4 360 -4T266 0T203 15T150 44Q81 104 81 241Q81 305 93 381T123 513T159 606T207 668T259 707T321 727ZM335 536T319 494T289
372T276 258T282 208Q295 170 363 170T459 208T506 361Q519 427 519 454Q519 530 498 546T429 563T359 550Z" />
<glyph unicode="&#xd7;" glyph-name="multiply" horiz-adv-x="464" d="M73 263L179 355L102 448L221 554L299 461L414 558L505 449L388 349L466 257L349 160L274 247L167 149L73 263Z" />
<glyph unicode="&#xd8;" glyph-name="Oslash" horiz-adv-x="666" d="M103 93Q80 143 80 225T94 399T137 558T194 661T273 713T357 734T456 737Q581 737 635 701L662 732H748L680 654Q712 601 712 485Q712 416 700 340T672 211T637 124T592 64T540 26T478 6Q425
-4 338 -4Q195 -4 142 40L107 0H21L103 93ZM498 545Q480 563 431 563T358 550T318 494T290 377T277 293L498 545ZM284 202Q300 170 365 170T458 207T501 341T517 469L284 202Z" />
<glyph unicode="&#xd9;" glyph-name="Ugrave" horiz-adv-x="652" d="M312 940H457L511 797H402L312 940ZM419 -5H388Q374 -5 358 -5T322 -5T280 -4T231 3T184 20T144 48Q108 76 92 154Q85 185 85 209T85 261T96 350L158 732H352L287 320Q278 258 278 233Q278 169
360 169Q392 169 413 178T446 212Q465 249 475 320L540 732H735L675 290Q648 120 568 47Q544 25 518 16Q462 -5 419 -5Z" />
<glyph unicode="&#xda;" glyph-name="Uacute" horiz-adv-x="652" d="M402 797L502 940H647L511 797H402ZM419 -5H388Q374 -5 358 -5T322 -5T280 -4T231 3T184 20T144 48Q108 76 92 154Q85 185 85 209T85 261T96 350L158 732H352L287 320Q278 258 278 233Q278 169
360 169Q392 169 413 178T446 212Q465 249 475 320L540 732H735L675 290Q648 120 568 47Q544 25 518 16Q462 -5 419 -5Z" />
<glyph unicode="&#xdb;" glyph-name="Ucircumflex" horiz-adv-x="652" d="M296 797L418 937H549L618 797H507L476 848L418 797H296ZM419 -5H388Q374 -5 358 -5T322 -5T280 -4T231 3T184 20T144 48Q108 76 92 154Q85 185 85 209T85 261T96 350L158 732H352L287
320Q278 258 278 233Q278 169 360 169Q392 169 413 178T446 212Q465 249 475 320L540 732H735L675 290Q648 120 568 47Q544 25 518 16Q462 -5 419 -5Z" />
<glyph unicode="&#xdc;" glyph-name="Udieresis" horiz-adv-x="652" d="M324 928T351 928T392 911T407 881Q407 841 382 819T330 797T289 814T274 844Q274 886 299 907ZM579 928T606 928T647 911T662 881Q662 841 637 819T585 797T544 814T529 845Q529 886 554
907ZM419 -5H388Q374 -5 358 -5T322 -5T280 -4T231 3T184 20T144 48Q108 76 92 154Q85 185 85 209T85 261T96 350L158 732H352L287 320Q278 258 278 233Q278 169 360 169Q392 169 413 178T446 212Q465 249 475 320L540 732H735L675 290Q648 120 568 47Q544 25 518
16Q462 -5 419 -5Z" />
<glyph unicode="&#xdd;" glyph-name="Yacute" horiz-adv-x="679" d="M406 797L506 940H651L515 797H406ZM130 732H341L389 408L551 732H770L455 200L423 0H229L261 200L130 732Z" />
<glyph unicode="&#xde;" glyph-name="Thorn" horiz-adv-x="538" d="M34 0Q34 0 149 729H343L321 588H428Q494 588 539 542Q574 507 574 427Q574 398 568 351T542 262T504 200T455 167T407 152Q376 148 345 148T298 150T255 168L228 0H34ZM305 313Q345 313 356
322T372 357T377 392T372 411T357 422T322 424H295L278 313H305Z" />
<glyph unicode="&#xdf;" glyph-name="germandbls" horiz-adv-x="574" d="M411 784Q511 784 570 748T640 656Q645 634 645 605T630 526T569 422Q557 408 529 386T500 348T514 316T549 284T581 242T593 198T591 169L588 152Q573 62 520 27T391 -8T260 11L280 142Q326
136 342 136Q392 136 399 184Q403 205 394 219T370 244T342 269Q316 295 316 334Q316 370 332 399T361 441T406 482Q445 515 445 570Q445 590 435 601T388 613T333 585T303 476L228 0H34L124 566Q139 662 209 723T411 784Z" />
<glyph unicode="&#xe0;" glyph-name="agrave" horiz-adv-x="546" d="M202 744H347L401 601H292L202 744ZM338 541Q525 541 590 479L520 2H367L337 52Q306 -5 197 -5Q120 -5 79 82Q56 132 56 191T67 304T94 394T124 454T162 495T202 521T248 534Q286 541 338 541ZM289
377T277 353T259 284T252 221T252 187T262 161T290 150Q350 150 355 202L382 392Q373 400 359 400T328 396T300 385Z" />
<glyph unicode="&#xe1;" glyph-name="aacute" horiz-adv-x="546" d="M297 601L397 744H542L406 601H297ZM338 541Q525 541 590 479L520 2H367L337 52Q306 -5 197 -5Q120 -5 79 82Q56 132 56 191T67 304T94 394T124 454T162 495T202 521T248 534Q286 541 338 541ZM289
377T277 353T259 284T252 221T252 187T262 161T290 150Q350 150 355 202L382 392Q373 400 359 400T328 396T300 385Z" />
<glyph unicode="&#xe2;" glyph-name="acircumflex" horiz-adv-x="546" d="M196 601L318 741H449L518 601H407L376 652L318 601H196ZM338 541Q525 541 590 479L520 2H367L337 52Q306 -5 197 -5Q120 -5 79 82Q56 132 56 191T67 304T94 394T124 454T162 495T202 521T248
534Q286 541 338 541ZM289 377T277 353T259 284T252 221T252 187T262 161T290 150Q350 150 355 202L382 392Q373 400 359 400T328 396T300 385Z" />
<glyph unicode="&#xe3;" glyph-name="atilde" horiz-adv-x="546" d="M325 742Q348 742 377 725T425 707Q428 707 432 707Q480 707 525 747L539 673Q480 601 415 601Q393 601 359 618T305 636Q257 636 206 601L190 668Q254 742 325 742ZM338 541Q525 541 590 479L520
2H367L337 52Q306 -5 197 -5Q120 -5 79 82Q56 132 56 191T67 304T94 394T124 454T162 495T202 521T248 534Q286 541 338 541ZM289 377T277 353T259 284T252 221T252 187T262 161T290 150Q350 150 355 202L382 392Q373 400 359 400T328 396T300 385Z" />
<glyph unicode="&#xe4;" glyph-name="adieresis" horiz-adv-x="546" d="M221 732T248 732T289 715T304 685Q304 645 279 623T227 601T186 618T171 649Q171 690 196 711ZM476 732T503 732T544 715T559 685Q559 645 534 623T482 601T441 618T426 648Q426 690 451
711ZM338 541Q525 541 590 479L520 2H367L337 52Q306 -5 197 -5Q120 -5 79 82Q56 132 56 191T67 304T94 394T124 454T162 495T202 521T248 534Q286 541 338 541ZM289 377T277 353T259 284T252 221T252 187T262 161T290 150Q350 150 355 202L382 392Q373 400 359
400T328 396T300 385Z" />
<glyph unicode="&#xe5;" glyph-name="aring" horiz-adv-x="546" d="M336 801T378 801T446 774T472 711Q472 662 440 632T365 601T296 628T269 691Q269 740 302 770ZM354 668T368 668T392 677T404 701T397 725T374 735T350 725T338 701T345 678ZM338 541Q525 541
590 479L520 2H367L337 52Q306 -5 197 -5Q120 -5 79 82Q56 132 56 191T67 304T94 394T124 454T162 495T202 521T248 534Q286 541 338 541ZM289 377T277 353T259 284T252 221T252 187T262 161T290 150Q350 150 355 202L382 392Q373 400 359 400T328 396T300 385Z"
/>
<glyph unicode="&#xe6;" glyph-name="ae" horiz-adv-x="817" d="M824 267Q777 189 681 181Q648 178 614 178T545 192Q544 184 544 178Q544 157 559 148T645 139T809 158L785 22Q685 -10 572 -10Q535 -10 496 -7Q417 0 379 62Q329 -7 197 -7Q120 -7 78 84Q55 135
55 195T66 310T92 400T122 459T160 499T200 523T244 536Q278 541 355 541T492 522Q545 540 604 540T702 535Q855 511 855 392Q855 317 824 267ZM347 200Q347 295 378 394Q368 399 355 399T322 395T284 368T260 291T252 208T257 167Q266 148 289 148Q334 148 348
176Q347 188 347 200ZM559 316Q575 311 591 311T618 313T641 325Q657 338 657 365Q657 397 622 397Q590 397 578 377T559 316Z" />
<glyph unicode="&#xe7;" glyph-name="ccedilla" horiz-adv-x="489" d="M301 -6L202 -5Q123 -5 84 71Q61 118 61 178T71 305T102 420T153 494T213 527T267 536Q301 536 322 536T364 536T397 534T431 530T468 523Q509 513 540 500L522 386Q463 392 408 392T344 392T321
388T301 377T286 355Q267 322 256 212Q255 204 255 195T257 175T263 156T279 144Q294 139 334 139Q415 139 472 145L491 147L473 33Q444 14 404 5Q354 -6 301 -6ZM175 -184H114L126 -105L166 -90Q188 -81 192 -74T202 -38H319Q307 -116 275 -150T175 -184Z" />
<glyph unicode="&#xe8;" glyph-name="egrave" horiz-adv-x="529" d="M213 744H358L412 601H303L213 744ZM345 541Q567 541 567 392Q567 328 546 283T492 218Q430 178 364 178H352Q280 182 256 192Q255 184 255 178Q255 157 270 148T361 139T531 158L507 22Q406
-11 290 -11Q250 -11 208 -7Q114 1 79 86Q59 134 59 194T71 318Q95 445 149 492T345 541ZM271 316Q287 311 303 311T330 313T352 325Q368 339 368 366Q368 397 334 397Q302 397 290 377T271 316Z" />
<glyph unicode="&#xe9;" glyph-name="eacute" horiz-adv-x="529" d="M303 601L403 744H548L412 601H303ZM345 541Q567 541 567 392Q567 328 546 283T492 218Q430 178 364 178H352Q280 182 256 192Q255 184 255 178Q255 157 270 148T361 139T531 158L507 22Q406
-11 290 -11Q250 -11 208 -7Q114 1 79 86Q59 134 59 194T71 318Q95 445 149 492T345 541ZM271 316Q287 311 303 311T330 313T352 325Q368 339 368 366Q368 397 334 397Q302 397 290 377T271 316Z" />
<glyph unicode="&#xea;" glyph-name="ecircumflex" horiz-adv-x="529" d="M197 601L319 741H450L519 601H408L377 652L319 601H197ZM345 541Q567 541 567 392Q567 328 546 283T492 218Q430 178 364 178H352Q280 182 256 192Q255 184 255 178Q255 157 270 148T361
139T531 158L507 22Q406 -11 290 -11Q250 -11 208 -7Q114 1 79 86Q59 134 59 194T71 318Q95 445 149 492T345 541ZM271 316Q287 311 303 311T330 313T352 325Q368 339 368 366Q368 397 334 397Q302 397 290 377T271 316Z" />
<glyph unicode="&#xeb;" glyph-name="edieresis" horiz-adv-x="529" d="M224 732T251 732T292 715T307 685Q307 645 282 623T230 601T189 618T174 648Q174 690 199 711ZM479 732T506 732T547 715T562 685Q562 645 537 623T485 601T444 618T429 649Q429 690 454
711ZM345 541Q567 541 567 392Q567 328 546 283T492 218Q430 178 364 178H352Q280 182 256 192Q255 184 255 178Q255 157 270 148T361 139T531 158L507 22Q406 -11 290 -11Q250 -11 208 -7Q114 1 79 86Q59 134 59 194T71 318Q95 445 149 492T345 541ZM271 316Q287
311 303 311T330 313T352 325Q368 339 368 366Q368 397 334 397Q302 397 290 377T271 316Z" />
<glyph unicode="&#xec;" glyph-name="igrave" horiz-adv-x="252" d="M65 742H210L264 599H155L65 742ZM20 0L104 531H298L214 0H20Z" />
<glyph unicode="&#xed;" glyph-name="iacute" horiz-adv-x="252" d="M155 599L255 742H400L264 599H155ZM20 0L104 531H298L214 0H20Z" />
<glyph unicode="&#xee;" glyph-name="icircumflex" horiz-adv-x="252" d="M49 599L171 739H302L371 599H260L229 650L171 599H49ZM20 0L104 531H298L214 0H20Z" />
<glyph unicode="&#xef;" glyph-name="idieresis" horiz-adv-x="252" d="M77 730T104 730T145 713T160 683Q160 643 135 621T83 599T42 616T27 646Q27 688 52 709ZM332 730T359 730T400 713T415 683Q415 643 390 621T338 599T297 616T282 646Q282 688 307 709ZM20
0L104 531H298L214 0H20Z" />
<glyph unicode="&#xf0;" glyph-name="eth" horiz-adv-x="542" d="M299 531H319Q379 531 398 526Q393 568 365 594L269 544L246 600L291 624Q263 628 227 628T170 628L195 783Q387 783 480 722L557 762L581 706L528 679Q581 613 581 459Q581 363 561 234Q537 91
470 42Q437 18 403 9T325 0H215Q55 0 55 190Q55 234 63 287Q83 414 140 472T299 531ZM288 357T277 340T258 274T250 212T251 193Q255 176 285 176H312Q341 176 349 189T366 258T375 327T374 344Q371 357 341 357H314Q288 357 277 340Z" />
<glyph unicode="&#xf1;" glyph-name="ntilde" horiz-adv-x="555" d="M345 741Q368 741 397 724T445 706Q448 706 452 706Q500 706 545 746L559 672Q500 600 435 600Q413 600 379 617T325 635Q277 635 226 600L210 667Q274 741 345 741ZM390 367Q390 396 364 396Q307
396 285 359L228 0H34L118 531H280L304 479Q329 499 344 509T391 530T460 540Q525 540 556 513Q589 485 589 438T582 340L528 0H334L388 344Q390 358 390 367Z" />
<glyph unicode="&#xf2;" glyph-name="ograve" horiz-adv-x="553" d="M215 742H360L414 599H305L215 742ZM361 539Q498 539 544 466Q575 419 575 335Q575 289 565 224T535 113T480 41T397 5T275 -5Q139 -5 92 66Q60 113 60 195Q60 235 70 300T101 415T159 492T241
529T361 539ZM299 395T289 377T266 283T253 186T254 159Q260 139 299 139T348 156T371 248T384 343T383 370Q378 395 339 395Z" />
<glyph unicode="&#xf3;" glyph-name="oacute" horiz-adv-x="553" d="M311 599L411 742H556L420 599H311ZM361 539Q498 539 544 466Q575 419 575 335Q575 289 565 224T535 113T480 41T397 5T275 -5Q139 -5 92 66Q60 113 60 195Q60 235 70 300T101 415T159 492T241
529T361 539ZM299 395T289 377T266 283T253 186T254 159Q260 139 299 139T348 156T371 248T384 343T383 370Q378 395 339 395Z" />
<glyph unicode="&#xf4;" glyph-name="ocircumflex" horiz-adv-x="553" d="M195 599L317 739H448L517 599H406L375 650L317 599H195ZM361 539Q498 539 544 466Q575 419 575 335Q575 289 565 224T535 113T480 41T397 5T275 -5Q139 -5 92 66Q60 113 60 195Q60 235
70 300T101 415T159 492T241 529T361 539ZM299 395T289 377T266 283T253 186T254 159Q260 139 299 139T348 156T371 248T384 343T383 370Q378 395 339 395Z" />
<glyph unicode="&#xf5;" glyph-name="otilde" horiz-adv-x="553" d="M332 740Q354 740 383 723T432 705Q435 705 439 705Q487 705 532 745L546 671Q487 599 422 599Q400 599 366 616T312 634Q264 634 213 599L197 666Q261 740 332 740ZM361 539Q498 539 544 466Q575
419 575 335Q575 289 565 224T535 113T480 41T397 5T275 -5Q139 -5 92 66Q60 113 60 195Q60 235 70 300T101 415T159 492T241 529T361 539ZM299 395T289 377T266 283T253 186T254 159Q260 139 299 139T348 156T371 248T384 343T383 370Q378 395 339 395Z" />
<glyph unicode="&#xf6;" glyph-name="odieresis" horiz-adv-x="553" d="M230 730T257 730T298 713T313 683Q313 643 288 621T236 599T195 616T180 646Q180 688 205 709ZM485 730T512 730T553 713T568 683Q568 643 543 621T491 599T450 616T435 647Q435 688 460
709ZM361 539Q498 539 544 466Q575 419 575 335Q575 289 565 224T535 113T480 41T397 5T275 -5Q139 -5 92 66Q60 113 60 195Q60 235 70 300T101 415T159 492T241 529T361 539ZM299 395T289 377T266 283T253 186T254 159Q260 139 299 139T348 156T371 248T384 343T383
370Q378 395 339 395Z" />
<glyph unicode="&#xf7;" glyph-name="divide" horiz-adv-x="482" d="M71 276L95 430H522L498 276H71ZM227 242H320Q342 242 342 224Q342 221 341 217L328 140Q324 117 300 117H207Q183 117 186 140L199 217Q202 242 227 242ZM256 585T281 585H374Q396 585 396
567Q396 564 395 560L383 483Q379 460 354 460H261Q241 460 241 478Q241 480 241 483L253 560Q256 585 281 585Z" />
<glyph unicode="&#xf8;" glyph-name="oslash" horiz-adv-x="553" d="M80 72Q60 110 60 166T71 292T102 412T160 489T242 526T377 536T516 505L542 531H628L557 460Q577 420 577 360T566 230T536 114T481 41T398 5T262 -5T121 27L94 0H8L80 72ZM383 372Q378 392
339 392T288 373Q276 351 263 258Q263 257 263 255T262 252L383 372ZM258 147T268 143T308 139T348 156Q359 174 377 281L255 160Q258 147 268 143Z" />
<glyph unicode="&#xf9;" glyph-name="ugrave" horiz-adv-x="554" d="M225 742H370L424 599H315L225 742ZM249 164Q249 135 276 135Q333 135 355 172L412 531H606L521 0H359L336 52Q301 19 269 5T176 -9T84 18Q51 46 51 93T58 191L112 531H306L251 187Q249 173 249 164Z" />
<glyph unicode="&#xfa;" glyph-name="uacute" horiz-adv-x="554" d="M315 599L415 742H560L424 599H315ZM249 164Q249 135 276 135Q333 135 355 172L412 531H606L521 0H359L336 52Q301 19 269 5T176 -9T84 18Q51 46 51 93T58 191L112 531H306L251 187Q249 173 249 164Z" />
<glyph unicode="&#xfb;" glyph-name="ucircumflex" horiz-adv-x="554" d="M209 599L331 739H462L531 599H420L389 650L331 599H209ZM249 164Q249 135 276 135Q333 135 355 172L412 531H606L521 0H359L336 52Q301 19 269 5T176 -9T84 18Q51 46 51 93T58 191L112
531H306L251 187Q249 173 249 164Z" />
<glyph unicode="&#xfc;" glyph-name="udieresis" horiz-adv-x="554" d="M236 730T263 730T304 713T319 683Q319 643 294 621T242 599T201 616T186 646Q186 688 211 709ZM491 730T518 730T559 713T574 683Q574 643 549 621T497 599T456 616T441 647Q441 688 466
709ZM249 164Q249 135 276 135Q333 135 355 172L412 531H606L521 0H359L336 52Q301 19 269 5T176 -9T84 18Q51 46 51 93T58 191L112 531H306L251 187Q249 173 249 164Z" />
<glyph unicode="&#xfd;" glyph-name="yacute" horiz-adv-x="575" d="M314 596L414 739H559L423 596H314ZM623 491Q623 418 584 324L454 0Q337 -274 99 -302Q91 -303 87 -304V-168Q156 -136 195 -98T264 0Q110 0 100 156L76 531H277L285 195Q286 158 322 156L408
394Q428 449 434 532H620Q623 512 623 491Z" />
<glyph unicode="&#xfe;" glyph-name="thorn" horiz-adv-x="559" d="M449 530Q588 530 588 346Q588 297 578 236Q556 102 511 44T362 -15Q283 -15 237 19L191 -270H-3L164 782H358L309 475Q347 503 377 516T449 530ZM318 124Q342 124 356 148T380 232T391 309T390
342T381 365T358 373Q306 373 289 351L256 139Q267 124 318 124Z" />
<glyph unicode="&#xff;" glyph-name="ydieresis" horiz-adv-x="575" d="M238 707T265 707T306 690T321 660Q321 620 296 598T244 576T203 593T188 623Q188 665 213 686ZM493 707T520 707T561 690T576 660Q576 620 551 598T499 576T458 593T443 624Q443 665 468
686ZM623 491Q623 418 584 324L454 0Q337 -274 99 -302Q91 -303 87 -304V-168Q156 -136 195 -98T264 0Q110 0 100 156L76 531H277L285 195Q286 158 322 156L408 394Q428 449 434 532H620Q623 512 623 491Z" />
<glyph unicode="&#x2013;" glyph-name="endash" horiz-adv-x="451" d="M59 210L84 365H557L532 210H59Z" />
<glyph unicode="&#x2014;" glyph-name="emdash" horiz-adv-x="736" d="M63 212L88 367H784L759 212H63Z" />
<glyph unicode="&#x2018;" glyph-name="quoteleft" horiz-adv-x="249" d="M191 727T215 734T255 743T282 745T302 743L317 740L305 668Q275 668 269 637L267 622H278Q300 622 300 603Q300 600 299 597L281 483Q276 456 251 456H140Q120 456 120 476Q120 479 121
483L146 643Q152 680 171 703Z" />
<glyph unicode="&#x2019;" glyph-name="quoteright" horiz-adv-x="249" d="M161 578Q139 578 139 597Q139 600 140 603L158 717Q162 744 187 744H298Q319 744 319 724Q319 721 318 717L292 557Q286 520 267 497T223 466Q190 455 169 455T138 457L122 460L133 532Q163
532 169 563L172 578H161Z" />
<glyph unicode="&#x201a;" glyph-name="quotesinglbase" horiz-adv-x="249" d="M70 0Q48 0 48 19Q48 22 49 25L67 139Q72 166 96 166H207Q228 166 228 146Q228 143 227 139L201 -21Q195 -58 176 -81T132 -112Q99 -123 78 -123T46 -121L31 -118L42 -46Q72 -46 78
-15L81 0H70Z" />
<glyph unicode="&#x201c;" glyph-name="quotedblleft" horiz-adv-x="432" d="M187 725T211 732T251 741T277 743T296 741L312 738L301 666Q271 666 265 635L263 620H274Q296 620 296 601Q296 598 295 595L277 481Q272 454 247 454H136Q116 454 116 474Q116 477
117 481L142 641Q148 678 167 701ZM378 725T402 732T442 741T468 743T488 741L503 738L492 666Q462 666 456 635L454 620H465Q487 620 487 601Q487 598 486 595L468 481Q464 454 438 454H327Q307 454 307 474Q307 477 308 481L333 641Q339 678 358 701Z" />
<glyph unicode="&#x201d;" glyph-name="quotedblright" horiz-adv-x="432" d="M157 576Q135 576 135 595Q135 598 136 601L154 715Q158 742 183 742H294Q315 742 315 722Q315 719 314 715L288 555Q282 518 263 495T219 464Q186 453 165 453T134 455L118 458L129
530Q159 530 165 561L168 576H157ZM348 576Q326 576 326 595Q326 598 327 601L345 715Q350 742 374 742H485Q506 742 506 722Q506 719 505 715L479 555Q473 518 454 495T410 464Q377 453 356 453T324 455L309 458L320 530Q350 530 356 561L359 576H348Z" />
<glyph unicode="&#x201e;" glyph-name="quotedblbase" horiz-adv-x="431" d="M66 0Q44 0 44 19Q44 22 45 25L63 139Q68 166 92 166H203Q224 166 224 146Q224 143 223 139L197 -21Q191 -58 172 -81T128 -112Q95 -123 74 -123T42 -121L27 -118L38 -46Q68 -46 74
-15L77 0H66ZM257 0Q235 0 235 19Q235 22 236 25L254 139Q258 166 283 166H394Q415 166 415 146Q415 143 414 139L388 -21Q382 -58 363 -81T319 -112Q286 -123 265 -123T234 -121L218 -118L229 -46Q259 -46 265 -15L268 0H257Z" />
<glyph unicode="&#x2022;" glyph-name="bullet" horiz-adv-x="306" d="M158 491H302Q332 491 332 464Q332 460 331 456L308 306Q303 274 267 274H123Q95 274 95 298Q95 302 96 306L119 456Q124 491 158 491Z" />
<glyph unicode="&#x2039;" glyph-name="guilsinglleft" horiz-adv-x="278" d="M5 354L243 557L325 462L198 354L292 244L183 146L5 354Z" />
<glyph unicode="&#x203a;" glyph-name="guilsinglright" horiz-adv-x="357" d="M84 244L212 354L120 462L232 557L405 354L162 146L84 244Z" />
</font>
</defs>
</svg>
