<?xml version="1.0" standalone="no"?>
<!DOCTYPE svg PUBLIC "-//W3C//DTD SVG 1.1//EN" "http://www.w3.org/Graphics/SVG/1.1/DTD/svg11.dtd">
<svg xmlns="http://www.w3.org/2000/svg">
<defs >
<font id="Exo" horiz-adv-x="530" ><font-face
    font-family="Exo"
    units-per-em="1000"
    panose-1="2 0 2 3 0 0 0 0 0 0"
    ascent="1002"
    descent="-327"
    alphabetic="0" />
<glyph unicode=" " glyph-name="space" horiz-adv-x="234" />
<glyph unicode="!" glyph-name="exclam" horiz-adv-x="236" d="M108 86H119Q131 86 129 74L119 12Q117 0 105 0H94Q82 0 84 12L94 74Q96 86 108 86ZM124 196L204 731H226L136 196H124Z" />
<glyph unicode="&quot;" glyph-name="quotedbl" horiz-adv-x="287" d="M108 531L122 665L133 732H158L147 665L120 531H108ZM208 531L222 665L233 732H258L247 665L220 531H208Z" />
<glyph unicode="#" glyph-name="numbersign" horiz-adv-x="631" d="M56 250L60 262H239L303 467H124L129 479H307L388 732H400L319 479H505L585 732H597L517 479H694L690 467H512L448 261H625L621 249H444L365 0H353L432 249L246 250L167 0H155L234 250H56ZM251
262L436 261L500 467H315L251 262Z" />
<glyph unicode="$" glyph-name="dollar" horiz-adv-x="574" d="M306 16Q389 16 438 45T499 156L509 224Q512 244 512 260Q512 300 494 320Q467 347 391 347H289Q200 347 166 381Q135 412 135 449Q135 459 139 494L150 560Q166 664 222 701T387 738L400 824H418L405
737Q493 732 580 719L578 706L386 715Q376 715 366 715Q286 715 238 685T174 560L163 494Q160 476 160 462Q160 417 189 394T291 371H395Q487 371 516 332Q536 305 536 261Q536 243 533 224L523 156Q503 36 410 6Q362 -8 304 -8Q296 -8 287 -8L274 -88H256L269
-7Q127 -2 80 7L82 22Q146 16 306 16Z" />
<glyph unicode="%" glyph-name="percent" horiz-adv-x="985" d="M284 732H385Q456 732 480 702Q496 682 496 655T493 607L472 474Q462 407 431 378T326 349H225Q153 349 129 378Q112 399 112 427T115 474L136 607Q146 673 178 702T284 732ZM130 474Q127 454 127
429Q127 364 225 364H326Q387 364 417 387T457 474L478 607Q481 626 481 650T467 692Q447 717 384 717H283Q221 717 191 694T151 607L130 474ZM225 0L779 732H800L246 0H225ZM712 386H813Q885 386 909 356Q926 336 926 308T923 261L902 128Q892 61 860 32T755 3H654Q583
3 559 32Q542 53 542 81T545 128L566 261Q576 328 607 357T712 386ZM560 128Q557 108 557 83Q557 18 654 18H755Q816 18 846 41T887 128L908 261Q911 279 911 304Q911 371 813 371H712Q650 371 621 348T581 261L560 128Z" />
<glyph unicode="&amp;" glyph-name="ampersand" horiz-adv-x="688" d="M63 181Q63 207 71 234Q95 308 172 366L269 439L220 524Q191 573 191 611Q191 661 223 688T294 725T404 734T587 724L585 710H372Q271 710 232 666Q215 645 215 614T238 538L465 144L647 295L654
287L572 203L478 125L552 0H528L460 111L378 44Q319 -4 246 -4Q209 -4 174 10Q122 31 91 82Q63 132 63 181ZM249 18Q308 18 361 60L447 130L281 419L192 353Q85 272 85 181Q85 139 109 97Q156 18 249 18Z" />
<glyph unicode="&apos;" glyph-name="quotesingle" horiz-adv-x="132" d="M90 531L104 665L115 732H140L129 665L102 531H90Z" />
<glyph unicode="(" glyph-name="parenleft" horiz-adv-x="275" d="M222 631T191 547T149 387T137 271T139 183T155 68Q180 -50 214 -123L226 -150H200Q195 -141 180 -104T155 -34Q114 98 114 239Q114 482 230 700Q301 831 348 892L369 920H394Q386 909 372 890T321
811T253 691Z" />
<glyph unicode=")" glyph-name="parenright" horiz-adv-x="276" d="M158 127T189 214T232 376T243 489T241 576T225 692Q201 810 168 890L156 920H181Q183 914 187 904T203 862T224 794Q266 645 266 509Q266 363 212 206Q182 119 149 58Q79 -74 35 -126L15 -150H-13L9
-122Q23 -105 59 -48T127 68Z" />
<glyph unicode="*" glyph-name="asterisk" horiz-adv-x="483" d="M139 592L141 606L284 610L281 586L139 592ZM191 409L245 543L270 539L203 405L191 409ZM295 495L311 518L416 435L406 424L295 495ZM298 723L312 727L359 604L334 593L298 723ZM348 552L473 635L480
623L363 533L348 552Z" />
<glyph unicode="+" glyph-name="plus" horiz-adv-x="524" d="M100 344L104 368H285L313 549H337L309 368H490L486 344H305L276 163H252L281 344H100Z" />
<glyph unicode="," glyph-name="comma" horiz-adv-x="171" d="M81 0Q69 0 71 13L81 75Q83 88 95 88H105Q117 88 115 75L97 -37Q93 -65 71 -69Q69 -69 67 -69T60 -68L61 -62Q77 -62 80 -47L87 0H81Z" />
<glyph unicode="-" glyph-name="hyphen" horiz-adv-x="331" d="M60 278L64 302H348L344 278H60Z" />
<glyph unicode="." glyph-name="period" horiz-adv-x="172" d="M95 86H106Q118 86 116 74L106 12Q104 0 92 0H81Q69 0 71 12L81 74Q83 86 95 86Z" />
<glyph unicode="/" glyph-name="slash" horiz-adv-x="291" d="M8 -72L422 770H444L30 -72H8Z" />
<glyph unicode="0" glyph-name="zero" horiz-adv-x="649" d="M383 732H517Q604 732 637 688Q662 655 662 605Q662 588 659 570L594 162Q568 0 401 0H267Q192 0 150 39Q118 69 118 125Q118 142 121 162L186 570Q198 648 253 690T383 732ZM143 132Q143 86 172 55T271
24H405Q549 24 570 162L635 570Q638 588 638 603Q638 708 513 708H379Q311 708 266 672T210 570L145 162Q143 146 143 132Z" />
<glyph unicode="1" glyph-name="one" horiz-adv-x="406" d="M134 625L138 640Q182 640 239 663T332 709L367 732H389L275 0H251L363 702Q324 676 261 651T134 625Z" />
<glyph unicode="2" glyph-name="two" horiz-adv-x="574" d="M580 587Q580 646 552 675Q513 717 422 717H154L156 732Q237 742 432 742Q538 742 578 686Q606 646 606 585Q606 560 601 530Q571 352 92 24H521L517 0H47L51 23Q66 30 158 99T275 189T343 244T411 304T469
363T521 424Q568 489 574 525T580 587Z" />
<glyph unicode="3" glyph-name="three" horiz-adv-x="579" d="M315 18Q467 18 491 166L500 225Q502 237 502 253T493 290T462 326Q421 350 369 352L157 359L159 373L373 379Q437 380 487 412T547 504L557 573Q560 590 560 604Q560 651 529 680T431 710H145L147
724Q207 735 299 735T439 734Q524 733 558 688Q584 654 584 605Q584 588 581 569L571 500Q558 420 487 383Q458 368 429 365Q466 359 497 328T528 249Q528 235 526 220L517 161Q491 -7 313 -7Q91 -7 39 4L42 18H315Z" />
<glyph unicode="4" glyph-name="four" horiz-adv-x="572" d="M55 237L440 732H467L84 236H462L499 472L521 547H535L486 236H576L574 222L482 212L449 2H425L458 212H63L55 237Z" />
<glyph unicode="5" glyph-name="five" horiz-adv-x="627" d="M378 20Q436 20 486 59T548 168L563 263Q566 284 566 302Q566 407 451 407H298Q247 407 201 369T148 282H124L217 732H640L636 708H236L165 365Q174 377 187 389T232 416T298 431H450Q534 431 566 386Q590
354 590 304Q590 286 587 265L571 166Q563 118 541 83T490 30Q434 -4 381 -4Q149 -4 79 6L81 20H378Z" />
<glyph unicode="6" glyph-name="six" horiz-adv-x="635" d="M352 738Q545 738 622 729L620 714H354Q309 714 272 681T210 595Q166 498 149 394Q245 405 425 405Q519 405 551 366Q575 337 575 292Q575 276 572 259L554 148Q541 67 500 33T384 -1H260Q217 -1 186
16T133 78Q110 124 110 200T124 384Q153 566 214 652T352 738ZM133 223Q133 23 259 23H378Q509 23 529 146L546 252Q549 273 549 290Q549 334 524 357T429 380H147Q133 290 133 223Z" />
<glyph unicode="7" glyph-name="seven" horiz-adv-x="540" d="M134 708L138 732H576L588 709L238 0H210L560 708H134Z" />
<glyph unicode="8" glyph-name="eight" horiz-adv-x="644" d="M118 114L121 154L136 253Q144 305 181 335T254 366Q172 380 172 469Q172 486 175 506L185 571Q200 665 248 701T382 737H498Q643 737 643 605Q643 583 639 557L629 492Q622 450 591 417T518 380Q592
358 592 282Q592 268 590 252L575 154Q558 50 480 17Q440 0 394 0H279Q230 0 196 12T148 42Q118 80 118 114ZM143 124Q143 79 178 52T283 24H391Q445 24 491 54T548 151L565 256Q568 272 568 287Q568 335 533 349Q511 358 496 360T454 362H321Q273 362 222 336T162
256L145 151Q143 137 143 124ZM198 494Q196 479 196 464T202 430T230 401Q264 385 322 385H451Q518 385 558 419T604 494L615 562Q618 585 618 604Q618 652 596 678Q566 713 494 713H380Q299 713 259 677T208 562L198 494Z" />
<glyph unicode="9" glyph-name="nine" horiz-adv-x="636" d="M368 18Q414 18 451 51T513 138Q556 234 573 338Q477 327 290 327Q197 327 168 368Q147 397 147 442Q147 459 150 478L168 589Q181 668 228 700T352 733H468Q614 733 614 507Q614 435 599 339Q570 158
509 76T371 -6Q177 -6 100 3L102 18H368ZM174 473Q171 455 171 439T176 404T202 373Q236 352 298 352H575Q590 444 590 512Q590 709 468 709H348Q210 709 191 586L174 473Z" />
<glyph unicode=":" glyph-name="colon" horiz-adv-x="177" d="M100 86H111Q123 86 121 74L111 12Q109 0 97 0H86Q74 0 76 12L86 74Q88 86 100 86ZM165 530H176Q188 530 186 518L176 455Q174 444 162 444H151Q139 444 141 455L151 518Q153 530 165 530Z" />
<glyph unicode=";" glyph-name="semicolon" horiz-adv-x="172" d="M81 0Q69 0 71 13L81 75Q83 88 95 88H105Q117 88 115 75L97 -37Q93 -65 71 -69Q69 -69 67 -69T60 -68L61 -62Q77 -62 80 -47L87 0H81ZM165 530H176Q188 530 186 518L176 455Q174 444 162 444H151Q139
444 141 455L151 518Q153 530 165 530Z" />
<glyph unicode="&lt;" glyph-name="less" horiz-adv-x="472" d="M99 345L102 365L478 557L473 531L129 354L415 165L412 141L99 345Z" />
<glyph unicode="=" glyph-name="equal" horiz-adv-x="462" d="M53 212L57 236H484L480 212H53ZM94 471L98 495H525L521 471H94Z" />
<glyph unicode="&gt;" glyph-name="greater" horiz-adv-x="473" d="M72 141L76 168L424 357L134 534L138 557L452 365L449 345L72 141Z" />
<glyph unicode="?" glyph-name="question" horiz-adv-x="543" d="M380 739Q488 739 526 694Q554 660 554 602Q554 580 550 554L535 453Q519 353 452 318Q404 293 318 293Q284 293 243 297L227 195H201L220 317H322Q404 317 451 348T510 453L526 554Q529 577 529
597Q529 651 504 678Q468 715 374 715H125L127 729Q215 739 375 739Q377 739 380 739ZM195 86H206Q218 86 216 74L206 12Q204 0 192 0H181Q169 0 171 12L181 74Q183 86 195 86Z" />
<glyph unicode="@" glyph-name="at" horiz-adv-x="901" d="M350 699H725Q807 699 842 653Q868 619 868 564Q868 544 865 521L812 167Q808 134 794 101T764 50T716 18T643 3H614L616 63Q593 38 529 18Q462 -4 404 -4Q316 -4 276 55Q249 94 249 172Q249 217 258
275Q297 527 473 544Q490 546 521 546T608 532T700 482L633 26Q767 26 788 167L841 521Q845 546 845 566Q845 616 822 640Q791 675 724 675H350Q193 675 169 521L88 9Q85 -10 85 -27Q85 -79 113 -112Q150 -155 217 -155H601L599 -169Q549 -179 309 -179H211Q134
-179 92 -126Q61 -85 61 -28Q61 -10 64 9L145 521Q174 699 350 699ZM280 254Q274 216 274 192T277 140T290 86T318 46Q353 20 402 20Q406 20 410 20Q537 20 617 80L676 479Q600 519 497 519Q490 519 483 519Q312 513 280 254Z" />
<glyph unicode="A" glyph-name="A" horiz-adv-x="643" d="M45 0L435 732H469L615 0H591L540 253H207L73 0H45ZM220 277H535L449 709L220 277Z" />
<glyph unicode="B" glyph-name="B" horiz-adv-x="590" d="M449 732Q554 732 590 688Q615 656 615 603Q615 505 553 440Q506 390 455 384Q497 374 529 330T561 233Q561 216 558 197Q527 0 333 0H80L196 732H449ZM337 25Q506 25 535 204Q537 218 537 232Q537 283
500 327T397 371Q395 371 392 371H163L108 25H337ZM396 395Q466 395 518 438T586 555Q592 583 592 606Q592 652 568 674Q533 708 445 708H216L167 395H396Z" />
<glyph unicode="C" glyph-name="C" horiz-adv-x="564" d="M238 693T290 716T422 740T629 716L627 702Q613 704 601 705T572 707T537 710T497 713Q437 716 415 716Q337 716 287 688Q183 628 141 366Q130 296 130 241Q130 18 306 18Q400 18 490 27L520 30L518 16Q396
-6 301 -6Q105 -6 105 240Q105 301 118 385T151 531T204 643Z" />
<glyph unicode="D" glyph-name="D" horiz-adv-x="658" d="M448 732Q513 732 558 707T625 642Q662 578 662 477Q662 426 649 353T611 218T551 107T460 28T339 0H80L196 732H448ZM339 24Q404 24 456 55T542 140Q606 241 626 364Q637 430 637 482Q637 570 607 623Q559
708 443 708H216L108 24H339Z" />
<glyph unicode="E" glyph-name="E" horiz-adv-x="561" d="M313 732Q317 732 320 732L616 722L614 708H317Q215 708 198 602L162 375L520 370L518 356L158 351L122 123Q119 106 119 93Q119 56 142 39T218 21H505L503 7L214 -3Q210 -3 206 -3Q95 -3 95 91Q95 108
98 128L174 607Q185 675 224 703T313 732Z" />
<glyph unicode="F" glyph-name="F" horiz-adv-x="555" d="M313 732Q317 732 321 732L617 722L615 708H316Q265 708 237 683T199 602L163 375L522 370L519 356L160 351L104 0H80L174 598Q186 677 223 704T313 732Z" />
<glyph unicode="G" glyph-name="G" horiz-adv-x="640" d="M256 701T300 720T392 740T518 732T647 713L644 694L602 700Q474 716 398 716Q282 716 230 632T149 368Q132 271 132 206T146 100Q177 19 293 19Q362 19 494 56L538 69L584 364H370L373 378Q415 389 495
389T612 386L551 0H537V54Q502 37 425 16T294 -5T203 7T147 47T117 106T107 186Q107 259 121 352T147 493T179 590T228 671Z" />
<glyph unicode="H" glyph-name="H" horiz-adv-x="651" d="M85 0L201 732H225L167 366H607L665 732H689L573 0H549L603 342H163L109 0H85Z" />
<glyph unicode="I" glyph-name="I" horiz-adv-x="192" d="M90 0L206 732H230L114 0H90Z" />
<glyph unicode="J" glyph-name="J" horiz-adv-x="319" d="M130 19Q247 19 271 165L361 732H385L295 165Q279 57 220 18Q185 -5 133 -5Q74 -5 38 21L44 35Q92 19 130 19Z" />
<glyph unicode="K" glyph-name="K" horiz-adv-x="528" d="M80 0L196 732H220L164 379H317L611 732H641L339 368L526 0H498L317 355H161L105 0H80Z" />
<glyph unicode="L" glyph-name="L" horiz-adv-x="547" d="M120 96Q120 59 144 42T219 24H495L491 0H220Q163 0 128 20Q96 39 96 93Q96 108 99 126L195 732H219L123 126Q120 109 120 96Z" />
<glyph unicode="M" glyph-name="M" horiz-adv-x="770" d="M71 0L268 732H302L407 41L725 732H764L732 0H707L739 701L415 0H387L284 696L96 0H71Z" />
<glyph unicode="N" glyph-name="N" horiz-adv-x="642" d="M80 0L196 732H221L551 43L661 732H685L569 0H545L214 690L104 0H80Z" />
<glyph unicode="O" glyph-name="O" horiz-adv-x="684" d="M314 726T351 731T441 737T527 733T589 714T636 674Q670 619 670 526Q670 459 655 359T617 193T569 89T504 29T425 2T326 -4T230 2T161 31T115 94T102 204T118 370T157 538T207 646T273 705ZM176 522T164
473T140 347T128 239T127 177T137 111T175 54T238 27T330 20T424 27T496 54T554 113Q603 192 630 361Q645 454 645 519T633 624T591 682T529 707T453 713T388 712T341 706T296 691T257 664T221 621T191 558Z" />
<glyph unicode="P" glyph-name="P" horiz-adv-x="584" d="M467 732Q549 732 580 700Q616 661 616 612Q616 583 611 532Q594 430 558 387Q540 365 523 351T482 332Q444 323 406 323T262 327T152 333L99 0H75L191 732H467ZM406 347Q472 347 516 380Q570 420 586
533Q591 577 591 602T582 647T562 678T534 696Q505 707 463 707H211L154 347H406Z" />
<glyph unicode="Q" glyph-name="Q" horiz-adv-x="690" d="M318 726T355 731T445 737T531 733T593 714T640 674Q674 619 674 526Q674 459 659 359T621 193T573 89T508 29T429 2T330 -4T234 2T165 31T119 94T106 204T122 370T161 538T211 646T277 705ZM180 522T168
473T144 347T132 239T131 177T141 111T179 54T242 27T334 20T428 27T500 54T558 113Q607 192 634 361Q649 454 649 519T637 624T595 682T533 707T457 713T392 712T345 706T300 691T261 664T225 621T195 558ZM499 -96L495 -120Q459 -131 440 -131T417 -130Q379 -129
350 -104T319 -33H333Q341 -71 368 -89T426 -107T499 -96Z" />
<glyph unicode="R" glyph-name="R" horiz-adv-x="612" d="M467 732Q546 732 579 697Q616 658 616 599Q616 569 611 528Q589 393 531 355Q502 336 479 330T420 323L529 0H503L394 323Q159 327 152 333L99 0H75L191 732H467ZM406 347Q440 347 465 353T516 378Q568
417 586 532Q591 576 591 601T582 646T562 677T534 696Q502 707 463 707H211L154 347H406Z" />
<glyph unicode="S" glyph-name="S" horiz-adv-x="565" d="M318 16Q441 16 484 85Q502 114 508 156L518 224Q521 242 521 257Q521 297 501 318Q474 347 400 347H288Q178 347 150 393Q133 422 133 450T138 498L149 564Q165 665 220 701T375 738T589 719L587 706L366
714Q359 714 353 714Q279 714 233 681T173 560L162 494Q159 475 159 459Q159 415 186 393T290 371H404Q496 371 524 330Q545 301 545 256Q545 239 542 219L532 151Q516 49 450 18Q393 -8 312 -8Q270 -8 190 -4T79 7L81 22Q146 16 318 16Z" />
<glyph unicode="T" glyph-name="T" horiz-adv-x="631" d="M139 708L143 732H681L677 708H417L305 0H281L393 708H139Z" />
<glyph unicode="U" glyph-name="U" horiz-adv-x="681" d="M155 320Q142 240 142 212T143 165T148 123T160 85T178 58T202 39T230 28T263 22Q300 19 335 19T391 20T440 29T486 48T526 82T562 136Q598 210 614 320L679 732H703L638 320Q621 219 604 176T575 108T547
66T517 37T483 17T450 5T414 -2Q380 -5 311 -5T205 10Q119 43 119 188Q119 244 131 320L196 732H220L155 320Z" />
<glyph unicode="V" glyph-name="V" horiz-adv-x="668" d="M150 732H175L316 26L693 732H720L330 0H296L150 732Z" />
<glyph unicode="W" glyph-name="W" horiz-adv-x="980" d="M150 732H174L316 25L674 732H700L550 431L647 24L1006 732H1032L662 0H628L532 396L330 0H296L150 732Z" />
<glyph unicode="X" glyph-name="X" horiz-adv-x="542" d="M38 0L313 365L151 732H179L331 388L596 732H627L343 363L506 0H478L326 339L69 0H38Z" />
<glyph unicode="Y" glyph-name="Y" horiz-adv-x="628" d="M150 732H177L333 292L651 732H680L342 260L301 0H277L318 260L150 732Z" />
<glyph unicode="Z" glyph-name="Z" horiz-adv-x="507" d="M35 0L39 24L578 708H147L151 732H614L610 708L71 24H502L498 0H35Z" />
<glyph unicode="[" glyph-name="bracketleft" horiz-adv-x="265" d="M96 -21Q96 -126 189 -126H239L235 -150H185Q144 -150 118 -132T84 -86Q72 -47 72 -20T76 22L188 730Q218 902 352 902H401L398 878H348Q296 878 260 842T212 730L100 22Q96 -1 96 -21Z" />
<glyph unicode="\" glyph-name="backslash" horiz-adv-x="432" d="M141 770H160L308 -72H289L141 770Z" />
<glyph unicode="]" glyph-name="bracketright" horiz-adv-x="270" d="M41 -126Q99 -126 132 -85T176 22L288 730Q292 755 292 786T276 842Q252 878 200 878H150L154 902H204Q246 902 272 884T306 838Q316 803 316 775T312 730L200 22Q173 -150 37 -150H-13L-9 -126H41Z" />
<glyph unicode="^" glyph-name="asciicircum" horiz-adv-x="427" d="M134 531L287 661H308L406 531H389L295 646L152 531H134Z" />
<glyph unicode="_" glyph-name="underscore" horiz-adv-x="648" d="M19 -1L23 23H627L623 -1H19Z" />
<glyph unicode="`" glyph-name="grave" horiz-adv-x="219" d="M125 664H151L251 531H237L125 664Z" />
<glyph unicode="a" glyph-name="a" horiz-adv-x="545" d="M238 527T259 532T303 540T355 543T442 529T536 479L466 0H452L453 60Q422 40 360 17T253 -7T182 0T130 26T94 77Q79 121 79 172T90 284T121 393T160 467T209 510ZM103 175Q103 16 238 16Q276 16 301 22T336
29T368 40T395 50T425 63T453 75L511 476Q440 520 355 520Q232 520 176 446Q131 388 109 246Q103 207 103 175Z" />
<glyph unicode="b" glyph-name="b" horiz-adv-x="545" d="M367 539Q515 539 515 357Q515 194 441 80Q415 40 374 17T283 -6T172 16T92 59L73 0H60L184 785H206L161 499Q209 517 269 528T367 539ZM282 18Q351 18 406 79T482 263Q489 323 489 350T488 389Q486 438
465 466T420 504T361 515Q280 515 160 485L95 73Q195 18 282 18Z" />
<glyph unicode="c" glyph-name="c" horiz-adv-x="491" d="M205 518T235 527T328 536T502 510L499 496Q393 512 330 512T240 503T188 468Q137 418 113 262Q103 212 103 189T104 140T113 88T140 45Q172 19 219 19Q302 19 402 35L434 40L432 24Q330 -4 222 -5Q115
-5 92 74Q79 118 79 167T90 273Q116 439 176 492Q205 518 235 527Z" />
<glyph unicode="d" glyph-name="d" horiz-adv-x="521" d="M317 539Q354 539 410 528T508 499L553 785H575L451 0H438L437 59Q412 39 346 17T229 -6T145 20T98 86Q82 141 82 189T89 271Q132 539 317 539ZM106 182Q106 115 130 77Q167 18 238 18Q323 18 439 73L505
485Q395 515 316 515Q198 515 146 390Q125 338 116 278T106 182Z" />
<glyph unicode="e" glyph-name="e" horiz-adv-x="537" d="M433 250T378 239T238 228T106 247Q99 197 99 151T112 72Q135 17 218 17T450 38L447 22Q341 -7 214 -7Q120 -7 91 62Q75 98 75 153T85 270T104 365T131 435T174 494Q232 541 336 541T489 506Q529 477 529
417Q529 335 476 288Q433 250 378 239ZM220 249T255 249T335 256T413 277T472 320Q504 356 504 409T467 490T347 517Q279 517 222 494Q190 482 156 432Q147 418 137 386Q117 323 108 261Q116 260 129 258T181 252Z" />
<glyph unicode="f" glyph-name="f" horiz-adv-x="359" d="M275 778T290 781T322 786T381 787T464 775L462 762H320Q273 762 253 730T222 630L207 531H385L381 507H203L123 0H99L179 507H92L94 521L183 531L198 630Q198 642 206 676T218 716T228 736T243 756T263 770Z" />
<glyph unicode="g" glyph-name="g" horiz-adv-x="532" d="M231 -10Q82 -10 82 151Q82 206 91 275Q133 537 317 537Q396 537 546 524L447 -104Q433 -191 382 -232T278 -273Q270 -273 261 -272L37 -248L39 -234L265 -249Q270 -249 274 -249Q318 -249 364 -214T423
-104L444 29Q397 11 334 1T231 -10ZM115 271Q106 212 106 161T121 76Q148 14 234 14Q298 14 343 24T447 49L521 508L322 513Q319 513 317 513Q236 513 185 450T115 271Z" />
<glyph unicode="h" glyph-name="h" horiz-adv-x="540" d="M389 540Q465 540 500 490Q526 452 526 403Q526 387 523 370L464 0H440L499 370Q501 386 501 400Q501 445 478 476Q447 516 384 516T271 502T156 455L84 0H60L184 784H208L158 469Q279 540 389 540Z" />
<glyph unicode="i" glyph-name="i" horiz-adv-x="144" d="M60 0L144 531H168L84 0H60ZM177 696H189Q200 696 198 684L192 642Q190 630 178 630H167Q155 630 157 642L163 684Q164 696 177 696Z" />
<glyph unicode="j" glyph-name="j" horiz-adv-x="151" d="M28 -270L155 531H179L94 -4Q67 -181 41 -270H28ZM187 696H199Q210 696 208 684L201 642Q200 630 188 630H177Q164 630 166 642L173 684Q174 696 187 696Z" />
<glyph unicode="k" glyph-name="k" horiz-adv-x="474" d="M242 285Q193 274 167 274T128 275L84 0H60L184 782H208L131 297Q208 297 269 318T370 375Q441 442 468 531H493Q442 347 265 292L437 0H409L242 285Z" />
<glyph unicode="l" glyph-name="l" horiz-adv-x="313" d="M184 0Q83 0 83 118Q83 149 89 189L183 783H207L113 189Q107 153 107 128T109 87T119 60T132 41T150 31Q166 25 205 19T251 13L249 0H184Z" />
<glyph unicode="m" glyph-name="m" horiz-adv-x="921" d="M158 531V469Q279 540 381 540T515 458Q562 489 635 514T765 540Q841 540 877 490Q905 452 905 402Q905 386 902 370L843 0H819L878 370Q880 385 880 399Q880 442 857 474Q826 516 761 516Q661 516 519
446Q525 424 525 405T523 370L464 0H440L499 370Q501 385 501 399Q501 442 478 474Q447 516 384 516T271 502T156 455L84 0H60L144 531H158Z" />
<glyph unicode="n" glyph-name="n" horiz-adv-x="540" d="M158 531V469Q279 540 386 540Q462 540 498 490Q526 452 526 402Q526 386 523 370L464 0H440L499 370Q501 385 501 399Q501 442 478 474Q447 516 384 516T271 502T156 455L84 0H60L144 531H158Z" />
<glyph unicode="o" glyph-name="o" horiz-adv-x="560" d="M116 424T173 480T355 536T516 468Q538 426 538 368T529 251Q506 105 450 50T267 -5T104 56Q82 93 82 150T91 265Q116 424 173 480ZM170 448T150 396T118 271T106 162T113 101T133 60T168 34Q206 19 265
19T359 28T424 62Q481 110 505 258Q515 306 515 331T512 384T500 441T466 485Q425 512 362 512T266 505T202 473Z" />
<glyph unicode="p" glyph-name="p" horiz-adv-x="527" d="M371 537Q463 537 498 464Q520 418 520 364T511 253T487 151T446 67Q395 -10 284 -10Q245 -10 188 0T88 29L41 -270H17L144 527Q208 537 371 537ZM91 45Q209 14 292 14T421 77T488 268Q495 311 495 358T478
446Q450 513 365 513H165L91 45Z" />
<glyph unicode="q" glyph-name="q" horiz-adv-x="552" d="M232 -10Q83 -10 83 152Q83 208 92 277Q134 537 319 537Q483 537 543 527L417 -270H393L440 29Q393 11 332 1T232 -10ZM116 268Q107 211 107 162T122 77Q148 14 232 14T443 45L517 513H316Q231 513 183
447T116 268Z" />
<glyph unicode="r" glyph-name="r" horiz-adv-x="393" d="M255 512T300 524T391 537T460 529L456 506Q424 513 393 513T340 510T304 504T266 492T232 479T193 462T154 444L84 0H60L144 531H156L157 464Q202 488 228 500Z" />
<glyph unicode="s" glyph-name="s" horiz-adv-x="504" d="M310 19Q389 19 414 60Q426 80 431 113L439 162Q440 170 440 178Q440 206 421 229T350 252H219Q142 252 119 271T96 331Q96 348 99 369L106 415Q116 478 152 507T264 536Q402 536 494 527L491 513H260Q198
513 168 489T130 409L123 363Q120 347 120 335T122 313T128 298T140 287T154 281T174 278T196 276H351Q409 276 437 247T465 179Q465 168 463 156L455 107Q441 20 380 3Q351 -5 304 -5Q156 -5 64 5L66 19H310Z" />
<glyph unicode="t" glyph-name="t" horiz-adv-x="344" d="M222 -1Q119 -1 119 119Q119 149 125 188L176 508H92L95 524L180 532L211 680H227L204 532H379L375 508H200L149 188Q143 152 143 127T145 86T155 59T168 40T186 30Q202 24 241 18T287 12L285 -1H222Z" />
<glyph unicode="u" glyph-name="u" horiz-adv-x="539" d="M97 133Q97 90 120 58Q151 16 214 16T327 30T442 77L514 532H538L454 1H440V63Q319 -8 213 -8Q137 -8 100 42Q72 80 72 131Q72 146 75 162L134 532H158L99 162Q97 147 97 133Z" />
<glyph unicode="v" glyph-name="v" horiz-adv-x="533" d="M541 522Q541 495 511 440L256 0H228L94 531H118L246 33L488 448Q521 506 525 532H540Q541 528 541 522Z" />
<glyph unicode="w" glyph-name="w" horiz-adv-x="806" d="M539 521Q539 494 508 438L445 329L522 30L764 446Q800 508 803 532H818Q819 528 819 523Q819 496 788 440L533 0H506L428 300L254 0H228L94 531H118L245 32L484 445Q520 508 523 530H538Q539 526 539 521Z" />
<glyph unicode="x" glyph-name="x" horiz-adv-x="444" d="M24 0L258 266L108 531H140L278 288L492 531H524L290 266L440 0H408L271 243L56 0H24Z" />
<glyph unicode="y" glyph-name="y" horiz-adv-x="536" d="M545 522Q545 493 523 446L310 1Q232 -171 156 -240Q124 -269 97 -269V-255Q117 -255 143 -229T194 -166Q240 -92 270 -26L283 0Q198 8 177 110L94 531H118L200 116Q218 25 295 25L500 454Q523 505 528
538H543Q545 531 545 522Z" />
<glyph unicode="z" glyph-name="z" horiz-adv-x="449" d="M45 1L49 25L472 507H110L114 531H510L506 507L82 25H430L426 1H45Z" />
<glyph unicode="{" glyph-name="braceleft" horiz-adv-x="260" d="M170 323Q170 317 169 311L123 22Q119 -4 119 -26Q119 -71 138 -94Q166 -127 237 -127L233 -150Q180 -150 148 -133T106 -90Q95 -57 95 -26T100 29L144 307Q145 314 145 320Q145 345 124 362T73
380Q70 380 67 380L71 407Q163 415 173 480L211 723Q224 806 266 854T400 902L396 879Q327 879 288 842T234 716L197 480Q191 445 165 422T103 394Q135 389 152 368T170 323Z" />
<glyph unicode="|" glyph-name="bar" horiz-adv-x="215" d="M74 -72L207 770H231L98 -72H74Z" />
<glyph unicode="}" glyph-name="braceright" horiz-adv-x="258" d="M289 394Q256 399 239 419T222 456T223 480L260 716Q265 746 265 782T246 843Q218 881 150 881L154 902Q288 902 288 765Q288 740 283 709L247 480Q246 474 246 465T251 443T270 423Q294 409
325 407L321 380Q318 380 315 380Q286 380 256 361T220 307L174 17Q169 -18 161 -43T132 -95Q93 -150 -13 -150L-9 -127Q62 -127 100 -94T151 22L197 311Q202 342 229 365T289 394Z" />
<glyph unicode="~" glyph-name="asciitilde" horiz-adv-x="488" d="M255 630Q275 630 315 594T371 557Q405 557 468 602Q477 609 478 610L483 603Q457 581 444 571Q403 541 368 541Q346 541 307 577T257 614T238 613T222 609T207 603T192 594T177 586Q164 579
144 564L140 572Q215 630 255 630Z" />
<glyph unicode="&#xa1;" glyph-name="exclamdown" horiz-adv-x="239" d="M45 -270L135 266H147L67 -270H45ZM165 460H177Q189 460 187 450L176 387Q174 374 162 374H151Q139 374 141 387L152 450Q154 460 165 460Z" />
<glyph unicode="&#xa2;" glyph-name="cent" horiz-adv-x="478" d="M491 496Q384 512 321 512T231 503T180 468Q129 418 105 262Q95 212 95 189T96 140T105 88T131 45Q162 19 210 19Q292 19 394 35L426 40L423 24Q332 -1 249 -4L236 -82H218L230 -5Q224 -5 209
-5T174 -2T132 12Q92 32 76 94Q69 121 69 142T69 189T80 273Q98 393 132 448Q168 505 212 521Q255 536 316 536L329 618H347L334 535Q412 530 493 510L491 496Z" />
<glyph unicode="&#xa3;" glyph-name="sterling" horiz-adv-x="559" d="M464 709Q419 709 390 706T332 690T284 656Q243 608 226 505L205 372L495 364L492 350H201L150 24H519L515 0H50L52 14L126 24L177 350H105L108 364L181 372L202 505Q221 622 272 678Q293
701 327 713T391 729T466 732L631 723L628 709H464Z" />
<glyph unicode="&#xa4;" glyph-name="currency" horiz-adv-x="469" d="M432 339Q432 264 372 201L404 163L393 154L362 192Q306 143 240 143T134 195L87 154L79 164L127 205Q103 244 103 290Q103 368 167 426L127 472L137 481L176 434Q229 477 291 477T392 438L445
482L454 472L401 428Q432 390 432 339ZM117 287Q117 240 144 204Q180 158 242 158T355 204Q418 261 418 340Q418 385 385 423T291 462T179 418Q117 364 117 287Z" />
<glyph unicode="&#xa5;" glyph-name="yen" horiz-adv-x="583" d="M106 198L108 212H304L319 307H123L125 321H320L144 732H171L336 346L643 732H674L346 321H552L550 307H343L328 212H535L533 198H326L295 0H271L302 198H106Z" />
<glyph unicode="&#xa6;" glyph-name="brokenbar" horiz-adv-x="217" d="M74 -72L126 256H150L98 -72H74ZM153 429L207 770H231L177 429H153Z" />
<glyph unicode="&#xa7;" glyph-name="section" horiz-adv-x="559" d="M458 265Q499 256 499 220Q499 211 496 183L484 110Q470 21 404 2Q373 -8 327 -8Q186 -8 93 2L95 16H331Q389 16 420 36T460 110L472 183Q474 196 474 214T460 243T375 255H226Q167 255 155
259T134 268T120 280T112 299Q106 317 112 358L121 423Q132 498 191 508Q147 516 147 568Q147 578 149 590L160 662Q180 784 310 784Q460 784 552 774L550 760H306Q200 760 184 660L173 590Q171 579 171 571Q171 543 190 531T268 518H417Q498 518 520 493Q536 476
536 452T533 409L523 347Q519 323 514 308T495 280T458 265ZM133 339T133 329T134 308T144 292T155 284T175 280T198 279H379Q453 279 472 290T499 354L509 416Q511 431 511 450T496 482T413 495H264Q186 495 170 478Q152 457 145 414L136 353Q133 339 133 329Z"
/>
<glyph unicode="&#xa8;" glyph-name="dieresis" horiz-adv-x="443" d="M176 582Q172 564 157 564T141 579Q141 599 162 599Q179 599 176 582ZM431 582Q427 564 412 564T396 579Q396 599 417 599Q431 599 431 587Q431 585 431 582Z" />
<glyph unicode="&#xa9;" glyph-name="copyright" horiz-adv-x="867" d="M409 732H665Q721 732 758 705T812 639Q838 579 838 482Q838 434 827 364Q802 208 730 104T550 0H294Q241 0 202 25T144 92Q104 178 104 263Q104 298 111 371Q138 551 228 652Q260 688 307
710T409 732ZM125 368Q116 328 116 297T120 225T141 132T199 47T295 14H552Q641 14 713 107T813 368Q823 441 823 482T822 544Q817 621 777 669T665 718H407Q311 718 234 637T125 368ZM465 583Q548 583 640 566L639 557Q556 569 463 569Q333 569 300 362Q293 321
293 281Q293 161 398 161Q514 161 585 177L583 168Q505 147 396 147Q329 147 298 196Q279 226 279 273T286 368Q321 583 465 583Z" />
<glyph unicode="&#xaa;" glyph-name="ordfeminine" horiz-adv-x="337" d="M72 291L74 304H353L351 291H72ZM284 733Q362 733 408 683L361 381H351L353 437Q330 410 294 394T220 377Q166 377 130 421Q104 452 104 511Q104 583 123 625T157 685T194 713Q225 730
249 731T284 733ZM124 560Q120 537 120 504T139 439Q166 393 224 393T356 451L391 679Q381 693 347 704T293 716T269 716Q148 713 124 560Z" />
<glyph unicode="&#xab;" glyph-name="guillemotleft" horiz-adv-x="562" d="M106 354L343 558L358 541L140 352L300 161L283 145L106 354ZM291 354L528 558L543 541L323 353L487 160L468 145L291 354Z" />
<glyph unicode="&#xac;" glyph-name="logicalnot" horiz-adv-x="535" d="M491 305Q482 242 468 159H444L463 281H90L94 305H491Z" />
<glyph unicode="&#xad;" glyph-name="uni00AD" horiz-adv-x="361" d="M60 278L64 302H378L374 278H60Z" />
<glyph unicode="&#xae;" glyph-name="registered" horiz-adv-x="867" d="M409 732H665Q721 732 758 705T812 639Q838 579 838 482Q838 434 827 364Q802 208 730 104T550 0H294Q241 0 202 25T144 92Q104 177 104 263Q104 297 111 370Q138 550 228 652Q260 687 307
709T409 732ZM125 368Q116 328 116 297T120 225T140 132T197 47T293 14H552Q641 14 713 107T813 368Q823 441 823 482T822 544Q817 621 778 669T666 718H407Q311 718 234 637T125 368ZM532 580Q639 580 639 488Q639 415 603 372Q580 346 508 346L589 153H574L493
345L333 350L302 153H288L355 580H532ZM503 359Q558 359 585 377T622 453Q625 472 625 497T610 540Q587 566 536 566H367L334 359H503Z" />
<glyph unicode="&#xaf;" glyph-name="overscore" horiz-adv-x="393" d="M134 531L136 546H388L386 531H134Z" />
<glyph unicode="&#xb0;" glyph-name="degree" horiz-adv-x="355" d="M223 735T265 735T330 708T353 650Q353 597 317 564T238 530T172 557T148 615Q148 667 185 701ZM162 617Q162 590 181 567T237 544T302 570Q339 601 339 648Q339 675 320 698T265 721T199 695Q162
663 162 617Z" />
<glyph unicode="&#xb1;" glyph-name="plusminus" horiz-adv-x="512" d="M69 137L73 161H459L455 137H69ZM112 411L116 435H297L326 616H350L321 435H502L498 411H317L289 230H265L293 411H112Z" />
<glyph unicode="&#xb2;" glyph-name="twosuperior" horiz-adv-x="397" d="M398 647T408 665T420 700T423 742T409 788Q389 820 322 820H145L146 830L147 831Q206 838 331 838Q400 838 426 798Q443 771 443 743T440 693T419 644T374 587T318 532T254 477T195 432Q120
376 115 374H387L384 356H75L77 370Q79 371 104 389T140 415T180 444T226 479T270 514T314 553T352 591T385 629Z" />
<glyph unicode="&#xb3;" glyph-name="threesuperior" horiz-adv-x="426" d="M252 370Q316 370 347 392T388 475L391 498Q392 505 392 512Q392 544 365 565T295 588L152 592L154 602L291 606Q340 608 379 630T423 689L427 725Q429 736 429 745Q429 815 337 815H144L145
825Q187 833 341 833Q403 833 425 806T447 743Q447 733 445 722L439 684Q434 646 401 623T342 597Q366 592 388 569T411 514Q411 507 410 499L405 469Q396 412 363 382T260 352Q126 352 76 363L77 370H252Z" />
<glyph unicode="&#xb4;" glyph-name="acute" horiz-adv-x="197" d="M104 531L246 664H272L118 531H104Z" />
<glyph unicode="&#xb5;" glyph-name="uni00B5" horiz-adv-x="582" d="M137 133Q137 90 160 58Q191 16 254 16T367 30T482 77L554 532H578L494 1H480V63Q359 -8 252 -8Q158 -8 125 69L71 -270H47L174 532H198L139 162Q137 147 137 133Z" />
<glyph unicode="&#xb6;" glyph-name="paragraph" horiz-adv-x="559" d="M311 732H646L642 706H573L461 0H437L549 708H385L230 -270H206L307 365Q294 357 275 357T251 357Q177 357 142 400Q116 434 116 479Q116 492 118 506L133 599Q143 665 194 698T311 732ZM142
501Q140 488 140 471T150 432T182 398Q221 379 255 379H309L361 708H307Q245 708 205 676T156 592L142 501Z" />
<glyph unicode="&#xb7;" glyph-name="middot" horiz-adv-x="281" d="M155 400H167Q178 400 176 388L174 376Q172 364 161 364H149Q137 364 139 376L141 388Q142 400 155 400Z" />
<glyph unicode="&#xb8;" glyph-name="cedilla" horiz-adv-x="271" d="M53 -173H22L23 -166L57 -161Q90 -156 106 -149T137 -116T159 -37H176Q164 -114 139 -143T53 -173Z" />
<glyph unicode="&#xb9;" glyph-name="onesuperior" horiz-adv-x="276" d="M115 756L116 767Q152 767 191 783T252 817L274 834H292L216 356H198L269 807Q202 756 115 756Z" />
<glyph unicode="&#xba;" glyph-name="ordmasculine" horiz-adv-x="367" d="M83 291L85 304H364L362 291H83ZM130 664T165 700T292 737T408 696Q420 674 420 634T412 545Q396 445 362 409T236 373T120 414Q106 438 106 476T112 555Q130 664 165 700ZM128 550Q122
511 122 476T135 422Q157 389 237 389T349 420T396 550Q404 598 404 633T393 688Q373 721 291 721T177 689T128 550Z" />
<glyph unicode="&#xbb;" glyph-name="guillemotright" horiz-adv-x="559" d="M81 163L306 357L149 542L167 558L339 354L96 145L81 163ZM266 163L492 356L334 543L352 558L524 354L281 145L266 163Z" />
<glyph unicode="&#xbc;" glyph-name="onequarter" horiz-adv-x="922" d="M115 656L116 667Q152 667 191 683T252 717L274 734H292L216 256H198L269 707Q202 656 115 656ZM210 0L718 770H738L230 0H210ZM503 177L740 475H762L534 186H795L814 307L831 355H840L813
186H872L871 178L810 167L784 1H766L792 167H505L503 177Z" />
<glyph unicode="&#xbd;" glyph-name="onehalf" horiz-adv-x="948" d="M115 656L116 667Q152 667 191 683T252 717L274 734H292L216 256H198L269 707Q202 656 115 656ZM164 0L672 770H692L184 0H164ZM867 292T877 310T889 345T892 387T878 434Q858 465 791 465H614L615
475L616 476Q675 483 800 483Q912 483 912 380Q912 332 894 301T857 246T809 195T757 147T702 103T653 66T611 37T586 19H856L853 1H544L546 15Q548 16 573 34T609 60T649 89T695 124T739 159T783 198T821 236T854 274Z" />
<glyph unicode="&#xbe;" glyph-name="threequarters" horiz-adv-x="1032" d="M252 270Q316 270 347 292T388 375L391 398Q392 405 392 412Q392 444 365 465T295 488L152 492L154 502L291 506Q340 508 379 530T423 589L427 625Q429 636 429 645Q429 715 337 715H144L145
725Q187 733 341 733Q403 733 425 706T447 643Q447 633 445 622L439 584Q434 546 401 523T342 497Q366 492 388 469T411 414Q411 407 410 399L405 369Q396 312 363 282T260 252Q126 252 76 263L77 270H252ZM316 0L824 770H844L336 0H316ZM587 177L825 475H847L617
186H880L899 307L916 355H925L898 186H957L956 178L895 167L869 1H851L877 167H590L587 177Z" />
<glyph unicode="&#xbf;" glyph-name="questiondown" horiz-adv-x="541" d="M263 178Q296 178 335 174L351 276H377L358 154H252Q171 154 126 123T68 18L52 -84Q48 -110 48 -131Q48 -183 72 -208Q107 -244 202 -244H453L451 -258Q363 -268 197 -268Q193 -268 188
-268Q85 -268 50 -222Q24 -187 24 -130Q24 -107 28 -80L44 20Q59 116 128 152Q177 178 263 178ZM390 470H401Q413 470 411 458L402 396Q400 384 388 384H376Q365 384 367 396L376 458Q378 470 390 470Z" />
<glyph unicode="&#xc0;" glyph-name="Agrave" horiz-adv-x="643" d="M343 930H369L469 797H455L343 930ZM45 0L435 732H469L615 0H591L540 253H207L73 0H45ZM220 277H535L449 709L220 277Z" />
<glyph unicode="&#xc1;" glyph-name="Aacute" horiz-adv-x="643" d="M455 797L597 930H623L469 797H455ZM45 0L435 732H469L615 0H591L540 253H207L73 0H45ZM220 277H535L449 709L220 277Z" />
<glyph unicode="&#xc2;" glyph-name="Acircumflex" horiz-adv-x="643" d="M326 797L479 927H500L598 797H581L487 912L344 797H326ZM45 0L435 732H469L615 0H591L540 253H207L73 0H45ZM220 277H535L449 709L220 277Z" />
<glyph unicode="&#xc3;" glyph-name="Atilde" horiz-adv-x="643" d="M412 886Q430 886 452 868T495 832T526 813T542 814T556 817T568 822T581 829T594 836T606 844T616 851T627 859T636 866L641 859Q583 810 562 804T525 797T487 815T445 852T414 870T396 869T380
865T366 859T350 850T335 842T319 831T302 820L298 828Q374 886 412 886ZM45 0L435 732H469L615 0H591L540 253H207L73 0H45ZM220 277H535L449 709L220 277Z" />
<glyph unicode="&#xc4;" glyph-name="Adieresis" horiz-adv-x="643" d="M341 832Q349 832 353 827T355 815Q352 797 335 797Q328 797 324 802T320 815Q324 832 341 832ZM596 832Q604 832 608 827T610 815Q607 797 590 797Q583 797 579 802T575 815Q579 832 596
832ZM45 0L435 732H469L615 0H591L540 253H207L73 0H45ZM220 277H535L449 709L220 277Z" />
<glyph unicode="&#xc5;" glyph-name="Aring" horiz-adv-x="643" d="M444 935T486 935T550 909T572 850Q572 797 534 764T454 730T389 756T366 815Q366 868 405 901ZM381 817Q381 791 400 768T450 745T502 757Q558 787 558 847Q558 874 539 897T484 920T418 894Q381
862 381 817ZM45 0L435 732H469L615 0H591L540 253H207L73 0H45ZM220 277H535L449 709L220 277Z" />
<glyph unicode="&#xc6;" glyph-name="AE" horiz-adv-x="896" d="M708 732Q714 732 720 732L985 722L983 708H716Q649 708 630 691Q622 683 617 679T609 662T604 643T600 618T596 592L561 375L890 370L887 356L558 351L521 123Q518 106 518 93Q518 56 541 39T617
21H874L872 7L622 -3Q616 -3 603 -3T570 0Q495 14 495 90Q495 104 497 121L518 252H259L60 0H30L499 590Q564 672 588 692Q635 732 708 732ZM279 276H522L582 657L279 276Z" />
<glyph unicode="&#xc7;" glyph-name="Ccedilla" horiz-adv-x="564" d="M238 693T290 716T422 740T629 716L627 702Q613 704 601 705T572 707T537 710T497 713Q437 716 415 716Q337 716 287 688Q183 628 141 366Q130 296 130 241Q130 18 306 18Q400 18 490 27L520
30L518 16Q396 -6 301 -6Q105 -6 105 240Q105 301 118 385T151 531T204 643ZM225 -172H194L195 -165L228 -160Q261 -155 277 -148T308 -115T330 -36H347Q335 -114 310 -143T225 -172Z" />
<glyph unicode="&#xc8;" glyph-name="Egrave" horiz-adv-x="561" d="M310 925H336L436 792H422L310 925ZM313 732Q317 732 320 732L616 722L614 708H317Q215 708 198 602L162 375L520 370L518 356L158 351L122 123Q119 106 119 93Q119 56 142 39T218 21H505L503
7L214 -3Q210 -3 206 -3Q95 -3 95 91Q95 108 98 128L174 607Q185 675 224 703T313 732Z" />
<glyph unicode="&#xc9;" glyph-name="Eacute" horiz-adv-x="561" d="M408 792L550 925H576L422 792H408ZM313 732Q317 732 320 732L616 722L614 708H317Q215 708 198 602L162 375L520 370L518 356L158 351L122 123Q119 106 119 93Q119 56 142 39T218 21H505L503
7L214 -3Q210 -3 206 -3Q95 -3 95 91Q95 108 98 128L174 607Q185 675 224 703T313 732Z" />
<glyph unicode="&#xca;" glyph-name="Ecircumflex" horiz-adv-x="561" d="M294 792L447 922H468L566 792H549L455 907L312 792H294ZM313 732Q317 732 320 732L616 722L614 708H317Q215 708 198 602L162 375L520 370L518 356L158 351L122 123Q119 106 119 93Q119
56 142 39T218 21H505L503 7L214 -3Q210 -3 206 -3Q95 -3 95 91Q95 108 98 128L174 607Q185 675 224 703T313 732Z" />
<glyph unicode="&#xcb;" glyph-name="Edieresis" horiz-adv-x="561" d="M283 843Q286 860 303 860T318 843Q314 825 298 825Q290 825 286 830T283 843ZM538 843Q541 860 558 860T573 843Q569 825 553 825Q545 825 541 830T538 843ZM313 732Q317 732 320 732L616
722L614 708H317Q215 708 198 602L162 375L520 370L518 356L158 351L122 123Q119 106 119 93Q119 56 142 39T218 21H505L503 7L214 -3Q210 -3 206 -3Q95 -3 95 91Q95 108 98 128L174 607Q185 675 224 703T313 732Z" />
<glyph unicode="&#xcc;" glyph-name="Igrave" horiz-adv-x="192" d="M109 930H135L235 797H221L109 930ZM90 0L206 732H230L114 0H90Z" />
<glyph unicode="&#xcd;" glyph-name="Iacute" horiz-adv-x="192" d="M221 797L363 930H389L235 797H221ZM90 0L206 732H230L114 0H90Z" />
<glyph unicode="&#xce;" glyph-name="Icircumflex" horiz-adv-x="192" d="M92 797L245 927H266L364 797H347L253 912L110 797H92ZM90 0L206 732H230L114 0H90Z" />
<glyph unicode="&#xcf;" glyph-name="Idieresis" horiz-adv-x="192" d="M107 832Q115 832 119 827T121 815Q118 797 101 797Q94 797 90 801T86 811Q86 832 107 832ZM341 815Q345 832 361 832T377 819Q377 797 356 797Q349 797 345 802T341 815ZM90 0L206 732H230L114
0H90Z" />
<glyph unicode="&#xd0;" glyph-name="Eth" horiz-adv-x="686" d="M447 732Q512 732 557 707T624 642Q661 578 661 474Q661 422 648 351T611 218T550 106Q472 0 338 0H79L137 366H72L74 380H139L195 732H447ZM338 24Q403 24 455 55T541 140Q605 241 625 364Q636
430 636 482Q636 570 606 623Q558 708 442 708H215L163 380H322L320 366H161L107 24H338Z" />
<glyph unicode="&#xd1;" glyph-name="Ntilde" horiz-adv-x="642" d="M401 886Q418 886 440 868T484 832T514 813T530 814T544 817T557 822T570 829T582 836T594 844T605 851T616 859T625 866L630 859Q572 810 551 804T516 797T484 808T454 834Q419 870 400 870Q366
870 307 831Q295 823 291 820L287 828Q362 886 401 886ZM80 0L196 732H221L551 43L661 732H685L569 0H545L214 690L104 0H80Z" />
<glyph unicode="&#xd2;" glyph-name="Ograve" horiz-adv-x="684" d="M338 930H364L464 797H450L338 930ZM314 726T351 731T441 737T527 733T589 714T636 674Q670 619 670 526Q670 459 655 359T617 193T569 89T504 29T425 2T326 -4T230 2T161 31T115 94T102 204T118
370T157 538T207 646T273 705ZM176 522T164 473T140 347T128 239T127 177T137 111T175 54T238 27T330 20T424 27T496 54T554 113Q603 192 630 361Q645 454 645 519T633 624T591 682T529 707T453 713T388 712T341 706T296 691T257 664T221 621T191 558Z" />
<glyph unicode="&#xd3;" glyph-name="Oacute" horiz-adv-x="684" d="M450 797L592 930H618L464 797H450ZM314 726T351 731T441 737T527 733T589 714T636 674Q670 619 670 526Q670 459 655 359T617 193T569 89T504 29T425 2T326 -4T230 2T161 31T115 94T102 204T118
370T157 538T207 646T273 705ZM176 522T164 473T140 347T128 239T127 177T137 111T175 54T238 27T330 20T424 27T496 54T554 113Q603 192 630 361Q645 454 645 519T633 624T591 682T529 707T453 713T388 712T341 706T296 691T257 664T221 621T191 558Z" />
<glyph unicode="&#xd4;" glyph-name="Ocircumflex" horiz-adv-x="684" d="M321 797L474 927H495L593 797H576L482 912L339 797H321ZM314 726T351 731T441 737T527 733T589 714T636 674Q670 619 670 526Q670 459 655 359T617 193T569 89T504 29T425 2T326 -4T230
2T161 31T115 94T102 204T118 370T157 538T207 646T273 705ZM176 522T164 473T140 347T128 239T127 177T137 111T175 54T238 27T330 20T424 27T496 54T554 113Q603 192 630 361Q645 454 645 519T633 624T591 682T529 707T453 713T388 712T341 706T296 691T257 664T221
621T191 558Z" />
<glyph unicode="&#xd5;" glyph-name="Otilde" horiz-adv-x="684" d="M394 886T409 886T446 868T489 832T519 813T535 814T547 816T559 821T570 826T582 832T592 839T603 846T613 853T622 860T631 866L636 859Q577 810 557 804T521 797T490 808T460 834Q425 870
406 870Q372 870 313 831Q301 823 297 820L293 828Q351 873 372 879ZM314 726T351 731T441 737T527 733T589 714T636 674Q670 619 670 526Q670 459 655 359T617 193T569 89T504 29T425 2T326 -4T230 2T161 31T115 94T102 204T118 370T157 538T207 646T273 705ZM176
522T164 473T140 347T128 239T127 177T137 111T175 54T238 27T330 20T424 27T496 54T554 113Q603 192 630 361Q645 454 645 519T633 624T591 682T529 707T453 713T388 712T341 706T296 691T257 664T221 621T191 558Z" />
<glyph unicode="&#xd6;" glyph-name="Odieresis" horiz-adv-x="684" d="M336 832Q343 832 347 827T350 815Q346 797 330 797Q322 797 318 802T315 815Q318 832 336 832ZM591 832Q598 832 602 827T605 815Q601 797 585 797Q577 797 573 802T570 815Q573 832 591
832ZM314 726T351 731T441 737T527 733T589 714T636 674Q670 619 670 526Q670 459 655 359T617 193T569 89T504 29T425 2T326 -4T230 2T161 31T115 94T102 204T118 370T157 538T207 646T273 705ZM176 522T164 473T140 347T128 239T127 177T137 111T175 54T238 27T330
20T424 27T496 54T554 113Q603 192 630 361Q645 454 645 519T633 624T591 682T529 707T453 713T388 712T341 706T296 691T257 664T221 621T191 558Z" />
<glyph unicode="&#xd7;" glyph-name="multiply" horiz-adv-x="443" d="M93 228L241 356L134 484L151 499L259 371L409 501L423 484L273 354L381 226L363 211L256 339L107 211L93 228Z" />
<glyph unicode="&#xd8;" glyph-name="Oslash" horiz-adv-x="684" d="M132 59Q103 103 103 186T116 353T144 492T175 588T214 655T259 698T312 723Q361 737 437 737T560 726T632 682L672 732H690L640 670Q670 622 670 537T655 355T617 193T569 89T504 29T425 2T320
-4T210 6T141 47L103 0H85L132 59ZM176 522T164 473T140 345T127 193T150 80L615 662Q592 694 552 703T460 713T388 712T341 706T296 691T257 664T221 621T191 558ZM180 40T222 30T334 20T447 31T528 79T589 182T628 353T645 532T623 649L158 68Q180 40 222 30Z"
/>
<glyph unicode="&#xd9;" glyph-name="Ugrave" horiz-adv-x="681" d="M341 930H367L467 797H453L341 930ZM155 320Q142 240 142 212T143 165T148 123T160 85T178 58T202 39T230 28T263 22Q300 19 335 19T391 20T440 29T486 48T526 82T562 136Q598 210 614 320L679
732H703L638 320Q621 219 604 176T575 108T547 66T517 37T483 17T450 5T414 -2Q380 -5 311 -5T205 10Q119 43 119 188Q119 244 131 320L196 732H220L155 320Z" />
<glyph unicode="&#xda;" glyph-name="Uacute" horiz-adv-x="681" d="M453 797L595 930H621L467 797H453ZM155 320Q142 240 142 212T143 165T148 123T160 85T178 58T202 39T230 28T263 22Q300 19 335 19T391 20T440 29T486 48T526 82T562 136Q598 210 614 320L679
732H703L638 320Q621 219 604 176T575 108T547 66T517 37T483 17T450 5T414 -2Q380 -5 311 -5T205 10Q119 43 119 188Q119 244 131 320L196 732H220L155 320Z" />
<glyph unicode="&#xdb;" glyph-name="Ucircumflex" horiz-adv-x="681" d="M324 797L477 927H498L596 797H579L485 912L342 797H324ZM155 320Q142 240 142 212T143 165T148 123T160 85T178 58T202 39T230 28T263 22Q300 19 335 19T391 20T440 29T486 48T526 82T562
136Q598 210 614 320L679 732H703L638 320Q621 219 604 176T575 108T547 66T517 37T483 17T450 5T414 -2Q380 -5 311 -5T205 10Q119 43 119 188Q119 244 131 320L196 732H220L155 320Z" />
<glyph unicode="&#xdc;" glyph-name="Udieresis" horiz-adv-x="681" d="M339 832Q346 832 350 827T353 815Q349 797 333 797Q325 797 321 802T318 815Q321 832 339 832ZM594 832Q601 832 605 827T608 815Q604 797 588 797Q580 797 576 802T573 815Q576 832 594
832ZM155 320Q142 240 142 212T143 165T148 123T160 85T178 58T202 39T230 28T263 22Q300 19 335 19T391 20T440 29T486 48T526 82T562 136Q598 210 614 320L679 732H703L638 320Q621 219 604 176T575 108T547 66T517 37T483 17T450 5T414 -2Q380 -5 311 -5T205
10Q119 43 119 188Q119 244 131 320L196 732H220L155 320Z" />
<glyph unicode="&#xdd;" glyph-name="Yacute" horiz-adv-x="628" d="M418 797L560 930H586L432 797H418ZM150 732H177L333 292L651 732H680L342 260L301 0H277L318 260L150 732Z" />
<glyph unicode="&#xde;" glyph-name="Thorn" horiz-adv-x="553" d="M60 0Q60 0 175 729H199L177 588H394Q446 588 486 563Q528 537 540 462Q543 447 543 425T536 358T510 270T471 205T422 169Q379 149 325 149Q147 153 109 159L84 0H60ZM328 173Q403 173 449 219T513
377Q519 406 519 426T515 469T500 513T470 544Q435 564 390 564H173L111 173H328Z" />
<glyph unicode="&#xdf;" glyph-name="germandbls" horiz-adv-x="548" d="M388 777Q579 777 579 657Q579 592 516 520Q489 490 463 473T405 436T358 407Q315 379 315 338Q315 292 396 281Q434 276 470 270T528 243T549 194Q549 186 548 178L541 129Q531 62 484
27T364 -8Q263 -8 190 7L192 21Q284 16 344 16T435 27T482 58Q511 93 517 132L524 178Q525 185 525 191Q525 216 504 231T445 252T371 263T313 288T292 335Q292 355 300 374T317 401T332 414T353 430T378 446Q431 480 453 494T505 543Q557 606 557 661Q557 695
533 716Q492 753 396 753T244 705T174 566L84 0H60L150 566Q164 659 225 718T388 777Z" />
<glyph unicode="&#xe0;" glyph-name="agrave" horiz-adv-x="545" d="M233 736H259L359 603H345L233 736ZM238 527T259 532T303 540T355 543T442 529T536 479L466 0H452L453 60Q422 40 360 17T253 -7T182 0T130 26T94 77Q79 121 79 172T90 284T121 393T160 467T209
510ZM103 175Q103 16 238 16Q276 16 301 22T336 29T368 40T395 50T425 63T453 75L511 476Q440 520 355 520Q232 520 176 446Q131 388 109 246Q103 207 103 175Z" />
<glyph unicode="&#xe1;" glyph-name="aacute" horiz-adv-x="545" d="M345 603L487 736H513L359 603H345ZM238 527T259 532T303 540T355 543T442 529T536 479L466 0H452L453 60Q422 40 360 17T253 -7T182 0T130 26T94 77Q79 121 79 172T90 284T121 393T160 467T209
510ZM103 175Q103 16 238 16Q276 16 301 22T336 29T368 40T395 50T425 63T453 75L511 476Q440 520 355 520Q232 520 176 446Q131 388 109 246Q103 207 103 175Z" />
<glyph unicode="&#xe2;" glyph-name="acircumflex" horiz-adv-x="545" d="M216 603L369 733H390L488 603H471L377 718L234 603H216ZM238 527T259 532T303 540T355 543T442 529T536 479L466 0H452L453 60Q422 40 360 17T253 -7T182 0T130 26T94 77Q79 121 79 172T90
284T121 393T160 467T209 510ZM103 175Q103 16 238 16Q276 16 301 22T336 29T368 40T395 50T425 63T453 75L511 476Q440 520 355 520Q232 520 176 446Q131 388 109 246Q103 207 103 175Z" />
<glyph unicode="&#xe3;" glyph-name="atilde" horiz-adv-x="545" d="M289 692T304 692T342 674T385 637T416 619T432 620T446 623T458 628T471 635T483 642T495 650T506 657T517 665T526 672L531 665Q484 625 469 617Q438 603 420 603T385 614T355 639Q321 676
301 676Q268 676 209 637Q197 629 192 626L188 634Q247 679 268 685ZM238 527T259 532T303 540T355 543T442 529T536 479L466 0H452L453 60Q422 40 360 17T253 -7T182 0T130 26T94 77Q79 121 79 172T90 284T121 393T160 467T209 510ZM103 175Q103 16 238 16Q276
16 301 22T336 29T368 40T395 50T425 63T453 75L511 476Q440 520 355 520Q232 520 176 446Q131 388 109 246Q103 207 103 175Z" />
<glyph unicode="&#xe4;" glyph-name="adieresis" horiz-adv-x="545" d="M231 638Q239 638 243 633T245 621Q242 603 225 603Q218 603 214 608T210 621Q214 638 231 638ZM486 638Q494 638 498 633T500 621Q497 603 480 603Q473 603 469 608T465 621Q469 638 486
638ZM238 527T259 532T303 540T355 543T442 529T536 479L466 0H452L453 60Q422 40 360 17T253 -7T182 0T130 26T94 77Q79 121 79 172T90 284T121 393T160 467T209 510ZM103 175Q103 16 238 16Q276 16 301 22T336 29T368 40T395 50T425 63T453 75L511 476Q440 520
355 520Q232 520 176 446Q131 388 109 246Q103 207 103 175Z" />
<glyph unicode="&#xe5;" glyph-name="aring" horiz-adv-x="545" d="M344 808T386 808T450 781T472 723Q472 685 451 657Q412 603 353 603Q311 603 289 629T266 688Q266 741 305 774ZM281 690Q281 664 300 641T356 618T421 643Q457 675 457 720Q457 747 438 770T383
793T318 767Q281 735 281 690ZM238 527T259 532T303 540T355 543T442 529T536 479L466 0H452L453 60Q422 40 360 17T253 -7T182 0T130 26T94 77Q79 121 79 172T90 284T121 393T160 467T209 510ZM103 175Q103 16 238 16Q276 16 301 22T336 29T368 40T395 50T425
63T453 75L511 476Q440 520 355 520Q232 520 176 446Q131 388 109 246Q103 207 103 175Z" />
<glyph unicode="&#xe6;" glyph-name="ae" horiz-adv-x="963" d="M787 250T732 239T592 228T460 247Q454 198 454 168T456 120Q461 69 488 44Q516 17 585 17T804 38L801 22Q695 -7 568 -7Q467 -7 440 74Q436 72 413 59T378 41T342 24T298 8Q168 -31 90 26Q65 45
54 77Q39 121 39 172T50 284T81 393T121 467T171 510T221 532Q265 542 302 542T403 525T510 475Q567 541 693 541Q794 541 843 506Q883 477 883 417Q883 335 830 288Q787 250 732 239ZM63 175Q63 16 198 16Q227 16 264 25T319 41T385 69T435 92Q429 119 429 163T445
303T498 461Q392 519 304 519Q286 519 269 517Q180 505 136 447T69 246Q63 207 63 175ZM574 249T609 249T689 256T767 277T826 320Q858 356 858 409T821 490T715 517T606 503T544 474T505 418T482 355T470 298T462 261Q470 260 483 258T535 252Z" />
<glyph unicode="&#xe7;" glyph-name="ccedilla" horiz-adv-x="494" d="M207 518T237 527T330 536T504 510L501 496Q395 512 332 512T242 503T190 468Q139 418 115 262Q105 212 105 189T106 140T115 88T142 45Q174 19 221 19Q304 19 404 35L436 40L434 24Q332 -4
224 -5Q117 -5 94 74Q81 118 81 167T92 273Q118 439 178 492Q207 518 237 527ZM145 -171H114L115 -164L149 -159Q182 -154 198 -147T229 -114T251 -35H268Q256 -112 231 -141T145 -171Z" />
<glyph unicode="&#xe8;" glyph-name="egrave" horiz-adv-x="537" d="M230 734H256L356 601H342L230 734ZM433 250T378 239T238 228T106 247Q99 197 99 151T112 72Q135 17 218 17T450 38L447 22Q341 -7 214 -7Q120 -7 91 62Q75 98 75 153T85 270T104 365T131 435T174
494Q232 541 336 541T489 506Q529 477 529 417Q529 335 476 288Q433 250 378 239ZM220 249T255 249T335 256T413 277T472 320Q504 356 504 409T467 490T347 517Q279 517 222 494Q190 482 156 432Q147 418 137 386Q117 323 108 261Q116 260 129 258T181 252Z" />
<glyph unicode="&#xe9;" glyph-name="eacute" horiz-adv-x="537" d="M342 601L484 734H510L356 601H342ZM433 250T378 239T238 228T106 247Q99 197 99 151T112 72Q135 17 218 17T450 38L447 22Q341 -7 214 -7Q120 -7 91 62Q75 98 75 153T85 270T104 365T131 435T174
494Q232 541 336 541T489 506Q529 477 529 417Q529 335 476 288Q433 250 378 239ZM220 249T255 249T335 256T413 277T472 320Q504 356 504 409T467 490T347 517Q279 517 222 494Q190 482 156 432Q147 418 137 386Q117 323 108 261Q116 260 129 258T181 252Z" />
<glyph unicode="&#xea;" glyph-name="ecircumflex" horiz-adv-x="537" d="M213 601L366 731H387L485 601H468L374 716L231 601H213ZM433 250T378 239T238 228T106 247Q99 197 99 151T112 72Q135 17 218 17T450 38L447 22Q341 -7 214 -7Q120 -7 91 62Q75 98 75
153T85 270T104 365T131 435T174 494Q232 541 336 541T489 506Q529 477 529 417Q529 335 476 288Q433 250 378 239ZM220 249T255 249T335 256T413 277T472 320Q504 356 504 409T467 490T347 517Q279 517 222 494Q190 482 156 432Q147 418 137 386Q117 323 108 261Q116
260 129 258T181 252Z" />
<glyph unicode="&#xeb;" glyph-name="edieresis" horiz-adv-x="537" d="M228 636Q235 636 239 631T242 619Q238 601 222 601Q214 601 210 606T207 619Q210 636 228 636ZM483 636Q490 636 494 631T497 619Q493 601 477 601Q469 601 465 606T462 619Q465 636 483
636ZM433 250T378 239T238 228T106 247Q99 197 99 151T112 72Q135 17 218 17T450 38L447 22Q341 -7 214 -7Q120 -7 91 62Q75 98 75 153T85 270T104 365T131 435T174 494Q232 541 336 541T489 506Q529 477 529 417Q529 335 476 288Q433 250 378 239ZM220 249T255
249T335 256T413 277T472 320Q504 356 504 409T467 490T347 517Q279 517 222 494Q190 482 156 432Q147 418 137 386Q117 323 108 261Q116 260 129 258T181 252Z" />
<glyph unicode="&#xec;" glyph-name="igrave" horiz-adv-x="165" d="M5 729H31L131 596H117L5 729ZM60 0L144 531H168L84 0H60Z" />
<glyph unicode="&#xed;" glyph-name="iacute" horiz-adv-x="165" d="M117 596L259 729H285L131 596H117ZM60 0L144 531H168L84 0H60Z" />
<glyph unicode="&#xee;" glyph-name="icircumflex" horiz-adv-x="165" d="M-12 596L141 726H162L260 596H243L149 711L6 596H-12ZM60 0L144 531H168L84 0H60Z" />
<glyph unicode="&#xef;" glyph-name="idieresis" horiz-adv-x="165" d="M3 631Q11 631 15 626T17 614Q14 596 -3 596Q-10 596 -14 600T-18 610Q-18 631 3 631ZM237 614Q241 631 257 631T273 618Q273 596 252 596Q245 596 241 601T237 614ZM60 0L144 531H168L84 0H60Z" />
<glyph unicode="&#xf0;" glyph-name="eth" horiz-adv-x="547" d="M300 531H370Q427 531 460 509T500 465Q495 610 433 684L261 620L259 634L422 695Q355 761 243 762L246 783Q374 782 447 704L584 755L588 741L457 693Q524 607 524 441Q524 359 508 258Q485 117
429 59T286 0H216Q117 0 88 65Q71 102 71 156T80 270Q101 403 151 467T300 531ZM95 189T95 142T113 70T156 35T220 26H290Q382 26 427 96Q493 200 493 376Q493 428 464 468Q437 507 367 507H297Q222 507 174 456T104 264Q95 189 95 142Z" />
<glyph unicode="&#xf1;" glyph-name="ntilde" horiz-adv-x="540" d="M307 689Q325 689 347 671T390 634T421 616T437 617T450 620T463 625T476 632T488 639T500 647T511 654T522 662T531 669L536 662Q511 640 497 630Q458 600 421 600Q395 600 361 636T306 673Q273
673 212 632Q202 626 197 623L193 631Q269 689 307 689ZM158 531V469Q279 540 386 540Q462 540 498 490Q526 452 526 402Q526 386 523 370L464 0H440L499 370Q501 385 501 399Q501 442 478 474Q447 516 384 516T271 502T156 455L84 0H60L144 531H158Z" />
<glyph unicode="&#xf2;" glyph-name="ograve" horiz-adv-x="560" d="M245 729H271L371 596H357L245 729ZM116 424T173 480T355 536T516 468Q538 426 538 368T529 251Q506 105 450 50T267 -5T104 56Q82 93 82 150T91 265Q116 424 173 480ZM170 448T150 396T118
271T106 162T113 101T133 60T168 34Q206 19 265 19T359 28T424 62Q481 110 505 258Q515 306 515 331T512 384T500 441T466 485Q425 512 362 512T266 505T202 473Z" />
<glyph unicode="&#xf3;" glyph-name="oacute" horiz-adv-x="560" d="M357 596L499 729H525L371 596H357ZM116 424T173 480T355 536T516 468Q538 426 538 368T529 251Q506 105 450 50T267 -5T104 56Q82 93 82 150T91 265Q116 424 173 480ZM170 448T150 396T118
271T106 162T113 101T133 60T168 34Q206 19 265 19T359 28T424 62Q481 110 505 258Q515 306 515 331T512 384T500 441T466 485Q425 512 362 512T266 505T202 473Z" />
<glyph unicode="&#xf4;" glyph-name="ocircumflex" horiz-adv-x="560" d="M228 596L381 726H402L500 596H483L389 711L246 596H228ZM116 424T173 480T355 536T516 468Q538 426 538 368T529 251Q506 105 450 50T267 -5T104 56Q82 93 82 150T91 265Q116 424 173
480ZM170 448T150 396T118 271T106 162T113 101T133 60T168 34Q206 19 265 19T359 28T424 62Q481 110 505 258Q515 306 515 331T512 384T500 441T466 485Q425 512 362 512T266 505T202 473Z" />
<glyph unicode="&#xf5;" glyph-name="otilde" horiz-adv-x="560" d="M314 685Q331 685 353 667T396 630T427 612T445 613T459 617T475 623T489 631T503 640T515 648T527 657T538 665L543 658Q484 609 464 603T427 596T388 614T346 650T316 669T297 668T281 664T267
658T251 649T237 641T220 630T204 619L200 627Q275 685 314 685ZM116 424T173 480T355 536T516 468Q538 426 538 368T529 251Q506 105 450 50T267 -5T104 56Q82 93 82 150T91 265Q116 424 173 480ZM170 448T150 396T118 271T106 162T113 101T133 60T168 34Q206
19 265 19T359 28T424 62Q481 110 505 258Q515 306 515 331T512 384T500 441T466 485Q425 512 362 512T266 505T202 473Z" />
<glyph unicode="&#xf6;" glyph-name="odieresis" horiz-adv-x="560" d="M243 631Q250 631 254 626T257 614Q253 596 237 596Q229 596 225 601T222 614Q225 631 243 631ZM498 631Q505 631 509 626T512 614Q508 596 492 596Q484 596 480 601T477 614Q480 631 498
631ZM116 424T173 480T355 536T516 468Q538 426 538 368T529 251Q506 105 450 50T267 -5T104 56Q82 93 82 150T91 265Q116 424 173 480ZM170 448T150 396T118 271T106 162T113 101T133 60T168 34Q206 19 265 19T359 28T424 62Q481 110 505 258Q515 306 515 331T512
384T500 441T466 485Q425 512 362 512T266 505T202 473Z" />
<glyph unicode="&#xf7;" glyph-name="divide" horiz-adv-x="556" d="M100 341L104 365H520L516 341H100ZM286 213H298Q309 213 307 201L301 159Q300 147 287 147H276Q264 147 266 159L272 201Q274 213 286 213ZM339 549H351Q362 549 360 537L354 494Q353 483 340
483H329Q317 483 319 494L325 537Q326 549 339 549Z" />
<glyph unicode="&#xf8;" glyph-name="oslash" horiz-adv-x="540" d="M96 50Q72 85 72 145T82 269Q107 427 164 481T335 536T492 490L529 531H547L500 479Q529 438 529 356Q529 310 520 250Q497 104 443 50T268 -4T105 40L69 0H51L96 50ZM341 512Q290 512 258 505T194
472T141 395T109 272T97 151T114 71L476 471Q442 512 341 512ZM154 19T263 19Q315 19 349 27T414 61Q472 108 496 258Q505 316 505 371T484 460L122 59Q154 19 263 19Z" />
<glyph unicode="&#xf9;" glyph-name="ugrave" horiz-adv-x="539" d="M227 729H253L353 596H339L227 729ZM97 133Q97 90 120 58Q151 16 214 16T327 30T442 77L514 532H538L454 1H440V63Q319 -8 213 -8Q137 -8 100 42Q72 80 72 131Q72 146 75 162L134 532H158L99
162Q97 147 97 133Z" />
<glyph unicode="&#xfa;" glyph-name="uacute" horiz-adv-x="539" d="M339 596L481 729H507L353 596H339ZM97 133Q97 90 120 58Q151 16 214 16T327 30T442 77L514 532H538L454 1H440V63Q319 -8 213 -8Q137 -8 100 42Q72 80 72 131Q72 146 75 162L134 532H158L99
162Q97 147 97 133Z" />
<glyph unicode="&#xfb;" glyph-name="ucircumflex" horiz-adv-x="539" d="M210 596L363 726H384L482 596H465L371 711L228 596H210ZM97 133Q97 90 120 58Q151 16 214 16T327 30T442 77L514 532H538L454 1H440V63Q319 -8 213 -8Q137 -8 100 42Q72 80 72 131Q72
146 75 162L134 532H158L99 162Q97 147 97 133Z" />
<glyph unicode="&#xfc;" glyph-name="udieresis" horiz-adv-x="539" d="M225 631Q233 631 237 626T239 614Q236 596 219 596Q212 596 208 601T204 614Q208 631 225 631ZM480 631Q488 631 492 626T494 614Q491 596 474 596Q467 596 463 601T459 614Q463 631 480
631ZM97 133Q97 90 120 58Q151 16 214 16T327 30T442 77L514 532H538L454 1H440V63Q319 -8 213 -8Q137 -8 100 42Q72 80 72 131Q72 146 75 162L134 532H158L99 162Q97 147 97 133Z" />
<glyph unicode="&#xfd;" glyph-name="yacute" horiz-adv-x="536" d="M315 591L457 724H483L329 591H315ZM545 522Q545 493 523 446L310 1Q232 -171 156 -240Q124 -269 97 -269V-255Q117 -255 143 -229T194 -166Q240 -92 270 -26L283 0Q198 8 177 110L94 531H118L200
116Q218 25 295 25L500 454Q523 505 528 538H543Q545 531 545 522Z" />
<glyph unicode="&#xfe;" glyph-name="thorn" horiz-adv-x="531" d="M394 540Q534 540 534 340Q534 300 526 250T504 158T466 74Q418 -10 307 -10Q267 -10 203 0T98 29L51 -270H27L194 782H218L168 471Q195 489 271 514T394 540ZM311 14Q391 14 436 75T502 269Q510
318 510 368T491 455Q460 516 390 516Q334 516 259 490Q236 482 228 480T195 468T166 457L101 43Q199 14 311 14Z" />
<glyph unicode="&#xff;" glyph-name="ydieresis" horiz-adv-x="536" d="M185 642Q188 659 205 659T220 642Q216 624 200 624Q192 624 188 629T185 642ZM440 642Q443 659 460 659T475 642Q471 624 455 624Q447 624 443 629T440 642ZM545 522Q545 493 523 446L310
1Q232 -171 156 -240Q124 -269 97 -269V-255Q117 -255 143 -229T194 -166Q240 -92 270 -26L283 0Q198 8 177 110L94 531H118L200 116Q218 25 295 25L500 454Q523 505 528 538H543Q545 531 545 522Z" />
<glyph unicode="&#x2013;" glyph-name="endash" horiz-adv-x="432" d="M60 275L64 300H537L533 275H60Z" />
<glyph unicode="&#x2014;" glyph-name="emdash" horiz-adv-x="741" d="M59 277L63 302H759L755 277H59Z" />
<glyph unicode="&#x2018;" glyph-name="quoteleft" horiz-adv-x="169" d="M175 693Q178 715 188 724T203 733T219 731L217 724Q217 724 216 724Q198 724 195 705L190 668H197Q203 668 206 664T209 652L199 589Q197 573 182 573H170Q156 573 158 589L175 693Z" />
<glyph unicode="&#x2019;" glyph-name="quoteright" horiz-adv-x="169" d="M161 581Q178 581 181 599L187 637H180Q165 637 167 652L179 716Q181 732 196 732H207Q222 732 220 716L202 611Q199 589 189 581T174 572T158 574L159 581Q160 581 161 581Z" />
<glyph unicode="&#x201a;" glyph-name="quotesinglbase" horiz-adv-x="169" d="M61 -57Q78 -57 81 -38L87 0H80Q65 0 67 15L77 78Q80 95 95 95H106Q121 95 118 78L102 -26Q98 -48 88 -57T73 -66T58 -64L59 -57Q60 -57 61 -57Z" />
<glyph unicode="&#x201c;" glyph-name="quotedblleft" horiz-adv-x="255" d="M169 693Q173 715 183 724T197 733T212 731L211 724Q210 724 209 724Q193 724 190 705L184 668H190Q197 668 201 664T204 652L194 589Q191 573 175 573H164Q150 573 153 589L169 693ZM265
693Q269 715 279 724T294 733T309 731L308 724Q307 724 306 724Q289 724 286 705L280 668H287Q293 668 297 664T300 652L290 589Q287 573 272 573H261Q246 573 249 589L265 693Z" />
<glyph unicode="&#x201d;" glyph-name="quotedblright" horiz-adv-x="254" d="M175 637Q160 637 163 652L173 716Q175 732 190 732H201Q216 732 214 716L197 611Q194 589 184 581T169 572T153 574L154 581Q172 580 175 599L181 637H175ZM252 581Q269 581 272 599L278
637H271Q256 637 259 652L269 716Q271 732 286 732H298Q312 732 310 716L293 611Q290 589 280 581T265 572T249 574L250 581Q251 581 252 581Z" />
<glyph unicode="&#x201e;" glyph-name="quotedblbase" horiz-adv-x="254" d="M55 -55Q72 -55 75 -36L81 2H75Q60 2 62 17L72 80Q75 97 90 97H101Q116 97 113 80L97 -24Q93 -46 83 -55T68 -64T53 -62L54 -55Q55 -55 55 -55ZM152 -55Q169 -55 172 -36L178 2H171Q156
2 158 17L168 80Q171 97 186 97H198Q210 97 210 85Q210 83 209 80L193 -24Q189 -46 179 -55T164 -64T149 -62L150 -55Q151 -55 152 -55Z" />
<glyph unicode="&#x2022;" glyph-name="bullet" horiz-adv-x="337" d="M182 431H206Q236 431 236 404Q236 400 235 396L231 366Q226 334 190 334H166Q138 334 138 358Q138 362 139 366L143 396Q148 431 182 431Z" />
<glyph unicode="&#x2039;" glyph-name="guilsinglleft" horiz-adv-x="277" d="M38 354L276 557L291 541L69 352L233 162L216 146L38 354Z" />
<glyph unicode="&#x203a;" glyph-name="guilsinglright" horiz-adv-x="375" d="M106 163L333 356L174 543L190 557L364 354L120 146L106 163Z" />
</font>
</defs>
</svg>
