<?xml version="1.0" standalone="no"?>
<!DOCTYPE svg PUBLIC "-//W3C//DTD SVG 1.1//EN" "http://www.w3.org/Graphics/SVG/1.1/DTD/svg11.dtd">
<svg xmlns="http://www.w3.org/2000/svg">
<defs >
<font id="Exo" horiz-adv-x="542" ><font-face
    font-family="Exo"
    units-per-em="1000"
    panose-1="2 0 8 3 0 0 0 0 0 0"
    ascent="1002"
    descent="-327"
    alphabetic="0" />
<glyph unicode=" " glyph-name="space" horiz-adv-x="250" />
<glyph unicode="!" glyph-name="exclam" horiz-adv-x="273" d="M67 23V113Q67 138 91 138H179Q189 138 195 131T202 113V23Q202 0 179 0H91Q80 0 74 6T67 23ZM65 731H206L191 196H77L65 731Z" />
<glyph unicode="&quot;" glyph-name="quotedbl" horiz-adv-x="444" d="M65 732H200V665L190 531H76L65 665V732ZM245 732H380V665L370 531H256L245 665V732Z" />
<glyph unicode="#" glyph-name="numbersign" horiz-adv-x="721" d="M15 210L30 306H182L203 427H49L65 523H220L257 732H353L316 523H440L476 732H572L536 523H707L693 427H521L500 305H672L659 209H480L443 0H347L384 209L260 210L223 0H127L164 210H15ZM278
306L404 305L425 427H299L278 306Z" />
<glyph unicode="$" glyph-name="dollar" horiz-adv-x="570" d="M238 824H323V737Q416 731 502 709V600Q359 609 317 609T270 610Q225 610 204 597T182 538V502Q182 464 201 448T262 432H355Q470 432 510 341Q529 296 529 238V189Q529 73 464 29Q409 -8 329 -8Q326
-8 323 -8V-90H238V-6Q146 -1 65 22V130Q224 121 298 121Q389 121 389 184V223Q389 257 375 274T322 292H231Q182 292 146 306T91 342T59 391Q42 435 42 486V549Q43 732 238 738V824Z" />
<glyph unicode="%" glyph-name="percent" horiz-adv-x="962" d="M32 480V602Q32 668 62 700T167 732H268Q339 732 369 700T400 602V480Q400 413 370 381T266 349H165Q93 349 63 381T32 480ZM130 496Q130 469 140 458T178 447H252Q292 447 299 468Q302 478 302
496V585Q302 614 292 624T254 634H180Q151 634 141 624T130 585V496ZM208 0L655 732H755L312 0H208ZM563 133V255Q563 299 575 327Q600 386 697 386H798Q869 386 900 354T931 255V133Q931 67 900 35T796 3H695Q623 3 593 35T563 133ZM661 150Q661 123 670 112T709
101H782Q813 101 823 112T833 150V239Q833 276 812 284Q802 288 784 288H711Q682 288 672 278T661 239V150Z" />
<glyph unicode="&amp;" glyph-name="ampersand" horiz-adv-x="679" d="M320 608Q253 608 253 576Q253 553 284 510L453 279L574 393L623 334L563 227L526 183L662 0H498L427 96L362 38Q313 -6 238 -6Q199 -6 159 9Q101 30 64 86T26 202Q26 296 110 369L179 430L128
504Q95 551 95 594Q95 649 130 686T207 730Q253 737 314 737T484 710V608H320ZM197 284Q158 251 158 220T176 167T211 135T240 125T256 125Q279 128 299 147L350 196L249 330L197 284Z" />
<glyph unicode="&apos;" glyph-name="quotesingle" horiz-adv-x="224" d="M42 732H183V665L173 531H53L42 665V732Z" />
<glyph unicode="(" glyph-name="parenleft" horiz-adv-x="377" d="M95 39T76 132T57 308T66 457T91 574T126 672T163 752Q202 822 223 848L232 860H363Q340 825 308 760T255 636T215 491T197 334T206 200T229 85T262 -14T298 -97Q334 -169 354 -197L363 -210H232Q208
-186 175 -131T118 -18Z" />
<glyph unicode=")" glyph-name="parenright" horiz-adv-x="377" d="M145 63T163 151T181 305T176 418T160 507T138 589T112 664T85 730T58 784Q32 833 21 851L15 860H146Q170 831 203 772T260 654T302 507T321 335T312 183T287 62T252 -36T215 -113Q176 -177 155
-200L146 -210H15Q38 -178 69 -117T123 4Z" />
<glyph unicode="*" glyph-name="asterisk" horiz-adv-x="427" d="M38 566V622L177 646L182 561L38 566ZM95 416L119 553L202 532L148 399L95 416ZM166 720L220 739L287 617L208 584L166 720ZM190 467L237 538L349 448L317 403L190 467ZM239 571L359 650L390 603L294
506L239 571Z" />
<glyph unicode="+" glyph-name="plus" horiz-adv-x="483" d="M34 297V415H182V564H300V415H450V297H300V148H182V297H34Z" />
<glyph unicode="," glyph-name="comma" horiz-adv-x="261" d="M65 25V112Q65 139 90 139H174Q198 139 198 112V-11Q198 -42 185 -61T152 -86Q129 -93 111 -93T83 -91L70 -88V-40Q83 -40 91 -35Q101 -29 101 -14V0H90Q79 0 72 6T65 25Z" />
<glyph unicode="-" glyph-name="hyphen" horiz-adv-x="354" d="M20 231V349H334V231H20Z" />
<glyph unicode="." glyph-name="period" horiz-adv-x="263" d="M65 23V113Q65 138 89 138H175Q200 138 200 113V23Q200 0 175 0H89Q78 0 72 6T65 23Z" />
<glyph unicode="/" glyph-name="slash" horiz-adv-x="456" d="M15 -72L296 770H441L160 -72H15Z" />
<glyph unicode="0" glyph-name="zero" horiz-adv-x="630" d="M53 178V548Q53 637 102 684T237 732H401Q537 732 569 622Q578 591 578 554V178Q578 91 532 46T400 0H236Q150 0 102 45T53 178ZM193 201Q193 129 268 129H365Q402 129 420 145T438 200V532Q438 603
370 603H265Q224 603 209 582T193 532V201Z" />
<glyph unicode="1" glyph-name="one" horiz-adv-x="371" d="M311 732V0H171V593L30 558V649L172 732H311Z" />
<glyph unicode="2" glyph-name="two" horiz-adv-x="588" d="M30 612V716Q177 742 334 742Q445 742 499 675Q551 611 551 515Q551 348 275 129H551V0H38V123Q118 177 190 239T306 345T380 435T410 515T398 570Q374 612 290 612H30Z" />
<glyph unicode="3" glyph-name="three" horiz-adv-x="583" d="M339 -7H281Q268 -7 262 -7T229 -7T191 -6T158 -4T123 0T91 5Q61 10 29 21L30 123H284Q341 123 363 135T386 191V223Q386 265 363 280T290 298L91 306V418L290 428Q343 431 365 446T388 500V536Q388
563 374 579T339 600T290 605H23V706Q105 735 282 735Q315 735 346 734Q429 732 478 685T527 558V506Q527 392 451 364Q527 332 527 214V172Q527 85 479 39T339 -7Z" />
<glyph unicode="4" glyph-name="four" horiz-adv-x="620" d="M392 292V459L424 536H532V292H606V184L532 160V2H392V160H49L15 224L276 732H430L211 292H392Z" />
<glyph unicode="5" glyph-name="five" horiz-adv-x="596" d="M208 438Q240 464 315 464Q342 464 392 462T481 435Q553 389 553 280V177Q553 66 468 20Q423 -4 367 -4Q265 -4 209 0T58 20V130H340Q383 130 398 150T413 201V268Q413 320 382 333Q368 339 346 339H252Q224
339 208 325T191 280H59L81 732H526V603H216L208 438Z" />
<glyph unicode="6" glyph-name="six" horiz-adv-x="608" d="M50 384Q50 461 59 521T85 620T124 684Q164 730 222 735Q260 739 301 739Q410 739 540 715V609H290Q245 609 223 578Q201 546 197 514Q190 467 190 424Q272 444 392 444Q495 444 531 394Q564 350 564
274V164Q564 -1 387 -1H244Q145 -1 103 74Q50 167 50 384ZM190 321Q190 208 214 167Q238 128 285 128H361Q395 128 410 140T425 190V257Q425 309 391 318Q380 321 364 321H190Z" />
<glyph unicode="7" glyph-name="seven" horiz-adv-x="554" d="M23 603V732H494L532 668L287 0H134L359 603H23Z" />
<glyph unicode="8" glyph-name="eight" horiz-adv-x="624" d="M57 168V241Q57 286 78 315T136 354Q86 375 70 417Q57 451 57 499V564Q57 664 112 702Q162 737 244 737H395Q483 737 525 696T568 563V510Q569 483 559 455Q541 402 493 394Q515 390 531 374T555 337Q569
296 568 257V171Q568 53 491 18Q452 0 394 0H244Q86 0 62 111Q57 137 57 168ZM197 183Q197 142 227 130Q243 124 269 124H362Q428 124 428 183V253Q428 283 412 299T365 315H264Q197 315 197 253V183ZM197 494Q197 432 264 432H364Q405 432 418 451Q428 467 428
494V541Q428 583 412 598T363 614H269Q230 614 214 601T197 541V494Z" />
<glyph unicode="9" glyph-name="nine" horiz-adv-x="608" d="M306 -4Q180 -4 70 19V125H320Q365 125 386 156Q408 188 413 220Q420 267 420 311Q338 290 218 290Q115 290 78 340Q46 385 46 461V570Q46 735 223 735H366Q403 735 431 726T484 690T526 622Q560 530
560 350Q560 134 486 50Q445 4 388 -1Q348 -4 306 -4ZM185 477Q185 440 199 427T246 413H420Q420 526 395 568Q372 606 325 606H248Q215 606 200 594T185 544V477Z" />
<glyph unicode=":" glyph-name="colon" horiz-adv-x="263" d="M65 23V113Q65 138 89 138H175Q200 138 200 113V23Q200 0 175 0H89Q78 0 72 6T65 23ZM65 416V506Q65 531 89 531H175Q200 531 200 506V416Q200 393 175 393H89Q74 393 70 401T65 416Z" />
<glyph unicode=";" glyph-name="semicolon" horiz-adv-x="264" d="M65 25V112Q65 124 71 131T90 139H174Q198 139 198 112V-11Q198 -42 185 -61T152 -86Q129 -93 111 -93T83 -91L70 -88V-40Q83 -40 91 -35Q101 -29 101 -14V0H90Q79 0 72 7T65 25ZM66 417V507Q66
532 90 532H176Q201 532 201 507V417Q201 394 176 394H90Q75 394 71 402T66 417Z" />
<glyph unicode="&lt;" glyph-name="less" horiz-adv-x="450" d="M38 288V417L413 562V432L187 353L413 265V134L38 288Z" />
<glyph unicode="=" glyph-name="equal" horiz-adv-x="467" d="M20 184V302H447V184H20ZM20 399V517H447V399H20Z" />
<glyph unicode="&gt;" glyph-name="greater" horiz-adv-x="450" d="M38 134V265L264 353L38 432V562L413 417V288L38 134Z" />
<glyph unicode="?" glyph-name="question" d="M15 714Q150 740 244 740Q269 740 297 739Q408 739 462 678Q513 621 513 543V470Q513 283 323 283Q305 283 286 285V195H173V390H287Q374 394 374 472V525Q374 569 348 589T264 609H15V714ZM162 138T186 138H273Q297
138 297 113V23Q297 0 273 0H186Q175 0 169 6T162 23V113Q162 138 186 138Z" />
<glyph unicode="@" glyph-name="at" horiz-adv-x="868" d="M256 512H448Q545 512 586 470Q623 432 623 356V0H533L513 59Q513 59 506 52T484 35T452 15Q409 -9 354 -9T264 30T230 125V167Q230 234 268 269T376 305H511Q512 326 512 337T511 348Q511 379 497 389T449
400H256Q186 400 170 357Q162 338 162 310V22Q162 -63 224 -82Q239 -86 256 -86H589Q647 -86 669 -60T692 22V479Q692 535 664 565T589 596H185V681Q231 691 315 699T441 708T489 708H589Q677 708 738 657Q804 601 804 479V22Q804 -89 753 -144T594 -200H256Q164
-200 107 -149T50 11V315Q50 460 169 499Q207 512 256 512ZM394 103Q395 103 395 103T397 103Q465 103 511 147V226L392 215Q348 211 348 169Q348 168 348 156T348 142Q348 126 360 115T394 103Z" />
<glyph unicode="A" glyph-name="A" horiz-adv-x="692" d="M34 0L281 732H440L678 0H529L477 162H237L184 0H34ZM274 286H444L362 548L274 286Z" />
<glyph unicode="B" glyph-name="B" horiz-adv-x="604" d="M61 0V732H363Q469 732 519 678T569 536Q569 480 544 435T469 380Q517 371 549 327T581 215Q581 110 530 55T365 0H61ZM441 221Q441 266 421 295T360 324H201V124L360 123Q441 123 441 221ZM201 442H354Q392
442 411 463T431 528T409 589T354 608H201V442Z" />
<glyph unicode="C" glyph-name="C" horiz-adv-x="571" d="M92 642Q132 708 203 729Q242 740 291 740Q434 740 546 707V597Q546 597 539 598T519 600T489 602T452 605T411 608Q364 611 327 611T270 607T230 589T202 548Q182 490 182 363T211 180T324 123Q418 123
514 129L546 131V22Q456 -6 314 -6Q303 -6 291 -6Q157 -5 100 90T42 372T92 642Z" />
<glyph unicode="D" glyph-name="D" horiz-adv-x="662" d="M61 0V732H372Q626 732 626 363Q626 135 517 47Q459 0 372 0H61ZM486 364Q486 546 428 589Q402 608 361 608H201V125H361Q486 125 486 364Z" />
<glyph unicode="E" glyph-name="E" horiz-adv-x="567" d="M112 705Q137 720 161 726T200 732T345 729T539 716V600H250Q213 600 204 582Q198 568 198 544V430L494 420V304L198 295V181Q198 143 219 135Q234 129 260 129H539V14Q489 7 292 0L227 -3Q219 -3 209
-3T181 -2T140 9T98 33Q58 69 58 144V580Q58 671 112 705Z" />
<glyph unicode="F" glyph-name="F" horiz-adv-x="567" d="M58 0V578Q58 697 159 725Q184 732 199 732T344 729T539 716V600H250Q213 600 204 582Q198 568 198 544V430L494 420V304L198 295V0H58Z" />
<glyph unicode="G" glyph-name="G" horiz-adv-x="614" d="M51 198T47 249T42 369T47 490T68 591T111 672Q168 740 281 740Q366 740 425 734T562 708V599Q561 599 546 601T505 605T449 610Q377 616 314 616Q234 616 208 563T182 366T206 175Q231 126 308 126Q338
126 369 137T417 160L433 172V303H331V392Q390 416 505 416Q537 416 573 414V0H473L435 49Q400 16 360 6Q251 -21 176 12Q132 31 107 63T66 146Z" />
<glyph unicode="H" glyph-name="H" horiz-adv-x="636" d="M61 0V732H201V418H452V732H592V0H452V290H201V0H61Z" />
<glyph unicode="I" glyph-name="I" horiz-adv-x="245" d="M61 0V732H201V0H61Z" />
<glyph unicode="J" glyph-name="J" horiz-adv-x="356" d="M259 18Q221 -5 146 -5T27 23L29 132Q63 129 80 129T106 130Q171 132 172 226V732H312V165Q312 134 310 112T295 62T259 18Z" />
<glyph unicode="K" glyph-name="K" horiz-adv-x="628" d="M61 0V732H195V426H254L440 732H603L379 365L603 0H440L254 302H196V0H61Z" />
<glyph unicode="L" glyph-name="L" horiz-adv-x="539" d="M61 142V732H201V181Q201 143 222 135Q237 129 263 129H514V0H213Q61 0 61 142Z" />
<glyph unicode="M" glyph-name="M" horiz-adv-x="847" d="M42 0L106 732H301L423 232L544 732H738L806 0H668L620 489L502 0H346L223 489L180 0H42Z" />
<glyph unicode="N" glyph-name="N" horiz-adv-x="678" d="M61 0V732H203L493 259V732H633V0H493L202 468V0H61Z" />
<glyph unicode="O" glyph-name="O" horiz-adv-x="671" d="M58 216T54 261T50 369T57 489T78 585T113 653T157 697T213 722Q265 737 322 737T406 735T462 727T513 708T555 678T591 631T616 565Q638 491 638 392T631 240T611 148T579 82T536 38T481 12Q407 -10 286
-2Q224 1 196 13T148 38T113 71T86 118T66 181ZM196 485T193 448T190 355T194 260T207 192T236 150Q270 125 344 125Q414 125 449 151Q498 188 498 361Q498 478 486 516T463 570T433 595Q402 608 360 608T302 607T267 600T238 585T217 556T201 512Z" />
<glyph unicode="P" glyph-name="P" horiz-adv-x="602" d="M51 0V732H366Q475 732 524 671Q569 616 569 506Q569 442 556 396T523 326T473 288Q434 270 386 270Q351 270 273 279T191 290V0H51ZM355 608H191V394H355Q379 394 394 403Q428 423 428 505Q427 608 355 608Z" />
<glyph unicode="Q" glyph-name="Q" horiz-adv-x="671" d="M50 299T50 358T54 464T67 547T88 611T115 659T151 693T191 715T238 729Q282 737 330 737T405 735T461 727T512 708T555 678T590 631T616 565Q638 491 638 361Q638 194 592 104Q568 57 516 27Q463 -3 343
-4Q221 -4 171 24Q117 53 95 99Q63 163 57 231ZM196 485T193 448T190 355T194 260T207 192T235 150Q270 125 337 125T436 143T483 211T498 340T495 458T482 526T463 570T432 595Q402 608 360 608T301 607T266 600T237 585T217 556T201 512ZM542 -174Q506 -180 476
-180T415 -171T360 -145T319 -99T300 -33H379Q403 -73 464 -73Q497 -73 542 -61V-174Z" />
<glyph unicode="R" glyph-name="R" horiz-adv-x="607" d="M371 732Q467 732 514 683Q571 625 571 504Q571 363 512 317Q493 302 483 298T454 288L593 0H435L314 277L191 291V0H51V732H371ZM192 401H358Q397 401 413 421T430 502T412 585T358 608H192V401Z" />
<glyph unicode="S" glyph-name="S" horiz-adv-x="590" d="M50 486V549Q50 654 107 698Q159 737 248 738Q260 738 298 738T411 730T531 709V599Q417 609 350 609T277 609Q232 609 211 597T190 538V502Q190 460 207 446T268 432H384Q498 432 537 341Q557 295 557
238V189Q557 55 468 14Q422 -8 355 -8Q174 -8 72 22V132Q182 121 264 121T359 123T387 131Q417 144 417 184V223Q417 275 384 287Q371 292 351 292H239Q50 292 50 486Z" />
<glyph unicode="T" glyph-name="T" horiz-adv-x="593" d="M31 603V732H572V603H369V0H229V603H31Z" />
<glyph unicode="U" glyph-name="U" horiz-adv-x="664" d="M343 -5H329Q209 -5 169 20Q151 32 127 55T91 113Q61 197 61 320V732H201V320Q201 224 220 179Q237 139 287 128Q309 124 350 124T420 139Q479 171 479 320V732H620V320Q620 163 574 92Q559 67 545 52T508
25T469 8T426 -1Q392 -5 343 -5Z" />
<glyph unicode="V" glyph-name="V" horiz-adv-x="685" d="M34 732H183L346 184L518 732H667L426 0H264L34 732Z" />
<glyph unicode="W" glyph-name="W" horiz-adv-x="992" d="M34 732H183L345 189L477 732H627L576 543L692 186L826 732H974L773 0H611L512 300L426 0H264L34 732Z" />
<glyph unicode="X" glyph-name="X" horiz-adv-x="641" d="M34 732H189L327 482L468 732H623L403 367L618 0H463L327 246L192 0H37L252 367L34 732Z" />
<glyph unicode="Y" glyph-name="Y" horiz-adv-x="656" d="M397 0H257V227L34 732H186L329 381L486 732H638L397 227V0Z" />
<glyph unicode="Z" glyph-name="Z" horiz-adv-x="556" d="M27 0V129L362 603H27V732H531V603L212 129H531V0H27Z" />
<glyph unicode="[" glyph-name="bracketleft" horiz-adv-x="333" d="M65 -10V654Q65 733 100 785Q139 842 234 842H319V724H267Q205 724 205 637V-5Q205 -92 267 -92H319V-210H234Q191 -210 160 -197T111 -164T82 -115Q65 -70 65 -10Z" />
<glyph unicode="\" glyph-name="backslash" horiz-adv-x="456" d="M15 770H160L441 -72H296L15 770Z" />
<glyph unicode="]" glyph-name="bracketright" horiz-adv-x="333" d="M15 -92H68Q130 -92 130 -5V637Q130 724 68 724H15V842H101Q227 842 259 734Q270 699 270 654V-10Q270 -96 240 -141Q195 -210 101 -210H15V-92Z" />
<glyph unicode="^" glyph-name="asciicircum" horiz-adv-x="384" d="M38 531L146 666H250L346 531H253L195 591L132 531H38Z" />
<glyph unicode="_" glyph-name="underscore" horiz-adv-x="674" d="M20 -1V117H654V-1H20Z" />
<glyph unicode="`" glyph-name="grave" horiz-adv-x="243" d="M15 670H138L228 531H137L15 670Z" />
<glyph unicode="a" glyph-name="a" horiz-adv-x="519" d="M48 505Q139 541 291 541Q383 541 432 503T482 370V0H371L342 58Q338 51 317 37T257 8T184 -6Q110 -6 70 36T30 135V185Q30 249 68 290T185 331T303 330T342 331Q342 347 342 355T342 365Q342 405 325
417T257 430T48 419V505ZM170 155Q170 125 183 116T221 106T276 116T324 137L342 148V245L213 235Q170 231 170 181V155Z" />
<glyph unicode="b" glyph-name="b" horiz-adv-x="556" d="M185 785V504Q260 539 346 539Q419 539 456 504Q495 468 507 408Q519 349 519 263Q519 134 479 64T346 -6Q303 -6 259 12T186 54L161 0H46V785H185ZM310 114Q345 114 362 148T379 258T371 370T348 417T310
429Q237 429 186 409V146Q237 114 310 114Z" />
<glyph unicode="c" glyph-name="c" horiz-adv-x="494" d="M38 266Q38 346 50 400T87 483T142 524T213 536Q360 536 457 505V418Q362 424 306 424T238 422T212 412T192 387Q178 346 178 271T187 162T215 119T274 108Q355 108 437 115L464 117V29Q418 5 374 1Q309
-5 261 -5H255Q217 -5 213 -5Q134 -5 89 48Q38 107 38 266Z" />
<glyph unicode="d" glyph-name="d" horiz-adv-x="556" d="M38 371T53 420T87 491Q128 539 211 539Q247 539 292 530T372 504V785H512V0H396L372 54Q343 30 299 12T211 -6Q118 -6 78 62T38 251ZM195 406T187 370T178 259T195 149T248 114Q321 114 372 146V409Q320
429 248 429Q223 429 209 418Z" />
<glyph unicode="e" glyph-name="e" horiz-adv-x="525" d="M181 529Q216 535 261 535T331 534T381 528T423 515T454 492T477 457Q495 412 495 354T478 265Q445 208 347 208H178Q178 173 184 152T206 122T239 110T335 107T485 118V23Q440 6 395 2T332 -3T290 -4Q257
-5 213 -5Q114 -5 76 57T38 258T68 456T181 529ZM355 349Q355 399 342 413T287 428T231 426T201 412T182 377T178 334T178 309H311Q355 309 355 349Z" />
<glyph unicode="f" glyph-name="f" horiz-adv-x="403" d="M15 424V514L98 531V630Q98 704 134 745T250 786T389 762V679L293 680Q247 681 241 650Q238 633 238 597V531H359V424H238V0H98V424H15Z" />
<glyph unicode="g" glyph-name="g" horiz-adv-x="560" d="M202 149Q162 149 162 126Q162 110 172 105T202 99H365Q439 99 480 60T522 -59V-116Q522 -232 423 -261Q394 -270 356 -270H206Q89 -270 53 -184Q40 -155 40 -116V-49L87 0Q64 12 50 39T35 101T50 161T97
197Q39 234 39 344Q39 533 223 533H546V449L487 431Q487 430 489 425T493 417T496 409T499 400T501 390T503 378T505 364Q507 350 507 326T503 279T486 232T454 190Q409 149 325 149H202ZM181 -99Q181 -135 196 -146T244 -158H326Q361 -158 372 -144T383 -102V-63Q383
-39 371 -27T331 -14H223L181 -11V-99ZM179 344Q179 262 243 262H299Q367 262 367 340Q367 397 338 413Q323 421 298 421H245Q206 421 193 400T179 344Z" />
<glyph unicode="h" glyph-name="h" horiz-adv-x="550" d="M46 0V783H185V474Q257 526 301 535Q325 540 354 540Q513 540 513 354V0H373V356Q373 428 314 428Q274 428 246 418T186 382V0H46Z" />
<glyph unicode="i" glyph-name="i" horiz-adv-x="227" d="M38 610V698Q38 724 62 724H167Q189 724 189 698V610Q189 587 167 587H62Q51 587 45 593T38 610ZM43 0V531H183V0H43Z" />
<glyph unicode="j" glyph-name="j" horiz-adv-x="242" d="M46 610V698Q46 724 70 724H175Q186 724 192 717T198 698V610Q198 587 175 587H70Q59 587 53 593T46 610ZM52 -270V531H192V-4Q192 -14 192 -55Q192 -189 155 -270H52Z" />
<glyph unicode="k" glyph-name="k" horiz-adv-x="557" d="M46 0V782H186V353H215L365 531H543L344 300L543 0H376L215 246H186V0H46Z" />
<glyph unicode="l" glyph-name="l" horiz-adv-x="313" d="M46 189V783H186V211Q186 158 197 137T232 107Q292 86 299 86V0H183Q115 0 81 43T46 189Z" />
<glyph unicode="m" glyph-name="m" horiz-adv-x="875" d="M370 354Q370 426 311 426Q271 426 245 416T186 381V0H46V531H158L186 474Q189 476 206 488T239 510T285 529T351 539Q454 539 489 470Q583 539 680 539Q838 539 838 352V0H698V354Q698 408 664 422Q653
426 639 426Q559 426 509 384L510 353V0H370V354Z" />
<glyph unicode="n" glyph-name="n" horiz-adv-x="550" d="M354 540Q513 540 513 354V0H373V356Q373 428 314 428Q274 428 246 418T186 382V0H46V531H158L186 474Q259 527 302 535Q325 540 354 540Z" />
<glyph unicode="o" glyph-name="o" horiz-adv-x="560" d="M38 255Q38 324 46 370T71 449T118 501Q173 536 280 536Q417 536 469 476T522 263T471 52T280 -5Q144 -5 90 56Q38 115 38 255ZM186 378T182 347T178 261T183 177T201 132T232 112T278 108T321 110T349
120T369 145Q382 181 382 242T380 332T371 380T352 408Q329 423 288 423T229 419T199 396Z" />
<glyph unicode="p" glyph-name="p" horiz-adv-x="556" d="M214 501T258 519T348 537T428 518T482 462Q519 392 519 268Q519 106 471 44Q429 -8 346 -8Q310 -8 265 1T185 26V-270H46V531H161L185 478Q214 501 258 519ZM310 102Q334 102 348 113Q379 139 379 262Q379
348 362 382T310 417Q236 417 185 385V122Q237 102 310 102Z" />
<glyph unicode="q" glyph-name="q" horiz-adv-x="555" d="M38 268Q38 537 232 537Q307 537 387 528T510 507V-270H370V29Q312 -10 232 -10Q123 -10 81 58T38 268ZM179 319T179 306T178 266T178 224T181 184T188 148T202 123Q218 100 255 100T314 104T370 122V430H260Q220
430 203 402Q185 373 182 346Z" />
<glyph unicode="r" glyph-name="r" horiz-adv-x="417" d="M46 0V531H164L186 464Q261 536 338 536Q381 536 397 530V395Q369 398 321 398T242 386T186 339V0H46Z" />
<glyph unicode="s" glyph-name="s" horiz-adv-x="508" d="M168 536Q405 536 452 509V421H211Q186 421 178 413T170 384V360Q170 337 180 332T211 326H337Q386 326 418 307Q478 273 478 189V134Q478 59 441 27T348 -5Q96 -5 52 24V111H303Q338 111 338 145V170Q338
188 331 196T303 204H179Q30 204 30 347V393Q30 536 168 536Z" />
<glyph unicode="t" glyph-name="t" horiz-adv-x="381" d="M15 425V503L101 532L124 680H241V532H360V425H241V212Q241 158 252 137T286 107Q346 86 353 86V0H231Q101 0 101 190V425H15Z" />
<glyph unicode="u" glyph-name="u" horiz-adv-x="550" d="M178 531V175Q178 104 237 104Q289 104 325 123Q343 133 365 150V531H505V0H392L365 56Q356 51 340 41T315 26T292 13T264 1Q233 -9 196 -9Q38 -9 38 178V531H178Z" />
<glyph unicode="v" glyph-name="v" horiz-adv-x="564" d="M15 531H165L281 164L400 531H550L357 0H200L15 531Z" />
<glyph unicode="w" glyph-name="w" horiz-adv-x="826" d="M15 531H165L271 164L366 531H506L469 388L557 164L662 531H812L640 0H484L404 192L344 0H185L15 531Z" />
<glyph unicode="x" glyph-name="x" horiz-adv-x="572" d="M18 0L202 266L18 531H188L285 372L385 531H554L368 263L546 0H385L286 157L188 0H18Z" />
<glyph unicode="y" glyph-name="y" horiz-adv-x="578" d="M16 531H163L255 159Q265 121 304 121Q307 120 308 120L414 531H560L376 -168L303 -270H203L278 0Q156 0 120 135L16 531Z" />
<glyph unicode="z" glyph-name="z" horiz-adv-x="474" d="M23 413V531H452V413L224 119H452V1H38V118L276 413H23Z" />
<glyph unicode="{" glyph-name="braceleft" horiz-adv-x="321" d="M89 439V656Q89 742 143 792T306 842V724Q265 724 247 701T229 612V431Q229 345 133 334Q176 326 202 302T228 240V0Q228 -98 302 -98Q304 -98 306 -98V-210Q189 -210 139 -166T88 -38V228Q88
255 69 268T24 281Q20 281 15 281V386Q69 391 82 413Q89 424 89 439Z" />
<glyph unicode="|" glyph-name="bar" horiz-adv-x="247" d="M65 -72V770H183V-72H65Z" />
<glyph unicode="}" glyph-name="braceright" horiz-adv-x="321" d="M19 -98Q57 -98 75 -74T94 0V240Q94 277 119 301T189 334Q93 345 93 431V612Q93 677 75 700T15 724V842Q124 842 178 792T233 656V439Q233 408 257 397Q277 389 306 386V281Q302 281 287 281T253
268T234 228V-38Q234 -121 183 -165T15 -210V-98Q17 -98 19 -98Z" />
<glyph unicode="~" glyph-name="asciitilde" horiz-adv-x="419" d="M85 633T109 645T157 658T213 641T264 623Q265 623 267 623Q309 623 357 663L381 603Q338 551 304 538Q286 531 266 531T210 548T161 566T140 566T126 563T113 559T100 553T89 547T76 539T62
531L38 586Q59 609 72 621Z" />
<glyph unicode="&#xa1;" glyph-name="exclamdown" horiz-adv-x="276" d="M70 351V438Q70 459 94 461H179Q192 460 197 451T203 435V351Q202 324 180 324H94Q70 324 70 351ZM65 -270L79 263H194L208 -270H65Z" />
<glyph unicode="&#xa2;" glyph-name="cent" horiz-adv-x="487" d="M56 76T43 130T30 266T43 402Q66 500 138 526Q167 537 188 537T213 537V634H299V534Q386 525 450 504V417Q354 424 298 424T230 423T205 413T184 387Q170 347 170 271T179 162T207 118T266 107Q347
107 429 114L457 116V28Q395 -3 297 -5V-95H211V-6Q168 -6 138 6T82 47Z" />
<glyph unicode="&#xa3;" glyph-name="sterling" horiz-adv-x="582" d="M38 0V108L104 129V314H38V386L104 408V483Q104 567 118 603T144 659T173 690T210 711T254 724Q298 732 342 732Q411 732 511 720L545 716V604H356Q319 604 302 602T269 588T249 556T244 495V408L466
392V314H244V129H544V0H38Z" />
<glyph unicode="&#xa4;" glyph-name="currency" horiz-adv-x="446" d="M133 442Q173 470 222 470T312 442L358 489L408 442L359 392Q381 356 381 308T352 218L400 170L353 120L300 171Q264 149 220 149T137 175L91 127L42 177L89 225Q64 265 64 310T86 392L39
438L87 487L133 442ZM189 392T166 368T142 311T165 253T222 228T279 252T303 310T280 368T223 392Z" />
<glyph unicode="&#xa5;" glyph-name="yen" horiz-adv-x="634" d="M525 338V256H378V220H525V139H378V0H238V139H98V220H238V256H98V338H204L15 732H168L310 402L465 732H619L414 338H525Z" />
<glyph unicode="&#xa6;" glyph-name="brokenbar" horiz-adv-x="248" d="M65 -72V256H183V-72H65ZM65 429V770H183V429H65Z" />
<glyph unicode="&#xa7;" glyph-name="section" horiz-adv-x="541" d="M42 590V638Q42 746 124 775Q150 784 198 784T335 779T462 765V666H221Q195 666 186 651Q182 643 182 630V595Q182 561 222 561H345Q428 561 464 530T500 435V400Q500 308 442 293Q499 283
499 194V138Q499 -8 361 -8Q292 -8 203 -3T79 11V110H316Q345 110 352 119T360 141V181Q360 200 351 207T318 214H194Q119 214 81 240T43 336V371Q43 443 69 467Q82 479 103 486Q42 512 42 590ZM182 366Q182 340 191 334Q204 326 227 326H313Q345 326 351 334Q360
345 360 367V405Q360 440 339 445Q329 448 313 448H227Q199 448 191 439T182 403V366Z" />
<glyph unicode="&#xa8;" glyph-name="dieresis" horiz-adv-x="448" d="M38 558T38 582T55 623T97 640T138 623T155 582T138 541T97 523T56 540ZM293 558T293 582T310 623T352 640T393 623T410 582T393 541T352 523T311 540Z" />
<glyph unicode="&#xa9;" glyph-name="copyright" horiz-adv-x="800" d="M42 377Q42 427 48 475T70 573T114 656T188 711T296 732H528Q586 732 628 710T695 655T735 571Q759 489 759 368Q759 194 700 97T528 0H296Q183 0 117 88Q42 187 42 377ZM133 370Q133 289
149 227T204 126T296 86H522Q566 86 597 113T648 205T668 368Q668 499 647 553Q622 616 584 634Q559 646 528 646H296Q225 646 182 593Q133 532 133 370ZM223 365Q223 583 367 583Q404 583 458 577T551 559V485Q467 497 389 497Q349 497 332 467T315 366T332 265T393
233Q466 233 557 249V175Q488 147 372 147Q264 147 235 257Q223 301 223 365Z" />
<glyph unicode="&#xaa;" glyph-name="ordfeminine" horiz-adv-x="366" d="M23 262V332H344V262H23ZM35 712Q114 738 202 738Q245 738 275 729T324 693T343 625V378H261L235 423Q230 411 198 393T133 374Q81 374 52 401T23 466V501Q23 543 50 569T130 596T209 596T235
596Q236 612 236 621T228 639Q218 653 181 653T90 649T35 645V712ZM124 485Q124 467 133 461T161 455T198 461T226 474L235 480V539L155 532Q124 530 124 499V485Z" />
<glyph unicode="&#xab;" glyph-name="guillemotleft" horiz-adv-x="580" d="M38 354L244 557L321 481L190 354L323 223L249 146L38 354ZM257 354L463 557L540 481L410 354L543 223L468 146L257 354Z" />
<glyph unicode="&#xac;" glyph-name="logicalnot" horiz-adv-x="494" d="M34 240V352H460V159H348V240H34Z" />
<glyph unicode="&#xad;" glyph-name="uni00AD" horiz-adv-x="354" d="M20 231V349H334V231H20Z" />
<glyph unicode="&#xae;" glyph-name="registered" horiz-adv-x="800" d="M42 377Q42 427 48 475T70 573T114 656T188 711T296 732H528Q586 732 628 710T695 655T735 571Q759 489 759 368Q759 194 700 97T528 0H296Q183 0 117 88Q42 187 42 377ZM133 370Q133 289
149 227T204 126T296 86H522Q566 86 597 113T648 205T668 368Q668 499 647 553Q622 616 584 634Q559 646 528 646H296Q225 646 182 593Q133 532 133 370ZM430 580Q564 580 564 446Q564 382 543 354T486 316L573 153H474L391 312L339 324V153H248V580H430ZM339 390H414Q453
390 463 399T473 443T460 485T414 494H339V390Z" />
<glyph unicode="&#xaf;" glyph-name="overscore" horiz-adv-x="367" d="M38 531V610H330V531H38Z" />
<glyph unicode="&#xb0;" glyph-name="degree" horiz-adv-x="278" d="M38 604T38 632T51 683T88 721T139 735T190 721T227 684T241 632T228 581T191 544T140 530T89 543T52 580ZM122 677T109 664T95 635T101 610Q114 588 136 588T170 601T183 632T171 663T140 677Z" />
<glyph unicode="&#xb1;" glyph-name="plusminus" horiz-adv-x="500" d="M43 70V188H459V70H43ZM43 382V500H191V648H309V500H459V382H309V232H191V382H43Z" />
<glyph unicode="&#xb2;" glyph-name="twosuperior" horiz-adv-x="400" d="M24 767Q23 767 23 790T23 828L24 848Q131 867 196 867T289 856T335 825Q369 786 369 721Q369 616 196 478H368V378H27V473Q144 555 196 607Q220 631 239 660T259 715T242 754T183 767H24Z" />
<glyph unicode="&#xb3;" glyph-name="threesuperior" horiz-adv-x="408" d="M193 373Q81 373 27 393L28 473H187Q227 473 241 481T255 513V525Q255 550 239 559T191 570L68 575V661L191 668Q226 669 241 678T257 710V722Q257 745 241 753T191 762H23V841Q79 862
191 862Q213 862 237 862Q296 861 330 828T364 741V711Q364 637 307 618Q364 596 364 519V496Q364 373 232 373H193Z" />
<glyph unicode="&#xb4;" glyph-name="acute" horiz-adv-x="243" d="M15 531L106 670H228L106 531H15Z" />
<glyph unicode="&#xb5;" glyph-name="uni00B5" horiz-adv-x="588" d="M209 531V175Q209 104 267 104Q319 104 356 123Q374 133 396 150V531H536V0H423L396 56Q390 53 376 44T355 32T336 22T314 11Q257 -11 209 4V-270H69V178V531H209Z" />
<glyph unicode="&#xb6;" glyph-name="paragraph" horiz-adv-x="577" d="M30 499V592Q30 660 74 696T186 732H563V628H510V0H408V630H342V-270H240V372Q240 372 232 367Q212 355 186 355Q109 355 70 395T30 499ZM132 511Q132 476 151 465Q167 457 192 457H240V631H192Q156
631 144 617T132 572V511Z" />
<glyph unicode="&#xb7;" glyph-name="middot" horiz-adv-x="263" d="M65 340V430Q65 455 89 455H175Q200 455 200 430V340Q200 317 175 317H89Q74 317 70 325T65 340Z" />
<glyph unicode="&#xb8;" glyph-name="cedilla" horiz-adv-x="244" d="M112 -37H206Q206 -90 196 -120Q177 -178 94 -178H38V-118L82 -103Q102 -95 107 -82T112 -37Z" />
<glyph unicode="&#xb9;" glyph-name="onesuperior" horiz-adv-x="270" d="M221 860V378H113V762L12 739V805L114 860H221Z" />
<glyph unicode="&#xba;" glyph-name="ordmasculine" horiz-adv-x="394" d="M100 374T62 414T23 555T60 696T197 736T334 696T372 554T335 413T199 374ZM36 264V333H358V264H36ZM137 623T134 604T131 548T139 491T159 466T195 461T229 463T248 474Q264 488 264
542T258 617T239 643T201 649T165 646T146 633Z" />
<glyph unicode="&#xbb;" glyph-name="guillemotright" horiz-adv-x="580" d="M38 223L171 354L41 481L117 557L323 354L112 146L38 223ZM257 223L390 354L260 481L337 557L543 354L332 146L257 223Z" />
<glyph unicode="&#xbc;" glyph-name="onequarter" horiz-adv-x="931" d="M221 738V255H113V639L12 616V682L114 738H221ZM175 0L588 753H690L277 0H175ZM759 201V303L783 352H867V201H916V116L867 98V1H759V98H527L505 145L676 481H790L651 201H759Z" />
<glyph unicode="&#xbd;" glyph-name="onehalf" horiz-adv-x="991" d="M221 738V255H113V639L12 616V682L114 738H221ZM168 0L581 753H682L269 0H168ZM612 389Q612 389 612 412T612 450V470Q720 489 804 489T924 450T961 343Q961 239 786 100H960V0H616V96Q736
181 787 233Q811 257 831 287T851 342T834 378T773 389H612Z" />
<glyph unicode="&#xbe;" glyph-name="threequarters" horiz-adv-x="1044" d="M23 719Q78 739 174 739Q204 739 239 739Q299 739 333 706T367 618V588Q367 515 310 495Q367 473 367 396V373Q367 251 234 251Q229 251 211 251T188 251T167 251T145 251T124 252T103
254T84 256T64 260Q41 266 27 271L28 350L189 351Q230 351 244 359T259 390V403Q259 427 243 436T193 447L68 452V538L193 546Q229 547 244 556T260 587V600Q260 623 243 631T193 640H23V719ZM278 0L691 753H792L379 0H278ZM851 199V303L873 353H958V199H1006V116L958
98V1H851V98H618L595 145L766 481H879L739 199H851Z" />
<glyph unicode="&#xbf;" glyph-name="questiondown" horiz-adv-x="543" d="M528 -137Q528 -137 528 -179T528 -231V-242Q393 -269 299 -269Q273 -269 259 -268T245 -267Q188 -267 145 -250T78 -203Q30 -145 30 -70V4Q29 101 86 148Q134 188 220 188Q237 188 256
187V277H370L371 82Q332 82 304 82T247 81T198 59T176 -4T175 -55Q175 -93 200 -115T274 -138Q277 -138 279 -138L528 -137ZM246 447Q246 471 271 472H355Q366 471 372 465T379 449V360Q378 336 356 335H269Q247 337 246 360V447Z" />
<glyph unicode="&#xc0;" glyph-name="Agrave" horiz-adv-x="692" d="M193 936H316L406 797H315L193 936ZM34 0L281 732H440L678 0H529L477 162H237L184 0H34ZM274 286H444L362 548L274 286Z" />
<glyph unicode="&#xc1;" glyph-name="Aacute" horiz-adv-x="692" d="M315 797L406 936H528L406 797H315ZM34 0L281 732H440L678 0H529L477 162H237L184 0H34ZM274 286H444L362 548L274 286Z" />
<glyph unicode="&#xc2;" glyph-name="Acircumflex" horiz-adv-x="692" d="M206 797L314 932H418L515 797H422L363 857L300 797H206ZM34 0L281 732H440L678 0H529L477 162H237L184 0H34ZM274 286H444L362 548L274 286Z" />
<glyph unicode="&#xc3;" glyph-name="Atilde" horiz-adv-x="692" d="M420 887Q458 887 508 925L532 865Q470 797 420 797Q395 797 360 814T312 832T288 831T272 828T257 822T244 815T229 806T213 797L189 852Q253 922 310 922Q334 921 367 904T409 887T420 887ZM34
0L281 732H440L678 0H529L477 162H237L184 0H34ZM274 286H444L362 548L274 286Z" />
<glyph unicode="&#xc4;" glyph-name="Adieresis" horiz-adv-x="692" d="M209 797T192 814T174 852T182 886Q200 915 229 915T275 898T292 857T275 815T234 797ZM429 832T429 856T446 897T488 914T530 898T547 857T530 815T489 797T447 814ZM34 0L281 732H440L678
0H529L477 162H237L184 0H34ZM274 286H444L362 548L274 286Z" />
<glyph unicode="&#xc5;" glyph-name="Aring" horiz-adv-x="692" d="M259 804T273 781T310 744T361 730T412 743T448 780T462 839T433 905T361 935T289 905T259 840ZM318 850T330 863T361 876T391 863T404 832T392 802T361 790T330 802Q325 808 322 815T318 836ZM34
0L281 732H440L678 0H529L477 162H237L184 0H34ZM274 286H444L362 548L274 286Z" />
<glyph unicode="&#xc6;" glyph-name="AE" horiz-adv-x="954" d="M496 728Q522 731 542 732T577 733T607 732Q856 725 920 716V600H640Q604 600 596 582Q590 568 589 545V428L874 417V302L589 293V180Q589 144 608 136Q622 130 635 130T651 130H920V13Q869 6 681
-1L618 -4Q609 -4 595 -4T559 -1T509 14T465 53T449 121V194H274L178 0H23L306 575Q343 651 393 686Q442 721 496 728ZM449 317V558L333 317H449Z" />
<glyph unicode="&#xc7;" glyph-name="Ccedilla" horiz-adv-x="571" d="M188 -37H282Q282 -115 258 -146T170 -178H114V-118L158 -103Q177 -95 182 -82T188 -37ZM92 642Q132 708 203 729Q242 740 291 740Q434 740 546 707V597Q546 597 539 598T519 600T489 602T452
605T411 608Q364 611 327 611T270 607T230 589T202 548Q182 490 182 366Q182 234 210 183Q242 123 324 123Q418 123 514 129L546 131V22Q456 -6 314 -6Q303 -6 291 -6Q157 -5 100 90T42 372T92 642Z" />
<glyph unicode="&#xc8;" glyph-name="Egrave" horiz-adv-x="567" d="M164 934H287L377 795H286L164 934ZM58 144V580Q58 671 112 704Q157 732 209 732Q213 732 344 729T539 716V600H250Q213 600 204 582Q198 568 198 544V430L494 420V304L198 295V181Q198 143
219 135Q234 129 260 129H539V14Q489 7 292 0L227 -3Q219 -3 209 -3T181 -2T140 9T98 33Q58 69 58 144Z" />
<glyph unicode="&#xc9;" glyph-name="Eacute" horiz-adv-x="567" d="M275 795L366 933H488L366 795H275ZM58 144V580Q58 671 112 704Q157 732 209 732Q213 732 344 729T539 716V600H250Q213 600 204 582Q198 568 198 544V430L494 420V304L198 295V181Q198 143
219 135Q234 129 260 129H539V14Q489 7 292 0L227 -3Q219 -3 209 -3T181 -2T140 9T98 33Q58 69 58 144Z" />
<glyph unicode="&#xca;" glyph-name="Ecircumflex" horiz-adv-x="567" d="M163 797L271 932H375L472 797H379L320 857L257 797H163ZM58 144V580Q58 671 112 704Q157 732 209 732Q213 732 344 729T539 716V600H250Q213 600 204 582Q198 568 198 544V430L494 420V304L198
295V181Q198 143 219 135Q234 129 260 129H539V14Q489 7 292 0L227 -3Q219 -3 209 -3T181 -2T140 9T98 33Q58 69 58 144Z" />
<glyph unicode="&#xcb;" glyph-name="Edieresis" horiz-adv-x="567" d="M126 830T126 854T143 895T185 912T227 895T244 854T227 813T186 795T144 812ZM381 830T381 854T398 895T440 912T482 895T499 854T482 813T441 795T399 812ZM58 144V580Q58 671 112 704Q157
732 209 732Q213 732 344 729T539 716V600H250Q213 600 204 582Q198 568 198 544V430L494 420V304L198 295V181Q198 143 219 135Q234 129 260 129H539V14Q489 7 292 0L227 -3Q219 -3 209 -3T181 -2T140 9T98 33Q58 69 58 144Z" />
<glyph unicode="&#xcc;" glyph-name="Igrave" horiz-adv-x="245" d="M-37 936H86L176 797H85L-37 936ZM61 0V732H201V0H61Z" />
<glyph unicode="&#xcd;" glyph-name="Iacute" horiz-adv-x="245" d="M85 797L176 936H298L176 797H85ZM61 0V732H201V0H61Z" />
<glyph unicode="&#xce;" glyph-name="Icircumflex" horiz-adv-x="245" d="M-24 797L84 932H188L285 797H192L133 857L70 797H-24ZM61 0V732H201V0H61Z" />
<glyph unicode="&#xcf;" glyph-name="Idieresis" horiz-adv-x="245" d="M-56 832T-56 856T-39 897T3 914T45 898T62 857T45 815T4 797T-38 814ZM200 832T200 856T217 897T258 914T300 898T317 857T300 815T259 797T217 814ZM61 0V732H201V0H61Z" />
<glyph unicode="&#xd0;" glyph-name="Eth" horiz-adv-x="662" d="M-4 340V406H61V732Q61 732 372 732Q600 732 623 441Q626 404 626 343T611 216T566 101Q504 0 372 0H61V340H-4ZM461 185T472 236T484 361T476 483T450 558Q420 606 361 606H201V406H312V340H201V125H361Q405
125 433 155Z" />
<glyph unicode="&#xd1;" glyph-name="Ntilde" horiz-adv-x="678" d="M406 887Q445 887 495 925L519 865Q456 797 407 797Q386 797 365 806T327 824T302 832T289 832T274 831T259 828T244 822T230 815T215 806T200 797L175 852Q239 922 296 922Q321 921 353 904T395
887T406 887ZM61 0V732H203L493 259V732H633V0H493L202 468V0H61Z" />
<glyph unicode="&#xd2;" glyph-name="Ograve" horiz-adv-x="671" d="M177 936H299L390 797H299L177 936ZM58 216T54 261T50 369T57 489T78 585T113 653T157 697T213 722Q265 737 322 737T406 735T462 727T513 708T555 678T591 631T616 565Q638 491 638 392T631
240T611 148T579 82T536 38T481 12Q407 -10 286 -2Q224 1 196 13T148 38T113 71T86 118T66 181ZM196 485T193 448T190 355T194 260T207 192T236 150Q270 125 344 125Q414 125 449 151Q498 188 498 361Q498 478 486 516T463 570T433 595Q402 608 360 608T302 607T267
600T238 585T217 556T201 512Z" />
<glyph unicode="&#xd3;" glyph-name="Oacute" horiz-adv-x="671" d="M299 797L389 936H512L390 797H299ZM58 216T54 261T50 369T57 489T78 585T113 653T157 697T213 722Q265 737 322 737T406 735T462 727T513 708T555 678T591 631T616 565Q638 491 638 392T631
240T611 148T579 82T536 38T481 12Q407 -10 286 -2Q224 1 196 13T148 38T113 71T86 118T66 181ZM196 485T193 448T190 355T194 260T207 192T236 150Q270 125 344 125Q414 125 449 151Q498 188 498 361Q498 478 486 516T463 570T433 595Q402 608 360 608T302 607T267
600T238 585T217 556T201 512Z" />
<glyph unicode="&#xd4;" glyph-name="Ocircumflex" horiz-adv-x="671" d="M190 797L297 932H401L498 797H405L346 857L284 797H190ZM58 216T54 261T50 369T57 489T78 585T113 653T157 697T213 722Q265 737 322 737T406 735T462 727T513 708T555 678T591 631T616
565Q638 491 638 392T631 240T611 148T579 82T536 38T481 12Q407 -10 286 -2Q224 1 196 13T148 38T113 71T86 118T66 181ZM196 485T193 448T190 355T194 260T207 192T236 150Q270 125 344 125Q414 125 449 151Q498 188 498 361Q498 478 486 516T463 570T433 595Q402
608 360 608T302 607T267 600T238 585T217 556T201 512Z" />
<glyph unicode="&#xd5;" glyph-name="Otilde" horiz-adv-x="671" d="M403 887Q442 887 492 925L516 865Q454 797 404 797Q378 797 344 814T295 832T272 831T256 828T241 822T227 815T212 806T197 797L172 852Q236 922 293 922Q318 921 351 904T392 887T403 887ZM58
216T54 261T50 369T57 489T78 585T113 653T157 697T213 722Q265 737 322 737T406 735T462 727T513 708T555 678T591 631T616 565Q638 491 638 392T631 240T611 148T579 82T536 38T481 12Q407 -10 286 -2Q224 1 196 13T148 38T113 71T86 118T66 181ZM196 485T193
448T190 355T194 260T207 192T236 150Q270 125 344 125Q414 125 449 151Q498 188 498 361Q498 478 486 516T463 570T433 595Q402 608 360 608T302 607T267 600T238 585T217 556T201 512Z" />
<glyph unicode="&#xd6;" glyph-name="Odieresis" horiz-adv-x="671" d="M158 840T158 856T166 886Q183 915 212 915T258 898T275 857T258 815T221 797T188 805T166 826ZM448 797T431 814T413 852T421 886Q438 914 467 914T513 898T530 857T513 815T472 797ZM58
216T54 261T50 369T57 489T78 585T113 653T157 697T213 722Q265 737 322 737T406 735T462 727T513 708T555 678T591 631T616 565Q638 491 638 392T631 240T611 148T579 82T536 38T481 12Q407 -10 286 -2Q224 1 196 13T148 38T113 71T86 118T66 181ZM196 485T193
448T190 355T194 260T207 192T236 150Q270 125 344 125Q414 125 449 151Q498 188 498 361Q498 478 486 516T463 570T433 595Q402 608 360 608T302 607T267 600T238 585T217 556T201 512Z" />
<glyph unicode="&#xd7;" glyph-name="multiply" horiz-adv-x="461" d="M43 250L148 355L43 461L126 544L231 439L337 545L421 462L315 355L420 250L337 167L231 272L127 167L43 250Z" />
<glyph unicode="&#xd8;" glyph-name="Oslash" horiz-adv-x="679" d="M117 653Q139 681 161 697T216 722Q269 737 349 737Q474 737 531 701L553 732H628L577 659Q643 572 643 361Q643 161 583 82Q544 29 485 12Q431 -4 356 -4T235 4T153 37L127 0H53L110 83Q55
166 55 369T117 653ZM201 485T198 448T195 339T209 225L452 587Q425 608 349 608Q266 608 242 584Q214 556 208 521ZM349 125Q395 125 422 134T469 169T495 241T503 381T484 526L236 156Q267 125 349 125Z" />
<glyph unicode="&#xd9;" glyph-name="Ugrave" horiz-adv-x="664" d="M173 936H295L386 797H295L173 936ZM343 -5H329Q209 -5 169 20Q151 32 127 55T91 113Q61 197 61 320V732H201V320Q201 224 220 179Q237 139 287 128Q309 124 350 124T420 139Q479 171 479 320V732H620V320Q620
163 574 92Q559 67 545 52T508 25T469 8T426 -1Q392 -5 343 -5Z" />
<glyph unicode="&#xda;" glyph-name="Uacute" horiz-adv-x="664" d="M295 797L385 936H508L386 797H295ZM343 -5H329Q209 -5 169 20Q151 32 127 55T91 113Q61 197 61 320V732H201V320Q201 224 220 179Q237 139 287 128Q309 124 350 124T420 139Q479 171 479 320V732H620V320Q620
163 574 92Q559 67 545 52T508 25T469 8T426 -1Q392 -5 343 -5Z" />
<glyph unicode="&#xdb;" glyph-name="Ucircumflex" horiz-adv-x="664" d="M186 797L294 932H398L494 797H402L343 857L280 797H186ZM343 -5H329Q209 -5 169 20Q151 32 127 55T91 113Q61 197 61 320V732H201V320Q201 224 220 179Q237 139 287 128Q309 124 350 124T420
139Q479 171 479 320V732H620V320Q620 163 574 92Q559 67 545 52T508 25T469 8T426 -1Q392 -5 343 -5Z" />
<glyph unicode="&#xdc;" glyph-name="Udieresis" horiz-adv-x="664" d="M189 797T172 814T154 852T162 886Q179 914 208 914T255 898T272 857T255 815T213 797ZM409 832T409 856T426 897T468 914T509 898T526 857T509 815T468 797T427 814ZM343 -5H329Q209 -5
169 20Q151 32 127 55T91 113Q61 197 61 320V732H201V320Q201 224 220 179Q237 139 287 128Q309 124 350 124T420 139Q479 171 479 320V732H620V320Q620 163 574 92Q559 67 545 52T508 25T469 8T426 -1Q392 -5 343 -5Z" />
<glyph unicode="&#xdd;" glyph-name="Yacute" horiz-adv-x="656" d="M290 797L381 936H504L382 797H290ZM397 0H257V227L34 732H186L329 381L486 732H638L397 227V0Z" />
<glyph unicode="&#xde;" glyph-name="Thorn" horiz-adv-x="546" d="M311 148T284 148T186 168V0H46V729H186V588H333Q509 587 509 375Q509 215 427 171Q388 150 350 149ZM289 273Q290 272 300 272T324 275T348 289Q368 309 368 374Q367 443 333 457Q316 464 289
464H186V272L289 273Z" />
<glyph unicode="&#xdf;" glyph-name="germandbls" horiz-adv-x="572" d="M285 781Q452 781 511 683Q528 654 530 633T532 595T527 553Q517 493 470 442Q460 431 443 416T419 392Q398 371 398 353T414 322T454 300T501 275T541 235T558 174V143Q558 56 503 22Q455
-8 391 -8T240 11V110Q330 105 355 105T398 119T418 161V185Q418 216 363 238Q341 247 318 258T280 293T264 355T282 422T352 492Q393 528 393 576Q393 654 291 654Q255 654 232 640Q186 614 186 516V0H46V566Q46 658 108 719T285 781Z" />
<glyph unicode="&#xe0;" glyph-name="agrave" horiz-adv-x="519" d="M100 740H222L313 601H222L100 740ZM48 506Q139 541 291 541Q383 541 432 503T482 370V0H371L342 58Q338 51 317 37T257 8T184 -6Q110 -6 70 36T30 135V185Q30 249 68 290T185 331T303 331T342
331Q342 348 342 356T342 365Q342 405 325 417T257 430T48 419V506ZM170 155Q170 125 183 116T221 106T276 116T324 137L342 148V245L213 235Q170 231 170 181V155Z" />
<glyph unicode="&#xe1;" glyph-name="aacute" horiz-adv-x="519" d="M220 601L310 740H433L311 601H220ZM48 506Q139 541 291 541Q383 541 432 503T482 370V0H371L342 58Q338 51 317 37T257 8T184 -6Q110 -6 70 36T30 135V185Q30 249 68 290T185 331T303 331T342
331Q342 348 342 356T342 365Q342 405 325 417T257 430T48 419V506ZM170 155Q170 125 183 116T221 106T276 116T324 137L342 148V245L213 235Q170 231 170 181V155Z" />
<glyph unicode="&#xe2;" glyph-name="acircumflex" horiz-adv-x="519" d="M112 601L219 736H323L420 601H327L268 661L206 601H112ZM48 506Q139 541 291 541Q383 541 432 503T482 370V0H371L342 58Q338 51 317 37T257 8T184 -6Q110 -6 70 36T30 135V185Q30 249
68 290T185 331T303 331T342 331Q342 348 342 356T342 365Q342 405 325 417T257 430T48 419V506ZM170 155Q170 125 183 116T221 106T276 116T324 137L342 148V245L213 235Q170 231 170 181V155Z" />
<glyph unicode="&#xe3;" glyph-name="atilde" horiz-adv-x="519" d="M323 691Q361 691 411 729L435 669Q373 601 323 601Q298 601 263 618T215 636T191 635T175 632T160 626T147 619T132 610T116 601L92 656Q155 726 212 726Q237 725 270 708T312 691T323 691ZM48
506Q139 541 291 541Q383 541 432 503T482 370V0H371L342 58Q338 51 317 37T257 8T184 -6Q110 -6 70 36T30 135V185Q30 249 68 290T185 331T303 331T342 331Q342 348 342 356T342 365Q342 405 325 417T257 430T48 419V506ZM170 155Q170 125 183 116T221 106T276
116T324 137L342 148V245L213 235Q170 231 170 181V155Z" />
<glyph unicode="&#xe4;" glyph-name="adieresis" horiz-adv-x="519" d="M79 636T79 660T96 701T138 719T179 702T196 661T179 619T138 601T97 618ZM334 636T334 660T351 701T387 719T416 714T434 702Q451 685 451 661T434 619T393 601T352 618ZM48 506Q139 541
291 541Q383 541 432 503T482 370V0H371L342 58Q338 51 317 37T257 8T184 -6Q110 -6 70 36T30 135V185Q30 249 68 290T185 331T303 331T342 331Q342 348 342 356T342 365Q342 405 325 417T257 430T48 419V506ZM170 155Q170 125 183 116T221 106T276 116T324 137L342
148V245L213 235Q170 231 170 181V155Z" />
<glyph unicode="&#xe5;" glyph-name="aring" horiz-adv-x="519" d="M181 631T173 650T165 693T179 741T216 778T267 792T318 779T354 742T368 690T355 638T318 602T271 588T228 595T195 617ZM249 733T237 720T224 695T226 676T232 664T241 655Q253 647 269 647T297
659T310 690T298 720T267 733ZM48 506Q139 541 291 541Q383 541 432 503T482 370V0H371L342 58Q338 51 317 37T257 8T184 -6Q110 -6 70 36T30 135V185Q30 249 68 290T185 331T303 331T342 331Q342 348 342 356T342 365Q342 405 325 417T257 430T48 419V506ZM170
155Q170 125 183 116T221 106T276 116T324 137L342 148V245L213 235Q170 231 170 181V155Z" />
<glyph unicode="&#xe6;" glyph-name="ae" horiz-adv-x="842" d="M30 138V173Q30 234 65 275Q103 319 183 319T303 318T342 319Q342 343 342 355T342 368Q342 407 325 420T264 433T48 421V508Q132 543 290 544Q388 543 429 501Q458 523 494 530T584 538T670 535T732
520T778 488Q813 444 813 351Q813 282 776 253T664 223H496Q496 155 521 133T608 110Q731 110 803 120V26Q768 13 714 6Q645 -2 531 -2Q476 -2 444 15T386 67Q377 48 307 23T183 -3Q110 -3 70 39T30 138ZM170 155Q170 123 186 115Q198 109 222 109T276 119T324
140L342 150V235L213 225Q170 221 170 171V155ZM595 431H590Q544 431 537 428T523 421T512 412T505 397Q496 380 496 324Q496 321 496 318H628Q673 318 673 358Q673 407 660 419T595 431Z" />
<glyph unicode="&#xe7;" glyph-name="ccedilla" horiz-adv-x="494" d="M38 266Q38 346 50 400T87 484T142 525T213 537Q357 537 457 504V418Q362 424 306 424T238 423T212 413T192 387Q178 347 178 271T187 162T215 118T274 107Q355 107 437 114L464 116V28Q418
4 374 0Q309 -6 261 -6H255Q217 -6 213 -6Q134 -6 89 47Q38 107 38 266ZM232 -38H326Q326 -116 302 -147T214 -179H158V-119L202 -104Q222 -96 227 -83T232 -38Z" />
<glyph unicode="&#xe8;" glyph-name="egrave" horiz-adv-x="525" d="M106 734H229L319 596H228L106 734ZM181 529Q216 535 261 535T331 534T381 528T423 515T454 492T477 457Q495 412 495 354T478 265Q445 208 347 208H178Q178 173 184 152T206 122T239 110T335
107T485 118V23Q440 6 395 2T332 -3T290 -4Q257 -5 213 -5Q114 -5 76 57T38 258T68 456T181 529ZM311 309Q355 309 355 349Q355 399 342 413T287 428T231 426T201 412T182 377T178 334T178 309H311Z" />
<glyph unicode="&#xe9;" glyph-name="eacute" horiz-adv-x="525" d="M224 596L314 734H437L315 596H224ZM181 529Q216 535 261 535T331 534T381 528T423 515T454 492T477 457Q495 412 495 354T478 265Q445 208 347 208H178Q178 173 184 152T206 122T239 110T335
107T485 118V23Q440 6 395 2T332 -3T290 -4Q257 -5 213 -5Q114 -5 76 57T38 258T68 456T181 529ZM311 309Q355 309 355 349Q355 399 342 413T287 428T231 426T201 412T182 377T178 334T178 309H311Z" />
<glyph unicode="&#xea;" glyph-name="ecircumflex" horiz-adv-x="525" d="M112 596L220 732H324L421 596H328L269 656L206 596H112ZM181 529Q216 535 261 535T331 534T381 528T423 515T454 492T477 457Q495 412 495 354T478 265Q445 208 347 208H178Q178 173 184
152T206 122T239 110T335 107T485 118V23Q440 6 395 2T332 -3T290 -4Q257 -5 213 -5Q114 -5 76 57T38 258T68 456T181 529ZM311 309Q355 309 355 349Q355 399 342 413T287 428T231 426T201 412T182 377T178 334T178 309H311Z" />
<glyph unicode="&#xeb;" glyph-name="edieresis" horiz-adv-x="525" d="M79 631T79 655T96 696T138 714T179 697T196 656T179 614T138 596T97 613ZM334 631T334 655T351 696T387 714T415 709T434 697Q451 680 451 656T434 614T393 596T352 613ZM181 529Q216 535
261 535T331 534T381 528T423 515T454 492T477 457Q495 412 495 354T478 265Q445 208 347 208H178Q178 173 184 152T206 122T239 110T335 107T485 118V23Q440 6 395 2T332 -3T290 -4Q257 -5 213 -5Q114 -5 76 57T38 258T68 456T181 529ZM311 309Q355 309 355 349Q355
399 342 413T287 428T231 426T201 412T182 377T178 334T178 309H311Z" />
<glyph unicode="&#xec;" glyph-name="igrave" horiz-adv-x="230" d="M-52 734H71L161 596H70L-52 734ZM46 0V531H186V0H46Z" />
<glyph unicode="&#xed;" glyph-name="iacute" horiz-adv-x="230" d="M70 596L161 734H283L161 596H70ZM46 0V531H186V0H46Z" />
<glyph unicode="&#xee;" glyph-name="icircumflex" horiz-adv-x="230" d="M-39 596L69 732H173L270 596H177L118 656L55 596H-39ZM46 0V531H186V0H46Z" />
<glyph unicode="&#xef;" glyph-name="idieresis" horiz-adv-x="230" d="M-71 631T-71 655T-54 696T-12 714T30 697T47 656T30 614T-11 596T-53 613ZM184 631T184 655T201 696T243 714T285 697T302 656T285 614T244 596T202 613ZM46 0V531H186V0H46Z" />
<glyph unicode="&#xf0;" glyph-name="eth" horiz-adv-x="540" d="M116 0T73 63T30 261T74 463T217 531H273Q331 531 348 521Q330 582 291 618L177 565L149 622L221 655Q183 669 118 669Q107 669 95 668V783Q261 783 351 723L444 766L473 708L405 677Q470 604 492
486Q510 387 510 264Q510 0 322 0H217Q116 0 73 63ZM186 382T178 352T170 263T178 176T199 139T240 131H300Q344 131 357 159T370 269T358 376T300 402H240Q214 402 200 392Z" />
<glyph unicode="&#xf1;" glyph-name="ntilde" horiz-adv-x="550" d="M338 690Q377 690 427 728L451 668Q389 600 339 600Q314 600 279 617T230 635T207 634T191 631T176 625T163 618T148 609T132 600L107 655Q171 725 228 725Q253 724 286 707T327 690T338 690ZM46
0V531H158L186 474Q259 527 302 535Q325 540 354 540Q513 540 513 354V0H373V356Q373 428 314 428Q274 428 246 418T186 382V0H46Z" />
<glyph unicode="&#xf2;" glyph-name="ograve" horiz-adv-x="560" d="M117 734H240L330 596H239L117 734ZM38 255Q38 324 46 370T71 449T118 501Q173 536 280 536Q417 536 469 476T522 263T471 52T280 -5Q144 -5 90 56Q38 115 38 255ZM186 378T182 347T178 261T183
177T201 132T232 112T278 108T321 110T349 120T369 145Q382 181 382 238T381 322T374 367T363 396T344 414Q324 424 285 424T229 419T199 396Z" />
<glyph unicode="&#xf3;" glyph-name="oacute" horiz-adv-x="560" d="M235 596L325 734H448L326 596H235ZM38 255Q38 324 46 370T71 449T118 501Q173 536 280 536Q417 536 469 476T522 263T471 52T280 -5Q144 -5 90 56Q38 115 38 255ZM186 378T182 347T178 261T183
177T201 132T232 112T278 108T321 110T349 120T369 145Q382 181 382 238T381 322T374 367T363 396T344 414Q324 424 285 424T229 419T199 396Z" />
<glyph unicode="&#xf4;" glyph-name="ocircumflex" horiz-adv-x="560" d="M128 596L236 732H340L437 596H344L285 656L222 596H128ZM38 255Q38 324 46 370T71 449T118 501Q173 536 280 536Q417 536 469 476T522 263T471 52T280 -5Q144 -5 90 56Q38 115 38 255ZM186
378T182 347T178 261T183 177T201 132T232 112T278 108T321 110T349 120T369 145Q382 181 382 238T381 322T374 367T363 396T344 414Q324 424 285 424T229 419T199 396Z" />
<glyph unicode="&#xf5;" glyph-name="otilde" horiz-adv-x="560" d="M343 686Q382 686 432 724L456 664Q394 596 344 596Q319 596 284 613T235 631T212 630T196 627T181 621T168 614T153 605T137 596L112 651Q176 721 233 721Q258 720 291 703T332 686T343 686ZM38
255Q38 324 46 370T71 449T118 501Q173 536 280 536Q417 536 469 476T522 263T471 52T280 -5Q144 -5 90 56Q38 115 38 255ZM186 378T182 347T178 261T183 177T201 132T232 112T278 108T321 110T349 120T369 145Q382 181 382 238T381 322T374 367T363 396T344 414Q324
424 285 424T229 419T199 396Z" />
<glyph unicode="&#xf6;" glyph-name="odieresis" horiz-adv-x="560" d="M94 631T94 655T111 696T153 714T195 697T212 656T195 614T154 596T112 613ZM349 631T349 655T366 696T408 714T450 697T467 656T450 614T409 596T367 613ZM38 255Q38 324 46 370T71 449T118
501Q173 536 280 536Q417 536 469 476T522 263T471 52T280 -5Q144 -5 90 56Q38 115 38 255ZM186 378T182 347T178 261T183 177T201 132T232 112T278 108T321 110T349 120T369 145Q382 181 382 238T381 322T374 367T363 396T344 414Q324 424 285 424T229 419T199
396Z" />
<glyph unicode="&#xf7;" glyph-name="divide" horiz-adv-x="497" d="M38 294V412H460V294H38ZM210 246H284Q308 246 308 222V155Q308 132 284 132H210Q200 132 193 138T186 155V222Q186 246 210 246ZM210 570H284Q308 570 308 545V478Q308 455 284 455H210Q194
455 188 469Q186 473 186 478V545Q186 570 210 570Z" />
<glyph unicode="&#xf8;" glyph-name="oslash" horiz-adv-x="581" d="M92 67Q49 125 49 246T73 427T148 511T295 536T442 508L461 531H538L487 468Q533 408 533 259T482 52T291 -5Q189 -5 135 27L113 0H38L92 67ZM197 378T193 347T189 266T198 196L361 407Q343
424 300 424T240 419T210 396ZM339 108T356 118T380 145Q393 181 393 249T383 341L217 128Q235 108 287 108Z" />
<glyph unicode="&#xf9;" glyph-name="ugrave" horiz-adv-x="550" d="M108 734H231L321 596H230L108 734ZM38 178V531H178V175Q178 104 237 104Q277 104 304 114T365 150V531H505V0H392L365 56Q356 51 340 41T315 26T292 13T264 1Q233 -9 196 -9Q38 -9 38 178Z" />
<glyph unicode="&#xfa;" glyph-name="uacute" horiz-adv-x="550" d="M226 596L316 734H439L317 596H226ZM38 178V531H178V175Q178 104 237 104Q277 104 304 114T365 150V531H505V0H392L365 56Q356 51 340 41T315 26T292 13T264 1Q233 -9 196 -9Q38 -9 38 178Z" />
<glyph unicode="&#xfb;" glyph-name="ucircumflex" horiz-adv-x="550" d="M117 596L225 732H329L426 596H333L274 656L211 596H117ZM38 178V531H178V175Q178 104 237 104Q277 104 304 114T365 150V531H505V0H392L365 56Q356 51 340 41T315 26T292 13T264 1Q233
-9 196 -9Q38 -9 38 178Z" />
<glyph unicode="&#xfc;" glyph-name="udieresis" horiz-adv-x="550" d="M85 631T85 655T102 696T144 714T186 697T203 656T186 614T145 596T103 613ZM340 631T340 655T357 696T399 714T441 697T458 656T441 614T400 596T358 613ZM38 178V531H178V175Q178 104 237
104Q277 104 304 114T365 150V531H505V0H392L365 56Q356 51 340 41T315 26T292 13T264 1Q233 -9 196 -9Q38 -9 38 178Z" />
<glyph unicode="&#xfd;" glyph-name="yacute" horiz-adv-x="578" d="M243 596L333 734H456L334 596H243ZM16 531H163L255 159Q260 141 267 135T278 127T287 123T296 121T303 121T308 120L414 531H560L376 -168L303 -270H203L278 0Q156 0 120 135L16 531Z" />
<glyph unicode="&#xfe;" glyph-name="thorn" horiz-adv-x="556" d="M193 782V473Q223 497 266 515T353 534Q526 534 526 264Q526 101 478 40Q436 -13 353 -13Q316 -13 272 -4T193 24V-270H53V782H193ZM316 415Q246 412 193 380V116Q236 100 316 97Q340 97 354
108Q386 135 386 275T316 415Z" />
<glyph unicode="&#xff;" glyph-name="ydieresis" horiz-adv-x="578" d="M102 631T102 655T119 696T161 714T202 697T219 656T202 614T161 596T120 613ZM357 631T357 655T374 696T416 714T457 697T474 656T457 614T416 596T375 613ZM16 531H163L255 159Q260 141
267 135T278 127T287 123T296 121T303 121T308 120L414 531H560L376 -168L303 -270H203L278 0Q156 0 120 135L16 531Z" />
<glyph unicode="&#x2013;" glyph-name="endash" horiz-adv-x="513" d="M20 228V347H493V228H20Z" />
<glyph unicode="&#x2014;" glyph-name="emdash" horiz-adv-x="736" d="M20 230V349H716V230H20Z" />
<glyph unicode="&#x2018;" glyph-name="quoteleft" horiz-adv-x="259" d="M164 743Q177 743 193 740V685Q192 685 192 685Q160 685 160 652V631H172Q198 631 198 606V516Q198 488 172 488H86Q61 488 61 516V649Q61 743 164 743Z" />
<glyph unicode="&#x2019;" glyph-name="quoteright" horiz-adv-x="259" d="M94 488Q81 488 66 491V546Q67 546 67 546Q99 546 99 579V599H87Q61 599 61 626V715Q61 743 87 743H173Q198 743 198 715V582Q198 488 94 488Z" />
<glyph unicode="&#x201a;" glyph-name="quotesinglbase" horiz-adv-x="259" d="M95 -112Q82 -112 66 -109V-54Q67 -54 67 -54Q99 -54 99 -21V0H87Q61 0 61 26V115Q61 144 87 144H173Q198 144 198 115V-17Q198 -112 95 -112Z" />
<glyph unicode="&#x201c;" glyph-name="quotedblleft" horiz-adv-x="425" d="M233 648Q233 742 337 742Q346 742 352 741L366 739V684Q365 684 365 684Q333 684 333 651V631H345Q356 631 363 624T371 604V515Q371 487 345 487H259Q233 487 233 515V648ZM158 742Q172
742 187 739V684Q187 684 187 684Q155 684 155 651V631H167Q178 631 185 624T193 604V515Q193 487 167 487H80Q55 487 55 515V648Q55 742 158 742Z" />
<glyph unicode="&#x201d;" glyph-name="quotedblright" horiz-adv-x="425" d="M89 487Q76 487 60 490V545Q61 545 61 545Q93 545 93 578V598H81Q70 598 63 605T55 624V714Q55 742 81 742H168Q193 742 193 714V581Q193 487 89 487ZM371 581Q371 486 267 486Q259
486 252 487L239 490V545Q239 545 240 545Q271 545 271 578V598H260Q248 598 241 605T233 624V714Q233 742 260 742H346Q371 742 371 714V581Z" />
<glyph unicode="&#x201e;" glyph-name="quotedblbase" horiz-adv-x="425" d="M89 -112Q76 -112 60 -109V-54Q61 -54 61 -54Q93 -54 93 -21V0H81Q70 0 63 6T55 26V115Q55 144 81 144H168Q193 144 193 115V-17Q193 -112 89 -112ZM371 -17Q371 -112 267 -112Q259
-112 252 -111L239 -109V-54Q239 -54 240 -54Q271 -54 271 -21V0H260Q248 0 241 6T233 26V115Q233 143 260 143H346Q371 143 371 115V-17Z" />
<glyph unicode="&#x2022;" glyph-name="bullet" horiz-adv-x="309" d="M65 322V440Q65 475 98 475H210Q245 475 245 440V322Q245 290 210 290H98Q83 290 74 298T65 322Z" />
<glyph unicode="&#x2039;" glyph-name="guilsinglleft" horiz-adv-x="356" d="M38 354L244 557L321 481L190 354L323 223L249 146L38 354Z" />
<glyph unicode="&#x203a;" glyph-name="guilsinglright" horiz-adv-x="356" d="M38 223L171 354L41 481L117 557L323 354L112 146L38 223Z" />
</font>
</defs>
</svg>
