<?xml version="1.0" standalone="no"?>
<!DOCTYPE svg PUBLIC "-//W3C//DTD SVG 1.1//EN" "http://www.w3.org/Graphics/SVG/1.1/DTD/svg11.dtd">
<svg xmlns="http://www.w3.org/2000/svg">
<defs >
<font id="Exo" horiz-adv-x="539" ><font-face
    font-family="Exo"
    units-per-em="1000"
    panose-1="2 0 7 3 0 0 0 0 0 0"
    ascent="1002"
    descent="-327"
    alphabetic="0" />
<glyph unicode=" " glyph-name="space" horiz-adv-x="250" />
<glyph unicode="!" glyph-name="exclam" horiz-adv-x="269" d="M116 126H192Q214 126 211 101L198 23Q195 0 172 0H96Q86 0 80 6T75 23L88 101Q91 126 116 126ZM112 199L186 731H308L212 199H112Z" />
<glyph unicode="&quot;" glyph-name="quotedbl" horiz-adv-x="421" d="M167 531L177 665L188 732H301L290 665L259 531H167ZM331 531L341 665L352 732H465L454 665L423 531H331Z" />
<glyph unicode="#" glyph-name="numbersign" horiz-adv-x="708" d="M51 218L76 298H230L274 435H119L145 515H302L373 732H453L382 515H520L591 732H671L600 515H774L748 435H574L530 297H704L680 217H502L431 0H351L422 217L283 218L212 0H132L203 218H51ZM310
298L450 297L494 435H354L310 298Z" />
<glyph unicode="$" glyph-name="dollar" horiz-adv-x="571" d="M186 103T233 102T306 100T344 101T367 105T391 114T412 128Q432 144 437 174L445 224Q451 262 446 277T425 298T384 303H279Q203 303 167 338Q131 373 125 417Q121 440 121 459T124 498L134 562Q152
679 238 716Q285 736 356 738L370 824H446L432 736Q521 730 611 711L596 620Q385 630 349 630T285 613T248 546L241 499Q239 485 239 477T240 459T249 439Q265 419 317 419H424Q506 419 538 374Q567 333 567 285Q567 270 562 224L553 168Q525 -8 328 -8Q321 -8
314 -8L301 -90H225L239 -5Q142 2 72 20L87 107Q95 107 140 105Z" />
<glyph unicode="%" glyph-name="percent" horiz-adv-x="963" d="M283 732H384Q451 732 477 699Q497 676 497 634Q497 618 494 599L474 473Q466 427 451 401Q419 349 322 349H221Q158 349 129 384Q107 411 107 453Q107 467 110 483L130 609Q140 675 172 703T283
732ZM198 488Q196 478 196 466T203 445T242 435H326Q360 435 372 446T390 488L406 593Q409 606 409 613T407 630Q402 646 361 646H278Q244 646 232 635T214 593L198 488ZM213 0L773 732H862L305 0H213ZM859 384Q972 384 972 285Q972 269 969 250L950 124Q939 56
906 29T796 1H695Q633 1 604 35Q583 61 583 103Q583 117 585 133L605 259Q615 325 647 354T758 384H859ZM673 140Q671 128 671 117T677 99Q687 87 718 87H801Q835 87 847 98T865 140L881 245Q883 258 883 270T877 290T836 298H753Q719 298 707 287T689 245L673
140Z" />
<glyph unicode="&amp;" glyph-name="ampersand" horiz-adv-x="655" d="M401 628Q308 628 308 583Q308 559 330 522L483 255L618 373L653 330L583 210L536 165L632 0H507L448 100L374 37Q322 -6 251 -6Q213 -6 175 9Q120 30 89 81T57 185Q57 286 163 366L255 436L212
511Q189 553 189 590Q189 602 192 614Q202 661 237 692T317 728Q376 733 410 733T482 730T593 710L580 628H401ZM260 101Q294 101 326 127L396 188L302 345L230 290Q166 242 166 193Q166 168 183 143Q212 101 260 101Z" />
<glyph unicode="&apos;" glyph-name="quotesingle" horiz-adv-x="210" d="M142 531L152 665L163 732H280L269 665L238 531H142Z" />
<glyph unicode="(" glyph-name="parenleft" horiz-adv-x="361" d="M311 562T279 476T233 315T218 201T217 131T223 54T239 -39T262 -120Q289 -191 305 -218L312 -231H200Q155 -165 125 -42Q102 52 102 154Q102 328 162 494Q193 582 227 641Q297 765 345 817L365
839H482Q455 806 414 744T342 622Z" />
<glyph unicode=")" glyph-name="parenright" horiz-adv-x="363" d="M154 42T186 130T233 301T248 425Q248 546 232 619Q203 745 167 813L153 839H266Q310 770 340 646Q363 550 363 447Q363 280 304 110Q274 22 241 -38Q173 -160 128 -210L108 -231H-16Q11 -200
51 -138T123 -17Z" />
<glyph unicode="*" glyph-name="asterisk" horiz-adv-x="431" d="M131 566L139 616L282 642L274 561L131 566ZM169 415L214 551L290 532L213 400L169 415ZM271 470L326 538L423 448L388 407L271 470ZM283 719L334 737L385 616L305 584L283 719ZM334 571L466 649L485
606L375 509L334 571Z" />
<glyph unicode="+" glyph-name="plus" horiz-adv-x="495" d="M87 305L104 407H260L285 564H387L362 407H520L503 305H345L320 148H218L243 305H87Z" />
<glyph unicode="," glyph-name="comma" horiz-adv-x="263" d="M97 0Q86 0 80 6T76 25L88 100Q92 127 117 127H189Q209 127 209 107Q209 104 209 100L191 -11Q186 -40 171 -59Q146 -92 90 -92Q81 -92 75 -90L63 -88L70 -46Q84 -46 92 -41T102 -31T105 -18L108 0H97Z" />
<glyph unicode="-" glyph-name="hyphen" horiz-adv-x="354" d="M60 239L77 341H391L374 239H60Z" />
<glyph unicode="." glyph-name="period" horiz-adv-x="265" d="M116 126H190Q211 126 211 108Q211 105 211 101L198 23Q194 0 170 0H96Q85 0 80 6T75 23L88 101Q91 126 116 126Z" />
<glyph unicode="/" glyph-name="slash" horiz-adv-x="436" d="M5 -72L419 770H540L126 -72H5Z" />
<glyph unicode="0" glyph-name="zero" horiz-adv-x="633" d="M347 732H511Q558 732 591 717T641 678Q668 638 668 592Q668 576 664 560L603 172Q588 84 541 42T408 0H244Q161 0 117 43Q82 76 82 135Q82 152 86 172L147 556Q175 732 347 732ZM204 187Q202 174 202
164T203 146T208 132T215 122T225 116T235 112T248 110Q258 109 266 109T275 109H396Q476 109 489 186L546 546Q548 558 548 575T536 607T481 623H354Q273 623 261 546L204 187Z" />
<glyph unicode="1" glyph-name="one" horiz-adv-x="367" d="M124 571L136 648Q178 648 229 679T301 732H415L300 0H184L281 606Q259 590 215 581T124 571Z" />
<glyph unicode="2" glyph-name="two" horiz-adv-x="589" d="M516 522Q518 537 518 553Q518 632 409 632H134L148 719Q303 742 453 742Q521 742 565 709T621 634T634 563T631 507T609 440T567 369T507 300T442 239T373 184Q325 147 270 109H564L547 0H41L58 103Q247
219 381 338Q432 384 471 434T516 522Z" />
<glyph unicode="3" glyph-name="three" horiz-adv-x="587" d="M339 -7H281Q268 -7 262 -7T229 -7T192 -6T159 -4T124 0T94 5Q65 10 34 21L48 103H318Q423 103 435 180L442 222Q448 263 438 280Q430 294 422 297T408 303T392 306Q378 308 357 309L143 317L158 410L374
419Q426 421 447 435T476 464T488 500L495 548Q497 558 497 568T493 591T474 612Q450 625 407 625H124L136 706Q222 735 357 735Q407 735 463 734Q539 732 582 682Q616 643 616 588Q616 572 613 555L604 496Q585 381 509 364Q562 341 562 256Q562 234 559 210L550
161Q524 -7 339 -7Z" />
<glyph unicode="4" glyph-name="four" horiz-adv-x="614" d="M52 224L414 732H548L230 282H444L473 464L520 540H603L562 282H641L627 192L544 170L518 2H400L426 170H77L52 224Z" />
<glyph unicode="5" glyph-name="five" horiz-adv-x="599" d="M258 430Q293 459 384 459Q399 459 425 458T456 456Q529 454 566 402Q595 363 595 308Q595 291 592 273L576 162Q561 70 501 28Q456 -4 371 -5Q360 -5 312 -5Q203 -5 67 19L82 109H372Q416 109 437
133T462 188L475 268Q477 281 477 292Q477 351 414 351H300Q259 351 237 323Q224 308 221 286H111L203 732H640L623 623H298L258 430Z" />
<glyph unicode="6" glyph-name="six" horiz-adv-x="613" d="M237 417Q350 439 467 439Q545 439 578 401Q610 364 610 319Q610 301 606 268L588 148Q575 65 525 33T392 0H248Q214 0 189 10T142 47Q100 100 100 222Q100 295 115 390T155 555T213 662T276 716T343
736T413 738Q531 738 652 717L639 629H374Q343 629 318 608T277 552Q250 491 237 417ZM223 333Q213 267 213 232T217 177T229 141Q245 107 289 107H393Q467 107 478 177L491 265Q494 279 494 294T484 321T432 333H223Z" />
<glyph unicode="7" glyph-name="seven" horiz-adv-x="551" d="M124 623L141 732H608L632 674L274 0H144L480 623H124Z" />
<glyph unicode="8" glyph-name="eight" horiz-adv-x="626" d="M207 359Q139 386 139 472Q139 489 142 506L152 571Q168 670 225 706Q276 737 362 737H512Q620 737 649 655Q657 630 657 605T654 557L644 499Q642 474 627 448Q598 398 548 389Q608 372 608 274Q608
260 605 248L591 158Q572 39 492 13Q454 0 394 0H245Q144 0 108 52Q85 85 85 134Q85 148 89 170L101 252Q112 316 159 343Q180 355 207 359ZM206 172Q204 162 204 152T209 129Q219 105 278 106H391Q436 106 459 133Q472 148 475 172L489 254Q490 262 490 277T476
307T428 323H306Q230 323 219 254L206 172ZM255 477Q255 452 272 438T321 424H443Q486 424 503 443T526 494L535 549Q538 566 538 585T526 618T474 632H361Q313 632 293 614T265 549L257 494Q255 485 255 477Z" />
<glyph unicode="9" glyph-name="nine" horiz-adv-x="612" d="M493 318Q380 297 262 297Q184 297 152 336Q121 375 121 419Q121 437 124 471L141 584Q155 668 204 702T337 736H481Q630 736 630 509Q630 381 596 248Q559 103 485 39Q443 3 395 0T308 -3Q186 -3 77
19L91 107H356Q381 107 402 121T438 158T464 210Q482 258 493 318ZM507 403Q516 466 516 499T513 562T491 610T441 629H336Q263 629 252 559L239 471Q236 457 236 447T239 425Q247 403 298 403H507Z" />
<glyph unicode=":" glyph-name="colon" horiz-adv-x="266" d="M116 126H190Q211 126 211 108Q211 105 211 101L198 23Q194 0 170 0H96Q85 0 80 6T75 23L88 101Q91 126 116 126ZM155 532T180 532H254Q275 532 275 514Q275 511 275 507L263 429Q259 406 234 406H160Q149
406 144 412T140 429L152 507Q155 532 180 532Z" />
<glyph unicode=";" glyph-name="semicolon" horiz-adv-x="266" d="M97 0Q87 0 81 7T76 25L88 100Q89 112 97 119T117 127H189Q209 127 209 107Q209 104 209 100L191 -11Q186 -40 171 -59Q146 -92 90 -92Q81 -92 75 -90L63 -88L70 -46Q84 -46 92 -41T102 -31T105
-18L108 0H97ZM181 532H255Q277 532 277 514Q277 511 276 507L264 429Q260 406 236 406H162Q151 406 146 412T141 429L153 507Q157 532 181 532Z" />
<glyph unicode="&lt;" glyph-name="less" horiz-adv-x="458" d="M89 297L107 409L505 560L488 448L219 349L456 245L438 136L89 297Z" />
<glyph unicode="=" glyph-name="equal" horiz-adv-x="467" d="M50 194L67 296H494L477 194H50ZM83 407L100 509H527L510 407H83Z" />
<glyph unicode="&gt;" glyph-name="greater" horiz-adv-x="459" d="M64 136L82 249L354 357L113 454L131 560L481 409L464 297L64 136Z" />
<glyph unicode="?" glyph-name="question" horiz-adv-x="541" d="M321 289L307 195H207L236 378Q277 377 308 377T363 378T408 387T445 415T467 465L478 536Q480 549 480 560Q480 594 459 613T373 632H116L130 716Q277 740 370 740Q393 740 416 739Q483 739 528
710Q598 664 598 578Q598 561 595 544L582 453Q566 349 501 312Q453 286 378 286Q351 286 321 289ZM209 126H283Q305 126 305 108Q305 105 304 101L292 23Q288 0 264 0H190Q179 0 173 6T169 23L181 101Q185 126 209 126Z" />
<glyph unicode="@" glyph-name="at" horiz-adv-x="886" d="M739 713Q897 713 897 554Q897 529 892 500L842 164Q829 78 782 39Q738 3 658 3H580L556 60Q503 -4 415 -4Q255 -4 255 187Q255 230 263 281Q303 545 488 545Q648 545 715 480L660 102Q700 102 719 118T746
192L793 507Q803 570 786 592Q775 607 762 610Q744 614 719 614H351Q284 614 258 575Q238 544 232 507L155 20Q152 4 152 -17T164 -59Q182 -88 241 -88H627L615 -159Q480 -186 323 -186H228Q160 -186 117 -156Q52 -110 52 -18Q52 3 56 26L134 521Q149 617 206 665T371
713H739ZM385 373T375 340T360 263T354 187T361 133Q375 94 428 94Q471 94 503 108T567 158L610 435Q560 447 515 447T454 443T424 426T397 393Z" />
<glyph unicode="A" glyph-name="A" horiz-adv-x="677" d="M38 0L409 732H537L666 0H548L515 177H256L166 0H38ZM306 283H501L452 579L306 283Z" />
<glyph unicode="B" glyph-name="B" horiz-adv-x="598" d="M475 732Q563 732 604 689Q648 643 648 573Q648 552 646 530Q638 467 605 429T523 380Q560 374 586 324Q605 288 605 238Q605 219 603 199Q589 93 533 47T361 0H68L184 732H475ZM487 216Q489 231 489 253T477
299Q458 333 410 333H237L201 106H375Q469 106 487 216ZM495 459Q532 493 532 569Q532 591 515 609T455 627H284L253 435H423Q468 435 495 459Z" />
<glyph unicode="C" glyph-name="C" horiz-adv-x="573" d="M410 740Q533 740 657 707L642 615Q524 631 430 631Q423 631 419 631T407 631T390 631T367 628T343 621T320 607T297 585T275 552T255 506Q234 445 223 376T211 257T224 173Q248 107 328 103Q344 103 392
103T565 111L551 20Q465 -6 315 -6Q241 -6 201 16Q95 72 95 256Q95 312 108 391T141 534T197 646Q265 740 410 740Z" />
<glyph unicode="D" glyph-name="D" horiz-adv-x="660" d="M472 732Q577 732 626 668Q673 606 680 521Q682 493 682 472Q682 412 672 352Q643 172 570 86T362 0H68L184 731Q184 732 472 732ZM366 107Q443 107 490 177T556 364Q567 428 567 481Q567 626 445 626H283L201
107H366Z" />
<glyph unicode="E" glyph-name="E" horiz-adv-x="562" d="M319 732Q323 732 460 727T638 716L623 621H331Q295 621 283 603Q273 588 270 565L247 421L546 411L531 316L229 307L206 160Q200 122 220 114Q235 108 260 108H543L527 14Q494 10 289 0L221 -3Q216 -3
202 -3T166 3Q84 24 84 110Q84 124 86 140L158 592Q180 732 319 732Z" />
<glyph unicode="F" glyph-name="F" horiz-adv-x="564" d="M321 732Q325 732 462 727T639 716L625 621H332Q299 621 287 606T271 565L249 420L548 410L533 315L230 305L182 0H66L158 585Q171 665 215 698T321 732Z" />
<glyph unicode="G" glyph-name="G" horiz-adv-x="612" d="M216 248Q216 104 325 104Q325 104 326 104Q358 104 396 117T457 143L480 156L506 307H379L391 382Q462 406 570 406Q601 406 637 404L573 0H488L465 54Q439 29 394 12Q345 -6 290 -6T196 16Q96 72 96
253Q96 312 109 384T137 509T175 608T230 681Q297 739 411 739Q413 739 416 739Q529 739 665 707L651 617Q616 622 542 628Q462 634 426 634T372 631T331 613T289 571Q247 505 227 366Q216 299 216 248Z" />
<glyph unicode="H" glyph-name="H" horiz-adv-x="646" d="M71 0L187 732H303L251 408H538L590 732H706L590 0H474L522 300H235L187 0H71Z" />
<glyph unicode="I" glyph-name="I" horiz-adv-x="244" d="M74 0L190 732H306L190 0H74Z" />
<glyph unicode="J" glyph-name="J" horiz-adv-x="357" d="M33 22L50 111Q124 101 141 105T172 116T196 134Q216 161 223 204L307 732H423L333 165Q316 52 257 18Q216 -5 144 -5T33 22Z" />
<glyph unicode="K" glyph-name="K" horiz-adv-x="602" d="M68 0L184 732H296L246 418H313L560 732H702L414 357L586 0H452L307 312H230L181 0H68Z" />
<glyph unicode="L" glyph-name="L" horiz-adv-x="531" d="M263 109H534L517 0H213Q150 0 118 29T86 105Q86 120 88 136L184 732H299L208 161Q203 123 223 115Q237 109 263 109Z" />
<glyph unicode="M" glyph-name="M" horiz-adv-x="818" d="M57 0L232 732H388L454 192L685 732H847L795 0H680L721 529L491 0H363L298 528L174 0H57Z" />
<glyph unicode="N" glyph-name="N" horiz-adv-x="665" d="M68 0L184 732H299L533 213L615 732H731L615 0H501L266 515L185 0H68Z" />
<glyph unicode="O" glyph-name="O" horiz-adv-x="666" d="M372 734T395 735T454 737T521 734T582 720T633 691Q681 650 694 575Q700 541 700 514T699 455T688 354T662 231T630 141T588 77T539 35T482 10Q427 -4 367 -4T277 -1T216 12T165 38Q116 77 102 150Q96
185 96 211T96 269T107 363T128 472T152 554T182 617T216 664T254 696T297 718T344 730ZM254 498Q212 356 212 221Q212 156 243 131Q263 116 289 111T360 105T438 114T497 152Q547 202 572 361Q584 439 584 475T583 532T572 572T552 603T522 619Q492 628 455 628T403
628T371 624T341 616T315 602T292 578Q266 539 254 498Z" />
<glyph unicode="P" glyph-name="P" horiz-adv-x="596" d="M459 280L428 281Q421 281 404 281T309 288T228 299L180 0H64L180 732H486Q559 732 607 685Q649 645 649 558Q649 488 631 434T598 357T565 318T528 294Q487 280 459 280ZM527 510Q531 530 531 542T529
568T522 595T506 614Q488 626 462 626H279L241 386H424Q464 386 490 412T527 510Z" />
<glyph unicode="Q" glyph-name="Q" horiz-adv-x="669" d="M375 735T398 736T457 737T524 733T585 719T636 690Q683 649 696 574Q702 539 702 512T702 453T691 352T665 229T632 139T590 76T542 34T484 10Q430 -4 370 -4T280 -1T219 12T167 39Q118 78 105 151Q98
186 98 213T98 270T109 364T130 474T155 556T185 618T218 665T257 697T299 718T347 730ZM242 446Q214 320 214 221Q214 156 246 131Q265 116 291 111T363 105T440 114T499 152Q549 202 574 361Q587 441 587 482T583 543T573 577T557 600T536 615T509 624Q483 628
450 628T401 627T365 623T333 612T306 591T281 558Q256 507 242 446ZM452 -71Q485 -71 529 -58L513 -159Q483 -167 453 -167T394 -159Q331 -141 309 -94Q298 -71 298 -55T299 -33H368Q394 -71 452 -71Z" />
<glyph unicode="R" glyph-name="R" horiz-adv-x="606" d="M490 732Q572 732 615 676Q647 634 647 557Q647 471 626 419T590 347T551 314T517 298T490 293L594 0H464L374 285L227 296L180 0H64L180 732H490ZM424 388Q528 388 528 548Q528 586 519 602Q504 626 465
626H280L243 388H424Z" />
<glyph unicode="S" glyph-name="S" horiz-adv-x="576" d="M335 101Q440 101 451 174L459 224Q461 239 461 255T454 283Q443 303 399 303H284Q201 303 165 337T124 413Q121 434 121 451T124 490L135 563Q156 705 274 731Q309 738 333 738T362 738H364Q427 738 503
730T625 711L611 620Q402 629 382 629T356 629Q309 629 284 615T250 546L243 499Q238 467 241 456T246 439T256 429T267 423T283 420Q297 419 318 419H435Q512 419 545 377Q578 335 578 286Q578 263 575 233L567 166Q562 119 544 85T503 34T447 6Q399 -8 332 -8Q167
-8 74 20L88 111Q169 101 335 101Z" />
<glyph unicode="T" glyph-name="T" horiz-adv-x="585" d="M128 623L146 732H675L657 623H448L349 0H233L332 623H128Z" />
<glyph unicode="U" glyph-name="U" horiz-adv-x="654" d="M232 308Q224 260 224 217T239 148Q265 104 350 104T477 150T536 308L603 732H720L655 298Q630 140 557 68T336 -5Q203 -5 153 59Q107 117 107 202Q107 251 116 319L182 732H299L232 308Z" />
<glyph unicode="V" glyph-name="V" horiz-adv-x="680" d="M143 732H265L354 161L634 732H764L396 0H266L143 732Z" />
<glyph unicode="W" glyph-name="W" horiz-adv-x="1007" d="M143 732H263L354 165L623 732H749L642 512L696 162L968 732H1092L738 0H611L559 327L399 0H266L143 732Z" />
<glyph unicode="X" glyph-name="X" horiz-adv-x="628" d="M34 0L307 371L148 732H273L386 464L583 732H716L436 351L590 0H464L357 257L168 0H34Z" />
<glyph unicode="Y" glyph-name="Y" horiz-adv-x="647" d="M143 732H268L368 371L597 732H731L408 239L370 0H254L292 239L143 732Z" />
<glyph unicode="Z" glyph-name="Z" horiz-adv-x="559" d="M30 0L47 109L484 623H128L146 732H646L628 623L198 109H547L530 0H30Z" />
<glyph unicode="[" glyph-name="bracketleft" horiz-adv-x="329" d="M366 821H446L430 719H367Q347 719 333 713Q302 699 293 640L184 -38Q179 -62 179 -75T182 -102Q188 -129 231 -129H295L279 -231H194Q155 -231 128 -217Q63 -184 63 -86Q63 -61 68 -31L179
659Q193 743 233 782T366 821Z" />
<glyph unicode="\" glyph-name="backslash" horiz-adv-x="428" d="M138 770H253L401 -72H286L138 770Z" />
<glyph unicode="]" glyph-name="bracketright" horiz-adv-x="327" d="M63 -129Q94 -129 112 -112T138 -50L245 628Q249 653 249 672T243 701Q232 719 197 719H134L151 821H232Q307 821 337 777Q365 735 365 686Q365 667 361 627L255 -69Q244 -142 210 -183Q170
-231 71 -231H-16L0 -129H63Z" />
<glyph unicode="^" glyph-name="asciicircum" horiz-adv-x="387" d="M126 531L259 665H351L429 531H345L300 601L227 531H126Z" />
<glyph unicode="_" glyph-name="underscore" horiz-adv-x="673" d="M22 -1L39 101H673L656 -1H22Z" />
<glyph unicode="`" glyph-name="grave" horiz-adv-x="250" d="M122 668H230L317 531H234L122 668Z" />
<glyph unicode="a" glyph-name="a" horiz-adv-x="541" d="M239 528T263 533T310 540T367 542T467 528T571 479L501 1H413L395 57Q373 34 323 14T228 -6T152 8T98 57Q71 97 71 159T82 287T113 399T156 471T208 512ZM448 431Q400 446 367 446T316 443T287 435T259
420T232 391Q207 347 194 264Q186 221 186 190T194 137Q208 96 255 96T335 108T405 145L448 431Z" />
<glyph unicode="b" glyph-name="b" horiz-adv-x="555" d="M245 502Q335 539 425 539Q465 539 495 522T542 479Q566 435 566 357Q566 277 541 179Q522 102 500 72T455 25Q416 -6 351 -6Q299 -6 249 14T175 56L143 0H51L175 785H290L245 502ZM332 97Q376 97 401
136T440 266Q450 320 450 351T445 399Q435 442 386 442Q306 442 233 420L188 135Q254 97 332 97Z" />
<glyph unicode="c" glyph-name="c" horiz-adv-x="493" d="M220 530T243 534T305 539T413 531T534 508L522 433Q411 441 356 441T288 439T261 428T236 399Q214 355 197 263Q188 202 188 172T198 124T225 99T274 92Q349 92 445 100L477 102L465 26Q406 7 356 1T268
-6T220 -6Q138 -5 98 64Q73 107 73 164T83 284T111 395T148 471T193 514Z" />
<glyph unicode="d" glyph-name="d" horiz-adv-x="550" d="M189 511T223 525T296 539T384 529T468 502L513 785H628L503 0H411L396 56Q365 33 315 14T219 -6T140 18T93 82Q74 136 74 187T82 281T100 360T127 431T166 489ZM192 192Q192 97 254 97Q332 97 409 135L454
420Q389 442 308 442Q281 442 263 429Q221 400 199 266Q192 224 192 192Z" />
<glyph unicode="e" glyph-name="e" horiz-adv-x="526" d="M352 541Q553 541 553 407Q553 341 524 298T457 236Q385 201 308 201Q270 201 236 205T190 215Q185 184 185 158T195 117Q211 91 265 90Q284 89 335 89T493 106L480 22Q377 -8 255 -8Q234 -8 213 -7Q118
-4 87 70Q70 110 70 166T80 279T100 367T122 428T155 478T201 512Q253 541 352 541ZM201 293Q226 290 250 290T291 290T334 296T379 310T415 336Q436 359 436 389T417 431T345 443Q273 443 244 410Q219 381 209 334Q207 324 204 311T201 293Z" />
<glyph unicode="f" glyph-name="f" horiz-adv-x="404" d="M372 785Q454 785 508 761L497 691H398Q398 691 397 691Q354 691 340 668T313 568L307 531H449L434 436H292L220 0H104L175 436H85L98 513L191 531L201 589Q213 663 233 705Q274 785 372 785Z" />
<glyph unicode="g" glyph-name="g" horiz-adv-x="555" d="M275 -171Q313 -171 340 -147T375 -76L392 34Q317 -4 249 -4T145 18T92 79Q75 125 75 180T84 288Q105 416 163 477T313 539Q384 539 462 530T585 512L490 -86Q475 -185 422 -229T297 -273Q284 -273 269
-272L26 -248L38 -171H275ZM190 177Q190 93 263 93Q315 93 344 99T405 116L458 444H323Q228 444 201 276Q200 274 198 259Q190 206 190 177Z" />
<glyph unicode="h" glyph-name="h" horiz-adv-x="547" d="M355 531T379 535T439 540T504 525Q555 500 566 428Q567 415 567 398T563 360L506 0H390L447 361Q449 373 449 384Q449 442 390 442Q344 442 311 431T229 392L167 0H51L175 783H291L241 472Q244 474 260
483T291 501T330 520Z" />
<glyph unicode="i" glyph-name="i" horiz-adv-x="214" d="M49 0L133 531H249L165 0H49ZM178 713H263Q282 713 282 694Q282 691 281 688L270 612Q267 589 243 589H158Q148 589 143 595T138 612L150 688Q153 713 178 713Z" />
<glyph unicode="j" glyph-name="j" horiz-adv-x="233" d="M16 -270L143 531H259L174 -4Q149 -172 99 -270H16ZM273 713Q292 713 292 693Q292 691 292 688L280 612Q276 589 253 589H168Q157 589 152 595T148 612L160 688Q163 713 188 713H273Z" />
<glyph unicode="k" glyph-name="k" horiz-adv-x="515" d="M51 0L175 782H291L219 330Q285 352 354 412T438 531H563Q540 448 477 383T354 288L531 0H399L245 253L207 252L167 0H51Z" />
<glyph unicode="l" glyph-name="l" horiz-adv-x="301" d="M202 0Q74 0 74 133Q74 158 79 189L173 783H289L198 203Q186 130 202 112Q211 101 232 95Q293 76 296 76L284 0H202Z" />
<glyph unicode="m" glyph-name="m" horiz-adv-x="883" d="M473 538T507 517T552 461Q665 538 767 538Q842 538 877 488Q902 452 902 399Q902 379 898 357L842 0H726L783 358Q784 369 784 385T770 421T715 440Q634 440 564 393Q564 392 562 375T559 356L502 0H386L443
358Q444 368 444 379T439 406Q427 440 384 440T310 429T228 390L167 0H51L135 531H225L242 471Q246 474 265 485T290 500T312 511T338 523T363 530Q389 538 431 538Z" />
<glyph unicode="n" glyph-name="n" horiz-adv-x="547" d="M326 520T361 530T435 540T504 525Q555 500 566 428Q567 415 567 398T563 360L506 0H390L447 361Q449 373 449 384Q449 442 390 442Q344 442 311 431T229 392L167 0H51L135 531H225L242 472Q245 474 266
486T306 509Z" />
<glyph unicode="o" glyph-name="o" horiz-adv-x="560" d="M363 537Q492 537 538 467Q568 422 568 342Q568 300 560 249Q536 101 479 48T288 -5T106 59Q74 103 74 182Q74 220 84 284T115 400T169 483T248 525T363 537ZM230 389T219 354T199 265T190 187T194 147T205
120T227 103Q250 93 291 93T352 98T391 118T423 168T443 253Q453 312 453 341T449 389T431 419Q407 439 360 439T290 433T249 408Z" />
<glyph unicode="p" glyph-name="p" horiz-adv-x="557" d="M406 535Q567 535 567 325Q567 287 559 248Q542 124 488 58T332 -9Q294 -9 249 0T172 29L124 -270H8L137 514Q249 535 406 535ZM337 87T358 96T395 124Q426 160 444 267Q450 307 450 338Q450 440 378 440H240L186
111Q238 87 287 87Z" />
<glyph unicode="q" glyph-name="q" horiz-adv-x="553" d="M317 538Q456 538 584 511L461 -270H345L392 29Q314 -10 247 -10T144 11T92 71Q74 116 74 171T84 278Q105 412 163 475T317 538ZM200 270Q189 196 189 181T190 150T194 127T203 110T217 97Q237 87 264
87T311 89Q348 92 405 110L457 443H319Q226 443 200 270Z" />
<glyph unicode="r" glyph-name="r" horiz-adv-x="421" d="M317 513T352 525T428 537T484 530L466 417Q440 421 391 421T304 409T224 362L167 0H51L135 531H229L240 464Q273 487 295 500Z" />
<glyph unicode="s" glyph-name="s" horiz-adv-x="508" d="M330 93Q372 93 379 134L385 171Q387 177 387 186Q387 213 349 213H219Q147 213 112 248Q86 275 86 323Q86 339 89 358L97 407Q108 473 145 506T259 539T417 534T529 516L517 439H269Q238 439 227 427T212
395L207 359Q202 328 214 321Q223 316 235 316T249 317H382Q451 317 482 276Q505 246 505 203Q505 190 503 176L494 114Q482 36 433 12Q394 -8 331 -8T175 -1T59 17L71 93H330Z" />
<glyph unicode="t" glyph-name="t" horiz-adv-x="376" d="M253 0Q129 0 129 132Q129 158 134 189L173 437H82L93 507L188 532L233 680H327L304 532H436L421 437H289L252 203Q241 130 256 111Q265 101 286 95Q348 76 351 76L339 0H253Z" />
<glyph unicode="u" glyph-name="u" horiz-adv-x="546" d="M185 170Q183 156 183 138T196 105T248 90T321 101T404 140L465 531H581L497 0H406L391 58Q353 35 332 24T275 2T201 -9Q118 -9 88 40Q66 75 66 126Q66 147 70 172L126 531H242L185 170Z" />
<glyph unicode="v" glyph-name="v" horiz-adv-x="527" d="M570 493Q570 448 546 399L340 0H197L87 531H209L284 132L432 431Q456 481 462 532H566Q570 513 570 493Z" />
<glyph unicode="w" glyph-name="w" horiz-adv-x="817" d="M559 530Q564 510 564 482T549 418L528 371L573 139L726 431Q750 481 756 532H857Q862 511 862 490Q862 444 837 399L619 0H494L448 232L332 0H197L87 531H208L280 136L429 429Q453 479 459 530H559Z" />
<glyph unicode="x" glyph-name="x" horiz-adv-x="555" d="M20 0L250 272L104 531H241L331 356L476 531H619L389 253L530 0H396L307 170L167 0H20Z" />
<glyph unicode="y" glyph-name="y" horiz-adv-x="558" d="M600 492Q600 447 577 397L388 1Q319 -146 239 -211Q169 -267 94 -281V-199Q153 -165 192 -116T265 0Q216 0 181 29T137 126L88 531H208L253 144Q258 105 306 105Q309 105 310 105L465 432Q483 471 491
533H595Q600 513 600 492Z" />
<glyph unicode="z" glyph-name="z" horiz-adv-x="467" d="M40 1L55 102L360 429H95L109 531H526L512 429L215 103H458L442 1H40Z" />
<glyph unicode="{" glyph-name="braceleft" horiz-adv-x="320" d="M418 719Q373 719 347 695T311 607L279 406Q266 327 172 314Q212 307 231 285T251 237Q251 230 249 223L212 -8Q208 -34 208 -61Q208 -133 279 -133Q283 -133 286 -132L270 -231Q214 -231 175
-214T117 -168Q89 -123 89 -67Q89 -45 94 -22L132 214Q133 219 133 223Q133 245 115 259T69 274Q66 274 62 273L77 365Q78 365 87 365T98 366T109 367T120 368T130 371T140 375T148 381T156 389Q162 400 164 411L201 645Q215 734 273 777T437 821L420 719Q419 719
418 719Z" />
<glyph unicode="|" glyph-name="bar" horiz-adv-x="246" d="M61 -72L194 770H296L163 -72H61Z" />
<glyph unicode="}" glyph-name="braceright" horiz-adv-x="317" d="M2 -133Q47 -133 73 -108T108 -25L144 198Q156 271 249 288Q194 295 177 335Q172 348 172 360T173 381L206 589Q211 620 211 648Q211 719 141 719Q138 719 134 719L151 821Q205 821 243 803T300
755Q327 708 327 652Q327 630 322 607L290 388Q289 384 289 380Q289 357 309 343T358 329Q359 329 361 329L346 237Q300 238 287 230Q263 216 259 191L219 -53Q203 -146 148 -188T-16 -231L0 -133Q1 -133 2 -133Z" />
<glyph unicode="~" glyph-name="asciitilde" horiz-adv-x="425" d="M234 647T244 649T270 651T316 634T364 616Q365 616 374 616T403 623Q427 632 464 656L479 603Q477 601 469 594T454 580T433 563T408 546Q380 531 356 531T299 548T250 566T220 563T198 556T174
544T149 531L134 581Q136 583 148 593T163 606T178 617T194 629T209 637T227 645Z" />
<glyph unicode="&#xa1;" glyph-name="exclamdown" horiz-adv-x="274" d="M31 -269L129 263H229L159 -269H31ZM134 358Q134 360 134 363L146 439Q149 460 174 462H245Q255 461 261 454T265 436L254 363Q249 341 229 338H152Q134 339 134 358Z" />
<glyph unicode="&#xa2;" glyph-name="cent" horiz-adv-x="486" d="M160 501T188 516T238 534T276 538T302 537L318 634H395L378 533Q464 524 526 506L514 432Q404 439 348 439T280 437T253 426T228 399Q206 354 189 263Q181 202 181 172T191 124T217 99T266 92Q341
92 437 100L469 102L457 26Q385 -2 291 -5L278 -96H201L215 -6Q130 -5 90 63Q65 106 65 163T75 284T104 396T141 473Z" />
<glyph unicode="&#xa3;" glyph-name="sterling" horiz-adv-x="587" d="M624 720L658 716L644 624H458Q377 624 348 601T306 499L291 402L527 386L517 320H277L244 109H562L544 0H42L57 91L128 109L161 320H93L103 382L175 403L190 502Q212 640 272 686Q294 703
312 712T361 725Q404 732 463 732T624 720Z" />
<glyph unicode="&#xa4;" glyph-name="currency" horiz-adv-x="454" d="M437 332Q437 265 394 213L437 164L384 118L341 169Q304 146 254 146T166 174L114 128L73 179L127 225Q111 259 111 292Q111 352 147 397L107 443L159 487L197 443Q242 472 295 472T385 443L440
490L481 441L424 392Q437 364 437 332ZM184 296Q184 268 203 244Q223 219 262 219T329 244T364 309Q366 318 366 335T347 376T289 400Q247 400 219 375Q184 343 184 296Z" />
<glyph unicode="&#xa5;" glyph-name="yen" horiz-adv-x="622" d="M114 144L126 217H273L279 258H132L145 332H266L133 732H257L356 402L582 732H721L430 332H572L559 258H395L389 217H553L541 144H379L359 0H243L263 144H114Z" />
<glyph unicode="&#xa6;" glyph-name="brokenbar" horiz-adv-x="247" d="M61 -72L113 256H215L163 -72H61ZM140 429L194 770H296L242 429H140Z" />
<glyph unicode="&#xa7;" glyph-name="section" horiz-adv-x="544" d="M255 585Q255 554 296 554H439Q509 554 538 523T568 449Q568 437 566 424L558 380Q546 295 490 282Q530 271 530 215Q530 201 527 183L518 120Q505 40 464 15Q428 -8 366 -8T210 -2T85 11L98
94H346Q371 94 385 101T403 130L410 182Q415 211 396 217Q387 219 369 219H229Q162 219 131 248T99 322Q99 335 101 349L108 394Q114 434 128 458T180 494Q138 519 138 571Q138 583 140 597L148 653Q167 784 307 784Q358 784 453 778T581 765L569 682H316Q293 682
280 673T263 641L256 594Q255 589 255 585ZM448 431Q448 456 403 456H283Q253 456 242 447T227 407L219 361Q218 353 218 342Q218 318 261 318H381Q424 318 433 338Q436 346 439 362L446 409Q448 421 448 431Z" />
<glyph unicode="&#xa8;" glyph-name="dieresis" horiz-adv-x="450" d="M176 637T199 637T234 623T247 598T246 579T238 561T223 542Q205 526 182 526T146 540T134 566Q134 601 155 619ZM431 637T454 637T489 623T502 598T501 579T493 561T478 542Q460 526 437
526T401 540T389 566Q389 601 410 619Z" />
<glyph unicode="&#xa9;" glyph-name="copyright" horiz-adv-x="800" d="M404 732H643Q758 732 800 633Q825 576 825 487Q825 428 814 358Q787 190 717 95T535 0H296Q203 0 155 65Q109 128 100 213Q95 250 95 270Q95 416 147 549Q178 628 241 680Q303 732 404 732ZM745
504Q745 654 638 654H392Q273 654 219 510Q197 452 187 388T176 298T177 240T191 168T232 103T302 78H542Q607 78 658 150Q716 232 740 422Q745 466 745 504ZM374 564T400 573T453 583T511 580Q583 573 637 559L627 493Q545 505 462 505Q409 505 383 444Q371 413
365 372T358 305T364 260Q376 225 420 225Q494 225 593 241L583 175Q501 147 394 147Q329 147 296 202Q275 237 275 283T283 381T309 476T350 541Z" />
<glyph unicode="&#xaa;" glyph-name="ordfeminine" horiz-adv-x="366" d="M67 264L77 330H392L382 264H67ZM215 725T230 728T260 732T295 733T367 722T441 689L396 377H338L324 428Q299 392 240 377Q222 373 202 373T160 383T122 417Q98 449 98 507Q98 584 125
641Q139 671 155 688T193 715ZM352 650Q320 660 296 660T260 657T239 650T218 634Q195 613 186 553Q183 533 183 517Q183 454 230 454Q281 454 331 499L352 650Z" />
<glyph unicode="&#xab;" glyph-name="guillemotleft" horiz-adv-x="570" d="M98 354L336 557L395 489L228 346L350 204L276 146L98 354ZM304 354L542 557L601 489L434 346L556 204L482 146L304 354Z" />
<glyph unicode="&#xac;" glyph-name="logicalnot" horiz-adv-x="505" d="M521 344L491 159H393L406 246H78L94 344H521Z" />
<glyph unicode="&#xad;" glyph-name="uni00AD" horiz-adv-x="354" d="M58 239L74 341H388L372 239H58Z" />
<glyph unicode="&#xae;" glyph-name="registered" horiz-adv-x="800" d="M404 732H643Q758 732 800 633Q825 576 825 487Q825 428 814 358Q787 190 717 95T535 0H296Q203 0 155 65Q109 128 100 213Q95 250 95 270Q95 416 147 549Q178 628 241 680Q303 732 404
732ZM745 504Q745 654 638 654H392Q273 654 219 510Q197 452 187 388T176 298T177 240T191 168T232 103T302 78H542Q607 78 658 150Q716 232 740 422Q745 466 745 504ZM522 580Q571 580 605 554Q637 530 637 473Q637 460 635 445Q624 351 563 327Q555 324 530 318L592
153H503L443 316L383 328L355 153H274L342 580H522ZM483 386Q522 386 535 397T551 433T555 472Q555 502 502 502H411L392 386H483Z" />
<glyph unicode="&#xaf;" glyph-name="overscore" horiz-adv-x="376" d="M126 531L138 604H430L418 531H126Z" />
<glyph unicode="&#xb0;" glyph-name="degree" horiz-adv-x="284" d="M203 734T245 734T315 705T343 636Q343 591 313 562T240 532T169 560T140 630T171 703ZM231 680T220 674T201 656T194 628T207 599T237 585T265 591Q290 605 290 633Q290 660 267 674Q257 680 244 680Z" />
<glyph unicode="&#xb1;" glyph-name="plusminus" horiz-adv-x="509" d="M59 76L75 178H491L475 76H59ZM109 384L124 486H280L305 642H407L382 486H540L525 384H367L341 226H239L265 384H109Z" />
<glyph unicode="&#xb2;" glyph-name="twosuperior" horiz-adv-x="393" d="M341 646T349 661T359 689T361 716T349 743T294 756H130Q129 756 138 808L141 824Q256 842 334 842Q380 842 410 817Q456 778 456 717Q456 677 438 640T401 580T358 532T314 493T274 463T247
442H413L399 356H70L83 437Q85 439 109 455T145 478T182 504T223 533T261 563T298 597T326 629Z" />
<glyph unicode="&#xb3;" glyph-name="threesuperior" horiz-adv-x="406" d="M266 351H228Q219 351 216 351T195 351T171 352T151 354T129 356T110 359Q92 363 71 370L83 437H249Q319 437 326 486L329 502Q330 509 330 521T317 544T272 556L142 560L154 633L285
639Q353 642 360 688L362 704Q363 711 363 722T351 742T303 751H128L138 817Q196 837 294 837Q319 837 348 837Q404 836 430 804T456 735Q456 724 454 713L449 681Q443 645 426 621T383 591Q421 573 421 517Q421 505 419 493L415 468Q406 410 371 381T269 351Q267
351 266 351Z" />
<glyph unicode="&#xb4;" glyph-name="acute" horiz-adv-x="242" d="M101 531L219 668H332L184 531H101Z" />
<glyph unicode="&#xb5;" glyph-name="uni00B5" horiz-adv-x="590" d="M217 148Q217 90 276 90Q322 90 355 101T437 140L499 531H615L531 0H441L425 58Q421 57 399 45T372 30T348 19T319 7Q242 -15 193 8L149 -270H33L160 531H276L219 170Q217 158 217 148Z" />
<glyph unicode="&#xb6;" glyph-name="paragraph" horiz-adv-x="578" d="M305 732H677L663 639H604L503 0H411L513 641H436L292 -270H201L302 372Q301 372 295 369T281 363Q263 355 233 355T175 369Q124 393 113 454Q110 468 110 481T112 507L126 600Q147 732 305
732ZM205 507Q204 498 204 489T207 470T221 455Q237 446 261 446H313L345 642H294Q254 642 238 627T216 579L205 507Z" />
<glyph unicode="&#xb7;" glyph-name="middot" horiz-adv-x="265" d="M166 448H240Q262 448 262 430Q262 427 261 423L249 345Q245 322 221 322H147Q136 322 130 328T126 345L138 423Q141 448 166 448Z" />
<glyph unicode="&#xb8;" glyph-name="cedilla" horiz-adv-x="246" d="M69 -176H14L23 -125L72 -110Q93 -101 101 -85T115 -37H199Q187 -115 159 -145T69 -176Z" />
<glyph unicode="&#xb9;" glyph-name="onesuperior" horiz-adv-x="278" d="M112 712L121 774Q155 774 196 797T250 837H340L263 356H172L234 738Q218 726 184 719T112 712Z" />
<glyph unicode="&#xba;" glyph-name="ordmasculine" horiz-adv-x="386" d="M79 266L89 331H406L396 266H79ZM309 736Q366 736 400 718Q454 690 454 603Q454 576 449 543Q433 446 393 409T260 372T133 417Q110 447 110 502Q110 526 114 555Q131 660 172 698Q213
736 309 736ZM222 631T215 610T203 555T197 511T198 492T201 477T208 465T218 457T232 453Q246 450 268 450T301 452T325 463Q350 478 361 550Q366 583 366 602T364 632T351 649Q335 658 304 658T260 656T235 642Z" />
<glyph unicode="&#xbb;" glyph-name="guillemotright" horiz-adv-x="567" d="M76 215L244 360L126 497L196 557L373 351L136 146L76 215ZM284 215L452 360L334 497L405 557L581 351L345 146L284 215Z" />
<glyph unicode="&#xbc;" glyph-name="onequarter" horiz-adv-x="944" d="M112 612L121 674Q155 674 196 697T250 737H340L263 256H172L234 638Q218 626 184 619T112 612ZM185 0L738 770H827L274 0H185ZM546 144L784 479H885L687 195H816L833 304L866 353H930L905
195H957L946 122L890 106L874 0H785L802 106H566L546 144Z" />
<glyph unicode="&#xbd;" glyph-name="onehalf" horiz-adv-x="1003" d="M112 612L121 674Q155 674 196 697T250 737H340L263 256H172L234 638Q218 626 184 619T112 612ZM177 0L730 770H819L266 0H177ZM912 290T920 305T929 333T931 355T928 376Q919 400 864 400H701Q699
400 708 452L711 468Q826 486 904 486Q950 486 980 461Q1026 422 1026 361Q1026 316 1004 274T953 203T902 153T851 111T818 86H983L970 0H640L653 81Q655 83 680 99T715 122T752 148T793 177T831 207T868 241T897 273Z" />
<glyph unicode="&#xbe;" glyph-name="threequarters" horiz-adv-x="1057" d="M383 491Q421 473 421 416Q421 405 419 393L415 368Q406 310 371 281T269 251Q267 251 265 251T242 251T217 251T195 251T171 252T151 254T129 256T110 259Q92 263 71 270L83 337H249Q319
337 326 386L329 402Q330 409 330 421T317 444T272 456L142 460L154 533L285 539Q353 542 360 588L362 604Q363 611 363 622T351 642T303 651H128L138 717Q196 737 294 737Q319 737 348 737Q404 736 430 704T456 635Q456 624 454 613L449 581Q443 545 426 521T383
491ZM284 0L837 770H926L373 0H284ZM633 144L871 479H972L774 195H903L920 304L954 353H1018L992 195H1044L1033 122L977 106L962 0H872L889 106H653L633 144Z" />
<glyph unicode="&#xbf;" glyph-name="questiondown" d="M294 181L309 275H409L380 92Q338 93 307 93T245 92T185 70T149 5L138 -66Q135 -79 135 -94T143 -126Q158 -162 242 -162H499L486 -245Q339 -270 246 -270Q223 -270 200 -269Q133 -269 88 -239Q18 -192 18
-104Q18 -87 21 -69L34 14Q50 119 115 156Q164 184 240 184Q266 184 294 181ZM355 470H430Q441 470 446 464T451 447L438 369Q435 344 410 344H335Q315 344 315 362Q315 365 315 369L328 447Q331 470 355 470Z" />
<glyph unicode="&#xc0;" glyph-name="Agrave" horiz-adv-x="677" d="M330 934H437L525 797H442L330 934ZM38 0L409 732H537L666 0H548L515 177H256L166 0H38ZM306 283H501L452 579L306 283Z" />
<glyph unicode="&#xc1;" glyph-name="Aacute" horiz-adv-x="677" d="M442 797L560 934H673L525 797H442ZM38 0L409 732H537L666 0H548L515 177H256L166 0H38ZM306 283H501L452 579L306 283Z" />
<glyph unicode="&#xc2;" glyph-name="Acircumflex" horiz-adv-x="677" d="M332 797L465 930H557L635 797H554L506 869L427 797H332ZM38 0L409 732H537L666 0H548L515 177H256L166 0H38ZM306 283H501L452 579L306 283Z" />
<glyph unicode="&#xc3;" glyph-name="Atilde" horiz-adv-x="677" d="M477 914T507 898T544 881T562 880T606 893T651 916L666 863Q664 862 650 851T632 837T616 826T597 814T579 806Q535 785 483 815Q453 832 436 832Q405 832 386 823T363 812T349 804T336 797L320
847Q358 879 389 897T448 915ZM38 0L409 732H537L666 0H548L515 177H256L166 0H38ZM306 283H501L452 579L306 283Z" />
<glyph unicode="&#xc4;" glyph-name="Adieresis" horiz-adv-x="677" d="M351 908T374 908T409 894T422 869T421 850T413 832T399 814Q380 797 357 797T322 812T309 838Q309 873 330 890ZM606 908T629 908T664 894T677 869T676 850T668 832T654 814Q635 797 612
797T577 812T564 838Q564 873 585 890ZM38 0L409 732H537L666 0H548L515 177H256L166 0H38ZM306 283H501L452 579L306 283Z" />
<glyph unicode="&#xc5;" glyph-name="Aring" horiz-adv-x="677" d="M468 933T444 920T402 881T385 822Q385 786 411 758T480 730Q538 730 572 782Q589 808 589 842Q589 878 564 905T503 933ZM471 785T461 791T445 808T440 835T457 865T491 879T523 866T535 834T519
800T487 785ZM38 0L409 732H537L666 0H548L515 177H256L166 0H38ZM306 283H501L452 579L306 283Z" />
<glyph unicode="&#xc6;" glyph-name="AE" horiz-adv-x="981" d="M640 732H684Q694 732 835 727T1017 716L1002 621H708Q672 621 662 603Q653 590 649 567L625 417L925 406L910 312L606 302L584 158Q578 120 598 112Q613 106 638 106H921L905 13Q873 8 668 -1L600
-4Q594 -5 581 -5T545 1Q486 14 467 60Q460 77 460 93T462 122L475 208H293L156 0H25L407 586Q464 673 525 703Q583 732 640 732ZM360 313H492L537 585L360 313Z" />
<glyph unicode="&#xc7;" glyph-name="Ccedilla" horiz-adv-x="573" d="M410 740Q533 740 657 707L642 615Q524 631 430 631Q423 631 419 631T407 631T390 631T368 628T344 621T321 607T298 585T277 552T256 506Q235 445 224 375T213 256T225 173Q248 107 328 103Q344
103 392 103T565 111L551 20Q465 -6 315 -6Q241 -6 201 16Q95 72 95 256Q95 312 108 391T141 534T197 646Q265 740 410 740ZM235 -176H181L189 -124L238 -109Q266 -101 274 -71Q278 -59 281 -37H366Q354 -114 326 -145T235 -176Z" />
<glyph unicode="&#xc8;" glyph-name="Egrave" horiz-adv-x="562" d="M276 928H384L471 792H388L276 928ZM319 732Q323 732 460 727T638 716L623 621H331Q295 621 283 603Q273 588 270 565L247 421L546 411L531 316L229 307L206 160Q200 122 220 114Q235 108 260
108H543L527 14Q494 10 289 0L221 -3Q216 -3 202 -3T166 3Q84 24 84 110Q84 124 86 140L158 592Q180 732 319 732Z" />
<glyph unicode="&#xc9;" glyph-name="Eacute" horiz-adv-x="562" d="M388 792L506 928H618L470 792H388ZM319 732Q323 732 460 727T638 716L623 621H331Q295 621 283 603Q273 588 270 565L247 421L546 411L531 316L229 307L206 160Q200 122 220 114Q235 108 260
108H543L527 14Q494 10 289 0L221 -3Q216 -3 202 -3T166 3Q84 24 84 110Q84 124 86 140L158 592Q180 732 319 732Z" />
<glyph unicode="&#xca;" glyph-name="Ecircumflex" horiz-adv-x="562" d="M279 792L411 926H503L581 792H498L453 862L380 792H279ZM319 732Q323 732 460 727T638 716L623 621H331Q295 621 283 603Q273 588 270 565L247 421L546 411L531 316L229 307L206 160Q200
122 220 114Q235 108 260 108H543L527 14Q494 10 289 0L221 -3Q216 -3 202 -3T166 3Q84 24 84 110Q84 124 86 140L158 592Q180 732 319 732Z" />
<glyph unicode="&#xcb;" glyph-name="Edieresis" horiz-adv-x="562" d="M288 898T311 898T346 884T358 859Q358 824 337 806T293 787T258 801T245 827Q245 862 266 880ZM543 898T566 898T601 884T613 859Q613 824 592 806T548 787T513 801T500 827Q500 862 521
880ZM319 732Q323 732 460 727T638 716L623 621H331Q295 621 283 603Q273 588 270 565L247 421L546 411L531 316L229 307L206 160Q200 122 220 114Q235 108 260 108H543L527 14Q494 10 289 0L221 -3Q216 -3 202 -3T166 3Q84 24 84 110Q84 124 86 140L158 592Q180
732 319 732Z" />
<glyph unicode="&#xcc;" glyph-name="Igrave" horiz-adv-x="244" d="M105 934H212L300 797H217L105 934ZM74 0L190 732H306L190 0H74Z" />
<glyph unicode="&#xcd;" glyph-name="Iacute" horiz-adv-x="244" d="M217 797L335 934H448L300 797H217ZM74 0L190 732H306L190 0H74Z" />
<glyph unicode="&#xce;" glyph-name="Icircumflex" horiz-adv-x="244" d="M107 797L240 930H332L410 797H329L281 869L202 797H107ZM74 0L190 732H306L190 0H74Z" />
<glyph unicode="&#xcf;" glyph-name="Idieresis" horiz-adv-x="244" d="M126 908T149 908T184 894T197 869Q197 834 176 816T138 797T111 801T95 814Q81 830 84 853T107 892ZM381 908T404 908T439 894T452 869Q452 834 431 816T393 797T366 801T350 814Q336 830
339 853T362 892ZM74 0L190 732H306L190 0H74Z" />
<glyph unicode="&#xd0;" glyph-name="Eth" horiz-adv-x="658" d="M474 732Q579 732 627 667Q674 603 680 518Q682 492 682 471Q682 411 672 352Q642 176 570 88T365 0H67L121 342H56L66 404H131L183 731Q183 732 474 732ZM367 107Q442 107 489 177T555 364Q566
430 566 482Q566 626 450 626H282L247 404H369L359 342H237L200 107H367Z" />
<glyph unicode="&#xd1;" glyph-name="Ntilde" horiz-adv-x="665" d="M486 894Q516 877 523 877T538 877T567 884Q611 898 630 913L645 860Q643 858 629 848T611 834T595 822T576 810T558 802Q514 782 462 812Q432 829 415 829T385 826T361 818T347 811T331 802T315
794L300 844Q359 894 396 906Q439 919 486 894ZM68 0L184 732H299L533 213L615 732H731L615 0H501L266 515L185 0H68Z" />
<glyph unicode="&#xd2;" glyph-name="Ograve" horiz-adv-x="666" d="M307 934H414L502 797H419L307 934ZM372 734T395 735T454 737T521 734T582 720T633 691Q681 650 694 575Q700 541 700 514T699 455T688 354T662 231T630 141T588 77T539 35T482 10Q427 -4 367
-4T277 -1T216 12T165 38Q116 77 102 150Q96 185 96 211T96 269T107 363T128 472T152 554T182 617T216 664T254 696T297 718T344 730ZM254 498Q212 356 212 221Q212 156 243 131Q263 116 289 111T360 105T438 114T497 152Q547 202 572 361Q584 441 584 482T580
543T571 577T554 600T533 615T506 624Q481 628 449 628T403 628T371 624T341 616T315 602T292 578Q266 539 254 498Z" />
<glyph unicode="&#xd3;" glyph-name="Oacute" horiz-adv-x="666" d="M419 797L537 934H650L502 797H419ZM372 734T395 735T454 737T521 734T582 720T633 691Q681 650 694 575Q700 541 700 514T699 455T688 354T662 231T630 141T588 77T539 35T482 10Q427 -4 367
-4T277 -1T216 12T165 38Q116 77 102 150Q96 185 96 211T96 269T107 363T128 472T152 554T182 617T216 664T254 696T297 718T344 730ZM254 498Q212 356 212 221Q212 156 243 131Q263 116 289 111T360 105T438 114T497 152Q547 202 572 361Q584 441 584 482T580
543T571 577T554 600T533 615T506 624Q481 628 449 628T403 628T371 624T341 616T315 602T292 578Q266 539 254 498Z" />
<glyph unicode="&#xd4;" glyph-name="Ocircumflex" horiz-adv-x="666" d="M309 797L442 930H534L612 797H531L483 869L404 797H309ZM372 734T395 735T454 737T521 734T582 720T633 691Q681 650 694 575Q700 541 700 514T699 455T688 354T662 231T630 141T588 77T539
35T482 10Q427 -4 367 -4T277 -1T216 12T165 38Q116 77 102 150Q96 185 96 211T96 269T107 363T128 472T152 554T182 617T216 664T254 696T297 718T344 730ZM254 498Q212 356 212 221Q212 156 243 131Q263 116 289 111T360 105T438 114T497 152Q547 202 572 361Q584
441 584 482T580 543T571 577T554 600T533 615T506 624Q481 628 449 628T403 628T371 624T341 616T315 602T292 578Q266 539 254 498Z" />
<glyph unicode="&#xd5;" glyph-name="Otilde" horiz-adv-x="666" d="M484 897T499 889T521 881T539 880T582 893T628 916L642 863Q640 862 627 851T609 837T593 826T574 814T556 806Q512 785 459 815Q430 832 413 832T382 829T358 821T344 814T328 806T312 797L297
847Q340 883 357 892T382 904T397 910Q433 921 458 909ZM372 734T395 735T454 737T521 734T582 720T633 691Q681 650 694 575Q700 541 700 514T699 455T688 354T662 231T630 141T588 77T539 35T482 10Q427 -4 367 -4T277 -1T216 12T165 38Q116 77 102 150Q96 185
96 211T96 269T107 363T128 472T152 554T182 617T216 664T254 696T297 718T344 730ZM254 498Q212 356 212 221Q212 156 243 131Q263 116 289 111T360 105T438 114T497 152Q547 202 572 361Q584 441 584 482T580 543T571 577T554 600T533 615T506 624Q481 628 449
628T403 628T371 624T341 616T315 602T292 578Q266 539 254 498Z" />
<glyph unicode="&#xd6;" glyph-name="Odieresis" horiz-adv-x="666" d="M328 908T351 908T386 894T399 869Q399 834 378 816T340 797T313 801T297 814Q283 830 286 853T309 892ZM583 908T606 908T641 894T654 869Q654 834 633 816T595 797T568 801T552 814Q538
830 541 853T564 892ZM372 734T395 735T454 737T521 734T582 720T633 691Q681 650 694 575Q700 541 700 514T699 455T688 354T662 231T630 141T588 77T539 35T482 10Q427 -4 367 -4T277 -1T216 12T165 38Q116 77 102 150Q96 185 96 211T96 269T107 363T128 472T152
554T182 617T216 664T254 696T297 718T344 730ZM254 498Q212 356 212 221Q212 156 243 131Q263 116 289 111T360 105T438 114T497 152Q547 202 572 361Q584 441 584 482T580 543T571 577T554 600T533 615T506 624Q481 628 449 628T403 628T371 624T341 616T315
602T292 578Q266 539 254 498Z" />
<glyph unicode="&#xd7;" glyph-name="multiply" horiz-adv-x="460" d="M86 246L213 356L122 466L200 535L292 425L427 540L488 467L353 350L447 239L369 174L277 283L148 171L86 246Z" />
<glyph unicode="&#xd8;" glyph-name="Oslash" horiz-adv-x="666" d="M121 83Q92 136 92 213T103 359T126 474T150 556T180 618T213 665T252 697T295 718T342 730Q386 737 449 737Q575 737 628 696L657 732H727L665 657Q698 602 698 498Q698 434 687 358T660 229T627
139T585 76T537 34T479 10Q425 -4 352 -4T233 5T156 41L122 0H52L121 83ZM243 472T236 438T220 350T211 257T217 196L549 604Q532 619 506 623T448 628T401 628T368 624T339 616T313 602T290 578T270 545T251 499ZM355 105Q404 105 436 114T495 152Q544 202 569
361Q581 436 581 480T574 550L237 137Q266 105 355 105Z" />
<glyph unicode="&#xd9;" glyph-name="Ugrave" horiz-adv-x="654" d="M308 934H415L503 797H420L308 934ZM232 308Q224 260 224 217T239 148Q265 104 350 104T477 150T536 308L603 732H720L655 298Q630 140 557 68T336 -5Q203 -5 153 59Q107 117 107 202Q107 251
116 319L182 732H299L232 308Z" />
<glyph unicode="&#xda;" glyph-name="Uacute" horiz-adv-x="654" d="M420 797L538 934H651L503 797H420ZM232 308Q224 260 224 217T239 148Q265 104 350 104T477 150T536 308L603 732H720L655 298Q630 140 557 68T336 -5Q203 -5 153 59Q107 117 107 202Q107 251
116 319L182 732H299L232 308Z" />
<glyph unicode="&#xdb;" glyph-name="Ucircumflex" horiz-adv-x="654" d="M310 797L443 930H535L613 797H532L484 869L405 797H310ZM232 308Q224 260 224 217T239 148Q265 104 350 104T477 150T536 308L603 732H720L655 298Q630 140 557 68T336 -5Q203 -5 153
59Q107 117 107 202Q107 251 116 319L182 732H299L232 308Z" />
<glyph unicode="&#xdc;" glyph-name="Udieresis" horiz-adv-x="654" d="M329 908T352 908T387 894T400 869T399 850T391 832T377 814Q358 797 335 797T300 812T287 838Q287 873 308 890ZM584 908T607 908T642 894T655 869T654 852T650 839T642 825T632 814T619
805Q605 797 586 797T555 812T542 838Q542 873 563 890ZM232 308Q224 260 224 217T239 148Q265 104 350 104T477 150T536 308L603 732H720L655 298Q630 140 557 68T336 -5Q203 -5 153 59Q107 117 107 202Q107 251 116 319L182 732H299L232 308Z" />
<glyph unicode="&#xdd;" glyph-name="Yacute" horiz-adv-x="647" d="M406 797L524 934H637L489 797H406ZM143 732H268L368 371L597 732H731L408 239L370 0H254L292 239L143 732Z" />
<glyph unicode="&#xde;" glyph-name="Thorn" horiz-adv-x="549" d="M51 0Q51 0 166 729H282L260 588H425Q472 588 503 569T547 525Q572 479 572 423Q572 399 567 366T554 302T535 249T512 211T484 184T455 168T422 157Q389 152 342 152Q246 152 195 172L167 0H51ZM345
258Q369 258 383 261T412 277Q438 298 450 375Q453 390 453 399T452 419T449 441T440 460T427 472T412 479Q397 482 381 482H243L208 258H345Z" />
<glyph unicode="&#xdf;" glyph-name="germandbls" horiz-adv-x="571" d="M248 96L384 90Q412 90 433 105T459 150L464 176Q465 180 465 183Q465 212 413 231Q389 240 366 251T331 283T319 322Q319 391 351 430Q374 458 443 498Q504 538 504 608Q504 642 481 657T398
672T301 642T252 534L167 0H51L141 566Q166 729 315 768Q357 779 412 779T512 766Q589 741 614 675Q623 652 623 636T621 600T608 549Q584 484 532 442Q523 436 494 419T452 388Q434 368 434 347T448 314T487 292T535 270T571 237T583 199T581 170L576 134Q561
41 481 9Q440 -8 405 -8T351 -7T315 -3T286 1T257 6T235 11L248 96Z" />
<glyph unicode="&#xe0;" glyph-name="agrave" horiz-adv-x="541" d="M202 739H309L397 602H314L202 739ZM239 528T263 533T310 540T355 542T414 538T500 518T571 479L501 1H413L395 57Q373 34 323 14T228 -6T152 8T98 57Q71 97 71 159T82 287T113 399T156 471T208
512ZM448 431Q400 446 367 446T316 443T287 435T259 420T232 391Q207 347 194 264Q186 221 186 190T194 137Q208 96 255 96T335 108T405 145L448 431Z" />
<glyph unicode="&#xe1;" glyph-name="aacute" horiz-adv-x="541" d="M320 602L439 739H551L403 602H320ZM239 528T263 533T310 540T355 542T414 538T500 518T571 479L501 1H413L395 57Q373 34 323 14T228 -6T152 8T98 57Q71 97 71 159T82 287T113 399T156 471T208
512ZM448 431Q400 446 367 446T316 443T287 435T259 420T232 391Q207 347 194 264Q186 221 186 190T194 137Q208 96 255 96T335 108T405 145L448 431Z" />
<glyph unicode="&#xe2;" glyph-name="acircumflex" horiz-adv-x="541" d="M204 602L337 736H429L507 602H426L378 674L299 602H204ZM239 528T263 533T310 540T355 542T414 538T500 518T571 479L501 1H413L395 57Q373 34 323 14T228 -6T152 8T98 57Q71 97 71 159T82
287T113 399T156 471T208 512ZM448 431Q400 446 367 446T316 443T287 435T259 420T232 391Q207 347 194 264Q186 221 186 190T194 137Q208 96 255 96T335 108T405 145L448 431Z" />
<glyph unicode="&#xe3;" glyph-name="atilde" horiz-adv-x="541" d="M353 719T383 703T421 686T439 685T483 698T528 722L542 668Q541 667 527 656T509 642T493 631T474 619T456 611Q412 591 360 620Q330 637 313 637T283 634T259 626T245 619T229 611T213 602L197
652Q235 684 265 702T324 720ZM239 528T263 533T310 540T355 542T414 538T500 518T571 479L501 1H413L395 57Q373 34 323 14T228 -6T152 8T98 57Q71 97 71 159T82 287T113 399T156 471T208 512ZM448 431Q400 446 367 446T316 443T287 435T259 420T232 391Q207 347
194 264Q186 221 186 190T194 137Q208 96 255 96T335 108T405 145L448 431Z" />
<glyph unicode="&#xe4;" glyph-name="adieresis" horiz-adv-x="541" d="M223 714T246 714T281 700T293 674Q293 639 272 621T228 602T193 617T180 643Q180 678 201 696ZM478 714T501 714T536 700T548 674Q548 639 527 621T483 602T448 617T435 643Q435 678 456
696ZM239 528T263 533T310 540T355 542T414 538T500 518T571 479L501 1H413L395 57Q373 34 323 14T228 -6T152 8T98 57Q71 97 71 159T82 287T113 399T156 471T208 512ZM448 431Q400 446 367 446T316 443T287 435T259 420T232 391Q207 347 194 264Q186 221 186 190T194
137Q208 96 255 96T335 108T405 145L448 431Z" />
<glyph unicode="&#xe5;" glyph-name="aring" horiz-adv-x="541" d="M345 806T387 806T454 778T480 714Q480 680 463 654Q429 602 371 602Q328 602 302 630T276 694Q276 742 313 776Q345 806 387 806ZM402 751T383 751T347 736T331 702T343 670T374 657T409 670Q426
686 426 705T414 738ZM239 528T263 533T310 540T355 542T414 538T500 518T571 479L501 1H413L395 57Q373 34 323 14T228 -6T152 8T98 57Q71 97 71 159T82 287T113 399T156 471T208 512ZM448 431Q400 446 367 446T316 443T287 435T259 420T232 391Q207 347 194 264Q186
221 186 190T194 137Q208 96 255 96T335 108T405 145L448 431Z" />
<glyph unicode="&#xe6;" glyph-name="ae" horiz-adv-x="868" d="M650 541Q856 541 856 406Q856 341 827 298T761 236Q688 201 612 201Q574 201 540 205T494 215Q489 184 489 158T498 117Q514 91 568 90Q587 89 636 89T794 106L780 22Q677 -8 558 -8Q537 -8 517
-7Q427 -4 394 63Q365 32 306 13T201 -7T124 8T69 60Q42 102 42 163T51 278T71 365T95 423T122 467T153 498T184 518T218 531Q266 542 308 542Q423 542 494 504Q551 541 650 541ZM427 428Q368 445 335 445T286 442T259 435T231 420T205 390Q179 347 166 263Q157
217 157 186T163 137Q177 95 233 95Q274 95 315 106T374 137Q373 152 373 187T388 303T427 428ZM504 293Q530 290 554 290T595 290T637 296T683 310T718 336Q739 359 739 389T721 431T648 443Q576 443 548 410Q523 381 512 334Q510 324 508 311T504 293Z" />
<glyph unicode="&#xe7;" glyph-name="ccedilla" horiz-adv-x="494" d="M234 531T254 534T311 537T415 530T535 506L523 431Q413 439 357 439T290 437T263 426T238 399Q215 354 199 263Q190 202 190 172T200 124T226 99T276 92Q350 92 446 100L478 102L466 26Q427
10 380 3T310 -5T262 -6T222 -6Q139 -5 99 64Q74 107 74 164T83 278T106 378T137 450T171 496T211 522ZM189 -177H135L143 -125L193 -110Q214 -102 222 -86T235 -37H320Q307 -115 279 -146T189 -177Z" />
<glyph unicode="&#xe8;" glyph-name="egrave" horiz-adv-x="526" d="M207 738H315L402 601H319L207 738ZM352 541Q553 541 553 407Q553 341 524 298T457 236Q385 201 308 201Q270 201 236 205T190 215Q185 185 185 168Q185 117 210 101Q228 91 256 90T335 89T493
106L480 22Q377 -8 255 -8Q234 -8 213 -7Q118 -4 87 70Q70 110 70 166T81 284T104 381T134 449T181 501Q241 541 352 541ZM201 293Q227 290 250 290T293 291T329 295T364 304T397 320Q436 346 436 394Q436 421 420 429Q396 443 345 443Q273 443 244 410Q219 381
209 334Q207 324 204 311T201 293Z" />
<glyph unicode="&#xe9;" glyph-name="eacute" horiz-adv-x="526" d="M319 601L438 738H550L402 601H319ZM352 541Q553 541 553 407Q553 341 524 298T457 236Q385 201 308 201Q270 201 236 205T190 215Q185 185 185 168Q185 117 210 101Q228 91 256 90T335 89T493
106L480 22Q377 -8 255 -8Q234 -8 213 -7Q118 -4 87 70Q70 110 70 166T81 284T104 381T134 449T181 501Q241 541 352 541ZM201 293Q227 290 250 290T293 291T329 295T364 304T397 320Q436 346 436 394Q436 421 420 429Q396 443 345 443Q273 443 244 410Q219 381
209 334Q207 324 204 311T201 293Z" />
<glyph unicode="&#xea;" glyph-name="ecircumflex" horiz-adv-x="526" d="M210 601L342 734H434L512 601H431L383 673L304 601H210ZM352 541Q553 541 553 407Q553 341 524 298T457 236Q385 201 308 201Q270 201 236 205T190 215Q185 185 185 168Q185 117 210 101Q228
91 256 90T335 89T493 106L480 22Q377 -8 255 -8Q234 -8 213 -7Q118 -4 87 70Q70 110 70 166T81 284T104 381T134 449T181 501Q241 541 352 541ZM201 293Q227 290 250 290T293 291T329 295T364 304T397 320Q436 346 436 394Q436 421 420 429Q396 443 345 443Q273
443 244 410Q219 381 209 334Q207 324 204 311T201 293Z" />
<glyph unicode="&#xeb;" glyph-name="edieresis" horiz-adv-x="526" d="M228 712T251 712T287 698T299 673T298 654T290 636T276 618Q257 601 234 601T199 616T186 642Q186 677 207 694ZM483 712T506 712T542 698T554 673T553 654T545 636T531 618Q512 601 489
601T454 616T441 642Q441 677 462 694ZM352 541Q553 541 553 407Q553 341 524 298T457 236Q385 201 308 201Q270 201 236 205T190 215Q185 185 185 168Q185 117 210 101Q228 91 256 90T335 89T493 106L480 22Q377 -8 255 -8Q234 -8 213 -7Q118 -4 87 70Q70 110
70 166T81 284T104 381T134 449T181 501Q241 541 352 541ZM201 293Q227 290 250 290T293 291T329 295T364 304T397 320Q436 346 436 394Q436 421 420 429Q396 443 345 443Q273 443 244 410Q219 381 209 334Q207 324 204 311T201 293Z" />
<glyph unicode="&#xec;" glyph-name="igrave" horiz-adv-x="214" d="M44 734H151L239 597H156L44 734ZM46 0L130 531H246L162 0H46Z" />
<glyph unicode="&#xed;" glyph-name="iacute" horiz-adv-x="214" d="M155 597L273 734H386L238 597H155ZM46 0L130 531H246L162 0H46Z" />
<glyph unicode="&#xee;" glyph-name="icircumflex" horiz-adv-x="214" d="M44 597L176 731H268L347 597H265L218 669L139 597H44ZM46 0L130 531H246L162 0H46Z" />
<glyph unicode="&#xef;" glyph-name="idieresis" horiz-adv-x="214" d="M60 709T83 709T119 695T131 669Q131 634 110 616T66 597T31 612T18 638Q18 673 39 691ZM315 709T338 709T374 695T386 669Q386 634 365 616T327 597T300 601T284 614Q270 630 273 653T296
692ZM46 0L130 531H246L162 0H46Z" />
<glyph unicode="&#xf0;" glyph-name="eth" horiz-adv-x="538" d="M214 0Q65 0 65 185Q65 225 73 268Q97 407 147 469T298 531H372Q429 531 443 520Q433 588 397 629L264 574L246 633L337 670Q299 687 234 687Q224 687 213 687L228 783Q381 783 458 723L566 768L585
709L503 676Q562 593 562 436Q562 353 543 234T472 57T322 0H214ZM189 260Q182 201 182 175Q182 127 212 114Q223 110 233 110T245 110H324Q325 110 335 110T359 114T387 134Q414 163 429 260Q439 317 439 346T434 389Q423 422 372 422H298Q268 422 250 410Q210
384 189 260Z" />
<glyph unicode="&#xf1;" glyph-name="ntilde" horiz-adv-x="547" d="M366 717T395 701T433 684T451 683T495 696T540 719L555 666Q553 665 539 654T521 640T505 629T486 617T468 609Q424 588 372 618Q342 635 325 635T295 632T271 624T257 617T241 609T225 600L209
650Q247 682 278 700T337 718ZM326 520T361 530T435 540T504 525Q555 500 566 428Q567 415 567 398T563 360L506 0H390L447 361Q449 373 449 384Q449 442 390 442Q332 442 284 420Q262 410 229 392L167 0H51L135 531H225L242 472Q245 474 266 486T306 509Z" />
<glyph unicode="&#xf2;" glyph-name="ograve" horiz-adv-x="560" d="M215 734H322L410 597H327L215 734ZM363 537Q492 537 538 467Q568 422 568 342Q568 300 560 249Q536 101 479 48T288 -5T106 59Q74 103 74 182Q74 220 84 284T115 400T169 483T248 525T363 537ZM230
389T219 354T199 267T190 185T196 136T217 109Q241 93 286 93T352 98T391 118T423 168T443 253Q453 312 453 341T449 389T431 419Q407 439 360 439T290 433T249 408Z" />
<glyph unicode="&#xf3;" glyph-name="oacute" horiz-adv-x="560" d="M329 597L448 734H560L412 597H329ZM363 537Q492 537 538 467Q568 422 568 342Q568 300 560 249Q536 101 479 48T288 -5T106 59Q74 103 74 182Q74 220 84 284T115 400T169 483T248 525T363 537ZM230
389T219 354T199 267T190 185T196 136T217 109Q241 93 286 93T352 98T391 118T423 168T443 253Q453 312 453 341T449 389T431 419Q407 439 360 439T290 433T249 408Z" />
<glyph unicode="&#xf4;" glyph-name="ocircumflex" horiz-adv-x="560" d="M216 597L349 731H441L519 597H438L390 669L311 597H216ZM363 537Q492 537 538 467Q568 422 568 342Q568 300 560 249Q536 101 479 48T288 -5T106 59Q74 103 74 182Q74 220 84 284T115
400T169 483T248 525T363 537ZM230 389T219 354T199 267T190 185T196 136T217 109Q241 93 286 93T352 98T391 118T423 168T443 253Q453 312 453 341T449 389T431 419Q407 439 360 439T290 433T249 408Z" />
<glyph unicode="&#xf5;" glyph-name="otilde" horiz-adv-x="560" d="M362 714T392 698T429 681T444 680T473 687Q517 701 536 716L551 663Q547 661 537 653T522 641T507 630T491 619T476 611T459 603Q440 597 419 597T368 615T321 632T291 629T267 621T253 614T237
606T221 597L206 647Q243 679 274 697T333 715ZM363 537Q492 537 538 467Q568 422 568 342Q568 300 560 249Q536 101 479 48T288 -5T106 59Q74 103 74 182Q74 220 84 284T115 400T169 483T248 525T363 537ZM230 389T219 354T199 267T190 185T196 136T217 109Q241
93 286 93T352 98T391 118T423 168T443 253Q453 312 453 341T449 389T431 419Q407 439 360 439T290 433T249 408Z" />
<glyph unicode="&#xf6;" glyph-name="odieresis" horiz-adv-x="560" d="M238 709T261 709T296 695T308 669Q308 634 287 616T243 597T208 612T195 638Q195 673 216 691ZM493 709T516 709T551 695T563 669Q563 634 542 616T504 597T477 601T461 614Q447 630 450
653T473 692ZM363 537Q492 537 538 467Q568 422 568 342Q568 300 560 249Q536 101 479 48T288 -5T106 59Q74 103 74 182Q74 220 84 284T115 400T169 483T248 525T363 537ZM230 389T219 354T199 267T190 185T196 136T217 109Q241 93 286 93T352 98T391 118T423 168T443
253Q453 312 453 341T449 389T431 419Q407 439 360 439T290 433T249 408Z" />
<glyph unicode="&#xf7;" glyph-name="divide" horiz-adv-x="504" d="M90 302L106 404H526L510 302H90ZM259 248H324Q344 248 344 230Q344 227 344 224L333 161Q330 138 306 138H241Q231 138 225 144T220 161L231 224Q234 248 259 248ZM284 563T308 563H373Q394
563 394 545Q394 542 393 538L384 476Q380 453 356 453H291Q280 453 275 459T271 476L280 538Q284 563 308 563Z" />
<glyph unicode="&#xf8;" glyph-name="oslash" horiz-adv-x="562" d="M99 67Q75 107 75 161T85 282T116 400T170 482T250 524T376 536T506 504L530 531H603L543 466Q571 423 571 347Q571 304 562 250Q538 102 480 49T287 -5Q185 -5 134 30L106 0H36L99 67ZM426
421Q405 437 363 437T301 434T265 420T237 390Q214 348 199 258Q194 227 194 206T198 171L426 421ZM214 114Q234 93 284 93T354 97T393 118T424 168T444 248T452 323T446 366L214 114Z" />
<glyph unicode="&#xf9;" glyph-name="ugrave" horiz-adv-x="546" d="M211 734H318L406 597H323L211 734ZM185 170Q183 156 183 138T196 105T248 90T321 101T404 140L465 531H581L497 0H406L391 58Q353 35 332 24T275 2T201 -9Q118 -9 88 40Q66 75 66 126Q66 147
70 172L126 531H242L185 170Z" />
<glyph unicode="&#xfa;" glyph-name="uacute" horiz-adv-x="546" d="M323 597L441 734H553L406 597H323ZM185 170Q183 156 183 138T196 105T248 90T321 101T404 140L465 531H581L497 0H406L391 58Q353 35 332 24T275 2T201 -9Q118 -9 88 40Q66 75 66 126Q66 147
70 172L126 531H242L185 170Z" />
<glyph unicode="&#xfb;" glyph-name="ucircumflex" horiz-adv-x="546" d="M213 597L346 731H438L516 597H435L387 669L308 597H213ZM185 170Q183 156 183 138T196 105T248 90T321 101T404 140L465 531H581L497 0H406L391 58Q353 35 332 24T275 2T201 -9Q118 -9
88 40Q66 75 66 126Q66 147 70 172L126 531H242L185 170Z" />
<glyph unicode="&#xfc;" glyph-name="udieresis" horiz-adv-x="546" d="M232 709T255 709T290 695T302 669Q302 634 281 616T237 597T202 612T189 638Q189 673 210 691ZM487 709T510 709T545 695T557 669Q557 634 536 616T498 597T472 601T455 614Q441 630 444
653T467 692ZM185 170Q183 156 183 138T196 105T248 90T321 101T404 140L465 531H581L497 0H406L391 58Q353 35 332 24T275 2T201 -9Q118 -9 88 40Q66 75 66 126Q66 147 70 172L126 531H242L185 170Z" />
<glyph unicode="&#xfd;" glyph-name="yacute" horiz-adv-x="558" d="M314 593L432 729H545L397 593H314ZM600 492Q600 447 577 397L388 1Q288 -211 151 -265Q124 -276 94 -281V-199Q153 -165 192 -116T265 0Q216 0 181 29T137 126L88 531H208L252 144Q256 118
281 108Q285 107 288 107T295 106T302 105T307 105T310 105L465 432Q483 471 491 533H595Q600 513 600 492Z" />
<glyph unicode="&#xfe;" glyph-name="thorn" horiz-adv-x="553" d="M382 530Q410 536 443 536T506 513Q560 472 569 361Q571 346 571 320T565 260T555 202T542 150T523 99T496 55T458 19Q412 -12 346 -12Q309 -12 262 -2T179 26L132 -270H16L184 782H300L250 472Q307
512 382 530ZM452 333Q452 434 396 434Q328 434 238 393L192 106Q218 97 233 95T252 91T267 89T281 88T295 87T307 86T321 86T334 85Q375 85 404 123T447 263Q452 302 452 333Z" />
<glyph unicode="&#xff;" glyph-name="ydieresis" horiz-adv-x="558" d="M224 697T247 697T283 683T295 658Q295 623 274 605T234 586T203 593Q178 610 182 637T205 681ZM479 697T502 697T538 683T550 658Q550 623 529 605T485 586T450 600T437 626Q437 661 458
679ZM600 492Q600 447 577 397L388 1Q288 -211 151 -265Q124 -276 94 -281V-199Q153 -165 192 -116T265 0Q216 0 181 29T137 126L88 531H208L252 144Q256 118 281 108Q285 107 288 107T295 106T302 105T307 105T310 105L465 432Q483 471 491 533H595Q600 513 600
492Z" />
<glyph unicode="&#x2013;" glyph-name="endash" horiz-adv-x="454" d="M60 236L76 339H549L533 236H60Z" />
<glyph unicode="&#x2014;" glyph-name="emdash" horiz-adv-x="736" d="M60 238L77 341H773L756 238H60Z" />
<glyph unicode="&#x2018;" glyph-name="quoteleft" horiz-adv-x="262" d="M207 718T226 725T260 734T281 736T295 735L307 733L299 686Q299 686 298 686Q266 686 261 653L257 629H269Q281 629 287 623T291 603L279 525Q275 496 247 496H172Q151 496 151 516Q151
520 152 525L170 645Q175 677 191 697Z" />
<glyph unicode="&#x2019;" glyph-name="quoteright" horiz-adv-x="262" d="M190 602Q179 602 173 609T168 629L181 707Q185 736 212 736H287Q309 736 309 716Q309 712 308 707L289 587Q284 555 268 534T233 506Q203 495 187 495T165 496L153 498L160 546Q175 546
184 552T195 565T198 579L202 602H190Z" />
<glyph unicode="&#x201a;" glyph-name="quotesinglbase" horiz-adv-x="262" d="M94 -1Q82 -1 76 6T72 26L85 105Q89 134 116 134H191Q213 134 213 113Q213 109 212 105L193 -16Q187 -48 172 -68T137 -97Q107 -108 91 -108T69 -107L56 -105L64 -57Q79 -57 88 -51T98
-38T102 -23L106 -1H94Z" />
<glyph unicode="&#x201c;" glyph-name="quotedblleft" horiz-adv-x="420" d="M201 718T220 725T253 734T275 736T288 735L300 733L293 685Q293 685 292 685Q260 685 255 652L251 628H263Q275 628 281 622T285 602L273 524Q269 495 241 495H166Q145 495 145 515Q145
519 146 524L164 644Q169 676 185 697ZM372 718T391 725T424 734T446 736T459 735L471 733L464 685Q463 685 463 685Q431 685 425 652L422 628H434Q446 628 452 622T456 602L444 524Q439 495 412 495H337Q316 495 316 515Q316 519 316 524L335 644Q340 676 356
697Z" />
<glyph unicode="&#x201d;" glyph-name="quotedblright" horiz-adv-x="420" d="M184 601Q172 601 166 608T161 628L174 707Q179 736 205 736H280Q302 736 302 715Q302 711 302 707L282 586Q277 554 261 534T226 505Q196 494 180 494T158 495L146 497L154 546Q168
545 177 552T188 564T192 579L195 601H184ZM355 601Q343 601 337 608T332 628L345 707Q350 736 376 736H451Q473 736 473 715Q473 711 473 707L453 586Q448 554 432 534T397 505Q367 494 351 494T329 495L317 497L325 546Q347 545 353 555Q360 567 363 579L366
601H355Z" />
<glyph unicode="&#x201e;" glyph-name="quotedblbase" horiz-adv-x="419" d="M87 0Q76 0 70 7T65 27L78 105Q82 134 109 134H184Q206 134 206 114Q206 110 205 105L186 -15Q181 -47 165 -68T130 -96Q100 -107 84 -107T62 -106L50 -104L58 -56Q72 -57 81 -50T92
-38T95 -23L99 0H87ZM258 0Q247 0 241 7T236 27L249 105Q253 134 280 134H355Q377 134 377 114Q377 110 376 105L357 -15Q352 -47 336 -68T301 -96Q271 -107 255 -107T233 -106L221 -104L228 -56Q243 -57 252 -50T263 -38T266 -23L270 0H258Z" />
<glyph unicode="&#x2022;" glyph-name="bullet" horiz-adv-x="308" d="M151 297Q123 297 123 322Q123 325 124 329L140 433Q142 449 152 458T179 468H277Q307 468 307 441Q307 438 306 433L290 329Q285 297 249 297H151Z" />
<glyph unicode="&#x2039;" glyph-name="guilsinglleft" horiz-adv-x="292" d="M26 354L264 557L323 489L160 349L278 211L204 146L26 354Z" />
<glyph unicode="&#x203a;" glyph-name="guilsinglright" horiz-adv-x="358" d="M98 215L262 355L145 493L219 557L395 351L156 146L98 215Z" />
</font>
</defs>
</svg>
