<?xml version="1.0" standalone="no"?>
<!DOCTYPE svg PUBLIC "-//W3C//DTD SVG 1.1//EN" "http://www.w3.org/Graphics/SVG/1.1/DTD/svg11.dtd">
<svg xmlns="http://www.w3.org/2000/svg">
<defs >
<font id="Exo" horiz-adv-x="542" ><font-face
    font-family="Exo"
    units-per-em="1000"
    panose-1="2 0 8 3 0 0 0 0 0 0"
    ascent="1002"
    descent="-327"
    alphabetic="0" />
<glyph unicode=" " glyph-name="space" horiz-adv-x="250" />
<glyph unicode="!" glyph-name="exclam" horiz-adv-x="271" d="M112 138H200Q223 138 219 113L205 23Q202 0 179 0H91Q80 0 74 6T70 23L84 113Q87 138 112 138ZM107 198L178 731H319L221 198H107Z" />
<glyph unicode="&quot;" glyph-name="quotedbl" horiz-adv-x="444" d="M160 531L170 665L181 732H316L305 665L274 531H160ZM340 531L350 665L361 732H496L485 665L454 531H340Z" />
<glyph unicode="#" glyph-name="numbersign" horiz-adv-x="721" d="M48 210L78 306H230L269 427H116L147 523H303L373 732H469L399 523H522L591 732H687L618 523H789L759 427H587L548 305H720L691 209H513L442 0H346L417 209L293 210L223 0H127L197 210H48ZM326
306L452 305L491 427H365L326 306Z" />
<glyph unicode="$" glyph-name="dollar" horiz-adv-x="569" d="M426 255Q426 292 368 292H276Q195 292 159 332Q123 372 118 419Q116 441 116 460T119 500L128 563Q146 680 234 716Q282 736 354 738L368 824H453L440 737Q532 731 614 709L597 600Q453 610 400
610T332 608T302 597Q274 583 266 538L261 502Q259 491 259 475T270 446T330 432H423Q465 432 495 418T540 382Q570 336 570 286Q570 270 566 224L558 175Q538 46 441 9Q394 -8 331 -8Q327 -8 322 -8L309 -90H224L237 -6Q145 -1 68 22L86 129Q242 120 318 120Q408
120 418 184L424 223Q426 241 426 255Z" />
<glyph unicode="%" glyph-name="percent" horiz-adv-x="964" d="M281 732H382Q497 732 497 630Q497 614 494 595L475 473Q464 405 430 377T320 349H219Q155 349 126 386Q104 414 104 456Q104 471 107 488L126 610Q136 675 170 703T281 732ZM208 496Q206 486 206
476T211 459Q219 447 248 447H321Q361 447 372 468Q377 478 380 496L393 585Q397 617 391 624Q381 634 353 634H279Q242 634 231 615Q224 605 221 585L208 496ZM206 0L769 732H869L310 0H206ZM760 385H862Q976 385 976 280Q976 264 974 246L955 124Q945 57 910
30T799 2H698Q633 2 605 37Q584 64 584 106Q584 121 587 138L606 260Q616 324 648 353Q682 385 760 385ZM687 149Q686 139 686 133T687 118Q691 100 728 100H800Q831 100 843 111T859 149L873 238Q875 249 875 260T868 279T832 287H759Q730 287 718 277T701 238L687
149Z" />
<glyph unicode="&amp;" glyph-name="ampersand" horiz-adv-x="672" d="M54 187Q54 287 158 365L249 434L209 504Q187 546 187 583Q187 644 235 690Q271 723 315 729Q354 736 381 736T444 734Q509 731 599 710L583 609H418Q376 609 356 601T335 570T357 511L492
278L627 395L669 337L598 216L552 172L651 0H498L444 94L369 34Q319 -7 250 -7Q211 -7 171 9Q116 31 85 83T54 187ZM321 144L382 197L304 328L239 280Q186 239 186 199Q186 179 199 159Q224 121 257 121T321 144Z" />
<glyph unicode="&apos;" glyph-name="quotesingle" horiz-adv-x="224" d="M137 531L147 665L158 732H299L288 665L257 531H137Z" />
<glyph unicode="(" glyph-name="parenleft" horiz-adv-x="377" d="M327 549T295 463T249 294T235 169Q235 46 252 -26Q280 -152 316 -218L329 -243H199Q151 -181 120 -58Q95 37 95 145Q95 299 140 444Q173 551 233 655Q269 718 306 762T354 816L366 827H499Q472
794 431 731T358 609Z" />
<glyph unicode=")" glyph-name="parenright" horiz-adv-x="378" d="M153 29T185 117T231 287T245 410T244 497T227 611Q200 731 165 800L152 827H282Q329 760 360 635Q385 537 385 429Q385 258 325 86Q294 -4 261 -61Q193 -180 146 -224L127 -243H-18Q9 -212 50
-151T122 -30Z" />
<glyph unicode="*" glyph-name="asterisk" horiz-adv-x="427" d="M127 566L136 622L279 646L270 561L127 566ZM160 416L206 553L286 532L211 399L160 416ZM264 467L322 538L419 448L380 403L264 467ZM279 720L336 739L384 617L300 584L279 720ZM329 571L461 650L485
603L373 506L329 571Z" />
<glyph unicode="+" glyph-name="plus" horiz-adv-x="483" d="M80 297L99 415H247L270 564H388L365 415H515L496 297H346L322 148H204L228 297H80Z" />
<glyph unicode="," glyph-name="comma" horiz-adv-x="260" d="M90 0Q79 0 73 6T69 25L82 112Q87 139 112 139H196Q216 139 216 119Q216 116 215 112L196 -11Q191 -42 175 -61T139 -86Q114 -93 96 -93T68 -91L56 -88L63 -40Q77 -40 85 -35T95 -26T98 -14L101 0H90Z" />
<glyph unicode="-" glyph-name="hyphen" horiz-adv-x="353" d="M61 231L79 349H393L375 231H61Z" />
<glyph unicode="." glyph-name="period" horiz-adv-x="262" d="M110 138H196Q218 138 218 120Q218 117 217 113L203 23Q199 0 175 0H89Q78 0 72 6T68 23L82 113Q85 138 110 138Z" />
<glyph unicode="/" glyph-name="slash" horiz-adv-x="456" d="M4 -72L418 770H563L149 -72H4Z" />
<glyph unicode="0" glyph-name="zero" horiz-adv-x="629" d="M341 732H505Q554 732 589 717T641 677Q668 636 668 587Q668 571 665 554L605 178Q591 88 544 44T411 0H247Q159 0 113 46Q77 81 77 141Q77 158 80 178L139 548Q154 641 203 686T341 732ZM224 201Q222
190 222 180T223 163T228 151T235 142T243 136T253 132T265 130Q274 129 288 129H385Q421 129 441 145T468 200L521 532Q523 543 523 559T512 589T464 603H359Q287 603 276 532L224 201Z" />
<glyph unicode="1" glyph-name="one" horiz-adv-x="370" d="M118 558L132 649Q164 649 214 678T287 732H425L310 0H170L264 588Q220 558 118 558Z" />
<glyph unicode="2" glyph-name="two" horiz-adv-x="586" d="M495 539Q495 572 473 592T386 612H127L144 716Q296 742 447 742Q517 742 563 708Q635 654 635 547Q635 486 616 445T578 376T527 315T472 261T413 212Q369 177 338 155T301 129H570L549 0H38L57 123Q170
192 308 299Q382 357 434 415T493 515Q495 528 495 539Z" />
<glyph unicode="3" glyph-name="three" horiz-adv-x="583" d="M338 -7H280Q267 -7 261 -7T228 -7T190 -6T157 -4T122 0T92 5Q62 10 32 21L49 123H303Q366 123 391 143Q411 159 416 191L421 223Q427 259 417 273Q409 286 401 289T387 293T372 296Q358 298 336 299L138
307L157 420L357 429Q411 431 436 446T467 501L473 536Q475 565 471 572T464 585T453 593T439 599T422 603Q406 605 385 605H118L134 706Q219 735 355 735Q405 735 462 734Q541 732 585 680Q618 639 618 582Q618 565 616 547L607 494Q588 379 508 364Q565 343 565
252Q565 230 561 204L554 161Q528 -7 338 -7Z" />
<glyph unicode="4" glyph-name="four" horiz-adv-x="620" d="M50 224L391 732H547L259 292H436L463 459L508 536H616L577 292H651L634 184L557 160L532 2H391L415 160H74L50 224Z" />
<glyph unicode="5" glyph-name="five" horiz-adv-x="596" d="M278 438Q314 464 386 464Q413 464 459 462Q535 458 571 405Q599 365 599 309Q599 291 596 272L580 160Q564 61 500 26Q444 -4 353 -4T207 -1T61 20L79 130H361Q433 130 444 201L454 265Q456 276 456
286Q456 339 399 339H307Q246 339 236 280H103L197 732H642L621 603H312L278 438Z" />
<glyph unicode="6" glyph-name="six" horiz-adv-x="608" d="M257 424Q343 445 464 445Q545 445 578 405Q611 367 611 319Q611 297 607 263L590 148Q576 63 526 31T387 -1H245Q132 -1 104 119Q94 160 94 194T94 265T110 395Q161 720 338 735Q378 739 421 739Q530
739 653 715L637 609H386Q299 609 267 473Q262 451 257 424ZM231 257T231 217T248 152T304 127H384Q448 127 457 190L468 257Q471 272 471 286T463 310T418 321H240Q231 257 231 217Z" />
<glyph unicode="7" glyph-name="seven" horiz-adv-x="554" d="M118 603L139 732H610L637 668L287 0H134L454 603H118Z" />
<glyph unicode="8" glyph-name="eight" horiz-adv-x="623" d="M553 393Q612 378 612 275Q612 258 608 246L595 160Q582 77 539 37Q522 21 495 12Q456 0 393 0H243Q79 0 79 135Q79 155 83 179L94 252Q101 297 128 323T196 356Q132 385 132 467Q132 487 135 510L146
575Q161 675 221 708Q274 737 360 737H511Q638 737 658 632Q661 615 661 596T657 552L649 499Q645 474 630 449Q602 401 553 393ZM469 267Q469 315 415 315H313Q246 315 236 253L225 183Q224 174 224 160Q224 124 287 124H381Q448 124 457 183L468 253Q469 260
469 267ZM273 479Q273 432 331 432H432Q470 432 485 448T506 494L513 541Q516 557 516 573T505 602T459 614H365Q324 614 306 599T282 541L274 494Q273 486 273 479Z" />
<glyph unicode="9" glyph-name="nine" horiz-adv-x="607" d="M469 311Q383 290 261 290Q181 290 148 331Q115 371 115 420Q115 441 119 478L136 581Q149 667 200 701T338 735H480Q631 735 631 506Q631 429 617 341T584 194T543 100T493 43Q447 5 396 1T299 -4Q188
-4 72 20L89 126H339Q437 126 469 311ZM258 478Q255 463 255 449T263 424T308 414H485Q494 477 494 517T477 582T420 608H342Q278 608 268 545L258 478Z" />
<glyph unicode=":" glyph-name="colon" horiz-adv-x="263" d="M110 138H196Q218 138 218 120Q218 117 217 113L203 23Q199 0 175 0H89Q78 0 72 6T68 23L82 113Q85 138 110 138ZM148 531T173 531H259Q280 531 280 514Q280 510 279 506L265 416Q261 393 237 393H151Q140
393 135 399T130 416L145 506Q148 531 173 531Z" />
<glyph unicode=";" glyph-name="semicolon" horiz-adv-x="263" d="M90 0Q79 0 73 7T69 25L82 112Q84 124 92 131T112 139H196Q216 139 216 119Q216 116 215 112L196 -11Q191 -42 175 -61T139 -86Q114 -93 96 -93T68 -91L56 -88L63 -40Q77 -40 85 -35T95 -26T98
-14L101 0H90ZM174 532H260Q281 532 281 514Q281 511 281 507L267 417Q263 394 238 394H152Q141 394 136 400T132 417L146 507Q149 532 174 532Z" />
<glyph unicode="&lt;" glyph-name="less" horiz-adv-x="450" d="M83 288L104 417L502 562L481 432L236 349L454 262L433 134L83 288Z" />
<glyph unicode="=" glyph-name="equal" horiz-adv-x="467" d="M49 184L68 302H495L476 184H49ZM82 399L101 517H528L509 399H82Z" />
<glyph unicode="&gt;" glyph-name="greater" horiz-adv-x="450" d="M59 134L80 265L328 358L106 436L126 562L478 417L458 288L59 134Z" />
<glyph unicode="?" glyph-name="question" d="M331 285L317 195H204L234 390Q272 389 300 389T349 390Q436 394 448 472L457 525Q458 537 458 546Q458 576 439 593T360 611H111L128 713Q267 740 361 740Q387 740 414 739Q483 739 529 709Q602 660 602 571Q602
555 599 537L587 453Q572 349 510 312Q462 283 378 283Q356 283 331 285ZM208 138H294Q315 138 315 120Q315 117 315 113L300 23Q296 0 272 0H186Q175 0 170 6T165 23L180 113Q183 138 208 138Z" />
<glyph unicode="@" glyph-name="at" horiz-adv-x="896" d="M746 721Q913 721 913 547Q913 519 908 488L859 162Q846 72 793 35Q748 3 667 3H574L551 58Q502 -4 419 -4Q325 -4 284 68Q257 114 257 192Q257 276 281 359Q308 455 360 498Q394 526 420 534Q461 545
497 545Q655 545 723 479L671 116Q709 116 725 132T751 206L795 499Q797 524 798 541T795 571T784 590T767 601Q749 608 719 608H359Q291 608 266 570Q246 540 239 499L164 26Q162 10 162 -11T174 -50Q192 -78 251 -78H637L623 -163Q488 -190 331 -190H238Q142
-190 96 -144Q47 -95 47 -19Q47 8 51 36L127 521Q144 627 206 674T382 721H746ZM376 265Q371 222 371 203T373 166Q379 108 438 108Q521 108 564 174L603 424Q558 434 493 434Q447 434 418 397T376 265Z" />
<glyph unicode="A" glyph-name="A" horiz-adv-x="688" d="M34 0L397 732H556L678 0H535L506 162H269L189 0H34ZM325 286H492L451 552L325 286Z" />
<glyph unicode="B" glyph-name="B" horiz-adv-x="599" d="M474 732Q528 732 567 715T624 668Q653 621 653 564Q653 544 649 515T627 454Q591 391 524 380Q566 373 593 323Q612 286 612 236Q612 218 610 198Q594 85 537 43T360 0H61L177 732H474ZM473 249Q473 324
406 324H252L221 123H374Q455 123 470 221Q473 236 473 249ZM420 442Q457 442 480 463T509 525Q511 539 511 549T509 571T497 592Q479 608 446 608H298L272 442H420Z" />
<glyph unicode="C" glyph-name="C" horiz-adv-x="571" d="M407 740Q543 740 657 704L640 595Q515 611 429 611Q425 611 423 611T411 611T394 611T372 608T349 602T328 589T307 569T288 538T270 495Q251 438 240 372T229 260T240 185Q262 126 341 123Q352 123 398
123T568 132L551 22Q498 4 444 -1T349 -6T291 -6Q223 -5 178 26T113 111Q89 179 89 251T99 384T122 493T152 581T193 650T247 700Q308 740 407 740Z" />
<glyph unicode="D" glyph-name="D" horiz-adv-x="655" d="M473 732Q534 732 577 709T643 648Q683 581 683 469Q683 415 673 346Q643 160 572 80T367 0H61L177 732Q177 732 473 732ZM533 364Q545 427 545 460Q545 557 509 587Q485 608 438 608H297L220 125H367Q495
125 533 364Z" />
<glyph unicode="E" glyph-name="E" horiz-adv-x="560" d="M217 706Q243 721 268 726T311 732T452 729T640 716L622 600H343Q307 600 295 582Q286 568 283 544L265 432L548 422L529 307L244 297L225 181Q220 149 232 140Q236 137 238 135T245 132T253 130T262 129Q270
129 279 129H548L529 14Q472 7 346 2T206 -3T167 3Q77 25 77 117Q77 133 79 150L148 585Q162 674 217 706Z" />
<glyph unicode="F" glyph-name="F" horiz-adv-x="561" d="M327 732Q330 732 454 729T641 716L624 600H345Q312 600 300 586T284 544L266 430L549 420L532 304L245 295L198 0H58L149 574Q162 660 211 696T327 732Z" />
<glyph unicode="G" glyph-name="G" horiz-adv-x="613" d="M446 53Q388 -6 278 -6Q187 -6 143 52Q90 121 90 247Q90 371 133 517Q167 636 226 685Q292 740 406 740Q409 740 449 740Q540 740 674 705L657 598Q519 616 419 616Q348 616 316 576Q283 535 269 479T244
361T233 256T242 184Q260 125 333 125Q333 125 333 125Q364 125 396 137T447 163L464 175L486 303H383L397 392Q460 417 576 417Q608 417 644 414L578 0H477L446 53Z" />
<glyph unicode="H" glyph-name="H" horiz-adv-x="637" d="M63 0L179 732H319L269 418H520L570 732H710L594 0H454L500 290H249L203 0H63Z" />
<glyph unicode="I" glyph-name="I" horiz-adv-x="256" d="M65 0L181 732H321L205 0H65Z" />
<glyph unicode="J" glyph-name="J" horiz-adv-x="356" d="M49 132Q80 130 98 130T126 130Q193 133 207 226L287 732H427L337 165Q320 53 261 18Q221 -5 153 -5Q69 -5 30 23L49 132Z" />
<glyph unicode="K" glyph-name="K" horiz-adv-x="620" d="M61 0L177 732H311L263 426H318L549 732H719L440 355L603 0H443L312 302H244L196 0H61Z" />
<glyph unicode="L" glyph-name="L" horiz-adv-x="529" d="M283 129H534L514 0H212Q146 0 113 30T80 110Q80 125 82 142L177 732H316L229 181Q223 143 243 135Q257 129 283 129Z" />
<glyph unicode="M" glyph-name="M" horiz-adv-x="827" d="M49 0L229 732H421L465 232L664 732H861L814 0H675L710 489L512 0H353L308 489L190 0H49Z" />
<glyph unicode="N" glyph-name="N" horiz-adv-x="669" d="M61 0L177 732H317L525 256L600 732H740L624 0H486L276 470L202 0H61Z" />
<glyph unicode="O" glyph-name="O" horiz-adv-x="666" d="M374 735T397 736T456 737T523 733T584 719T636 690Q684 649 697 572Q704 537 704 510T703 450T692 349T666 226T632 136T589 74T540 33T481 9Q426 -4 365 -4T274 -1T212 13T160 40Q111 80 98 154Q91 189
91 215T91 273T102 368T124 477T149 559T180 621T214 667T254 699T298 719T346 731ZM232 231Q232 172 257 150Q288 125 360 125Q427 125 466 151Q524 191 551 361Q563 435 563 479T557 548T533 586T494 604T442 608T394 607T358 600T327 585T301 556Q279 527 256
428T232 231Z" />
<glyph unicode="P" glyph-name="P" horiz-adv-x="597" d="M480 732Q556 732 608 683Q652 641 652 551Q652 469 623 393Q597 325 546 292Q522 277 499 274Q453 269 436 269T399 270T313 279T244 289L198 0H58L174 732H480ZM509 541Q509 608 449 608H294L260 394H415Q451
394 473 418T506 505Q509 525 509 541Z" />
<glyph unicode="Q" glyph-name="Q" horiz-adv-x="668" d="M340 731T371 734T448 737T525 733T586 718T638 689Q705 630 705 487Q705 371 674 248Q651 157 627 121T586 67T547 36T504 15T455 3Q363 -11 275 0Q202 8 162 41Q113 82 99 156Q93 191 93 218T93 276T106
384T137 523T182 623T235 685T300 720ZM233 231Q233 172 259 150Q289 125 361 125Q429 125 468 151Q526 191 553 361Q565 435 565 479T559 548T535 586T495 604T443 608T396 607T360 600T328 585T303 556Q281 527 257 428T233 231ZM451 -73Q484 -73 531 -61L513
-174Q476 -180 446 -180T386 -171Q292 -139 292 -50Q292 -42 293 -33H373Q390 -73 451 -73Z" />
<glyph unicode="R" glyph-name="R" horiz-adv-x="603" d="M483 732Q572 732 617 673Q651 630 651 552Q651 467 624 400Q609 361 594 342T557 309T524 294T496 288L600 0H442L356 280L244 289L198 0H58L174 732H483ZM414 398Q455 398 477 423Q508 456 508 540Q508
572 499 586Q487 607 450 607H295L262 398H414Z" />
<glyph unicode="S" glyph-name="S" horiz-adv-x="579" d="M335 121Q426 121 436 184L442 223Q444 237 444 246T443 265T428 283T386 292H285Q199 292 162 330Q125 368 120 411Q117 433 117 451T120 488L130 564Q149 686 238 720Q286 738 358 738H359Q370 738 380
738Q533 738 632 709L614 599Q473 609 422 609T366 609Q321 609 299 597T269 538L264 502Q263 486 262 475T265 455T274 443T289 436Q305 432 332 432H436Q503 432 538 399Q573 367 580 324Q585 292 585 273T582 238L576 172Q563 20 421 -2Q385 -8 337 -8Q163 -8
71 22L88 132Q176 121 335 121Z" />
<glyph unicode="T" glyph-name="T" horiz-adv-x="588" d="M122 603L143 732H684L663 603H459L364 0H224L319 603H122Z" />
<glyph unicode="U" glyph-name="U" horiz-adv-x="653" d="M249 312Q241 266 241 227T253 165Q275 124 353 124T466 167T517 312L584 732H725L661 295Q633 119 549 54Q506 21 456 8T355 -5T281 -2T231 7T187 26T150 56Q118 88 105 157Q100 184 100 205Q100 268
110 328L175 732H315L249 312Z" />
<glyph unicode="V" glyph-name="V" horiz-adv-x="685" d="M139 732H286L360 184L616 732H772L414 0H252L139 732Z" />
<glyph unicode="W" glyph-name="W" horiz-adv-x="1010" d="M139 732H285L360 191L600 732H750L656 530L707 188L949 732H1097L762 0H604L558 301L418 0H252L139 732Z" />
<glyph unicode="X" glyph-name="X" horiz-adv-x="643" d="M32 0L303 374L145 732H299L399 484L578 732H736L458 348L612 0H458L362 238L191 0H32Z" />
<glyph unicode="Y" glyph-name="Y" horiz-adv-x="656" d="M139 732H290L374 382L583 732H743L422 227L386 0H246L282 227L139 732Z" />
<glyph unicode="Z" glyph-name="Z" horiz-adv-x="557" d="M27 0L48 129L455 603H122L143 732H647L626 603L229 129H552L531 0H27Z" />
<glyph unicode="[" glyph-name="bracketleft" horiz-adv-x="334" d="M373 809H453L434 691H382Q351 691 333 674T307 612L203 -38Q199 -60 199 -78T205 -107Q216 -125 250 -125H305L286 -243H197Q157 -243 128 -228Q57 -193 57 -86Q57 -59 63 -28L171 643Q185
731 229 770T373 809Z" />
<glyph unicode="\" glyph-name="backslash" horiz-adv-x="449" d="M136 770H276L424 -72H284L136 770Z" />
<glyph unicode="]" glyph-name="bracketright" horiz-adv-x="331" d="M53 -125Q84 -125 102 -108T128 -46L231 604Q234 625 234 644T228 673Q217 691 182 691H130L149 809H231Q278 809 310 791T356 743Q376 698 376 662T372 603L270 -76Q259 -151 222 -194Q180
-243 73 -243H-18L1 -125H53Z" />
<glyph unicode="^" glyph-name="asciicircum" horiz-adv-x="384" d="M122 531L251 667H355L430 531H338L298 595L232 531H122Z" />
<glyph unicode="_" glyph-name="underscore" horiz-adv-x="673" d="M24 -1L43 117H677L658 -1H24Z" />
<glyph unicode="`" glyph-name="grave" horiz-adv-x="247" d="M121 670H239L317 531H226L121 670Z" />
<glyph unicode="a" glyph-name="a" d="M244 531T268 535T315 540T354 542T398 540T461 530Q540 514 576 479L506 1H398L377 56Q349 21 280 3Q247 -6 212 -6T145 10T92 63Q66 107 66 169T77 296T110 406T155 476T211 516ZM427 419Q392 431 364 431T318 428T287
418T259 397Q228 368 213 271Q206 230 206 202T211 154Q223 113 265 113T335 125T389 163L427 419Z" />
<glyph unicode="b" glyph-name="b" horiz-adv-x="556" d="M428 539Q551 539 569 414Q573 385 573 365Q573 311 561 241Q540 112 493 53T355 -6Q305 -6 262 12T194 54L161 0H46L170 785H309L265 504Q346 539 428 539ZM328 114Q366 114 387 148T420 252T431 350T427
393Q418 429 377 429Q306 429 251 409L209 146Q254 114 328 114Z" />
<glyph unicode="c" glyph-name="c" horiz-adv-x="492" d="M215 530T239 535T303 540T414 532T536 507L522 420Q427 427 372 427T304 425T277 415T253 389Q232 348 218 263Q209 198 209 174T219 134T244 113T294 107Q369 107 453 114L481 116L467 28Q410 7 359
1T268 -6T215 -5Q133 -5 94 66Q69 110 69 168T79 288T107 396T143 471T188 514Z" />
<glyph unicode="d" glyph-name="d" horiz-adv-x="550" d="M451 504L496 785H635L510 0H395L379 54Q295 -6 214 -6Q168 -6 135 18Q69 66 69 200Q69 241 77 287T96 368T123 437T163 492Q212 539 296 539T451 504ZM212 192Q212 114 265 114Q338 114 394 146L435 409Q387
429 314 429Q291 429 275 418Q239 392 219 268Q212 223 212 192Z" />
<glyph unicode="e" glyph-name="e" horiz-adv-x="527" d="M315 194Q244 194 211 208Q207 185 207 163T217 127Q234 106 288 105Q303 105 320 105Q401 105 505 122L488 22Q386 -9 268 -9Q240 -9 211 -7Q66 0 66 179Q66 232 77 292T100 388T131 454T179 503Q239
541 351 541Q557 541 557 402Q557 346 537 305T488 244Q421 194 315 194ZM222 300Q247 296 266 296T297 296T330 301T368 313Q415 334 415 385Q415 407 400 418T342 429Q290 429 269 409Q261 401 256 397T245 380T237 363T231 342Q227 326 222 300Z" />
<glyph unicode="f" glyph-name="f" horiz-adv-x="404" d="M279 767T311 776T402 786T510 762L497 678L407 679Q406 679 405 679Q365 679 353 659T330 569L324 531H452L435 424H306L237 0H97L166 424H82L96 513L184 531L195 602Q211 704 255 745Q279 767 311 776Z" />
<glyph unicode="g" glyph-name="g" horiz-adv-x="556" d="M259 -155Q320 -155 346 -102Q355 -84 359 -60L374 37Q312 -1 246 -1T142 20T90 81Q71 128 71 184T81 296Q101 425 160 482T314 540Q389 540 470 531T591 510L498 -76Q481 -181 421 -232Q370 -274 291
-274Q275 -274 257 -272L19 -248L34 -155H259ZM259 395Q249 380 236 345T217 254T210 191T212 164T218 139T230 123Q243 109 270 109T314 111Q346 114 389 131L437 433H330Q286 433 259 395Z" />
<glyph unicode="h" glyph-name="h" horiz-adv-x="550" d="M440 540Q574 540 574 408Q574 383 569 354L513 0H373L429 356Q431 367 431 377Q431 428 382 428Q322 428 273 398Q261 391 246 382L186 0H46L170 783H309L260 474Q294 497 312 507T367 528T440 540Z" />
<glyph unicode="i" glyph-name="i" horiz-adv-x="226" d="M43 0L127 531H267L183 0H43ZM175 723H280Q299 723 299 705Q299 702 299 698L285 609Q282 586 259 586H154Q143 586 138 592T134 609L147 698Q151 723 175 723Z" />
<glyph unicode="j" glyph-name="j" horiz-adv-x="243" d="M9 -270L136 531H276L191 -4Q165 -177 112 -270H9ZM290 723Q309 723 309 703Q309 701 309 698L294 609Q291 586 268 586H163Q152 586 147 592T142 609L157 698Q160 723 185 723H290Z" />
<glyph unicode="k" glyph-name="k" horiz-adv-x="530" d="M46 0L170 782H310L239 338Q301 361 360 415T437 531H586Q561 443 505 381T391 288L554 0H398L263 244L225 243L186 0H46Z" />
<glyph unicode="l" glyph-name="l" horiz-adv-x="307" d="M203 0Q69 0 69 134Q69 159 74 189L168 783H308L217 211Q214 179 213 162T217 133T229 117T268 100T306 87L293 0H203Z" />
<glyph unicode="m" glyph-name="m" horiz-adv-x="875" d="M765 539Q898 539 898 402Q898 378 894 352L838 0H698L754 354Q756 364 756 372T755 390T746 409Q733 426 699 426Q627 426 571 384Q570 383 569 375Q566 354 566 351L510 0H370L426 354Q428 365 428 380T417
410T372 426T311 416T246 381L186 0H46L130 531H242L261 474Q264 476 277 484T295 495T311 505T329 515T346 522T366 529T387 534Q407 539 438 539T494 529Q545 511 561 466Q611 500 659 519T765 539Z" />
<glyph unicode="n" glyph-name="n" horiz-adv-x="550" d="M440 540Q574 540 574 408Q574 383 569 354L513 0H373L429 356Q431 367 431 377Q431 428 382 428Q322 428 273 398Q261 391 246 382L186 0H46L130 531H242L261 474Q297 498 314 507T366 528T440 540Z" />
<glyph unicode="o" glyph-name="o" horiz-adv-x="557" d="M362 538Q494 538 540 467Q570 421 570 340Q570 297 560 233T531 122T479 46T400 6T283 -5Q149 -5 102 61Q70 106 70 186Q70 225 80 289T110 405T166 486T246 527T362 538ZM258 401T244 367T220 273T210
187T214 146T230 121Q250 108 289 108T345 111T379 130T404 175T422 259Q432 319 432 348T423 395T397 419T341 425T280 413Z" />
<glyph unicode="p" glyph-name="p" horiz-adv-x="556" d="M407 536Q460 536 495 513T548 451Q570 398 570 343T563 245Q544 115 490 53T338 -9T191 29L143 -270H3L130 510Q238 536 407 536ZM290 100Q304 100 325 102T364 117Q403 144 423 270Q430 307 430 336Q430
429 367 429H257L206 122Q244 100 290 100Z" />
<glyph unicode="q" glyph-name="q" horiz-adv-x="553" d="M419 539T491 528T589 509L466 -270H326L373 29Q309 -10 235 -10T120 27T73 130Q71 152 71 188T79 284Q101 420 159 479T318 539ZM259 394Q221 339 210 194Q209 178 209 170T210 154T215 133T226 114Q257
91 331 105Q354 109 388 122L437 432H327Q285 432 259 394Z" />
<glyph unicode="r" glyph-name="r" horiz-adv-x="417" d="M423 536Q466 536 481 530L460 395Q431 398 384 398T303 386T239 339L186 0H46L130 531H248L259 464Q346 536 423 536Z" />
<glyph unicode="s" glyph-name="s" horiz-adv-x="509" d="M320 109Q355 109 361 143L366 170Q369 194 359 199T335 204H216Q144 204 109 244Q82 274 82 323Q82 339 85 358L93 406Q103 472 141 505T254 538Q490 538 532 511L518 423H278Q254 423 244 413T231 386L227
360Q223 335 233 330Q236 328 238 327T244 326T250 326T256 326T263 326H385Q457 326 488 283Q511 251 511 208Q511 193 508 178L499 117Q487 39 439 14Q399 -7 347 -7Q95 -7 56 22L70 109H320Z" />
<glyph unicode="t" glyph-name="t" horiz-adv-x="376" d="M248 -1Q178 -1 144 46Q121 78 121 134Q121 159 125 190L162 425H77L89 503L179 532L226 680H343L319 532H438L421 425H302L269 212Q259 151 266 136T279 116T319 99T358 87L344 -1H248Z" />
<glyph unicode="u" glyph-name="u" horiz-adv-x="549" d="M206 175Q203 162 203 146T213 117T258 104T322 114T389 150L449 531H589L504 0H392L374 56Q325 23 288 7T195 -9Q61 -9 61 123Q61 148 66 178L122 531H262L206 175Z" />
<glyph unicode="v" glyph-name="v" horiz-adv-x="534" d="M581 495Q581 439 549 376L355 0H185L84 531H232L289 156L416 420Q442 474 448 532H577Q581 514 581 495Z" />
<glyph unicode="w" glyph-name="w" horiz-adv-x="828" d="M572 531Q577 512 577 482T559 408L543 370L582 161L713 420Q739 474 745 532H872Q876 513 876 492Q876 436 844 376L642 0H487L449 204L350 0H185L84 531H230L287 158L414 419Q440 473 446 531H572Z" />
<glyph unicode="x" glyph-name="x" horiz-adv-x="572" d="M18 0L244 275L102 531H268L343 372L468 531H638L411 250L549 0H387L312 153L191 0H18Z" />
<glyph unicode="y" glyph-name="y" horiz-adv-x="563" d="M607 491Q607 437 579 375L408 0Q326 -180 208 -247Q153 -277 92 -288V-190Q153 -157 192 -110T264 0Q206 0 170 33T126 135L84 531H229L262 159Q266 123 313 120L448 421Q466 464 473 532H603Q607 512 607 491Z" />
<glyph unicode="z" glyph-name="z" horiz-adv-x="473" d="M38 1L55 118L338 413H89L107 531H536L518 413L246 119H470L452 1H38Z" />
<glyph unicode="{" glyph-name="braceleft" horiz-adv-x="320" d="M266 222Q266 215 265 207L229 -14Q225 -41 225 -66Q225 -131 286 -131Q288 -131 290 -130L272 -243Q154 -243 112 -182Q81 -139 81 -81Q81 -59 86 -36L123 195Q124 200 124 205Q124 225 108 239T66
253Q63 253 59 252L76 358Q132 361 147 381Q155 391 157 406L194 640Q208 728 267 768T438 809L420 691Q369 691 349 657Q333 631 324 579L296 398Q282 313 185 302Q227 294 246 272T266 222Z" />
<glyph unicode="|" glyph-name="bar" horiz-adv-x="247" d="M53 -72L186 770H304L171 -72H53Z" />
<glyph unicode="}" glyph-name="braceright" horiz-adv-x="318" d="M1 -131Q55 -131 77 -87Q88 -64 94 -26L129 189Q141 265 239 284Q195 288 176 309T157 360Q157 370 159 380L188 567Q194 606 194 630Q194 675 165 686Q153 691 143 691T130 691L149 809Q205
809 245 792T304 744Q333 697 333 639Q333 618 328 595L300 390Q299 386 299 382Q299 360 317 347T365 333L348 228Q345 228 342 228Q275 228 267 179L226 -70Q210 -164 155 -203T-18 -243L0 -130Q1 -131 1 -131Z" />
<glyph unicode="~" glyph-name="asciitilde" horiz-adv-x="418" d="M185 634T210 646T260 658T313 641T362 623Q363 623 364 623Q407 623 462 663L476 603Q406 531 352 531Q329 531 296 548T250 566T229 566T214 563T201 559T187 553T175 547T160 539T146 531L130
586Q155 609 170 621Z" />
<glyph unicode="&#xa1;" glyph-name="exclamdown" horiz-adv-x="276" d="M22 -270L123 264H238L168 -270H22ZM126 345Q126 348 127 351L140 438Q143 460 168 461H253Q262 461 268 454T273 435L259 351Q255 327 234 325H145Q126 325 126 345Z" />
<glyph unicode="&#xa2;" glyph-name="cent" horiz-adv-x="485" d="M155 500T182 515T233 533T273 537T295 537L311 634H398L381 534Q467 525 529 504L515 418Q420 424 366 424T302 424T278 418T257 403T240 376Q225 346 210 263Q202 198 202 174T212 134T237 113T287
107Q362 107 446 114L474 116L460 28Q391 -3 294 -6L280 -95H194L208 -5Q125 -4 86 66Q62 110 62 168T72 288T99 397T136 472Z" />
<glyph unicode="&#xa3;" glyph-name="sterling" horiz-adv-x="582" d="M625 720L658 716L641 604H455Q419 604 398 601T361 585T337 552T323 495L309 408L528 392L516 314H294L265 129H565L544 0H38L55 108L125 129L154 314H88L99 386L169 408L184 500Q206 639
266 685Q288 702 307 711T358 725Q403 732 465 732T625 720Z" />
<glyph unicode="&#xa4;" glyph-name="currency" horiz-adv-x="449" d="M435 333Q435 266 391 214L432 167L376 117L332 168Q297 148 250 148T166 175L113 127L69 180L124 228Q110 260 110 291Q110 347 144 392L104 438L160 487L198 442Q243 471 294 471T381 443L435
491L480 440L423 391Q435 363 435 333ZM190 296Q190 271 208 250Q226 228 261 228T322 251Q356 281 356 325Q356 349 339 370T286 392Q249 392 223 369Q190 339 190 296Z" />
<glyph unicode="&#xa5;" glyph-name="yen" horiz-adv-x="634" d="M119 139L132 220H270L275 256H138L151 338H252L130 732H282L364 404L567 732H734L464 338H578L565 256H415L410 220H559L546 139H398L378 0H238L258 139H119Z" />
<glyph unicode="&#xa6;" glyph-name="brokenbar" horiz-adv-x="248" d="M53 -72L105 256H223L171 -72H53ZM132 429L186 770H304L250 429H132Z" />
<glyph unicode="&#xa7;" glyph-name="section" horiz-adv-x="540" d="M487 292Q531 282 531 213Q531 198 529 183L521 126Q507 42 463 15Q425 -8 357 -8T201 -3T80 11L95 110H333Q355 110 366 116T382 141L388 181Q390 202 384 206Q374 214 352 214H230Q161 214
124 246Q93 273 93 321Q93 334 95 348L101 382Q109 432 126 453Q145 476 179 486Q133 513 133 571Q133 585 135 601L142 649Q161 784 306 784Q369 784 457 779T582 765L567 666H326Q287 666 281 630L275 595Q275 592 275 588Q275 561 310 561H433Q508 561 539 530T570
455Q570 443 568 429L563 395Q550 309 487 292ZM425 424Q425 448 383 448H297Q269 448 259 439T245 403L239 366Q238 358 238 349Q238 326 278 326H364Q394 326 404 335T417 367L423 405Q425 416 425 424Z" />
<glyph unicode="&#xa8;" glyph-name="dieresis" horiz-adv-x="447" d="M153 625T167 632T202 640T235 625T248 599T247 579T240 559T224 540Q204 523 180 523T142 538T129 565T130 587T142 611ZM408 625T422 632T457 640T490 625T503 598Q503 562 481 543T435
523T397 538T384 565T385 587T397 611Z" />
<glyph unicode="&#xa9;" glyph-name="copyright" horiz-adv-x="797" d="M409 732H636Q733 732 777 672Q821 612 825 527Q827 505 827 483Q827 422 815 352Q788 180 715 90T528 0H301Q207 0 156 61Q90 140 90 284Q90 380 121 488Q153 601 216 662Q289 732 409 732ZM192
383Q182 316 182 282T184 227Q190 165 222 126T309 86H533Q600 86 651 154Q712 237 732 431Q737 472 737 502T732 554T715 600Q693 646 628 646H397Q231 646 192 383ZM370 565T396 574T458 583T547 577T637 559L626 485Q543 497 466 497Q425 497 404 467T370 362Q366
334 366 309Q366 233 428 233Q501 233 594 249L583 175Q510 147 393 147Q328 147 294 202Q273 238 273 285T281 384T306 477T346 542Z" />
<glyph unicode="&#xaa;" glyph-name="ordfeminine" horiz-adv-x="364" d="M64 262L74 332H395L385 262H64ZM214 727T230 729T260 732T297 733T369 723T442 690L396 375H325L309 423Q295 401 261 386T195 370Q142 370 111 423Q91 456 91 496T98 575T121 645T152
692T191 717ZM338 644Q314 653 292 653T260 650T241 643T223 630Q203 611 195 558Q191 536 191 520Q191 463 231 463Q282 463 318 503L338 644Z" />
<glyph unicode="&#xab;" glyph-name="guillemotleft" horiz-adv-x="578" d="M94 354L332 557L398 480L240 345L356 210L272 146L94 354ZM309 354L547 557L613 480L455 345L571 210L487 146L309 354Z" />
<glyph unicode="&#xac;" glyph-name="logicalnot" horiz-adv-x="493" d="M516 352L485 159H372L385 240H71L89 352H516Z" />
<glyph unicode="&#xad;" glyph-name="uni00AD" horiz-adv-x="353" d="M56 231L75 349H389L370 231H56Z" />
<glyph unicode="&#xae;" glyph-name="registered" horiz-adv-x="797" d="M409 732H636Q733 732 777 672Q821 612 825 527Q827 505 827 483Q827 422 815 352Q788 180 715 90T528 0H301Q207 0 156 61Q90 140 90 284Q90 380 121 488Q153 601 216 662Q289 732 409
732ZM192 383Q182 316 182 282T184 227Q190 165 222 126T309 86H533Q600 86 651 154Q712 237 732 431Q737 472 737 502T732 554T715 600Q693 646 628 646H397Q231 646 192 383ZM520 580Q570 580 604 554Q635 530 635 475Q635 432 624 402T605 360T582 337Q563 324
533 316L595 153H496L438 312L388 324L361 153H269L337 580H520ZM474 390Q512 390 523 400T538 432T542 467T532 487T490 494H415L399 390H474Z" />
<glyph unicode="&#xaf;" glyph-name="overscore" horiz-adv-x="367" d="M122 531L135 610H427L414 531H122Z" />
<glyph unicode="&#xb0;" glyph-name="degree" horiz-adv-x="275" d="M235 733Q301 733 328 683Q339 662 339 649T339 632Q337 590 307 562T234 533T164 560T136 626Q136 672 168 702T235 733ZM282 651T270 664T236 677T200 654Q193 643 193 631T198 610T214 594T236
588T259 594Q282 607 282 629Z" />
<glyph unicode="&#xb1;" glyph-name="plusminus" horiz-adv-x="500" d="M54 70L72 188H488L470 70H54ZM104 382L122 500H270L294 648H412L388 500H538L520 382H370L346 232H228L252 382H104Z" />
<glyph unicode="&#xb2;" glyph-name="twosuperior" horiz-adv-x="398" d="M351 687Q353 696 353 709Q353 744 284 744H125Q124 744 135 805L138 825Q248 844 336 844Q384 844 415 819Q465 781 465 716Q465 612 338 506Q325 495 300 476T274 455H424L408 355H67L82
451Q340 613 351 687Z" />
<glyph unicode="&#xb3;" glyph-name="threesuperior" horiz-adv-x="407" d="M271 351H241Q147 351 117 357T69 371L82 450L242 451Q278 451 295 459T317 492L319 505Q320 510 320 520T307 539T261 549L139 554L152 641L278 646Q323 648 335 660T349 687L351 699Q352
705 352 714Q352 740 292 740H123L136 819Q195 839 299 839Q324 839 353 839Q409 838 436 806T463 735Q463 724 461 712L456 682Q443 605 386 593Q428 577 428 516Q428 503 426 490L422 466Q403 351 272 351Q271 351 271 351Z" />
<glyph unicode="&#xb4;" glyph-name="acute" horiz-adv-x="243" d="M99 531L212 670H334L190 531H99Z" />
<glyph unicode="&#xb5;" glyph-name="uni00B5" horiz-adv-x="587" d="M234 154Q234 104 283 104Q324 104 353 114T419 150L480 531H620L536 0H423L404 56Q398 53 383 45T360 32T339 22T316 11Q256 -11 209 4L166 -270H26L153 531H293L236 175Q234 164 234 154Z" />
<glyph unicode="&#xb6;" glyph-name="paragraph" horiz-adv-x="576" d="M302 732H678L661 628H609L509 0H408L508 630H441L299 -270H197L299 372Q297 372 291 369T279 363Q261 355 231 355T171 369Q107 401 107 485Q107 498 109 511L123 604Q134 679 186 707Q232
732 302 732ZM212 511Q211 502 211 494T213 477T225 464Q238 457 262 457H311L340 632H291Q255 632 241 619T222 572L212 511Z" />
<glyph unicode="&#xb7;" glyph-name="middot" horiz-adv-x="262" d="M160 455H246Q268 455 268 437Q268 434 267 430L252 340Q249 317 224 317H138Q128 317 122 323T117 340L132 430Q135 455 160 455Z" />
<glyph unicode="&#xb8;" glyph-name="cedilla" horiz-adv-x="243" d="M66 -178H10L20 -118L66 -103Q93 -93 100 -69Q103 -59 106 -37H201Q193 -90 178 -120Q149 -178 66 -178Z" />
<glyph unicode="&#xb9;" glyph-name="onesuperior" horiz-adv-x="279" d="M110 704L121 778Q146 778 186 799T241 838H347L270 355H162L222 727Q193 704 110 704Z" />
<glyph unicode="&#xba;" glyph-name="ordmasculine" horiz-adv-x="385" d="M77 264L88 333H410L399 264H77ZM432 690Q456 660 456 602Q456 574 449 532T430 459T394 408T338 381T255 373Q166 373 132 418Q109 449 109 504Q109 529 113 558Q130 662 172 698Q214
735 306 735T432 690ZM254 642Q228 631 217 560Q211 525 211 508T214 482T225 467Q239 460 264 460T299 461T320 472Q338 486 346 538T355 606T349 633T331 645Q320 648 294 648T254 642Z" />
<glyph unicode="&#xbb;" glyph-name="guillemotright" horiz-adv-x="576" d="M73 224L232 363L121 489L202 557L377 352L141 146L73 224ZM290 224L449 363L338 489L418 557L594 352L358 146L290 224Z" />
<glyph unicode="&#xbc;" glyph-name="onequarter" horiz-adv-x="967" d="M110 604L121 678Q146 678 186 699T241 738H347L270 255H162L222 627Q193 604 110 604ZM192 0L725 770H830L297 0H192ZM561 144L786 481H904L721 200H830L846 303L879 352H959L935 200H984L970
115L917 98L904 1H799L814 97H583L561 144Z" />
<glyph unicode="&#xbd;" glyph-name="onehalf" horiz-adv-x="1014" d="M110 604L121 678Q146 678 186 699T241 738H347L270 255H162L222 627Q193 604 110 604ZM186 0L719 770H824L291 0H186ZM928 331Q929 340 929 353Q929 388 861 388H702Q701 388 711 449L715
469Q825 488 913 488Q949 488 976 474Q1026 448 1038 387Q1041 372 1041 359T1038 327T1021 279T993 230T953 186T915 150T877 120T850 99H1001L985 -1H644L659 95Q916 257 928 331Z" />
<glyph unicode="&#xbe;" glyph-name="threequarters" horiz-adv-x="1079" d="M271 251H241Q147 251 117 257T69 271L82 350L242 351Q289 351 301 363T317 392L319 405Q324 437 295 445Q283 449 261 449L139 454L152 541L278 546Q323 548 335 560T349 587L351 599Q352
605 352 614Q352 640 292 640H123L136 719Q195 739 299 739Q324 739 353 739Q409 738 436 706T463 635Q463 624 461 612L456 582Q443 505 386 493Q428 477 428 416Q428 403 426 390L422 366Q403 251 272 251Q271 251 271 251ZM292 0L825 770H930L397 0H292ZM650
144L876 481H993L809 200H919L935 303L967 352H1048L1024 200H1072L1059 115L1006 98L993 1H887L903 97H671L650 144Z" />
<glyph unicode="&#xbf;" glyph-name="questiondown" horiz-adv-x="540" d="M285 186L300 276H413L382 81Q344 81 316 81T268 81Q181 77 168 -1L160 -55Q158 -66 158 -79T165 -108Q180 -140 256 -140H505L489 -243Q350 -270 255 -270Q230 -270 202 -268Q150 -268
111 -250Q39 -216 20 -134Q15 -113 15 -95T18 -60L29 13Q46 117 107 156Q157 188 241 188Q262 188 285 186ZM346 471H433Q443 471 449 465T453 448L439 358Q436 333 411 333H324Q304 333 304 351Q304 354 304 358L318 448Q322 471 346 471Z" />
<glyph unicode="&#xc0;" glyph-name="Agrave" horiz-adv-x="688" d="M336 936H455L532 797H441L336 936ZM34 0L397 732H556L678 0H535L506 162H269L189 0H34ZM325 286H492L451 552L325 286Z" />
<glyph unicode="&#xc1;" glyph-name="Aacute" horiz-adv-x="688" d="M441 797L554 936H676L532 797H441ZM34 0L397 732H556L678 0H535L506 162H269L189 0H34ZM325 286H492L451 552L325 286Z" />
<glyph unicode="&#xc2;" glyph-name="Acircumflex" horiz-adv-x="688" d="M333 797L462 932H566L641 797H551L508 862L436 797H333ZM34 0L397 732H556L678 0H535L506 162H269L189 0H34ZM325 286H492L451 552L325 286Z" />
<glyph unicode="&#xc3;" glyph-name="Atilde" horiz-adv-x="688" d="M556 887Q558 887 569 887T611 899T656 925L670 865Q647 844 633 833T593 809T557 797T535 798Q521 798 488 815T440 832Q404 832 372 815Q362 810 340 797L324 852Q399 922 456 922Q481 921
510 904T556 887ZM34 0L397 732H556L678 0H535L506 162H269L189 0H34ZM325 286H492L451 552L325 286Z" />
<glyph unicode="&#xc4;" glyph-name="Adieresis" horiz-adv-x="688" d="M355 914T379 914T416 899T429 873Q429 836 407 817T364 797T332 805Q305 822 309 851T334 897ZM610 914T634 914T671 899T684 873Q684 836 662 817T619 797T587 805Q560 822 564 851T589
897ZM34 0L397 732H556L678 0H535L506 162H269L189 0H34ZM325 286H492L451 552L325 286Z" />
<glyph unicode="&#xc5;" glyph-name="Aring" horiz-adv-x="688" d="M470 932T446 919T404 881T387 821Q387 785 413 758T482 730T557 761T591 841Q591 877 565 904T505 932ZM475 874T493 874T521 863T532 833T517 801Q504 789 486 789T457 800T446 829T460 860ZM34
0L397 732H556L678 0H535L506 162H269L189 0H34ZM325 286H492L451 552L325 286Z" />
<glyph unicode="&#xc6;" glyph-name="AE" horiz-adv-x="1016" d="M735 600Q699 600 688 582Q680 568 676 545L657 428L940 417L923 302L635 293L617 180Q612 142 631 134Q646 128 672 128H940L922 13Q870 6 682 -1L619 -4Q613 -4 599 -4T561 0Q496 13 475 59Q466
77 466 94T468 123L479 195H308L179 0H23L397 575Q456 665 523 699Q590 732 655 732Q688 732 829 729T1033 716L1015 600H735ZM386 319H499L538 553L386 319Z" />
<glyph unicode="&#xc7;" glyph-name="Ccedilla" horiz-adv-x="571" d="M407 740Q543 740 657 704L640 595Q515 611 429 611Q425 611 423 611T411 611T394 611T372 608T349 602T328 589T307 569T289 538T271 495Q252 438 241 371T230 259T240 185Q262 126 341 123Q352
123 398 123T568 132L551 22Q498 4 444 -1T349 -6T291 -6Q223 -5 178 26T113 111Q89 179 89 251T99 384T122 493T152 581T193 650T247 700Q308 740 407 740ZM232 -178H176L186 -118L232 -103Q253 -96 260 -82T273 -36H367Q355 -113 326 -145Q297 -178 232 -178Z"
/>
<glyph unicode="&#xc8;" glyph-name="Egrave" horiz-adv-x="560" d="M275 930H394L471 792H380L275 930ZM217 706Q243 721 268 726T311 732T452 729T640 716L622 600H343Q295 600 286 561Q284 554 283 544L265 432L548 422L529 307L244 297L225 181Q220 149 232
140Q236 137 238 135T245 132T253 130T262 129Q270 129 279 129H548L529 14Q474 7 250 -2L224 -3Q220 -3 206 -3T167 3Q77 25 77 117Q77 133 79 150L148 586Q162 674 217 706Z" />
<glyph unicode="&#xc9;" glyph-name="Eacute" horiz-adv-x="560" d="M382 792L494 930H617L472 792H382ZM217 706Q243 721 268 726T311 732T452 729T640 716L622 600H343Q295 600 286 561Q284 554 283 544L265 432L548 422L529 307L244 297L225 181Q220 149 232
140Q236 137 238 135T245 132T253 130T262 129Q270 129 279 129H548L529 14Q474 7 250 -2L224 -3Q220 -3 206 -3T167 3Q77 25 77 117Q77 133 79 150L148 586Q162 674 217 706Z" />
<glyph unicode="&#xca;" glyph-name="Ecircumflex" horiz-adv-x="560" d="M275 792L404 928H508L584 792H492L451 856L386 792H275ZM217 706Q243 721 268 726T311 732T452 729T640 716L622 600H343Q295 600 286 561Q284 554 283 544L265 432L548 422L529 307L244
297L225 181Q220 149 232 140Q236 137 238 135T245 132T253 130T262 129Q270 129 279 129H548L529 14Q474 7 250 -2L224 -3Q220 -3 206 -3T167 3Q77 25 77 117Q77 133 79 150L148 586Q162 674 217 706Z" />
<glyph unicode="&#xcb;" glyph-name="Edieresis" horiz-adv-x="560" d="M285 901T309 901T347 886T360 859Q360 823 338 804T291 784T254 799T241 826Q241 863 263 882ZM540 901T564 901T602 886T615 859Q615 823 593 804T546 784T509 799T496 826Q496 863 518
882ZM217 706Q243 721 268 726T311 732T452 729T640 716L622 600H343Q295 600 286 561Q284 554 283 544L265 432L548 422L529 307L244 297L225 181Q220 149 232 140Q236 137 238 135T245 132T253 130T262 129Q270 129 279 129H548L529 14Q474 7 250 -2L224 -3Q220
-3 206 -3T167 3Q77 25 77 117Q77 133 79 150L148 586Q162 674 217 706Z" />
<glyph unicode="&#xcc;" glyph-name="Igrave" horiz-adv-x="256" d="M111 936H230L307 797H216L111 936ZM65 0L181 732H321L205 0H65Z" />
<glyph unicode="&#xcd;" glyph-name="Iacute" horiz-adv-x="256" d="M216 797L329 936H451L307 797H216ZM65 0L181 732H321L205 0H65Z" />
<glyph unicode="&#xce;" glyph-name="Icircumflex" horiz-adv-x="256" d="M107 797L236 932H340L416 797H325L283 862L210 797H107ZM65 0L181 732H321L205 0H65Z" />
<glyph unicode="&#xcf;" glyph-name="Idieresis" horiz-adv-x="256" d="M129 914T153 914T190 899T203 873Q203 836 181 817T139 797T106 805Q80 822 84 851T109 897ZM384 914T408 914T445 899T458 873Q458 836 436 817T394 797T361 805Q335 822 339 851T364 897ZM65
0L181 732H321L205 0H65Z" />
<glyph unicode="&#xd0;" glyph-name="Eth" horiz-adv-x="652" d="M477 732Q580 732 628 669Q675 607 681 521Q683 494 683 473Q683 410 673 346Q643 166 573 83T372 0H60L114 340H49L60 406H125L176 732Q176 732 477 732ZM532 364Q544 429 544 462Q544 557 512
587Q489 608 446 608H297L265 406H376L366 340H254L220 125H370Q494 125 532 364Z" />
<glyph unicode="&#xd1;" glyph-name="Ntilde" horiz-adv-x="669" d="M534 885Q536 885 547 885T589 897T634 922L648 863Q625 842 611 831T571 807T535 795Q498 795 467 812T417 830T380 824Q356 817 318 795L302 850Q377 920 434 920Q459 919 488 902T534 885ZM61
0L177 732H317L525 256L600 732H740L624 0H486L276 470L202 0H61Z" />
<glyph unicode="&#xd2;" glyph-name="Ograve" horiz-adv-x="666" d="M311 936H430L507 797H416L311 936ZM374 735T397 736T456 737T523 733T584 719T636 690Q684 649 697 572Q704 537 704 510T703 450T692 349T666 226T632 136T589 74T540 33T481 9Q426 -4 365
-4T274 -1T212 13T160 40Q111 80 98 154Q91 189 91 215T91 273T102 368T124 477T149 559T180 621T214 667T254 699T298 719T346 731ZM232 231Q232 172 257 150Q288 125 360 125Q427 125 466 151Q524 191 551 361Q563 435 563 479T557 548T533 586T494 604T442 608T394
607T358 600T327 585T301 556Q279 527 256 428T232 231Z" />
<glyph unicode="&#xd3;" glyph-name="Oacute" horiz-adv-x="666" d="M416 797L529 936H652L507 797H416ZM374 735T397 736T456 737T523 733T584 719T636 690Q684 649 697 572Q704 537 704 510T703 450T692 349T666 226T632 136T589 74T540 33T481 9Q426 -4 365
-4T274 -1T212 13T160 40Q111 80 98 154Q91 189 91 215T91 273T102 368T124 477T149 559T180 621T214 667T254 699T298 719T346 731ZM232 231Q232 172 257 150Q288 125 360 125Q427 125 466 151Q524 191 551 361Q563 435 563 479T557 548T533 586T494 604T442 608T394
607T358 600T327 585T301 556Q279 527 256 428T232 231Z" />
<glyph unicode="&#xd4;" glyph-name="Ocircumflex" horiz-adv-x="666" d="M308 797L437 932H541L616 797H526L484 862L411 797H308ZM374 735T397 736T456 737T523 733T584 719T636 690Q684 649 697 572Q704 537 704 510T703 450T692 349T666 226T632 136T589 74T540
33T481 9Q426 -4 365 -4T274 -1T212 13T160 40Q111 80 98 154Q91 189 91 215T91 273T102 368T124 477T149 559T180 621T214 667T254 699T298 719T346 731ZM232 231Q232 172 257 150Q288 125 360 125Q427 125 466 151Q524 191 551 361Q563 435 563 479T557 548T533
586T494 604T442 608T394 607T358 600T327 585T301 556Q279 527 256 428T232 231Z" />
<glyph unicode="&#xd5;" glyph-name="Otilde" horiz-adv-x="666" d="M530 887Q532 887 543 887T585 899T630 925L645 865Q621 844 607 833T568 809T532 797T512 797T489 803T463 815Q436 832 415 832T376 826Q353 819 314 797L299 852Q373 922 430 922Q455 921
484 904T530 887ZM374 735T397 736T456 737T523 733T584 719T636 690Q684 649 697 572Q704 537 704 510T703 450T692 349T666 226T632 136T589 74T540 33T481 9Q426 -4 365 -4T274 -1T212 13T160 40Q111 80 98 154Q91 189 91 215T91 273T102 368T124 477T149 559T180
621T214 667T254 699T298 719T346 731ZM232 231Q232 172 257 150Q288 125 360 125Q427 125 466 151Q524 191 551 361Q563 435 563 479T557 548T533 586T494 604T442 608T394 607T358 600T327 585T301 556Q279 527 256 428T232 231Z" />
<glyph unicode="&#xd6;" glyph-name="Odieresis" horiz-adv-x="666" d="M330 914T354 914T391 899T404 873Q404 836 382 817T336 797T298 812T285 840Q285 877 307 895ZM585 914T609 914T646 899T659 873Q659 836 637 817T591 797T553 812T540 840Q540 877 562
895ZM374 735T397 736T456 737T523 733T584 719T636 690Q684 649 697 572Q704 537 704 510T703 450T692 349T666 226T632 136T589 74T540 33T481 9Q426 -4 365 -4T274 -1T212 13T160 40Q111 80 98 154Q91 189 91 215T91 273T102 368T124 477T149 559T180 621T214
667T254 699T298 719T346 731ZM232 231Q232 172 257 150Q288 125 360 125Q427 125 466 151Q524 191 551 361Q563 435 563 479T557 548T533 586T494 604T442 608T394 607T358 600T327 585T301 556Q279 527 256 428T232 231Z" />
<glyph unicode="&#xd7;" glyph-name="multiply" horiz-adv-x="461" d="M82 251L203 356L115 461L206 541L294 436L423 546L493 462L364 350L452 245L362 170L276 272L154 164L82 251Z" />
<glyph unicode="&#xd8;" glyph-name="Oslash" horiz-adv-x="666" d="M116 86Q89 138 89 217T99 365T122 480T147 561T178 623T212 668T252 700T296 720T344 731Q388 737 451 737Q577 737 630 698L659 732H734L670 656Q703 601 703 496Q703 430 691 353T664 224T630
134T587 72T538 32T479 9Q425 -4 350 -4T229 5T151 40L117 0H43L116 86ZM267 485T258 448T241 357T232 272T235 226L534 586Q509 608 435 608Q352 608 324 584Q292 556 280 521ZM358 125Q403 125 431 134T483 169Q527 216 550 361Q560 432 560 469T557 525L251
157Q276 125 358 125Z" />
<glyph unicode="&#xd9;" glyph-name="Ugrave" horiz-adv-x="653" d="M309 936H428L505 797H414L309 936ZM249 312Q241 266 241 227T253 165Q275 124 353 124T466 167T517 312L584 732H725L661 295Q642 175 598 110Q554 44 489 19Q425 -5 335 -5Q224 -5 170 37Q101
91 101 222Q101 270 110 328L175 732H315L249 312Z" />
<glyph unicode="&#xda;" glyph-name="Uacute" horiz-adv-x="653" d="M414 797L527 936H649L505 797H414ZM249 312Q241 266 241 227T253 165Q275 124 353 124T466 167T517 312L584 732H725L661 295Q642 175 598 110Q554 44 489 19Q425 -5 335 -5Q224 -5 170 37Q101
91 101 222Q101 270 110 328L175 732H315L249 312Z" />
<glyph unicode="&#xdb;" glyph-name="Ucircumflex" horiz-adv-x="653" d="M306 797L435 932H539L614 797H524L481 862L409 797H306ZM249 312Q241 266 241 227T253 165Q275 124 353 124T466 167T517 312L584 732H725L661 295Q642 175 598 110Q554 44 489 19Q425
-5 335 -5Q224 -5 170 37Q101 91 101 222Q101 270 110 328L175 732H315L249 312Z" />
<glyph unicode="&#xdc;" glyph-name="Udieresis" horiz-adv-x="653" d="M328 914T352 914T389 899T402 873Q402 836 380 817T333 797T296 812T283 840Q283 877 305 895ZM583 914T607 914T644 899T657 873Q657 836 635 817T588 797T551 812T538 840Q538 877 560
895ZM249 312Q241 266 241 227T253 165Q275 124 353 124T466 167T517 312L584 732H725L661 295Q642 175 598 110Q554 44 489 19Q425 -5 335 -5Q224 -5 170 37Q101 91 101 222Q101 270 110 328L175 732H315L249 312Z" />
<glyph unicode="&#xdd;" glyph-name="Yacute" horiz-adv-x="656" d="M406 797L519 936H641L497 797H406ZM139 732H290L374 382L583 732H743L422 227L386 0H246L282 227L139 732Z" />
<glyph unicode="&#xde;" glyph-name="Thorn" horiz-adv-x="545" d="M46 0Q46 0 161 729H301L279 588H426Q474 588 514 562Q556 535 570 460Q573 443 573 420T568 364T555 300T535 247T511 209T483 183T453 167T421 157Q386 151 323 151T213 171L186 0H46ZM333
275Q356 275 369 278T395 291Q416 308 427 374Q430 387 430 394T429 411T426 430T418 446T407 456T393 461Q380 464 362 464H259L229 275H333Z" />
<glyph unicode="&#xdf;" glyph-name="germandbls" horiz-adv-x="572" d="M411 781Q478 781 526 763T597 715Q630 672 630 617Q630 561 593 498Q572 463 552 445T508 411T471 383T455 352T462 322T488 302T523 283T557 258Q586 235 586 191Q586 181 584 170L579
139Q557 -8 388 -8Q325 -8 242 11L258 110Q346 105 371 105T416 118T441 161L445 181Q449 211 413 228Q375 245 353 261Q318 287 318 330Q318 403 369 448Q389 466 429 491Q486 531 486 596Q486 628 470 638Q445 654 393 654T311 624T267 516L186 0H46L136 566Q150
658 212 717Q279 781 411 781Z" />
<glyph unicode="&#xe0;" glyph-name="agrave" d="M202 740H321L398 602H307L202 740ZM244 531T268 535T316 540T373 542T474 528T576 479L506 1H398L377 56Q349 21 280 3Q247 -6 212 -6T145 10T92 63Q66 107 66 169T77 296T110 406T155 476T211 516ZM427 419Q392
431 364 431T318 428T287 418T259 397Q228 368 213 271Q206 230 206 202T211 154Q223 113 265 113T335 125T389 163L427 419Z" />
<glyph unicode="&#xe1;" glyph-name="aacute" d="M312 602L424 740H547L403 602H312ZM244 531T268 535T316 540T373 542T474 528T576 479L506 1H398L377 56Q349 21 280 3Q247 -6 212 -6T145 10T92 63Q66 107 66 169T77 296T110 406T155 476T211 516ZM427 419Q392
431 364 431T318 428T287 418T259 397Q228 368 213 271Q206 230 206 202T211 154Q223 113 265 113T335 125T389 163L427 419Z" />
<glyph unicode="&#xe2;" glyph-name="acircumflex" d="M199 602L328 737H432L507 602H417L374 667L302 602H199ZM244 531T268 535T316 540T373 542T474 528T576 479L506 1H398L377 56Q349 21 280 3Q247 -6 212 -6T145 10T92 63Q66 107 66 169T77 296T110 406T155
476T211 516ZM427 419Q392 431 364 431T318 428T287 418T259 397Q228 368 213 271Q206 230 206 202T211 154Q223 113 265 113T335 125T389 163L427 419Z" />
<glyph unicode="&#xe3;" glyph-name="atilde" d="M380 709T395 701T418 692T438 692T480 704T525 729L539 670Q516 649 501 638T462 614T426 602Q389 602 358 619T308 637T270 631Q247 624 208 602L193 657Q268 727 325 727Q344 726 362 718ZM244 531T268 535T316
540T373 542T474 528T576 479L506 1H398L377 56Q349 21 280 3Q247 -6 212 -6T145 10T92 63Q66 107 66 169T77 296T110 406T155 476T211 516ZM427 419Q392 431 364 431T318 428T287 418T259 397Q228 368 213 271Q206 230 206 202T211 154Q223 113 265 113T335 125T389
163L427 419Z" />
<glyph unicode="&#xe4;" glyph-name="adieresis" d="M180 685T200 702T240 719T272 712Q299 695 295 666T270 620T230 602T197 610Q170 627 175 656ZM435 685T455 702T495 719T527 712Q554 695 550 666T525 620T485 602T452 610Q425 627 430 656ZM244 531T268
535T316 540T373 542T474 528T576 479L506 1H398L377 56Q349 21 280 3Q247 -6 212 -6T145 10T92 63Q66 107 66 169T77 296T110 406T155 476T211 516ZM427 419Q392 431 364 431T318 428T287 418T259 397Q228 368 213 271Q206 230 206 202T211 154Q223 113 265 113T335
125T389 163L427 419Z" />
<glyph unicode="&#xe5;" glyph-name="aring" d="M340 804T382 804T449 777T475 713Q475 679 459 654Q425 602 367 602Q324 602 298 629T271 693Q271 742 305 773ZM396 746T378 746T345 733T330 701T341 672T370 660T401 673Q417 687 417 705T407 734ZM244 531T268
535T316 540T373 542T474 528T576 479L506 1H398L377 56Q349 21 280 3Q247 -6 212 -6T145 10T92 63Q66 107 66 169T77 296T110 406T155 476T211 516ZM427 419Q392 431 364 431T318 428T287 418T259 397Q228 368 213 271Q206 230 206 202T211 154Q223 113 265 113T335
125T389 163L427 419Z" />
<glyph unicode="&#xe6;" glyph-name="ae" horiz-adv-x="849" d="M611 194Q540 194 507 208Q503 185 503 163T513 127Q530 106 584 105Q598 105 613 105Q692 105 795 122L778 22Q676 -9 561 -9Q534 -9 507 -7Q421 -3 387 62Q357 29 301 11T194 -7Q109 -7 67 70Q42
116 42 176T53 290T77 382T105 444T140 487T176 514T217 530Q262 542 301 542T367 540Q440 534 491 510Q547 541 639 541Q730 541 790 511Q853 479 853 401Q853 346 832 305T783 244Q717 194 611 194ZM409 417Q367 431 339 431T294 428T265 418T236 397Q206 366
191 270Q183 226 183 199T187 153Q198 112 247 112Q282 112 315 122T363 149Q362 164 362 198T375 304T409 417ZM518 300Q542 296 562 296T593 296T626 301T664 313Q711 334 711 385Q711 407 696 418T637 429Q575 429 552 398Q544 386 540 379T530 354Q524 333
518 300Z" />
<glyph unicode="&#xe7;" glyph-name="ccedilla" horiz-adv-x="493" d="M279 -6L215 -5Q134 -5 95 66Q70 110 70 168T80 288T108 396T144 471T189 513T240 532T297 537Q441 537 536 504L523 418Q428 424 374 424T310 424T286 418T265 403T248 376Q233 346 218 263Q210
198 210 174T220 134T245 113T295 107Q370 107 454 114L482 116L468 28Q396 -6 279 -6ZM185 -179H128L138 -119L184 -104Q206 -96 213 -83T225 -38H319Q307 -115 278 -147T185 -179Z" />
<glyph unicode="&#xe8;" glyph-name="egrave" horiz-adv-x="527" d="M209 740H328L405 601H314L209 740ZM315 194Q244 194 211 208Q207 185 207 163T217 127Q234 106 288 105Q303 105 320 105Q401 105 505 122L488 22Q386 -9 268 -9Q240 -9 211 -7Q66 0 66 179Q66
232 77 292T100 388T131 454T179 503Q239 541 351 541Q557 541 557 402Q557 346 537 305T488 244Q421 194 315 194ZM222 300Q247 296 266 296T297 296T330 301T368 313Q415 334 415 385Q415 407 400 418T342 429Q279 429 257 398Q248 386 244 379T234 354Q229 333
222 300Z" />
<glyph unicode="&#xe9;" glyph-name="eacute" horiz-adv-x="527" d="M314 601L427 740H549L405 601H314ZM315 194Q244 194 211 208Q207 185 207 163T217 127Q234 106 288 105Q303 105 320 105Q401 105 505 122L488 22Q386 -9 268 -9Q240 -9 211 -7Q66 0 66 179Q66
232 77 292T100 388T131 454T179 503Q239 541 351 541Q557 541 557 402Q557 346 537 305T488 244Q421 194 315 194ZM222 300Q247 296 266 296T297 296T330 301T368 313Q415 334 415 385Q415 407 400 418T342 429Q279 429 257 398Q248 386 244 379T234 354Q229 333
222 300Z" />
<glyph unicode="&#xea;" glyph-name="ecircumflex" horiz-adv-x="527" d="M206 601L335 736H439L514 601H424L381 666L309 601H206ZM315 194Q244 194 211 208Q207 185 207 163T217 127Q234 106 288 105Q303 105 320 105Q401 105 505 122L488 22Q386 -9 268 -9Q240
-9 211 -7Q66 0 66 179Q66 232 77 292T100 388T131 454T179 503Q239 541 351 541Q557 541 557 402Q557 346 537 305T488 244Q421 194 315 194ZM222 300Q247 296 266 296T297 296T330 301T368 313Q415 334 415 385Q415 407 400 418T342 429Q279 429 257 398Q248
386 244 379T234 354Q229 333 222 300Z" />
<glyph unicode="&#xeb;" glyph-name="edieresis" horiz-adv-x="527" d="M227 718T251 718T288 703T301 677Q301 640 279 621T233 601T195 616T182 644Q182 681 204 699ZM482 718T506 718T543 703T556 677Q556 640 534 621T488 601T450 616T437 644Q437 681 459
699ZM315 194Q244 194 211 208Q207 185 207 163T217 127Q234 106 288 105Q303 105 320 105Q401 105 505 122L488 22Q386 -9 268 -9Q240 -9 211 -7Q66 0 66 179Q66 232 77 292T100 388T131 454T179 503Q239 541 351 541Q557 541 557 402Q557 346 537 305T488 244Q421
194 315 194ZM222 300Q247 296 266 296T297 296T330 301T368 313Q415 334 415 385Q415 407 400 418T342 429Q279 429 257 398Q248 386 244 379T234 354Q229 333 222 300Z" />
<glyph unicode="&#xec;" glyph-name="igrave" horiz-adv-x="226" d="M51 736H169L247 598H156L51 736ZM38 0L122 531H262L178 0H38Z" />
<glyph unicode="&#xed;" glyph-name="iacute" horiz-adv-x="226" d="M155 598L268 736H390L246 598H155ZM38 0L122 531H262L178 0H38Z" />
<glyph unicode="&#xee;" glyph-name="icircumflex" horiz-adv-x="226" d="M46 598L175 733H279L354 598H264L221 663L149 598H46ZM38 0L122 531H262L178 0H38Z" />
<glyph unicode="&#xef;" glyph-name="idieresis" horiz-adv-x="226" d="M44 700T59 707T94 715T127 700T140 673Q140 637 118 618T71 598T34 613T21 640T22 662T34 686ZM310 706T321 710T351 715T382 700T395 673Q395 637 373 618T326 598T289 613T276 640T277
660T284 679T300 698ZM38 0L122 531H262L178 0H38Z" />
<glyph unicode="&#xf0;" glyph-name="eth" horiz-adv-x="539" d="M214 0Q63 0 63 181Q63 224 70 274Q92 409 145 470T298 531H355Q414 531 429 521Q421 582 387 618L265 565L246 622L323 655Q287 669 223 669Q212 669 200 668L218 783Q383 783 465 723L563 766L584
708L511 677Q568 599 568 443Q568 356 548 233T473 55T323 0H214ZM210 261Q202 222 202 204Q202 152 216 141T255 130Q256 130 257 130H321Q321 130 334 130T361 138Q393 156 410 261Q419 315 419 340T416 375Q407 402 363 402H303Q264 402 244 374T210 261Z" />
<glyph unicode="&#xf1;" glyph-name="ntilde" horiz-adv-x="550" d="M441 690Q443 690 454 690T496 702T541 728L556 668Q532 647 518 636T479 612T442 600Q406 600 375 617T325 635T287 629Q264 622 225 600L210 655Q284 725 341 725Q366 724 395 707T441 690ZM440
540Q574 540 574 408Q574 383 569 354L513 0H373L429 356Q431 367 431 377Q431 428 382 428Q322 428 273 398Q261 391 246 382L186 0H46L130 531H242L261 474Q297 498 314 507T366 528T440 540Z" />
<glyph unicode="&#xf2;" glyph-name="ograve" horiz-adv-x="557" d="M215 736H334L411 598H320L215 736ZM362 538Q494 538 540 467Q570 421 570 340Q570 297 560 233T531 122T479 46T400 6T283 -5Q149 -5 102 61Q70 106 70 186Q70 225 80 289T110 405T166 486T246
527T362 538ZM245 377T236 346T219 264T210 187T214 146T230 121Q250 107 289 107T345 111T379 130T404 175T422 259Q432 319 432 348T423 395T397 419T346 425T294 420T260 396Z" />
<glyph unicode="&#xf3;" glyph-name="oacute" horiz-adv-x="557" d="M324 598L436 736H559L415 598H324ZM362 538Q494 538 540 467Q570 421 570 340Q570 297 560 233T531 122T479 46T400 6T283 -5Q149 -5 102 61Q70 106 70 186Q70 225 80 289T110 405T166 486T246
527T362 538ZM245 377T236 346T219 264T210 187T214 146T230 121Q250 107 289 107T345 111T379 130T404 175T422 259Q432 319 432 348T423 395T397 419T346 425T294 420T260 396Z" />
<glyph unicode="&#xf4;" glyph-name="ocircumflex" horiz-adv-x="557" d="M210 598L339 733H443L518 598H428L385 663L313 598H210ZM362 538Q494 538 540 467Q570 421 570 340Q570 297 560 233T531 122T479 46T400 6T283 -5Q149 -5 102 61Q70 106 70 186Q70 225
80 289T110 405T166 486T246 527T362 538ZM245 377T236 346T219 264T210 187T214 146T230 121Q250 107 289 107T345 111T379 130T404 175T422 259Q432 319 432 348T423 395T397 419T346 425T294 420T260 396Z" />
<glyph unicode="&#xf5;" glyph-name="otilde" horiz-adv-x="557" d="M390 705T405 697T429 688T448 688T490 700T535 725L549 666Q526 645 512 634T472 610T436 598Q399 598 368 615T318 633T280 627Q257 620 219 598L203 653Q278 722 335 722Q355 722 372 714ZM362
538Q494 538 540 467Q570 421 570 340Q570 297 560 233T531 122T479 46T400 6T283 -5Q149 -5 102 61Q70 106 70 186Q70 225 80 289T110 405T166 486T246 527T362 538ZM245 377T236 346T219 264T210 187T214 146T230 121Q250 107 289 107T345 111T379 130T404 175T422
259Q432 319 432 348T423 395T397 419T346 425T294 420T260 396Z" />
<glyph unicode="&#xf6;" glyph-name="odieresis" horiz-adv-x="557" d="M235 715T259 715T297 700T310 673Q310 637 288 618T241 598T204 613T190 640Q190 677 212 696ZM490 715T514 715T552 700T565 673Q565 637 543 618T496 598T459 613T445 640Q445 677 467
696ZM292 538T362 538Q494 538 540 467Q570 421 570 340Q570 297 560 233T531 122T479 46T400 6T283 -5Q149 -5 102 61Q70 106 70 186Q70 225 80 289T110 405T166 486T246 527ZM245 377T236 346T219 264T210 187T214 146T230 121Q250 107 289 107T345 111T379 130T404
175T422 259Q432 319 432 348T423 395T397 419T346 425T294 420T260 396Z" />
<glyph unicode="&#xf7;" glyph-name="divide" horiz-adv-x="497" d="M84 294L103 412H525L506 294H84ZM249 246H323Q343 246 343 228Q343 225 343 222L332 155Q328 132 304 132H231Q220 132 214 138T210 155L221 222Q224 246 249 246ZM275 570T300 570H374Q394
570 394 552Q394 548 394 545L383 478Q380 455 355 455H282Q271 455 266 461T262 478L272 545Q275 570 300 570Z" />
<glyph unicode="&#xf8;" glyph-name="oslash" horiz-adv-x="559" d="M93 69Q71 108 71 163T81 285T112 404T167 484T247 525T376 536T509 505L534 531H611L547 465Q573 422 573 362T562 236T533 122T481 46T401 6T284 -5Q181 -5 130 29L102 0H27L93 69ZM413 406Q397
424 350 424T282 413T246 367T223 284T215 220T218 196L413 406ZM227 128Q242 108 286 108T347 111T380 130T405 175T421 247T428 309T425 340L227 128Z" />
<glyph unicode="&#xf9;" glyph-name="ugrave" horiz-adv-x="549" d="M215 736H334L411 598H320L215 736ZM206 175Q203 162 203 146T213 117T252 104T303 109Q342 117 389 150L449 531H589L504 0H392L374 56Q325 23 288 7T195 -9Q61 -9 61 123Q61 148 66 178L122
531H262L206 175Z" />
<glyph unicode="&#xfa;" glyph-name="uacute" horiz-adv-x="549" d="M320 598L433 736H555L411 598H320ZM206 175Q203 162 203 146T213 117T252 104T303 109Q342 117 389 150L449 531H589L504 0H392L374 56Q325 23 288 7T195 -9Q61 -9 61 123Q61 148 66 178L122
531H262L206 175Z" />
<glyph unicode="&#xfb;" glyph-name="ucircumflex" horiz-adv-x="549" d="M212 598L341 733H445L520 598H430L387 663L315 598H212ZM206 175Q203 162 203 146T213 117T252 104T303 109Q342 117 389 150L449 531H589L504 0H392L374 56Q325 23 288 7T195 -9Q61 -9
61 123Q61 148 66 178L122 531H262L206 175Z" />
<glyph unicode="&#xfc;" glyph-name="udieresis" horiz-adv-x="549" d="M233 715T257 715T294 700T307 673Q307 637 285 618T239 598T201 613T188 640Q188 677 210 696ZM488 715T512 715T549 700T562 673Q562 637 540 618T494 598T456 613T443 640Q443 677 465
696ZM206 175Q203 162 203 146T213 117T252 104T303 109Q342 117 389 150L449 531H589L504 0H392L374 56Q325 23 288 7T195 -9Q61 -9 61 123Q61 148 66 178L122 531H262L206 175Z" />
<glyph unicode="&#xfd;" glyph-name="yacute" horiz-adv-x="563" d="M314 594L427 732H549L405 594H314ZM607 491Q607 437 579 375L408 0Q326 -180 208 -247Q153 -277 92 -288V-190Q153 -157 192 -110T264 0Q206 0 170 33T126 135L84 531H229L262 159Q266 123
313 120L448 421Q466 464 473 532H603Q607 512 607 491Z" />
<glyph unicode="&#xfe;" glyph-name="thorn" horiz-adv-x="554" d="M301 497T348 515T445 534T530 496Q575 446 575 340Q575 298 568 251T553 170T528 99T490 39Q439 -13 351 -13Q314 -13 271 -4T197 24L150 -270H10L177 782H317L268 473Q301 497 348 515ZM433
329Q433 415 385 415Q318 415 253 380L212 116Q252 100 329 97Q385 97 410 176Q420 210 426 255T433 329Z" />
<glyph unicode="&#xff;" glyph-name="ydieresis" horiz-adv-x="563" d="M228 700T252 700T290 685T303 658Q303 622 281 603T238 583T206 591Q179 608 183 637T208 683ZM483 700T507 700T545 685T558 658Q558 622 536 603T489 583T452 598T439 625Q439 662 461
681ZM607 491Q607 437 579 375L408 0Q326 -180 208 -247Q153 -277 92 -288V-190Q153 -157 192 -110T264 0Q206 0 170 33T126 135L84 531H229L262 159Q266 123 313 120L448 421Q466 464 473 532H603Q607 512 607 491Z" />
<glyph unicode="&#x2013;" glyph-name="endash" horiz-adv-x="453" d="M59 228L79 347H552L532 228H59Z" />
<glyph unicode="&#x2014;" glyph-name="emdash" horiz-adv-x="736" d="M61 230L80 349H776L757 230H61Z" />
<glyph unicode="&#x2018;" glyph-name="quoteleft" horiz-adv-x="258" d="M202 721T223 728T259 737T282 739T297 738L310 736L301 680Q301 680 300 680Q269 680 263 648L260 627H272Q283 627 289 621T294 601L280 512Q275 483 248 483H162Q141 483 141 504Q141
507 142 512L163 644Q168 678 185 699Z" />
<glyph unicode="&#x2019;" glyph-name="quoteright" horiz-adv-x="258" d="M181 595Q170 595 164 601T159 621L174 710Q178 739 204 739H290Q312 739 312 718Q312 715 311 710L290 578Q284 544 267 523T230 494Q199 483 181 483T156 484L143 486L152 542Q166 542
175 548T186 560T189 574L193 595H181Z" />
<glyph unicode="&#x201a;" glyph-name="quotesinglbase" horiz-adv-x="258" d="M87 0Q75 0 69 6T65 26L79 115Q84 144 110 144H196Q217 144 217 123Q217 119 217 115L195 -17Q190 -51 173 -72T135 -101Q104 -112 86 -112T62 -111L49 -109L57 -54Q72 -54 80 -47T91
-35T95 -21L98 0H87Z" />
<glyph unicode="&#x201c;" glyph-name="quotedblleft" horiz-adv-x="423" d="M197 720T217 727T253 736T276 738T291 737L304 734L296 679Q295 679 295 679Q264 679 258 647L255 626H266Q278 626 284 620T288 600L274 511Q270 482 243 482H157Q136 482 136 503Q136
506 137 511L157 643Q163 677 180 698ZM374 720T394 727T430 736T453 738T468 737L481 734L473 679Q472 679 472 679Q441 679 435 647L432 626H443Q455 626 461 620T465 600L451 511Q447 482 420 482H334Q313 482 313 503Q313 506 314 511L334 643Q340 677 357
698Z" />
<glyph unicode="&#x201d;" glyph-name="quotedblright" horiz-adv-x="424" d="M175 594Q164 594 158 600T154 620L168 709Q172 738 198 738H285Q306 738 306 717Q306 713 305 709L284 577Q279 543 262 522T224 493Q193 482 175 482T151 483L137 485L146 541Q160
541 169 547T180 559T183 573L187 594H175ZM352 594Q341 594 335 600T331 620L345 709Q349 738 375 738H462Q483 738 483 717Q483 713 482 709L461 577Q456 543 439 522T401 493Q370 482 352 482T328 483L314 485L323 541Q337 541 346 547T357 559T360 573L364
594H352Z" />
<glyph unicode="&#x201e;" glyph-name="quotedblbase" horiz-adv-x="423" d="M81 0Q69 0 63 7T59 26L73 116Q78 144 104 144H190Q212 144 212 123Q212 120 211 116L189 -17Q184 -50 167 -72T129 -101Q98 -112 80 -112T56 -111L43 -109L52 -53Q66 -53 74 -47T85
-35T89 -20L92 0H81ZM258 0Q246 0 240 7T236 26L250 116Q255 144 281 144H367Q389 144 389 123Q389 120 388 116L366 -17Q361 -50 344 -72T306 -101Q275 -112 257 -112T233 -111L220 -109L229 -53Q243 -53 251 -47T262 -35T266 -20L269 0H258Z" />
<glyph unicode="&#x2022;" glyph-name="bullet" horiz-adv-x="307" d="M142 290Q115 290 115 315Q115 318 115 322L133 440Q136 456 146 465T172 475H285Q314 475 314 448Q314 445 314 440L296 322Q291 290 255 290H142Z" />
<glyph unicode="&#x2039;" glyph-name="guilsinglleft" horiz-adv-x="288" d="M20 354L258 557L324 480L171 351L282 221L198 146L20 354Z" />
<glyph unicode="&#x203a;" glyph-name="guilsinglright" horiz-adv-x="358" d="M94 224L247 355L137 484L223 557L398 352L158 146L94 224Z" />
</font>
</defs>
</svg>
