<?xml version="1.0" encoding="UTF-8" standalone="no"?>
<!DOCTYPE svg PUBLIC "-//W3C//DTD SVG 1.1//EN"
 "http://www.w3.org/Graphics/SVG/1.1/DTD/svg11.dtd">
<!-- Generated by graphviz version 2.40.1 (20161225.0304)
 -->
<!-- Title: dependencies Pages: 1 -->
<svg width="712pt" height="284pt"
 viewBox="0.00 0.00 712.00 284.00" xmlns="http://www.w3.org/2000/svg" xmlns:xlink="http://www.w3.org/1999/xlink">
<g id="graph0" class="graph" transform="scale(1 1) rotate(0) translate(4 280)">
<title>dependencies</title>
<polygon fill="#ffffff" stroke="transparent" points="-4,4 -4,-280 708,-280 708,4 -4,4"/>
<text text-anchor="start" x="331.0091" y="-42.4" font-family="sans-serif" font-weight="bold" font-size="14.00" fill="#000000">Legend</text>
<polygon fill="#ffffb3" stroke="transparent" points="118,-10 118,-30 138,-30 138,-10 118,-10"/>
<text text-anchor="start" x="141.629" y="-15.4" font-family="sans-serif" font-size="14.00" fill="#000000"> &#160;Declarations</text>
<polygon fill="#8dd3c7" stroke="transparent" points="231,-10 231,-30 251,-30 251,-10 231,-10"/>
<text text-anchor="start" x="254.7251" y="-15.4" font-family="sans-serif" font-size="14.00" fill="#000000"> &#160;Module</text>
<polygon fill="#80b1d3" stroke="transparent" points="317,-10 317,-30 337,-30 337,-10 317,-10"/>
<text text-anchor="start" x="340.7812" y="-15.4" font-family="sans-serif" font-size="14.00" fill="#000000"> &#160;Bootstrap</text>
<polygon fill="#fdb462" stroke="transparent" points="414,-10 414,-30 434,-30 434,-10 414,-10"/>
<text text-anchor="start" x="437.6732" y="-15.4" font-family="sans-serif" font-size="14.00" fill="#000000"> &#160;Providers</text>
<polygon fill="#fb8072" stroke="transparent" points="510,-10 510,-30 530,-30 530,-10 510,-10"/>
<text text-anchor="start" x="533.7258" y="-15.4" font-family="sans-serif" font-size="14.00" fill="#000000"> &#160;Exports</text>
<g id="clust1" class="cluster">
<title>cluster_InformacionContactoModule</title>
<polygon fill="none" stroke="#000000" stroke-dasharray="1,5" points="8,-70 8,-268 696,-268 696,-70 8,-70"/>
</g>
<g id="clust3" class="cluster">
<title>cluster_InformacionContactoModule_imports</title>
<polygon fill="none" stroke="#000000" points="216,-78 216,-130 688,-130 688,-78 216,-78"/>
</g>
<g id="clust4" class="cluster">
<title>cluster_InformacionContactoModule_exports</title>
<polygon fill="none" stroke="#000000" points="92,-208 92,-260 593,-260 593,-208 92,-208"/>
</g>
<g id="clust6" class="cluster">
<title>cluster_InformacionContactoModule_providers</title>
<polygon fill="none" stroke="#000000" points="16,-78 16,-130 208,-130 208,-78 16,-78"/>
</g>
<!-- ThemeModule -->
<g id="node1" class="node">
<title>ThemeModule</title>
<polygon fill="#8dd3c7" stroke="#000000" points="680.4231,-122 677.4231,-126 656.4231,-126 653.4231,-122 581.5769,-122 581.5769,-86 680.4231,-86 680.4231,-122"/>
<text text-anchor="middle" x="631" y="-99.8" font-family="Times,serif" font-size="14.00" fill="#000000">ThemeModule</text>
</g>
<!-- InformacionContactoModule -->
<g id="node4" class="node">
<title>InformacionContactoModule</title>
<polygon fill="#8dd3c7" stroke="#000000" points="381.7892,-187 378.7892,-191 357.7892,-191 354.7892,-187 202.2108,-187 202.2108,-151 381.7892,-151 381.7892,-187"/>
<text text-anchor="middle" x="292" y="-164.8" font-family="Times,serif" font-size="14.00" fill="#000000">InformacionContactoModule</text>
</g>
<!-- ThemeModule&#45;&gt;InformacionContactoModule -->
<g id="edge1" class="edge">
<title>ThemeModule&#45;&gt;InformacionContactoModule</title>
<path fill="none" stroke="#000000" d="M632.7478,-122.1061C632.7478,-141.3391 632.7478,-169 632.7478,-169 632.7478,-169 391.9732,-169 391.9732,-169"/>
<polygon fill="#000000" stroke="#000000" points="391.9732,-165.5001 381.9732,-169 391.9731,-172.5001 391.9732,-165.5001"/>
</g>
<!-- InformacionContactoRoutingModule -->
<g id="node2" class="node">
<title>InformacionContactoRoutingModule</title>
<polygon fill="#8dd3c7" stroke="#000000" points="564.4072,-122 561.4072,-126 540.4072,-126 537.4072,-122 339.5928,-122 339.5928,-86 564.4072,-86 564.4072,-122"/>
<text text-anchor="middle" x="452" y="-99.8" font-family="Times,serif" font-size="14.00" fill="#000000">InformacionContactoRoutingModule</text>
</g>
<!-- InformacionContactoRoutingModule&#45;&gt;InformacionContactoModule -->
<g id="edge2" class="edge">
<title>InformacionContactoRoutingModule&#45;&gt;InformacionContactoModule</title>
<path fill="none" stroke="#000000" d="M360.7206,-122.1061C360.7206,-122.1061 360.7206,-140.991 360.7206,-140.991"/>
<polygon fill="#000000" stroke="#000000" points="357.2206,-140.9909 360.7206,-150.991 364.2206,-140.991 357.2206,-140.9909"/>
</g>
<!-- SharedModule -->
<g id="node3" class="node">
<title>SharedModule</title>
<polygon fill="#8dd3c7" stroke="#000000" points="322.4231,-122 319.4231,-126 298.4231,-126 295.4231,-122 223.5769,-122 223.5769,-86 322.4231,-86 322.4231,-122"/>
<text text-anchor="middle" x="273" y="-99.8" font-family="Times,serif" font-size="14.00" fill="#000000">SharedModule</text>
</g>
<!-- SharedModule&#45;&gt;InformacionContactoModule -->
<g id="edge3" class="edge">
<title>SharedModule&#45;&gt;InformacionContactoModule</title>
<path fill="none" stroke="#000000" d="M273,-122.1061C273,-122.1061 273,-140.991 273,-140.991"/>
<polygon fill="#000000" stroke="#000000" points="269.5001,-140.9909 273,-150.991 276.5001,-140.991 269.5001,-140.9909"/>
</g>
<!-- CrudInformacionContactoComponent  -->
<g id="node5" class="node">
<title>CrudInformacionContactoComponent </title>
<polygon fill="#fb8072" stroke="#000000" points="585.0692,-252 352.9308,-252 352.9308,-216 585.0692,-216 585.0692,-252"/>
<text text-anchor="middle" x="469" y="-229.8" font-family="Times,serif" font-size="14.00" fill="#000000">CrudInformacionContactoComponent </text>
</g>
<!-- InformacionContactoModule&#45;&gt;CrudInformacionContactoComponent  -->
<g id="edge4" class="edge">
<title>InformacionContactoModule&#45;&gt;CrudInformacionContactoComponent </title>
<path fill="none" stroke="#000000" stroke-dasharray="5,2" d="M367.1801,-187.1061C367.1801,-187.1061 367.1801,-205.991 367.1801,-205.991"/>
<polygon fill="#000000" stroke="#000000" points="363.6801,-205.9909 367.1801,-215.991 370.6801,-205.991 363.6801,-205.9909"/>
</g>
<!-- ViewInformacionContactoComponent  -->
<g id="node6" class="node">
<title>ViewInformacionContactoComponent </title>
<polygon fill="#fb8072" stroke="#000000" points="334.39,-252 99.61,-252 99.61,-216 334.39,-216 334.39,-252"/>
<text text-anchor="middle" x="217" y="-229.8" font-family="Times,serif" font-size="14.00" fill="#000000">ViewInformacionContactoComponent </text>
</g>
<!-- InformacionContactoModule&#45;&gt;ViewInformacionContactoComponent  -->
<g id="edge5" class="edge">
<title>InformacionContactoModule&#45;&gt;ViewInformacionContactoComponent </title>
<path fill="none" stroke="#000000" stroke-dasharray="5,2" d="M268.4003,-187.1061C268.4003,-187.1061 268.4003,-205.991 268.4003,-205.991"/>
<polygon fill="#000000" stroke="#000000" points="264.9003,-205.9909 268.4003,-215.991 271.9003,-205.991 264.9003,-205.9909"/>
</g>
<!-- UbicacionesService -->
<g id="node7" class="node">
<title>UbicacionesService</title>
<ellipse fill="#fdb462" stroke="#000000" cx="112" cy="-104" rx="87.9374" ry="18"/>
<text text-anchor="middle" x="112" y="-99.8" font-family="Times,serif" font-size="14.00" fill="#000000">UbicacionesService</text>
</g>
<!-- UbicacionesService&#45;&gt;InformacionContactoModule -->
<g id="edge6" class="edge">
<title>UbicacionesService&#45;&gt;InformacionContactoModule</title>
<path fill="none" stroke="#000000" d="M199.8588,-104C207.8841,-104 213.0722,-104 213.0722,-104 213.0722,-104 213.0722,-140.8939 213.0722,-140.8939"/>
<polygon fill="#000000" stroke="#000000" points="209.5723,-140.8938 213.0722,-150.8939 216.5723,-140.8939 209.5723,-140.8938"/>
</g>
</g>
</svg>
