<?xml version="1.0" encoding="UTF-8" standalone="no"?>
<!DOCTYPE svg PUBLIC "-//W3C//DTD SVG 1.1//EN"
 "http://www.w3.org/Graphics/SVG/1.1/DTD/svg11.dtd">
<!-- Generated by graphviz version 2.40.1 (20161225.0304)
 -->
<!-- Title: dependencies Pages: 1 -->
<svg width="632pt" height="284pt"
 viewBox="0.00 0.00 632.00 284.00" xmlns="http://www.w3.org/2000/svg" xmlns:xlink="http://www.w3.org/1999/xlink">
<g id="graph0" class="graph" transform="scale(1 1) rotate(0) translate(4 280)">
<title>dependencies</title>
<polygon fill="#ffffff" stroke="transparent" points="-4,4 -4,-280 628,-280 628,4 -4,4"/>
<text text-anchor="start" x="291.0091" y="-42.4" font-family="sans-serif" font-weight="bold" font-size="14.00" fill="#000000">Legend</text>
<polygon fill="#ffffb3" stroke="transparent" points="78,-10 78,-30 98,-30 98,-10 78,-10"/>
<text text-anchor="start" x="101.629" y="-15.4" font-family="sans-serif" font-size="14.00" fill="#000000"> &#160;Declarations</text>
<polygon fill="#8dd3c7" stroke="transparent" points="191,-10 191,-30 211,-30 211,-10 191,-10"/>
<text text-anchor="start" x="214.7251" y="-15.4" font-family="sans-serif" font-size="14.00" fill="#000000"> &#160;Module</text>
<polygon fill="#80b1d3" stroke="transparent" points="277,-10 277,-30 297,-30 297,-10 277,-10"/>
<text text-anchor="start" x="300.7812" y="-15.4" font-family="sans-serif" font-size="14.00" fill="#000000"> &#160;Bootstrap</text>
<polygon fill="#fdb462" stroke="transparent" points="374,-10 374,-30 394,-30 394,-10 374,-10"/>
<text text-anchor="start" x="397.6732" y="-15.4" font-family="sans-serif" font-size="14.00" fill="#000000"> &#160;Providers</text>
<polygon fill="#fb8072" stroke="transparent" points="470,-10 470,-30 490,-30 490,-10 470,-10"/>
<text text-anchor="start" x="493.7258" y="-15.4" font-family="sans-serif" font-size="14.00" fill="#000000"> &#160;Exports</text>
<g id="clust1" class="cluster">
<title>cluster_GrupoEtnicoModule</title>
<polygon fill="none" stroke="#000000" stroke-dasharray="1,5" points="8,-70 8,-268 616,-268 616,-70 8,-70"/>
</g>
<g id="clust3" class="cluster">
<title>cluster_GrupoEtnicoModule_imports</title>
<polygon fill="none" stroke="#000000" points="182,-78 182,-130 608,-130 608,-78 182,-78"/>
</g>
<g id="clust4" class="cluster">
<title>cluster_GrupoEtnicoModule_exports</title>
<polygon fill="none" stroke="#000000" points="216,-208 216,-260 418,-260 418,-208 216,-208"/>
</g>
<g id="clust6" class="cluster">
<title>cluster_GrupoEtnicoModule_providers</title>
<polygon fill="none" stroke="#000000" points="16,-78 16,-130 174,-130 174,-78 16,-78"/>
</g>
<!-- ThemeModule -->
<g id="node1" class="node">
<title>ThemeModule</title>
<polygon fill="#8dd3c7" stroke="#000000" points="600.4231,-122 597.4231,-126 576.4231,-126 573.4231,-122 501.5769,-122 501.5769,-86 600.4231,-86 600.4231,-122"/>
<text text-anchor="middle" x="551" y="-99.8" font-family="Times,serif" font-size="14.00" fill="#000000">ThemeModule</text>
</g>
<!-- GrupoEtnicoModule -->
<g id="node4" class="node">
<title>GrupoEtnicoModule</title>
<polygon fill="#8dd3c7" stroke="#000000" points="382.8655,-187 379.8655,-191 358.8655,-191 355.8655,-187 251.1345,-187 251.1345,-151 382.8655,-151 382.8655,-187"/>
<text text-anchor="middle" x="317" y="-164.8" font-family="Times,serif" font-size="14.00" fill="#000000">GrupoEtnicoModule</text>
</g>
<!-- ThemeModule&#45;&gt;GrupoEtnicoModule -->
<g id="edge1" class="edge">
<title>ThemeModule&#45;&gt;GrupoEtnicoModule</title>
<path fill="none" stroke="#000000" d="M551,-122.1061C551,-141.3391 551,-169 551,-169 551,-169 393.1167,-169 393.1167,-169"/>
<polygon fill="#000000" stroke="#000000" points="393.1168,-165.5001 383.1167,-169 393.1167,-172.5001 393.1168,-165.5001"/>
</g>
<!-- GrupoEtnicoRoutingModule -->
<g id="node2" class="node">
<title>GrupoEtnicoRoutingModule</title>
<polygon fill="#8dd3c7" stroke="#000000" points="483.4832,-122 480.4832,-126 459.4832,-126 456.4832,-122 306.5168,-122 306.5168,-86 483.4832,-86 483.4832,-122"/>
<text text-anchor="middle" x="395" y="-99.8" font-family="Times,serif" font-size="14.00" fill="#000000">GrupoEtnicoRoutingModule</text>
</g>
<!-- GrupoEtnicoRoutingModule&#45;&gt;GrupoEtnicoModule -->
<g id="edge2" class="edge">
<title>GrupoEtnicoRoutingModule&#45;&gt;GrupoEtnicoModule</title>
<path fill="none" stroke="#000000" d="M344.7206,-122.1061C344.7206,-122.1061 344.7206,-140.991 344.7206,-140.991"/>
<polygon fill="#000000" stroke="#000000" points="341.2206,-140.9909 344.7206,-150.991 348.2206,-140.991 341.2206,-140.9909"/>
</g>
<!-- SharedModule -->
<g id="node3" class="node">
<title>SharedModule</title>
<polygon fill="#8dd3c7" stroke="#000000" points="288.4231,-122 285.4231,-126 264.4231,-126 261.4231,-122 189.5769,-122 189.5769,-86 288.4231,-86 288.4231,-122"/>
<text text-anchor="middle" x="239" y="-99.8" font-family="Times,serif" font-size="14.00" fill="#000000">SharedModule</text>
</g>
<!-- SharedModule&#45;&gt;GrupoEtnicoModule -->
<g id="edge3" class="edge">
<title>SharedModule&#45;&gt;GrupoEtnicoModule</title>
<path fill="none" stroke="#000000" d="M269.6392,-122.1061C269.6392,-122.1061 269.6392,-140.991 269.6392,-140.991"/>
<polygon fill="#000000" stroke="#000000" points="266.1393,-140.9909 269.6392,-150.991 273.1393,-140.991 266.1393,-140.9909"/>
</g>
<!-- CrudGrupoEtnicoComponent  -->
<g id="node5" class="node">
<title>CrudGrupoEtnicoComponent </title>
<polygon fill="#fb8072" stroke="#000000" points="409.6453,-252 224.3547,-252 224.3547,-216 409.6453,-216 409.6453,-252"/>
<text text-anchor="middle" x="317" y="-229.8" font-family="Times,serif" font-size="14.00" fill="#000000">CrudGrupoEtnicoComponent </text>
</g>
<!-- GrupoEtnicoModule&#45;&gt;CrudGrupoEtnicoComponent  -->
<g id="edge4" class="edge">
<title>GrupoEtnicoModule&#45;&gt;CrudGrupoEtnicoComponent </title>
<path fill="none" stroke="#000000" stroke-dasharray="5,2" d="M317,-187.1061C317,-187.1061 317,-205.991 317,-205.991"/>
<polygon fill="#000000" stroke="#000000" points="313.5001,-205.9909 317,-215.991 320.5001,-205.991 313.5001,-205.9909"/>
</g>
<!-- PersonaService -->
<g id="node6" class="node">
<title>PersonaService</title>
<ellipse fill="#fdb462" stroke="#000000" cx="95" cy="-104" rx="70.622" ry="18"/>
<text text-anchor="middle" x="95" y="-99.8" font-family="Times,serif" font-size="14.00" fill="#000000">PersonaService</text>
</g>
<!-- PersonaService&#45;&gt;GrupoEtnicoModule -->
<g id="edge5" class="edge">
<title>PersonaService&#45;&gt;GrupoEtnicoModule</title>
<path fill="none" stroke="#000000" d="M95,-122.1061C95,-141.3391 95,-169 95,-169 95,-169 240.9937,-169 240.9937,-169"/>
<polygon fill="#000000" stroke="#000000" points="240.9938,-172.5001 250.9937,-169 240.9937,-165.5001 240.9938,-172.5001"/>
</g>
</g>
</svg>
