<?xml version="1.0" encoding="UTF-8" standalone="no"?>
<!DOCTYPE svg PUBLIC "-//W3C//DTD SVG 1.1//EN"
 "http://www.w3.org/Graphics/SVG/1.1/DTD/svg11.dtd">
<!-- Generated by graphviz version 2.40.1 (20161225.0304)
 -->
<!-- Title: dependencies Pages: 1 -->
<svg width="660pt" height="284pt"
 viewBox="0.00 0.00 660.00 284.00" xmlns="http://www.w3.org/2000/svg" xmlns:xlink="http://www.w3.org/1999/xlink">
<g id="graph0" class="graph" transform="scale(1 1) rotate(0) translate(4 280)">
<title>dependencies</title>
<polygon fill="#ffffff" stroke="transparent" points="-4,4 -4,-280 656,-280 656,4 -4,4"/>
<text text-anchor="start" x="305.0091" y="-42.4" font-family="sans-serif" font-weight="bold" font-size="14.00" fill="#000000">Legend</text>
<polygon fill="#ffffb3" stroke="transparent" points="92,-10 92,-30 112,-30 112,-10 92,-10"/>
<text text-anchor="start" x="115.629" y="-15.4" font-family="sans-serif" font-size="14.00" fill="#000000"> &#160;Declarations</text>
<polygon fill="#8dd3c7" stroke="transparent" points="205,-10 205,-30 225,-30 225,-10 205,-10"/>
<text text-anchor="start" x="228.7251" y="-15.4" font-family="sans-serif" font-size="14.00" fill="#000000"> &#160;Module</text>
<polygon fill="#80b1d3" stroke="transparent" points="291,-10 291,-30 311,-30 311,-10 291,-10"/>
<text text-anchor="start" x="314.7812" y="-15.4" font-family="sans-serif" font-size="14.00" fill="#000000"> &#160;Bootstrap</text>
<polygon fill="#fdb462" stroke="transparent" points="388,-10 388,-30 408,-30 408,-10 388,-10"/>
<text text-anchor="start" x="411.6732" y="-15.4" font-family="sans-serif" font-size="14.00" fill="#000000"> &#160;Providers</text>
<polygon fill="#fb8072" stroke="transparent" points="484,-10 484,-30 504,-30 504,-10 484,-10"/>
<text text-anchor="start" x="507.7258" y="-15.4" font-family="sans-serif" font-size="14.00" fill="#000000"> &#160;Exports</text>
<g id="clust1" class="cluster">
<title>cluster_TipoDiscapacidadModule</title>
<polygon fill="none" stroke="#000000" stroke-dasharray="1,5" points="8,-70 8,-268 644,-268 644,-70 8,-70"/>
</g>
<g id="clust3" class="cluster">
<title>cluster_TipoDiscapacidadModule_imports</title>
<polygon fill="none" stroke="#000000" points="182,-78 182,-130 636,-130 636,-78 182,-78"/>
</g>
<g id="clust4" class="cluster">
<title>cluster_TipoDiscapacidadModule_exports</title>
<polygon fill="none" stroke="#000000" points="209,-208 209,-260 439,-260 439,-208 209,-208"/>
</g>
<g id="clust6" class="cluster">
<title>cluster_TipoDiscapacidadModule_providers</title>
<polygon fill="none" stroke="#000000" points="16,-78 16,-130 174,-130 174,-78 16,-78"/>
</g>
<!-- ThemeModule -->
<g id="node1" class="node">
<title>ThemeModule</title>
<polygon fill="#8dd3c7" stroke="#000000" points="628.4231,-122 625.4231,-126 604.4231,-126 601.4231,-122 529.5769,-122 529.5769,-86 628.4231,-86 628.4231,-122"/>
<text text-anchor="middle" x="579" y="-99.8" font-family="Times,serif" font-size="14.00" fill="#000000">ThemeModule</text>
</g>
<!-- TipoDiscapacidadModule -->
<g id="node4" class="node">
<title>TipoDiscapacidadModule</title>
<polygon fill="#8dd3c7" stroke="#000000" points="404.8989,-187 401.8989,-191 380.8989,-191 377.8989,-187 243.1011,-187 243.1011,-151 404.8989,-151 404.8989,-187"/>
<text text-anchor="middle" x="324" y="-164.8" font-family="Times,serif" font-size="14.00" fill="#000000">TipoDiscapacidadModule</text>
</g>
<!-- ThemeModule&#45;&gt;TipoDiscapacidadModule -->
<g id="edge1" class="edge">
<title>ThemeModule&#45;&gt;TipoDiscapacidadModule</title>
<path fill="none" stroke="#000000" d="M579,-122.1061C579,-141.3391 579,-169 579,-169 579,-169 415.034,-169 415.034,-169"/>
<polygon fill="#000000" stroke="#000000" points="415.034,-165.5001 405.034,-169 415.0339,-172.5001 415.034,-165.5001"/>
</g>
<!-- TipoDiscapacidadRoutingModule -->
<g id="node2" class="node">
<title>TipoDiscapacidadRoutingModule</title>
<polygon fill="#8dd3c7" stroke="#000000" points="512.0168,-122 509.0168,-126 488.0168,-126 485.0168,-122 305.9832,-122 305.9832,-86 512.0168,-86 512.0168,-122"/>
<text text-anchor="middle" x="409" y="-99.8" font-family="Times,serif" font-size="14.00" fill="#000000">TipoDiscapacidadRoutingModule</text>
</g>
<!-- TipoDiscapacidadRoutingModule&#45;&gt;TipoDiscapacidadModule -->
<g id="edge2" class="edge">
<title>TipoDiscapacidadRoutingModule&#45;&gt;TipoDiscapacidadModule</title>
<path fill="none" stroke="#000000" d="M355.2206,-122.1061C355.2206,-122.1061 355.2206,-140.991 355.2206,-140.991"/>
<polygon fill="#000000" stroke="#000000" points="351.7206,-140.9909 355.2206,-150.991 358.7206,-140.991 351.7206,-140.9909"/>
</g>
<!-- SharedModule -->
<g id="node3" class="node">
<title>SharedModule</title>
<polygon fill="#8dd3c7" stroke="#000000" points="288.4231,-122 285.4231,-126 264.4231,-126 261.4231,-122 189.5769,-122 189.5769,-86 288.4231,-86 288.4231,-122"/>
<text text-anchor="middle" x="239" y="-99.8" font-family="Times,serif" font-size="14.00" fill="#000000">SharedModule</text>
</g>
<!-- SharedModule&#45;&gt;TipoDiscapacidadModule -->
<g id="edge3" class="edge">
<title>SharedModule&#45;&gt;TipoDiscapacidadModule</title>
<path fill="none" stroke="#000000" d="M265.756,-122.1061C265.756,-122.1061 265.756,-140.991 265.756,-140.991"/>
<polygon fill="#000000" stroke="#000000" points="262.256,-140.9909 265.756,-150.991 269.256,-140.991 262.256,-140.9909"/>
</g>
<!-- CrudTipoDiscapacidadComponent  -->
<g id="node5" class="node">
<title>CrudTipoDiscapacidadComponent </title>
<polygon fill="#fb8072" stroke="#000000" points="431.1784,-252 216.8216,-252 216.8216,-216 431.1784,-216 431.1784,-252"/>
<text text-anchor="middle" x="324" y="-229.8" font-family="Times,serif" font-size="14.00" fill="#000000">CrudTipoDiscapacidadComponent </text>
</g>
<!-- TipoDiscapacidadModule&#45;&gt;CrudTipoDiscapacidadComponent  -->
<g id="edge4" class="edge">
<title>TipoDiscapacidadModule&#45;&gt;CrudTipoDiscapacidadComponent </title>
<path fill="none" stroke="#000000" stroke-dasharray="5,2" d="M324,-187.1061C324,-187.1061 324,-205.991 324,-205.991"/>
<polygon fill="#000000" stroke="#000000" points="320.5001,-205.9909 324,-215.991 327.5001,-205.991 320.5001,-205.9909"/>
</g>
<!-- PersonaService -->
<g id="node6" class="node">
<title>PersonaService</title>
<ellipse fill="#fdb462" stroke="#000000" cx="95" cy="-104" rx="70.622" ry="18"/>
<text text-anchor="middle" x="95" y="-99.8" font-family="Times,serif" font-size="14.00" fill="#000000">PersonaService</text>
</g>
<!-- PersonaService&#45;&gt;TipoDiscapacidadModule -->
<g id="edge5" class="edge">
<title>PersonaService&#45;&gt;TipoDiscapacidadModule</title>
<path fill="none" stroke="#000000" d="M95,-122.1061C95,-141.3391 95,-169 95,-169 95,-169 233.2632,-169 233.2632,-169"/>
<polygon fill="#000000" stroke="#000000" points="233.2632,-172.5001 243.2632,-169 233.2631,-165.5001 233.2632,-172.5001"/>
</g>
</g>
</svg>
