<?xml version="1.0" encoding="UTF-8" standalone="no"?>
<!DOCTYPE svg PUBLIC "-//W3C//DTD SVG 1.1//EN"
 "http://www.w3.org/Graphics/SVG/1.1/DTD/svg11.dtd">
<!-- Generated by graphviz version 2.40.1 (20161225.0304)
 -->
<!-- Title: dependencies Pages: 1 -->
<svg width="636pt" height="284pt"
 viewBox="0.00 0.00 636.00 284.00" xmlns="http://www.w3.org/2000/svg" xmlns:xlink="http://www.w3.org/1999/xlink">
<g id="graph0" class="graph" transform="scale(1 1) rotate(0) translate(4 280)">
<title>dependencies</title>
<polygon fill="#ffffff" stroke="transparent" points="-4,4 -4,-280 632,-280 632,4 -4,4"/>
<text text-anchor="start" x="293.0091" y="-42.4" font-family="sans-serif" font-weight="bold" font-size="14.00" fill="#000000">Legend</text>
<polygon fill="#ffffb3" stroke="transparent" points="80,-10 80,-30 100,-30 100,-10 80,-10"/>
<text text-anchor="start" x="103.629" y="-15.4" font-family="sans-serif" font-size="14.00" fill="#000000"> &#160;Declarations</text>
<polygon fill="#8dd3c7" stroke="transparent" points="193,-10 193,-30 213,-30 213,-10 193,-10"/>
<text text-anchor="start" x="216.7251" y="-15.4" font-family="sans-serif" font-size="14.00" fill="#000000"> &#160;Module</text>
<polygon fill="#80b1d3" stroke="transparent" points="279,-10 279,-30 299,-30 299,-10 279,-10"/>
<text text-anchor="start" x="302.7812" y="-15.4" font-family="sans-serif" font-size="14.00" fill="#000000"> &#160;Bootstrap</text>
<polygon fill="#fdb462" stroke="transparent" points="376,-10 376,-30 396,-30 396,-10 376,-10"/>
<text text-anchor="start" x="399.6732" y="-15.4" font-family="sans-serif" font-size="14.00" fill="#000000"> &#160;Providers</text>
<polygon fill="#fb8072" stroke="transparent" points="472,-10 472,-30 492,-30 492,-10 472,-10"/>
<text text-anchor="start" x="495.7258" y="-15.4" font-family="sans-serif" font-size="14.00" fill="#000000"> &#160;Exports</text>
<g id="clust1" class="cluster">
<title>cluster_TipoContactoModule</title>
<polygon fill="none" stroke="#000000" stroke-dasharray="1,5" points="8,-70 8,-268 620,-268 620,-70 8,-70"/>
</g>
<g id="clust3" class="cluster">
<title>cluster_TipoContactoModule_imports</title>
<polygon fill="none" stroke="#000000" points="182,-78 182,-130 612,-130 612,-78 182,-78"/>
</g>
<g id="clust4" class="cluster">
<title>cluster_TipoContactoModule_exports</title>
<polygon fill="none" stroke="#000000" points="215,-208 215,-260 421,-260 421,-208 215,-208"/>
</g>
<g id="clust6" class="cluster">
<title>cluster_TipoContactoModule_providers</title>
<polygon fill="none" stroke="#000000" points="16,-78 16,-130 174,-130 174,-78 16,-78"/>
</g>
<!-- ThemeModule -->
<g id="node1" class="node">
<title>ThemeModule</title>
<polygon fill="#8dd3c7" stroke="#000000" points="604.4231,-122 601.4231,-126 580.4231,-126 577.4231,-122 505.5769,-122 505.5769,-86 604.4231,-86 604.4231,-122"/>
<text text-anchor="middle" x="555" y="-99.8" font-family="Times,serif" font-size="14.00" fill="#000000">ThemeModule</text>
</g>
<!-- TipoContactoModule -->
<g id="node4" class="node">
<title>TipoContactoModule</title>
<polygon fill="#8dd3c7" stroke="#000000" points="386.0408,-187 383.0408,-191 362.0408,-191 359.0408,-187 249.9592,-187 249.9592,-151 386.0408,-151 386.0408,-187"/>
<text text-anchor="middle" x="318" y="-164.8" font-family="Times,serif" font-size="14.00" fill="#000000">TipoContactoModule</text>
</g>
<!-- ThemeModule&#45;&gt;TipoContactoModule -->
<g id="edge1" class="edge">
<title>ThemeModule&#45;&gt;TipoContactoModule</title>
<path fill="none" stroke="#000000" d="M555,-122.1061C555,-141.3391 555,-169 555,-169 555,-169 396.2323,-169 396.2323,-169"/>
<polygon fill="#000000" stroke="#000000" points="396.2323,-165.5001 386.2323,-169 396.2322,-172.5001 396.2323,-165.5001"/>
</g>
<!-- TipoContactoRoutingModule -->
<g id="node2" class="node">
<title>TipoContactoRoutingModule</title>
<polygon fill="#8dd3c7" stroke="#000000" points="487.6581,-122 484.6581,-126 463.6581,-126 460.6581,-122 306.3419,-122 306.3419,-86 487.6581,-86 487.6581,-122"/>
<text text-anchor="middle" x="397" y="-99.8" font-family="Times,serif" font-size="14.00" fill="#000000">TipoContactoRoutingModule</text>
</g>
<!-- TipoContactoRoutingModule&#45;&gt;TipoContactoModule -->
<g id="edge2" class="edge">
<title>TipoContactoRoutingModule&#45;&gt;TipoContactoModule</title>
<path fill="none" stroke="#000000" d="M346.2206,-122.1061C346.2206,-122.1061 346.2206,-140.991 346.2206,-140.991"/>
<polygon fill="#000000" stroke="#000000" points="342.7206,-140.9909 346.2206,-150.991 349.7206,-140.991 342.7206,-140.9909"/>
</g>
<!-- SharedModule -->
<g id="node3" class="node">
<title>SharedModule</title>
<polygon fill="#8dd3c7" stroke="#000000" points="288.4231,-122 285.4231,-126 264.4231,-126 261.4231,-122 189.5769,-122 189.5769,-86 288.4231,-86 288.4231,-122"/>
<text text-anchor="middle" x="239" y="-99.8" font-family="Times,serif" font-size="14.00" fill="#000000">SharedModule</text>
</g>
<!-- SharedModule&#45;&gt;TipoContactoModule -->
<g id="edge3" class="edge">
<title>SharedModule&#45;&gt;TipoContactoModule</title>
<path fill="none" stroke="#000000" d="M268.9706,-122.1061C268.9706,-122.1061 268.9706,-140.991 268.9706,-140.991"/>
<polygon fill="#000000" stroke="#000000" points="265.4706,-140.9909 268.9706,-150.991 272.4706,-140.991 265.4706,-140.9909"/>
</g>
<!-- CrudTipoContactoComponent  -->
<g id="node5" class="node">
<title>CrudTipoContactoComponent </title>
<polygon fill="#fb8072" stroke="#000000" points="412.8199,-252 223.1801,-252 223.1801,-216 412.8199,-216 412.8199,-252"/>
<text text-anchor="middle" x="318" y="-229.8" font-family="Times,serif" font-size="14.00" fill="#000000">CrudTipoContactoComponent </text>
</g>
<!-- TipoContactoModule&#45;&gt;CrudTipoContactoComponent  -->
<g id="edge4" class="edge">
<title>TipoContactoModule&#45;&gt;CrudTipoContactoComponent </title>
<path fill="none" stroke="#000000" stroke-dasharray="5,2" d="M318,-187.1061C318,-187.1061 318,-205.991 318,-205.991"/>
<polygon fill="#000000" stroke="#000000" points="314.5001,-205.9909 318,-215.991 321.5001,-205.991 314.5001,-205.9909"/>
</g>
<!-- PersonaService -->
<g id="node6" class="node">
<title>PersonaService</title>
<ellipse fill="#fdb462" stroke="#000000" cx="95" cy="-104" rx="70.622" ry="18"/>
<text text-anchor="middle" x="95" y="-99.8" font-family="Times,serif" font-size="14.00" fill="#000000">PersonaService</text>
</g>
<!-- PersonaService&#45;&gt;TipoContactoModule -->
<g id="edge5" class="edge">
<title>PersonaService&#45;&gt;TipoContactoModule</title>
<path fill="none" stroke="#000000" d="M95,-122.1061C95,-141.3391 95,-169 95,-169 95,-169 239.8809,-169 239.8809,-169"/>
<polygon fill="#000000" stroke="#000000" points="239.881,-172.5001 249.8809,-169 239.8809,-165.5001 239.881,-172.5001"/>
</g>
</g>
</svg>
