<?xml version="1.0" encoding="UTF-8" standalone="no"?>
<!DOCTYPE svg PUBLIC "-//W3C//DTD SVG 1.1//EN"
 "http://www.w3.org/Graphics/SVG/1.1/DTD/svg11.dtd">
<!-- Generated by graphviz version 2.40.1 (20161225.0304)
 -->
<!-- Title: dependencies Pages: 1 -->
<svg width="652pt" height="284pt"
 viewBox="0.00 0.00 652.00 284.00" xmlns="http://www.w3.org/2000/svg" xmlns:xlink="http://www.w3.org/1999/xlink">
<g id="graph0" class="graph" transform="scale(1 1) rotate(0) translate(4 280)">
<title>dependencies</title>
<polygon fill="#ffffff" stroke="transparent" points="-4,4 -4,-280 648,-280 648,4 -4,4"/>
<text text-anchor="start" x="301.0091" y="-42.4" font-family="sans-serif" font-weight="bold" font-size="14.00" fill="#000000">Legend</text>
<polygon fill="#ffffb3" stroke="transparent" points="88,-10 88,-30 108,-30 108,-10 88,-10"/>
<text text-anchor="start" x="111.629" y="-15.4" font-family="sans-serif" font-size="14.00" fill="#000000"> &#160;Declarations</text>
<polygon fill="#8dd3c7" stroke="transparent" points="201,-10 201,-30 221,-30 221,-10 201,-10"/>
<text text-anchor="start" x="224.7251" y="-15.4" font-family="sans-serif" font-size="14.00" fill="#000000"> &#160;Module</text>
<polygon fill="#80b1d3" stroke="transparent" points="287,-10 287,-30 307,-30 307,-10 287,-10"/>
<text text-anchor="start" x="310.7812" y="-15.4" font-family="sans-serif" font-size="14.00" fill="#000000"> &#160;Bootstrap</text>
<polygon fill="#fdb462" stroke="transparent" points="384,-10 384,-30 404,-30 404,-10 384,-10"/>
<text text-anchor="start" x="407.6732" y="-15.4" font-family="sans-serif" font-size="14.00" fill="#000000"> &#160;Providers</text>
<polygon fill="#fb8072" stroke="transparent" points="480,-10 480,-30 500,-30 500,-10 480,-10"/>
<text text-anchor="start" x="503.7258" y="-15.4" font-family="sans-serif" font-size="14.00" fill="#000000"> &#160;Exports</text>
<g id="clust1" class="cluster">
<title>cluster_TipoLugarModule</title>
<polygon fill="none" stroke="#000000" stroke-dasharray="1,5" points="8,-70 8,-268 636,-268 636,-70 8,-70"/>
</g>
<g id="clust3" class="cluster">
<title>cluster_TipoLugarModule_imports</title>
<polygon fill="none" stroke="#000000" points="216,-78 216,-130 628,-130 628,-78 216,-78"/>
</g>
<g id="clust4" class="cluster">
<title>cluster_TipoLugarModule_exports</title>
<polygon fill="none" stroke="#000000" points="253,-208 253,-260 441,-260 441,-208 253,-208"/>
</g>
<g id="clust6" class="cluster">
<title>cluster_TipoLugarModule_providers</title>
<polygon fill="none" stroke="#000000" points="16,-78 16,-130 208,-130 208,-78 16,-78"/>
</g>
<!-- ThemeModule -->
<g id="node1" class="node">
<title>ThemeModule</title>
<polygon fill="#8dd3c7" stroke="#000000" points="620.4231,-122 617.4231,-126 596.4231,-126 593.4231,-122 521.5769,-122 521.5769,-86 620.4231,-86 620.4231,-122"/>
<text text-anchor="middle" x="571" y="-99.8" font-family="Times,serif" font-size="14.00" fill="#000000">ThemeModule</text>
</g>
<!-- TipoLugarModule -->
<g id="node4" class="node">
<title>TipoLugarModule</title>
<polygon fill="#8dd3c7" stroke="#000000" points="406.9215,-187 403.9215,-191 382.9215,-191 379.9215,-187 287.0785,-187 287.0785,-151 406.9215,-151 406.9215,-187"/>
<text text-anchor="middle" x="347" y="-164.8" font-family="Times,serif" font-size="14.00" fill="#000000">TipoLugarModule</text>
</g>
<!-- ThemeModule&#45;&gt;TipoLugarModule -->
<g id="edge1" class="edge">
<title>ThemeModule&#45;&gt;TipoLugarModule</title>
<path fill="none" stroke="#000000" d="M571,-122.1061C571,-141.3391 571,-169 571,-169 571,-169 416.7336,-169 416.7336,-169"/>
<polygon fill="#000000" stroke="#000000" points="416.7337,-165.5001 406.7336,-169 416.7336,-172.5001 416.7337,-165.5001"/>
</g>
<!-- TipoLugarRoutingModule -->
<g id="node2" class="node">
<title>TipoLugarRoutingModule</title>
<polygon fill="#8dd3c7" stroke="#000000" points="504.0392,-122 501.0392,-126 480.0392,-126 477.0392,-122 339.9608,-122 339.9608,-86 504.0392,-86 504.0392,-122"/>
<text text-anchor="middle" x="422" y="-99.8" font-family="Times,serif" font-size="14.00" fill="#000000">TipoLugarRoutingModule</text>
</g>
<!-- TipoLugarRoutingModule&#45;&gt;TipoLugarModule -->
<g id="edge2" class="edge">
<title>TipoLugarRoutingModule&#45;&gt;TipoLugarModule</title>
<path fill="none" stroke="#000000" d="M373.2206,-122.1061C373.2206,-122.1061 373.2206,-140.991 373.2206,-140.991"/>
<polygon fill="#000000" stroke="#000000" points="369.7206,-140.9909 373.2206,-150.991 376.7206,-140.991 369.7206,-140.9909"/>
</g>
<!-- SharedModule -->
<g id="node3" class="node">
<title>SharedModule</title>
<polygon fill="#8dd3c7" stroke="#000000" points="322.4231,-122 319.4231,-126 298.4231,-126 295.4231,-122 223.5769,-122 223.5769,-86 322.4231,-86 322.4231,-122"/>
<text text-anchor="middle" x="273" y="-99.8" font-family="Times,serif" font-size="14.00" fill="#000000">SharedModule</text>
</g>
<!-- SharedModule&#45;&gt;TipoLugarModule -->
<g id="edge3" class="edge">
<title>SharedModule&#45;&gt;TipoLugarModule</title>
<path fill="none" stroke="#000000" d="M304.7504,-122.1061C304.7504,-122.1061 304.7504,-140.991 304.7504,-140.991"/>
<polygon fill="#000000" stroke="#000000" points="301.2504,-140.9909 304.7504,-150.991 308.2504,-140.991 301.2504,-140.9909"/>
</g>
<!-- CrudTipoLugarComponent  -->
<g id="node5" class="node">
<title>CrudTipoLugarComponent </title>
<polygon fill="#fb8072" stroke="#000000" points="433.2009,-252 260.7991,-252 260.7991,-216 433.2009,-216 433.2009,-252"/>
<text text-anchor="middle" x="347" y="-229.8" font-family="Times,serif" font-size="14.00" fill="#000000">CrudTipoLugarComponent </text>
</g>
<!-- TipoLugarModule&#45;&gt;CrudTipoLugarComponent  -->
<g id="edge4" class="edge">
<title>TipoLugarModule&#45;&gt;CrudTipoLugarComponent </title>
<path fill="none" stroke="#000000" stroke-dasharray="5,2" d="M347,-187.1061C347,-187.1061 347,-205.991 347,-205.991"/>
<polygon fill="#000000" stroke="#000000" points="343.5001,-205.9909 347,-215.991 350.5001,-205.991 343.5001,-205.9909"/>
</g>
<!-- UbicacionesService -->
<g id="node6" class="node">
<title>UbicacionesService</title>
<ellipse fill="#fdb462" stroke="#000000" cx="112" cy="-104" rx="87.9374" ry="18"/>
<text text-anchor="middle" x="112" y="-99.8" font-family="Times,serif" font-size="14.00" fill="#000000">UbicacionesService</text>
</g>
<!-- UbicacionesService&#45;&gt;TipoLugarModule -->
<g id="edge5" class="edge">
<title>UbicacionesService&#45;&gt;TipoLugarModule</title>
<path fill="none" stroke="#000000" d="M112,-122.1061C112,-141.3391 112,-169 112,-169 112,-169 277.0915,-169 277.0915,-169"/>
<polygon fill="#000000" stroke="#000000" points="277.0916,-172.5001 287.0915,-169 277.0915,-165.5001 277.0916,-172.5001"/>
</g>
</g>
</svg>
