<?xml version="1.0" encoding="UTF-8" standalone="no"?>
<!DOCTYPE svg PUBLIC "-//W3C//DTD SVG 1.1//EN"
 "http://www.w3.org/Graphics/SVG/1.1/DTD/svg11.dtd">
<!-- Generated by graphviz version 2.40.1 (20161225.0304)
 -->
<!-- Title: dependencies Pages: 1 -->
<svg width="604pt" height="284pt"
 viewBox="0.00 0.00 604.00 284.00" xmlns="http://www.w3.org/2000/svg" xmlns:xlink="http://www.w3.org/1999/xlink">
<g id="graph0" class="graph" transform="scale(1 1) rotate(0) translate(4 280)">
<title>dependencies</title>
<polygon fill="#ffffff" stroke="transparent" points="-4,4 -4,-280 600,-280 600,4 -4,4"/>
<text text-anchor="start" x="277.0091" y="-42.4" font-family="sans-serif" font-weight="bold" font-size="14.00" fill="#000000">Legend</text>
<polygon fill="#ffffb3" stroke="transparent" points="64,-10 64,-30 84,-30 84,-10 64,-10"/>
<text text-anchor="start" x="87.629" y="-15.4" font-family="sans-serif" font-size="14.00" fill="#000000"> &#160;Declarations</text>
<polygon fill="#8dd3c7" stroke="transparent" points="177,-10 177,-30 197,-30 197,-10 177,-10"/>
<text text-anchor="start" x="200.7251" y="-15.4" font-family="sans-serif" font-size="14.00" fill="#000000"> &#160;Module</text>
<polygon fill="#80b1d3" stroke="transparent" points="263,-10 263,-30 283,-30 283,-10 263,-10"/>
<text text-anchor="start" x="286.7812" y="-15.4" font-family="sans-serif" font-size="14.00" fill="#000000"> &#160;Bootstrap</text>
<polygon fill="#fdb462" stroke="transparent" points="360,-10 360,-30 380,-30 380,-10 360,-10"/>
<text text-anchor="start" x="383.6732" y="-15.4" font-family="sans-serif" font-size="14.00" fill="#000000"> &#160;Providers</text>
<polygon fill="#fb8072" stroke="transparent" points="456,-10 456,-30 476,-30 476,-10 456,-10"/>
<text text-anchor="start" x="479.7258" y="-15.4" font-family="sans-serif" font-size="14.00" fill="#000000"> &#160;Exports</text>
<g id="clust1" class="cluster">
<title>cluster_PersonaModule</title>
<polygon fill="none" stroke="#000000" stroke-dasharray="1,5" points="8,-70 8,-268 588,-268 588,-70 8,-70"/>
</g>
<g id="clust3" class="cluster">
<title>cluster_PersonaModule_imports</title>
<polygon fill="none" stroke="#000000" points="182,-78 182,-130 580,-130 580,-78 182,-78"/>
</g>
<g id="clust4" class="cluster">
<title>cluster_PersonaModule_exports</title>
<polygon fill="none" stroke="#000000" points="223,-208 223,-260 397,-260 397,-208 223,-208"/>
</g>
<g id="clust6" class="cluster">
<title>cluster_PersonaModule_providers</title>
<polygon fill="none" stroke="#000000" points="16,-78 16,-130 174,-130 174,-78 16,-78"/>
</g>
<!-- ThemeModule -->
<g id="node1" class="node">
<title>ThemeModule</title>
<polygon fill="#8dd3c7" stroke="#000000" points="572.4231,-122 569.4231,-126 548.4231,-126 545.4231,-122 473.5769,-122 473.5769,-86 572.4231,-86 572.4231,-122"/>
<text text-anchor="middle" x="523" y="-99.8" font-family="Times,serif" font-size="14.00" fill="#000000">ThemeModule</text>
</g>
<!-- PersonaModule -->
<g id="node4" class="node">
<title>PersonaModule</title>
<polygon fill="#8dd3c7" stroke="#000000" points="361.8669,-187 358.8669,-191 337.8669,-191 334.8669,-187 258.1331,-187 258.1331,-151 361.8669,-151 361.8669,-187"/>
<text text-anchor="middle" x="310" y="-164.8" font-family="Times,serif" font-size="14.00" fill="#000000">PersonaModule</text>
</g>
<!-- ThemeModule&#45;&gt;PersonaModule -->
<g id="edge1" class="edge">
<title>ThemeModule&#45;&gt;PersonaModule</title>
<path fill="none" stroke="#000000" d="M523,-122.1061C523,-141.3391 523,-169 523,-169 523,-169 372.1057,-169 372.1057,-169"/>
<polygon fill="#000000" stroke="#000000" points="372.1057,-165.5001 362.1057,-169 372.1056,-172.5001 372.1057,-165.5001"/>
</g>
<!-- PersonaRoutingModule -->
<g id="node2" class="node">
<title>PersonaRoutingModule</title>
<polygon fill="#8dd3c7" stroke="#000000" points="455.4846,-122 452.4846,-126 431.4846,-126 428.4846,-122 306.5154,-122 306.5154,-86 455.4846,-86 455.4846,-122"/>
<text text-anchor="middle" x="381" y="-99.8" font-family="Times,serif" font-size="14.00" fill="#000000">PersonaRoutingModule</text>
</g>
<!-- PersonaRoutingModule&#45;&gt;PersonaModule -->
<g id="edge2" class="edge">
<title>PersonaRoutingModule&#45;&gt;PersonaModule</title>
<path fill="none" stroke="#000000" d="M334.2206,-122.1061C334.2206,-122.1061 334.2206,-140.991 334.2206,-140.991"/>
<polygon fill="#000000" stroke="#000000" points="330.7206,-140.9909 334.2206,-150.991 337.7206,-140.991 330.7206,-140.9909"/>
</g>
<!-- SharedModule -->
<g id="node3" class="node">
<title>SharedModule</title>
<polygon fill="#8dd3c7" stroke="#000000" points="288.4231,-122 285.4231,-126 264.4231,-126 261.4231,-122 189.5769,-122 189.5769,-86 288.4231,-86 288.4231,-122"/>
<text text-anchor="middle" x="239" y="-99.8" font-family="Times,serif" font-size="14.00" fill="#000000">SharedModule</text>
</g>
<!-- SharedModule&#45;&gt;PersonaModule -->
<g id="edge3" class="edge">
<title>SharedModule&#45;&gt;PersonaModule</title>
<path fill="none" stroke="#000000" d="M273.1389,-122.1061C273.1389,-122.1061 273.1389,-140.991 273.1389,-140.991"/>
<polygon fill="#000000" stroke="#000000" points="269.6389,-140.9909 273.1389,-150.991 276.6389,-140.991 269.6389,-140.9909"/>
</g>
<!-- CrudPersonaComponent  -->
<g id="node5" class="node">
<title>CrudPersonaComponent </title>
<polygon fill="#fb8072" stroke="#000000" points="388.6467,-252 231.3533,-252 231.3533,-216 388.6467,-216 388.6467,-252"/>
<text text-anchor="middle" x="310" y="-229.8" font-family="Times,serif" font-size="14.00" fill="#000000">CrudPersonaComponent </text>
</g>
<!-- PersonaModule&#45;&gt;CrudPersonaComponent  -->
<g id="edge4" class="edge">
<title>PersonaModule&#45;&gt;CrudPersonaComponent </title>
<path fill="none" stroke="#000000" stroke-dasharray="5,2" d="M310,-187.1061C310,-187.1061 310,-205.991 310,-205.991"/>
<polygon fill="#000000" stroke="#000000" points="306.5001,-205.9909 310,-215.991 313.5001,-205.991 306.5001,-205.9909"/>
</g>
<!-- PersonaService -->
<g id="node6" class="node">
<title>PersonaService</title>
<ellipse fill="#fdb462" stroke="#000000" cx="95" cy="-104" rx="70.622" ry="18"/>
<text text-anchor="middle" x="95" y="-99.8" font-family="Times,serif" font-size="14.00" fill="#000000">PersonaService</text>
</g>
<!-- PersonaService&#45;&gt;PersonaModule -->
<g id="edge5" class="edge">
<title>PersonaService&#45;&gt;PersonaModule</title>
<path fill="none" stroke="#000000" d="M95,-122.1061C95,-141.3391 95,-169 95,-169 95,-169 247.9545,-169 247.9545,-169"/>
<polygon fill="#000000" stroke="#000000" points="247.9545,-172.5001 257.9545,-169 247.9545,-165.5001 247.9545,-172.5001"/>
</g>
</g>
</svg>
