<?xml version="1.0" encoding="iso-8859-1"?>
<!-- Generator: Adobe Illustrator 17.1.0, SVG Export Plug-In . SVG Version: 6.00 Build 0)  -->
<!DOCTYPE svg PUBLIC "-//W3C//DTD SVG 1.0//EN" "http://www.w3.org/TR/2001/REC-SVG-20010904/DTD/svg10.dtd">
<svg version="1.0" xmlns="http://www.w3.org/2000/svg" xmlns:xlink="http://www.w3.org/1999/xlink" x="0px" y="0px" width="110px"
	 height="110px" viewBox="0 0 110 110" style="enable-background:new 0 0 110 110;" xml:space="preserve">
<g id="Artboard" style="display:none;">
	<rect x="-180.5" y="-44.5" style="display:inline;fill:#808080;stroke:#000000;stroke-miterlimit:10;" width="1087" height="207"/>
</g>
<g id="R-Multicolor" style="display:none;">
	<circle style="display:inline;fill:#E04F5F;" cx="55" cy="55" r="55"/>
	<g style="display:inline;">
		<g>
			<path style="fill:#E2E4E5;" d="M87,50c0,17.673-24,37-32,37S23,67.673,23,50s14.327-27,32-27S87,32.327,87,50z"/>
		</g>
		<g>
			<path style="fill:#3E3E3F;" d="M59,67c0,0-4-20,20-20C79,47,81,67,59,67z"/>
		</g>
		<g>
			<path style="fill:#FFFFFF;" d="M23,50c0,17.67,24,37,32,37V23C37.32,23,23,32.33,23,50z M51,67c-22,0-20-20-20-20
				C55,47,51,67,51,67z"/>
		</g>
		<g>
			<path style="fill:#3E3E3F;" d="M51,67c-22,0-20-20-20-20C55,47,51,67,51,67z"/>
		</g>
	</g>
</g>
<g id="Multicolor">
	<g>
		<g>
			<path style="fill:#E2E4E5;" d="M87,50c0,17.673-24,37-32,37S23,67.673,23,50s14.327-27,32-27S87,32.327,87,50z"/>
		</g>
		<g>
			<path style="fill:#3E3E3F;" d="M59,67c0,0-4-20,20-20C79,47,81,67,59,67z"/>
		</g>
		<g>
			<path style="fill:#FFFFFF;" d="M23,50c0,17.67,24,37,32,37V23C37.32,23,23,32.33,23,50z M51,67c-22,0-20-20-20-20
				C55,47,51,67,51,67z"/>
		</g>
		<g>
			<path style="fill:#3E3E3F;" d="M51,67c-22,0-20-20-20-20C55,47,51,67,51,67z"/>
		</g>
	</g>
</g>
<g id="Blue" style="display:none;">
	<g style="display:inline;">
		<g>
			<path style="fill:#E1F5FA;" d="M87,50c0,17.673-24,37-32,37S23,67.673,23,50s14.327-27,32-27S87,32.327,87,50z"/>
		</g>
		<g>
			<path style="fill:#0C333D;" d="M59,67c0,0-4-20,20-20C79,47,81,67,59,67z"/>
		</g>
		<g>
			<path style="fill:#FFFFFF;" d="M23,50c0,17.67,24,37,32,37V23C37.32,23,23,32.33,23,50z M51,67c-22,0-20-20-20-20
				C55,47,51,67,51,67z"/>
		</g>
		<g>
			<path style="fill:#0C333D;" d="M51,67c-22,0-20-20-20-20C55,47,51,67,51,67z"/>
		</g>
	</g>
</g>
<g id="R-Blue" style="display:none;">
	<circle style="display:inline;fill:#81D2EB;" cx="55" cy="55" r="55"/>
	<g style="display:inline;">
		<g>
			<path style="fill:#E1F5FA;" d="M87,50c0,17.673-24,37-32,37S23,67.673,23,50s14.327-27,32-27S87,32.327,87,50z"/>
		</g>
		<g>
			<path style="fill:#0C333D;" d="M59,67c0,0-4-20,20-20C79,47,81,67,59,67z"/>
		</g>
		<g>
			<path style="fill:#FFFFFF;" d="M23,50c0,17.67,24,37,32,37V23C37.32,23,23,32.33,23,50z M51,67c-22,0-20-20-20-20
				C55,47,51,67,51,67z"/>
		</g>
		<g>
			<path style="fill:#0C333D;" d="M51,67c-22,0-20-20-20-20C55,47,51,67,51,67z"/>
		</g>
	</g>
</g>
<g id="Green" style="display:none;">
	<g style="display:inline;">
		<g>
			<path style="fill:#D7FCF9;" d="M87,50c0,17.673-24,37-32,37S23,67.673,23,50s14.327-27,32-27S87,32.327,87,50z"/>
		</g>
		<g>
			<path style="fill:#0A3631;" d="M59,67c0,0-4-20,20-20C79,47,81,67,59,67z"/>
		</g>
		<g>
			<path style="fill:#FFFFFF;" d="M23,50c0,17.67,24,37,32,37V23C37.32,23,23,32.33,23,50z M51,67c-22,0-20-20-20-20
				C55,47,51,67,51,67z"/>
		</g>
		<g>
			<path style="fill:#0A3631;" d="M51,67c-22,0-20-20-20-20C55,47,51,67,51,67z"/>
		</g>
	</g>
</g>
<g id="R-Green" style="display:none;">
	<circle style="display:inline;fill:#77E0C4;" cx="55" cy="55" r="55"/>
	<g style="display:inline;">
		<g>
			<path style="fill:#D7FCF9;" d="M87,50c0,17.673-24,37-32,37S23,67.673,23,50s14.327-27,32-27S87,32.327,87,50z"/>
		</g>
		<g>
			<path style="fill:#0A3631;" d="M59,67c0,0-4-20,20-20C79,47,81,67,59,67z"/>
		</g>
		<g>
			<path style="fill:#FFFFFF;" d="M23,50c0,17.67,24,37,32,37V23C37.32,23,23,32.33,23,50z M51,67c-22,0-20-20-20-20
				C55,47,51,67,51,67z"/>
		</g>
		<g>
			<path style="fill:#0A3631;" d="M51,67c-22,0-20-20-20-20C55,47,51,67,51,67z"/>
		</g>
	</g>
</g>
<g id="Red" style="display:none;">
	<g style="display:inline;">
		<g>
			<path style="fill:#FFEFED;" d="M87,50c0,17.673-24,37-32,37S23,67.673,23,50s14.327-27,32-27S87,32.327,87,50z"/>
		</g>
		<g>
			<path style="fill:#4A1410;" d="M59,67c0,0-4-20,20-20C79,47,81,67,59,67z"/>
		</g>
		<g>
			<path style="fill:#FFFFFF;" d="M23,50c0,17.67,24,37,32,37V23C37.32,23,23,32.33,23,50z M51,67c-22,0-20-20-20-20
				C55,47,51,67,51,67z"/>
		</g>
		<g>
			<path style="fill:#4A1410;" d="M51,67c-22,0-20-20-20-20C55,47,51,67,51,67z"/>
		</g>
	</g>
</g>
<g id="R-Red" style="display:none;">
	<circle style="display:inline;fill:#FABBAF;" cx="55" cy="55" r="55"/>
	<g style="display:inline;">
		<g>
			<path style="fill:#FFEFED;" d="M87,50c0,17.673-24,37-32,37S23,67.673,23,50s14.327-27,32-27S87,32.327,87,50z"/>
		</g>
		<g>
			<path style="fill:#4A1410;" d="M59,67c0,0-4-20,20-20C79,47,81,67,59,67z"/>
		</g>
		<g>
			<path style="fill:#FFFFFF;" d="M23,50c0,17.67,24,37,32,37V23C37.32,23,23,32.33,23,50z M51,67c-22,0-20-20-20-20
				C55,47,51,67,51,67z"/>
		</g>
		<g>
			<path style="fill:#4A1410;" d="M51,67c-22,0-20-20-20-20C55,47,51,67,51,67z"/>
		</g>
	</g>
</g>
<g id="Yellow" style="display:none;">
	<g style="display:inline;">
		<g>
			<path style="fill:#FFF5D9;" d="M87,50c0,17.673-24,37-32,37S23,67.673,23,50s14.327-27,32-27S87,32.327,87,50z"/>
		</g>
		<g>
			<path style="fill:#3D320C;" d="M59,67c0,0-4-20,20-20C79,47,81,67,59,67z"/>
		</g>
		<g>
			<path style="fill:#FFFFFF;" d="M23,50c0,17.67,24,37,32,37V23C37.32,23,23,32.33,23,50z M51,67c-22,0-20-20-20-20
				C55,47,51,67,51,67z"/>
		</g>
		<g>
			<path style="fill:#3D320C;" d="M51,67c-22,0-20-20-20-20C55,47,51,67,51,67z"/>
		</g>
	</g>
</g>
<g id="R-Yellow" style="display:none;">
	<circle style="display:inline;fill:#FFD75E;" cx="55" cy="55" r="55"/>
	<g style="display:inline;">
		<g>
			<path style="fill:#FFF5D9;" d="M87,50c0,17.673-24,37-32,37S23,67.673,23,50s14.327-27,32-27S87,32.327,87,50z"/>
		</g>
		<g>
			<path style="fill:#3D320C;" d="M59,67c0,0-4-20,20-20C79,47,81,67,59,67z"/>
		</g>
		<g>
			<path style="fill:#FFFFFF;" d="M23,50c0,17.67,24,37,32,37V23C37.32,23,23,32.33,23,50z M51,67c-22,0-20-20-20-20
				C55,47,51,67,51,67z"/>
		</g>
		<g>
			<path style="fill:#3D320C;" d="M51,67c-22,0-20-20-20-20C55,47,51,67,51,67z"/>
		</g>
	</g>
</g>
</svg>
