<?xml version="1.0" encoding="iso-8859-1"?>
<!-- Generator: Adobe Illustrator 17.1.0, SVG Export Plug-In . SVG Version: 6.00 Build 0)  -->
<!DOCTYPE svg PUBLIC "-//W3C//DTD SVG 1.0//EN" "http://www.w3.org/TR/2001/REC-SVG-20010904/DTD/svg10.dtd">
<svg version="1.0" xmlns="http://www.w3.org/2000/svg" xmlns:xlink="http://www.w3.org/1999/xlink" x="0px" y="0px" width="110px"
	 height="110px" viewBox="0 0 110 110" style="enable-background:new 0 0 110 110;" xml:space="preserve">
<g id="Artboard" style="display:none;">
	<rect x="-442" y="-45" style="display:inline;fill:#808080;" width="1347" height="333"/>
</g>
<g id="R-Multicolor" style="display:none;">
	<circle style="display:inline;fill:#32BEA6;" cx="55" cy="55" r="55"/>
	<g style="display:inline;">
		<rect x="37" y="27" style="fill:#FFFFFF;" width="50" height="60"/>
		<g>
			<path style="fill:#FBE158;" d="M65.724,73c0,4.418,3.582,8,8,8c4.418,0,8.416-3.601,8-8c-0.423-4.476-3.893-8.042-8-8
				C69.306,65.046,65.724,68.582,65.724,73z"/>
			<path style="fill:#059BBF;" d="M65.724,73c0,4.42,3.58,8,8,8c3.36,0,6.233-2.067,7.42-5l-14.78-6.153
				C65.951,70.813,65.724,71.88,65.724,73z"/>
			<path style="fill:#4AC3AF;" d="M65.712,73.003c0,2.82,1.46,5.3,3.667,6.727l4.327-6.82l-7.353-3.06
				C65.939,70.817,65.712,71.883,65.712,73.003z"/>
			<path style="fill:#FA5655;" d="M66.364,69.847l7.36,3.067V65C70.424,65,67.591,67,66.364,69.847z"/>
		</g>
		<rect x="77" y="40" style="fill:#4AC3AF;" width="4" height="18"/>
		<rect x="69.712" y="48" style="fill:#4AC3AF;" width="4" height="10"/>
		<g>
			<circle style="fill:#CFD3D4;" cx="60.333" cy="68.167" r="1.5"/>
			<rect x="46.712" y="67.667" style="fill:#CFD3D4;" width="10" height="1"/>
		</g>
		<g>
			<circle style="fill:#CFD3D4;" cx="60.333" cy="73.333" r="1.5"/>
			<rect x="46.712" y="72.833" style="fill:#CFD3D4;" width="10" height="1"/>
		</g>
		<g>
			<circle style="fill:#CFD3D4;" cx="60.333" cy="78.5" r="1.5"/>
			<rect x="46.712" y="78" style="fill:#CFD3D4;" width="10" height="1"/>
		</g>
		<path style="fill:#84462D;" d="M39.742,58.021L28.944,68.819c-1.344,1.344-3.522,1.344-4.867,0s-1.344-3.522,0-4.867L34.9,53.131
			C36.098,55.126,37.758,56.805,39.742,58.021z"/>
		<path style="fill:#9C6144;" d="M36.992,55.826L24.041,68.777c-1.308-1.344-1.296-3.492,0.03-4.824L34.9,53.125
			C35.489,54.104,36.195,55.01,36.992,55.826z"/>
		<path style="fill:#FFFFFF;" d="M47.4,60.1c-7.995,0-14.5-6.505-14.5-14.5s6.505-14.5,14.5-14.5s14.5,6.505,14.5,14.5
			S55.396,60.1,47.4,60.1z"/>
		<path style="fill:#CFD3D4;" d="M47.4,31.088c8.012,0,14.512,6.5,14.512,14.512s-6.5,14.512-14.512,14.512
			c-8.041,0-14.512-6.561-14.512-14.512C32.888,37.588,39.388,31.088,47.4,31.088 M47.4,29.1c-9.098,0-16.5,7.402-16.5,16.5
			s7.402,16.5,16.5,16.5s16.5-7.402,16.5-16.5S56.499,29.1,47.4,29.1L47.4,29.1z"/>
		<circle style="fill:#6FDAF1;" cx="47.4" cy="45.6" r="11.558"/>
		<path style="fill:#9CE5F4;" d="M47.4,34.042c-6.383,0-11.558,5.175-11.558,11.558c0,3.158,1.27,6.018,3.323,8.104l16.339-16.339
			C53.418,35.311,50.559,34.042,47.4,34.042z"/>
	</g>
</g>
<g id="Multicolor_1_">
	<g>
		<rect x="37" y="27" style="fill:#FFFFFF;" width="50" height="60"/>
		<g>
			<path style="fill:#FBE158;" d="M65.724,73c0,4.418,3.582,8,8,8c4.418,0,8.416-3.601,8-8c-0.423-4.476-3.893-8.042-8-8
				C69.306,65.046,65.724,68.582,65.724,73z"/>
			<path style="fill:#059BBF;" d="M65.724,73c0,4.42,3.58,8,8,8c3.36,0,6.233-2.067,7.42-5l-14.78-6.153
				C65.951,70.813,65.724,71.88,65.724,73z"/>
			<path style="fill:#4AC3AF;" d="M65.712,73.003c0,2.82,1.46,5.3,3.667,6.727l4.327-6.82l-7.353-3.06
				C65.939,70.817,65.712,71.883,65.712,73.003z"/>
			<path style="fill:#FA5655;" d="M66.364,69.847l7.36,3.067V65C70.424,65,67.591,67,66.364,69.847z"/>
		</g>
		<rect x="77" y="40" style="fill:#4AC3AF;" width="4" height="18"/>
		<rect x="69.712" y="48" style="fill:#4AC3AF;" width="4" height="10"/>
		<g>
			<circle style="fill:#CFD3D4;" cx="60.333" cy="68.167" r="1.5"/>
			<rect x="46.712" y="67.667" style="fill:#CFD3D4;" width="10" height="1"/>
		</g>
		<g>
			<circle style="fill:#CFD3D4;" cx="60.333" cy="73.333" r="1.5"/>
			<rect x="46.712" y="72.833" style="fill:#CFD3D4;" width="10" height="1"/>
		</g>
		<g>
			<circle style="fill:#CFD3D4;" cx="60.333" cy="78.5" r="1.5"/>
			<rect x="46.712" y="78" style="fill:#CFD3D4;" width="10" height="1"/>
		</g>
		<path style="fill:#84462D;" d="M39.742,58.021L28.944,68.819c-1.344,1.344-3.522,1.344-4.867,0s-1.344-3.522,0-4.867L34.9,53.131
			C36.098,55.126,37.758,56.805,39.742,58.021z"/>
		<path style="fill:#9C6144;" d="M36.992,55.826L24.041,68.777c-1.308-1.344-1.296-3.492,0.03-4.824L34.9,53.125
			C35.489,54.104,36.195,55.01,36.992,55.826z"/>
		<path style="fill:#FFFFFF;" d="M47.4,60.1c-7.995,0-14.5-6.505-14.5-14.5s6.505-14.5,14.5-14.5s14.5,6.505,14.5,14.5
			S55.396,60.1,47.4,60.1z"/>
		<path style="fill:#CFD3D4;" d="M47.4,31.088c8.012,0,14.512,6.5,14.512,14.512s-6.5,14.512-14.512,14.512
			c-8.041,0-14.512-6.561-14.512-14.512C32.888,37.588,39.388,31.088,47.4,31.088 M47.4,29.1c-9.098,0-16.5,7.402-16.5,16.5
			s7.402,16.5,16.5,16.5s16.5-7.402,16.5-16.5S56.499,29.1,47.4,29.1L47.4,29.1z"/>
		<circle style="fill:#6FDAF1;" cx="47.4" cy="45.6" r="11.558"/>
		<path style="fill:#9CE5F4;" d="M47.4,34.042c-6.383,0-11.558,5.175-11.558,11.558c0,3.158,1.27,6.018,3.323,8.104l16.339-16.339
			C53.418,35.311,50.559,34.042,47.4,34.042z"/>
	</g>
</g>
<g id="Blue" style="display:none;">
	<g style="display:inline;">
		<g>
			<rect x="37" y="27" style="fill:#FFFFFF;" width="50" height="60"/>
		</g>
		<g>
			<path style="fill:#00B7E5;" d="M65.725,73c0,4.419,3.581,8,8,8c4.418,0,8.415-3.601,8-8c-0.423-4.476-3.893-8.042-8-8
				C69.306,65.046,65.725,68.582,65.725,73z"/>
		</g>
		<g>
			<path style="fill:#0081A1;" d="M65.725,73c0,4.42,3.58,8,8,8c3.359,0,6.233-2.066,7.42-5l-14.78-6.153
				C65.951,70.814,65.725,71.88,65.725,73z"/>
		</g>
		<g>
			<path style="fill:#BBE7F2;" d="M65.712,73.003c0,2.82,1.46,5.3,3.666,6.727l4.327-6.82l-7.353-3.06
				C65.938,70.816,65.712,71.884,65.712,73.003z"/>
		</g>
		<g>
			<path style="fill:#33899E;" d="M66.364,69.847l7.36,3.067V65C70.424,65,67.591,67,66.364,69.847z"/>
		</g>
		<g>
			<rect x="77" y="40" style="fill:#009FC7;" width="4" height="18"/>
		</g>
		<g>
			<rect x="69.712" y="48" style="fill:#00B7E5;" width="4" height="10"/>
		</g>
		<g>
			<circle style="fill:#00B7E5;" cx="60.333" cy="68.167" r="1.5"/>
		</g>
		<g>
			<rect x="46.712" y="67.667" style="fill:#BBE7F2;" width="10" height="1"/>
		</g>
		<g>
			<circle style="fill:#00B7E5;" cx="60.333" cy="73.333" r="1.5"/>
		</g>
		<g>
			<rect x="46.712" y="72.833" style="fill:#BBE7F2;" width="10" height="1"/>
		</g>
		<g>
			<circle style="fill:#00B7E5;" cx="60.333" cy="78.5" r="1.5"/>
		</g>
		<g>
			<rect x="46.712" y="78" style="fill:#BBE7F2;" width="10" height="1"/>
		</g>
		<g>
			<path style="fill:#0C333D;" d="M39.742,58.021L28.944,68.819c-1.345,1.344-3.522,1.344-4.867,0c-1.344-1.345-1.344-3.522,0-4.867
				l10.822-10.822C36.098,55.126,37.758,56.805,39.742,58.021z"/>
		</g>
		<g>
			<path style="fill:#0F6175;" d="M36.992,55.826L24.041,68.776c-1.308-1.344-1.296-3.491,0.03-4.824l10.828-10.828
				C35.489,54.104,36.195,55.01,36.992,55.826z"/>
		</g>
		<g>
			<path style="fill:#FFFFFF;" d="M47.4,60.1c-7.995,0-14.5-6.505-14.5-14.5s6.505-14.5,14.5-14.5s14.5,6.505,14.5,14.5
				S55.395,60.1,47.4,60.1z"/>
		</g>
		<g>
			<path style="fill:#53BAD4;" d="M47.5,30.988c8.012,0,14.512,6.5,14.512,14.512s-6.5,14.512-14.512,14.512
				c-8.041,0-14.512-6.561-14.512-14.512C32.988,37.488,39.488,30.988,47.5,30.988 M47.5,29C38.402,29,31,36.402,31,45.5
				C31,54.599,38.402,62,47.5,62S64,54.599,64,45.5C64,36.402,56.598,29,47.5,29L47.5,29z"/>
		</g>
		<g>
			<circle style="fill:#009FC7;" cx="47.4" cy="45.6" r="11.558"/>
		</g>
		<g>
			<path style="fill:#00B7E5;" d="M47.4,34.042c-6.383,0-11.558,5.175-11.558,11.558c0,3.158,1.27,6.018,3.323,8.104l16.339-16.339
				C53.418,35.312,50.559,34.042,47.4,34.042z"/>
		</g>
	</g>
</g>
<g id="R-Blue" style="display:none;">
	<g style="display:inline;">
		<circle style="fill:#81D2EB;" cx="55" cy="55" r="55"/>
	</g>
	<g style="display:inline;">
		<g>
			<rect x="37" y="27" style="fill:#FFFFFF;" width="50" height="60"/>
		</g>
		<g>
			<path style="fill:#00B7E5;" d="M65.725,73c0,4.419,3.581,8,8,8c4.418,0,8.415-3.601,8-8c-0.423-4.476-3.893-8.042-8-8
				C69.306,65.046,65.725,68.582,65.725,73z"/>
		</g>
		<g>
			<path style="fill:#0081A1;" d="M65.725,73c0,4.42,3.58,8,8,8c3.359,0,6.233-2.066,7.42-5l-14.78-6.153
				C65.951,70.814,65.725,71.88,65.725,73z"/>
		</g>
		<g>
			<path style="fill:#BBE7F2;" d="M65.712,73.003c0,2.82,1.46,5.3,3.666,6.727l4.327-6.82l-7.353-3.06
				C65.938,70.816,65.712,71.884,65.712,73.003z"/>
		</g>
		<g>
			<path style="fill:#33899E;" d="M66.364,69.847l7.36,3.067V65C70.424,65,67.591,67,66.364,69.847z"/>
		</g>
		<g>
			<rect x="77" y="40" style="fill:#009FC7;" width="4" height="18"/>
		</g>
		<g>
			<rect x="69.712" y="48" style="fill:#00B7E5;" width="4" height="10"/>
		</g>
		<g>
			<circle style="fill:#00B7E5;" cx="60.333" cy="68.167" r="1.5"/>
		</g>
		<g>
			<rect x="46.712" y="67.667" style="fill:#BBE7F2;" width="10" height="1"/>
		</g>
		<g>
			<circle style="fill:#00B7E5;" cx="60.333" cy="73.333" r="1.5"/>
		</g>
		<g>
			<rect x="46.712" y="72.833" style="fill:#BBE7F2;" width="10" height="1"/>
		</g>
		<g>
			<circle style="fill:#00B7E5;" cx="60.333" cy="78.5" r="1.5"/>
		</g>
		<g>
			<rect x="46.712" y="78" style="fill:#BBE7F2;" width="10" height="1"/>
		</g>
		<g>
			<path style="fill:#0C333D;" d="M39.742,58.021L28.944,68.819c-1.345,1.344-3.522,1.344-4.867,0c-1.344-1.345-1.344-3.522,0-4.867
				l10.822-10.822C36.098,55.126,37.758,56.805,39.742,58.021z"/>
		</g>
		<g>
			<path style="fill:#0F6175;" d="M36.992,55.826L24.041,68.776c-1.308-1.344-1.296-3.491,0.03-4.824l10.828-10.828
				C35.489,54.104,36.195,55.01,36.992,55.826z"/>
		</g>
		<g>
			<path style="fill:#FFFFFF;" d="M47.4,60.1c-7.995,0-14.5-6.505-14.5-14.5s6.505-14.5,14.5-14.5s14.5,6.505,14.5,14.5
				S55.395,60.1,47.4,60.1z"/>
		</g>
		<g>
			<path style="fill:#53BAD4;" d="M47.5,30.988c8.012,0,14.512,6.5,14.512,14.512s-6.5,14.512-14.512,14.512
				c-8.041,0-14.512-6.561-14.512-14.512C32.988,37.488,39.488,30.988,47.5,30.988 M47.5,29C38.402,29,31,36.402,31,45.5
				C31,54.599,38.402,62,47.5,62S64,54.599,64,45.5C64,36.402,56.598,29,47.5,29L47.5,29z"/>
		</g>
		<g>
			<circle style="fill:#009FC7;" cx="47.4" cy="45.6" r="11.558"/>
		</g>
		<g>
			<path style="fill:#00B7E5;" d="M47.4,34.042c-6.383,0-11.558,5.175-11.558,11.558c0,3.158,1.27,6.018,3.323,8.104l16.339-16.339
				C53.418,35.312,50.559,34.042,47.4,34.042z"/>
		</g>
	</g>
</g>
<g id="Green" style="display:none;">
	<g style="display:inline;">
		<g>
			<rect x="37" y="27" style="fill:#FFFFFF;" width="50" height="60"/>
		</g>
		<g>
			<path style="fill:#00D6C1;" d="M65.725,73c0,4.419,3.581,8,8,8c4.418,0,8.415-3.601,8-8c-0.423-4.476-3.894-8.042-8-8
				C69.306,65.046,65.725,68.582,65.725,73z"/>
		</g>
		<g>
			<path style="fill:#009687;" d="M65.725,73c0,4.42,3.58,8,8,8c3.359,0,6.233-2.066,7.42-5l-14.78-6.153
				C65.951,70.814,65.725,71.88,65.725,73z"/>
		</g>
		<g>
			<path style="fill:#AAF0E9;" d="M65.712,73.003c0,2.82,1.46,5.3,3.667,6.727l4.327-6.82l-7.353-3.06
				C65.938,70.816,65.712,71.884,65.712,73.003z"/>
		</g>
		<g>
			<path style="fill:#3E948B;" d="M66.364,69.847l7.36,3.067V65C70.424,65,67.591,67,66.364,69.847z"/>
		</g>
		<g>
			<rect x="77" y="40" style="fill:#00B8A5;" width="4" height="18"/>
		</g>
		<g>
			<rect x="69.712" y="48" style="fill:#00D6C1;" width="4" height="10"/>
		</g>
		<g>
			<circle style="fill:#00D6C1;" cx="60.333" cy="68.167" r="1.5"/>
		</g>
		<g>
			<rect x="46.712" y="67.667" style="fill:#AAF0E9;" width="10" height="1"/>
		</g>
		<g>
			<circle style="fill:#00D6C1;" cx="60.333" cy="73.333" r="1.5"/>
		</g>
		<g>
			<rect x="46.712" y="72.833" style="fill:#AAF0E9;" width="10" height="1"/>
		</g>
		<g>
			<circle style="fill:#00D6C1;" cx="60.333" cy="78.5" r="1.5"/>
		</g>
		<g>
			<rect x="46.712" y="78" style="fill:#AAF0E9;" width="10" height="1"/>
		</g>
		<g>
			<path style="fill:#0A3631;" d="M39.742,58.021L28.944,68.819c-1.345,1.344-3.522,1.344-4.867,0c-1.344-1.345-1.344-3.522,0-4.867
				l10.822-10.822C36.098,55.126,37.758,56.805,39.742,58.021z"/>
		</g>
		<g>
			<path style="fill:#14635B;" d="M36.992,55.826L24.041,68.776c-1.308-1.344-1.296-3.491,0.03-4.824l10.828-10.828
				C35.489,54.104,36.195,55.01,36.992,55.826z"/>
		</g>
		<g>
			<path style="fill:#FFFFFF;" d="M47.4,60.1c-7.995,0-14.5-6.505-14.5-14.5s6.505-14.5,14.5-14.5s14.5,6.505,14.5,14.5
				S55.396,60.1,47.4,60.1z"/>
		</g>
		<g>
			<path style="fill:#5DCFC3;" d="M47.5,30.988c8.012,0,14.512,6.5,14.512,14.512s-6.5,14.512-14.512,14.512
				c-8.041,0-14.512-6.561-14.512-14.512C32.988,37.488,39.488,30.988,47.5,30.988 M47.5,29C38.402,29,31,36.402,31,45.5
				C31,54.599,38.402,62,47.5,62S64,54.599,64,45.5C64,36.402,56.598,29,47.5,29L47.5,29z"/>
		</g>
		<g>
			<circle style="fill:#00B8A5;" cx="47.4" cy="45.6" r="11.558"/>
		</g>
		<g>
			<path style="fill:#00D6C1;" d="M47.4,34.042c-6.383,0-11.558,5.175-11.558,11.558c0,3.158,1.27,6.018,3.323,8.104l16.339-16.339
				C53.418,35.312,50.559,34.042,47.4,34.042z"/>
		</g>
	</g>
</g>
<g id="R-Green" style="display:none;">
	<g style="display:inline;">
		<circle style="fill:#87E0C8;" cx="55" cy="55" r="55"/>
	</g>
	<g style="display:inline;">
		<g>
			<rect x="37" y="27" style="fill:#FFFFFF;" width="50" height="60"/>
		</g>
		<g>
			<path style="fill:#00D6C1;" d="M65.725,73c0,4.419,3.581,8,8,8c4.418,0,8.415-3.601,8-8c-0.423-4.476-3.894-8.042-8-8
				C69.306,65.046,65.725,68.582,65.725,73z"/>
		</g>
		<g>
			<path style="fill:#009687;" d="M65.725,73c0,4.42,3.58,8,8,8c3.359,0,6.233-2.066,7.42-5l-14.78-6.153
				C65.951,70.814,65.725,71.88,65.725,73z"/>
		</g>
		<g>
			<path style="fill:#AAF0E9;" d="M65.712,73.003c0,2.82,1.46,5.3,3.667,6.727l4.327-6.82l-7.353-3.06
				C65.938,70.816,65.712,71.884,65.712,73.003z"/>
		</g>
		<g>
			<path style="fill:#3E948B;" d="M66.364,69.847l7.36,3.067V65C70.424,65,67.591,67,66.364,69.847z"/>
		</g>
		<g>
			<rect x="77" y="40" style="fill:#00B8A5;" width="4" height="18"/>
		</g>
		<g>
			<rect x="69.712" y="48" style="fill:#00D6C1;" width="4" height="10"/>
		</g>
		<g>
			<circle style="fill:#00D6C1;" cx="60.333" cy="68.167" r="1.5"/>
		</g>
		<g>
			<rect x="46.712" y="67.667" style="fill:#AAF0E9;" width="10" height="1"/>
		</g>
		<g>
			<circle style="fill:#00D6C1;" cx="60.333" cy="73.333" r="1.5"/>
		</g>
		<g>
			<rect x="46.712" y="72.833" style="fill:#AAF0E9;" width="10" height="1"/>
		</g>
		<g>
			<circle style="fill:#00D6C1;" cx="60.333" cy="78.5" r="1.5"/>
		</g>
		<g>
			<rect x="46.712" y="78" style="fill:#AAF0E9;" width="10" height="1"/>
		</g>
		<g>
			<path style="fill:#0A3631;" d="M39.742,58.021L28.944,68.819c-1.345,1.344-3.522,1.344-4.867,0c-1.344-1.345-1.344-3.522,0-4.867
				l10.822-10.822C36.098,55.126,37.758,56.805,39.742,58.021z"/>
		</g>
		<g>
			<path style="fill:#14635B;" d="M36.992,55.826L24.041,68.776c-1.308-1.344-1.296-3.491,0.03-4.824l10.828-10.828
				C35.489,54.104,36.195,55.01,36.992,55.826z"/>
		</g>
		<g>
			<path style="fill:#FFFFFF;" d="M47.4,60.1c-7.995,0-14.5-6.505-14.5-14.5s6.505-14.5,14.5-14.5s14.5,6.505,14.5,14.5
				S55.396,60.1,47.4,60.1z"/>
		</g>
		<g>
			<path style="fill:#5DCFC3;" d="M47.5,30.988c8.012,0,14.512,6.5,14.512,14.512s-6.5,14.512-14.512,14.512
				c-8.041,0-14.512-6.561-14.512-14.512C32.988,37.488,39.488,30.988,47.5,30.988 M47.5,29C38.402,29,31,36.402,31,45.5
				C31,54.599,38.402,62,47.5,62S64,54.599,64,45.5C64,36.402,56.598,29,47.5,29L47.5,29z"/>
		</g>
		<g>
			<circle style="fill:#00B8A5;" cx="47.4" cy="45.6" r="11.558"/>
		</g>
		<g>
			<path style="fill:#00D6C1;" d="M47.4,34.042c-6.383,0-11.558,5.175-11.558,11.558c0,3.158,1.27,6.018,3.323,8.104l16.339-16.339
				C53.418,35.312,50.559,34.042,47.4,34.042z"/>
		</g>
	</g>
</g>
<g id="Red" style="display:none;">
	<g style="display:inline;">
		<g>
			<rect x="37" y="27" style="fill:#FFFFFF;" width="50" height="60"/>
		</g>
		<g>
			<path style="fill:#FF6C5E;" d="M65.725,73c0,4.419,3.581,8,8,8c4.418,0,8.415-3.601,8-8c-0.423-4.476-3.894-8.042-8-8
				C69.306,65.046,65.725,68.582,65.725,73z"/>
		</g>
		<g>
			<path style="fill:#C23023;" d="M65.725,73c0,4.42,3.58,8,8,8c3.359,0,6.233-2.066,7.42-5l-14.78-6.153
				C65.951,70.814,65.725,71.88,65.725,73z"/>
		</g>
		<g>
			<path style="fill:#FFD7D4;" d="M65.712,73.003c0,2.82,1.46,5.3,3.667,6.727l4.327-6.82l-7.353-3.06
				C65.938,70.816,65.712,71.884,65.712,73.003z"/>
		</g>
		<g>
			<path style="fill:#B84E44;" d="M66.364,69.847l7.36,3.067V65C70.424,65,67.591,67,66.364,69.847z"/>
		</g>
		<g>
			<rect x="77" y="40" style="fill:#E54B44;" width="4" height="18"/>
		</g>
		<g>
			<rect x="69.712" y="48" style="fill:#FF6C5E;" width="4" height="10"/>
		</g>
		<g>
			<circle style="fill:#FF6C5E;" cx="60.333" cy="68.167" r="1.5"/>
		</g>
		<g>
			<rect x="46.712" y="67.667" style="fill:#FFD7D4;" width="10" height="1"/>
		</g>
		<g>
			<circle style="fill:#FF6C5E;" cx="60.333" cy="73.333" r="1.5"/>
		</g>
		<g>
			<rect x="46.712" y="72.833" style="fill:#FFD7D4;" width="10" height="1"/>
		</g>
		<g>
			<circle style="fill:#FF6C5E;" cx="60.333" cy="78.5" r="1.5"/>
		</g>
		<g>
			<rect x="46.712" y="78" style="fill:#FFD7D4;" width="10" height="1"/>
		</g>
		<g>
			<path style="fill:#4A1410;" d="M39.742,58.021L28.944,68.819c-1.345,1.344-3.522,1.344-4.867,0c-1.344-1.345-1.344-3.522,0-4.867
				l10.822-10.822C36.098,55.126,37.758,56.805,39.742,58.021z"/>
		</g>
		<g>
			<path style="fill:#7D261E;" d="M36.992,55.826L24.041,68.776c-1.308-1.344-1.296-3.491,0.03-4.824l10.828-10.828
				C35.489,54.104,36.195,55.01,36.992,55.826z"/>
		</g>
		<g>
			<path style="fill:#FFFFFF;" d="M47.4,60.1c-7.995,0-14.5-6.505-14.5-14.5s6.505-14.5,14.5-14.5s14.5,6.505,14.5,14.5
				S55.396,60.1,47.4,60.1z"/>
		</g>
		<g>
			<path style="fill:#E8A099;" d="M47.5,30.988c8.012,0,14.512,6.5,14.512,14.512s-6.5,14.512-14.512,14.512
				c-8.041,0-14.512-6.561-14.512-14.512C32.988,37.488,39.488,30.988,47.5,30.988 M47.5,29C38.402,29,31,36.402,31,45.5
				C31,54.599,38.402,62,47.5,62S64,54.599,64,45.5C64,36.402,56.598,29,47.5,29L47.5,29z"/>
		</g>
		<g>
			<circle style="fill:#E54B44;" cx="47.4" cy="45.6" r="11.558"/>
		</g>
		<g>
			<path style="fill:#FF6C5E;" d="M47.4,34.042c-6.383,0-11.558,5.175-11.558,11.558c0,3.158,1.27,6.018,3.323,8.104l16.339-16.339
				C53.418,35.312,50.559,34.042,47.4,34.042z"/>
		</g>
	</g>
</g>
<g id="R-Red" style="display:none;">
	<g style="display:inline;">
		<circle style="fill:#FABBAF;" cx="55" cy="55" r="55"/>
	</g>
	<g style="display:inline;">
		<g>
			<rect x="37" y="27" style="fill:#FFFFFF;" width="50" height="60"/>
		</g>
		<g>
			<path style="fill:#FF6C5E;" d="M65.725,73c0,4.419,3.581,8,8,8c4.418,0,8.415-3.601,8-8c-0.423-4.476-3.894-8.042-8-8
				C69.306,65.046,65.725,68.582,65.725,73z"/>
		</g>
		<g>
			<path style="fill:#C23023;" d="M65.725,73c0,4.42,3.58,8,8,8c3.359,0,6.233-2.066,7.42-5l-14.78-6.153
				C65.951,70.814,65.725,71.88,65.725,73z"/>
		</g>
		<g>
			<path style="fill:#FFD7D4;" d="M65.712,73.003c0,2.82,1.46,5.3,3.667,6.727l4.327-6.82l-7.353-3.06
				C65.938,70.816,65.712,71.884,65.712,73.003z"/>
		</g>
		<g>
			<path style="fill:#B84E44;" d="M66.364,69.847l7.36,3.067V65C70.424,65,67.591,67,66.364,69.847z"/>
		</g>
		<g>
			<rect x="77" y="40" style="fill:#E54B44;" width="4" height="18"/>
		</g>
		<g>
			<rect x="69.712" y="48" style="fill:#FF6C5E;" width="4" height="10"/>
		</g>
		<g>
			<circle style="fill:#FF6C5E;" cx="60.333" cy="68.167" r="1.5"/>
		</g>
		<g>
			<rect x="46.712" y="67.667" style="fill:#FFD7D4;" width="10" height="1"/>
		</g>
		<g>
			<circle style="fill:#FF6C5E;" cx="60.333" cy="73.333" r="1.5"/>
		</g>
		<g>
			<rect x="46.712" y="72.833" style="fill:#FFD7D4;" width="10" height="1"/>
		</g>
		<g>
			<circle style="fill:#FF6C5E;" cx="60.333" cy="78.5" r="1.5"/>
		</g>
		<g>
			<rect x="46.712" y="78" style="fill:#FFD7D4;" width="10" height="1"/>
		</g>
		<g>
			<path style="fill:#4A1410;" d="M39.742,58.021L28.944,68.819c-1.345,1.344-3.522,1.344-4.867,0c-1.344-1.345-1.344-3.522,0-4.867
				l10.822-10.822C36.098,55.126,37.758,56.805,39.742,58.021z"/>
		</g>
		<g>
			<path style="fill:#7D261E;" d="M36.992,55.826L24.041,68.776c-1.308-1.344-1.296-3.491,0.03-4.824l10.828-10.828
				C35.489,54.104,36.195,55.01,36.992,55.826z"/>
		</g>
		<g>
			<path style="fill:#FFFFFF;" d="M47.4,60.1c-7.995,0-14.5-6.505-14.5-14.5s6.505-14.5,14.5-14.5s14.5,6.505,14.5,14.5
				S55.396,60.1,47.4,60.1z"/>
		</g>
		<g>
			<path style="fill:#E8A099;" d="M47.5,30.988c8.012,0,14.512,6.5,14.512,14.512s-6.5,14.512-14.512,14.512
				c-8.041,0-14.512-6.561-14.512-14.512C32.988,37.488,39.488,30.988,47.5,30.988 M47.5,29C38.402,29,31,36.402,31,45.5
				C31,54.599,38.402,62,47.5,62S64,54.599,64,45.5C64,36.402,56.598,29,47.5,29L47.5,29z"/>
		</g>
		<g>
			<circle style="fill:#E54B44;" cx="47.4" cy="45.6" r="11.558"/>
		</g>
		<g>
			<path style="fill:#FF6C5E;" d="M47.4,34.042c-6.383,0-11.558,5.175-11.558,11.558c0,3.158,1.27,6.018,3.323,8.104l16.339-16.339
				C53.418,35.312,50.559,34.042,47.4,34.042z"/>
		</g>
	</g>
</g>
<g id="Yellow" style="display:none;">
	<g style="display:inline;">
		<g>
			<rect x="37" y="27" style="fill:#FFFFFF;" width="50" height="60"/>
		</g>
		<g>
			<path style="fill:#FFAA00;" d="M65.725,73c0,4.419,3.581,8,8,8c4.418,0,8.415-3.601,8-8c-0.423-4.476-3.894-8.042-8-8
				C69.306,65.046,65.725,68.582,65.725,73z"/>
		</g>
		<g>
			<path style="fill:#E07000;" d="M65.725,73c0,4.42,3.58,8,8,8c3.359,0,6.233-2.066,7.42-5l-14.78-6.153
				C65.951,70.814,65.725,71.88,65.725,73z"/>
		</g>
		<g>
			<path style="fill:#FFE9A1;" d="M65.712,73.003c0,2.82,1.46,5.3,3.667,6.727l4.327-6.82l-7.353-3.06
				C65.938,70.816,65.712,71.884,65.712,73.003z"/>
		</g>
		<g>
			<path style="fill:#947615;" d="M66.364,69.847l7.36,3.067V65C70.424,65,67.591,67,66.364,69.847z"/>
		</g>
		<g>
			<rect x="77" y="40" style="fill:#FA9200;" width="4" height="18"/>
		</g>
		<g>
			<rect x="69.712" y="48" style="fill:#FFAA00;" width="4" height="10"/>
		</g>
		<g>
			<circle style="fill:#FFAA00;" cx="60.333" cy="68.167" r="1.5"/>
		</g>
		<g>
			<rect x="46.712" y="67.667" style="fill:#FFE9A1;" width="10" height="1"/>
		</g>
		<g>
			<circle style="fill:#FFAA00;" cx="60.333" cy="73.333" r="1.5"/>
		</g>
		<g>
			<rect x="46.712" y="72.833" style="fill:#FFE9A1;" width="10" height="1"/>
		</g>
		<g>
			<circle style="fill:#FFAA00;" cx="60.333" cy="78.5" r="1.5"/>
		</g>
		<g>
			<rect x="46.712" y="78" style="fill:#FFE9A1;" width="10" height="1"/>
		</g>
		<g>
			<path style="fill:#3D320C;" d="M39.742,58.021L28.944,68.819c-1.345,1.344-3.522,1.344-4.867,0c-1.344-1.345-1.344-3.522,0-4.867
				l10.822-10.822C36.098,55.126,37.758,56.805,39.742,58.021z"/>
		</g>
		<g>
			<path style="fill:#66510D;" d="M36.992,55.826L24.041,68.776c-1.308-1.344-1.296-3.491,0.03-4.824l10.828-10.828
				C35.489,54.104,36.195,55.01,36.992,55.826z"/>
		</g>
		<g>
			<path style="fill:#FFFFFF;" d="M47.4,60.1c-7.995,0-14.5-6.505-14.5-14.5s6.505-14.5,14.5-14.5s14.5,6.505,14.5,14.5
				S55.396,60.1,47.4,60.1z"/>
		</g>
		<g>
			<path style="fill:#F5C43D;" d="M47.5,30.988c8.012,0,14.512,6.5,14.512,14.512s-6.5,14.512-14.512,14.512
				c-8.041,0-14.512-6.561-14.512-14.512C32.988,37.488,39.488,30.988,47.5,30.988 M47.5,29C38.402,29,31,36.402,31,45.5
				C31,54.599,38.402,62,47.5,62S64,54.599,64,45.5C64,36.402,56.598,29,47.5,29L47.5,29z"/>
		</g>
		<g>
			<circle style="fill:#FA9200;" cx="47.4" cy="45.6" r="11.558"/>
		</g>
		<g>
			<path style="fill:#FFAA00;" d="M47.4,34.042c-6.383,0-11.558,5.175-11.558,11.558c0,3.158,1.27,6.018,3.323,8.104l16.339-16.339
				C53.418,35.312,50.559,34.042,47.4,34.042z"/>
		</g>
	</g>
</g>
<g id="R-Yellow" style="display:none;">
	<g style="display:inline;">
		<circle style="fill:#FFD75E;" cx="55" cy="55" r="55"/>
	</g>
	<g style="display:inline;">
		<g>
			<rect x="37" y="27" style="fill:#FFFFFF;" width="50" height="60"/>
		</g>
		<g>
			<path style="fill:#FFAA00;" d="M65.725,73c0,4.419,3.581,8,8,8c4.418,0,8.415-3.601,8-8c-0.423-4.476-3.893-8.042-8-8
				C69.306,65.046,65.725,68.582,65.725,73z"/>
		</g>
		<g>
			<path style="fill:#E07000;" d="M65.725,73c0,4.42,3.58,8,8,8c3.359,0,6.233-2.066,7.42-5l-14.78-6.153
				C65.951,70.814,65.725,71.88,65.725,73z"/>
		</g>
		<g>
			<path style="fill:#FFE9A1;" d="M65.712,73.003c0,2.82,1.46,5.3,3.666,6.727l4.327-6.82l-7.353-3.06
				C65.938,70.816,65.712,71.884,65.712,73.003z"/>
		</g>
		<g>
			<path style="fill:#947615;" d="M66.364,69.847l7.36,3.067V65C70.424,65,67.591,67,66.364,69.847z"/>
		</g>
		<g>
			<rect x="77" y="40" style="fill:#FA9200;" width="4" height="18"/>
		</g>
		<g>
			<rect x="69.712" y="48" style="fill:#FFAA00;" width="4" height="10"/>
		</g>
		<g>
			<circle style="fill:#FFAA00;" cx="60.333" cy="68.167" r="1.5"/>
		</g>
		<g>
			<rect x="46.712" y="67.667" style="fill:#FFE9A1;" width="10" height="1"/>
		</g>
		<g>
			<circle style="fill:#FFAA00;" cx="60.333" cy="73.333" r="1.5"/>
		</g>
		<g>
			<rect x="46.712" y="72.833" style="fill:#FFE9A1;" width="10" height="1"/>
		</g>
		<g>
			<circle style="fill:#FFAA00;" cx="60.333" cy="78.5" r="1.5"/>
		</g>
		<g>
			<rect x="46.712" y="78" style="fill:#FFE9A1;" width="10" height="1"/>
		</g>
		<g>
			<path style="fill:#3D320C;" d="M39.742,58.021L28.944,68.819c-1.345,1.344-3.522,1.344-4.867,0c-1.344-1.345-1.344-3.522,0-4.867
				l10.822-10.822C36.098,55.126,37.758,56.805,39.742,58.021z"/>
		</g>
		<g>
			<path style="fill:#66510D;" d="M36.992,55.826L24.041,68.776c-1.308-1.344-1.296-3.491,0.03-4.824l10.828-10.828
				C35.489,54.104,36.195,55.01,36.992,55.826z"/>
		</g>
		<g>
			<path style="fill:#FFFFFF;" d="M47.4,60.1c-7.995,0-14.5-6.505-14.5-14.5s6.505-14.5,14.5-14.5s14.5,6.505,14.5,14.5
				S55.395,60.1,47.4,60.1z"/>
		</g>
		<g>
			<path style="fill:#F5C43D;" d="M47.5,30.988c8.012,0,14.512,6.5,14.512,14.512s-6.5,14.512-14.512,14.512
				c-8.041,0-14.512-6.561-14.512-14.512C32.988,37.488,39.488,30.988,47.5,30.988 M47.5,29C38.402,29,31,36.402,31,45.5
				C31,54.599,38.402,62,47.5,62S64,54.599,64,45.5C64,36.402,56.598,29,47.5,29L47.5,29z"/>
		</g>
		<g>
			<circle style="fill:#FA9200;" cx="47.4" cy="45.6" r="11.558"/>
		</g>
		<g>
			<path style="fill:#FFAA00;" d="M47.4,34.042c-6.383,0-11.558,5.175-11.558,11.558c0,3.158,1.27,6.018,3.323,8.104l16.339-16.339
				C53.418,35.312,50.559,34.042,47.4,34.042z"/>
		</g>
	</g>
</g>
</svg>
