<?xml version="1.0" encoding="iso-8859-1"?>
<!-- Generator: Adobe Illustrator 17.1.0, SVG Export Plug-In . SVG Version: 6.00 Build 0)  -->
<!DOCTYPE svg PUBLIC "-//W3C//DTD SVG 1.0//EN" "http://www.w3.org/TR/2001/REC-SVG-20010904/DTD/svg10.dtd">
<svg version="1.0" xmlns="http://www.w3.org/2000/svg" xmlns:xlink="http://www.w3.org/1999/xlink" x="0px" y="0px" width="110px"
	 height="110px" viewBox="0 0 110 110" style="enable-background:new 0 0 110 110;" xml:space="preserve">
<g id="Artboard" style="display:none;">
	<rect x="-175" y="-52" style="display:inline;fill:#8C8C8C;" width="1245" height="215"/>
</g>
<g id="R-Multicolor" style="display:none;">
	<circle style="display:inline;fill:#E04F5F;" cx="55" cy="55" r="55"/>
	<g style="display:inline;">
		<path style="fill:#FACB1B;" d="M78.5,71c-3.4-2.8-7.5-7.55-7.5-28c0,0,0-1.8-0.93-4c-1.46-3.49-5.26-8-15.07-8
			s-13.61,4.51-15.07,8C39,41.2,39,43,39,43c0,20.45-4.1,25.2-7.5,28c-2.43,2-4.5,3.01-4.5,8h28h28C83,74.01,80.93,73,78.5,71z"/>
		<path style="fill:#FBEC9A;" d="M55,79H27c0-4.99,2.07-6,4.5-8c3.4-2.8,7.5-7.55,7.5-28c0,0,0-1.8,0.93-4c1.46-3.49,5.26-8,15.07-8
			V79z"/>
		<circle style="fill:#FBE158;" cx="55" cy="27" r="4"/>
		<path style="fill:#FACB1B;" d="M39.015,42.685c0.071-1,0.364-2.381,0.915-3.685H55v4H39C39,43,39,42.888,39.015,42.685z"/>
		<path style="fill:#F3B607;" d="M70.985,42.685c-0.071-1-0.364-2.381-0.915-3.685H55v4h16C71,43,71,42.888,70.985,42.685z"/>
		<path style="fill:#F3B607;" d="M78.5,71H55v8h28C83,74.01,80.93,73,78.5,71z"/>
		<path style="fill:#FACB1B;" d="M31.5,71H55v8H27C27,74.01,29.07,73,31.5,71z"/>
		<path style="fill:#FBE158;" d="M55,87c4.418,0,8-3.582,8-8H47C47,83.418,50.582,87,55,87z"/>
	</g>
</g>
<g id="Multicolor">
	<g>
		<path style="fill:#FACB1B;" d="M78.5,71c-3.4-2.8-7.5-7.55-7.5-28c0,0,0-1.8-0.93-4c-1.46-3.49-5.26-8-15.07-8
			s-13.61,4.51-15.07,8C39,41.2,39,43,39,43c0,20.45-4.1,25.2-7.5,28c-2.43,2-4.5,3.01-4.5,8h28h28C83,74.01,80.93,73,78.5,71z"/>
		<path style="fill:#FBEC9A;" d="M55,79H27c0-4.99,2.07-6,4.5-8c3.4-2.8,7.5-7.55,7.5-28c0,0,0-1.8,0.93-4c1.46-3.49,5.26-8,15.07-8
			V79z"/>
		<circle style="fill:#FBE158;" cx="55" cy="27" r="4"/>
		<path style="fill:#FACB1B;" d="M39.015,42.685c0.071-1,0.364-2.381,0.915-3.685H55v4H39C39,43,39,42.888,39.015,42.685z"/>
		<path style="fill:#F3B607;" d="M70.985,42.685c-0.071-1-0.364-2.381-0.915-3.685H55v4h16C71,43,71,42.888,70.985,42.685z"/>
		<path style="fill:#F3B607;" d="M78.5,71H55v8h28C83,74.01,80.93,73,78.5,71z"/>
		<path style="fill:#FACB1B;" d="M31.5,71H55v8H27C27,74.01,29.07,73,31.5,71z"/>
		<path style="fill:#FBE158;" d="M55,87c4.418,0,8-3.582,8-8H47C47,83.418,50.582,87,55,87z"/>
	</g>
</g>
<g id="Blue" style="display:none;">
	<g style="display:inline;">
		<g>
			<path style="fill:#E1F5FA;" d="M78.5,71c-3.4-2.8-7.5-7.55-7.5-28c0,0,0-1.8-0.93-4c-1.46-3.49-5.26-8-15.07-8
				s-13.61,4.51-15.07,8C39,41.2,39,43,39,43c0,20.45-4.1,25.2-7.5,28c-2.43,2-4.5,3.01-4.5,8h28h28C83,74.01,80.93,73,78.5,71z"/>
		</g>
		<g>
			<path style="fill:#FFFFFF;" d="M55,79H27c0-4.99,2.07-6,4.5-8c3.4-2.8,7.5-7.55,7.5-28c0,0,0-1.8,0.93-4
				c1.46-3.49,5.26-8,15.07-8V79z"/>
		</g>
		<g>
			<circle style="fill:#FFFFFF;" cx="55" cy="27" r="4"/>
		</g>
		<g>
			<path style="fill:#E1F5FA;" d="M39.015,42.685c0.07-1,0.364-2.381,0.915-3.685H55v4H39C39,43,39,42.888,39.015,42.685z"/>
		</g>
		<g>
			<path style="fill:#BBE7F2;" d="M70.985,42.685c-0.07-1-0.364-2.381-0.915-3.685H55v4h16C71,43,71,42.888,70.985,42.685z"/>
		</g>
		<g>
			<path style="fill:#BBE7F2;" d="M78.5,71H55v8h28C83,74.01,80.93,73,78.5,71z"/>
		</g>
		<g>
			<path style="fill:#E1F5FA;" d="M31.5,71H55v8H27C27,74.01,29.07,73,31.5,71z"/>
		</g>
		<g>
			<path style="fill:#0081A1;" d="M55,87c4.418,0,8-3.581,8-8H47C47,83.419,50.581,87,55,87z"/>
		</g>
	</g>
</g>
<g id="R-Blue" style="display:none;">
	<g style="display:inline;">
		<circle style="fill:#81D2EB;" cx="55" cy="55" r="55"/>
	</g>
	<g style="display:inline;">
		<g>
			<path style="fill:#E1F5FA;" d="M78.5,71c-3.4-2.8-7.5-7.55-7.5-28c0,0,0-1.8-0.93-4c-1.46-3.49-5.26-8-15.07-8
				s-13.61,4.51-15.07,8C39,41.2,39,43,39,43c0,20.45-4.1,25.2-7.5,28c-2.43,2-4.5,3.01-4.5,8h28h28C83,74.01,80.93,73,78.5,71z"/>
		</g>
		<g>
			<path style="fill:#FFFFFF;" d="M55,79H27c0-4.99,2.07-6,4.5-8c3.4-2.8,7.5-7.55,7.5-28c0,0,0-1.8,0.93-4
				c1.46-3.49,5.26-8,15.07-8V79z"/>
		</g>
		<g>
			<circle style="fill:#FFFFFF;" cx="55" cy="27" r="4"/>
		</g>
		<g>
			<path style="fill:#E1F5FA;" d="M39.015,42.685c0.07-1,0.364-2.381,0.915-3.685H55v4H39C39,43,39,42.888,39.015,42.685z"/>
		</g>
		<g>
			<path style="fill:#BBE7F2;" d="M70.985,42.685c-0.07-1-0.364-2.381-0.915-3.685H55v4h16C71,43,71,42.888,70.985,42.685z"/>
		</g>
		<g>
			<path style="fill:#BBE7F2;" d="M78.5,71H55v8h28C83,74.01,80.93,73,78.5,71z"/>
		</g>
		<g>
			<path style="fill:#E1F5FA;" d="M31.5,71H55v8H27C27,74.01,29.07,73,31.5,71z"/>
		</g>
		<g>
			<path style="fill:#0081A1;" d="M55,87c4.418,0,8-3.581,8-8H47C47,83.419,50.582,87,55,87z"/>
		</g>
	</g>
</g>
<g id="Green" style="display:none;">
	<g style="display:inline;">
		<g>
			<path style="fill:#D7FCF9;" d="M78.5,71c-3.4-2.8-7.5-7.55-7.5-28c0,0,0-1.8-0.93-4c-1.46-3.49-5.26-8-15.07-8
				s-13.61,4.51-15.07,8C39,41.2,39,43,39,43c0,20.45-4.1,25.2-7.5,28c-2.43,2-4.5,3.01-4.5,8h28h28C83,74.01,80.93,73,78.5,71z"/>
		</g>
		<g>
			<path style="fill:#FFFFFF;" d="M55,79H27c0-4.99,2.07-6,4.5-8c3.4-2.8,7.5-7.55,7.5-28c0,0,0-1.8,0.93-4
				c1.46-3.49,5.26-8,15.07-8V79z"/>
		</g>
		<g>
			<circle style="fill:#FFFFFF;" cx="55" cy="27" r="4"/>
		</g>
		<g>
			<path style="fill:#D7FCF9;" d="M39.015,42.685c0.07-1,0.364-2.381,0.915-3.685H55v4H39C39,43,39,42.888,39.015,42.685z"/>
		</g>
		<g>
			<path style="fill:#AAF0E9;" d="M70.985,42.685c-0.07-1-0.364-2.381-0.915-3.685H55v4h16C71,43,71,42.888,70.985,42.685z"/>
		</g>
		<g>
			<path style="fill:#AAF0E9;" d="M78.5,71H55v8h28C83,74.01,80.93,73,78.5,71z"/>
		</g>
		<g>
			<path style="fill:#D7FCF9;" d="M31.5,71H55v8H27C27,74.01,29.07,73,31.5,71z"/>
		</g>
		<g>
			<path style="fill:#009687;" d="M55,87c4.418,0,8-3.581,8-8H47C47,83.419,50.582,87,55,87z"/>
		</g>
	</g>
</g>
<g id="R-Green" style="display:none;">
	<g style="display:inline;">
		<circle style="fill:#87E0C8;" cx="55" cy="55" r="55"/>
	</g>
	<g style="display:inline;">
		<g>
			<path style="fill:#D7FCF9;" d="M78.5,71c-3.4-2.8-7.5-7.55-7.5-28c0,0,0-1.8-0.93-4c-1.46-3.49-5.26-8-15.07-8
				s-13.61,4.51-15.07,8C39,41.2,39,43,39,43c0,20.45-4.1,25.2-7.5,28c-2.43,2-4.5,3.01-4.5,8h28h28C83,74.01,80.93,73,78.5,71z"/>
		</g>
		<g>
			<path style="fill:#FFFFFF;" d="M55,79H27c0-4.99,2.07-6,4.5-8c3.4-2.8,7.5-7.55,7.5-28c0,0,0-1.8,0.93-4
				c1.46-3.49,5.26-8,15.07-8V79z"/>
		</g>
		<g>
			<circle style="fill:#FFFFFF;" cx="55" cy="27" r="4"/>
		</g>
		<g>
			<path style="fill:#D7FCF9;" d="M39.015,42.685c0.07-1,0.364-2.381,0.915-3.685H55v4H39C39,43,39,42.888,39.015,42.685z"/>
		</g>
		<g>
			<path style="fill:#AAF0E9;" d="M70.985,42.685c-0.07-1-0.364-2.381-0.915-3.685H55v4h16C71,43,71,42.888,70.985,42.685z"/>
		</g>
		<g>
			<path style="fill:#AAF0E9;" d="M78.5,71H55v8h28C83,74.01,80.93,73,78.5,71z"/>
		</g>
		<g>
			<path style="fill:#D7FCF9;" d="M31.5,71H55v8H27C27,74.01,29.07,73,31.5,71z"/>
		</g>
		<g>
			<path style="fill:#009687;" d="M55,87c4.418,0,8-3.581,8-8H47C47,83.419,50.582,87,55,87z"/>
		</g>
	</g>
</g>
<g id="Red" style="display:none;">
	<g style="display:inline;">
		<g>
			<path style="fill:#FFEFED;" d="M78.5,71c-3.4-2.8-7.5-7.55-7.5-28c0,0,0-1.8-0.93-4c-1.46-3.49-5.26-8-15.07-8
				s-13.61,4.51-15.07,8C39,41.2,39,43,39,43c0,20.45-4.1,25.2-7.5,28c-2.43,2-4.5,3.01-4.5,8h28h28C83,74.01,80.93,73,78.5,71z"/>
		</g>
		<g>
			<path style="fill:#FFFFFF;" d="M55,79H27c0-4.99,2.07-6,4.5-8c3.4-2.8,7.5-7.55,7.5-28c0,0,0-1.8,0.93-4
				c1.46-3.49,5.26-8,15.07-8V79z"/>
		</g>
		<g>
			<circle style="fill:#FFFFFF;" cx="55" cy="27" r="4"/>
		</g>
		<g>
			<path style="fill:#FFEFED;" d="M39.015,42.685c0.07-1,0.364-2.381,0.915-3.685H55v4H39C39,43,39,42.888,39.015,42.685z"/>
		</g>
		<g>
			<path style="fill:#FFD7D4;" d="M70.985,42.685c-0.07-1-0.364-2.381-0.915-3.685H55v4h16C71,43,71,42.888,70.985,42.685z"/>
		</g>
		<g>
			<path style="fill:#FFD7D4;" d="M78.5,71H55v8h28C83,74.01,80.93,73,78.5,71z"/>
		</g>
		<g>
			<path style="fill:#FFEFED;" d="M31.5,71H55v8H27C27,74.01,29.07,73,31.5,71z"/>
		</g>
		<g>
			<path style="fill:#C23023;" d="M55,87c4.418,0,8-3.581,8-8H47C47,83.419,50.582,87,55,87z"/>
		</g>
	</g>
</g>
<g id="R-Red" style="display:none;">
	<g style="display:inline;">
		<circle style="fill:#FABBAF;" cx="55" cy="55" r="55"/>
	</g>
	<g style="display:inline;">
		<g>
			<path style="fill:#FFEFED;" d="M78.5,71c-3.4-2.8-7.5-7.55-7.5-28c0,0,0-1.8-0.93-4c-1.46-3.49-5.26-8-15.07-8
				s-13.61,4.51-15.07,8C39,41.2,39,43,39,43c0,20.45-4.1,25.2-7.5,28c-2.43,2-4.5,3.01-4.5,8h28h28C83,74.01,80.93,73,78.5,71z"/>
		</g>
		<g>
			<path style="fill:#FFFFFF;" d="M55,79H27c0-4.99,2.07-6,4.5-8c3.4-2.8,7.5-7.55,7.5-28c0,0,0-1.8,0.93-4
				c1.46-3.49,5.26-8,15.07-8V79z"/>
		</g>
		<g>
			<circle style="fill:#FFFFFF;" cx="55" cy="27" r="4"/>
		</g>
		<g>
			<path style="fill:#FFEFED;" d="M39.015,42.685c0.07-1,0.364-2.381,0.915-3.685H55v4H39C39,43,39,42.888,39.015,42.685z"/>
		</g>
		<g>
			<path style="fill:#FFD7D4;" d="M70.985,42.685c-0.07-1-0.364-2.381-0.915-3.685H55v4h16C71,43,71,42.888,70.985,42.685z"/>
		</g>
		<g>
			<path style="fill:#FFD7D4;" d="M78.5,71H55v8h28C83,74.01,80.93,73,78.5,71z"/>
		</g>
		<g>
			<path style="fill:#FFEFED;" d="M31.5,71H55v8H27C27,74.01,29.07,73,31.5,71z"/>
		</g>
		<g>
			<path style="fill:#C23023;" d="M55,87c4.418,0,8-3.581,8-8H47C47,83.419,50.582,87,55,87z"/>
		</g>
	</g>
</g>
<g id="Yellow" style="display:none;">
	<g style="display:inline;">
		<g>
			<path style="fill:#FFF5D9;" d="M78.5,71c-3.4-2.8-7.5-7.55-7.5-28c0,0,0-1.8-0.93-4c-1.46-3.49-5.26-8-15.07-8
				s-13.61,4.51-15.07,8C39,41.2,39,43,39,43c0,20.45-4.1,25.2-7.5,28c-2.43,2-4.5,3.01-4.5,8h28h28C83,74.01,80.93,73,78.5,71z"/>
		</g>
		<g>
			<path style="fill:#FFFFFF;" d="M55,79H27c0-4.99,2.07-6,4.5-8c3.4-2.8,7.5-7.55,7.5-28c0,0,0-1.8,0.93-4
				c1.46-3.49,5.26-8,15.07-8V79z"/>
		</g>
		<g>
			<circle style="fill:#FFFFFF;" cx="55" cy="27" r="4"/>
		</g>
		<g>
			<path style="fill:#FFF5D9;" d="M39.015,42.685c0.07-1,0.364-2.381,0.915-3.685H55v4H39C39,43,39,42.888,39.015,42.685z"/>
		</g>
		<g>
			<path style="fill:#FFE9A1;" d="M70.985,42.685c-0.07-1-0.364-2.381-0.915-3.685H55v4h16C71,43,71,42.888,70.985,42.685z"/>
		</g>
		<g>
			<path style="fill:#FFE9A1;" d="M78.5,71H55v8h28C83,74.01,80.93,73,78.5,71z"/>
		</g>
		<g>
			<path style="fill:#FFF5D9;" d="M31.5,71H55v8H27C27,74.01,29.07,73,31.5,71z"/>
		</g>
		<g>
			<path style="fill:#E07000;" d="M55,87c4.418,0,8-3.581,8-8H47C47,83.419,50.582,87,55,87z"/>
		</g>
	</g>
</g>
<g id="R-Yellow" style="display:none;">
	<g style="display:inline;">
		<circle style="fill:#FFD75E;" cx="55" cy="55" r="55"/>
	</g>
	<g style="display:inline;">
		<g>
			<path style="fill:#FFF5D9;" d="M78.5,71c-3.4-2.8-7.5-7.55-7.5-28c0,0,0-1.8-0.93-4c-1.46-3.49-5.26-8-15.07-8
				s-13.61,4.51-15.07,8C39,41.2,39,43,39,43c0,20.45-4.1,25.2-7.5,28c-2.43,2-4.5,3.01-4.5,8h28h28C83,74.01,80.93,73,78.5,71z"/>
		</g>
		<g>
			<path style="fill:#FFFFFF;" d="M55,79H27c0-4.99,2.07-6,4.5-8c3.4-2.8,7.5-7.55,7.5-28c0,0,0-1.8,0.93-4
				c1.46-3.49,5.26-8,15.07-8V79z"/>
		</g>
		<g>
			<circle style="fill:#FFFFFF;" cx="55" cy="27" r="4"/>
		</g>
		<g>
			<path style="fill:#FFF5D9;" d="M39.015,42.685c0.07-1,0.364-2.381,0.915-3.685H55v4H39C39,43,39,42.888,39.015,42.685z"/>
		</g>
		<g>
			<path style="fill:#FFE9A1;" d="M70.985,42.685c-0.07-1-0.364-2.381-0.915-3.685H55v4h16C71,43,71,42.888,70.985,42.685z"/>
		</g>
		<g>
			<path style="fill:#FFE9A1;" d="M78.5,71H55v8h28C83,74.01,80.93,73,78.5,71z"/>
		</g>
		<g>
			<path style="fill:#FFF5D9;" d="M31.5,71H55v8H27C27,74.01,29.07,73,31.5,71z"/>
		</g>
		<g>
			<path style="fill:#E07000;" d="M55,87c4.418,0,8-3.581,8-8H47C47,83.419,50.581,87,55,87z"/>
		</g>
	</g>
</g>
</svg>
