<?xml version="1.0" encoding="iso-8859-1"?>
<!-- Generator: Adobe Illustrator 17.1.0, SVG Export Plug-In . SVG Version: 6.00 Build 0)  -->
<!DOCTYPE svg PUBLIC "-//W3C//DTD SVG 1.0//EN" "http://www.w3.org/TR/2001/REC-SVG-20010904/DTD/svg10.dtd">
<svg version="1.0" xmlns="http://www.w3.org/2000/svg" xmlns:xlink="http://www.w3.org/1999/xlink" x="0px" y="0px" width="110px"
	 height="110px" viewBox="0 0 110 110" style="enable-background:new 0 0 110 110;" xml:space="preserve">
<g id="Artboard" style="display:none;">
	<rect x="-65.5" y="-431.5" style="display:inline;fill:#808080;stroke:#000000;stroke-miterlimit:10;" width="1367" height="592"/>
</g>
<g id="R-Multicolor" style="display:none;">
	<circle style="display:inline;fill:#FABC3D;" cx="55" cy="55" r="55"/>
	<g style="display:inline;">
		<g>
			<path style="fill:#F0F1F1;" d="M79,71c0,1.38-0.26,2.72-0.76,4C75.58,81.9,66.18,87,55,87s-20.58-5.1-23.24-12
				c-0.5-1.28-0.76-2.62-0.76-4H79z"/>
		</g>
		<g>
			<path style="fill:#FFFFFF;" d="M31,71c0,1.38,0.26,2.72,0.76,4C34.42,81.9,43.82,87,55,87V71H31z"/>
		</g>
		<g>
			<path style="fill:#099686;" d="M85.209,38.804c3.994-5.28-6.898-14.919-19.094-10.28C61.568,25.19,57.555,23,52.054,23
				c-7.869,0-14.616,4.799-17.479,11.629c-1.924-0.251-4.346,1.462-4.346,4.109c0,0.006,0.001,0.011,0.001,0.016
				C26.28,38.569,23,40.486,23,42.869c0,3.96,8.213,5.639,12.077,2.476C37.196,46.369,40.022,47,43.138,47
				c5.646,0,10.362-2.057,11.568-4.812C56.413,44.99,60.985,47,66.374,47c2.879,0,6.138-0.628,8.648-2.056
				C80.883,50.034,88.984,45.008,85.209,38.804z"/>
		</g>
		<g>
			<path style="fill:#099686;" d="M76.804,56.143C73.739,55.52,71,57.091,71,59c0,1.93,2.771,3.474,5.804,2.857
				C80.584,64.325,87,62.535,87,59C87,55.465,80.583,53.676,76.804,56.143z"/>
		</g>
		<g>
			<path style="fill:#84462D;" d="M71.041,59.392L63,61c3.392-2.261,6.544-4.522,8.237-6.784c0.5-0.667,0.533-1.575,0.084-2.277
				l-1.987-3.105c-0.212-0.53-0.187-1.126,0.068-1.637l0.241-0.482C68.597,46.885,67.513,47,66.374,47
				c-1.704,0-3.325-0.202-4.8-0.565c0.488,1.125,1.88,2.96,1.426,3.565c-0.531,0.708-7.881-0.458-11.286-4.922
				c-0.953,0.521-2.076,0.956-3.326,1.278C50.271,51.201,57.168,52.385,59,53c2.018,0.678-2.075,3.163-7.124,6.748
				c-0.608,0.432-1.408,0.49-2.072,0.15c-0.794-0.407-1.451-0.813-1.997-1.22c-0.719,0.642-1.689,1.217-2.83,1.668
				c0.708,0.801,1.668,1.702,2.676,2.553C44.598,65.332,41.696,68.08,40,71h20c0-6.416,8.998-8.971,12.564-9.732
				C71.75,60.797,71.188,60.136,71.041,59.392z"/>
		</g>
		<g>
			<path style="fill:#099686;" d="M49.145,55.805c-0.367-2.04-3.637-3.184-7.474-2.698c-4.403-2.24-11.655-0.882-12.573,2.276
				C26.668,55.962,25,57.139,25,58.5c0,1.933,3.358,3.5,7.5,3.5c1.939,0,3.7-0.346,5.031-0.91c1.375,0.296,3.042,0.323,4.797,0.007
				C46.484,60.349,49.537,57.979,49.145,55.805z"/>
		</g>
		<g>
			<path style="fill:#E2E4E5;" d="M79,71c0,1.38-0.26,2.72-0.76,4H31.76c-0.5-1.28-0.76-2.62-0.76-4H79z"/>
		</g>
		<g>
			<path style="fill:#12B2A0;" d="M66.115,28.523C61.568,25.189,57.555,23,52.054,23c-7.869,0-14.616,4.799-17.479,11.629
				c-1.924-0.251-4.346,1.461-4.346,4.109c0,0.006,0.001,0.011,0.001,0.016C26.28,38.569,23,40.486,23,42.869
				c0,3.959,8.213,5.639,12.077,2.476c0.527,0.255,1.099,0.486,1.708,0.688l31.448-18.157
				C67.519,28.048,66.811,28.259,66.115,28.523z"/>
		</g>
		<g>
			<path style="fill:#F0F1F1;" d="M55,71H31c0,1.38,0.26,2.72,0.76,4H55V71z"/>
		</g>
	</g>
</g>
<g id="Multicolor_1_">
	<g>
		<g>
			<path style="fill:#F0F1F1;" d="M79,71c0,1.38-0.26,2.72-0.76,4C75.58,81.9,66.18,87,55,87s-20.58-5.1-23.24-12
				c-0.5-1.28-0.76-2.62-0.76-4H79z"/>
		</g>
		<g>
			<path style="fill:#FFFFFF;" d="M31,71c0,1.38,0.26,2.72,0.76,4C34.42,81.9,43.82,87,55,87V71H31z"/>
		</g>
		<g>
			<path style="fill:#099686;" d="M85.209,38.804c3.994-5.28-6.898-14.919-19.094-10.28C61.568,25.19,57.555,23,52.054,23
				c-7.869,0-14.616,4.799-17.479,11.629c-1.924-0.251-4.346,1.462-4.346,4.109c0,0.006,0.001,0.011,0.001,0.016
				C26.28,38.569,23,40.486,23,42.869c0,3.96,8.213,5.639,12.077,2.476C37.196,46.369,40.022,47,43.138,47
				c5.646,0,10.362-2.057,11.568-4.812C56.413,44.99,60.985,47,66.374,47c2.879,0,6.138-0.628,8.648-2.056
				C80.883,50.034,88.984,45.008,85.209,38.804z"/>
		</g>
		<g>
			<path style="fill:#099686;" d="M76.804,56.143C73.739,55.52,71,57.091,71,59c0,1.93,2.771,3.474,5.804,2.857
				C80.584,64.325,87,62.535,87,59C87,55.465,80.583,53.676,76.804,56.143z"/>
		</g>
		<g>
			<path style="fill:#84462D;" d="M71.041,59.392L63,61c3.392-2.261,6.544-4.522,8.237-6.784c0.5-0.667,0.533-1.575,0.084-2.277
				l-1.987-3.105c-0.212-0.53-0.187-1.126,0.068-1.637l0.241-0.482C68.597,46.885,67.513,47,66.374,47
				c-1.704,0-3.325-0.202-4.8-0.565c0.488,1.125,1.88,2.96,1.426,3.565c-0.531,0.708-7.881-0.458-11.286-4.922
				c-0.953,0.521-2.076,0.956-3.326,1.278C50.271,51.201,57.168,52.385,59,53c2.018,0.678-2.075,3.163-7.124,6.748
				c-0.608,0.432-1.408,0.49-2.072,0.15c-0.794-0.407-1.451-0.813-1.997-1.22c-0.719,0.642-1.689,1.217-2.83,1.668
				c0.708,0.801,1.668,1.702,2.676,2.553C44.598,65.332,41.696,68.08,40,71h20c0-6.416,8.998-8.971,12.564-9.732
				C71.75,60.797,71.188,60.136,71.041,59.392z"/>
		</g>
		<g>
			<path style="fill:#099686;" d="M49.145,55.805c-0.367-2.04-3.637-3.184-7.474-2.698c-4.403-2.24-11.655-0.882-12.573,2.276
				C26.668,55.962,25,57.139,25,58.5c0,1.933,3.358,3.5,7.5,3.5c1.939,0,3.7-0.346,5.031-0.91c1.375,0.296,3.042,0.323,4.797,0.007
				C46.484,60.349,49.537,57.979,49.145,55.805z"/>
		</g>
		<g>
			<path style="fill:#E2E4E5;" d="M79,71c0,1.38-0.26,2.72-0.76,4H31.76c-0.5-1.28-0.76-2.62-0.76-4H79z"/>
		</g>
		<g>
			<path style="fill:#12B2A0;" d="M66.115,28.523C61.568,25.189,57.555,23,52.054,23c-7.869,0-14.616,4.799-17.479,11.629
				c-1.924-0.251-4.346,1.461-4.346,4.109c0,0.006,0.001,0.011,0.001,0.016C26.28,38.569,23,40.486,23,42.869
				c0,3.959,8.213,5.639,12.077,2.476c0.527,0.255,1.099,0.486,1.708,0.688l31.448-18.157
				C67.519,28.048,66.811,28.259,66.115,28.523z"/>
		</g>
		<g>
			<path style="fill:#F0F1F1;" d="M55,71H31c0,1.38,0.26,2.72,0.76,4H55V71z"/>
		</g>
	</g>
</g>
<g id="Blue" style="display:none;">
	<g style="display:inline;">
		<g>
			<path style="fill:#E1F5FA;" d="M79,70.894c0,1.38-0.26,2.72-0.76,4c-2.66,6.9-12.061,12-23.24,12s-20.58-5.1-23.24-12
				c-0.5-1.28-0.76-2.62-0.76-4H79z"/>
		</g>
		<g>
			<path style="fill:#FFFFFF;" d="M31,70.894c0,1.38,0.26,2.72,0.76,4c2.66,6.9,12.061,12,23.24,12v-16H31z"/>
		</g>
		<g>
			<path style="fill:#0081A1;" d="M85.209,38.698c3.994-5.28-6.898-14.919-19.094-10.28c-4.547-3.334-8.56-5.524-14.061-5.524
				c-7.87,0-14.616,4.799-17.479,11.629c-1.924-0.251-4.347,1.461-4.347,4.109c0,0.006,0.002,0.011,0.002,0.016
				C26.28,38.463,23,40.38,23,42.763c0,3.96,8.213,5.639,12.077,2.476c2.119,1.024,4.945,1.655,8.061,1.655
				c5.646,0,10.362-2.057,11.568-4.812c1.707,2.802,6.279,4.812,11.667,4.812c2.879,0,6.138-0.628,8.648-2.056
				C80.883,49.929,88.984,44.902,85.209,38.698z"/>
		</g>
		<g>
			<path style="fill:#0081A1;" d="M76.804,56.037C73.739,55.414,71,56.985,71,58.894c0,1.93,2.771,3.474,5.804,2.857
				C80.584,64.219,87,62.429,87,58.894C87,55.359,80.583,53.57,76.804,56.037z"/>
		</g>
		<g>
			<path style="fill:#0C333D;" d="M71.042,59.286L63,60.894c3.392-2.261,6.544-4.522,8.237-6.784c0.5-0.667,0.533-1.575,0.084-2.277
				l-1.987-3.105c-0.212-0.53-0.188-1.126,0.068-1.637l0.241-0.482c-1.045,0.17-2.13,0.285-3.269,0.285
				c-1.703,0-3.324-0.202-4.8-0.565c0.488,1.125,1.88,2.96,1.426,3.565c-0.531,0.708-7.881-0.458-11.287-4.922
				c-0.953,0.521-2.076,0.956-3.326,1.278c1.883,4.844,8.781,6.028,10.612,6.644c2.018,0.678-2.075,3.163-7.124,6.748
				c-0.608,0.432-1.408,0.491-2.072,0.15c-0.794-0.407-1.451-0.813-1.997-1.22c-0.719,0.642-1.688,1.217-2.83,1.668
				c0.708,0.801,1.668,1.702,2.676,2.553c-3.056,2.433-5.958,5.181-7.654,8.101h20c0-6.416,8.998-8.971,12.564-9.732
				C71.751,60.691,71.188,60.03,71.042,59.286z"/>
		</g>
		<g>
			<path style="fill:#0081A1;" d="M49.145,55.699c-0.367-2.04-3.637-3.184-7.474-2.698c-4.403-2.24-11.654-0.882-12.573,2.276
				C26.668,55.856,25,57.033,25,58.394c0,1.933,3.358,3.5,7.5,3.5c1.938,0,3.7-0.346,5.031-0.91
				c1.375,0.296,3.042,0.323,4.797,0.007C46.484,60.243,49.537,57.874,49.145,55.699z"/>
		</g>
		<g>
			<path style="fill:#BBE7F2;" d="M79,70.894c0,1.38-0.26,2.72-0.76,4H31.76c-0.5-1.28-0.76-2.62-0.76-4H79z"/>
		</g>
		<g>
			<path style="fill:#009FC7;" d="M66.115,28.417c-4.547-3.334-8.56-5.523-14.061-5.523c-7.869,0-14.616,4.799-17.479,11.629
				c-1.924-0.251-4.347,1.461-4.347,4.109c0,0.006,0.002,0.011,0.002,0.016C26.28,38.463,23,40.38,23,42.763
				c0,3.96,8.213,5.639,12.077,2.476c0.527,0.255,1.099,0.486,1.708,0.688l31.448-18.157C67.519,27.942,66.811,28.153,66.115,28.417
				z"/>
		</g>
		<g>
			<path style="fill:#E1F5FA;" d="M55,70.894H31c0,1.38,0.26,2.72,0.76,4H55V70.894z"/>
		</g>
	</g>
</g>
<g id="R-Blue" style="display:none;">
	<circle style="display:inline;fill:#81D2EB;" cx="55" cy="55" r="55"/>
	<g style="display:inline;">
		<g>
			<path style="fill:#E1F5FA;" d="M79,71c0,1.38-0.26,2.72-0.76,4C75.58,81.9,66.18,87,55,87s-20.58-5.1-23.24-12
				c-0.5-1.28-0.76-2.62-0.76-4H79z"/>
		</g>
		<g>
			<path style="fill:#FFFFFF;" d="M31,71c0,1.38,0.26,2.72,0.76,4C34.42,81.9,43.82,87,55,87V71H31z"/>
		</g>
		<g>
			<path style="fill:#0081A1;" d="M85.209,38.804c3.994-5.28-6.898-14.919-19.094-10.28C61.568,25.19,57.555,23,52.054,23
				c-7.87,0-14.616,4.799-17.479,11.629c-1.924-0.251-4.347,1.461-4.347,4.109c0,0.006,0.002,0.011,0.002,0.016
				C26.28,38.569,23,40.486,23,42.869c0,3.96,8.213,5.639,12.077,2.476C37.196,46.369,40.021,47,43.138,47
				c5.646,0,10.362-2.057,11.568-4.812C56.413,44.99,60.985,47,66.373,47c2.879,0,6.138-0.628,8.648-2.056
				C80.883,50.035,88.984,45.008,85.209,38.804z"/>
		</g>
		<g>
			<path style="fill:#0081A1;" d="M76.804,56.143C73.739,55.52,71,57.091,71,59c0,1.93,2.771,3.474,5.804,2.857
				C80.584,64.325,87,62.535,87,59C87,55.465,80.583,53.676,76.804,56.143z"/>
		</g>
		<g>
			<path style="fill:#0C333D;" d="M71.042,59.392L63,61c3.392-2.261,6.544-4.522,8.237-6.784c0.5-0.667,0.533-1.575,0.084-2.277
				l-1.987-3.105c-0.212-0.53-0.188-1.126,0.068-1.637l0.241-0.482C68.597,46.885,67.513,47,66.373,47
				c-1.703,0-3.324-0.202-4.8-0.565c0.488,1.125,1.88,2.96,1.426,3.565c-0.531,0.708-7.881-0.458-11.287-4.922
				c-0.953,0.521-2.076,0.956-3.326,1.278C50.271,51.201,57.168,52.385,59,53c2.018,0.678-2.075,3.163-7.124,6.748
				c-0.608,0.432-1.408,0.491-2.072,0.15c-0.794-0.407-1.451-0.813-1.997-1.22c-0.719,0.642-1.688,1.217-2.83,1.668
				c0.708,0.801,1.668,1.702,2.676,2.553C44.598,65.331,41.696,68.08,40,71h20c0-6.415,8.998-8.971,12.564-9.732
				C71.751,60.797,71.188,60.136,71.042,59.392z"/>
		</g>
		<g>
			<path style="fill:#0081A1;" d="M49.145,55.805c-0.367-2.04-3.637-3.184-7.474-2.698c-4.403-2.24-11.654-0.882-12.573,2.276
				C26.668,55.962,25,57.139,25,58.5c0,1.933,3.358,3.5,7.5,3.5c1.938,0,3.7-0.346,5.031-0.91c1.375,0.296,3.042,0.323,4.797,0.007
				C46.484,60.349,49.537,57.979,49.145,55.805z"/>
		</g>
		<g>
			<path style="fill:#BBE7F2;" d="M79,71c0,1.38-0.26,2.72-0.76,4H31.76c-0.5-1.28-0.76-2.62-0.76-4H79z"/>
		</g>
		<g>
			<path style="fill:#009FC7;" d="M66.115,28.523C61.568,25.19,57.555,23,52.054,23c-7.869,0-14.616,4.799-17.479,11.629
				c-1.924-0.251-4.347,1.461-4.347,4.109c0,0.006,0.002,0.011,0.002,0.016C26.28,38.569,23,40.486,23,42.869
				c0,3.96,8.213,5.639,12.077,2.476c0.527,0.255,1.099,0.486,1.708,0.688l31.448-18.157C67.519,28.048,66.811,28.259,66.115,28.523
				z"/>
		</g>
		<g>
			<path style="fill:#E1F5FA;" d="M55,71H31c0,1.38,0.26,2.72,0.76,4H55V71z"/>
		</g>
	</g>
</g>
<g id="Green" style="display:none;">
	<g style="display:inline;">
		<g>
			<path style="fill:#D7FCF9;" d="M79,70.894c0,1.38-0.26,2.72-0.76,4c-2.66,6.9-12.061,12-23.24,12s-20.58-5.1-23.24-12
				c-0.5-1.28-0.76-2.62-0.76-4H79z"/>
		</g>
		<g>
			<path style="fill:#FFFFFF;" d="M31,70.894c0,1.38,0.26,2.72,0.76,4c2.66,6.9,12.061,12,23.24,12v-16H31z"/>
		</g>
		<g>
			<path style="fill:#009687;" d="M85.209,38.698c3.994-5.28-6.898-14.919-19.094-10.28c-4.547-3.334-8.56-5.524-14.061-5.524
				c-7.87,0-14.616,4.799-17.479,11.629c-1.924-0.251-4.347,1.461-4.347,4.109c0,0.006,0.002,0.011,0.002,0.016
				C26.28,38.463,23,40.38,23,42.763c0,3.96,8.213,5.639,12.077,2.476c2.119,1.024,4.945,1.655,8.061,1.655
				c5.646,0,10.362-2.057,11.568-4.812c1.707,2.802,6.279,4.812,11.667,4.812c2.879,0,6.138-0.628,8.648-2.056
				C80.883,49.929,88.984,44.902,85.209,38.698z"/>
		</g>
		<g>
			<path style="fill:#009687;" d="M76.804,56.037C73.739,55.414,71,56.985,71,58.894c0,1.93,2.771,3.474,5.804,2.857
				C80.584,64.219,87,62.429,87,58.894C87,55.359,80.583,53.57,76.804,56.037z"/>
		</g>
		<g>
			<path style="fill:#0A3631;" d="M71.042,59.286L63,60.894c3.392-2.261,6.544-4.523,8.237-6.784c0.5-0.667,0.533-1.575,0.084-2.277
				l-1.987-3.105c-0.212-0.53-0.188-1.126,0.068-1.637l0.241-0.482c-1.045,0.17-2.13,0.285-3.269,0.285
				c-1.703,0-3.324-0.202-4.8-0.565c0.488,1.125,1.88,2.96,1.426,3.565c-0.531,0.708-7.881-0.458-11.287-4.922
				c-0.953,0.521-2.076,0.956-3.326,1.278c1.883,4.844,8.781,6.028,10.612,6.644c2.018,0.678-2.075,3.163-7.124,6.748
				c-0.608,0.432-1.408,0.491-2.072,0.15c-0.794-0.407-1.451-0.813-1.997-1.22c-0.719,0.642-1.688,1.217-2.83,1.668
				c0.708,0.801,1.668,1.702,2.676,2.553c-3.056,2.433-5.958,5.181-7.654,8.101h20c0-6.415,8.998-8.971,12.564-9.732
				C71.751,60.691,71.188,60.03,71.042,59.286z"/>
		</g>
		<g>
			<path style="fill:#009687;" d="M49.145,55.699c-0.367-2.04-3.637-3.184-7.474-2.698c-4.403-2.24-11.654-0.882-12.573,2.276
				C26.668,55.856,25,57.033,25,58.394c0,1.933,3.358,3.5,7.5,3.5c1.938,0,3.7-0.346,5.031-0.91
				c1.375,0.296,3.042,0.323,4.797,0.007C46.484,60.243,49.537,57.874,49.145,55.699z"/>
		</g>
		<g>
			<path style="fill:#AAF0E9;" d="M79,70.894c0,1.38-0.26,2.72-0.76,4H31.76c-0.5-1.28-0.76-2.62-0.76-4H79z"/>
		</g>
		<g>
			<path style="fill:#00B8A5;" d="M66.115,28.417c-4.547-3.334-8.56-5.523-14.061-5.523c-7.869,0-14.616,4.799-17.479,11.629
				c-1.924-0.251-4.347,1.461-4.347,4.109c0,0.006,0.002,0.011,0.002,0.016C26.28,38.463,23,40.38,23,42.763
				c0,3.959,8.213,5.639,12.077,2.476c0.527,0.255,1.099,0.486,1.708,0.688l31.448-18.157
				C67.519,27.942,66.811,28.153,66.115,28.417z"/>
		</g>
		<g>
			<path style="fill:#D7FCF9;" d="M55,70.894H31c0,1.38,0.26,2.72,0.76,4H55V70.894z"/>
		</g>
	</g>
</g>
<g id="R-Green" style="display:none;">
	<circle style="display:inline;fill:#77E0C4;" cx="55" cy="55" r="55"/>
	<g style="display:inline;">
		<g>
			<path style="fill:#D7FCF9;" d="M79,71c0,1.38-0.26,2.72-0.76,4C75.58,81.9,66.18,87,55,87s-20.58-5.1-23.24-12
				c-0.5-1.28-0.76-2.62-0.76-4H79z"/>
		</g>
		<g>
			<path style="fill:#FFFFFF;" d="M31,71c0,1.38,0.26,2.72,0.76,4C34.42,81.9,43.82,87,55,87V71H31z"/>
		</g>
		<g>
			<path style="fill:#009687;" d="M85.208,38.804c3.994-5.28-6.898-14.919-19.094-10.28C61.568,25.19,57.555,23,52.054,23
				c-7.87,0-14.616,4.799-17.479,11.629c-1.924-0.251-4.347,1.461-4.347,4.109c0,0.006,0.002,0.011,0.002,0.016
				C26.28,38.569,23,40.486,23,42.869c0,3.96,8.213,5.639,12.077,2.476C37.196,46.369,40.021,47,43.138,47
				c5.646,0,10.362-2.057,11.568-4.812C56.413,44.99,60.985,47,66.373,47c2.879,0,6.138-0.628,8.648-2.056
				C80.883,50.035,88.984,45.008,85.208,38.804z"/>
		</g>
		<g>
			<path style="fill:#009687;" d="M76.804,56.143C73.739,55.52,71,57.091,71,59c0,1.93,2.771,3.474,5.804,2.857
				C80.583,64.325,87,62.535,87,59S80.582,53.676,76.804,56.143z"/>
		</g>
		<g>
			<path style="fill:#0A3631;" d="M71.041,59.392L63,61c3.392-2.261,6.544-4.522,8.237-6.784c0.5-0.667,0.533-1.575,0.084-2.277
				l-1.987-3.105c-0.212-0.53-0.188-1.126,0.068-1.637l0.241-0.482C68.597,46.885,67.513,47,66.373,47
				c-1.703,0-3.324-0.202-4.8-0.565c0.488,1.125,1.88,2.96,1.426,3.565c-0.531,0.708-7.881-0.458-11.287-4.922
				c-0.953,0.522-2.076,0.956-3.326,1.278C50.271,51.201,57.168,52.385,59,53c2.018,0.678-2.075,3.163-7.124,6.748
				c-0.608,0.432-1.408,0.491-2.072,0.15c-0.794-0.407-1.451-0.813-1.997-1.22c-0.719,0.642-1.688,1.217-2.83,1.668
				c0.708,0.801,1.668,1.702,2.676,2.553C44.598,65.331,41.696,68.08,40,71h20c0-6.415,8.998-8.971,12.564-9.732
				C71.751,60.797,71.188,60.136,71.041,59.392z"/>
		</g>
		<g>
			<path style="fill:#009687;" d="M49.145,55.805c-0.367-2.04-3.637-3.184-7.474-2.698c-4.403-2.24-11.654-0.882-12.573,2.276
				C26.667,55.962,25,57.139,25,58.5c0,1.933,3.358,3.5,7.5,3.5c1.938,0,3.7-0.346,5.031-0.91c1.375,0.296,3.042,0.323,4.797,0.007
				C46.484,60.349,49.537,57.979,49.145,55.805z"/>
		</g>
		<g>
			<path style="fill:#AAF0E9;" d="M79,71c0,1.38-0.26,2.72-0.76,4H31.76c-0.5-1.28-0.76-2.62-0.76-4H79z"/>
		</g>
		<g>
			<path style="fill:#00B8A5;" d="M66.115,28.523C61.568,25.19,57.555,23,52.054,23c-7.869,0-14.616,4.799-17.479,11.629
				c-1.924-0.251-4.347,1.461-4.347,4.109c0,0.006,0.002,0.011,0.002,0.016C26.28,38.569,23,40.486,23,42.869
				c0,3.96,8.213,5.639,12.077,2.476c0.527,0.255,1.099,0.486,1.708,0.688l31.448-18.157C67.519,28.048,66.811,28.259,66.115,28.523
				z"/>
		</g>
		<g>
			<path style="fill:#D7FCF9;" d="M55,71H31c0,1.38,0.26,2.72,0.76,4H55V71z"/>
		</g>
	</g>
</g>
<g id="Red" style="display:none;">
	<g style="display:inline;">
		<g>
			<path style="fill:#FFEFED;" d="M79,70.894c0,1.38-0.26,2.72-0.76,4c-2.66,6.9-12.06,12-23.24,12s-20.58-5.1-23.24-12
				c-0.5-1.28-0.76-2.62-0.76-4H79z"/>
		</g>
		<g>
			<path style="fill:#FFFFFF;" d="M31,70.894c0,1.38,0.26,2.72,0.76,4c2.66,6.9,12.061,12,23.24,12v-16H31z"/>
		</g>
		<g>
			<path style="fill:#C23023;" d="M85.209,38.698c3.994-5.28-6.898-14.919-19.094-10.28c-4.547-3.334-8.56-5.524-14.061-5.524
				c-7.87,0-14.616,4.799-17.479,11.629c-1.924-0.251-4.347,1.461-4.347,4.109c0,0.006,0.002,0.011,0.002,0.016
				C26.28,38.463,23,40.38,23,42.763c0,3.96,8.213,5.639,12.077,2.476c2.119,1.024,4.945,1.655,8.061,1.655
				c5.646,0,10.362-2.057,11.568-4.812c1.707,2.802,6.279,4.812,11.667,4.812c2.879,0,6.138-0.628,8.648-2.056
				C80.883,49.929,88.984,44.902,85.209,38.698z"/>
		</g>
		<g>
			<path style="fill:#C23023;" d="M76.804,56.037C73.739,55.414,71,56.985,71,58.894c0,1.93,2.771,3.474,5.804,2.857
				C80.584,64.219,87,62.429,87,58.894C87,55.359,80.582,53.57,76.804,56.037z"/>
		</g>
		<g>
			<path style="fill:#4A1410;" d="M71.041,59.286L63,60.894c3.392-2.261,6.544-4.523,8.237-6.784c0.5-0.667,0.533-1.575,0.084-2.277
				l-1.987-3.105c-0.212-0.53-0.188-1.126,0.068-1.637l0.241-0.482c-1.045,0.17-2.13,0.285-3.269,0.285
				c-1.703,0-3.324-0.202-4.8-0.565c0.488,1.124,1.88,2.96,1.426,3.565c-0.531,0.708-7.881-0.458-11.287-4.922
				c-0.953,0.521-2.076,0.956-3.326,1.278c1.883,4.844,8.781,6.028,10.612,6.644c2.018,0.678-2.075,3.163-7.124,6.748
				c-0.608,0.432-1.408,0.491-2.072,0.15c-0.794-0.407-1.451-0.813-1.997-1.22c-0.719,0.642-1.688,1.217-2.83,1.668
				c0.708,0.801,1.668,1.702,2.676,2.553c-3.056,2.433-5.958,5.181-7.654,8.101h20c0-6.415,8.998-8.971,12.564-9.732
				C71.751,60.691,71.188,60.03,71.041,59.286z"/>
		</g>
		<g>
			<path style="fill:#C23023;" d="M49.145,55.699c-0.367-2.04-3.637-3.184-7.474-2.698c-4.403-2.24-11.654-0.882-12.573,2.276
				C26.667,55.856,25,57.033,25,58.394c0,1.933,3.358,3.5,7.5,3.5c1.938,0,3.7-0.346,5.031-0.91
				c1.375,0.296,3.042,0.323,4.797,0.007C46.484,60.243,49.537,57.874,49.145,55.699z"/>
		</g>
		<g>
			<path style="fill:#FFD7D4;" d="M79,70.894c0,1.38-0.26,2.72-0.76,4H31.76c-0.5-1.28-0.76-2.62-0.76-4H79z"/>
		</g>
		<g>
			<path style="fill:#E54B44;" d="M66.115,28.417c-4.547-3.334-8.56-5.523-14.061-5.523c-7.869,0-14.616,4.799-17.479,11.629
				c-1.924-0.251-4.347,1.461-4.347,4.109c0,0.006,0.002,0.011,0.002,0.016C26.28,38.463,23,40.38,23,42.763
				c0,3.959,8.213,5.639,12.077,2.476c0.527,0.255,1.099,0.486,1.708,0.688l31.448-18.157
				C67.519,27.942,66.811,28.153,66.115,28.417z"/>
		</g>
		<g>
			<path style="fill:#FFEFED;" d="M55,70.894H31c0,1.38,0.26,2.72,0.76,4H55V70.894z"/>
		</g>
	</g>
</g>
<g id="R-Red" style="display:none;">
	<circle style="display:inline;fill:#FABBAF;" cx="55" cy="55" r="55"/>
	<g style="display:inline;">
		<g>
			<path style="fill:#FFEFED;" d="M79,71c0,1.38-0.26,2.72-0.76,4C75.58,81.9,66.18,87,55,87s-20.58-5.1-23.24-12
				c-0.5-1.28-0.76-2.62-0.76-4H79z"/>
		</g>
		<g>
			<path style="fill:#FFFFFF;" d="M31,71c0,1.38,0.26,2.72,0.76,4C34.42,81.9,43.82,87,55,87V71H31z"/>
		</g>
		<g>
			<path style="fill:#C23023;" d="M85.209,38.804c3.994-5.28-6.898-14.919-19.094-10.28C61.568,25.19,57.555,23,52.054,23
				c-7.87,0-14.616,4.799-17.479,11.629c-1.924-0.251-4.347,1.461-4.347,4.109c0,0.006,0.002,0.011,0.002,0.016
				C26.28,38.569,23,40.486,23,42.869c0,3.96,8.213,5.639,12.077,2.476C37.196,46.369,40.021,47,43.138,47
				c5.646,0,10.362-2.057,11.568-4.812C56.413,44.99,60.985,47,66.373,47c2.879,0,6.138-0.628,8.648-2.056
				C80.883,50.035,88.984,45.008,85.209,38.804z"/>
		</g>
		<g>
			<path style="fill:#C23023;" d="M76.804,56.143C73.739,55.52,71,57.091,71,59c0,1.93,2.771,3.474,5.804,2.857
				C80.584,64.325,87,62.535,87,59S80.582,53.676,76.804,56.143z"/>
		</g>
		<g>
			<path style="fill:#4A1410;" d="M71.041,59.392L63,61c3.392-2.261,6.544-4.522,8.237-6.784c0.5-0.667,0.533-1.575,0.084-2.277
				l-1.987-3.105c-0.212-0.53-0.188-1.126,0.068-1.637l0.241-0.482C68.597,46.885,67.513,47,66.373,47
				c-1.703,0-3.324-0.202-4.8-0.565c0.488,1.125,1.88,2.96,1.426,3.565c-0.531,0.708-7.881-0.458-11.287-4.922
				c-0.953,0.522-2.076,0.956-3.326,1.278C50.271,51.201,57.168,52.385,59,53c2.018,0.678-2.075,3.163-7.124,6.748
				c-0.608,0.432-1.408,0.491-2.072,0.15c-0.794-0.407-1.451-0.813-1.997-1.22c-0.719,0.642-1.688,1.217-2.83,1.668
				c0.708,0.801,1.668,1.702,2.676,2.553C44.598,65.331,41.696,68.08,40,71h20c0-6.415,8.998-8.971,12.564-9.732
				C71.751,60.797,71.188,60.136,71.041,59.392z"/>
		</g>
		<g>
			<path style="fill:#C23023;" d="M49.145,55.805c-0.367-2.04-3.637-3.184-7.474-2.698c-4.403-2.24-11.654-0.882-12.573,2.276
				C26.667,55.962,25,57.139,25,58.5c0,1.933,3.358,3.5,7.5,3.5c1.938,0,3.7-0.346,5.031-0.91c1.375,0.296,3.042,0.323,4.797,0.007
				C46.484,60.349,49.537,57.979,49.145,55.805z"/>
		</g>
		<g>
			<path style="fill:#FFD7D4;" d="M79,71c0,1.38-0.26,2.72-0.76,4H31.76c-0.5-1.28-0.76-2.62-0.76-4H79z"/>
		</g>
		<g>
			<path style="fill:#E54B44;" d="M66.115,28.523C61.568,25.19,57.555,23,52.054,23c-7.869,0-14.616,4.799-17.479,11.629
				c-1.924-0.251-4.347,1.461-4.347,4.109c0,0.006,0.002,0.011,0.002,0.016C26.28,38.569,23,40.486,23,42.869
				c0,3.96,8.213,5.639,12.077,2.476c0.527,0.255,1.099,0.486,1.708,0.688l31.448-18.157C67.519,28.048,66.811,28.259,66.115,28.523
				z"/>
		</g>
		<g>
			<path style="fill:#FFEFED;" d="M55,71H31c0,1.38,0.26,2.72,0.76,4H55V71z"/>
		</g>
	</g>
</g>
<g id="Yellow" style="display:none;">
	<g style="display:inline;">
		<g>
			<path style="fill:#FFF5D9;" d="M79,71c0,1.38-0.26,2.72-0.76,4C75.58,81.9,66.18,87,55,87s-20.58-5.1-23.24-12
				c-0.5-1.28-0.76-2.62-0.76-4H79z"/>
		</g>
		<g>
			<path style="fill:#FFFFFF;" d="M31,71c0,1.38,0.26,2.72,0.76,4C34.42,81.9,43.82,87,55,87V71H31z"/>
		</g>
		<g>
			<path style="fill:#E07000;" d="M85.208,38.804c3.994-5.28-6.898-14.919-19.094-10.28C61.568,25.19,57.555,23,52.054,23
				c-7.87,0-14.616,4.799-17.479,11.629c-1.924-0.251-4.347,1.461-4.347,4.109c0,0.006,0.002,0.011,0.002,0.016
				C26.28,38.569,23,40.487,23,42.869c0,3.96,8.213,5.639,12.077,2.476C37.196,46.369,40.021,47,43.138,47
				c5.646,0,10.362-2.057,11.568-4.812C56.413,44.99,60.985,47,66.373,47c2.879,0,6.138-0.628,8.648-2.056
				C80.883,50.035,88.984,45.009,85.208,38.804z"/>
		</g>
		<g>
			<path style="fill:#E07000;" d="M76.804,56.143C73.739,55.52,71,57.091,71,59c0,1.93,2.771,3.474,5.804,2.857
				C80.583,64.325,87,62.535,87,59C87,55.466,80.582,53.676,76.804,56.143z"/>
		</g>
		<g>
			<path style="fill:#3D320C;" d="M71.041,59.392L63,61c3.392-2.261,6.544-4.522,8.237-6.784c0.5-0.667,0.533-1.575,0.084-2.277
				l-1.987-3.105c-0.212-0.53-0.188-1.126,0.068-1.637l0.241-0.482C68.597,46.885,67.513,47,66.373,47
				c-1.703,0-3.324-0.202-4.8-0.565c0.488,1.125,1.88,2.96,1.426,3.565c-0.531,0.708-7.881-0.458-11.287-4.922
				c-0.953,0.521-2.076,0.956-3.326,1.278C50.271,51.201,57.168,52.385,59,53c2.018,0.678-2.075,3.163-7.124,6.748
				c-0.608,0.432-1.408,0.491-2.072,0.15c-0.794-0.407-1.451-0.813-1.997-1.22c-0.719,0.642-1.688,1.217-2.83,1.668
				c0.708,0.801,1.668,1.702,2.676,2.553C44.598,65.332,41.696,68.08,40,71h20c0-6.416,8.998-8.971,12.564-9.732
				C71.751,60.798,71.188,60.136,71.041,59.392z"/>
		</g>
		<g>
			<path style="fill:#E07000;" d="M49.145,55.805c-0.367-2.04-3.637-3.184-7.474-2.698c-4.403-2.24-11.654-0.882-12.573,2.276
				C26.667,55.963,25,57.139,25,58.5c0,1.933,3.358,3.5,7.5,3.5c1.938,0,3.7-0.346,5.031-0.91c1.375,0.296,3.042,0.323,4.797,0.007
				C46.484,60.349,49.537,57.98,49.145,55.805z"/>
		</g>
		<g>
			<path style="fill:#FFE9A1;" d="M79,71c0,1.38-0.26,2.72-0.76,4H31.76c-0.5-1.28-0.76-2.62-0.76-4H79z"/>
		</g>
		<g>
			<path style="fill:#FA9200;" d="M66.115,28.524C61.568,25.19,57.555,23,52.054,23c-7.869,0-14.616,4.799-17.479,11.629
				c-1.924-0.251-4.347,1.461-4.347,4.109c0,0.006,0.002,0.011,0.002,0.016C26.28,38.569,23,40.487,23,42.869
				c0,3.96,8.213,5.639,12.077,2.476c0.527,0.255,1.099,0.486,1.708,0.688l31.448-18.157C67.519,28.048,66.811,28.26,66.115,28.524z
				"/>
		</g>
		<g>
			<path style="fill:#FFF5D9;" d="M55,71H31c0,1.38,0.26,2.72,0.76,4H55V71z"/>
		</g>
	</g>
</g>
<g id="R-Yellow" style="display:none;">
	<circle style="display:inline;fill:#FFD75E;" cx="55" cy="55" r="55"/>
	<g style="display:inline;">
		<g>
			<path style="fill:#FFF5D9;" d="M79,71c0,1.38-0.26,2.72-0.76,4C75.58,81.9,66.18,87,55,87s-20.58-5.1-23.24-12
				c-0.5-1.28-0.76-2.62-0.76-4H79z"/>
		</g>
		<g>
			<path style="fill:#FFFFFF;" d="M31,71c0,1.38,0.26,2.72,0.76,4C34.42,81.9,43.82,87,55,87V71H31z"/>
		</g>
		<g>
			<path style="fill:#E07000;" d="M85.208,38.804c3.994-5.28-6.898-14.919-19.094-10.28C61.568,25.19,57.555,23,52.054,23
				c-7.87,0-14.616,4.799-17.479,11.629c-1.924-0.251-4.347,1.461-4.347,4.109c0,0.006,0.002,0.011,0.002,0.016
				C26.28,38.569,23,40.486,23,42.869c0,3.96,8.213,5.639,12.077,2.476C37.196,46.369,40.021,47,43.138,47
				c5.646,0,10.362-2.057,11.568-4.812C56.413,44.99,60.985,47,66.373,47c2.879,0,6.138-0.628,8.648-2.056
				C80.883,50.035,88.984,45.008,85.208,38.804z"/>
		</g>
		<g>
			<path style="fill:#E07000;" d="M76.804,56.143C73.739,55.52,71,57.091,71,59c0,1.93,2.771,3.474,5.804,2.857
				C80.583,64.325,87,62.535,87,59C87,55.465,80.582,53.676,76.804,56.143z"/>
		</g>
		<g>
			<path style="fill:#3D320C;" d="M71.041,59.392L63,61c3.392-2.261,6.544-4.522,8.237-6.784c0.499-0.667,0.533-1.575,0.083-2.277
				l-1.987-3.105c-0.212-0.53-0.188-1.126,0.068-1.637l0.241-0.482C68.597,46.885,67.513,47,66.373,47
				c-1.703,0-3.324-0.202-4.8-0.565c0.488,1.125,1.88,2.96,1.426,3.565c-0.531,0.708-7.881-0.458-11.287-4.922
				c-0.953,0.521-2.076,0.956-3.326,1.278C50.27,51.201,57.168,52.385,59,53c2.018,0.678-2.075,3.163-7.124,6.748
				c-0.608,0.432-1.408,0.491-2.072,0.15c-0.794-0.407-1.451-0.813-1.997-1.22c-0.719,0.642-1.688,1.217-2.83,1.668
				c0.708,0.801,1.668,1.702,2.676,2.553C44.598,65.331,41.696,68.08,40,71h20c0-6.415,8.998-8.971,12.565-9.732
				C71.75,60.797,71.188,60.136,71.041,59.392z"/>
		</g>
		<g>
			<path style="fill:#E07000;" d="M49.144,55.805c-0.367-2.04-3.637-3.184-7.474-2.698c-4.403-2.24-11.654-0.882-12.573,2.276
				C26.667,55.962,25,57.139,25,58.5c0,1.933,3.358,3.5,7.5,3.5c1.938,0,3.7-0.346,5.031-0.91c1.375,0.296,3.042,0.323,4.797,0.007
				C46.484,60.349,49.537,57.979,49.144,55.805z"/>
		</g>
		<g>
			<path style="fill:#FFE9A1;" d="M79,71c0,1.38-0.26,2.72-0.76,4H31.76c-0.5-1.28-0.76-2.62-0.76-4H79z"/>
		</g>
		<g>
			<path style="fill:#FA9200;" d="M66.115,28.523C61.568,25.19,57.555,23,52.054,23c-7.869,0-14.616,4.799-17.479,11.629
				c-1.924-0.251-4.347,1.461-4.347,4.109c0,0.006,0.002,0.011,0.002,0.016C26.28,38.569,23,40.486,23,42.869
				c0,3.96,8.213,5.639,12.077,2.476c0.527,0.255,1.099,0.486,1.708,0.688l31.448-18.157C67.519,28.048,66.81,28.259,66.115,28.523z
				"/>
		</g>
		<g>
			<path style="fill:#FFF5D9;" d="M55,71H31c0,1.38,0.26,2.72,0.76,4H55V71z"/>
		</g>
	</g>
</g>
</svg>
