<?xml version="1.0" encoding="iso-8859-1"?>
<!-- Generator: Adobe Illustrator 17.1.0, SVG Export Plug-In . SVG Version: 6.00 Build 0)  -->
<!DOCTYPE svg PUBLIC "-//W3C//DTD SVG 1.0//EN" "http://www.w3.org/TR/2001/REC-SVG-20010904/DTD/svg10.dtd">
<svg version="1.0" xmlns="http://www.w3.org/2000/svg" xmlns:xlink="http://www.w3.org/1999/xlink" x="0px" y="0px" width="110px"
	 height="110px" viewBox="0 0 110 110" style="enable-background:new 0 0 110 110;" xml:space="preserve">
<g id="Artboard" style="display:none;">
	<rect x="-826.5" y="-36.5" style="display:inline;fill:#808080;stroke:#000000;stroke-miterlimit:10;" width="1351" height="461"/>
</g>
<g id="R-Multicolor" style="display:none;">
	<g style="display:inline;">
		<circle style="fill:#FABC3D;" cx="55" cy="55" r="55"/>
	</g>
	<g style="display:inline;">
		<g>
			<polygon style="fill:#F1F2F2;" points="55,87 43,67.997 67,67.997 			"/>
		</g>
		<g>
			<path style="fill:#F7B4B4;" d="M59,68.031h-4h-4l-6-3.752v3.218c0,0,0,7.5,10,7.5s10-7.5,10-7.5v-3.219L59,68.031z"/>
		</g>
		<path style="fill:#FBC8C8;" d="M72,47.222C72,46.111,71,45,70,45s-1,1.111-1,1.111V45c-0.018-9-1.024-15-14-15s-13.982,6-14,15
			v7.997l4,10l5.105,3.996c0.569,0.639,1.384,1.004,2.24,1.004H55h2.655c0.856,0,1.671-0.365,2.24-1.004L65,62.997l3.207-8.017
			C71.042,54.776,72,50.476,72,47.222z"/>
		<path style="fill:#FBD7D7;" d="M41,45v1.111c0,0,0-1.111-1-1.111s-2,1.111-2,2.222c0,3.253,0.958,7.554,3.793,7.758L45,62.997
			l5.105,3.996c0.569,0.639,1.384,1.004,2.24,1.004H55V30C42.024,30,41.018,36,41,45z"/>
		<g>
			<polygon style="fill:#FBC8C8;" points="48,60.031 48.011,59.997 46.982,59.997 47,60.031 			"/>
			<path style="fill:#FBC8C8;" d="M55,68.031h-4l-6-3.752v3.218c0,0,0,7.5,10,7.5L55,68.031L55,68.031z"/>
		</g>
		<path style="fill:#692E19;" d="M67.807,34.274c0.098-0.417,0.146-0.84,0.146-1.262c0-2.842-0.908-4.783-12.953-4.972v-0.024
			C54.366,28.006,53.711,28,53.015,28c-12.511,0-13.042,7.98-13.014,9.679c0.003,0.203,0.014,0.322,0.014,0.322s0,5.02,0,7.016
			c0,0.004,0,0.01,0,0.014c0,0,1,2,2,4v7l0.984,6.997l8,5.003h4l0,0h4l8-5.003l0.984-6.997v-7h0.031l2-4V40
			C70.015,38.023,69.275,36.055,67.807,34.274z M62.999,60.031h-1l-2-6h-5l0,0h-5l-2,6h-1l-3-6V37.673
			c3.339,2.246,6.812,2.372,11,2.354v-0.003c2.604-0.012,7.892,0.031,11-2.787v16.792L62.999,60.031z"/>
		<path style="fill:#84462D;" d="M55,40.028V28.016C54.367,28.006,53.712,28,53.016,28c-14,0-13,10-13,10s0,5.031,0,7.031
			c0,0,1,2,2,4v7L43,63.028l8,5.003h4v-14h-5l-2,6h-1l-3-6V37.665C46.189,39.137,47.936,40.055,55,40.028z"/>
		<g>
			<path style="fill:#3E3E3F;" d="M52,46.997c0-1.104-0.896-2-2-2c-0.002,0-0.004,0-0.006,0C49.995,45.019,50,45.039,50,45.06
				c0,1.103-0.892,1.996-1.994,2c0.033,1.075,0.91,1.938,1.994,1.938C51.104,48.997,52,48.102,52,46.997z"/>
		</g>
		<g>
			<path style="fill:#3E3E3F;" d="M61.994,46.997c0-1.104-0.896-2-2-2c-0.002,0-0.004,0-0.006,0
				c0.001,0.021,0.006,0.041,0.006,0.062c0,1.103-0.892,1.996-1.994,2c0.033,1.075,0.91,1.938,1.994,1.938
				C61.098,48.997,61.994,48.102,61.994,46.997z"/>
		</g>
		<g>
			<polygon style="fill:#FFFFFF;" points="43,67.997 45,66.997 54.985,71.978 49,77.997 			"/>
		</g>
		<g>
			<polygon style="fill:#FFFFFF;" points="67,67.997 65,66.997 55.015,71.978 61,77.997 			"/>
		</g>
		<g>
			<polygon style="fill:#099686;" points="59,87 56.201,76.8 58,75.002 54.981,71.978 51.983,74.976 53.801,76.793 51,87 			"/>
		</g>
		<g>
			<polygon style="fill:#12B2A0;" points="55,87 55,71.997 54.981,71.978 51.983,74.976 53.801,76.793 51,87 			"/>
		</g>
		<g>
			<path style="fill:#3E3E3F;" d="M23,87l4-11c0.615-1.333,1.698-2.394,3.043-2.983L43,68l12,19H23z"/>
		</g>
		<g>
			<path style="fill:#3E3E3F;" d="M87,87l-4-11c-0.615-1.333-1.698-2.394-3.043-2.983L67,68L55,87H87z"/>
		</g>
		<g>
			<rect x="66" y="79.997" style="fill:#FFFFFF;" width="10" height="2"/>
		</g>
		<g>
			<path style="fill:#FBC8C8;" d="M51,56.997h8c0,0,0,4.003-4,4.003S51,56.997,51,56.997z"/>
		</g>
	</g>
</g>
<g id="Multicolor">
	<g>
		<g>
			<polygon style="fill:#F1F2F2;" points="55,87 43,67.997 67,67.997 			"/>
		</g>
		<g>
			<path style="fill:#F7B4B4;" d="M59,68.031h-4h-4l-6-3.752v3.218c0,0,0,7.5,10,7.5s10-7.5,10-7.5v-3.219L59,68.031z"/>
		</g>
		<path style="fill:#FBC8C8;" d="M72,47.222C72,46.111,71,45,70,45s-1,1.111-1,1.111V45c-0.018-9-1.024-15-14-15s-13.982,6-14,15
			v7.997l4,10l5.105,3.996c0.569,0.639,1.384,1.004,2.24,1.004H55h2.655c0.856,0,1.671-0.365,2.24-1.004L65,62.997l3.207-8.017
			C71.042,54.776,72,50.476,72,47.222z"/>
		<path style="fill:#FBD7D7;" d="M41,45v1.111c0,0,0-1.111-1-1.111s-2,1.111-2,2.222c0,3.253,0.958,7.554,3.793,7.758L45,62.997
			l5.105,3.996c0.569,0.639,1.384,1.004,2.24,1.004H55V30C42.024,30,41.018,36,41,45z"/>
		<g>
			<polygon style="fill:#FBC8C8;" points="48,60.031 48.011,59.997 46.982,59.997 47,60.031 			"/>
			<path style="fill:#FBC8C8;" d="M55,68.031h-4l-6-3.752v3.218c0,0,0,7.5,10,7.5L55,68.031L55,68.031z"/>
		</g>
		<path style="fill:#692E19;" d="M67.807,34.274c0.098-0.417,0.146-0.84,0.146-1.262c0-2.842-0.908-4.783-12.953-4.972v-0.024
			C54.366,28.006,53.711,28,53.015,28c-12.511,0-13.042,7.98-13.014,9.679c0.003,0.203,0.014,0.322,0.014,0.322s0,5.02,0,7.016
			c0,0.004,0,0.01,0,0.014c0,0,1,2,2,4v7l0.984,6.997l8,5.003h4l0,0h4l8-5.003l0.984-6.997v-7h0.031l2-4V40
			C70.015,38.023,69.275,36.055,67.807,34.274z M62.999,60.031h-1l-2-6h-5l0,0h-5l-2,6h-1l-3-6V37.673
			c3.339,2.246,6.812,2.372,11,2.354v-0.003c2.604-0.012,7.892,0.031,11-2.787v16.792L62.999,60.031z"/>
		<path style="fill:#84462D;" d="M55,40.028V28.016C54.367,28.006,53.712,28,53.016,28c-14,0-13,10-13,10s0,5.031,0,7.031
			c0,0,1,2,2,4v7L43,63.028l8,5.003h4v-14h-5l-2,6h-1l-3-6V37.665C46.189,39.137,47.936,40.055,55,40.028z"/>
		<g>
			<path style="fill:#3E3E3F;" d="M52,46.997c0-1.104-0.896-2-2-2c-0.002,0-0.004,0-0.006,0C49.995,45.019,50,45.039,50,45.06
				c0,1.103-0.892,1.996-1.994,2c0.033,1.075,0.91,1.938,1.994,1.938C51.104,48.997,52,48.102,52,46.997z"/>
		</g>
		<g>
			<path style="fill:#3E3E3F;" d="M61.994,46.997c0-1.104-0.896-2-2-2c-0.002,0-0.004,0-0.006,0
				c0.001,0.021,0.006,0.041,0.006,0.062c0,1.103-0.892,1.996-1.994,2c0.033,1.075,0.91,1.938,1.994,1.938
				C61.098,48.997,61.994,48.102,61.994,46.997z"/>
		</g>
		<g>
			<polygon style="fill:#FFFFFF;" points="43,67.997 45,66.997 54.985,71.978 49,77.997 			"/>
		</g>
		<g>
			<polygon style="fill:#FFFFFF;" points="67,67.997 65,66.997 55.015,71.978 61,77.997 			"/>
		</g>
		<g>
			<polygon style="fill:#099686;" points="59,87 56.201,76.8 58,75.002 54.981,71.978 51.983,74.976 53.801,76.793 51,87 			"/>
		</g>
		<g>
			<polygon style="fill:#12B2A0;" points="55,87 55,71.997 54.981,71.978 51.983,74.976 53.801,76.793 51,87 			"/>
		</g>
		<g>
			<path style="fill:#3E3E3F;" d="M23,87l4-11c0.615-1.333,1.698-2.394,3.043-2.983L43,68l12,19H23z"/>
		</g>
		<g>
			<path style="fill:#3E3E3F;" d="M87,87l-4-11c-0.615-1.333-1.698-2.394-3.043-2.983L67,68L55,87H87z"/>
		</g>
		<g>
			<rect x="66" y="79.997" style="fill:#FFFFFF;" width="10" height="2"/>
		</g>
		<g>
			<path style="fill:#FBC8C8;" d="M51,56.997h8c0,0,0,4.003-4,4.003S51,56.997,51,56.997z"/>
		</g>
	</g>
</g>
<g id="Blue" style="display:none;">
	<g style="display:inline;">
		<g>
			<polygon style="fill:#E1F5FA;" points="55,87 43,67.997 67,67.997 			"/>
		</g>
		<g>
			<path style="fill:#BBE7F2;" d="M58.999,68.031h-4h-4L45,64.279v3.218c0,0,0,7.5,10,7.5s10-7.5,10-7.5v-3.219L58.999,68.031z"/>
		</g>
		<path style="fill:#E1F5FA;" d="M72,47.222C72,46.111,71,45,70,45s-1,1.111-1,1.111V45c-0.018-9-1.024-15-14-15
			c-12.976,0-13.982,6-14,15v7.997l4,10l5.105,3.996c0.569,0.639,1.384,1.004,2.24,1.004H55h2.655c0.856,0,1.671-0.365,2.24-1.004
			L65,62.997l3.206-8.017C71.041,54.776,72,50.476,72,47.222z"/>
		<path style="fill:#FFFFFF;" d="M41,45v1.111c0,0,0-1.111-1-1.111s-2,1.111-2,2.222c0,3.253,0.957,7.554,3.793,7.758L45,62.997
			l5.105,3.996c0.569,0.639,1.384,1.004,2.24,1.004H55V30C42.024,30,41.018,36,41,45z"/>
		<g>
			<polygon style="fill:#E1F5FA;" points="47.999,60.031 48.011,59.997 46.982,59.997 46.999,60.031 			"/>
			<path style="fill:#E1F5FA;" d="M54.999,68.031h-4L45,64.279v3.218c0,0,0,7.5,10,7.5L54.999,68.031L54.999,68.031z"/>
		</g>
		<path style="fill:#0C333D;" d="M67.807,34.274c0.098-0.418,0.146-0.84,0.146-1.262c0-2.842-0.908-4.783-12.953-4.972v-0.024
			C54.366,28.006,53.711,28,53.015,28c-12.511,0-13.042,7.981-13.014,9.679c0.003,0.203,0.014,0.322,0.014,0.322s0,5.02,0,7.016
			c0,0.004,0,0.01,0,0.014c0,0,1,2,2,4v7l0.984,6.997l8,5.003h4l0,0h4l8-5.003l0.984-6.997v-7h0.031l2-4V40
			C70.015,38.023,69.275,36.055,67.807,34.274z M62.999,60.031h-1l-2-6h-5l0,0h-5l-2,6h-1l-3-6V37.673
			c3.339,2.246,6.812,2.372,11,2.355v-0.003c2.604-0.012,7.891,0.031,11-2.787v16.793L62.999,60.031z"/>
		<path style="fill:#0F6175;" d="M55,40.028V28.016C54.367,28.006,53.712,28,53.016,28c-14,0-13,10-13,10s0,5.031,0,7.031
			c0,0,1,2,2,4v7L43,63.028l8,5.003h4v-14h-5l-2,6h-1l-3-6V37.665C46.189,39.137,47.935,40.055,55,40.028z"/>
		<g>
			<path style="fill:#0C333D;" d="M52,46.997c0-1.104-0.896-2-2-2c-0.002,0-0.004,0.001-0.006,0.001
				C49.995,45.019,50,45.039,50,45.06c0,1.102-0.892,1.996-1.994,1.999c0.033,1.075,0.91,1.938,1.994,1.938
				C51.104,48.997,52,48.102,52,46.997z"/>
		</g>
		<g>
			<path style="fill:#0C333D;" d="M61.994,46.997c0-1.104-0.896-2-2-2c-0.002,0-0.004,0.001-0.006,0.001
				c0.001,0.021,0.006,0.041,0.006,0.062c0,1.102-0.892,1.996-1.994,1.999c0.033,1.075,0.91,1.938,1.994,1.938
				C61.098,48.997,61.994,48.102,61.994,46.997z"/>
		</g>
		<g>
			<polygon style="fill:#FFFFFF;" points="43,67.997 45,66.997 54.985,71.978 49,77.997 			"/>
		</g>
		<g>
			<polygon style="fill:#FFFFFF;" points="67,67.997 65,66.997 55.015,71.978 61,77.997 			"/>
		</g>
		<g>
			<polygon style="fill:#009FC7;" points="59,87 56.201,76.8 57.999,75.002 54.981,71.978 51.983,74.976 53.801,76.794 51,87 			"/>
		</g>
		<g>
			<polygon style="fill:#00B7E5;" points="55,87 55,71.997 54.981,71.978 51.983,74.976 53.801,76.794 51,87 			"/>
		</g>
		<g>
			<path style="fill:#0C333D;" d="M23,87l4-11c0.615-1.333,1.698-2.394,3.043-2.982L43,68l12,19H23z"/>
		</g>
		<g>
			<path style="fill:#0C333D;" d="M87,87l-4-11c-0.615-1.333-1.698-2.394-3.043-2.982L67,68L55,87H87z"/>
		</g>
		<g>
			<rect x="66" y="79.997" style="fill:#FFFFFF;" width="10" height="2"/>
		</g>
		<g>
			<path style="fill:#E1F5FA;" d="M51,56.997h8c0,0,0,4.003-4,4.003S51,56.997,51,56.997z"/>
		</g>
	</g>
</g>
<g id="R-Blue" style="display:none;">
	<g style="display:inline;">
		<circle style="fill:#81D2EB;" cx="55" cy="55" r="55"/>
	</g>
	<g style="display:inline;">
		<g>
			<polygon style="fill:#E1F5FA;" points="55,87 43,67.997 67,67.997 			"/>
		</g>
		<g>
			<path style="fill:#BBE7F2;" d="M58.999,68.031h-4h-4L45,64.279v3.218c0,0,0,7.5,10,7.5s10-7.5,10-7.5v-3.219L58.999,68.031z"/>
		</g>
		<path style="fill:#E1F5FA;" d="M72,47.222C72,46.111,71,45,70,45s-1,1.111-1,1.111V45c-0.018-9-1.024-15-14-15
			c-12.976,0-13.982,6-14,15v7.997l4,10l5.105,3.996c0.569,0.639,1.384,1.004,2.24,1.004H55h2.655c0.856,0,1.671-0.365,2.24-1.004
			L65,62.997l3.206-8.017C71.041,54.776,72,50.476,72,47.222z"/>
		<path style="fill:#FFFFFF;" d="M41,45v1.111c0,0,0-1.111-1-1.111s-2,1.111-2,2.222c0,3.253,0.957,7.554,3.793,7.758L45,62.997
			l5.105,3.996c0.569,0.639,1.384,1.004,2.24,1.004H55V30C42.024,30,41.018,36,41,45z"/>
		<g>
			<polygon style="fill:#E1F5FA;" points="47.999,60.031 48.011,59.997 46.982,59.997 46.999,60.031 			"/>
			<path style="fill:#E1F5FA;" d="M54.999,68.031h-4L45,64.279v3.218c0,0,0,7.5,10,7.5L54.999,68.031L54.999,68.031z"/>
		</g>
		<path style="fill:#0C333D;" d="M67.807,34.274c0.098-0.418,0.146-0.84,0.146-1.262c0-2.842-0.908-4.783-12.953-4.972v-0.024
			C54.366,28.006,53.711,28,53.015,28c-12.511,0-13.042,7.981-13.014,9.679c0.003,0.203,0.014,0.322,0.014,0.322s0,5.02,0,7.016
			c0,0.004,0,0.01,0,0.014c0,0,1,2,2,4v7l0.984,6.997l8,5.003h4l0,0h4l8-5.003l0.984-6.997v-7h0.031l2-4V40
			C70.015,38.023,69.275,36.055,67.807,34.274z M62.999,60.031h-1l-2-6h-5l0,0h-5l-2,6h-1l-3-6V37.673
			c3.339,2.246,6.812,2.372,11,2.355v-0.003c2.604-0.012,7.891,0.031,11-2.787v16.793L62.999,60.031z"/>
		<path style="fill:#0F6175;" d="M55,40.028V28.016C54.367,28.006,53.712,28,53.016,28c-14,0-13,10-13,10s0,5.031,0,7.031
			c0,0,1,2,2,4v7L43,63.028l8,5.003h4v-14h-5l-2,6h-1l-3-6V37.665C46.189,39.137,47.935,40.055,55,40.028z"/>
		<g>
			<path style="fill:#0C333D;" d="M52,46.997c0-1.104-0.896-2-2-2c-0.002,0-0.004,0.001-0.006,0.001
				C49.995,45.019,50,45.039,50,45.06c0,1.102-0.892,1.996-1.994,1.999c0.033,1.075,0.91,1.938,1.994,1.938
				C51.104,48.997,52,48.102,52,46.997z"/>
		</g>
		<g>
			<path style="fill:#0C333D;" d="M61.994,46.997c0-1.104-0.896-2-2-2c-0.002,0-0.004,0.001-0.006,0.001
				c0.001,0.021,0.006,0.041,0.006,0.062c0,1.102-0.892,1.996-1.994,1.999c0.033,1.075,0.91,1.938,1.994,1.938
				C61.098,48.997,61.994,48.102,61.994,46.997z"/>
		</g>
		<g>
			<polygon style="fill:#FFFFFF;" points="43,67.997 45,66.997 54.985,71.978 49,77.997 			"/>
		</g>
		<g>
			<polygon style="fill:#FFFFFF;" points="67,67.997 65,66.997 55.015,71.978 61,77.997 			"/>
		</g>
		<g>
			<polygon style="fill:#009FC7;" points="59,87 56.201,76.8 57.999,75.002 54.981,71.978 51.983,74.976 53.801,76.794 51,87 			"/>
		</g>
		<g>
			<polygon style="fill:#00B7E5;" points="55,87 55,71.997 54.981,71.978 51.983,74.976 53.801,76.794 51,87 			"/>
		</g>
		<g>
			<path style="fill:#0C333D;" d="M23,87l4-11c0.615-1.333,1.698-2.394,3.043-2.982L43,68l12,19H23z"/>
		</g>
		<g>
			<path style="fill:#0C333D;" d="M87,87l-4-11c-0.615-1.333-1.698-2.394-3.043-2.982L67,68L55,87H87z"/>
		</g>
		<g>
			<rect x="66" y="79.997" style="fill:#FFFFFF;" width="10" height="2"/>
		</g>
		<g>
			<path style="fill:#E1F5FA;" d="M51,56.997h8c0,0,0,4.003-4,4.003S51,56.997,51,56.997z"/>
		</g>
	</g>
</g>
<g id="Green" style="display:none;">
	<g style="display:inline;">
		<g>
			<polygon style="fill:#D7FCF9;" points="55,87 43,67.997 67,67.997 			"/>
		</g>
		<g>
			<path style="fill:#AAF0E9;" d="M58.999,68.031h-4h-4L45,64.279v3.218c0,0,0,7.5,10,7.5s10-7.5,10-7.5v-3.219L58.999,68.031z"/>
		</g>
		<path style="fill:#D7FCF9;" d="M72,47.222C72,46.111,71,45,70,45s-1,1.111-1,1.111V45c-0.018-9-1.024-15-14-15
			c-12.976,0-13.982,6-14,15v7.997l4,10l5.105,3.996c0.569,0.639,1.384,1.004,2.24,1.004H55h2.655c0.856,0,1.671-0.365,2.24-1.004
			L65,62.997l3.206-8.017C71.041,54.776,72,50.476,72,47.222z"/>
		<path style="fill:#FFFFFF;" d="M41,45v1.111c0,0,0-1.111-1-1.111s-2,1.111-2,2.222c0,3.253,0.957,7.554,3.793,7.758L45,62.997
			l5.105,3.996c0.569,0.639,1.384,1.004,2.24,1.004H55V30C42.024,30,41.018,36,41,45z"/>
		<g>
			<polygon style="fill:#D7FCF9;" points="47.999,60.031 48.011,59.997 46.982,59.997 46.999,60.031 			"/>
			<path style="fill:#D7FCF9;" d="M54.999,68.031h-4L45,64.279v3.218c0,0,0,7.5,10,7.5L54.999,68.031L54.999,68.031z"/>
		</g>
		<path style="fill:#0A3631;" d="M67.807,34.274c0.098-0.418,0.146-0.84,0.146-1.262c0-2.842-0.908-4.783-12.953-4.972v-0.024
			C54.366,28.006,53.711,28,53.015,28c-12.511,0-13.042,7.981-13.014,9.679c0.003,0.203,0.014,0.322,0.014,0.322s0,5.02,0,7.016
			c0,0.004,0,0.01,0,0.014c0,0,1,2,2,4v7l0.984,6.997l8,5.003h4l0,0h4l8-5.003l0.984-6.997v-7h0.031l2-4V40
			C70.015,38.023,69.275,36.055,67.807,34.274z M62.999,60.031h-1l-2-6h-5l0,0h-5l-2,6h-1l-3-6V37.673
			c3.339,2.246,6.812,2.372,11,2.355v-0.003c2.604-0.012,7.891,0.031,11-2.787v16.793L62.999,60.031z"/>
		<path style="fill:#14635B;" d="M55,40.028V28.016C54.367,28.006,53.712,28,53.016,28c-14,0-13,10-13,10s0,5.031,0,7.031
			c0,0,1,2,2,4v7L43,63.028l8,5.003h4v-14h-5l-2,6h-1l-3-6V37.665C46.189,39.137,47.935,40.055,55,40.028z"/>
		<g>
			<path style="fill:#0A3631;" d="M52,46.997c0-1.104-0.896-2-2-2c-0.002,0-0.004,0.001-0.006,0.001
				C49.995,45.019,50,45.039,50,45.06c0,1.102-0.892,1.996-1.994,1.999c0.033,1.075,0.91,1.938,1.994,1.938
				C51.104,48.997,52,48.102,52,46.997z"/>
		</g>
		<g>
			<path style="fill:#0A3631;" d="M61.994,46.997c0-1.104-0.896-2-2-2c-0.002,0-0.004,0.001-0.006,0.001
				c0.001,0.021,0.006,0.041,0.006,0.062c0,1.102-0.892,1.996-1.994,1.999c0.033,1.075,0.91,1.938,1.994,1.938
				C61.098,48.997,61.994,48.102,61.994,46.997z"/>
		</g>
		<g>
			<polygon style="fill:#FFFFFF;" points="43,67.997 45,66.997 54.985,71.978 49,77.997 			"/>
		</g>
		<g>
			<polygon style="fill:#FFFFFF;" points="67,67.997 65,66.997 55.015,71.978 61,77.997 			"/>
		</g>
		<g>
			<polygon style="fill:#00B8A5;" points="59,87 56.201,76.8 57.999,75.002 54.981,71.978 51.983,74.976 53.801,76.794 51,87 			"/>
		</g>
		<g>
			<polygon style="fill:#00D6C1;" points="55,87 55,71.997 54.981,71.978 51.983,74.976 53.801,76.794 51,87 			"/>
		</g>
		<g>
			<path style="fill:#0A3631;" d="M23,87l4-11c0.615-1.333,1.698-2.394,3.043-2.982L43,68l12,19H23z"/>
		</g>
		<g>
			<path style="fill:#0A3631;" d="M87,87l-4-11c-0.615-1.333-1.698-2.394-3.043-2.982L67,68L55,87H87z"/>
		</g>
		<g>
			<rect x="66" y="79.997" style="fill:#FFFFFF;" width="10" height="2"/>
		</g>
		<g>
			<path style="fill:#D7FCF9;" d="M51,56.997h8c0,0,0,4.003-4,4.003S51,56.997,51,56.997z"/>
		</g>
	</g>
</g>
<g id="R-Green" style="display:none;">
	<g style="display:inline;">
		<circle style="fill:#77E0C4;" cx="55" cy="55" r="55"/>
	</g>
	<g style="display:inline;">
		<g>
			<polygon style="fill:#D7FCF9;" points="55,87 43,67.997 67,67.997 			"/>
		</g>
		<g>
			<path style="fill:#AAF0E9;" d="M58.999,68.031h-4h-4L45,64.279v3.218c0,0,0,7.5,10,7.5s10-7.5,10-7.5v-3.219L58.999,68.031z"/>
		</g>
		<path style="fill:#D7FCF9;" d="M72,47.222C72,46.111,71,45,70,45s-1,1.111-1,1.111V45c-0.018-9-1.024-15-14-15
			c-12.976,0-13.982,6-14,15v7.997l4,10l5.105,3.996c0.569,0.639,1.384,1.004,2.24,1.004H55h2.655c0.856,0,1.671-0.365,2.24-1.004
			L65,62.997l3.206-8.017C71.041,54.776,72,50.476,72,47.222z"/>
		<path style="fill:#FFFFFF;" d="M41,45v1.111c0,0,0-1.111-1-1.111s-2,1.111-2,2.222c0,3.253,0.957,7.554,3.793,7.758L45,62.997
			l5.105,3.996c0.569,0.639,1.384,1.004,2.24,1.004H55V30C42.024,30,41.018,36,41,45z"/>
		<g>
			<polygon style="fill:#D7FCF9;" points="47.999,60.031 48.011,59.997 46.982,59.997 46.999,60.031 			"/>
			<path style="fill:#D7FCF9;" d="M54.999,68.031h-4L45,64.279v3.218c0,0,0,7.5,10,7.5L54.999,68.031L54.999,68.031z"/>
		</g>
		<path style="fill:#0A3631;" d="M67.807,34.274c0.098-0.418,0.146-0.84,0.146-1.262c0-2.842-0.908-4.783-12.953-4.972v-0.024
			C54.366,28.006,53.711,28,53.015,28c-12.511,0-13.042,7.981-13.014,9.679c0.003,0.203,0.014,0.322,0.014,0.322s0,5.02,0,7.016
			c0,0.004,0,0.01,0,0.014c0,0,1,2,2,4v7l0.984,6.997l8,5.003h4l0,0h4l8-5.003l0.984-6.997v-7h0.031l2-4V40
			C70.015,38.023,69.275,36.055,67.807,34.274z M62.999,60.031h-1l-2-6h-5l0,0h-5l-2,6h-1l-3-6V37.673
			c3.339,2.246,6.812,2.372,11,2.355v-0.003c2.604-0.012,7.891,0.031,11-2.787v16.793L62.999,60.031z"/>
		<path style="fill:#14635B;" d="M55,40.028V28.016C54.367,28.006,53.712,28,53.016,28c-14,0-13,10-13,10s0,5.031,0,7.031
			c0,0,1,2,2,4v7L43,63.028l8,5.003h4v-14h-5l-2,6h-1l-3-6V37.665C46.189,39.137,47.935,40.055,55,40.028z"/>
		<g>
			<path style="fill:#0A3631;" d="M52,46.997c0-1.104-0.896-2-2-2c-0.002,0-0.004,0.001-0.006,0.001
				C49.995,45.019,50,45.039,50,45.06c0,1.102-0.892,1.996-1.994,1.999c0.033,1.075,0.91,1.938,1.994,1.938
				C51.104,48.997,52,48.102,52,46.997z"/>
		</g>
		<g>
			<path style="fill:#0A3631;" d="M61.994,46.997c0-1.104-0.896-2-2-2c-0.002,0-0.004,0.001-0.006,0.001
				c0.001,0.021,0.006,0.041,0.006,0.062c0,1.102-0.892,1.996-1.994,1.999c0.033,1.075,0.91,1.938,1.994,1.938
				C61.098,48.997,61.994,48.102,61.994,46.997z"/>
		</g>
		<g>
			<polygon style="fill:#FFFFFF;" points="43,67.997 45,66.997 54.985,71.978 49,77.997 			"/>
		</g>
		<g>
			<polygon style="fill:#FFFFFF;" points="67,67.997 65,66.997 55.015,71.978 61,77.997 			"/>
		</g>
		<g>
			<polygon style="fill:#00B8A5;" points="59,87 56.201,76.8 57.999,75.002 54.981,71.978 51.983,74.976 53.801,76.794 51,87 			"/>
		</g>
		<g>
			<polygon style="fill:#00D6C1;" points="55,87 55,71.997 54.981,71.978 51.983,74.976 53.801,76.794 51,87 			"/>
		</g>
		<g>
			<path style="fill:#0A3631;" d="M23,87l4-11c0.615-1.333,1.698-2.394,3.043-2.982L43,68l12,19H23z"/>
		</g>
		<g>
			<path style="fill:#0A3631;" d="M87,87l-4-11c-0.615-1.333-1.698-2.394-3.043-2.982L67,68L55,87H87z"/>
		</g>
		<g>
			<rect x="66" y="79.997" style="fill:#FFFFFF;" width="10" height="2"/>
		</g>
		<g>
			<path style="fill:#D7FCF9;" d="M51,56.997h8c0,0,0,4.003-4,4.003S51,56.997,51,56.997z"/>
		</g>
	</g>
</g>
<g id="Red" style="display:none;">
	<g style="display:inline;">
		<g>
			<polygon style="fill:#FFEFED;" points="55,87 43,67.997 67,67.997 			"/>
		</g>
		<g>
			<path style="fill:#FFD7D4;" d="M58.999,68.031h-4h-4L45,64.279v3.218c0,0,0,7.5,10,7.5s10-7.5,10-7.5v-3.219L58.999,68.031z"/>
		</g>
		<path style="fill:#FFEFED;" d="M72,47.222C72,46.111,71,45,70,45s-1,1.111-1,1.111V45c-0.018-9-1.024-15-14-15
			c-12.976,0-13.982,6-14,15v7.997l4,10l5.105,3.996c0.569,0.639,1.384,1.004,2.24,1.004H55h2.655c0.856,0,1.671-0.365,2.24-1.004
			L65,62.997l3.206-8.017C71.041,54.776,72,50.476,72,47.222z"/>
		<path style="fill:#FFFFFF;" d="M41,45v1.111c0,0,0-1.111-1-1.111s-2,1.111-2,2.222c0,3.253,0.957,7.554,3.793,7.758L45,62.997
			l5.105,3.996c0.569,0.639,1.384,1.004,2.24,1.004H55V30C42.024,30,41.018,36,41,45z"/>
		<g>
			<polygon style="fill:#FFEFED;" points="47.999,60.031 48.011,59.997 46.982,59.997 46.999,60.031 			"/>
			<path style="fill:#FFEFED;" d="M54.999,68.031h-4L45,64.279v3.218c0,0,0,7.5,10,7.5L54.999,68.031L54.999,68.031z"/>
		</g>
		<path style="fill:#4A1410;" d="M67.807,34.274c0.098-0.418,0.146-0.84,0.146-1.262c0-2.842-0.908-4.783-12.953-4.972v-0.024
			C54.366,28.006,53.711,28,53.015,28c-12.511,0-13.042,7.981-13.014,9.679c0.003,0.203,0.014,0.322,0.014,0.322s0,5.02,0,7.016
			c0,0.004,0,0.01,0,0.014c0,0,1,2,2,4v7l0.984,6.997l8,5.003h4l0,0h4l8-5.003l0.984-6.997v-7h0.031l2-4V40
			C70.015,38.023,69.275,36.055,67.807,34.274z M62.999,60.031h-1l-2-6h-5l0,0h-5l-2,6h-1l-3-6V37.673
			c3.339,2.246,6.812,2.372,11,2.355v-0.003c2.604-0.012,7.891,0.031,11-2.787v16.793L62.999,60.031z"/>
		<path style="fill:#7D261E;" d="M55,40.028V28.016C54.367,28.006,53.712,28,53.016,28c-14,0-13,10-13,10s0,5.031,0,7.031
			c0,0,1,2,2,4v7L43,63.028l8,5.003h4v-14h-5l-2,6h-1l-3-6V37.665C46.189,39.137,47.935,40.055,55,40.028z"/>
		<g>
			<path style="fill:#4A1410;" d="M52,46.997c0-1.104-0.896-2-2-2c-0.002,0-0.004,0.001-0.006,0.001
				C49.995,45.019,50,45.039,50,45.06c0,1.102-0.892,1.996-1.994,1.999c0.033,1.075,0.91,1.938,1.994,1.938
				C51.104,48.997,52,48.102,52,46.997z"/>
		</g>
		<g>
			<path style="fill:#4A1410;" d="M61.994,46.997c0-1.104-0.896-2-2-2c-0.002,0-0.004,0.001-0.006,0.001
				c0.001,0.021,0.006,0.041,0.006,0.062c0,1.102-0.892,1.996-1.994,1.999c0.033,1.075,0.91,1.938,1.994,1.938
				C61.098,48.997,61.994,48.102,61.994,46.997z"/>
		</g>
		<g>
			<polygon style="fill:#FFFFFF;" points="43,67.997 45,66.997 54.985,71.978 49,77.997 			"/>
		</g>
		<g>
			<polygon style="fill:#FFFFFF;" points="67,67.997 65,66.997 55.015,71.978 61,77.997 			"/>
		</g>
		<g>
			<polygon style="fill:#E54B44;" points="59,87 56.201,76.8 57.999,75.002 54.981,71.978 51.983,74.976 53.801,76.794 51,87 			"/>
		</g>
		<g>
			<polygon style="fill:#FF6C5E;" points="55,87 55,71.997 54.981,71.978 51.983,74.976 53.801,76.794 51,87 			"/>
		</g>
		<g>
			<path style="fill:#4A1410;" d="M23,87l4-11c0.615-1.333,1.698-2.394,3.043-2.982L43,68l12,19H23z"/>
		</g>
		<g>
			<path style="fill:#4A1410;" d="M87,87l-4-11c-0.615-1.333-1.698-2.394-3.043-2.982L67,68L55,87H87z"/>
		</g>
		<g>
			<rect x="66" y="79.997" style="fill:#FFFFFF;" width="10" height="2"/>
		</g>
		<g>
			<path style="fill:#FFEFED;" d="M51,56.997h8c0,0,0,4.003-4,4.003S51,56.997,51,56.997z"/>
		</g>
	</g>
</g>
<g id="R-Red" style="display:none;">
	<g style="display:inline;">
		<circle style="fill:#FABBAF;" cx="55" cy="55" r="55"/>
	</g>
	<g style="display:inline;">
		<g>
			<polygon style="fill:#FFEFED;" points="55,87 43,67.997 67,67.997 			"/>
		</g>
		<g>
			<path style="fill:#FFD7D4;" d="M58.999,68.031h-4h-4L45,64.279v3.218c0,0,0,7.5,10,7.5s10-7.5,10-7.5v-3.219L58.999,68.031z"/>
		</g>
		<path style="fill:#FFEFED;" d="M72,47.222C72,46.111,71,45,70,45s-1,1.111-1,1.111V45c-0.018-9-1.024-15-14-15
			c-12.976,0-13.982,6-14,15v7.997l4,10l5.105,3.996c0.569,0.639,1.384,1.004,2.24,1.004H55h2.655c0.856,0,1.671-0.365,2.24-1.004
			L65,62.997l3.206-8.017C71.041,54.776,72,50.476,72,47.222z"/>
		<path style="fill:#FFFFFF;" d="M41,45v1.111c0,0,0-1.111-1-1.111s-2,1.111-2,2.222c0,3.253,0.957,7.554,3.793,7.758L45,62.997
			l5.105,3.996c0.569,0.639,1.384,1.004,2.24,1.004H55V30C42.024,30,41.018,36,41,45z"/>
		<g>
			<polygon style="fill:#FFEFED;" points="47.999,60.031 48.011,59.997 46.982,59.997 46.999,60.031 			"/>
			<path style="fill:#FFEFED;" d="M54.999,68.031h-4L45,64.279v3.218c0,0,0,7.5,10,7.5L54.999,68.031L54.999,68.031z"/>
		</g>
		<path style="fill:#4A1410;" d="M67.807,34.274c0.098-0.418,0.146-0.84,0.146-1.262c0-2.842-0.908-4.783-12.953-4.972v-0.024
			C54.366,28.006,53.711,28,53.015,28c-12.511,0-13.042,7.981-13.014,9.679c0.003,0.203,0.014,0.322,0.014,0.322s0,5.02,0,7.016
			c0,0.004,0,0.01,0,0.014c0,0,1,2,2,4v7l0.984,6.997l8,5.003h4l0,0h4l8-5.003l0.984-6.997v-7h0.031l2-4V40
			C70.015,38.023,69.275,36.055,67.807,34.274z M62.999,60.031h-1l-2-6h-5l0,0h-5l-2,6h-1l-3-6V37.673
			c3.339,2.246,6.812,2.372,11,2.355v-0.003c2.604-0.012,7.891,0.031,11-2.787v16.793L62.999,60.031z"/>
		<path style="fill:#7D261E;" d="M55,40.028V28.016C54.367,28.006,53.712,28,53.016,28c-14,0-13,10-13,10s0,5.031,0,7.031
			c0,0,1,2,2,4v7L43,63.028l8,5.003h4v-14h-5l-2,6h-1l-3-6V37.665C46.189,39.137,47.935,40.055,55,40.028z"/>
		<g>
			<path style="fill:#4A1410;" d="M52,46.997c0-1.104-0.896-2-2-2c-0.002,0-0.004,0.001-0.006,0.001
				C49.995,45.019,50,45.039,50,45.06c0,1.102-0.892,1.996-1.994,1.999c0.033,1.075,0.91,1.938,1.994,1.938
				C51.104,48.997,52,48.102,52,46.997z"/>
		</g>
		<g>
			<path style="fill:#4A1410;" d="M61.994,46.997c0-1.104-0.896-2-2-2c-0.002,0-0.004,0.001-0.006,0.001
				c0.001,0.021,0.006,0.041,0.006,0.062c0,1.102-0.892,1.996-1.994,1.999c0.033,1.075,0.91,1.938,1.994,1.938
				C61.098,48.997,61.994,48.102,61.994,46.997z"/>
		</g>
		<g>
			<polygon style="fill:#FFFFFF;" points="43,67.997 45,66.997 54.985,71.978 49,77.997 			"/>
		</g>
		<g>
			<polygon style="fill:#FFFFFF;" points="67,67.997 65,66.997 55.015,71.978 61,77.997 			"/>
		</g>
		<g>
			<polygon style="fill:#E54B44;" points="59,87 56.201,76.8 57.999,75.002 54.981,71.978 51.983,74.976 53.801,76.794 51,87 			"/>
		</g>
		<g>
			<polygon style="fill:#FF6C5E;" points="55,87 55,71.997 54.981,71.978 51.983,74.976 53.801,76.794 51,87 			"/>
		</g>
		<g>
			<path style="fill:#4A1410;" d="M23,87l4-11c0.615-1.333,1.698-2.394,3.043-2.982L43,68l12,19H23z"/>
		</g>
		<g>
			<path style="fill:#4A1410;" d="M87,87l-4-11c-0.615-1.333-1.698-2.394-3.043-2.982L67,68L55,87H87z"/>
		</g>
		<g>
			<rect x="66" y="79.997" style="fill:#FFFFFF;" width="10" height="2"/>
		</g>
		<g>
			<path style="fill:#FFEFED;" d="M51,56.997h8c0,0,0,4.003-4,4.003S51,56.997,51,56.997z"/>
		</g>
	</g>
</g>
<g id="Yellow" style="display:none;">
	<g style="display:inline;">
		<g>
			<polygon style="fill:#FFF5D9;" points="55,87 43,67.997 67,67.997 			"/>
		</g>
		<g>
			<path style="fill:#FFE9A1;" d="M58.999,68.031h-4h-4L45,64.279v3.218c0,0,0,7.5,10,7.5s10-7.5,10-7.5v-3.219L58.999,68.031z"/>
		</g>
		<path style="fill:#FFF5D9;" d="M72,47.222C72,46.111,71,45,70,45s-1,1.111-1,1.111V45c-0.018-9-1.024-15-14-15
			c-12.976,0-13.982,6-14,15v7.997l4,10l5.105,3.996c0.569,0.639,1.384,1.004,2.24,1.004H55h2.655c0.856,0,1.671-0.365,2.24-1.004
			L65,62.997l3.206-8.017C71.041,54.776,72,50.476,72,47.222z"/>
		<path style="fill:#FFFFFF;" d="M41,45v1.111c0,0,0-1.111-1-1.111s-2,1.111-2,2.222c0,3.253,0.957,7.554,3.793,7.758L45,62.997
			l5.105,3.996c0.569,0.639,1.384,1.004,2.24,1.004H55V30C42.024,30,41.018,36,41,45z"/>
		<g>
			<polygon style="fill:#FFF5D9;" points="47.999,60.031 48.011,59.997 46.982,59.997 46.999,60.031 			"/>
			<path style="fill:#FFF5D9;" d="M54.999,68.031h-4L45,64.279v3.218c0,0,0,7.5,10,7.5L54.999,68.031L54.999,68.031z"/>
		</g>
		<path style="fill:#3D320C;" d="M67.807,34.274c0.098-0.418,0.146-0.84,0.146-1.262c0-2.842-0.908-4.783-12.953-4.972v-0.024
			C54.366,28.006,53.711,28,53.015,28c-12.511,0-13.042,7.981-13.014,9.679c0.003,0.203,0.014,0.322,0.014,0.322s0,5.02,0,7.016
			c0,0.004,0,0.01,0,0.014c0,0,1,2,2,4v7l0.984,6.997l8,5.003h4l0,0h4l8-5.003l0.984-6.997v-7h0.031l2-4V40
			C70.015,38.023,69.275,36.055,67.807,34.274z M62.999,60.031h-1l-2-6h-5l0,0h-5l-2,6h-1l-3-6V37.673
			c3.339,2.246,6.812,2.372,11,2.355v-0.003c2.604-0.012,7.891,0.031,11-2.787v16.793L62.999,60.031z"/>
		<path style="fill:#66510D;" d="M55,40.028V28.016C54.367,28.006,53.712,28,53.016,28c-14,0-13,10-13,10s0,5.031,0,7.031
			c0,0,1,2,2,4v7L43,63.028l8,5.003h4v-14h-5l-2,6h-1l-3-6V37.665C46.189,39.137,47.935,40.055,55,40.028z"/>
		<g>
			<path style="fill:#3D320C;" d="M52,46.997c0-1.104-0.896-2-2-2c-0.002,0-0.004,0.001-0.006,0.001
				C49.995,45.019,50,45.039,50,45.06c0,1.102-0.892,1.996-1.994,1.999c0.033,1.075,0.91,1.938,1.994,1.938
				C51.104,48.997,52,48.102,52,46.997z"/>
		</g>
		<g>
			<path style="fill:#3D320C;" d="M61.994,46.997c0-1.104-0.896-2-2-2c-0.002,0-0.004,0.001-0.006,0.001
				c0.001,0.021,0.006,0.041,0.006,0.062c0,1.102-0.892,1.996-1.994,1.999c0.033,1.075,0.91,1.938,1.994,1.938
				C61.098,48.997,61.994,48.102,61.994,46.997z"/>
		</g>
		<g>
			<polygon style="fill:#FFFFFF;" points="43,67.997 45,66.997 54.985,71.978 49,77.997 			"/>
		</g>
		<g>
			<polygon style="fill:#FFFFFF;" points="67,67.997 65,66.997 55.015,71.978 61,77.997 			"/>
		</g>
		<g>
			<polygon style="fill:#FA9200;" points="59,87 56.201,76.8 57.999,75.002 54.981,71.978 51.983,74.976 53.801,76.794 51,87 			"/>
		</g>
		<g>
			<polygon style="fill:#FFAA00;" points="55,87 55,71.997 54.981,71.978 51.983,74.976 53.801,76.794 51,87 			"/>
		</g>
		<g>
			<path style="fill:#3D320C;" d="M23,87l4-11c0.615-1.333,1.698-2.394,3.043-2.982L43,68l12,19H23z"/>
		</g>
		<g>
			<path style="fill:#3D320C;" d="M87,87l-4-11c-0.615-1.333-1.698-2.394-3.043-2.982L67,68L55,87H87z"/>
		</g>
		<g>
			<rect x="66" y="79.997" style="fill:#FFFFFF;" width="10" height="2"/>
		</g>
		<g>
			<path style="fill:#FFF5D9;" d="M51,56.997h8c0,0,0,4.003-4,4.003S51,56.997,51,56.997z"/>
		</g>
	</g>
</g>
<g id="R-Yellow" style="display:none;">
	<g style="display:inline;">
		<circle style="fill:#FFD75E;" cx="55" cy="55" r="55"/>
	</g>
	<g style="display:inline;">
		<g>
			<polygon style="fill:#FFF5D9;" points="55,87 43,67.997 67,67.997 			"/>
		</g>
		<g>
			<path style="fill:#FFE9A1;" d="M58.999,68.031h-4h-4L45,64.279v3.218c0,0,0,7.5,10,7.5s10-7.5,10-7.5v-3.219L58.999,68.031z"/>
		</g>
		<path style="fill:#FFF5D9;" d="M72,47.222C72,46.111,71,45,70,45s-1,1.111-1,1.111V45c-0.018-9-1.024-15-14-15
			c-12.976,0-13.982,6-14,15v7.997l4,10l5.105,3.996c0.569,0.639,1.384,1.004,2.24,1.004H55h2.655c0.856,0,1.671-0.365,2.24-1.004
			L65,62.997l3.206-8.017C71.041,54.776,72,50.476,72,47.222z"/>
		<path style="fill:#FFFFFF;" d="M41,45v1.111c0,0,0-1.111-1-1.111s-2,1.111-2,2.222c0,3.253,0.957,7.554,3.793,7.758L45,62.997
			l5.105,3.996c0.569,0.639,1.384,1.004,2.24,1.004H55V30C42.024,30,41.018,36,41,45z"/>
		<g>
			<polygon style="fill:#FFF5D9;" points="47.999,60.031 48.011,59.997 46.982,59.997 46.999,60.031 			"/>
			<path style="fill:#FFF5D9;" d="M54.999,68.031h-4L45,64.279v3.218c0,0,0,7.5,10,7.5L54.999,68.031L54.999,68.031z"/>
		</g>
		<path style="fill:#3D320C;" d="M67.807,34.274c0.098-0.418,0.146-0.84,0.146-1.262c0-2.842-0.908-4.783-12.953-4.972v-0.024
			C54.366,28.006,53.711,28,53.015,28c-12.511,0-13.042,7.981-13.014,9.679c0.003,0.203,0.014,0.322,0.014,0.322s0,5.02,0,7.016
			c0,0.004,0,0.01,0,0.014c0,0,1,2,2,4v7l0.984,6.997l8,5.003h4l0,0h4l8-5.003l0.984-6.997v-7h0.031l2-4V40
			C70.015,38.023,69.275,36.055,67.807,34.274z M62.999,60.031h-1l-2-6h-5l0,0h-5l-2,6h-1l-3-6V37.673
			c3.339,2.246,6.812,2.372,11,2.355v-0.003c2.604-0.012,7.891,0.031,11-2.787v16.793L62.999,60.031z"/>
		<path style="fill:#66510D;" d="M55,40.028V28.016C54.367,28.006,53.712,28,53.016,28c-14,0-13,10-13,10s0,5.031,0,7.031
			c0,0,1,2,2,4v7L43,63.028l8,5.003h4v-14h-5l-2,6h-1l-3-6V37.665C46.189,39.137,47.935,40.055,55,40.028z"/>
		<g>
			<path style="fill:#3D320C;" d="M52,46.997c0-1.104-0.896-2-2-2c-0.002,0-0.004,0.001-0.006,0.001
				C49.995,45.019,50,45.039,50,45.06c0,1.102-0.892,1.996-1.994,1.999c0.033,1.075,0.91,1.938,1.994,1.938
				C51.104,48.997,52,48.102,52,46.997z"/>
		</g>
		<g>
			<path style="fill:#3D320C;" d="M61.994,46.997c0-1.104-0.896-2-2-2c-0.002,0-0.004,0.001-0.006,0.001
				c0.001,0.021,0.006,0.041,0.006,0.062c0,1.102-0.892,1.996-1.994,1.999c0.033,1.075,0.91,1.938,1.994,1.938
				C61.098,48.997,61.994,48.102,61.994,46.997z"/>
		</g>
		<g>
			<polygon style="fill:#FFFFFF;" points="43,67.997 45,66.997 54.985,71.978 49,77.997 			"/>
		</g>
		<g>
			<polygon style="fill:#FFFFFF;" points="67,67.997 65,66.997 55.015,71.978 61,77.997 			"/>
		</g>
		<g>
			<polygon style="fill:#FA9200;" points="59,87 56.201,76.8 57.999,75.002 54.981,71.978 51.983,74.976 53.801,76.794 51,87 			"/>
		</g>
		<g>
			<polygon style="fill:#FFAA00;" points="55,87 55,71.997 54.981,71.978 51.983,74.976 53.801,76.794 51,87 			"/>
		</g>
		<g>
			<path style="fill:#3D320C;" d="M23,87l4-11c0.615-1.333,1.698-2.394,3.043-2.982L43,68l12,19H23z"/>
		</g>
		<g>
			<path style="fill:#3D320C;" d="M87,87l-4-11c-0.615-1.333-1.698-2.394-3.043-2.982L67,68L55,87H87z"/>
		</g>
		<g>
			<rect x="66" y="79.997" style="fill:#FFFFFF;" width="10" height="2"/>
		</g>
		<g>
			<path style="fill:#FFF5D9;" d="M51,56.997h8c0,0,0,4.003-4,4.003S51,56.997,51,56.997z"/>
		</g>
	</g>
</g>
</svg>
