<?xml version="1.0" encoding="iso-8859-1"?>
<!-- Generator: Adobe Illustrator 17.1.0, SVG Export Plug-In . SVG Version: 6.00 Build 0)  -->
<!DOCTYPE svg PUBLIC "-//W3C//DTD SVG 1.0//EN" "http://www.w3.org/TR/2001/REC-SVG-20010904/DTD/svg10.dtd">
<svg version="1.0" xmlns="http://www.w3.org/2000/svg" xmlns:xlink="http://www.w3.org/1999/xlink" x="0px" y="0px" width="110px"
	 height="110px" viewBox="0 0 110 110" style="enable-background:new 0 0 110 110;" xml:space="preserve">
<g id="Artboard" style="display:none;">
	<rect x="-552.5" y="-28.5" style="display:inline;fill:#808080;stroke:#000000;stroke-miterlimit:10;" width="1323" height="294"/>
</g>
<g id="R-Multicolor" style="display:none;">
	<g style="display:inline;">
		<circle style="fill:#25B7D3;" cx="55" cy="55" r="55"/>
	</g>
	<g style="display:inline;">
		<path style="fill:#FBC8C8;" d="M70,47c-1,0-1,1.111-1,1.111v-1.108c0-0.012,0-0.024,0-0.037C66.129,47.357,60.568,48,55,48
			c-1,0-2-0.021-2.984-0.057c-4.5-0.166-8.661-0.656-11.016-0.977c0,0.012,0,0.024,0,0.037V55l4,10l5.105,3.996
			C50.674,69.635,51.489,70,52.345,70H55h2.655c0.856,0,1.671-0.365,2.24-1.004L65,65l3.208-8.02C71.042,56.775,72,52.475,72,49.222
			C72,48.111,71,47,70,47z"/>
		<path style="fill:#FBD7D7;" d="M41,46.966c0,0.012,0,0.024,0,0.037v1.111c0,0,0-1.111-1-1.111s-2,1.111-2,2.222
			c0,3.253,0.958,7.554,3.793,7.758L45,65l5.105,3.996C50.674,69.635,51.489,70,52.345,70H55V48c-1,0-2-0.021-2.984-0.057
			C47.516,47.777,43.354,47.287,41,46.966z"/>
		<path style="fill:#3E3E3F;" d="M83,76c-0.615-1.333-1.698-2.394-3.043-2.982L65,69v-4l-5.105,3.996
			C59.326,69.635,58.511,70,57.655,70H55h-2.655c-0.856,0-1.671-0.365-2.24-1.004L45,65v4l-14.957,4.018
			C28.698,73.606,27.615,74.667,27,76l-4,11h32h32L83,76z"/>
		<g>
			<path style="fill:#3E3E3F;" d="M55,46c-11.429,0-16-2-16-2v3c0,0,1.143,7,9.143,7C51.32,54,55,51,55,50c0,1,3.68,4,6.857,4
				c8,0,9.143-7,9.143-7v-3C71,44,66.429,46,55,46z"/>
		</g>
		<g>
			<path style="fill:#FFFFFF;" d="M52,49c0,0.732-1.343,1.955-3,1.968c-3,0.022-4-1.235-4-1.968C47,49,50,49,52,49z"/>
		</g>
		<g>
			<path style="fill:#FFFFFF;" d="M58,49c0,0.732,1.343,1.955,3,1.967c3,0.022,4-1.235,4-1.967C63,49,60,49,58,49z"/>
		</g>
		<path style="fill:#3E3E3F;" d="M71,40.033c0,0-0.375,0.083-1.094,0.207C69.026,27.857,62.014,26,55,26
			s-14.026,1.857-14.906,14.241c-0.288-0.05-0.818-0.146-1.094-0.208c-0.55,0-1.05,0.299-1.413,0.78
			C37.225,41.294,37,41.958,37,42.688v0v1.328c0,1.46,0.9,2.656,2,2.656c0,0,6.125,1.017,13.016,1.271C53,47.979,54,48,55,48
			c8,0,16-1.328,16-1.328c1.1,0,2-1.195,2-2.656v-1.328C73,41.228,72.1,40.033,71,40.033z"/>
		<path style="fill:#5B5C5F;" d="M40.094,40.241C39.375,40.116,39,40.033,39,40.033c-1.1,0-2,1.195-2,2.655v1.328
			c0,1.46,0.9,2.656,2,2.656c0,0,8,1.328,16,1.328V26C47.986,26,40.974,27.857,40.094,40.241z"/>
		<g>
			<path style="fill:#3E3E3F;" d="M61.996,61c-0.088-2.437,0.462-5-7-5s-6.912,2.563-7,5c-0.126,3.507,3,5,7,8
				C58.996,66,62.123,64.507,61.996,61z M54.996,64c-4.996,0.029-4.824-4.96-4.992-5h9.992C59.829,59.04,59.992,64.029,54.996,64z"
				/>
		</g>
	</g>
</g>
<g id="Multicolor">
	<g>
		<path style="fill:#FBC8C8;" d="M70,47c-1,0-1,1.111-1,1.111v-1.108c0-0.012,0-0.024,0-0.037C66.129,47.357,60.568,48,55,48
			c-1,0-2-0.021-2.984-0.057c-4.5-0.166-8.661-0.656-11.016-0.977c0,0.012,0,0.024,0,0.037V55l4,10l5.105,3.996
			C50.674,69.635,51.489,70,52.345,70H55h2.655c0.856,0,1.671-0.365,2.24-1.004L65,65l3.208-8.02C71.042,56.775,72,52.475,72,49.222
			C72,48.111,71,47,70,47z"/>
		<path style="fill:#FBD7D7;" d="M41,46.966c0,0.012,0,0.024,0,0.037v1.111c0,0,0-1.111-1-1.111s-2,1.111-2,2.222
			c0,3.253,0.958,7.554,3.793,7.758L45,65l5.105,3.996C50.674,69.635,51.489,70,52.345,70H55V48c-1,0-2-0.021-2.984-0.057
			C47.516,47.777,43.354,47.287,41,46.966z"/>
		<path style="fill:#3E3E3F;" d="M83,76c-0.615-1.333-1.698-2.394-3.043-2.982L65,69v-4l-5.105,3.996
			C59.326,69.635,58.511,70,57.655,70H55h-2.655c-0.856,0-1.671-0.365-2.24-1.004L45,65v4l-14.957,4.018
			C28.698,73.606,27.615,74.667,27,76l-4,11h32h32L83,76z"/>
		<g>
			<path style="fill:#3E3E3F;" d="M55,46c-11.429,0-16-2-16-2v3c0,0,1.143,7,9.143,7C51.32,54,55,51,55,50c0,1,3.68,4,6.857,4
				c8,0,9.143-7,9.143-7v-3C71,44,66.429,46,55,46z"/>
		</g>
		<g>
			<path style="fill:#FFFFFF;" d="M52,49c0,0.732-1.343,1.955-3,1.968c-3,0.022-4-1.235-4-1.968C47,49,50,49,52,49z"/>
		</g>
		<g>
			<path style="fill:#FFFFFF;" d="M58,49c0,0.732,1.343,1.955,3,1.967c3,0.022,4-1.235,4-1.967C63,49,60,49,58,49z"/>
		</g>
		<path style="fill:#3E3E3F;" d="M71,40.033c0,0-0.375,0.083-1.094,0.207C69.026,27.857,62.014,26,55,26
			s-14.026,1.857-14.906,14.241c-0.288-0.05-0.818-0.146-1.094-0.208c-0.55,0-1.05,0.299-1.413,0.78
			C37.225,41.294,37,41.958,37,42.688v0v1.328c0,1.46,0.9,2.656,2,2.656c0,0,6.125,1.017,13.016,1.271C53,47.979,54,48,55,48
			c8,0,16-1.328,16-1.328c1.1,0,2-1.195,2-2.656v-1.328C73,41.228,72.1,40.033,71,40.033z"/>
		<path style="fill:#5B5C5F;" d="M40.094,40.241C39.375,40.116,39,40.033,39,40.033c-1.1,0-2,1.195-2,2.655v1.328
			c0,1.46,0.9,2.656,2,2.656c0,0,8,1.328,16,1.328V26C47.986,26,40.974,27.857,40.094,40.241z"/>
		<g>
			<path style="fill:#3E3E3F;" d="M61.996,61c-0.088-2.437,0.462-5-7-5s-6.912,2.563-7,5c-0.126,3.507,3,5,7,8
				C58.996,66,62.123,64.507,61.996,61z M54.996,64c-4.996,0.029-4.824-4.96-4.992-5h9.992C59.829,59.04,59.992,64.029,54.996,64z"
				/>
		</g>
	</g>
</g>
<g id="Blue" style="display:none;">
	<g style="display:inline;">
		<path style="fill:#E1F5FA;" d="M70,47c-1,0-1,1.111-1,1.111v-1.108c0-0.012,0-0.024,0-0.037C66.129,47.357,60.568,48,55,48
			c-1,0-2-0.021-2.984-0.057c-4.5-0.166-8.661-0.656-11.016-0.977c0,0.012,0,0.024,0,0.037V55l4,10l5.105,3.996
			C50.674,69.635,51.489,70,52.345,70H55h2.655c0.856,0,1.671-0.365,2.24-1.004L65,65l3.207-8.019
			C71.041,56.775,72,52.476,72,49.222C72,48.111,71,47,70,47z"/>
		<path style="fill:#FFFFFF;" d="M41,46.966c0,0.012,0,0.024,0,0.037v1.111c0,0,0-1.111-1-1.111s-2,1.111-2,2.222
			c0,3.253,0.957,7.554,3.793,7.758L45,65l5.105,3.996C50.674,69.635,51.489,70,52.345,70H55V48c-1,0-2-0.021-2.984-0.057
			C47.516,47.777,43.354,47.287,41,46.966z"/>
		<path style="fill:#0C333D;" d="M83,76c-0.615-1.333-1.698-2.394-3.044-2.982L65,69v-4l-5.106,3.996
			C59.326,69.635,58.511,70,57.655,70H55h-2.655c-0.856,0-1.671-0.365-2.24-1.004L45,65v4l-14.958,4.018
			C28.698,73.606,27.615,74.667,27,76l-4,11h32h32L83,76z"/>
		<g>
			<path style="fill:#0C333D;" d="M55,46c-11.429,0-16-2-16-2v3c0,0,1.143,7,9.143,7C51.32,54,55,51,55,50c0,1,3.68,4,6.857,4
				c8,0,9.143-7,9.143-7v-3C71,44,66.429,46,55,46z"/>
		</g>
		<g>
			<path style="fill:#E1F5FA;" d="M52,49c0,0.732-1.343,1.956-3,1.968c-3,0.021-4-1.235-4-1.968C47,49,50,49,52,49z"/>
		</g>
		<g>
			<path style="fill:#E1F5FA;" d="M58,49c0,0.732,1.343,1.955,3,1.967c3,0.021,4-1.235,4-1.967C63,49,60,49,58,49z"/>
		</g>
		<path style="fill:#0C333D;" d="M71,40.033c0,0-0.376,0.083-1.094,0.207C69.026,27.857,62.014,26,55,26
			c-7.014,0-14.026,1.857-14.906,14.241c-0.288-0.05-0.818-0.146-1.094-0.208c-0.55,0-1.05,0.299-1.413,0.78
			C37.225,41.294,37,41.958,37,42.689l0,0v1.328c0,1.461,0.9,2.656,2,2.656c0,0,6.124,1.017,13.016,1.271C53,47.979,54,48,55,48
			c8,0,16-1.328,16-1.328c1.1,0,2-1.194,2-2.655v-1.328C73,41.228,72.1,40.033,71,40.033z"/>
		<path style="fill:#0F6175;" d="M40.094,40.241C39.374,40.116,39,40.033,39,40.033c-1.1,0-2,1.194-2,2.655v1.328
			c0,1.461,0.9,2.656,2,2.656c0,0,8,1.328,16,1.328V26C47.986,26,40.974,27.857,40.094,40.241z"/>
		<g>
			<path style="fill:#0C333D;" d="M61.996,61c-0.088-2.437,0.462-5-7-5c-7.462,0-6.912,2.563-7,5c-0.126,3.507,3,5,7,8
				C58.996,66,62.123,64.507,61.996,61z M54.996,64c-4.996,0.029-4.824-4.96-4.992-5h9.992C59.829,59.04,59.992,64.029,54.996,64z"
				/>
		</g>
	</g>
</g>
<g id="R-Blue" style="display:none;">
	<g style="display:inline;">
		<circle style="fill:#81D2EB;" cx="55" cy="55" r="55"/>
	</g>
	<g style="display:inline;">
		<path style="fill:#E1F5FA;" d="M70,47c-1,0-1,1.111-1,1.111v-1.108c0-0.012,0-0.024,0-0.037C66.129,47.357,60.568,48,55,48
			c-1,0-2-0.021-2.984-0.057c-4.5-0.166-8.661-0.656-11.016-0.977c0,0.012,0,0.024,0,0.037V55l4,10l5.105,3.996
			C50.674,69.635,51.489,70,52.345,70H55h2.655c0.856,0,1.671-0.365,2.24-1.004L65,65l3.207-8.019
			C71.041,56.775,72,52.476,72,49.222C72,48.111,71,47,70,47z"/>
		<path style="fill:#FFFFFF;" d="M41,46.966c0,0.012,0,0.024,0,0.037v1.111c0,0,0-1.111-1-1.111s-2,1.111-2,2.222
			c0,3.253,0.957,7.554,3.793,7.758L45,65l5.105,3.996C50.674,69.635,51.489,70,52.345,70H55V48c-1,0-2-0.021-2.984-0.057
			C47.516,47.777,43.354,47.287,41,46.966z"/>
		<path style="fill:#0C333D;" d="M83,76c-0.615-1.333-1.698-2.394-3.044-2.982L65,69v-4l-5.106,3.996
			C59.326,69.635,58.511,70,57.655,70H55h-2.655c-0.856,0-1.671-0.365-2.24-1.004L45,65v4l-14.958,4.018
			C28.698,73.606,27.615,74.667,27,76l-4,11h32h32L83,76z"/>
		<g>
			<path style="fill:#0C333D;" d="M55,46c-11.429,0-16-2-16-2v3c0,0,1.143,7,9.143,7C51.32,54,55,51,55,50c0,1,3.68,4,6.857,4
				c8,0,9.143-7,9.143-7v-3C71,44,66.429,46,55,46z"/>
		</g>
		<g>
			<path style="fill:#E1F5FA;" d="M52,49c0,0.732-1.343,1.956-3,1.968c-3,0.021-4-1.235-4-1.968C47,49,50,49,52,49z"/>
		</g>
		<g>
			<path style="fill:#E1F5FA;" d="M58,49c0,0.732,1.343,1.955,3,1.967c3,0.021,4-1.235,4-1.967C63,49,60,49,58,49z"/>
		</g>
		<path style="fill:#0C333D;" d="M71,40.033c0,0-0.376,0.083-1.094,0.207C69.026,27.857,62.014,26,55,26
			c-7.014,0-14.026,1.857-14.906,14.241c-0.288-0.05-0.818-0.146-1.094-0.208c-0.55,0-1.05,0.299-1.413,0.78
			C37.225,41.294,37,41.958,37,42.689l0,0v1.328c0,1.461,0.9,2.656,2,2.656c0,0,6.124,1.017,13.016,1.271C53,47.979,54,48,55,48
			c8,0,16-1.328,16-1.328c1.1,0,2-1.194,2-2.655v-1.328C73,41.228,72.1,40.033,71,40.033z"/>
		<path style="fill:#0F6175;" d="M40.094,40.241C39.374,40.116,39,40.033,39,40.033c-1.1,0-2,1.194-2,2.655v1.328
			c0,1.461,0.9,2.656,2,2.656c0,0,8,1.328,16,1.328V26C47.986,26,40.974,27.857,40.094,40.241z"/>
		<g>
			<path style="fill:#0C333D;" d="M61.996,61c-0.088-2.437,0.462-5-7-5s-6.912,2.563-7,5c-0.126,3.507,3,5,7,8
				C58.996,66,62.123,64.507,61.996,61z M54.996,64c-4.996,0.029-4.824-4.96-4.992-5h9.992C59.829,59.04,59.992,64.029,54.996,64z"
				/>
		</g>
	</g>
</g>
<g id="Green" style="display:none;">
	<g style="display:inline;">
		<path style="fill:#D7FCF9;" d="M70,47c-1,0-1,1.111-1,1.111v-1.108c0-0.012,0-0.024,0-0.037C66.129,47.357,60.568,48,55,48
			c-1,0-2-0.021-2.984-0.057c-4.5-0.166-8.661-0.656-11.016-0.977c0,0.012,0,0.024,0,0.037V55l4,10l5.105,3.996
			C50.674,69.635,51.489,70,52.345,70H55h2.655c0.856,0,1.671-0.365,2.24-1.004L65,65l3.207-8.019
			C71.041,56.775,72,52.476,72,49.222C72,48.111,71,47,70,47z"/>
		<path style="fill:#FFFFFF;" d="M41,46.966c0,0.012,0,0.024,0,0.037v1.111c0,0,0-1.111-1-1.111s-2,1.111-2,2.222
			c0,3.253,0.957,7.554,3.793,7.758L45,65l5.105,3.996C50.674,69.635,51.489,70,52.345,70H55V48c-1,0-2-0.021-2.984-0.057
			C47.516,47.777,43.354,47.287,41,46.966z"/>
		<path style="fill:#0A3631;" d="M83,76c-0.615-1.333-1.698-2.394-3.044-2.982L65,69v-4l-5.106,3.996
			C59.326,69.635,58.511,70,57.655,70H55h-2.655c-0.856,0-1.671-0.365-2.24-1.004L45,65v4l-14.958,4.018
			C28.698,73.606,27.615,74.667,27,76l-4,11h32h32L83,76z"/>
		<g>
			<path style="fill:#0A3631;" d="M55,46c-11.429,0-16-2-16-2v3c0,0,1.143,7,9.143,7C51.32,54,55,51,55,50c0,1,3.68,4,6.857,4
				c8,0,9.143-7,9.143-7v-3C71,44,66.429,46,55,46z"/>
		</g>
		<g>
			<path style="fill:#D7FCF9;" d="M52,49c0,0.732-1.343,1.956-3,1.968c-3,0.021-4-1.235-4-1.968C47,49,50,49,52,49z"/>
		</g>
		<g>
			<path style="fill:#D7FCF9;" d="M58,49c0,0.732,1.343,1.955,3,1.967c3,0.021,4-1.235,4-1.967C63,49,60,49,58,49z"/>
		</g>
		<path style="fill:#0A3631;" d="M71,40.033c0,0-0.376,0.083-1.094,0.207C69.026,27.857,62.014,26,55,26
			c-7.014,0-14.026,1.857-14.906,14.241c-0.288-0.05-0.818-0.146-1.094-0.208c-0.55,0-1.05,0.299-1.413,0.78
			C37.225,41.294,37,41.958,37,42.689l0,0v1.328c0,1.461,0.9,2.656,2,2.656c0,0,6.124,1.017,13.016,1.271C53,47.979,54,48,55,48
			c8,0,16-1.328,16-1.328c1.1,0,2-1.194,2-2.655v-1.328C73,41.228,72.1,40.033,71,40.033z"/>
		<path style="fill:#14635B;" d="M40.094,40.241C39.374,40.116,39,40.033,39,40.033c-1.1,0-2,1.194-2,2.655v1.328
			c0,1.461,0.9,2.656,2,2.656c0,0,8,1.328,16,1.328V26C47.986,26,40.974,27.857,40.094,40.241z"/>
		<g>
			<path style="fill:#0A3631;" d="M61.996,61c-0.088-2.437,0.462-5-7-5c-7.462,0-6.912,2.563-7,5c-0.126,3.507,3,5,7,8
				C58.996,66,62.123,64.507,61.996,61z M54.996,64c-4.996,0.029-4.824-4.96-4.992-5h9.992C59.829,59.04,59.992,64.029,54.996,64z"
				/>
		</g>
	</g>
</g>
<g id="R-Green" style="display:none;">
	<g style="display:inline;">
		<circle style="fill:#77E0C4;" cx="55" cy="55" r="55"/>
	</g>
	<g style="display:inline;">
		<path style="fill:#D7FCF9;" d="M70,47c-1,0-1,1.111-1,1.111v-1.108c0-0.012,0-0.024,0-0.037C66.129,47.357,60.568,48,55,48
			c-1,0-2-0.021-2.984-0.057c-4.5-0.166-8.661-0.656-11.016-0.977c0,0.012,0,0.024,0,0.037V55l4,10l5.105,3.996
			C50.674,69.635,51.489,70,52.345,70H55h2.655c0.856,0,1.671-0.365,2.24-1.004L65,65l3.207-8.019
			C71.041,56.775,72,52.476,72,49.222C72,48.111,71,47,70,47z"/>
		<path style="fill:#FFFFFF;" d="M41,46.966c0,0.012,0,0.024,0,0.037v1.111c0,0,0-1.111-1-1.111s-2,1.111-2,2.222
			c0,3.253,0.957,7.554,3.793,7.758L45,65l5.105,3.996C50.674,69.635,51.489,70,52.345,70H55V48c-1,0-2-0.021-2.984-0.057
			C47.516,47.777,43.354,47.287,41,46.966z"/>
		<path style="fill:#0A3631;" d="M83,76c-0.615-1.333-1.698-2.394-3.044-2.982L65,69v-4l-5.106,3.996
			C59.326,69.635,58.511,70,57.655,70H55h-2.655c-0.856,0-1.671-0.365-2.24-1.004L45,65v4l-14.958,4.018
			C28.698,73.606,27.615,74.667,27,76l-4,11h32h32L83,76z"/>
		<g>
			<path style="fill:#0A3631;" d="M55,46c-11.429,0-16-2-16-2v3c0,0,1.143,7,9.143,7C51.32,54,55,51,55,50c0,1,3.68,4,6.857,4
				c8,0,9.143-7,9.143-7v-3C71,44,66.429,46,55,46z"/>
		</g>
		<g>
			<path style="fill:#D7FCF9;" d="M52,49c0,0.732-1.343,1.956-3,1.968c-3,0.021-4-1.235-4-1.968C47,49,50,49,52,49z"/>
		</g>
		<g>
			<path style="fill:#D7FCF9;" d="M58,49c0,0.732,1.343,1.955,3,1.967c3,0.021,4-1.235,4-1.967C63,49,60,49,58,49z"/>
		</g>
		<path style="fill:#0A3631;" d="M71,40.033c0,0-0.376,0.083-1.094,0.207C69.026,27.857,62.014,26,55,26
			c-7.014,0-14.026,1.857-14.906,14.241c-0.288-0.05-0.818-0.146-1.094-0.208c-0.55,0-1.05,0.299-1.413,0.78
			C37.225,41.294,37,41.958,37,42.689l0,0v1.328c0,1.461,0.9,2.656,2,2.656c0,0,6.124,1.017,13.016,1.271C53,47.979,54,48,55,48
			c8,0,16-1.328,16-1.328c1.1,0,2-1.194,2-2.655v-1.328C73,41.228,72.1,40.033,71,40.033z"/>
		<path style="fill:#14635B;" d="M40.094,40.241C39.374,40.116,39,40.033,39,40.033c-1.1,0-2,1.194-2,2.655v1.328
			c0,1.461,0.9,2.656,2,2.656c0,0,8,1.328,16,1.328V26C47.986,26,40.974,27.857,40.094,40.241z"/>
		<g>
			<path style="fill:#0A3631;" d="M61.996,61c-0.088-2.437,0.462-5-7-5s-6.912,2.563-7,5c-0.126,3.507,3,5,7,8
				C58.996,66,62.123,64.507,61.996,61z M54.996,64c-4.996,0.029-4.824-4.96-4.992-5h9.992C59.829,59.04,59.992,64.029,54.996,64z"
				/>
		</g>
	</g>
</g>
<g id="Red" style="display:none;">
	<g style="display:inline;">
		<path style="fill:#FFEFED;" d="M70,47c-1,0-1,1.111-1,1.111v-1.108c0-0.012,0-0.024,0-0.037C66.129,47.357,60.568,48,55,48
			c-1,0-2-0.021-2.984-0.057c-4.5-0.166-8.661-0.656-11.016-0.977c0,0.012,0,0.024,0,0.037V55l4,10l5.105,3.996
			C50.674,69.635,51.489,70,52.345,70H55h2.655c0.856,0,1.671-0.365,2.24-1.004L65,65l3.207-8.019
			C71.041,56.775,72,52.476,72,49.222C72,48.111,71,47,70,47z"/>
		<path style="fill:#FFFFFF;" d="M41,46.966c0,0.012,0,0.024,0,0.037v1.111c0,0,0-1.111-1-1.111s-2,1.111-2,2.222
			c0,3.253,0.957,7.554,3.793,7.758L45,65l5.105,3.996C50.674,69.635,51.489,70,52.345,70H55V48c-1,0-2-0.021-2.984-0.057
			C47.516,47.777,43.354,47.287,41,46.966z"/>
		<path style="fill:#4A1410;" d="M83,76c-0.615-1.333-1.698-2.394-3.044-2.982L65,69v-4l-5.106,3.996
			C59.326,69.635,58.511,70,57.655,70H55h-2.655c-0.856,0-1.671-0.365-2.24-1.004L45,65v4l-14.958,4.018
			C28.698,73.606,27.615,74.667,27,76l-4,11h32h32L83,76z"/>
		<g>
			<path style="fill:#4A1410;" d="M55,46c-11.429,0-16-2-16-2v3c0,0,1.143,7,9.143,7C51.32,54,55,51,55,50c0,1,3.68,4,6.857,4
				c8,0,9.143-7,9.143-7v-3C71,44,66.429,46,55,46z"/>
		</g>
		<g>
			<path style="fill:#FFEFED;" d="M52,49c0,0.732-1.343,1.956-3,1.968c-3,0.021-4-1.235-4-1.968C47,49,50,49,52,49z"/>
		</g>
		<g>
			<path style="fill:#FFEFED;" d="M58,49c0,0.732,1.343,1.955,3,1.967c3,0.021,4-1.235,4-1.967C63,49,60,49,58,49z"/>
		</g>
		<path style="fill:#4A1410;" d="M71,40.033c0,0-0.376,0.083-1.094,0.207C69.026,27.857,62.014,26,55,26
			c-7.014,0-14.026,1.857-14.906,14.241c-0.288-0.05-0.818-0.146-1.094-0.208c-0.55,0-1.05,0.299-1.413,0.78
			C37.225,41.294,37,41.958,37,42.689l0,0v1.328c0,1.461,0.9,2.656,2,2.656c0,0,6.124,1.017,13.016,1.271C53,47.979,54,48,55,48
			c8,0,16-1.328,16-1.328c1.1,0,2-1.194,2-2.655v-1.328C73,41.228,72.1,40.033,71,40.033z"/>
		<path style="fill:#7D261E;" d="M40.094,40.241C39.374,40.116,39,40.033,39,40.033c-1.1,0-2,1.194-2,2.655v1.328
			c0,1.461,0.9,2.656,2,2.656c0,0,8,1.328,16,1.328V26C47.986,26,40.974,27.857,40.094,40.241z"/>
		<g>
			<path style="fill:#4A1410;" d="M61.996,61c-0.088-2.437,0.462-5-7-5c-7.462,0-6.912,2.563-7,5c-0.126,3.507,3,5,7,8
				C58.996,66,62.123,64.507,61.996,61z M54.996,64c-4.996,0.029-4.824-4.96-4.992-5h9.992C59.829,59.04,59.992,64.029,54.996,64z"
				/>
		</g>
	</g>
</g>
<g id="R-Red" style="display:none;">
	<g style="display:inline;">
		<circle style="fill:#FABBAF;" cx="55" cy="55" r="55"/>
	</g>
	<g style="display:inline;">
		<path style="fill:#FFEFED;" d="M70,47c-1,0-1,1.111-1,1.111v-1.108c0-0.012,0-0.024,0-0.037C66.129,47.357,60.568,48,55,48
			c-1,0-2-0.021-2.984-0.057c-4.5-0.166-8.661-0.656-11.016-0.977c0,0.012,0,0.024,0,0.037V55l4,10l5.105,3.996
			C50.674,69.635,51.489,70,52.345,70H55h2.655c0.856,0,1.671-0.365,2.24-1.004L65,65l3.207-8.019
			C71.041,56.775,72,52.476,72,49.222C72,48.111,71,47,70,47z"/>
		<path style="fill:#FFFFFF;" d="M41,46.966c0,0.012,0,0.024,0,0.037v1.111c0,0,0-1.111-1-1.111s-2,1.111-2,2.222
			c0,3.253,0.957,7.554,3.793,7.758L45,65l5.105,3.996C50.674,69.635,51.489,70,52.345,70H55V48c-1,0-2-0.021-2.984-0.057
			C47.516,47.777,43.354,47.287,41,46.966z"/>
		<path style="fill:#4A1410;" d="M83,76c-0.615-1.333-1.698-2.394-3.044-2.982L65,69v-4l-5.106,3.996
			C59.326,69.635,58.511,70,57.655,70H55h-2.655c-0.856,0-1.671-0.365-2.24-1.004L45,65v4l-14.958,4.018
			C28.698,73.606,27.615,74.667,27,76l-4,11h32h32L83,76z"/>
		<g>
			<path style="fill:#4A1410;" d="M55,46c-11.429,0-16-2-16-2v3c0,0,1.143,7,9.143,7C51.32,54,55,51,55,50c0,1,3.68,4,6.857,4
				c8,0,9.143-7,9.143-7v-3C71,44,66.429,46,55,46z"/>
		</g>
		<g>
			<path style="fill:#FFEFED;" d="M52,49c0,0.732-1.343,1.956-3,1.968c-3,0.021-4-1.235-4-1.968C47,49,50,49,52,49z"/>
		</g>
		<g>
			<path style="fill:#FFEFED;" d="M58,49c0,0.732,1.343,1.955,3,1.967c3,0.021,4-1.235,4-1.967C63,49,60,49,58,49z"/>
		</g>
		<path style="fill:#4A1410;" d="M71,40.033c0,0-0.376,0.083-1.094,0.207C69.026,27.857,62.014,26,55,26
			c-7.014,0-14.026,1.857-14.906,14.241c-0.288-0.05-0.818-0.146-1.094-0.208c-0.55,0-1.05,0.299-1.413,0.78
			C37.225,41.294,37,41.958,37,42.689l0,0v1.328c0,1.461,0.9,2.656,2,2.656c0,0,6.124,1.017,13.016,1.271C53,47.979,54,48,55,48
			c8,0,16-1.328,16-1.328c1.1,0,2-1.194,2-2.655v-1.328C73,41.228,72.1,40.033,71,40.033z"/>
		<path style="fill:#7D261E;" d="M40.094,40.241C39.374,40.116,39,40.033,39,40.033c-1.1,0-2,1.194-2,2.655v1.328
			c0,1.461,0.9,2.656,2,2.656c0,0,8,1.328,16,1.328V26C47.986,26,40.974,27.857,40.094,40.241z"/>
		<g>
			<path style="fill:#4A1410;" d="M61.996,61c-0.088-2.437,0.462-5-7-5c-7.462,0-6.912,2.563-7,5c-0.126,3.507,3,5,7,8
				C58.996,66,62.123,64.507,61.996,61z M54.996,64c-4.996,0.029-4.824-4.96-4.992-5h9.992C59.829,59.04,59.992,64.029,54.996,64z"
				/>
		</g>
	</g>
</g>
<g id="Yellow" style="display:none;">
	<g style="display:inline;">
		<path style="fill:#FFF5D9;" d="M70,47c-1,0-1,1.111-1,1.111v-1.108c0-0.012,0-0.024,0-0.037C66.129,47.357,60.568,48,55,48
			c-1,0-2-0.021-2.984-0.057c-4.5-0.166-8.661-0.656-11.016-0.977c0,0.012,0,0.024,0,0.037V55l4,10l5.105,3.996
			C50.674,69.635,51.489,70,52.345,70H55h2.655c0.856,0,1.671-0.365,2.24-1.004L65,65l3.207-8.019
			C71.041,56.775,72,52.476,72,49.222C72,48.111,71,47,70,47z"/>
		<path style="fill:#FFFFFF;" d="M41,46.966c0,0.012,0,0.024,0,0.037v1.111c0,0,0-1.111-1-1.111s-2,1.111-2,2.222
			c0,3.253,0.957,7.554,3.793,7.758L45,65l5.105,3.996C50.674,69.635,51.489,70,52.345,70H55V48c-1,0-2-0.021-2.984-0.057
			C47.516,47.777,43.354,47.287,41,46.966z"/>
		<path style="fill:#3D320C;" d="M83,76c-0.615-1.333-1.698-2.394-3.044-2.982L65,69v-4l-5.106,3.996
			C59.326,69.635,58.511,70,57.655,70H55h-2.655c-0.856,0-1.671-0.365-2.24-1.004L45,65v4l-14.958,4.018
			C28.698,73.606,27.615,74.667,27,76l-4,11h32h32L83,76z"/>
		<g>
			<path style="fill:#3D320C;" d="M55,46c-11.429,0-16-2-16-2v3c0,0,1.143,7,9.143,7C51.32,54,55,51,55,50c0,1,3.68,4,6.857,4
				c8,0,9.143-7,9.143-7v-3C71,44,66.429,46,55,46z"/>
		</g>
		<g>
			<path style="fill:#FFF5D9;" d="M52,49c0,0.732-1.343,1.956-3,1.968c-3,0.021-4-1.235-4-1.968C47,49,50,49,52,49z"/>
		</g>
		<g>
			<path style="fill:#FFF5D9;" d="M58,49c0,0.732,1.343,1.955,3,1.967c3,0.021,4-1.235,4-1.967C63,49,60,49,58,49z"/>
		</g>
		<path style="fill:#3D320C;" d="M71,40.033c0,0-0.376,0.083-1.094,0.207C69.026,27.857,62.014,26,55,26
			c-7.014,0-14.026,1.857-14.906,14.241c-0.288-0.05-0.818-0.146-1.094-0.208c-0.55,0-1.05,0.299-1.413,0.78
			C37.225,41.294,37,41.958,37,42.689l0,0v1.328c0,1.461,0.9,2.656,2,2.656c0,0,6.124,1.017,13.016,1.271C53,47.979,54,48,55,48
			c8,0,16-1.328,16-1.328c1.1,0,2-1.194,2-2.655v-1.328C73,41.228,72.1,40.033,71,40.033z"/>
		<path style="fill:#66510D;" d="M40.094,40.241C39.374,40.116,39,40.033,39,40.033c-1.1,0-2,1.194-2,2.655v1.328
			c0,1.461,0.9,2.656,2,2.656c0,0,8,1.328,16,1.328V26C47.986,26,40.974,27.857,40.094,40.241z"/>
		<g>
			<path style="fill:#3D320C;" d="M61.996,61c-0.088-2.437,0.462-5-7-5c-7.462,0-6.912,2.563-7,5c-0.126,3.507,3,5,7,8
				C58.996,66,62.123,64.507,61.996,61z M54.996,64c-4.996,0.029-4.824-4.96-4.992-5h9.992C59.829,59.04,59.992,64.029,54.996,64z"
				/>
		</g>
	</g>
</g>
<g id="R-Yellow" style="display:none;">
	<g style="display:inline;">
		<circle style="fill:#FFD75E;" cx="55" cy="55" r="55"/>
	</g>
	<g style="display:inline;">
		<path style="fill:#FFF5D9;" d="M70,47c-1,0-1,1.111-1,1.111v-1.108c0-0.012,0-0.024,0-0.037C66.129,47.357,60.568,48,55,48
			c-1,0-2-0.021-2.984-0.057c-4.5-0.166-8.661-0.656-11.016-0.977c0,0.012,0,0.024,0,0.037V55l4,10l5.105,3.996
			C50.674,69.635,51.489,70,52.345,70H55h2.655c0.856,0,1.671-0.365,2.24-1.004L65,65l3.207-8.019
			C71.041,56.775,72,52.476,72,49.222C72,48.111,71,47,70,47z"/>
		<path style="fill:#FFFFFF;" d="M41,46.966c0,0.012,0,0.024,0,0.037v1.111c0,0,0-1.111-1-1.111s-2,1.111-2,2.222
			c0,3.253,0.957,7.554,3.793,7.758L45,65l5.105,3.996C50.674,69.635,51.489,70,52.345,70H55V48c-1,0-2-0.021-2.984-0.057
			C47.516,47.777,43.354,47.287,41,46.966z"/>
		<path style="fill:#3D320C;" d="M83,76c-0.615-1.333-1.698-2.394-3.044-2.982L65,69v-4l-5.106,3.996
			C59.326,69.635,58.511,70,57.655,70H55h-2.655c-0.856,0-1.671-0.365-2.24-1.004L45,65v4l-14.958,4.018
			C28.698,73.606,27.615,74.667,27,76l-4,11h32h32L83,76z"/>
		<g>
			<path style="fill:#3D320C;" d="M55,46c-11.429,0-16-2-16-2v3c0,0,1.143,7,9.143,7C51.32,54,55,51,55,50c0,1,3.68,4,6.857,4
				c8,0,9.143-7,9.143-7v-3C71,44,66.429,46,55,46z"/>
		</g>
		<g>
			<path style="fill:#FFF5D9;" d="M52,49c0,0.732-1.343,1.956-3,1.968c-3,0.021-4-1.235-4-1.968C47,49,50,49,52,49z"/>
		</g>
		<g>
			<path style="fill:#FFF5D9;" d="M58,49c0,0.732,1.343,1.955,3,1.967c3,0.021,4-1.235,4-1.967C63,49,60,49,58,49z"/>
		</g>
		<path style="fill:#3D320C;" d="M71,40.033c0,0-0.376,0.083-1.094,0.207C69.026,27.857,62.014,26,55,26
			c-7.014,0-14.026,1.857-14.906,14.241c-0.288-0.05-0.818-0.146-1.094-0.208c-0.55,0-1.05,0.299-1.413,0.78
			C37.225,41.294,37,41.958,37,42.689l0,0v1.328c0,1.461,0.9,2.656,2,2.656c0,0,6.124,1.017,13.016,1.271C53,47.979,54,48,55,48
			c8,0,16-1.328,16-1.328c1.1,0,2-1.194,2-2.655v-1.328C73,41.228,72.1,40.033,71,40.033z"/>
		<path style="fill:#66510D;" d="M40.094,40.241C39.374,40.116,39,40.033,39,40.033c-1.1,0-2,1.194-2,2.655v1.328
			c0,1.461,0.9,2.656,2,2.656c0,0,8,1.328,16,1.328V26C47.986,26,40.974,27.857,40.094,40.241z"/>
		<g>
			<path style="fill:#3D320C;" d="M61.996,61c-0.088-2.437,0.462-5-7-5c-7.462,0-6.912,2.563-7,5c-0.126,3.507,3,5,7,8
				C58.996,66,62.123,64.507,61.996,61z M54.996,64c-4.996,0.029-4.824-4.96-4.992-5h9.992C59.829,59.04,59.992,64.029,54.996,64z"
				/>
		</g>
	</g>
</g>
</svg>
