<?xml version="1.0" encoding="iso-8859-1"?>
<!-- Generator: Adobe Illustrator 17.1.0, SVG Export Plug-In . SVG Version: 6.00 Build 0)  -->
<!DOCTYPE svg PUBLIC "-//W3C//DTD SVG 1.0//EN" "http://www.w3.org/TR/2001/REC-SVG-20010904/DTD/svg10.dtd">
<svg version="1.0" xmlns="http://www.w3.org/2000/svg" xmlns:xlink="http://www.w3.org/1999/xlink" x="0px" y="0px" width="110px"
	 height="110px" viewBox="0 0 110 110" style="enable-background:new 0 0 110 110;" xml:space="preserve">
<g id="Artboard" style="display:none;">
	
		<rect x="-165.5" y="-149.5" style="display:inline;fill:#808080;stroke:#000000;stroke-miterlimit:10;" width="1335" height="954"/>
</g>
<g id="R-Multicolor" style="display:none;">
	<circle style="display:inline;fill:#FABC3D;" cx="55" cy="55" r="55"/>
	<g style="display:inline;">
		<g>
			<path style="fill:#DF2C2C;" d="M79,31c0-4.418-3.582-8-8-8H39c-4.418,0-8,3.582-8,8v50c0,1.105,0.895,2,2,2h44
				c1.105,0,2-0.895,2-2V31z"/>
		</g>
		<g>
			<path style="fill:#FA5655;" d="M76.198,24.926C74.799,23.728,72.986,23,71,23H39c-4.418,0-8,3.582-8,8v39.124L76.198,24.926z"/>
		</g>
		<g>
			<path style="fill:#3E3E3F;" d="M31,83v2c0,1.104,0.896,2,2,2h8c1.104,0,2-0.896,2-2v-2H31z"/>
		</g>
		<g>
			<path style="fill:#3E3E3F;" d="M67,85c0,1.104,0.896,2,2,2h8c1.104,0,2-0.896,2-2v-2H67V85z"/>
		</g>
		<g>
			<path style="fill:#FA5655;" d="M81,74c0-2.209-1.791-4-4-4h-9l-2.447-2.894C65.214,66.428,64.521,66,63.764,66H46.236
				c-0.758,0-1.45,0.428-1.789,1.106L42,70h-9c-2.209,0-4,1.791-4,4v7c0,1.105,0.895,2,2,2h48c1.105,0,2-0.895,2-2V74z"/>
		</g>
		<g>
			<path style="fill:#BF0302;" d="M54,69h-7c-1.104,0-2,0.896-2,2v7c0,1.104,0.896,2,2,2h7V69z"/>
		</g>
		<g>
			<path style="fill:#BF0302;" d="M56,69h7c1.104,0,2,0.896,2,2v7c0,1.104-0.896,2-2,2h-7V69z"/>
		</g>
		<g>
			<circle style="fill:#FBE158;" cx="37" cy="77" r="3"/>
		</g>
		<g>
			<circle style="fill:#FBE158;" cx="72" cy="77" r="3"/>
		</g>
		<g>
			<rect x="31" y="47" style="fill:#E2E4E5;" width="48" height="2"/>
		</g>
		<g>
			<polygon style="fill:#FFFFFF;" points="54.124,47 31,47 31,49 52.124,49 			"/>
		</g>
		<g>
			<path style="fill:#40C9E7;" d="M75,49H57v12c0,1.105,0.895,2,2,2h14c1.105,0,2-0.895,2-2V49z"/>
		</g>
		<g>
			<path style="fill:#6FDAF1;" d="M35,37c0,1.105,0.895,2,2,2h14c1.105,0,2-0.895,2-2v-8c0-1.105-0.895-2-2-2H37
				c-1.105,0-2,0.895-2,2V37z"/>
		</g>
		<g>
			<path style="fill:#40C9E7;" d="M57,37c0,1.105,0.895,2,2,2h14c1.105,0,2-0.895,2-2v-8c0-1.105-0.895-2-2-2H59
				c-1.105,0-2,0.895-2,2V37z"/>
		</g>
		<g>
			<path style="fill:#6FDAF1;" d="M73,27H59c-1.104,0-2,0.896-2,2v8c0,1.104,0.896,2,2,2h3.124L73.9,27.223
				C73.628,27.085,73.326,27,73,27z"/>
		</g>
		<g>
			<path style="fill:#FBEC9A;" d="M72,74.044c-1.657,0-3,1.343-3,3c0,0.751,0.286,1.43,0.742,1.956l4.214-4.214
				C73.43,74.33,72.751,74.044,72,74.044z"/>
		</g>
		<g>
			<path style="fill:#FBEC9A;" d="M37,74c-1.657,0-3,1.343-3,3c0,0.751,0.286,1.43,0.742,1.956l4.214-4.214
				C38.43,74.286,37.751,74,37,74z"/>
		</g>
		<rect x="35" y="49" style="fill:#40C9E7;" width="18" height="8"/>
		<path style="fill:#40C9E7;" d="M35,61c0,1.104,0.896,2,2,2h14c1.104,0,2-0.896,2-2v-2H35V61z"/>
		<polygon style="fill:#6FDAF1;" points="44.124,57 52.124,49 35,49 35,57 		"/>
		<path style="fill:#6FDAF1;" d="M35,59v2c0,1.104,0.896,2,2,2h1.124l4-4H35z"/>
	</g>
</g>
<g id="Multicolor">
	<g>
		<g>
			<path style="fill:#DF2C2C;" d="M79,31c0-4.418-3.582-8-8-8H39c-4.418,0-8,3.582-8,8v50c0,1.105,0.895,2,2,2h44
				c1.105,0,2-0.895,2-2V31z"/>
		</g>
		<g>
			<path style="fill:#FA5655;" d="M76.198,24.926C74.799,23.728,72.986,23,71,23H39c-4.418,0-8,3.582-8,8v39.124L76.198,24.926z"/>
		</g>
		<g>
			<path style="fill:#3E3E3F;" d="M31,83v2c0,1.104,0.896,2,2,2h8c1.104,0,2-0.896,2-2v-2H31z"/>
		</g>
		<g>
			<path style="fill:#3E3E3F;" d="M67,85c0,1.104,0.896,2,2,2h8c1.104,0,2-0.896,2-2v-2H67V85z"/>
		</g>
		<g>
			<path style="fill:#FA5655;" d="M81,74c0-2.209-1.791-4-4-4h-9l-2.447-2.894C65.214,66.428,64.521,66,63.764,66H46.236
				c-0.758,0-1.45,0.428-1.789,1.106L42,70h-9c-2.209,0-4,1.791-4,4v7c0,1.105,0.895,2,2,2h48c1.105,0,2-0.895,2-2V74z"/>
		</g>
		<g>
			<path style="fill:#BF0302;" d="M54,69h-7c-1.104,0-2,0.896-2,2v7c0,1.104,0.896,2,2,2h7V69z"/>
		</g>
		<g>
			<path style="fill:#BF0302;" d="M56,69h7c1.104,0,2,0.896,2,2v7c0,1.104-0.896,2-2,2h-7V69z"/>
		</g>
		<g>
			<circle style="fill:#FBE158;" cx="37" cy="77" r="3"/>
		</g>
		<g>
			<circle style="fill:#FBE158;" cx="72" cy="77" r="3"/>
		</g>
		<g>
			<rect x="31" y="47" style="fill:#E2E4E5;" width="48" height="2"/>
		</g>
		<g>
			<polygon style="fill:#FFFFFF;" points="54.124,47 31,47 31,49 52.124,49 			"/>
		</g>
		<g>
			<path style="fill:#40C9E7;" d="M75,49H57v12c0,1.105,0.895,2,2,2h14c1.105,0,2-0.895,2-2V49z"/>
		</g>
		<g>
			<path style="fill:#6FDAF1;" d="M35,37c0,1.105,0.895,2,2,2h14c1.105,0,2-0.895,2-2v-8c0-1.105-0.895-2-2-2H37
				c-1.105,0-2,0.895-2,2V37z"/>
		</g>
		<g>
			<path style="fill:#40C9E7;" d="M57,37c0,1.105,0.895,2,2,2h14c1.105,0,2-0.895,2-2v-8c0-1.105-0.895-2-2-2H59
				c-1.105,0-2,0.895-2,2V37z"/>
		</g>
		<g>
			<path style="fill:#6FDAF1;" d="M73,27H59c-1.104,0-2,0.896-2,2v8c0,1.104,0.896,2,2,2h3.124L73.9,27.223
				C73.628,27.085,73.326,27,73,27z"/>
		</g>
		<g>
			<path style="fill:#FBEC9A;" d="M72,74.044c-1.657,0-3,1.343-3,3c0,0.751,0.286,1.43,0.742,1.956l4.214-4.214
				C73.43,74.33,72.751,74.044,72,74.044z"/>
		</g>
		<g>
			<path style="fill:#FBEC9A;" d="M37,74c-1.657,0-3,1.343-3,3c0,0.751,0.286,1.43,0.742,1.956l4.214-4.214
				C38.43,74.286,37.751,74,37,74z"/>
		</g>
		<rect x="35" y="49" style="fill:#40C9E7;" width="18" height="8"/>
		<path style="fill:#40C9E7;" d="M35,61c0,1.104,0.896,2,2,2h14c1.104,0,2-0.896,2-2v-2H35V61z"/>
		<polygon style="fill:#6FDAF1;" points="44.124,57 52.124,49 35,49 35,57 		"/>
		<path style="fill:#6FDAF1;" d="M35,59v2c0,1.104,0.896,2,2,2h1.124l4-4H35z"/>
	</g>
</g>
<g id="Blue" style="display:none;">
	<g style="display:inline;">
		<g>
			<path style="fill:#0081A1;" d="M79,31c0-4.418-3.582-8-8-8H39c-4.418,0-8,3.582-8,8v50c0,1.105,0.896,2,2,2h44
				c1.104,0,2-0.895,2-2V31z"/>
		</g>
		<g>
			<path style="fill:#009FC7;" d="M76.197,24.926C74.799,23.728,72.986,23,71,23H39c-4.418,0-8,3.582-8,8v39.123L76.197,24.926z"/>
		</g>
		<g>
			<path style="fill:#0C333D;" d="M31,83v2c0,1.104,0.896,2,2,2h8c1.104,0,2-0.896,2-2v-2H31z"/>
		</g>
		<g>
			<path style="fill:#0C333D;" d="M67,85c0,1.104,0.896,2,2,2h8c1.104,0,2-0.896,2-2v-2H67V85z"/>
		</g>
		<g>
			<path style="fill:#BBE7F2;" d="M81,74c0-2.209-1.791-4-4-4h-9l-2.447-2.894C65.214,66.428,64.521,66,63.764,66H46.236
				c-0.758,0-1.45,0.428-1.789,1.105L42,70h-9c-2.209,0-4,1.791-4,4v7c0,1.105,0.896,2,2,2h48c1.104,0,2-0.895,2-2V74z"/>
		</g>
		<g>
			<path style="fill:#0F6175;" d="M54,69h-7c-1.104,0-2,0.896-2,2v7c0,1.104,0.896,2,2,2h7V69z"/>
		</g>
		<g>
			<path style="fill:#0F6175;" d="M56,69h7c1.105,0,2,0.896,2,2v7c0,1.104-0.896,2-2,2h-7V69z"/>
		</g>
		<g>
			<circle style="fill:#009FC7;" cx="37" cy="77" r="3"/>
		</g>
		<g>
			<circle style="fill:#009FC7;" cx="72" cy="77" r="3"/>
		</g>
		<g>
			<rect x="31" y="47" style="fill:#E1F5FA;" width="48" height="2"/>
		</g>
		<g>
			<polygon style="fill:#FFFFFF;" points="54.123,47 31,47 31,49 52.123,49 			"/>
		</g>
		<g>
			<path style="fill:#BBE7F2;" d="M75,49H57v12c0,1.105,0.896,2,2,2h14c1.104,0,2-0.895,2-2V49z"/>
		</g>
		<g>
			<path style="fill:#E1F5FA;" d="M35,37c0,1.105,0.896,2,2,2h14c1.104,0,2-0.895,2-2v-8c0-1.104-0.896-2-2-2H37
				c-1.104,0-2,0.896-2,2V37z"/>
		</g>
		<g>
			<path style="fill:#BBE7F2;" d="M57,37c0,1.105,0.896,2,2,2h14c1.104,0,2-0.895,2-2v-8c0-1.104-0.896-2-2-2H59
				c-1.104,0-2,0.896-2,2V37z"/>
		</g>
		<g>
			<path style="fill:#E1F5FA;" d="M73,27H59c-1.104,0-2,0.896-2,2v8c0,1.104,0.896,2,2,2h3.123L73.9,27.223
				C73.629,27.085,73.326,27,73,27z"/>
		</g>
		<g>
			<path style="fill:#00B7E5;" d="M72,74.044c-1.656,0-3,1.343-3,3c0,0.752,0.286,1.43,0.742,1.956l4.214-4.213
				C73.429,74.33,72.752,74.044,72,74.044z"/>
		</g>
		<g>
			<path style="fill:#00B7E5;" d="M37,74c-1.656,0-3,1.343-3,3c0,0.752,0.286,1.43,0.742,1.956l4.214-4.213
				C38.429,74.286,37.752,74,37,74z"/>
		</g>
		<rect x="35" y="49" style="fill:#BBE7F2;" width="18" height="8"/>
		<path style="fill:#BBE7F2;" d="M35,61c0,1.104,0.896,2,2,2h14c1.104,0,2-0.896,2-2v-2H35V61z"/>
		<polygon style="fill:#E1F5FA;" points="44.123,57 52.123,49 35,49 35,57 		"/>
		<path style="fill:#E1F5FA;" d="M35,59v2c0,1.104,0.896,2,2,2h1.123l4-4H35z"/>
	</g>
</g>
<g id="R-Blue" style="display:none;">
	<circle style="display:inline;fill:#81D2EB;" cx="55" cy="55" r="55"/>
	<g style="display:inline;">
		<g>
			<path style="fill:#0081A1;" d="M79,31c0-4.418-3.582-8-8-8H39c-4.418,0-8,3.582-8,8v50c0,1.105,0.896,2,2,2h44
				c1.104,0,2-0.895,2-2V31z"/>
		</g>
		<g>
			<path style="fill:#009FC7;" d="M76.197,24.926C74.799,23.728,72.986,23,71,23H39c-4.418,0-8,3.582-8,8v39.124L76.197,24.926z"/>
		</g>
		<g>
			<path style="fill:#0C333D;" d="M31,83v2c0,1.104,0.896,2,2,2h8c1.104,0,2-0.896,2-2v-2H31z"/>
		</g>
		<g>
			<path style="fill:#0C333D;" d="M67,85c0,1.104,0.896,2,2,2h8c1.104,0,2-0.896,2-2v-2H67V85z"/>
		</g>
		<g>
			<path style="fill:#BBE7F2;" d="M81,74c0-2.209-1.791-4-4-4h-9l-2.447-2.894C65.214,66.428,64.521,66,63.764,66H46.236
				c-0.758,0-1.45,0.428-1.789,1.105L42,70h-9c-2.209,0-4,1.791-4,4v7c0,1.105,0.896,2,2,2h48c1.104,0,2-0.895,2-2V74z"/>
		</g>
		<g>
			<path style="fill:#0F6175;" d="M54,69h-7c-1.104,0-2,0.896-2,2v7c0,1.104,0.896,2,2,2h7V69z"/>
		</g>
		<g>
			<path style="fill:#0F6175;" d="M56,69h7c1.104,0,2,0.896,2,2v7c0,1.104-0.896,2-2,2h-7V69z"/>
		</g>
		<g>
			<circle style="fill:#009FC7;" cx="37" cy="77" r="3"/>
		</g>
		<g>
			<circle style="fill:#009FC7;" cx="72" cy="77" r="3"/>
		</g>
		<g>
			<rect x="31" y="47" style="fill:#E1F5FA;" width="48" height="2"/>
		</g>
		<g>
			<polygon style="fill:#FFFFFF;" points="54.123,47 31,47 31,49 52.123,49 			"/>
		</g>
		<g>
			<path style="fill:#BBE7F2;" d="M75,49H57v12c0,1.105,0.896,2,2,2h14c1.104,0,2-0.895,2-2V49z"/>
		</g>
		<g>
			<path style="fill:#E1F5FA;" d="M35,37c0,1.105,0.896,2,2,2h14c1.104,0,2-0.895,2-2v-8c0-1.104-0.896-2-2-2H37
				c-1.104,0-2,0.896-2,2V37z"/>
		</g>
		<g>
			<path style="fill:#BBE7F2;" d="M57,37c0,1.105,0.896,2,2,2h14c1.104,0,2-0.895,2-2v-8c0-1.104-0.896-2-2-2H59
				c-1.104,0-2,0.896-2,2V37z"/>
		</g>
		<g>
			<path style="fill:#E1F5FA;" d="M73,27H59c-1.104,0-2,0.896-2,2v8c0,1.104,0.896,2,2,2h3.123L73.9,27.223
				C73.629,27.085,73.326,27,73,27z"/>
		</g>
		<g>
			<path style="fill:#00B7E5;" d="M72,74.044c-1.656,0-3,1.343-3,3c0,0.751,0.286,1.43,0.742,1.956l4.214-4.213
				C73.43,74.33,72.752,74.044,72,74.044z"/>
		</g>
		<g>
			<path style="fill:#00B7E5;" d="M37,74c-1.656,0-3,1.343-3,3c0,0.751,0.286,1.43,0.742,1.956l4.214-4.213
				C38.43,74.286,37.752,74,37,74z"/>
		</g>
		<rect x="35" y="49" style="fill:#BBE7F2;" width="18" height="8"/>
		<path style="fill:#BBE7F2;" d="M35,61c0,1.104,0.896,2,2,2h14c1.104,0,2-0.896,2-2v-2H35V61z"/>
		<polygon style="fill:#E1F5FA;" points="44.123,57 52.123,49 35,49 35,57 		"/>
		<path style="fill:#E1F5FA;" d="M35,59v2c0,1.104,0.896,2,2,2h1.123l4-4H35z"/>
	</g>
</g>
<g id="Green" style="display:none;">
	<g style="display:inline;">
		<g>
			<path style="fill:#009687;" d="M79,31c0-4.418-3.582-8-8-8H39c-4.418,0-8,3.582-8,8v50c0,1.105,0.896,2,2,2h44
				c1.104,0,2-0.895,2-2V31z"/>
		</g>
		<g>
			<path style="fill:#00B8A5;" d="M76.197,24.926C74.799,23.728,72.986,23,71,23H39c-4.418,0-8,3.582-8,8v39.123L76.197,24.926z"/>
		</g>
		<g>
			<path style="fill:#0A3631;" d="M31,83v2c0,1.104,0.896,2,2,2h8c1.104,0,2-0.896,2-2v-2H31z"/>
		</g>
		<g>
			<path style="fill:#0A3631;" d="M67,85c0,1.104,0.896,2,2,2h8c1.104,0,2-0.896,2-2v-2H67V85z"/>
		</g>
		<g>
			<path style="fill:#AAF0E9;" d="M81,74c0-2.209-1.791-4-4-4h-9l-2.447-2.894C65.214,66.428,64.521,66,63.764,66H46.236
				c-0.758,0-1.45,0.428-1.789,1.105L42,70h-9c-2.209,0-4,1.791-4,4v7c0,1.105,0.896,2,2,2h48c1.104,0,2-0.895,2-2V74z"/>
		</g>
		<g>
			<path style="fill:#14635B;" d="M54,69h-7c-1.104,0-2,0.896-2,2v7c0,1.104,0.896,2,2,2h7V69z"/>
		</g>
		<g>
			<path style="fill:#14635B;" d="M56,69h7c1.104,0,2,0.896,2,2v7c0,1.104-0.896,2-2,2h-7V69z"/>
		</g>
		<g>
			<circle style="fill:#00B8A5;" cx="37" cy="77" r="3"/>
		</g>
		<g>
			<circle style="fill:#00B8A5;" cx="72" cy="77" r="3"/>
		</g>
		<g>
			<rect x="31" y="47" style="fill:#D7FCF9;" width="48" height="2"/>
		</g>
		<g>
			<polygon style="fill:#FFFFFF;" points="54.123,47 31,47 31,49 52.123,49 			"/>
		</g>
		<g>
			<path style="fill:#AAF0E9;" d="M75,49H57v12c0,1.105,0.896,2,2,2h14c1.104,0,2-0.895,2-2V49z"/>
		</g>
		<g>
			<path style="fill:#D7FCF9;" d="M35,37c0,1.105,0.896,2,2,2h14c1.104,0,2-0.895,2-2v-8c0-1.104-0.896-2-2-2H37
				c-1.104,0-2,0.896-2,2V37z"/>
		</g>
		<g>
			<path style="fill:#AAF0E9;" d="M57,37c0,1.105,0.896,2,2,2h14c1.104,0,2-0.895,2-2v-8c0-1.104-0.896-2-2-2H59
				c-1.104,0-2,0.896-2,2V37z"/>
		</g>
		<g>
			<path style="fill:#D7FCF9;" d="M73,27H59c-1.104,0-2,0.896-2,2v8c0,1.104,0.896,2,2,2h3.123L73.9,27.223
				C73.629,27.085,73.326,27,73,27z"/>
		</g>
		<g>
			<path style="fill:#00D6C1;" d="M72,74.044c-1.656,0-3,1.343-3,3c0,0.752,0.286,1.43,0.742,1.956l4.214-4.213
				C73.429,74.33,72.752,74.044,72,74.044z"/>
		</g>
		<g>
			<path style="fill:#00D6C1;" d="M37,74c-1.656,0-3,1.343-3,3c0,0.752,0.286,1.43,0.742,1.956l4.214-4.213
				C38.43,74.286,37.752,74,37,74z"/>
		</g>
		<rect x="35" y="49" style="fill:#AAF0E9;" width="18" height="8"/>
		<path style="fill:#AAF0E9;" d="M35,61c0,1.104,0.896,2,2,2h14c1.104,0,2-0.896,2-2v-2H35V61z"/>
		<polygon style="fill:#D7FCF9;" points="44.123,57 52.123,49 35,49 35,57 		"/>
		<path style="fill:#D7FCF9;" d="M35,59v2c0,1.104,0.896,2,2,2h1.123l4-4H35z"/>
	</g>
</g>
<g id="R-Green" style="display:none;">
	<circle style="display:inline;fill:#77E0C4;" cx="55" cy="55" r="55"/>
	<g style="display:inline;">
		<g>
			<path style="fill:#009687;" d="M79,31c0-4.418-3.582-8-8-8H39c-4.418,0-8,3.582-8,8v50c0,1.105,0.896,2,2,2h44
				c1.104,0,2-0.895,2-2V31z"/>
		</g>
		<g>
			<path style="fill:#00B8A5;" d="M76.197,24.926C74.799,23.728,72.986,23,71,23H39c-4.418,0-8,3.582-8,8v39.123L76.197,24.926z"/>
		</g>
		<g>
			<path style="fill:#0A3631;" d="M31,83v2c0,1.104,0.896,2,2,2h8c1.104,0,2-0.896,2-2v-2H31z"/>
		</g>
		<g>
			<path style="fill:#0A3631;" d="M67,85c0,1.104,0.896,2,2,2h8c1.104,0,2-0.896,2-2v-2H67V85z"/>
		</g>
		<g>
			<path style="fill:#AAF0E9;" d="M81,74c0-2.209-1.791-4-4-4h-9l-2.447-2.894C65.214,66.428,64.521,66,63.764,66H46.236
				c-0.758,0-1.45,0.428-1.789,1.105L42,70h-9c-2.209,0-4,1.791-4,4v7c0,1.105,0.896,2,2,2h48c1.104,0,2-0.895,2-2V74z"/>
		</g>
		<g>
			<path style="fill:#14635B;" d="M54,69h-7c-1.104,0-2,0.896-2,2v7c0,1.104,0.896,2,2,2h7V69z"/>
		</g>
		<g>
			<path style="fill:#14635B;" d="M56,69h7c1.104,0,2,0.896,2,2v7c0,1.104-0.896,2-2,2h-7V69z"/>
		</g>
		<g>
			<circle style="fill:#00B8A5;" cx="37" cy="77" r="3"/>
		</g>
		<g>
			<circle style="fill:#00B8A5;" cx="72" cy="77" r="3"/>
		</g>
		<g>
			<rect x="31" y="47" style="fill:#D7FCF9;" width="48" height="2"/>
		</g>
		<g>
			<polygon style="fill:#FFFFFF;" points="54.123,47 31,47 31,49 52.123,49 			"/>
		</g>
		<g>
			<path style="fill:#AAF0E9;" d="M75,49H57v12c0,1.105,0.896,2,2,2h14c1.104,0,2-0.895,2-2V49z"/>
		</g>
		<g>
			<path style="fill:#D7FCF9;" d="M35,37c0,1.105,0.896,2,2,2h14c1.104,0,2-0.895,2-2v-8c0-1.104-0.896-2-2-2H37
				c-1.104,0-2,0.896-2,2V37z"/>
		</g>
		<g>
			<path style="fill:#AAF0E9;" d="M57,37c0,1.105,0.896,2,2,2h14c1.104,0,2-0.895,2-2v-8c0-1.104-0.896-2-2-2H59
				c-1.104,0-2,0.896-2,2V37z"/>
		</g>
		<g>
			<path style="fill:#D7FCF9;" d="M73,27H59c-1.104,0-2,0.896-2,2v8c0,1.104,0.896,2,2,2h3.123L73.9,27.223
				C73.629,27.085,73.326,27,73,27z"/>
		</g>
		<g>
			<path style="fill:#00D6C1;" d="M72,74.044c-1.656,0-3,1.343-3,3c0,0.752,0.286,1.43,0.742,1.956l4.214-4.213
				C73.43,74.33,72.752,74.044,72,74.044z"/>
		</g>
		<g>
			<path style="fill:#00D6C1;" d="M37,74c-1.656,0-3,1.343-3,3c0,0.752,0.286,1.43,0.742,1.956l4.214-4.213
				C38.43,74.286,37.752,74,37,74z"/>
		</g>
		<rect x="35" y="49" style="fill:#AAF0E9;" width="18" height="8"/>
		<path style="fill:#AAF0E9;" d="M35,61c0,1.104,0.896,2,2,2h14c1.104,0,2-0.896,2-2v-2H35V61z"/>
		<polygon style="fill:#D7FCF9;" points="44.123,57 52.123,49 35,49 35,57 		"/>
		<path style="fill:#D7FCF9;" d="M35,59v2c0,1.104,0.896,2,2,2h1.123l4-4H35z"/>
	</g>
</g>
<g id="Red" style="display:none;">
	<g style="display:inline;">
		<g>
			<path style="fill:#C23023;" d="M79,31c0-4.418-3.582-8-8-8H39c-4.418,0-8,3.582-8,8v50c0,1.105,0.896,2,2,2h44
				c1.104,0,2-0.895,2-2V31z"/>
		</g>
		<g>
			<path style="fill:#E54B44;" d="M76.197,24.926C74.799,23.728,72.986,23,71,23H39c-4.418,0-8,3.582-8,8v39.124L76.197,24.926z"/>
		</g>
		<g>
			<path style="fill:#4A1410;" d="M31,83v2c0,1.104,0.896,2,2,2h8c1.104,0,2-0.896,2-2v-2H31z"/>
		</g>
		<g>
			<path style="fill:#4A1410;" d="M67,85c0,1.104,0.896,2,2,2h8c1.104,0,2-0.896,2-2v-2H67V85z"/>
		</g>
		<g>
			<path style="fill:#FFD7D4;" d="M81,74c0-2.209-1.791-4-4-4h-9l-2.447-2.894C65.214,66.428,64.521,66,63.764,66H46.236
				c-0.758,0-1.45,0.428-1.789,1.106L42,70h-9c-2.209,0-4,1.791-4,4v7c0,1.105,0.896,2,2,2h48c1.104,0,2-0.895,2-2V74z"/>
		</g>
		<g>
			<path style="fill:#7D261E;" d="M54,69h-7c-1.104,0-2,0.896-2,2v7c0,1.104,0.896,2,2,2h7V69z"/>
		</g>
		<g>
			<path style="fill:#7D261E;" d="M56,69h7c1.104,0,2,0.896,2,2v7c0,1.104-0.896,2-2,2h-7V69z"/>
		</g>
		<g>
			<circle style="fill:#E54B44;" cx="37" cy="77" r="3"/>
		</g>
		<g>
			<circle style="fill:#E54B44;" cx="72" cy="77" r="3"/>
		</g>
		<g>
			<rect x="31" y="47" style="fill:#FFEFED;" width="48" height="2"/>
		</g>
		<g>
			<polygon style="fill:#FFFFFF;" points="54.123,47 31,47 31,49 52.123,49 			"/>
		</g>
		<g>
			<path style="fill:#FFD7D4;" d="M75,49H57v12c0,1.105,0.896,2,2,2h14c1.104,0,2-0.895,2-2V49z"/>
		</g>
		<g>
			<path style="fill:#FFEFED;" d="M35,37c0,1.105,0.896,2,2,2h14c1.104,0,2-0.895,2-2v-8c0-1.104-0.896-2-2-2H37
				c-1.104,0-2,0.896-2,2V37z"/>
		</g>
		<g>
			<path style="fill:#FFD7D4;" d="M57,37c0,1.105,0.896,2,2,2h14c1.104,0,2-0.895,2-2v-8c0-1.104-0.896-2-2-2H59
				c-1.104,0-2,0.896-2,2V37z"/>
		</g>
		<g>
			<path style="fill:#FFEFED;" d="M73,27H59c-1.104,0-2,0.896-2,2v8c0,1.104,0.896,2,2,2h3.123L73.9,27.223
				C73.629,27.085,73.326,27,73,27z"/>
		</g>
		<g>
			<path style="fill:#FF6C5E;" d="M72,74.044c-1.656,0-3,1.343-3,3c0,0.751,0.286,1.43,0.742,1.956l4.214-4.213
				C73.429,74.33,72.752,74.044,72,74.044z"/>
		</g>
		<g>
			<path style="fill:#FF6C5E;" d="M37,74c-1.656,0-3,1.343-3,3c0,0.752,0.286,1.43,0.742,1.956l4.214-4.213
				C38.43,74.286,37.752,74,37,74z"/>
		</g>
		<rect x="35" y="49" style="fill:#FFD7D4;" width="18" height="8"/>
		<path style="fill:#FFD7D4;" d="M35,61c0,1.104,0.896,2,2,2h14c1.104,0,2-0.896,2-2v-2H35V61z"/>
		<polygon style="fill:#FFEFED;" points="44.123,57 52.123,49 35,49 35,57 		"/>
		<path style="fill:#FFEFED;" d="M35,59v2c0,1.104,0.896,2,2,2h1.123l4-4H35z"/>
	</g>
</g>
<g id="R-Red" style="display:none;">
	<circle style="display:inline;fill:#FABBAF;" cx="55" cy="55" r="55"/>
	<g style="display:inline;">
		<g>
			<path style="fill:#C23023;" d="M79,31c0-4.418-3.582-8-8-8H39c-4.418,0-8,3.582-8,8v50c0,1.105,0.896,2,2,2h44
				c1.104,0,2-0.895,2-2V31z"/>
		</g>
		<g>
			<path style="fill:#E54B44;" d="M76.197,24.926C74.799,23.728,72.986,23,71,23H39c-4.418,0-8,3.582-8,8v39.124L76.197,24.926z"/>
		</g>
		<g>
			<path style="fill:#4A1410;" d="M31,83v2c0,1.104,0.896,2,2,2h8c1.104,0,2-0.896,2-2v-2H31z"/>
		</g>
		<g>
			<path style="fill:#4A1410;" d="M67,85c0,1.104,0.896,2,2,2h8c1.104,0,2-0.896,2-2v-2H67V85z"/>
		</g>
		<g>
			<path style="fill:#FFD7D4;" d="M81,74c0-2.209-1.791-4-4-4h-9l-2.447-2.894C65.214,66.428,64.521,66,63.764,66H46.236
				c-0.758,0-1.45,0.428-1.789,1.106L42,70h-9c-2.209,0-4,1.791-4,4v7c0,1.105,0.896,2,2,2h48c1.104,0,2-0.895,2-2V74z"/>
		</g>
		<g>
			<path style="fill:#7D261E;" d="M54,69h-7c-1.104,0-2,0.896-2,2v7c0,1.104,0.896,2,2,2h7V69z"/>
		</g>
		<g>
			<path style="fill:#7D261E;" d="M56,69h7c1.104,0,2,0.896,2,2v7c0,1.104-0.896,2-2,2h-7V69z"/>
		</g>
		<g>
			<circle style="fill:#E54B44;" cx="37" cy="77" r="3"/>
		</g>
		<g>
			<circle style="fill:#E54B44;" cx="72" cy="77" r="3"/>
		</g>
		<g>
			<rect x="31" y="47" style="fill:#FFEFED;" width="48" height="2"/>
		</g>
		<g>
			<polygon style="fill:#FFFFFF;" points="54.123,47 31,47 31,49 52.123,49 			"/>
		</g>
		<g>
			<path style="fill:#FFD7D4;" d="M75,49H57v12c0,1.105,0.896,2,2,2h14c1.104,0,2-0.895,2-2V49z"/>
		</g>
		<g>
			<path style="fill:#FFEFED;" d="M35,37c0,1.105,0.896,2,2,2h14c1.104,0,2-0.895,2-2v-8c0-1.104-0.896-2-2-2H37
				c-1.104,0-2,0.896-2,2V37z"/>
		</g>
		<g>
			<path style="fill:#FFD7D4;" d="M57,37c0,1.105,0.896,2,2,2h14c1.104,0,2-0.895,2-2v-8c0-1.104-0.896-2-2-2H59
				c-1.104,0-2,0.896-2,2V37z"/>
		</g>
		<g>
			<path style="fill:#FFEFED;" d="M73,27H59c-1.104,0-2,0.896-2,2v8c0,1.104,0.896,2,2,2h3.123L73.9,27.223
				C73.629,27.085,73.326,27,73,27z"/>
		</g>
		<g>
			<path style="fill:#FF6C5E;" d="M72,74.044c-1.656,0-3,1.343-3,3c0,0.751,0.286,1.43,0.742,1.956l4.214-4.213
				C73.43,74.33,72.752,74.044,72,74.044z"/>
		</g>
		<g>
			<path style="fill:#FF6C5E;" d="M37,74c-1.656,0-3,1.343-3,3c0,0.752,0.286,1.43,0.742,1.956l4.214-4.213
				C38.43,74.286,37.752,74,37,74z"/>
		</g>
		<rect x="35" y="49" style="fill:#FFD7D4;" width="18" height="8"/>
		<path style="fill:#FFD7D4;" d="M35,61c0,1.104,0.896,2,2,2h14c1.104,0,2-0.896,2-2v-2H35V61z"/>
		<polygon style="fill:#FFEFED;" points="44.123,57 52.123,49 35,49 35,57 		"/>
		<path style="fill:#FFEFED;" d="M35,59v2c0,1.104,0.896,2,2,2h1.123l4-4H35z"/>
	</g>
</g>
<g id="Yellow" style="display:none;">
	<g style="display:inline;">
		<g>
			<path style="fill:#E07000;" d="M79,31c0-4.418-3.582-8-8-8H39c-4.418,0-8,3.582-8,8v50c0,1.105,0.896,2,2,2h44
				c1.104,0,2-0.895,2-2V31z"/>
		</g>
		<g>
			<path style="fill:#FA9200;" d="M76.197,24.926C74.799,23.728,72.986,23,71,23H39c-4.418,0-8,3.582-8,8v39.123L76.197,24.926z"/>
		</g>
		<g>
			<path style="fill:#3D320C;" d="M31,83v2c0,1.104,0.896,2,2,2h8c1.104,0,2-0.896,2-2v-2H31z"/>
		</g>
		<g>
			<path style="fill:#3D320C;" d="M67,85c0,1.104,0.896,2,2,2h8c1.104,0,2-0.896,2-2v-2H67V85z"/>
		</g>
		<g>
			<path style="fill:#FFE9A1;" d="M81,74c0-2.209-1.791-4-4-4h-9l-2.447-2.894C65.214,66.428,64.521,66,63.764,66H46.236
				c-0.758,0-1.45,0.428-1.789,1.105L42,70h-9c-2.209,0-4,1.791-4,4v7c0,1.105,0.896,2,2,2h48c1.104,0,2-0.895,2-2V74z"/>
		</g>
		<g>
			<path style="fill:#66510D;" d="M54,69h-7c-1.104,0-2,0.896-2,2v7c0,1.104,0.896,2,2,2h7V69z"/>
		</g>
		<g>
			<path style="fill:#66510D;" d="M56,69h7c1.104,0,2,0.896,2,2v7c0,1.104-0.896,2-2,2h-7V69z"/>
		</g>
		<g>
			<circle style="fill:#FA9200;" cx="37" cy="77" r="3"/>
		</g>
		<g>
			<circle style="fill:#FA9200;" cx="72" cy="77" r="3"/>
		</g>
		<g>
			<rect x="31" y="47" style="fill:#FFF5D9;" width="48" height="2"/>
		</g>
		<g>
			<polygon style="fill:#FFFFFF;" points="54.123,47 31,47 31,49 52.123,49 			"/>
		</g>
		<g>
			<path style="fill:#FFE9A1;" d="M75,49H57v12c0,1.105,0.896,2,2,2h14c1.104,0,2-0.895,2-2V49z"/>
		</g>
		<g>
			<path style="fill:#FFF5D9;" d="M35,37c0,1.105,0.896,2,2,2h14c1.104,0,2-0.895,2-2v-8c0-1.104-0.896-2-2-2H37
				c-1.104,0-2,0.896-2,2V37z"/>
		</g>
		<g>
			<path style="fill:#FFE9A1;" d="M57,37c0,1.105,0.896,2,2,2h14c1.104,0,2-0.895,2-2v-8c0-1.104-0.896-2-2-2H59
				c-1.104,0-2,0.896-2,2V37z"/>
		</g>
		<g>
			<path style="fill:#FFF5D9;" d="M73,27H59c-1.104,0-2,0.896-2,2v8c0,1.104,0.896,2,2,2h3.123L73.9,27.223
				C73.629,27.085,73.326,27,73,27z"/>
		</g>
		<g>
			<path style="fill:#FFAA00;" d="M72,74.044c-1.656,0-3,1.343-3,3c0,0.752,0.286,1.43,0.742,1.956l4.214-4.213
				C73.429,74.33,72.752,74.044,72,74.044z"/>
		</g>
		<g>
			<path style="fill:#FFAA00;" d="M37,74c-1.656,0-3,1.343-3,3c0,0.752,0.286,1.43,0.742,1.956l4.214-4.213
				C38.43,74.286,37.752,74,37,74z"/>
		</g>
		<rect x="35" y="49" style="fill:#FFE9A1;" width="18" height="8"/>
		<path style="fill:#FFE9A1;" d="M35,61c0,1.104,0.896,2,2,2h14c1.104,0,2-0.896,2-2v-2H35V61z"/>
		<polygon style="fill:#FFF5D9;" points="44.123,57 52.123,49 35,49 35,57 		"/>
		<path style="fill:#FFF5D9;" d="M35,59v2c0,1.104,0.896,2,2,2h1.123l4-4H35z"/>
	</g>
</g>
<g id="R-Yellow" style="display:none;">
	<circle style="display:inline;fill:#FFD75E;" cx="55" cy="55" r="55"/>
	<g style="display:inline;">
		<g>
			<path style="fill:#E07000;" d="M79,31c0-4.418-3.582-8-8-8H39c-4.418,0-8,3.582-8,8v50c0,1.105,0.896,2,2,2h44
				c1.104,0,2-0.895,2-2V31z"/>
		</g>
		<g>
			<path style="fill:#FA9200;" d="M76.197,24.926C74.799,23.728,72.986,23,71,23H39c-4.418,0-8,3.582-8,8v39.123L76.197,24.926z"/>
		</g>
		<g>
			<path style="fill:#3D320C;" d="M31,83v2c0,1.104,0.896,2,2,2h8c1.104,0,2-0.896,2-2v-2H31z"/>
		</g>
		<g>
			<path style="fill:#3D320C;" d="M67,85c0,1.104,0.896,2,2,2h8c1.104,0,2-0.896,2-2v-2H67V85z"/>
		</g>
		<g>
			<path style="fill:#FFE9A1;" d="M81,74c0-2.209-1.791-4-4-4h-9l-2.447-2.894C65.214,66.428,64.521,66,63.764,66H46.236
				c-0.758,0-1.45,0.428-1.789,1.105L42,70h-9c-2.209,0-4,1.791-4,4v7c0,1.105,0.896,2,2,2h48c1.104,0,2-0.895,2-2V74z"/>
		</g>
		<g>
			<path style="fill:#66510D;" d="M54,69h-7c-1.104,0-2,0.896-2,2v7c0,1.104,0.896,2,2,2h7V69z"/>
		</g>
		<g>
			<path style="fill:#66510D;" d="M56,69h7c1.104,0,2,0.896,2,2v7c0,1.104-0.896,2-2,2h-7V69z"/>
		</g>
		<g>
			<circle style="fill:#FA9200;" cx="37" cy="77" r="3"/>
		</g>
		<g>
			<circle style="fill:#FA9200;" cx="72" cy="77" r="3"/>
		</g>
		<g>
			<rect x="31" y="47" style="fill:#FFF5D9;" width="48" height="2"/>
		</g>
		<g>
			<polygon style="fill:#FFFFFF;" points="54.123,47 31,47 31,49 52.123,49 			"/>
		</g>
		<g>
			<path style="fill:#FFE9A1;" d="M75,49H57v12c0,1.105,0.896,2,2,2h14c1.104,0,2-0.895,2-2V49z"/>
		</g>
		<g>
			<path style="fill:#FFF5D9;" d="M35,37c0,1.105,0.896,2,2,2h14c1.104,0,2-0.895,2-2v-8c0-1.104-0.896-2-2-2H37
				c-1.104,0-2,0.896-2,2V37z"/>
		</g>
		<g>
			<path style="fill:#FFE9A1;" d="M57,37c0,1.105,0.896,2,2,2h14c1.104,0,2-0.895,2-2v-8c0-1.104-0.896-2-2-2H59
				c-1.104,0-2,0.896-2,2V37z"/>
		</g>
		<g>
			<path style="fill:#FFF5D9;" d="M73,27H59c-1.104,0-2,0.896-2,2v8c0,1.104,0.896,2,2,2h3.123L73.9,27.223
				C73.629,27.085,73.326,27,73,27z"/>
		</g>
		<g>
			<path style="fill:#FFAA00;" d="M72,74.044c-1.656,0-3,1.343-3,3c0,0.752,0.286,1.43,0.742,1.956l4.214-4.213
				C73.43,74.33,72.752,74.044,72,74.044z"/>
		</g>
		<g>
			<path style="fill:#FFAA00;" d="M37,74c-1.656,0-3,1.343-3,3c0,0.752,0.286,1.43,0.742,1.956l4.214-4.213
				C38.43,74.286,37.752,74,37,74z"/>
		</g>
		<rect x="35" y="49" style="fill:#FFE9A1;" width="18" height="8"/>
		<path style="fill:#FFE9A1;" d="M35,61c0,1.104,0.896,2,2,2h14c1.104,0,2-0.896,2-2v-2H35V61z"/>
		<polygon style="fill:#FFF5D9;" points="44.123,57 52.123,49 35,49 35,57 		"/>
		<path style="fill:#FFF5D9;" d="M35,59v2c0,1.104,0.896,2,2,2h1.123l4-4H35z"/>
	</g>
</g>
</svg>
