<?xml version="1.0" encoding="iso-8859-1"?>
<!-- Generator: Adobe Illustrator 17.1.0, SVG Export Plug-In . SVG Version: 6.00 Build 0)  -->
<!DOCTYPE svg PUBLIC "-//W3C//DTD SVG 1.0//EN" "http://www.w3.org/TR/2001/REC-SVG-20010904/DTD/svg10.dtd">
<svg version="1.0" xmlns="http://www.w3.org/2000/svg" xmlns:xlink="http://www.w3.org/1999/xlink" x="0px" y="0px" width="110px"
	 height="110px" viewBox="0 0 110 110" style="enable-background:new 0 0 110 110;" xml:space="preserve">
<g id="Artboard" style="display:none;">
	
		<rect x="-1096.5" y="-674.5" style="display:inline;fill:#808080;stroke:#000000;stroke-miterlimit:10;" width="1392" height="1369"/>
</g>
<g id="R-Multicolor" style="display:none;">
	<circle style="display:inline;fill:#E04F5F;" cx="55" cy="55" r="55"/>
	<g style="display:inline;">
		<g>
			<path style="fill:#FBE158;" d="M83,39L27,59v26c0,0.65,0.316,1.26,0.848,1.635s1.212,0.467,1.825,0.249L83,67.838V39z"/>
		</g>
		<g>
			<path style="fill:#FCF6C2;" d="M83,39L27,59l28-36C67.21,23,78.326,30.413,83,39z"/>
		</g>
		<g>
			<circle style="fill:#F3B607;" cx="52" cy="70" r="1"/>
		</g>
		<g>
			<circle style="fill:#F3B607;" cx="78" cy="46" r="1"/>
		</g>
		<g>
			<circle style="fill:#F3B607;" cx="71" cy="55" r="4"/>
		</g>
		<g>
			<circle style="fill:#F3B607;" cx="40" cy="58" r="1"/>
		</g>
		<g>
			<path style="fill:#F3B607;" d="M44.6,78.831c-0.025,0.018-0.051,0.043-0.07,0.068c-0.721,0.955-0.637,1.928-0.159,2.601
				l3.616-1.291C47.884,78.732,46.197,77.691,44.6,78.831z"/>
		</g>
		<g>
			<circle style="fill:#F3B607;" cx="64" cy="65" r="2"/>
		</g>
		<g>
			<circle style="fill:#F3B607;" cx="37" cy="69" r="2"/>
		</g>
		<g>
			<ellipse style="fill:#FACB1B;" cx="58" cy="30.5" rx="3" ry="1.5"/>
		</g>
		<g>
			<ellipse style="fill:#FACB1B;" cx="51.5" cy="41.25" rx="2.5" ry="1.25"/>
		</g>
		<g>
			<ellipse style="fill:#FACB1B;" cx="66.5" cy="37" rx="4.5" ry="2"/>
		</g>
		<g>
			<ellipse style="fill:#FACB1B;" cx="42" cy="48" rx="2" ry="1"/>
		</g>
	</g>
</g>
<g id="Multicolor">
	<g>
		<g>
			<path style="fill:#FBE158;" d="M83,39L27,59v26c0,0.65,0.316,1.26,0.848,1.635s1.212,0.467,1.825,0.249L83,67.838V39z"/>
		</g>
		<g>
			<path style="fill:#FCF6C2;" d="M83,39L27,59l28-36C67.21,23,78.326,30.413,83,39z"/>
		</g>
		<g>
			<circle style="fill:#F3B607;" cx="52" cy="70" r="1"/>
		</g>
		<g>
			<circle style="fill:#F3B607;" cx="78" cy="46" r="1"/>
		</g>
		<g>
			<circle style="fill:#F3B607;" cx="71" cy="55" r="4"/>
		</g>
		<g>
			<circle style="fill:#F3B607;" cx="40" cy="58" r="1"/>
		</g>
		<g>
			<path style="fill:#F3B607;" d="M44.6,78.831c-0.025,0.018-0.051,0.043-0.07,0.068c-0.721,0.955-0.637,1.928-0.159,2.601
				l3.616-1.291C47.884,78.732,46.197,77.691,44.6,78.831z"/>
		</g>
		<g>
			<circle style="fill:#F3B607;" cx="64" cy="65" r="2"/>
		</g>
		<g>
			<circle style="fill:#F3B607;" cx="37" cy="69" r="2"/>
		</g>
		<g>
			<ellipse style="fill:#FACB1B;" cx="58" cy="30.5" rx="3" ry="1.5"/>
		</g>
		<g>
			<ellipse style="fill:#FACB1B;" cx="51.5" cy="41.25" rx="2.5" ry="1.25"/>
		</g>
		<g>
			<ellipse style="fill:#FACB1B;" cx="66.5" cy="37" rx="4.5" ry="2"/>
		</g>
		<g>
			<ellipse style="fill:#FACB1B;" cx="42" cy="48" rx="2" ry="1"/>
		</g>
	</g>
</g>
<g id="Blue" style="display:none;">
	<g style="display:inline;">
		<g>
			<path style="fill:#BBE7F2;" d="M83,39L27,59v26c0,0.65,0.316,1.26,0.848,1.635c0.531,0.375,1.213,0.468,1.825,0.249L83,67.838V39
				z"/>
		</g>
		<g>
			<path style="fill:#FFFFFF;" d="M83,39L27,59l28-36C67.21,23,78.326,30.413,83,39z"/>
		</g>
		<g>
			<circle style="fill:#53BAD4;" cx="52" cy="70" r="1"/>
		</g>
		<g>
			<circle style="fill:#53BAD4;" cx="78" cy="46" r="1"/>
		</g>
		<g>
			<circle style="fill:#53BAD4;" cx="71" cy="55" r="4"/>
		</g>
		<g>
			<circle style="fill:#53BAD4;" cx="40" cy="58" r="1"/>
		</g>
		<g>
			<path style="fill:#53BAD4;" d="M44.6,78.831c-0.025,0.018-0.051,0.043-0.07,0.068c-0.721,0.955-0.637,1.928-0.158,2.601
				l3.615-1.291C47.884,78.732,46.197,77.691,44.6,78.831z"/>
		</g>
		<g>
			<circle style="fill:#53BAD4;" cx="64" cy="65" r="2"/>
		</g>
		<g>
			<circle style="fill:#53BAD4;" cx="37" cy="69" r="2"/>
		</g>
		<g>
			<ellipse style="fill:#BBE7F2;" cx="58" cy="30.5" rx="3" ry="1.5"/>
		</g>
		<g>
			<ellipse style="fill:#BBE7F2;" cx="51.5" cy="41.25" rx="2.5" ry="1.25"/>
		</g>
		<g>
			<ellipse style="fill:#BBE7F2;" cx="66.5" cy="37" rx="4.5" ry="2"/>
		</g>
		<g>
			<ellipse style="fill:#BBE7F2;" cx="42" cy="48" rx="2" ry="1"/>
		</g>
	</g>
</g>
<g id="R-Blue" style="display:none;">
	<circle style="display:inline;fill:#81D2EB;" cx="55" cy="55" r="55"/>
	<g style="display:inline;">
		<g>
			<path style="fill:#BBE7F2;" d="M83,39L27,59v26c0,0.65,0.316,1.26,0.848,1.635c0.531,0.375,1.213,0.468,1.825,0.249L83,67.838V39
				z"/>
		</g>
		<g>
			<path style="fill:#FFFFFF;" d="M83,39L27,59l28-36C67.21,23,78.326,30.413,83,39z"/>
		</g>
		<g>
			<circle style="fill:#53BAD4;" cx="52" cy="70" r="1"/>
		</g>
		<g>
			<circle style="fill:#53BAD4;" cx="78" cy="46" r="1"/>
		</g>
		<g>
			<circle style="fill:#53BAD4;" cx="71" cy="55" r="4"/>
		</g>
		<g>
			<circle style="fill:#53BAD4;" cx="40" cy="58" r="1"/>
		</g>
		<g>
			<path style="fill:#53BAD4;" d="M44.6,78.831c-0.025,0.018-0.051,0.043-0.07,0.068c-0.721,0.955-0.637,1.928-0.158,2.601
				l3.615-1.291C47.884,78.732,46.197,77.691,44.6,78.831z"/>
		</g>
		<g>
			<circle style="fill:#53BAD4;" cx="64" cy="65" r="2"/>
		</g>
		<g>
			<circle style="fill:#53BAD4;" cx="37" cy="69" r="2"/>
		</g>
		<g>
			<ellipse style="fill:#BBE7F2;" cx="58" cy="30.5" rx="3" ry="1.5"/>
		</g>
		<g>
			<ellipse style="fill:#BBE7F2;" cx="51.5" cy="41.25" rx="2.5" ry="1.25"/>
		</g>
		<g>
			<ellipse style="fill:#BBE7F2;" cx="66.5" cy="37" rx="4.5" ry="2"/>
		</g>
		<g>
			<ellipse style="fill:#BBE7F2;" cx="42" cy="48" rx="2" ry="1"/>
		</g>
	</g>
</g>
<g id="Green" style="display:none;">
	<g style="display:inline;">
		<g>
			<path style="fill:#AAF0E9;" d="M83,39L27,59v26c0,0.65,0.316,1.26,0.848,1.635c0.531,0.375,1.213,0.468,1.825,0.249L83,67.838V39
				z"/>
		</g>
		<g>
			<path style="fill:#FFFFFF;" d="M83,39L27,59l28-36C67.21,23,78.326,30.413,83,39z"/>
		</g>
		<g>
			<circle style="fill:#55C9BE;" cx="52" cy="70" r="1"/>
		</g>
		<g>
			<circle style="fill:#55C9BE;" cx="78" cy="46" r="1"/>
		</g>
		<g>
			<circle style="fill:#55C9BE;" cx="71" cy="55" r="4"/>
		</g>
		<g>
			<circle style="fill:#55C9BE;" cx="40" cy="58" r="1"/>
		</g>
		<g>
			<path style="fill:#55C9BE;" d="M44.6,78.831c-0.025,0.018-0.051,0.043-0.07,0.068c-0.721,0.955-0.637,1.928-0.158,2.601
				l3.615-1.291C47.884,78.732,46.197,77.691,44.6,78.831z"/>
		</g>
		<g>
			<circle style="fill:#55C9BE;" cx="64" cy="65" r="2"/>
		</g>
		<g>
			<circle style="fill:#55C9BE;" cx="37" cy="69" r="2"/>
		</g>
		<g>
			<ellipse style="fill:#AAF0E9;" cx="58" cy="30.5" rx="3" ry="1.5"/>
		</g>
		<g>
			<ellipse style="fill:#AAF0E9;" cx="51.5" cy="41.25" rx="2.5" ry="1.25"/>
		</g>
		<g>
			<ellipse style="fill:#AAF0E9;" cx="66.5" cy="37" rx="4.5" ry="2"/>
		</g>
		<g>
			<ellipse style="fill:#AAF0E9;" cx="42" cy="48" rx="2" ry="1"/>
		</g>
	</g>
</g>
<g id="R-Green" style="display:none;">
	<circle style="display:inline;fill:#77E0C4;" cx="55" cy="55" r="55"/>
	<g style="display:inline;">
		<g>
			<path style="fill:#AAF0E9;" d="M83,39L27,59v26c0,0.65,0.316,1.26,0.848,1.635c0.531,0.375,1.213,0.468,1.825,0.249L83,67.838V39
				z"/>
		</g>
		<g>
			<path style="fill:#FFFFFF;" d="M83,39L27,59l28-36C67.21,23,78.326,30.413,83,39z"/>
		</g>
		<g>
			<circle style="fill:#55C9BE;" cx="52" cy="70" r="1"/>
		</g>
		<g>
			<circle style="fill:#55C9BE;" cx="78" cy="46" r="1"/>
		</g>
		<g>
			<circle style="fill:#55C9BE;" cx="71" cy="55" r="4"/>
		</g>
		<g>
			<circle style="fill:#55C9BE;" cx="40" cy="58" r="1"/>
		</g>
		<g>
			<path style="fill:#55C9BE;" d="M44.6,78.831c-0.025,0.018-0.051,0.043-0.07,0.068c-0.721,0.955-0.637,1.928-0.158,2.601
				l3.615-1.291C47.884,78.732,46.197,77.691,44.6,78.831z"/>
		</g>
		<g>
			<circle style="fill:#55C9BE;" cx="64" cy="65" r="2"/>
		</g>
		<g>
			<circle style="fill:#55C9BE;" cx="37" cy="69" r="2"/>
		</g>
		<g>
			<ellipse style="fill:#AAF0E9;" cx="58" cy="30.5" rx="3" ry="1.5"/>
		</g>
		<g>
			<ellipse style="fill:#AAF0E9;" cx="51.5" cy="41.25" rx="2.5" ry="1.25"/>
		</g>
		<g>
			<ellipse style="fill:#AAF0E9;" cx="66.5" cy="37" rx="4.5" ry="2"/>
		</g>
		<g>
			<ellipse style="fill:#AAF0E9;" cx="42" cy="48" rx="2" ry="1"/>
		</g>
	</g>
</g>
<g id="Red" style="display:none;">
	<g style="display:inline;">
		<g>
			<path style="fill:#FFD7D4;" d="M83,39L27,59v26c0,0.65,0.316,1.26,0.848,1.635c0.531,0.375,1.213,0.468,1.825,0.249L83,67.838V39
				z"/>
		</g>
		<g>
			<path style="fill:#FFFFFF;" d="M83,39L27,59l28-36C67.21,23,78.326,30.413,83,39z"/>
		</g>
		<g>
			<circle style="fill:#E8A099;" cx="52" cy="70" r="1"/>
		</g>
		<g>
			<circle style="fill:#E8A099;" cx="78" cy="46" r="1"/>
		</g>
		<g>
			<circle style="fill:#E8A099;" cx="71" cy="55" r="4"/>
		</g>
		<g>
			<circle style="fill:#E8A099;" cx="40" cy="58" r="1"/>
		</g>
		<g>
			<path style="fill:#E8A099;" d="M44.6,78.831c-0.025,0.018-0.051,0.043-0.07,0.068c-0.721,0.955-0.637,1.928-0.158,2.601
				l3.615-1.291C47.884,78.732,46.197,77.691,44.6,78.831z"/>
		</g>
		<g>
			<circle style="fill:#E8A099;" cx="64" cy="65" r="2"/>
		</g>
		<g>
			<circle style="fill:#E8A099;" cx="37" cy="69" r="2"/>
		</g>
		<g>
			<ellipse style="fill:#FFD7D4;" cx="58" cy="30.5" rx="3" ry="1.5"/>
		</g>
		<g>
			<ellipse style="fill:#FFD7D4;" cx="51.5" cy="41.25" rx="2.5" ry="1.25"/>
		</g>
		<g>
			<ellipse style="fill:#FFD7D4;" cx="66.5" cy="37" rx="4.5" ry="2"/>
		</g>
		<g>
			<ellipse style="fill:#FFD7D4;" cx="42" cy="48" rx="2" ry="1"/>
		</g>
	</g>
</g>
<g id="R-Red" style="display:none;">
	<circle style="display:inline;fill:#FABBAF;" cx="55" cy="55" r="55"/>
	<g style="display:inline;">
		<g>
			<path style="fill:#FFD7D4;" d="M83,39L27,59v26c0,0.65,0.316,1.26,0.848,1.635c0.531,0.375,1.213,0.468,1.825,0.249L83,67.838V39
				z"/>
		</g>
		<g>
			<path style="fill:#FFFFFF;" d="M83,39L27,59l28-36C67.21,23,78.326,30.413,83,39z"/>
		</g>
		<g>
			<circle style="fill:#E8A099;" cx="52" cy="70" r="1"/>
		</g>
		<g>
			<circle style="fill:#E8A099;" cx="78" cy="46" r="1"/>
		</g>
		<g>
			<circle style="fill:#E8A099;" cx="71" cy="55" r="4"/>
		</g>
		<g>
			<circle style="fill:#E8A099;" cx="40" cy="58" r="1"/>
		</g>
		<g>
			<path style="fill:#E8A099;" d="M44.6,78.831c-0.025,0.018-0.051,0.043-0.07,0.068c-0.721,0.955-0.637,1.928-0.158,2.601
				l3.615-1.291C47.884,78.732,46.197,77.691,44.6,78.831z"/>
		</g>
		<g>
			<circle style="fill:#E8A099;" cx="64" cy="65" r="2"/>
		</g>
		<g>
			<circle style="fill:#E8A099;" cx="37" cy="69" r="2"/>
		</g>
		<g>
			<ellipse style="fill:#FFD7D4;" cx="58" cy="30.5" rx="3" ry="1.5"/>
		</g>
		<g>
			<ellipse style="fill:#FFD7D4;" cx="51.5" cy="41.25" rx="2.5" ry="1.25"/>
		</g>
		<g>
			<ellipse style="fill:#FFD7D4;" cx="66.5" cy="37" rx="4.5" ry="2"/>
		</g>
		<g>
			<ellipse style="fill:#FFD7D4;" cx="42" cy="48" rx="2" ry="1"/>
		</g>
	</g>
</g>
<g id="Yellow" style="display:none;">
	<g style="display:inline;">
		<g>
			<path style="fill:#FFE9A1;" d="M83,39L27,59v26c0,0.65,0.316,1.26,0.848,1.635c0.531,0.375,1.213,0.468,1.825,0.249L83,67.838V39
				z"/>
		</g>
		<g>
			<path style="fill:#FFFFFF;" d="M83,39L27,59l28-36C67.21,23,78.326,30.413,83,39z"/>
		</g>
		<g>
			<circle style="fill:#F5C43D;" cx="52" cy="70" r="1"/>
		</g>
		<g>
			<circle style="fill:#F5C43D;" cx="78" cy="46" r="1"/>
		</g>
		<g>
			<circle style="fill:#F5C43D;" cx="71" cy="55" r="4"/>
		</g>
		<g>
			<circle style="fill:#F5C43D;" cx="40" cy="58" r="1"/>
		</g>
		<g>
			<path style="fill:#F5C43D;" d="M44.6,78.831c-0.025,0.018-0.051,0.043-0.07,0.068c-0.721,0.955-0.637,1.928-0.158,2.601
				l3.615-1.291C47.884,78.732,46.197,77.691,44.6,78.831z"/>
		</g>
		<g>
			<circle style="fill:#F5C43D;" cx="64" cy="65" r="2"/>
		</g>
		<g>
			<circle style="fill:#F5C43D;" cx="37" cy="69" r="2"/>
		</g>
		<g>
			<ellipse style="fill:#FFE9A1;" cx="58" cy="30.5" rx="3" ry="1.5"/>
		</g>
		<g>
			<ellipse style="fill:#FFE9A1;" cx="51.5" cy="41.25" rx="2.5" ry="1.25"/>
		</g>
		<g>
			<ellipse style="fill:#FFE9A1;" cx="66.5" cy="37" rx="4.5" ry="2"/>
		</g>
		<g>
			<ellipse style="fill:#FFE9A1;" cx="42" cy="48" rx="2" ry="1"/>
		</g>
	</g>
</g>
<g id="R-Yellow" style="display:none;">
	<circle style="display:inline;fill:#FFD75E;" cx="55" cy="55" r="55"/>
	<g style="display:inline;">
		<g>
			<path style="fill:#FFE9A1;" d="M83,39L27,59v26c0,0.65,0.316,1.26,0.848,1.635c0.531,0.375,1.213,0.468,1.825,0.249L83,67.838V39
				z"/>
		</g>
		<g>
			<path style="fill:#FFFFFF;" d="M83,39L27,59l28-36C67.21,23,78.326,30.413,83,39z"/>
		</g>
		<g>
			<circle style="fill:#F5C43D;" cx="52" cy="70" r="1"/>
		</g>
		<g>
			<circle style="fill:#F5C43D;" cx="78" cy="46" r="1"/>
		</g>
		<g>
			<circle style="fill:#F5C43D;" cx="71" cy="55" r="4"/>
		</g>
		<g>
			<circle style="fill:#F5C43D;" cx="40" cy="58" r="1"/>
		</g>
		<g>
			<path style="fill:#F5C43D;" d="M44.6,78.831c-0.025,0.018-0.051,0.043-0.07,0.068c-0.721,0.955-0.637,1.928-0.158,2.601
				l3.615-1.291C47.884,78.732,46.197,77.691,44.6,78.831z"/>
		</g>
		<g>
			<circle style="fill:#F5C43D;" cx="64" cy="65" r="2"/>
		</g>
		<g>
			<circle style="fill:#F5C43D;" cx="37" cy="69" r="2"/>
		</g>
		<g>
			<ellipse style="fill:#FFE9A1;" cx="58" cy="30.5" rx="3" ry="1.5"/>
		</g>
		<g>
			<ellipse style="fill:#FFE9A1;" cx="51.5" cy="41.25" rx="2.5" ry="1.25"/>
		</g>
		<g>
			<ellipse style="fill:#FFE9A1;" cx="66.5" cy="37" rx="4.5" ry="2"/>
		</g>
		<g>
			<ellipse style="fill:#FFE9A1;" cx="42" cy="48" rx="2" ry="1"/>
		</g>
	</g>
</g>
</svg>
