<?xml version="1.0" encoding="iso-8859-1"?>
<!-- Generator: Adobe Illustrator 17.1.0, SVG Export Plug-In . SVG Version: 6.00 Build 0)  -->
<!DOCTYPE svg PUBLIC "-//W3C//DTD SVG 1.0//EN" "http://www.w3.org/TR/2001/REC-SVG-20010904/DTD/svg10.dtd">
<svg version="1.0" xmlns="http://www.w3.org/2000/svg" xmlns:xlink="http://www.w3.org/1999/xlink" x="0px" y="0px" width="110px"
	 height="110px" viewBox="0 0 110 110" style="enable-background:new 0 0 110 110;" xml:space="preserve">
<g id="Artboard" style="display:none;">
	
		<rect x="-1192.5" y="-164.5" style="display:inline;fill:#808080;stroke:#000000;stroke-miterlimit:10;" width="1326" height="332"/>
</g>
<g id="R-Multicolor" style="display:none;">
	<circle style="display:inline;fill:#25B7D3;" cx="55" cy="55" r="55"/>
	<g style="display:inline;">
		<g>
			<path style="fill:#84462D;" d="M23,27c0-2.209,1.791-4,4-4h56c2.209,0,4,1.791,4,4v56c0,2.209-1.791,4-4,4H27
				c-2.209,0-4-1.791-4-4V27z"/>
		</g>
		<g>
			<rect x="27" y="27" style="fill:#FFFFFF;" width="56" height="56"/>
		</g>
		<g>
			<rect x="27" y="69" style="fill:#3E3E3F;" width="14" height="14"/>
		</g>
		<g>
			<rect x="41" y="55" style="fill:#3E3E3F;" width="14" height="14"/>
		</g>
		<g>
			<rect x="55" y="41" style="fill:#3E3E3F;" width="14" height="14"/>
		</g>
		<g>
			<rect x="55" y="69" style="fill:#3E3E3F;" width="14" height="14"/>
		</g>
		<g>
			<rect x="69" y="27" style="fill:#3E3E3F;" width="14" height="14"/>
		</g>
		<g>
			<rect x="41" y="27" style="fill:#5B5C5F;" width="14" height="14"/>
		</g>
		<g>
			<polygon style="fill:#3E3E3F;" points="55,41 41,41 55,27 			"/>
		</g>
		<g>
			<rect x="27" y="41" style="fill:#5B5C5F;" width="14" height="14"/>
		</g>
		<g>
			<polygon style="fill:#3E3E3F;" points="41,55 27,55 41,41 			"/>
		</g>
		<g>
			<rect x="69" y="55" style="fill:#3E3E3F;" width="14" height="14"/>
		</g>
		<g>
			<circle style="fill:#FFFFFF;" cx="48" cy="62" r="4"/>
		</g>
		<g>
			<circle style="fill:#FFFFFF;" cx="76" cy="62" r="4"/>
		</g>
		<g>
			<circle style="fill:#FFFFFF;" cx="62" cy="76" r="4"/>
		</g>
		<g>
			<circle style="fill:#FFFFFF;" cx="34" cy="76" r="4"/>
		</g>
	</g>
</g>
<g id="Multicolor">
	<g>
		<g>
			<path style="fill:#84462D;" d="M23,27c0-2.209,1.791-4,4-4h56c2.209,0,4,1.791,4,4v56c0,2.209-1.791,4-4,4H27
				c-2.209,0-4-1.791-4-4V27z"/>
		</g>
		<g>
			<rect x="27" y="27" style="fill:#FFFFFF;" width="56" height="56"/>
		</g>
		<g>
			<rect x="27" y="69" style="fill:#3E3E3F;" width="14" height="14"/>
		</g>
		<g>
			<rect x="41" y="55" style="fill:#3E3E3F;" width="14" height="14"/>
		</g>
		<g>
			<rect x="55" y="41" style="fill:#3E3E3F;" width="14" height="14"/>
		</g>
		<g>
			<rect x="55" y="69" style="fill:#3E3E3F;" width="14" height="14"/>
		</g>
		<g>
			<rect x="69" y="27" style="fill:#3E3E3F;" width="14" height="14"/>
		</g>
		<g>
			<rect x="41" y="27" style="fill:#5B5C5F;" width="14" height="14"/>
		</g>
		<g>
			<polygon style="fill:#3E3E3F;" points="55,41 41,41 55,27 			"/>
		</g>
		<g>
			<rect x="27" y="41" style="fill:#5B5C5F;" width="14" height="14"/>
		</g>
		<g>
			<polygon style="fill:#3E3E3F;" points="41,55 27,55 41,41 			"/>
		</g>
		<g>
			<rect x="69" y="55" style="fill:#3E3E3F;" width="14" height="14"/>
		</g>
		<g>
			<circle style="fill:#FFFFFF;" cx="48" cy="62" r="4"/>
		</g>
		<g>
			<circle style="fill:#FFFFFF;" cx="76" cy="62" r="4"/>
		</g>
		<g>
			<circle style="fill:#FFFFFF;" cx="62" cy="76" r="4"/>
		</g>
		<g>
			<circle style="fill:#FFFFFF;" cx="34" cy="76" r="4"/>
		</g>
	</g>
</g>
<g id="Blue" style="display:none;">
	<g style="display:inline;">
		<g>
			<path style="fill:#0F6175;" d="M23,27c0-2.209,1.791-4,4-4h56c2.209,0,4,1.791,4,4v56c0,2.209-1.791,4-4,4H27
				c-2.209,0-4-1.791-4-4V27z"/>
		</g>
		<g>
			<rect x="27" y="27" style="fill:#FFFFFF;" width="56" height="56"/>
		</g>
		<g>
			<rect x="27" y="69" style="fill:#0C333D;" width="14" height="14"/>
		</g>
		<g>
			<rect x="41" y="55" style="fill:#0C333D;" width="14" height="14"/>
		</g>
		<g>
			<rect x="55" y="41" style="fill:#0C333D;" width="14" height="14"/>
		</g>
		<g>
			<rect x="55" y="69" style="fill:#0C333D;" width="14" height="14"/>
		</g>
		<g>
			<rect x="69" y="27" style="fill:#0C333D;" width="14" height="14"/>
		</g>
		<g>
			<rect x="41" y="27" style="fill:#0F6175;" width="14" height="14"/>
		</g>
		<g>
			<polygon style="fill:#0C333D;" points="55,41 41,41 55,27 			"/>
		</g>
		<g>
			<rect x="27" y="41" style="fill:#0F6175;" width="14" height="14"/>
		</g>
		<g>
			<polygon style="fill:#0C333D;" points="41,55 27,55 41,41 			"/>
		</g>
		<g>
			<rect x="69" y="55" style="fill:#0C333D;" width="14" height="14"/>
		</g>
		<g>
			<circle style="fill:#FFFFFF;" cx="48" cy="62" r="4"/>
		</g>
		<g>
			<circle style="fill:#FFFFFF;" cx="76" cy="62" r="4"/>
		</g>
		<g>
			<circle style="fill:#FFFFFF;" cx="62" cy="76" r="4"/>
		</g>
		<g>
			<circle style="fill:#FFFFFF;" cx="34" cy="76" r="4"/>
		</g>
	</g>
</g>
<g id="R-Blue" style="display:none;">
	<circle style="display:inline;fill:#81D2EB;" cx="55" cy="55" r="55"/>
	<g style="display:inline;">
		<g>
			<path style="fill:#0F6175;" d="M23,27c0-2.209,1.791-4,4-4h56c2.209,0,4,1.791,4,4v56c0,2.209-1.791,4-4,4H27
				c-2.209,0-4-1.791-4-4V27z"/>
		</g>
		<g>
			<rect x="27" y="27" style="fill:#FFFFFF;" width="56" height="56"/>
		</g>
		<g>
			<rect x="27" y="69" style="fill:#0C333D;" width="14" height="14"/>
		</g>
		<g>
			<rect x="41" y="55" style="fill:#0C333D;" width="14" height="14"/>
		</g>
		<g>
			<rect x="55" y="41" style="fill:#0C333D;" width="14" height="14"/>
		</g>
		<g>
			<rect x="55" y="69" style="fill:#0C333D;" width="14" height="14"/>
		</g>
		<g>
			<rect x="69" y="27" style="fill:#0C333D;" width="14" height="14"/>
		</g>
		<g>
			<rect x="41" y="27" style="fill:#0F6175;" width="14" height="14"/>
		</g>
		<g>
			<polygon style="fill:#0C333D;" points="55,41 41,41 55,27 			"/>
		</g>
		<g>
			<rect x="27" y="41" style="fill:#0F6175;" width="14" height="14"/>
		</g>
		<g>
			<polygon style="fill:#0C333D;" points="41,55 27,55 41,41 			"/>
		</g>
		<g>
			<rect x="69" y="55" style="fill:#0C333D;" width="14" height="14"/>
		</g>
		<g>
			<circle style="fill:#FFFFFF;" cx="48" cy="62" r="4"/>
		</g>
		<g>
			<circle style="fill:#FFFFFF;" cx="76" cy="62" r="4"/>
		</g>
		<g>
			<circle style="fill:#FFFFFF;" cx="62" cy="76" r="4"/>
		</g>
		<g>
			<circle style="fill:#FFFFFF;" cx="34" cy="76" r="4"/>
		</g>
	</g>
</g>
<g id="Green" style="display:none;">
	<g style="display:inline;">
		<g>
			<path style="fill:#14635B;" d="M23,27c0-2.209,1.791-4,4-4h56c2.209,0,4,1.791,4,4v56c0,2.209-1.791,4-4,4H27
				c-2.209,0-4-1.791-4-4V27z"/>
		</g>
		<g>
			<rect x="27" y="27" style="fill:#FFFFFF;" width="56" height="56"/>
		</g>
		<g>
			<rect x="27" y="69" style="fill:#0A3631;" width="14" height="14"/>
		</g>
		<g>
			<rect x="41" y="55" style="fill:#0A3631;" width="14" height="14"/>
		</g>
		<g>
			<rect x="55" y="41" style="fill:#0A3631;" width="14" height="14"/>
		</g>
		<g>
			<rect x="55" y="69" style="fill:#0A3631;" width="14" height="14"/>
		</g>
		<g>
			<rect x="69" y="27" style="fill:#0A3631;" width="14" height="14"/>
		</g>
		<g>
			<rect x="41" y="27" style="fill:#14635B;" width="14" height="14"/>
		</g>
		<g>
			<polygon style="fill:#0A3631;" points="55,41 41,41 55,27 			"/>
		</g>
		<g>
			<rect x="27" y="41" style="fill:#14635B;" width="14" height="14"/>
		</g>
		<g>
			<polygon style="fill:#0A3631;" points="41,55 27,55 41,41 			"/>
		</g>
		<g>
			<rect x="69" y="55" style="fill:#0A3631;" width="14" height="14"/>
		</g>
		<g>
			<circle style="fill:#FFFFFF;" cx="48" cy="62" r="4"/>
		</g>
		<g>
			<circle style="fill:#FFFFFF;" cx="76" cy="62" r="4"/>
		</g>
		<g>
			<circle style="fill:#FFFFFF;" cx="62" cy="76" r="4"/>
		</g>
		<g>
			<circle style="fill:#FFFFFF;" cx="34" cy="76" r="4"/>
		</g>
	</g>
</g>
<g id="R-Green" style="display:none;">
	<circle style="display:inline;fill:#77E0C4;" cx="55" cy="55" r="55"/>
	<g style="display:inline;">
		<g>
			<path style="fill:#14635B;" d="M23,27c0-2.209,1.791-4,4-4h56c2.209,0,4,1.791,4,4v56c0,2.209-1.791,4-4,4H27
				c-2.209,0-4-1.791-4-4V27z"/>
		</g>
		<g>
			<rect x="27" y="27" style="fill:#FFFFFF;" width="56" height="56"/>
		</g>
		<g>
			<rect x="27" y="69" style="fill:#0A3631;" width="14" height="14"/>
		</g>
		<g>
			<rect x="41" y="55" style="fill:#0A3631;" width="14" height="14"/>
		</g>
		<g>
			<rect x="55" y="41" style="fill:#0A3631;" width="14" height="14"/>
		</g>
		<g>
			<rect x="55" y="69" style="fill:#0A3631;" width="14" height="14"/>
		</g>
		<g>
			<rect x="69" y="27" style="fill:#0A3631;" width="14" height="14"/>
		</g>
		<g>
			<rect x="41" y="27" style="fill:#14635B;" width="14" height="14"/>
		</g>
		<g>
			<polygon style="fill:#0A3631;" points="55,41 41,41 55,27 			"/>
		</g>
		<g>
			<rect x="27" y="41" style="fill:#14635B;" width="14" height="14"/>
		</g>
		<g>
			<polygon style="fill:#0A3631;" points="41,55 27,55 41,41 			"/>
		</g>
		<g>
			<rect x="69" y="55" style="fill:#0A3631;" width="14" height="14"/>
		</g>
		<g>
			<circle style="fill:#FFFFFF;" cx="48" cy="62" r="4"/>
		</g>
		<g>
			<circle style="fill:#FFFFFF;" cx="76" cy="62" r="4"/>
		</g>
		<g>
			<circle style="fill:#FFFFFF;" cx="62" cy="76" r="4"/>
		</g>
		<g>
			<circle style="fill:#FFFFFF;" cx="34" cy="76" r="4"/>
		</g>
	</g>
</g>
<g id="Red" style="display:none;">
	<g style="display:inline;">
		<g>
			<path style="fill:#7D261E;" d="M23,27c0-2.209,1.791-4,4-4h56c2.209,0,4,1.791,4,4v56c0,2.209-1.791,4-4,4H27
				c-2.209,0-4-1.791-4-4V27z"/>
		</g>
		<g>
			<rect x="27" y="27" style="fill:#FFFFFF;" width="56" height="56"/>
		</g>
		<g>
			<rect x="27" y="69" style="fill:#4A1410;" width="14" height="14"/>
		</g>
		<g>
			<rect x="41" y="55" style="fill:#4A1410;" width="14" height="14"/>
		</g>
		<g>
			<rect x="55" y="41" style="fill:#4A1410;" width="14" height="14"/>
		</g>
		<g>
			<rect x="55" y="69" style="fill:#4A1410;" width="14" height="14"/>
		</g>
		<g>
			<rect x="69" y="27" style="fill:#4A1410;" width="14" height="14"/>
		</g>
		<g>
			<rect x="41" y="27" style="fill:#7D261E;" width="14" height="14"/>
		</g>
		<g>
			<polygon style="fill:#4A1410;" points="55,41 41,41 55,27 			"/>
		</g>
		<g>
			<rect x="27" y="41" style="fill:#7D261E;" width="14" height="14"/>
		</g>
		<g>
			<polygon style="fill:#4A1410;" points="41,55 27,55 41,41 			"/>
		</g>
		<g>
			<rect x="69" y="55" style="fill:#4A1410;" width="14" height="14"/>
		</g>
		<g>
			<circle style="fill:#FFFFFF;" cx="48" cy="62" r="4"/>
		</g>
		<g>
			<circle style="fill:#FFFFFF;" cx="76" cy="62" r="4"/>
		</g>
		<g>
			<circle style="fill:#FFFFFF;" cx="62" cy="76" r="4"/>
		</g>
		<g>
			<circle style="fill:#FFFFFF;" cx="34" cy="76" r="4"/>
		</g>
	</g>
</g>
<g id="R-Red" style="display:none;">
	<circle style="display:inline;fill:#FABBAF;" cx="55" cy="55" r="55"/>
	<g style="display:inline;">
		<g>
			<path style="fill:#7D261E;" d="M23,27c0-2.209,1.791-4,4-4h56c2.209,0,4,1.791,4,4v56c0,2.209-1.791,4-4,4H27
				c-2.209,0-4-1.791-4-4V27z"/>
		</g>
		<g>
			<rect x="27" y="27" style="fill:#FFFFFF;" width="56" height="56"/>
		</g>
		<g>
			<rect x="27" y="69" style="fill:#4A1410;" width="14" height="14"/>
		</g>
		<g>
			<rect x="41" y="55" style="fill:#4A1410;" width="14" height="14"/>
		</g>
		<g>
			<rect x="55" y="41" style="fill:#4A1410;" width="14" height="14"/>
		</g>
		<g>
			<rect x="55" y="69" style="fill:#4A1410;" width="14" height="14"/>
		</g>
		<g>
			<rect x="69" y="27" style="fill:#4A1410;" width="14" height="14"/>
		</g>
		<g>
			<rect x="41" y="27" style="fill:#7D261E;" width="14" height="14"/>
		</g>
		<g>
			<polygon style="fill:#4A1410;" points="55,41 41,41 55,27 			"/>
		</g>
		<g>
			<rect x="27" y="41" style="fill:#7D261E;" width="14" height="14"/>
		</g>
		<g>
			<polygon style="fill:#4A1410;" points="41,55 27,55 41,41 			"/>
		</g>
		<g>
			<rect x="69" y="55" style="fill:#4A1410;" width="14" height="14"/>
		</g>
		<g>
			<circle style="fill:#FFFFFF;" cx="48" cy="62" r="4"/>
		</g>
		<g>
			<circle style="fill:#FFFFFF;" cx="76" cy="62" r="4"/>
		</g>
		<g>
			<circle style="fill:#FFFFFF;" cx="62" cy="76" r="4"/>
		</g>
		<g>
			<circle style="fill:#FFFFFF;" cx="34" cy="76" r="4"/>
		</g>
	</g>
</g>
<g id="Yellow" style="display:none;">
	<g style="display:inline;">
		<g>
			<path style="fill:#66510D;" d="M23,27c0-2.209,1.791-4,4-4h56c2.209,0,4,1.791,4,4v56c0,2.209-1.791,4-4,4H27
				c-2.209,0-4-1.791-4-4V27z"/>
		</g>
		<g>
			<rect x="27" y="27" style="fill:#FFFFFF;" width="56" height="56"/>
		</g>
		<g>
			<rect x="27" y="69" style="fill:#3D320C;" width="14" height="14"/>
		</g>
		<g>
			<rect x="41" y="55" style="fill:#3D320C;" width="14" height="14"/>
		</g>
		<g>
			<rect x="55" y="41" style="fill:#3D320C;" width="14" height="14"/>
		</g>
		<g>
			<rect x="55" y="69" style="fill:#3D320C;" width="14" height="14"/>
		</g>
		<g>
			<rect x="69" y="27" style="fill:#3D320C;" width="14" height="14"/>
		</g>
		<g>
			<rect x="41" y="27" style="fill:#66510D;" width="14" height="14"/>
		</g>
		<g>
			<polygon style="fill:#3D320C;" points="55,41 41,41 55,27 			"/>
		</g>
		<g>
			<rect x="27" y="41" style="fill:#66510D;" width="14" height="14"/>
		</g>
		<g>
			<polygon style="fill:#3D320C;" points="41,55 27,55 41,41 			"/>
		</g>
		<g>
			<rect x="69" y="55" style="fill:#3D320C;" width="14" height="14"/>
		</g>
		<g>
			<circle style="fill:#FFFFFF;" cx="48" cy="62" r="4"/>
		</g>
		<g>
			<circle style="fill:#FFFFFF;" cx="76" cy="62" r="4"/>
		</g>
		<g>
			<circle style="fill:#FFFFFF;" cx="62" cy="76" r="4"/>
		</g>
		<g>
			<circle style="fill:#FFFFFF;" cx="34" cy="76" r="4"/>
		</g>
	</g>
</g>
<g id="R-Yellow" style="display:none;">
	<circle style="display:inline;fill:#FFD75E;" cx="55" cy="55" r="55"/>
	<g style="display:inline;">
		<g>
			<path style="fill:#66510D;" d="M23,27c0-2.209,1.791-4,4-4h56c2.209,0,4,1.791,4,4v56c0,2.209-1.791,4-4,4H27
				c-2.209,0-4-1.791-4-4V27z"/>
		</g>
		<g>
			<rect x="27" y="27" style="fill:#FFFFFF;" width="56" height="56"/>
		</g>
		<g>
			<rect x="27" y="69" style="fill:#3D320C;" width="14" height="14"/>
		</g>
		<g>
			<rect x="41" y="55" style="fill:#3D320C;" width="14" height="14"/>
		</g>
		<g>
			<rect x="55" y="41" style="fill:#3D320C;" width="14" height="14"/>
		</g>
		<g>
			<rect x="55" y="69" style="fill:#3D320C;" width="14" height="14"/>
		</g>
		<g>
			<rect x="69" y="27" style="fill:#3D320C;" width="14" height="14"/>
		</g>
		<g>
			<rect x="41" y="27" style="fill:#66510D;" width="14" height="14"/>
		</g>
		<g>
			<polygon style="fill:#3D320C;" points="55,41 41,41 55,27 			"/>
		</g>
		<g>
			<rect x="27" y="41" style="fill:#66510D;" width="14" height="14"/>
		</g>
		<g>
			<polygon style="fill:#3D320C;" points="41,55 27,55 41,41 			"/>
		</g>
		<g>
			<rect x="69" y="55" style="fill:#3D320C;" width="14" height="14"/>
		</g>
		<g>
			<circle style="fill:#FFFFFF;" cx="48" cy="62" r="4"/>
		</g>
		<g>
			<circle style="fill:#FFFFFF;" cx="76" cy="62" r="4"/>
		</g>
		<g>
			<circle style="fill:#FFFFFF;" cx="62" cy="76" r="4"/>
		</g>
		<g>
			<circle style="fill:#FFFFFF;" cx="34" cy="76" r="4"/>
		</g>
	</g>
</g>
</svg>
