<?xml version="1.0" encoding="iso-8859-1"?>
<!-- Generator: Adobe Illustrator 17.1.0, SVG Export Plug-In . SVG Version: 6.00 Build 0)  -->
<!DOCTYPE svg PUBLIC "-//W3C//DTD SVG 1.0//EN" "http://www.w3.org/TR/2001/REC-SVG-20010904/DTD/svg10.dtd">
<svg version="1.0" xmlns="http://www.w3.org/2000/svg" xmlns:xlink="http://www.w3.org/1999/xlink" x="0px" y="0px" width="110px"
	 height="110px" viewBox="0 0 110 110" style="enable-background:new 0 0 110 110;" xml:space="preserve">
<g id="Artboard" style="display:none;">
	<rect x="-186" y="-173" style="display:inline;fill:#808080;" width="1347" height="333"/>
</g>
<g id="R-Multicolor" style="display:none;">
	<circle style="display:inline;fill:#E04F5F;" cx="55" cy="55" r="55"/>
	<g style="display:inline;">
		<path style="fill:#84462D;" d="M81,34c0-1.105-0.895-2-2-2H31c-1.105,0-2,0.895-2,2v51c0,1.105,0.895,2,2,2h48
			c1.105,0,2-0.895,2-2V34z"/>
		<rect x="33" y="36" style="fill:#FFFFFF;" width="44" height="47"/>
		<path style="fill:#FACB1B;" d="M65,29h-4c0-3.313-2.687-6-6-6s-6,2.687-6,6h-4c-1.104,0-2,0.896-2,2v8c0,1.104,0.896,2,2,2h20
			c1.105,0,2-0.896,2-2v-8C67,29.896,66.104,29,65,29z M55,25c1.104,0,2,0.896,2,2s-0.896,2-2,2s-2-0.896-2-2S53.896,25,55,25z"/>
		<g>
			<path style="fill:#DF2C2C;" d="M59.571,78.5c-3.309,0-6-2.692-6-6s2.691-6,6-6s6,2.692,6,6S62.88,78.5,59.571,78.5z M59.571,69.5
				c-1.654,0-3,1.346-3,3s1.346,3,3,3s3-1.346,3-3S61.226,69.5,59.571,69.5z"/>
		</g>
		<polygon style="fill:#5B5C5F;" points="72.142,53.743 70.328,51.929 67.607,54.65 64.885,51.929 63.071,53.743 65.792,56.464 
			63.071,59.186 64.885,61 67.607,58.279 70.328,61 72.142,59.186 69.421,56.464 		"/>
		<polygon style="fill:#5B5C5F;" points="48.071,47.814 46.257,46 43.536,48.721 40.743,45.929 38.929,47.743 41.721,50.536 
			39,53.257 40.814,55.071 43.536,52.35 46.186,55 48,53.186 45.35,50.536 		"/>
		<path style="fill:#DF2C2C;" d="M59.167,52l-8.096,0.947l2.231,2.348C50.264,57.099,42.571,62.864,42.571,75
			c0,0.828,0.671,1.5,1.5,1.5s1.5-0.672,1.5-1.5c0-11.708,8.142-16.568,9.862-17.463l2.376,2.5L59.167,52z"/>
		<path style="fill:#FBE158;" d="M65,29h-4c0-3.313-2.687-6-6-6s-6,2.687-6,6h-4c-1.104,0-2,0.896-2,2v4h24v-4
			C67,29.896,66.104,29,65,29z M55,29c-1.104,0-2-0.896-2-2s0.896-2,2-2s2,0.896,2,2S56.104,29,55,29z"/>
	</g>
</g>
<g id="Multicolor_1_">
	<g>
		<path style="fill:#84462D;" d="M81,34c0-1.105-0.895-2-2-2H31c-1.105,0-2,0.895-2,2v51c0,1.105,0.895,2,2,2h48
			c1.105,0,2-0.895,2-2V34z"/>
		<rect x="33" y="36" style="fill:#FFFFFF;" width="44" height="47"/>
		<path style="fill:#FACB1B;" d="M65,29h-4c0-3.313-2.687-6-6-6s-6,2.687-6,6h-4c-1.104,0-2,0.896-2,2v8c0,1.104,0.896,2,2,2h20
			c1.105,0,2-0.896,2-2v-8C67,29.896,66.104,29,65,29z M55,25c1.104,0,2,0.896,2,2s-0.896,2-2,2s-2-0.896-2-2S53.896,25,55,25z"/>
		<g>
			<path style="fill:#DF2C2C;" d="M59.571,78.5c-3.309,0-6-2.692-6-6s2.691-6,6-6s6,2.692,6,6S62.88,78.5,59.571,78.5z M59.571,69.5
				c-1.654,0-3,1.346-3,3s1.346,3,3,3s3-1.346,3-3S61.226,69.5,59.571,69.5z"/>
		</g>
		<polygon style="fill:#5B5C5F;" points="72.142,53.743 70.328,51.929 67.607,54.65 64.885,51.929 63.071,53.743 65.792,56.464 
			63.071,59.186 64.885,61 67.607,58.279 70.328,61 72.142,59.186 69.421,56.464 		"/>
		<polygon style="fill:#5B5C5F;" points="48.071,47.814 46.257,46 43.536,48.721 40.743,45.929 38.929,47.743 41.721,50.536 
			39,53.257 40.814,55.071 43.536,52.35 46.186,55 48,53.186 45.35,50.536 		"/>
		<path style="fill:#DF2C2C;" d="M59.167,52l-8.096,0.947l2.231,2.348C50.264,57.099,42.571,62.864,42.571,75
			c0,0.828,0.671,1.5,1.5,1.5s1.5-0.672,1.5-1.5c0-11.708,8.142-16.568,9.862-17.463l2.376,2.5L59.167,52z"/>
		<path style="fill:#FBE158;" d="M65,29h-4c0-3.313-2.687-6-6-6s-6,2.687-6,6h-4c-1.104,0-2,0.896-2,2v4h24v-4
			C67,29.896,66.104,29,65,29z M55,29c-1.104,0-2-0.896-2-2s0.896-2,2-2s2,0.896,2,2S56.104,29,55,29z"/>
	</g>
</g>
<g id="Blue" style="display:none;">
	<g style="display:inline;">
		<g>
			<path style="fill:#0F6175;" d="M81,34c0-1.104-0.896-2-2-2H31c-1.104,0-2,0.896-2,2v51c0,1.104,0.896,2,2,2h48
				c1.104,0,2-0.896,2-2V34z"/>
		</g>
		<g>
			<rect x="33" y="36" style="fill:#FFFFFF;" width="44" height="47"/>
		</g>
		<g>
			<path style="fill:#BBE7F2;" d="M65,29h-4c0-3.313-2.687-6-6-6s-6,2.687-6,6h-4c-1.104,0-2,0.896-2,2v8c0,1.104,0.896,2,2,2h20
				c1.104,0,2-0.896,2-2v-8C67,29.896,66.104,29,65,29z M55,25c1.104,0,2,0.896,2,2s-0.896,2-2,2s-2-0.896-2-2S53.895,25,55,25z"/>
		</g>
		<g>
			<g>
				<path style="fill:#0081A1;" d="M59.571,78.5c-3.309,0-6-2.691-6-6c0-3.308,2.691-6,6-6s6,2.692,6,6
					C65.571,75.809,62.88,78.5,59.571,78.5z M59.571,69.5c-1.654,0-3,1.346-3,3c0,1.654,1.346,3,3,3s3-1.346,3-3
					C62.571,70.846,61.226,69.5,59.571,69.5z"/>
			</g>
		</g>
		<g>
			<polygon style="fill:#00B7E5;" points="72.142,53.743 70.328,51.929 67.606,54.65 64.885,51.929 63.071,53.743 65.792,56.465 
				63.071,59.186 64.885,61 67.606,58.279 70.328,61 72.142,59.186 69.421,56.465 			"/>
		</g>
		<g>
			<polygon style="fill:#3BC8EB;" points="48.071,47.815 46.257,46 43.535,48.721 40.743,45.929 38.929,47.743 41.721,50.536 
				39,53.257 40.814,55.071 43.535,52.35 46.185,55 48,53.186 45.35,50.536 			"/>
		</g>
		<g>
			<path style="fill:#0C333D;" d="M59.167,52l-8.096,0.947l2.231,2.348C50.264,57.099,42.571,62.864,42.571,75
				c0,0.828,0.671,1.5,1.5,1.5c0.829,0,1.5-0.672,1.5-1.5c0-11.708,8.142-16.568,9.861-17.463l2.376,2.501L59.167,52z"/>
		</g>
		<g>
			<path style="fill:#E1F5FA;" d="M65,29h-4c0-3.313-2.687-6-6-6s-6,2.687-6,6h-4c-1.104,0-2,0.896-2,2v4h24v-4
				C67,29.896,66.104,29,65,29z M55,29c-1.104,0-2-0.896-2-2s0.896-2,2-2s2,0.896,2,2S56.104,29,55,29z"/>
		</g>
	</g>
</g>
<g id="R-Blue" style="display:none;">
	<g style="display:inline;">
		<circle style="fill:#81D2EB;" cx="55" cy="55" r="55"/>
	</g>
	<g style="display:inline;">
		<g>
			<path style="fill:#0F6175;" d="M81,34c0-1.104-0.896-2-2-2H31c-1.104,0-2,0.896-2,2v51c0,1.104,0.896,2,2,2h48
				c1.104,0,2-0.896,2-2V34z"/>
		</g>
		<g>
			<rect x="33" y="36" style="fill:#FFFFFF;" width="44" height="47"/>
		</g>
		<g>
			<path style="fill:#BBE7F2;" d="M65,29h-4c0-3.313-2.687-6-6-6s-6,2.687-6,6h-4c-1.104,0-2,0.896-2,2v8c0,1.104,0.896,2,2,2h20
				c1.104,0,2-0.896,2-2v-8C67,29.896,66.104,29,65,29z M55,25c1.104,0,2,0.896,2,2s-0.896,2-2,2s-2-0.896-2-2S53.895,25,55,25z"/>
		</g>
		<g>
			<g>
				<path style="fill:#0081A1;" d="M59.571,78.5c-3.309,0-6-2.691-6-6c0-3.308,2.691-6,6-6s6,2.692,6,6
					C65.571,75.809,62.88,78.5,59.571,78.5z M59.571,69.5c-1.654,0-3,1.346-3,3c0,1.654,1.346,3,3,3s3-1.346,3-3
					C62.571,70.846,61.226,69.5,59.571,69.5z"/>
			</g>
		</g>
		<g>
			<polygon style="fill:#00B7E5;" points="72.142,53.743 70.328,51.929 67.606,54.65 64.885,51.929 63.071,53.743 65.792,56.465 
				63.071,59.186 64.885,61 67.606,58.279 70.328,61 72.142,59.186 69.421,56.465 			"/>
		</g>
		<g>
			<polygon style="fill:#3BC8EB;" points="48.071,47.815 46.257,46 43.535,48.721 40.743,45.929 38.929,47.743 41.721,50.536 
				39,53.257 40.814,55.071 43.535,52.35 46.185,55 48,53.186 45.35,50.536 			"/>
		</g>
		<g>
			<path style="fill:#0C333D;" d="M59.167,52l-8.096,0.947l2.231,2.348C50.264,57.099,42.571,62.864,42.571,75
				c0,0.828,0.671,1.5,1.5,1.5c0.829,0,1.5-0.672,1.5-1.5c0-11.708,8.142-16.568,9.861-17.463l2.376,2.501L59.167,52z"/>
		</g>
		<g>
			<path style="fill:#E1F5FA;" d="M65,29h-4c0-3.313-2.687-6-6-6s-6,2.687-6,6h-4c-1.104,0-2,0.896-2,2v4h24v-4
				C67,29.896,66.104,29,65,29z M55,29c-1.104,0-2-0.896-2-2s0.896-2,2-2s2,0.896,2,2S56.104,29,55,29z"/>
		</g>
	</g>
</g>
<g id="Green" style="display:none;">
	<g style="display:inline;">
		<g>
			<path style="fill:#14635B;" d="M81,34c0-1.104-0.896-2-2-2H31c-1.104,0-2,0.896-2,2v51c0,1.104,0.896,2,2,2h48
				c1.104,0,2-0.896,2-2V34z"/>
		</g>
		<g>
			<rect x="33" y="36" style="fill:#FFFFFF;" width="44" height="47"/>
		</g>
		<g>
			<path style="fill:#AAF0E9;" d="M65,29h-4c0-3.313-2.687-6-6-6s-6,2.687-6,6h-4c-1.104,0-2,0.896-2,2v8c0,1.104,0.896,2,2,2h20
				c1.104,0,2-0.896,2-2v-8C67,29.896,66.104,29,65,29z M55,25c1.104,0,2,0.896,2,2s-0.896,2-2,2s-2-0.896-2-2S53.896,25,55,25z"/>
		</g>
		<g>
			<g>
				<path style="fill:#009687;" d="M59.571,78.5c-3.309,0-6-2.691-6-6c0-3.308,2.691-6,6-6s6,2.692,6,6
					C65.571,75.809,62.88,78.5,59.571,78.5z M59.571,69.5c-1.654,0-3,1.346-3,3c0,1.654,1.346,3,3,3s3-1.346,3-3
					C62.571,70.846,61.226,69.5,59.571,69.5z"/>
			</g>
		</g>
		<g>
			<polygon style="fill:#00D6C1;" points="72.142,53.743 70.328,51.929 67.606,54.65 64.885,51.929 63.071,53.743 65.793,56.465 
				63.071,59.186 64.885,61 67.606,58.279 70.328,61 72.142,59.186 69.421,56.465 			"/>
		</g>
		<g>
			<polygon style="fill:#3BE0CF;" points="48.071,47.815 46.257,46 43.535,48.721 40.743,45.929 38.929,47.743 41.721,50.536 
				39,53.257 40.815,55.071 43.535,52.35 46.186,55 48,53.186 45.35,50.536 			"/>
		</g>
		<g>
			<path style="fill:#0A3631;" d="M59.167,52l-8.096,0.947l2.231,2.348C50.264,57.099,42.571,62.864,42.571,75
				c0,0.828,0.671,1.5,1.5,1.5c0.829,0,1.5-0.672,1.5-1.5c0-11.708,8.142-16.568,9.861-17.463l2.376,2.501L59.167,52z"/>
		</g>
		<g>
			<path style="fill:#D7FCF9;" d="M65,29h-4c0-3.313-2.687-6-6-6s-6,2.687-6,6h-4c-1.104,0-2,0.896-2,2v4h24v-4
				C67,29.896,66.104,29,65,29z M55,29c-1.104,0-2-0.896-2-2s0.896-2,2-2s2,0.896,2,2S56.104,29,55,29z"/>
		</g>
	</g>
</g>
<g id="R-Green" style="display:none;">
	<g style="display:inline;">
		<circle style="fill:#87E0C8;" cx="55" cy="55" r="55"/>
	</g>
	<g style="display:inline;">
		<g>
			<path style="fill:#14635B;" d="M81,34c0-1.104-0.896-2-2-2H31c-1.104,0-2,0.896-2,2v51c0,1.104,0.896,2,2,2h48
				c1.104,0,2-0.896,2-2V34z"/>
		</g>
		<g>
			<rect x="33" y="36" style="fill:#FFFFFF;" width="44" height="47"/>
		</g>
		<g>
			<path style="fill:#AAF0E9;" d="M65,29h-4c0-3.313-2.687-6-6-6s-6,2.687-6,6h-4c-1.104,0-2,0.896-2,2v8c0,1.104,0.896,2,2,2h20
				c1.104,0,2-0.896,2-2v-8C67,29.896,66.104,29,65,29z M55,25c1.104,0,2,0.896,2,2s-0.896,2-2,2s-2-0.896-2-2S53.896,25,55,25z"/>
		</g>
		<g>
			<g>
				<path style="fill:#009687;" d="M59.571,78.5c-3.309,0-6-2.691-6-6c0-3.308,2.691-6,6-6s6,2.692,6,6
					C65.571,75.809,62.88,78.5,59.571,78.5z M59.571,69.5c-1.654,0-3,1.346-3,3c0,1.654,1.346,3,3,3s3-1.346,3-3
					C62.571,70.846,61.226,69.5,59.571,69.5z"/>
			</g>
		</g>
		<g>
			<polygon style="fill:#00D6C1;" points="72.142,53.743 70.328,51.929 67.606,54.65 64.885,51.929 63.071,53.743 65.793,56.465 
				63.071,59.186 64.885,61 67.606,58.279 70.328,61 72.142,59.186 69.421,56.465 			"/>
		</g>
		<g>
			<polygon style="fill:#3BE0CF;" points="48.071,47.815 46.257,46 43.535,48.721 40.743,45.929 38.929,47.743 41.721,50.536 
				39,53.257 40.815,55.071 43.535,52.35 46.186,55 48,53.186 45.35,50.536 			"/>
		</g>
		<g>
			<path style="fill:#0A3631;" d="M59.167,52l-8.096,0.947l2.231,2.348C50.264,57.099,42.571,62.864,42.571,75
				c0,0.828,0.671,1.5,1.5,1.5c0.829,0,1.5-0.672,1.5-1.5c0-11.708,8.142-16.568,9.861-17.463l2.376,2.501L59.167,52z"/>
		</g>
		<g>
			<path style="fill:#D7FCF9;" d="M65,29h-4c0-3.313-2.687-6-6-6s-6,2.687-6,6h-4c-1.104,0-2,0.896-2,2v4h24v-4
				C67,29.896,66.104,29,65,29z M55,29c-1.104,0-2-0.896-2-2s0.896-2,2-2s2,0.896,2,2S56.104,29,55,29z"/>
		</g>
	</g>
</g>
<g id="Red" style="display:none;">
	<g style="display:inline;">
		<g>
			<path style="fill:#7D261E;" d="M81,34c0-1.104-0.896-2-2-2H31c-1.104,0-2,0.896-2,2v51c0,1.104,0.896,2,2,2h48
				c1.104,0,2-0.896,2-2V34z"/>
		</g>
		<g>
			<rect x="33" y="36" style="fill:#FFFFFF;" width="44" height="47"/>
		</g>
		<g>
			<path style="fill:#FFD7D4;" d="M65,29h-4c0-3.313-2.687-6-6-6s-6,2.687-6,6h-4c-1.104,0-2,0.896-2,2v8c0,1.104,0.896,2,2,2h20
				c1.104,0,2-0.896,2-2v-8C67,29.896,66.104,29,65,29z M55,25c1.104,0,2,0.896,2,2s-0.896,2-2,2s-2-0.896-2-2S53.896,25,55,25z"/>
		</g>
		<g>
			<g>
				<path style="fill:#C23023;" d="M59.571,78.5c-3.309,0-6-2.691-6-6c0-3.308,2.691-6,6-6s6,2.692,6,6
					C65.571,75.809,62.88,78.5,59.571,78.5z M59.571,69.5c-1.654,0-3,1.346-3,3c0,1.654,1.346,3,3,3s3-1.346,3-3
					C62.571,70.846,61.226,69.5,59.571,69.5z"/>
			</g>
		</g>
		<g>
			<polygon style="fill:#FF6C5E;" points="72.142,53.743 70.328,51.929 67.606,54.65 64.885,51.929 63.071,53.743 65.793,56.465 
				63.071,59.186 64.885,61 67.606,58.279 70.328,61 72.142,59.186 69.421,56.465 			"/>
		</g>
		<g>
			<polygon style="fill:#FF8E83;" points="48.071,47.815 46.257,46 43.535,48.721 40.743,45.929 38.929,47.743 41.721,50.536 
				39,53.257 40.815,55.071 43.535,52.35 46.186,55 48,53.186 45.35,50.536 			"/>
		</g>
		<g>
			<path style="fill:#4A1410;" d="M59.167,52l-8.096,0.947l2.231,2.348C50.264,57.099,42.571,62.864,42.571,75
				c0,0.828,0.671,1.5,1.5,1.5c0.829,0,1.5-0.672,1.5-1.5c0-11.708,8.142-16.568,9.861-17.463l2.376,2.501L59.167,52z"/>
		</g>
		<g>
			<path style="fill:#FFEFED;" d="M65,29h-4c0-3.313-2.687-6-6-6s-6,2.687-6,6h-4c-1.104,0-2,0.896-2,2v4h24v-4
				C67,29.896,66.104,29,65,29z M55,29c-1.104,0-2-0.896-2-2s0.896-2,2-2s2,0.896,2,2S56.104,29,55,29z"/>
		</g>
	</g>
</g>
<g id="R-Red" style="display:none;">
	<g style="display:inline;">
		<circle style="fill:#FABBAF;" cx="55" cy="55" r="55"/>
	</g>
	<g style="display:inline;">
		<g>
			<path style="fill:#7D261E;" d="M81,34c0-1.104-0.896-2-2-2H31c-1.104,0-2,0.896-2,2v51c0,1.104,0.896,2,2,2h48
				c1.104,0,2-0.896,2-2V34z"/>
		</g>
		<g>
			<rect x="33" y="36" style="fill:#FFFFFF;" width="44" height="47"/>
		</g>
		<g>
			<path style="fill:#FFD7D4;" d="M65,29h-4c0-3.313-2.687-6-6-6s-6,2.687-6,6h-4c-1.104,0-2,0.896-2,2v8c0,1.104,0.896,2,2,2h20
				c1.104,0,2-0.896,2-2v-8C67,29.896,66.104,29,65,29z M55,25c1.104,0,2,0.896,2,2s-0.896,2-2,2s-2-0.896-2-2S53.896,25,55,25z"/>
		</g>
		<g>
			<g>
				<path style="fill:#C23023;" d="M59.571,78.5c-3.309,0-6-2.691-6-6c0-3.308,2.691-6,6-6c3.309,0,6,2.692,6,6
					C65.571,75.809,62.88,78.5,59.571,78.5z M59.571,69.5c-1.654,0-3,1.346-3,3c0,1.654,1.346,3,3,3s3-1.346,3-3
					C62.571,70.846,61.226,69.5,59.571,69.5z"/>
			</g>
		</g>
		<g>
			<polygon style="fill:#FF6C5E;" points="72.142,53.743 70.328,51.929 67.606,54.65 64.885,51.929 63.071,53.743 65.793,56.465 
				63.071,59.186 64.885,61 67.606,58.279 70.328,61 72.142,59.186 69.421,56.465 			"/>
		</g>
		<g>
			<polygon style="fill:#FF8E83;" points="48.071,47.815 46.257,46 43.535,48.721 40.743,45.929 38.929,47.743 41.721,50.536 
				39,53.257 40.814,55.071 43.535,52.35 46.186,55 48,53.186 45.35,50.536 			"/>
		</g>
		<g>
			<path style="fill:#4A1410;" d="M59.167,52l-8.096,0.947l2.231,2.348C50.264,57.099,42.571,62.864,42.571,75
				c0,0.828,0.671,1.5,1.5,1.5c0.829,0,1.5-0.672,1.5-1.5c0-11.708,8.142-16.568,9.861-17.463l2.377,2.501L59.167,52z"/>
		</g>
		<g>
			<path style="fill:#FFEFED;" d="M65,29h-4c0-3.313-2.687-6-6-6s-6,2.687-6,6h-4c-1.104,0-2,0.896-2,2v4h24v-4
				C67,29.896,66.104,29,65,29z M55,29c-1.104,0-2-0.896-2-2s0.896-2,2-2s2,0.896,2,2S56.104,29,55,29z"/>
		</g>
	</g>
</g>
<g id="Yellow" style="display:none;">
	<g style="display:inline;">
		<g>
			<path style="fill:#66510D;" d="M81,34c0-1.104-0.896-2-2-2H31c-1.104,0-2,0.896-2,2v51c0,1.104,0.896,2,2,2h48
				c1.104,0,2-0.896,2-2V34z"/>
		</g>
		<g>
			<rect x="33" y="36" style="fill:#FFFFFF;" width="44" height="47"/>
		</g>
		<g>
			<path style="fill:#FFE9A1;" d="M65,29h-4c0-3.313-2.687-6-6-6s-6,2.687-6,6h-4c-1.104,0-2,0.896-2,2v8c0,1.104,0.896,2,2,2h20
				c1.104,0,2-0.896,2-2v-8C67,29.896,66.104,29,65,29z M55,25c1.104,0,2,0.896,2,2s-0.896,2-2,2s-2-0.896-2-2S53.896,25,55,25z"/>
		</g>
		<g>
			<g>
				<path style="fill:#E07000;" d="M59.571,78.5c-3.309,0-6-2.691-6-6c0-3.308,2.691-6,6-6s6,2.692,6,6
					C65.571,75.809,62.88,78.5,59.571,78.5z M59.571,69.5c-1.654,0-3,1.346-3,3c0,1.654,1.346,3,3,3s3-1.346,3-3
					C62.571,70.846,61.226,69.5,59.571,69.5z"/>
			</g>
		</g>
		<g>
			<polygon style="fill:#FFAA00;" points="72.142,53.743 70.328,51.929 67.606,54.65 64.885,51.929 63.071,53.743 65.793,56.465 
				63.071,59.186 64.885,61 67.606,58.279 70.328,61 72.142,59.186 69.421,56.465 			"/>
		</g>
		<g>
			<polygon style="fill:#FFBE3B;" points="48.071,47.815 46.257,46 43.535,48.721 40.743,45.929 38.929,47.743 41.721,50.536 
				39,53.257 40.814,55.071 43.535,52.35 46.186,55 48,53.186 45.35,50.536 			"/>
		</g>
		<g>
			<path style="fill:#3D320C;" d="M59.167,52l-8.096,0.947l2.231,2.348C50.264,57.099,42.571,62.864,42.571,75
				c0,0.828,0.671,1.5,1.5,1.5c0.829,0,1.5-0.672,1.5-1.5c0-11.708,8.142-16.568,9.861-17.463l2.376,2.501L59.167,52z"/>
		</g>
		<g>
			<path style="fill:#FFF5D9;" d="M65,29h-4c0-3.313-2.687-6-6-6s-6,2.687-6,6h-4c-1.104,0-2,0.896-2,2v4h24v-4
				C67,29.896,66.104,29,65,29z M55,29c-1.104,0-2-0.896-2-2s0.896-2,2-2s2,0.896,2,2S56.104,29,55,29z"/>
		</g>
	</g>
</g>
<g id="R-Yellow" style="display:none;">
	<g style="display:inline;">
		<circle style="fill:#FFD75E;" cx="55" cy="55" r="55"/>
	</g>
	<g style="display:inline;">
		<g>
			<path style="fill:#66510D;" d="M81,34c0-1.104-0.896-2-2-2H31c-1.104,0-2,0.896-2,2v51c0,1.104,0.896,2,2,2h48
				c1.104,0,2-0.896,2-2V34z"/>
		</g>
		<g>
			<rect x="33" y="36" style="fill:#FFFFFF;" width="44" height="47"/>
		</g>
		<g>
			<path style="fill:#FFE9A1;" d="M65,29h-4c0-3.313-2.687-6-6-6s-6,2.687-6,6h-4c-1.104,0-2,0.896-2,2v8c0,1.104,0.896,2,2,2h20
				c1.104,0,2-0.896,2-2v-8C67,29.896,66.104,29,65,29z M55,25c1.104,0,2,0.896,2,2s-0.896,2-2,2s-2-0.896-2-2S53.895,25,55,25z"/>
		</g>
		<g>
			<g>
				<path style="fill:#E07000;" d="M59.571,78.5c-3.309,0-6-2.691-6-6c0-3.308,2.691-6,6-6s6,2.692,6,6
					C65.571,75.809,62.88,78.5,59.571,78.5z M59.571,69.5c-1.654,0-3,1.346-3,3c0,1.654,1.346,3,3,3s3-1.346,3-3
					C62.571,70.846,61.226,69.5,59.571,69.5z"/>
			</g>
		</g>
		<g>
			<polygon style="fill:#FFAA00;" points="72.142,53.743 70.328,51.929 67.606,54.65 64.885,51.929 63.071,53.743 65.792,56.465 
				63.071,59.186 64.885,61 67.606,58.279 70.328,61 72.142,59.186 69.421,56.465 			"/>
		</g>
		<g>
			<polygon style="fill:#FFBE3B;" points="48.071,47.815 46.257,46 43.535,48.721 40.743,45.929 38.929,47.743 41.721,50.536 
				39,53.257 40.814,55.071 43.535,52.35 46.185,55 48,53.186 45.35,50.536 			"/>
		</g>
		<g>
			<path style="fill:#3D320C;" d="M59.167,52l-8.096,0.947l2.231,2.348C50.264,57.099,42.571,62.864,42.571,75
				c0,0.828,0.671,1.5,1.5,1.5c0.829,0,1.5-0.672,1.5-1.5c0-11.708,8.142-16.568,9.861-17.463l2.376,2.501L59.167,52z"/>
		</g>
		<g>
			<path style="fill:#FFF5D9;" d="M65,29h-4c0-3.313-2.687-6-6-6s-6,2.687-6,6h-4c-1.104,0-2,0.896-2,2v4h24v-4
				C67,29.896,66.104,29,65,29z M55,29c-1.104,0-2-0.896-2-2s0.896-2,2-2s2,0.896,2,2S56.104,29,55,29z"/>
		</g>
	</g>
</g>
</svg>
