<?xml version="1.0" encoding="iso-8859-1"?>
<!-- Generator: Adobe Illustrator 17.1.0, SVG Export Plug-In . SVG Version: 6.00 Build 0)  -->
<!DOCTYPE svg PUBLIC "-//W3C//DTD SVG 1.0//EN" "http://www.w3.org/TR/2001/REC-SVG-20010904/DTD/svg10.dtd">
<svg version="1.0" xmlns="http://www.w3.org/2000/svg" xmlns:xlink="http://www.w3.org/1999/xlink" x="0px" y="0px" width="110px"
	 height="110px" viewBox="0 0 110 110" style="enable-background:new 0 0 110 110;" xml:space="preserve">
<g id="Artboard" style="display:none;">
	
		<rect x="-963.5" y="-188.5" style="display:inline;fill:#808080;stroke:#000000;stroke-miterlimit:10;" width="1359" height="500"/>
</g>
<g id="R-Multicolor" style="display:none;">
	<circle style="display:inline;fill:#E04F5F;" cx="55" cy="55" r="55"/>
	<g style="display:inline;">
		<g>
			<path style="fill:#FACB1B;" d="M34.08,74.21l-1.46,1.37l6.494,6.495c0.396-0.564,0.744-1.166,1.037-1.793"/>
		</g>
		<g>
			<g>
				<path style="fill:#FACB1B;" d="M40.832,73.892L37.74,70.8l-1.47,1.36l4.735,4.734c0.005-0.112,0.025-0.221,0.025-0.334
					C41.03,75.73,40.946,74.828,40.832,73.892z"/>
			</g>
		</g>
		<g>
			<g>
				<path style="fill:#FACB1B;" d="M50.745,67.056L46.39,62.7l-1.46,1.37l2.979,2.979C48.851,67.1,49.798,67.104,50.745,67.056z"/>
			</g>
		</g>
		<g>
			<path style="fill:#FACB1B;" d="M50.04,59.28l-1.46,1.37l5.872,5.872c0.722-0.178,1.442-0.393,2.156-0.674"/>
		</g>
		<g>
			<path style="fill:#FACB1B;" d="M53.69,55.86l-1.46,1.37l7.185,7.185c0.555-0.349,1.104-0.745,1.649-1.181"/>
		</g>
		<g>
			<g>
				<line style="fill:#FACB1B;" x1="57.34" y1="52.44" x2="55.89" y2="53.81"/>
			</g>
			<g>
				<path style="fill:#FACB1B;" d="M64.562,59.662L57.34,52.44l-1.45,1.37l7.375,7.375C63.737,60.679,64.173,60.172,64.562,59.662z"
					/>
			</g>
		</g>
		<g>
			<path style="fill:#FACB1B;" d="M61,49.02l-1.47,1.37l6.684,6.684c0.34-0.66,0.617-1.323,0.853-1.987L61,49.02z"/>
		</g>
		<g>
			<path style="fill:#FACB1B;" d="M63.19,46.97l4.699,4.699c0.119-0.876,0.18-1.753,0.189-2.631L64.65,45.61"/>
		</g>
		<g>
			<line style="fill:#FACB1B;" x1="64.65" y1="45.61" x2="63.19" y2="46.97"/>
		</g>
		<g>
			<path style="fill:#FACB1B;" d="M73.86,36.99l-1.46,1.37l2.632,2.632c0.517,0.042,1.018,0.068,1.498,0.068
				c0.434,0,0.861-0.045,1.283-0.117"/>
		</g>
		<g>
			<path style="fill:#FACB1B;" d="M76.05,34.94l4.859,4.859c0.59-0.331,1.155-0.715,1.699-1.131L77.51,33.57L76.05,34.94"/>
		</g>
		<g>
			<path style="fill:#FBEC9A;" d="M84.86,36.66c-2.22,2.29-5.12,4.4-8.33,4.4c-1.841,0-3.968-0.351-6.281-0.742
				c-0.226-1.586-0.429-3.133-0.522-4.632L72.4,38.36l1.46-1.37l-4.145-4.145c0.081-1.228,0.288-2.414,0.689-3.551l5.646,5.646
				l1.46-1.37l-6.198-6.199c0.466-0.782,1.042-1.538,1.769-2.261L70.93,23c-5.128,5.127-4.674,10.867-3.809,16.81
				C60.34,38.8,52.449,38.521,45.47,45.5c-6.563,6.563-6.703,13.93-5.857,20.428c-2.05-0.338-4.005-0.618-5.813-0.618
				c-4.37,0-8.12,2.79-10.82,5.66l2.13,2.11c0.785-0.841,1.668-1.664,2.62-2.39l4.89,4.89l1.46-1.37l-4.641-4.641
				c0.979-0.547,2.011-0.965,3.091-1.149l3.74,3.74l1.47-1.36l-2.42-2.419c1.462,0.121,3.062,0.385,4.764,0.673
				c0.463,2.788,0.945,5.342,0.945,7.507c0,3.32-2.06,6.12-4.23,8.13l2.14,2.12c2.59-2.45,5.09-5.92,5.09-10.25
				c0-2.158-0.394-4.52-0.81-6.997c6.778,1.011,14.659,1.289,21.641-5.693c6.81-6.81,6.666-13.87,5.821-20.435
				c2.064,0.341,4.031,0.625,5.849,0.625c4.2,0,7.81-2.56,10.47-5.31L84.86,36.66z M62.74,61.75
				c-6.31,6.31-13.487,5.744-20.021,4.695c-0.241-1.654-0.423-3.343-0.456-5.042l2.666,2.667l1.46-1.37l-4.027-4.027
				c0.113-1.191,0.33-2.38,0.68-3.561l5.538,5.538l1.46-1.37l-6.235-6.236c0.407-0.913,0.915-1.817,1.53-2.71l6.896,6.896l1.46-1.37
				l-7.13-7.13c0.321-0.373,0.664-0.743,1.03-1.11c0.363-0.362,0.729-0.695,1.096-1.014l7.204,7.204l1.45-1.37l-7.061-7.061
				c0.892-0.617,1.797-1.12,2.71-1.53l6.542,6.542L61,49.02l-5.95-5.95c1.179-0.353,2.367-0.568,3.556-0.684l4.583,4.583l1.46-1.359
				l-3.329-3.33c2.119,0.036,4.221,0.313,6.26,0.639C68.475,49.207,68.841,55.639,62.74,61.75z"/>
		</g>
	</g>
</g>
<g id="Multicolor">
	<g>
		<g>
			<path style="fill:#FACB1B;" d="M34.08,74.21l-1.46,1.37l6.494,6.495c0.396-0.564,0.744-1.166,1.037-1.793"/>
		</g>
		<g>
			<g>
				<path style="fill:#FACB1B;" d="M40.832,73.892L37.74,70.8l-1.47,1.36l4.735,4.734c0.005-0.112,0.025-0.221,0.025-0.334
					C41.03,75.73,40.946,74.828,40.832,73.892z"/>
			</g>
		</g>
		<g>
			<g>
				<path style="fill:#FACB1B;" d="M50.745,67.056L46.39,62.7l-1.46,1.37l2.979,2.979C48.851,67.1,49.798,67.104,50.745,67.056z"/>
			</g>
		</g>
		<g>
			<path style="fill:#FACB1B;" d="M50.04,59.28l-1.46,1.37l5.872,5.872c0.722-0.178,1.442-0.393,2.156-0.674"/>
		</g>
		<g>
			<path style="fill:#FACB1B;" d="M53.69,55.86l-1.46,1.37l7.185,7.185c0.555-0.349,1.104-0.745,1.649-1.181"/>
		</g>
		<g>
			<g>
				<line style="fill:#FACB1B;" x1="57.34" y1="52.44" x2="55.89" y2="53.81"/>
			</g>
			<g>
				<path style="fill:#FACB1B;" d="M64.562,59.662L57.34,52.44l-1.45,1.37l7.375,7.375C63.737,60.679,64.173,60.172,64.562,59.662z"
					/>
			</g>
		</g>
		<g>
			<path style="fill:#FACB1B;" d="M61,49.02l-1.47,1.37l6.684,6.684c0.34-0.66,0.617-1.323,0.853-1.987L61,49.02z"/>
		</g>
		<g>
			<path style="fill:#FACB1B;" d="M63.19,46.97l4.699,4.699c0.119-0.876,0.18-1.753,0.189-2.631L64.65,45.61"/>
		</g>
		<g>
			<line style="fill:#FACB1B;" x1="64.65" y1="45.61" x2="63.19" y2="46.97"/>
		</g>
		<g>
			<path style="fill:#FACB1B;" d="M73.86,36.99l-1.46,1.37l2.632,2.632c0.517,0.042,1.018,0.068,1.498,0.068
				c0.434,0,0.861-0.045,1.283-0.117"/>
		</g>
		<g>
			<path style="fill:#FACB1B;" d="M76.05,34.94l4.859,4.859c0.59-0.331,1.155-0.715,1.699-1.131L77.51,33.57L76.05,34.94"/>
		</g>
		<g>
			<path style="fill:#FBEC9A;" d="M84.86,36.66c-2.22,2.29-5.12,4.4-8.33,4.4c-1.841,0-3.968-0.351-6.281-0.742
				c-0.226-1.586-0.429-3.133-0.522-4.632L72.4,38.36l1.46-1.37l-4.145-4.145c0.081-1.228,0.288-2.414,0.689-3.551l5.646,5.646
				l1.46-1.37l-6.198-6.199c0.466-0.782,1.042-1.538,1.769-2.261L70.93,23c-5.128,5.127-4.674,10.867-3.809,16.81
				C60.34,38.8,52.449,38.521,45.47,45.5c-6.563,6.563-6.703,13.93-5.857,20.428c-2.05-0.338-4.005-0.618-5.813-0.618
				c-4.37,0-8.12,2.79-10.82,5.66l2.13,2.11c0.785-0.841,1.668-1.664,2.62-2.39l4.89,4.89l1.46-1.37l-4.641-4.641
				c0.979-0.547,2.011-0.965,3.091-1.149l3.74,3.74l1.47-1.36l-2.42-2.419c1.462,0.121,3.062,0.385,4.764,0.673
				c0.463,2.788,0.945,5.342,0.945,7.507c0,3.32-2.06,6.12-4.23,8.13l2.14,2.12c2.59-2.45,5.09-5.92,5.09-10.25
				c0-2.158-0.394-4.52-0.81-6.997c6.778,1.011,14.659,1.289,21.641-5.693c6.81-6.81,6.666-13.87,5.821-20.435
				c2.064,0.341,4.031,0.625,5.849,0.625c4.2,0,7.81-2.56,10.47-5.31L84.86,36.66z M62.74,61.75
				c-6.31,6.31-13.487,5.744-20.021,4.695c-0.241-1.654-0.423-3.343-0.456-5.042l2.666,2.667l1.46-1.37l-4.027-4.027
				c0.113-1.191,0.33-2.38,0.68-3.561l5.538,5.538l1.46-1.37l-6.235-6.236c0.407-0.913,0.915-1.817,1.53-2.71l6.896,6.896l1.46-1.37
				l-7.13-7.13c0.321-0.373,0.664-0.743,1.03-1.11c0.363-0.362,0.729-0.695,1.096-1.014l7.204,7.204l1.45-1.37l-7.061-7.061
				c0.892-0.617,1.797-1.12,2.71-1.53l6.542,6.542L61,49.02l-5.95-5.95c1.179-0.353,2.367-0.568,3.556-0.684l4.583,4.583l1.46-1.359
				l-3.329-3.33c2.119,0.036,4.221,0.313,6.26,0.639C68.475,49.207,68.841,55.639,62.74,61.75z"/>
		</g>
	</g>
</g>
<g id="Blue" style="display:none;">
	<g style="display:inline;">
		<g>
			<g>
				<path style="fill:#BBE7F2;" d="M34.08,74.21l-1.46,1.37l6.494,6.495c0.396-0.564,0.744-1.165,1.038-1.793"/>
			</g>
			<g>
				<g>
					<path style="fill:#BBE7F2;" d="M40.832,73.892L37.74,70.8l-1.471,1.36l4.734,4.734c0.006-0.112,0.026-0.221,0.026-0.334
						C41.03,75.73,40.945,74.828,40.832,73.892z"/>
				</g>
			</g>
			<g>
				<g>
					<path style="fill:#BBE7F2;" d="M50.746,67.056L46.391,62.7l-1.461,1.37l2.979,2.979C48.852,67.1,49.798,67.104,50.746,67.056z"
						/>
				</g>
			</g>
			<g>
				<path style="fill:#BBE7F2;" d="M50.04,59.28l-1.46,1.37l5.873,5.872c0.721-0.178,1.44-0.393,2.156-0.674"/>
			</g>
			<g>
				<path style="fill:#BBE7F2;" d="M53.689,55.86l-1.459,1.37l7.184,7.185c0.555-0.349,1.105-0.745,1.65-1.181"/>
			</g>
			<g>
				<g>
					<line style="fill:#BBE7F2;" x1="57.34" y1="52.44" x2="55.891" y2="53.81"/>
				</g>
				<g>
					<path style="fill:#BBE7F2;" d="M64.562,59.662L57.34,52.44l-1.449,1.37l7.375,7.375C63.736,60.679,64.173,60.172,64.562,59.662
						z"/>
				</g>
			</g>
			<g>
				<path style="fill:#BBE7F2;" d="M61,49.02l-1.47,1.37l6.685,6.684c0.34-0.66,0.616-1.323,0.852-1.987L61,49.02z"/>
			</g>
			<g>
				<path style="fill:#BBE7F2;" d="M63.189,46.97l4.699,4.699c0.119-0.876,0.18-1.753,0.189-2.631L64.65,45.61"/>
			</g>
			<g>
				<line style="fill:#BBE7F2;" x1="64.65" y1="45.61" x2="63.189" y2="46.97"/>
			</g>
			<g>
				<path style="fill:#BBE7F2;" d="M73.859,36.99L72.4,38.36l2.632,2.632c0.517,0.042,1.019,0.068,1.498,0.068
					c0.434,0,0.86-0.045,1.282-0.117"/>
			</g>
			<g>
				<path style="fill:#BBE7F2;" d="M76.051,34.94l4.858,4.859c0.591-0.331,1.155-0.715,1.699-1.131L77.51,33.57L76.051,34.94"/>
			</g>
		</g>
		<g>
			<path style="fill:#FFFFFF;" d="M84.859,36.66c-2.219,2.29-5.119,4.4-8.329,4.4c-1.841,0-3.968-0.352-6.281-0.742
				c-0.226-1.587-0.429-3.133-0.522-4.632L72.4,38.36l1.459-1.37l-4.144-4.145c0.081-1.228,0.288-2.414,0.688-3.551l5.646,5.646
				l1.459-1.37l-6.198-6.199c0.466-0.782,1.042-1.538,1.769-2.261L70.93,23c-5.127,5.127-4.674,10.867-3.809,16.81
				c-6.781-1.01-14.672-1.29-21.65,5.69c-6.563,6.562-6.704,13.93-5.857,20.428c-2.05-0.338-4.005-0.618-5.813-0.618
				c-4.37,0-8.12,2.79-10.819,5.66l2.129,2.11c0.786-0.841,1.669-1.665,2.621-2.39l4.89,4.89l1.46-1.37l-4.641-4.641
				c0.979-0.547,2.011-0.965,3.091-1.149l3.739,3.74l1.471-1.36l-2.42-2.419c1.463,0.12,3.062,0.385,4.764,0.673
				c0.463,2.788,0.946,5.341,0.946,7.507c0,3.32-2.06,6.12-4.23,8.13l2.14,2.12c2.591-2.45,5.091-5.92,5.091-10.25
				c0-2.158-0.394-4.52-0.811-6.998c6.778,1.011,14.659,1.289,21.64-5.692c6.811-6.81,6.666-13.87,5.822-20.435
				c2.062,0.341,4.031,0.625,5.849,0.625c4.2,0,7.81-2.56,10.47-5.31L84.859,36.66z M62.74,61.75
				c-6.311,6.31-13.487,5.744-20.021,4.695c-0.241-1.655-0.423-3.343-0.456-5.041l2.666,2.666l1.461-1.37l-4.027-4.027
				c0.111-1.191,0.329-2.38,0.679-3.561l5.538,5.538l1.46-1.37l-6.235-6.236c0.408-0.913,0.915-1.817,1.529-2.71l6.896,6.896
				l1.459-1.37l-7.13-7.13c0.321-0.373,0.664-0.743,1.03-1.11c0.363-0.362,0.729-0.695,1.097-1.014l7.204,7.204l1.449-1.37
				l-7.061-7.061c0.892-0.617,1.797-1.12,2.709-1.53l6.542,6.542L61,49.02l-5.949-5.95c1.179-0.353,2.367-0.568,3.557-0.684
				l4.582,4.583l1.461-1.359l-3.33-3.33c2.119,0.036,4.221,0.313,6.26,0.639C68.475,49.207,68.841,55.639,62.74,61.75z"/>
		</g>
	</g>
</g>
<g id="R-Blue" style="display:none;">
	<circle style="display:inline;fill:#81D2EB;" cx="55" cy="55" r="55"/>
	<g style="display:inline;">
		<g>
			<g>
				<path style="fill:#BBE7F2;" d="M34.08,74.21l-1.46,1.37l6.494,6.495c0.396-0.564,0.744-1.165,1.038-1.793"/>
			</g>
			<g>
				<g>
					<path style="fill:#BBE7F2;" d="M40.832,73.892L37.74,70.8l-1.471,1.36l4.734,4.734c0.006-0.112,0.026-0.221,0.026-0.334
						C41.03,75.73,40.945,74.828,40.832,73.892z"/>
				</g>
			</g>
			<g>
				<g>
					<path style="fill:#BBE7F2;" d="M50.746,67.056L46.391,62.7l-1.461,1.37l2.979,2.979C48.852,67.1,49.798,67.104,50.746,67.056z"
						/>
				</g>
			</g>
			<g>
				<path style="fill:#BBE7F2;" d="M50.04,59.28l-1.46,1.37l5.873,5.872c0.721-0.178,1.44-0.393,2.156-0.674"/>
			</g>
			<g>
				<path style="fill:#BBE7F2;" d="M53.689,55.86l-1.459,1.37l7.184,7.185c0.555-0.349,1.105-0.745,1.65-1.181"/>
			</g>
			<g>
				<g>
					<line style="fill:#BBE7F2;" x1="57.34" y1="52.44" x2="55.891" y2="53.81"/>
				</g>
				<g>
					<path style="fill:#BBE7F2;" d="M64.562,59.662L57.34,52.44l-1.449,1.37l7.375,7.375C63.736,60.679,64.173,60.172,64.562,59.662
						z"/>
				</g>
			</g>
			<g>
				<path style="fill:#BBE7F2;" d="M61,49.02l-1.47,1.37l6.684,6.684c0.34-0.66,0.616-1.323,0.852-1.987L61,49.02z"/>
			</g>
			<g>
				<path style="fill:#BBE7F2;" d="M63.189,46.97l4.699,4.699c0.119-0.876,0.18-1.753,0.189-2.631L64.65,45.61"/>
			</g>
			<g>
				<line style="fill:#BBE7F2;" x1="64.65" y1="45.61" x2="63.189" y2="46.97"/>
			</g>
			<g>
				<path style="fill:#BBE7F2;" d="M73.859,36.99L72.4,38.36l2.632,2.632c0.517,0.042,1.019,0.068,1.498,0.068
					c0.434,0,0.86-0.045,1.282-0.117"/>
			</g>
			<g>
				<path style="fill:#BBE7F2;" d="M76.051,34.94l4.858,4.859c0.591-0.331,1.155-0.715,1.699-1.131L77.51,33.57L76.051,34.94"/>
			</g>
		</g>
		<g>
			<path style="fill:#FFFFFF;" d="M84.859,36.66c-2.219,2.29-5.119,4.4-8.329,4.4c-1.841,0-3.968-0.352-6.281-0.742
				c-0.226-1.587-0.429-3.133-0.522-4.632L72.4,38.36l1.459-1.37l-4.144-4.145c0.081-1.227,0.288-2.414,0.688-3.551l5.647,5.646
				l1.459-1.37l-6.198-6.199c0.466-0.782,1.042-1.538,1.769-2.261L70.93,23c-5.127,5.127-4.674,10.867-3.809,16.81
				c-6.781-1.01-14.672-1.29-21.65,5.69c-6.563,6.562-6.704,13.93-5.857,20.428c-2.05-0.338-4.005-0.618-5.813-0.618
				c-4.37,0-8.12,2.79-10.819,5.66l2.129,2.11c0.786-0.841,1.669-1.665,2.621-2.39l4.89,4.89l1.46-1.37l-4.641-4.641
				c0.979-0.547,2.011-0.965,3.091-1.149l3.739,3.74l1.471-1.36l-2.42-2.419c1.463,0.12,3.062,0.385,4.764,0.673
				c0.463,2.788,0.946,5.341,0.946,7.507c0,3.32-2.06,6.12-4.23,8.13l2.14,2.12c2.591-2.45,5.091-5.92,5.091-10.25
				c0-2.158-0.394-4.52-0.811-6.998c6.778,1.011,14.659,1.289,21.64-5.692c6.811-6.81,6.666-13.87,5.822-20.435
				c2.062,0.341,4.031,0.625,5.849,0.625c4.2,0,7.809-2.56,10.47-5.31L84.859,36.66z M62.74,61.75
				c-6.311,6.31-13.487,5.744-20.021,4.695c-0.241-1.655-0.423-3.343-0.456-5.041l2.666,2.666l1.461-1.37l-4.027-4.027
				c0.111-1.191,0.329-2.38,0.679-3.561l5.538,5.538l1.46-1.37l-6.235-6.236c0.408-0.913,0.915-1.817,1.529-2.71l6.896,6.896
				l1.459-1.37l-7.13-7.13c0.321-0.373,0.664-0.743,1.03-1.11c0.363-0.362,0.729-0.695,1.097-1.014l7.204,7.204l1.449-1.37
				l-7.061-7.061c0.892-0.617,1.797-1.12,2.709-1.53l6.542,6.542L61,49.02l-5.949-5.95c1.179-0.353,2.367-0.568,3.557-0.684
				l4.582,4.583l1.461-1.359l-3.33-3.33c2.119,0.036,4.221,0.313,6.26,0.639C68.475,49.207,68.841,55.639,62.74,61.75z"/>
		</g>
	</g>
</g>
<g id="Green" style="display:none;">
	<g style="display:inline;">
		<g>
			<g>
				<path style="fill:#AAF0E9;" d="M34.08,74.21l-1.46,1.37l6.494,6.495c0.396-0.564,0.744-1.165,1.038-1.793"/>
			</g>
			<g>
				<g>
					<path style="fill:#AAF0E9;" d="M40.832,73.892L37.74,70.8l-1.471,1.36l4.734,4.734c0.006-0.112,0.026-0.221,0.026-0.334
						C41.03,75.73,40.945,74.828,40.832,73.892z"/>
				</g>
			</g>
			<g>
				<g>
					<path style="fill:#AAF0E9;" d="M50.746,67.056L46.391,62.7l-1.461,1.37l2.978,2.979C48.852,67.1,49.798,67.104,50.746,67.056z"
						/>
				</g>
			</g>
			<g>
				<path style="fill:#AAF0E9;" d="M50.04,59.28l-1.46,1.37l5.873,5.872c0.721-0.178,1.441-0.393,2.156-0.674"/>
			</g>
			<g>
				<path style="fill:#AAF0E9;" d="M53.689,55.86l-1.459,1.37l7.184,7.185c0.555-0.349,1.105-0.745,1.65-1.181"/>
			</g>
			<g>
				<g>
					<line style="fill:#AAF0E9;" x1="57.34" y1="52.44" x2="55.891" y2="53.81"/>
				</g>
				<g>
					<path style="fill:#AAF0E9;" d="M64.561,59.662L57.34,52.44l-1.449,1.37l7.375,7.375C63.736,60.679,64.173,60.172,64.561,59.662
						z"/>
				</g>
			</g>
			<g>
				<path style="fill:#AAF0E9;" d="M61,49.02l-1.47,1.37l6.685,6.684c0.34-0.66,0.616-1.323,0.852-1.987L61,49.02z"/>
			</g>
			<g>
				<path style="fill:#AAF0E9;" d="M63.189,46.97l4.699,4.699c0.119-0.876,0.18-1.753,0.189-2.631L64.65,45.61"/>
			</g>
			<g>
				<line style="fill:#AAF0E9;" x1="64.65" y1="45.61" x2="63.189" y2="46.97"/>
			</g>
			<g>
				<path style="fill:#AAF0E9;" d="M73.859,36.99L72.4,38.36l2.632,2.632c0.517,0.042,1.019,0.068,1.498,0.068
					c0.434,0,0.86-0.045,1.282-0.117"/>
			</g>
			<g>
				<path style="fill:#AAF0E9;" d="M76.051,34.94l4.858,4.859c0.591-0.331,1.155-0.715,1.699-1.131L77.51,33.57L76.051,34.94"/>
			</g>
		</g>
		<g>
			<path style="fill:#FFFFFF;" d="M84.859,36.66c-2.219,2.29-5.119,4.4-8.329,4.4c-1.841,0-3.968-0.352-6.281-0.742
				c-0.226-1.587-0.429-3.133-0.522-4.632L72.4,38.36l1.459-1.37l-4.144-4.145c0.081-1.227,0.288-2.414,0.688-3.551l5.647,5.646
				l1.459-1.37l-6.198-6.199c0.466-0.782,1.042-1.538,1.769-2.261L70.93,23c-5.127,5.127-4.674,10.867-3.809,16.81
				c-6.781-1.01-14.672-1.29-21.65,5.69c-6.563,6.562-6.704,13.93-5.857,20.428c-2.05-0.338-4.005-0.618-5.813-0.618
				c-4.37,0-8.12,2.79-10.819,5.66l2.129,2.11c0.786-0.841,1.669-1.665,2.621-2.39l4.89,4.89l1.46-1.37l-4.641-4.641
				c0.979-0.547,2.011-0.965,3.091-1.149l3.739,3.74l1.471-1.36l-2.42-2.419c1.463,0.12,3.062,0.385,4.764,0.673
				c0.463,2.788,0.946,5.341,0.946,7.507c0,3.32-2.06,6.12-4.23,8.13l2.14,2.12c2.591-2.45,5.091-5.92,5.091-10.25
				c0-2.158-0.394-4.52-0.811-6.998c6.778,1.011,14.659,1.289,21.64-5.692c6.811-6.81,6.666-13.87,5.822-20.435
				c2.062,0.341,4.031,0.625,5.849,0.625c4.2,0,7.81-2.56,10.47-5.31L84.859,36.66z M62.74,61.75
				c-6.31,6.31-13.487,5.744-20.021,4.695c-0.241-1.655-0.423-3.343-0.456-5.041l2.666,2.666l1.461-1.37l-4.027-4.027
				c0.111-1.191,0.329-2.38,0.679-3.561l5.538,5.538l1.46-1.37l-6.235-6.236c0.408-0.913,0.915-1.817,1.529-2.71l6.896,6.896
				l1.459-1.37l-7.13-7.13c0.321-0.373,0.664-0.743,1.03-1.11c0.363-0.362,0.729-0.695,1.097-1.014l7.204,7.204l1.449-1.37
				l-7.06-7.061c0.892-0.617,1.797-1.12,2.709-1.53l6.542,6.542L61,49.02l-5.949-5.95c1.179-0.353,2.367-0.568,3.557-0.684
				l4.582,4.583l1.461-1.359l-3.33-3.33c2.119,0.036,4.221,0.313,6.26,0.639C68.475,49.207,68.841,55.639,62.74,61.75z"/>
		</g>
	</g>
</g>
<g id="R-Green" style="display:none;">
	<circle style="display:inline;fill:#77E0C4;" cx="55" cy="55" r="55"/>
	<g style="display:inline;">
		<g>
			<g>
				<path style="fill:#AAF0E9;" d="M34.08,74.21l-1.46,1.37l6.494,6.495c0.396-0.564,0.744-1.165,1.038-1.793"/>
			</g>
			<g>
				<g>
					<path style="fill:#AAF0E9;" d="M40.832,73.892L37.74,70.8l-1.471,1.36l4.734,4.734c0.006-0.112,0.026-0.221,0.026-0.334
						C41.03,75.73,40.945,74.828,40.832,73.892z"/>
				</g>
			</g>
			<g>
				<g>
					<path style="fill:#AAF0E9;" d="M50.746,67.056L46.391,62.7l-1.461,1.37l2.979,2.979C48.852,67.1,49.798,67.104,50.746,67.056z"
						/>
				</g>
			</g>
			<g>
				<path style="fill:#AAF0E9;" d="M50.04,59.28l-1.46,1.37l5.873,5.872c0.721-0.178,1.44-0.393,2.156-0.674"/>
			</g>
			<g>
				<path style="fill:#AAF0E9;" d="M53.689,55.86l-1.459,1.37l7.184,7.185c0.555-0.349,1.105-0.745,1.65-1.181"/>
			</g>
			<g>
				<g>
					<line style="fill:#AAF0E9;" x1="57.34" y1="52.44" x2="55.891" y2="53.81"/>
				</g>
				<g>
					<path style="fill:#AAF0E9;" d="M64.562,59.662L57.34,52.44l-1.449,1.37l7.375,7.375C63.736,60.679,64.173,60.172,64.562,59.662
						z"/>
				</g>
			</g>
			<g>
				<path style="fill:#AAF0E9;" d="M61,49.02l-1.47,1.37l6.685,6.684c0.34-0.66,0.616-1.323,0.852-1.987L61,49.02z"/>
			</g>
			<g>
				<path style="fill:#AAF0E9;" d="M63.189,46.97l4.699,4.699c0.119-0.876,0.18-1.753,0.189-2.631L64.65,45.61"/>
			</g>
			<g>
				<line style="fill:#AAF0E9;" x1="64.65" y1="45.61" x2="63.189" y2="46.97"/>
			</g>
			<g>
				<path style="fill:#AAF0E9;" d="M73.859,36.99L72.4,38.36l2.632,2.632c0.517,0.042,1.019,0.068,1.498,0.068
					c0.434,0,0.86-0.045,1.282-0.117"/>
			</g>
			<g>
				<path style="fill:#AAF0E9;" d="M76.051,34.94l4.858,4.859c0.591-0.331,1.155-0.715,1.699-1.131L77.51,33.57L76.051,34.94"/>
			</g>
		</g>
		<g>
			<path style="fill:#FFFFFF;" d="M84.859,36.66c-2.219,2.29-5.119,4.4-8.329,4.4c-1.841,0-3.968-0.352-6.281-0.742
				c-0.226-1.587-0.429-3.133-0.522-4.632L72.4,38.36l1.459-1.37l-4.144-4.145c0.081-1.228,0.288-2.414,0.688-3.551l5.646,5.646
				l1.459-1.37l-6.198-6.199c0.466-0.782,1.042-1.538,1.769-2.261L70.93,23c-5.127,5.127-4.674,10.867-3.809,16.81
				c-6.781-1.01-14.672-1.29-21.65,5.69c-6.563,6.562-6.704,13.93-5.857,20.428c-2.05-0.338-4.005-0.618-5.813-0.618
				c-4.37,0-8.12,2.79-10.819,5.66l2.129,2.11c0.786-0.841,1.669-1.665,2.621-2.39l4.89,4.89l1.46-1.37l-4.641-4.641
				c0.979-0.547,2.011-0.965,3.091-1.149l3.739,3.74l1.471-1.36l-2.42-2.419c1.463,0.12,3.062,0.385,4.764,0.673
				c0.463,2.788,0.946,5.341,0.946,7.507c0,3.32-2.06,6.12-4.23,8.13l2.14,2.12c2.591-2.45,5.091-5.92,5.091-10.25
				c0-2.158-0.394-4.52-0.811-6.998c6.778,1.011,14.659,1.289,21.64-5.692c6.811-6.81,6.666-13.87,5.822-20.435
				c2.062,0.341,4.031,0.625,5.849,0.625c4.2,0,7.81-2.56,10.47-5.31L84.859,36.66z M62.74,61.75
				c-6.311,6.31-13.487,5.744-20.021,4.695c-0.241-1.655-0.423-3.343-0.456-5.041l2.666,2.666l1.461-1.37l-4.027-4.027
				c0.111-1.191,0.329-2.38,0.679-3.561l5.538,5.538l1.46-1.37l-6.235-6.236c0.408-0.913,0.915-1.817,1.529-2.71l6.896,6.896
				l1.459-1.37l-7.13-7.13c0.321-0.373,0.664-0.743,1.03-1.11c0.363-0.362,0.729-0.695,1.097-1.014l7.204,7.204l1.449-1.37
				l-7.061-7.061c0.892-0.617,1.797-1.12,2.709-1.53l6.542,6.542L61,49.02l-5.949-5.95c1.179-0.353,2.367-0.568,3.557-0.684
				l4.582,4.583l1.461-1.359l-3.33-3.33c2.119,0.036,4.221,0.313,6.26,0.639C68.475,49.207,68.841,55.639,62.74,61.75z"/>
		</g>
	</g>
</g>
<g id="Red" style="display:none;">
	<g style="display:inline;">
		<g>
			<g>
				<path style="fill:#FFD7D4;" d="M34.08,74.21l-1.46,1.37l6.494,6.495c0.396-0.564,0.744-1.166,1.038-1.793"/>
			</g>
			<g>
				<g>
					<path style="fill:#FFD7D4;" d="M40.832,73.892L37.74,70.8l-1.471,1.36l4.734,4.734c0.006-0.112,0.026-0.221,0.026-0.334
						C41.03,75.73,40.945,74.828,40.832,73.892z"/>
				</g>
			</g>
			<g>
				<g>
					<path style="fill:#FFD7D4;" d="M50.746,67.056L46.391,62.7l-1.461,1.37l2.978,2.979C48.852,67.1,49.798,67.104,50.746,67.056z"
						/>
				</g>
			</g>
			<g>
				<path style="fill:#FFD7D4;" d="M50.04,59.28l-1.46,1.37l5.873,5.872c0.721-0.178,1.441-0.393,2.156-0.674"/>
			</g>
			<g>
				<path style="fill:#FFD7D4;" d="M53.689,55.86l-1.459,1.37l7.184,7.185c0.555-0.349,1.105-0.745,1.65-1.181"/>
			</g>
			<g>
				<g>
					<line style="fill:#FFD7D4;" x1="57.34" y1="52.44" x2="55.891" y2="53.81"/>
				</g>
				<g>
					<path style="fill:#FFD7D4;" d="M64.561,59.662L57.34,52.44l-1.449,1.37l7.375,7.375C63.736,60.679,64.173,60.172,64.561,59.662
						z"/>
				</g>
			</g>
			<g>
				<path style="fill:#FFD7D4;" d="M61,49.02l-1.47,1.37l6.685,6.684c0.34-0.66,0.616-1.323,0.852-1.987L61,49.02z"/>
			</g>
			<g>
				<path style="fill:#FFD7D4;" d="M63.189,46.97l4.699,4.699c0.119-0.876,0.18-1.753,0.189-2.631L64.65,45.61"/>
			</g>
			<g>
				<line style="fill:#FFD7D4;" x1="64.65" y1="45.61" x2="63.189" y2="46.97"/>
			</g>
			<g>
				<path style="fill:#FFD7D4;" d="M73.859,36.99L72.4,38.36l2.632,2.632c0.517,0.042,1.019,0.068,1.498,0.068
					c0.434,0,0.86-0.045,1.282-0.117"/>
			</g>
			<g>
				<path style="fill:#FFD7D4;" d="M76.051,34.94l4.858,4.859c0.591-0.331,1.155-0.715,1.699-1.131L77.51,33.57L76.051,34.94"/>
			</g>
		</g>
		<g>
			<path style="fill:#FFFFFF;" d="M84.859,36.66c-2.219,2.29-5.119,4.4-8.329,4.4c-1.841,0-3.968-0.352-6.281-0.742
				c-0.226-1.587-0.429-3.133-0.522-4.632L72.4,38.36l1.459-1.37l-4.144-4.145c0.081-1.227,0.288-2.414,0.688-3.551l5.647,5.645
				l1.459-1.37l-6.198-6.199c0.466-0.782,1.042-1.538,1.769-2.261L70.93,23c-5.127,5.127-4.674,10.867-3.809,16.81
				c-6.781-1.01-14.672-1.29-21.65,5.69c-6.563,6.563-6.704,13.93-5.857,20.428c-2.05-0.338-4.005-0.618-5.813-0.618
				c-4.37,0-8.12,2.79-10.819,5.66l2.129,2.11c0.786-0.841,1.669-1.665,2.621-2.39l4.89,4.89l1.46-1.37l-4.641-4.641
				c0.979-0.547,2.011-0.965,3.091-1.149l3.739,3.74l1.471-1.36l-2.42-2.419c1.463,0.12,3.062,0.385,4.764,0.673
				c0.463,2.788,0.946,5.341,0.946,7.507c0,3.32-2.06,6.12-4.23,8.13l2.14,2.12c2.591-2.45,5.091-5.92,5.091-10.25
				c0-2.158-0.394-4.52-0.811-6.998c6.778,1.011,14.659,1.289,21.64-5.692c6.811-6.81,6.666-13.87,5.822-20.435
				c2.062,0.341,4.031,0.625,5.849,0.625c4.2,0,7.81-2.56,10.47-5.31L84.859,36.66z M62.74,61.75
				c-6.31,6.31-13.487,5.744-20.021,4.695c-0.241-1.655-0.423-3.343-0.456-5.041l2.666,2.666l1.461-1.37l-4.027-4.027
				c0.111-1.191,0.329-2.38,0.679-3.561l5.538,5.538l1.46-1.37l-6.235-6.236c0.408-0.913,0.915-1.817,1.529-2.71l6.896,6.895
				l1.459-1.37l-7.13-7.13c0.321-0.373,0.664-0.743,1.03-1.11c0.363-0.362,0.729-0.695,1.097-1.014l7.204,7.204l1.449-1.37
				l-7.06-7.061c0.892-0.617,1.797-1.12,2.709-1.53l6.542,6.542L61,49.02l-5.949-5.95c1.179-0.353,2.367-0.568,3.557-0.684
				l4.582,4.583l1.461-1.359l-3.33-3.33c2.119,0.036,4.221,0.313,6.26,0.639C68.475,49.207,68.841,55.639,62.74,61.75z"/>
		</g>
	</g>
</g>
<g id="R-Red" style="display:none;">
	<circle style="display:inline;fill:#FABBAF;" cx="55" cy="55" r="55"/>
	<g style="display:inline;">
		<g>
			<g>
				<path style="fill:#FFD7D4;" d="M34.08,74.21l-1.46,1.37l6.494,6.495c0.396-0.564,0.744-1.166,1.038-1.793"/>
			</g>
			<g>
				<g>
					<path style="fill:#FFD7D4;" d="M40.832,73.892L37.74,70.8l-1.471,1.36l4.734,4.734c0.006-0.112,0.026-0.221,0.026-0.334
						C41.03,75.73,40.945,74.828,40.832,73.892z"/>
				</g>
			</g>
			<g>
				<g>
					<path style="fill:#FFD7D4;" d="M50.746,67.056L46.391,62.7l-1.461,1.37l2.978,2.979C48.852,67.1,49.798,67.104,50.746,67.056z"
						/>
				</g>
			</g>
			<g>
				<path style="fill:#FFD7D4;" d="M50.04,59.28l-1.46,1.37l5.873,5.872c0.721-0.178,1.441-0.393,2.156-0.674"/>
			</g>
			<g>
				<path style="fill:#FFD7D4;" d="M53.689,55.86l-1.459,1.37l7.184,7.185c0.555-0.349,1.105-0.745,1.65-1.181"/>
			</g>
			<g>
				<g>
					<line style="fill:#FFD7D4;" x1="57.34" y1="52.44" x2="55.891" y2="53.81"/>
				</g>
				<g>
					<path style="fill:#FFD7D4;" d="M64.561,59.662L57.34,52.44l-1.449,1.37l7.375,7.375C63.736,60.679,64.173,60.172,64.561,59.662
						z"/>
				</g>
			</g>
			<g>
				<path style="fill:#FFD7D4;" d="M61,49.02l-1.47,1.37l6.685,6.684c0.34-0.66,0.616-1.323,0.852-1.987L61,49.02z"/>
			</g>
			<g>
				<path style="fill:#FFD7D4;" d="M63.189,46.97l4.699,4.699c0.119-0.876,0.18-1.753,0.189-2.631L64.65,45.61"/>
			</g>
			<g>
				<line style="fill:#FFD7D4;" x1="64.65" y1="45.61" x2="63.189" y2="46.97"/>
			</g>
			<g>
				<path style="fill:#FFD7D4;" d="M73.859,36.99L72.4,38.36l2.632,2.632c0.517,0.042,1.019,0.068,1.498,0.068
					c0.434,0,0.86-0.045,1.282-0.117"/>
			</g>
			<g>
				<path style="fill:#FFD7D4;" d="M76.051,34.94l4.858,4.859c0.591-0.331,1.155-0.715,1.699-1.131L77.51,33.57L76.051,34.94"/>
			</g>
		</g>
		<g>
			<path style="fill:#FFFFFF;" d="M84.859,36.66c-2.219,2.29-5.119,4.4-8.329,4.4c-1.841,0-3.968-0.352-6.281-0.742
				c-0.226-1.587-0.429-3.133-0.522-4.632L72.4,38.36l1.459-1.37l-4.144-4.145c0.081-1.227,0.288-2.414,0.688-3.551l5.647,5.645
				l1.459-1.37l-6.198-6.199c0.466-0.782,1.042-1.538,1.769-2.261L70.93,23c-5.127,5.127-4.674,10.867-3.809,16.81
				c-6.781-1.01-14.672-1.29-21.65,5.69c-6.563,6.563-6.704,13.93-5.857,20.428c-2.05-0.338-4.005-0.618-5.813-0.618
				c-4.37,0-8.12,2.79-10.819,5.66l2.129,2.11c0.786-0.841,1.669-1.665,2.621-2.39l4.89,4.89l1.46-1.37l-4.641-4.641
				c0.979-0.547,2.011-0.965,3.091-1.149l3.739,3.74l1.471-1.36l-2.42-2.419c1.463,0.12,3.062,0.385,4.764,0.673
				c0.463,2.788,0.946,5.341,0.946,7.507c0,3.32-2.06,6.12-4.23,8.13l2.14,2.12c2.591-2.45,5.091-5.92,5.091-10.25
				c0-2.158-0.394-4.52-0.811-6.998c6.778,1.011,14.659,1.289,21.64-5.692c6.811-6.81,6.666-13.87,5.822-20.435
				c2.062,0.341,4.031,0.625,5.849,0.625c4.2,0,7.81-2.56,10.47-5.31L84.859,36.66z M62.74,61.75
				c-6.31,6.31-13.487,5.744-20.021,4.695c-0.241-1.655-0.423-3.343-0.456-5.041l2.666,2.666l1.461-1.37l-4.027-4.027
				c0.111-1.191,0.329-2.38,0.679-3.561l5.538,5.538l1.46-1.37l-6.235-6.236c0.408-0.913,0.915-1.817,1.529-2.71l6.896,6.895
				l1.459-1.37l-7.13-7.13c0.321-0.373,0.664-0.743,1.03-1.11c0.363-0.362,0.729-0.695,1.097-1.014l7.204,7.204l1.449-1.37
				l-7.06-7.061c0.892-0.617,1.797-1.12,2.709-1.53l6.542,6.542L61,49.02l-5.949-5.95c1.179-0.353,2.367-0.568,3.557-0.684
				l4.582,4.583l1.461-1.359l-3.33-3.33c2.119,0.036,4.221,0.313,6.26,0.639C68.475,49.207,68.841,55.639,62.74,61.75z"/>
		</g>
	</g>
</g>
<g id="Yellow" style="display:none;">
	<g style="display:inline;">
		<g>
			<g>
				<path style="fill:#FFE9A1;" d="M34.08,74.21l-1.46,1.37l6.494,6.495c0.396-0.564,0.744-1.165,1.038-1.793"/>
			</g>
			<g>
				<g>
					<path style="fill:#FFE9A1;" d="M40.832,73.892L37.74,70.8l-1.471,1.36l4.734,4.734c0.006-0.112,0.026-0.221,0.026-0.334
						C41.03,75.73,40.945,74.828,40.832,73.892z"/>
				</g>
			</g>
			<g>
				<g>
					<path style="fill:#FFE9A1;" d="M50.746,67.056L46.391,62.7l-1.461,1.37l2.979,2.979C48.852,67.1,49.798,67.104,50.746,67.056z"
						/>
				</g>
			</g>
			<g>
				<path style="fill:#FFE9A1;" d="M50.04,59.28l-1.46,1.37l5.873,5.872c0.721-0.178,1.44-0.393,2.156-0.674"/>
			</g>
			<g>
				<path style="fill:#FFE9A1;" d="M53.689,55.86l-1.459,1.37l7.184,7.185c0.555-0.349,1.105-0.745,1.65-1.181"/>
			</g>
			<g>
				<g>
					<line style="fill:#FFE9A1;" x1="57.34" y1="52.44" x2="55.891" y2="53.81"/>
				</g>
				<g>
					<path style="fill:#FFE9A1;" d="M64.562,59.662L57.34,52.44l-1.449,1.37l7.375,7.375C63.736,60.679,64.173,60.172,64.562,59.662
						z"/>
				</g>
			</g>
			<g>
				<path style="fill:#FFE9A1;" d="M61,49.02l-1.47,1.37l6.685,6.684c0.34-0.66,0.616-1.323,0.852-1.987L61,49.02z"/>
			</g>
			<g>
				<path style="fill:#FFE9A1;" d="M63.189,46.97l4.699,4.699c0.119-0.876,0.18-1.753,0.189-2.631L64.65,45.61"/>
			</g>
			<g>
				<line style="fill:#FFE9A1;" x1="64.65" y1="45.61" x2="63.189" y2="46.97"/>
			</g>
			<g>
				<path style="fill:#FFE9A1;" d="M73.859,36.99L72.4,38.36l2.632,2.632c0.517,0.042,1.019,0.068,1.498,0.068
					c0.434,0,0.86-0.045,1.282-0.117"/>
			</g>
			<g>
				<path style="fill:#FFE9A1;" d="M76.051,34.94l4.858,4.859c0.591-0.331,1.155-0.715,1.699-1.131L77.51,33.57L76.051,34.94"/>
			</g>
		</g>
		<g>
			<path style="fill:#FFFFFF;" d="M84.859,36.66c-2.219,2.29-5.119,4.4-8.329,4.4c-1.841,0-3.968-0.352-6.281-0.742
				c-0.226-1.587-0.429-3.133-0.522-4.632L72.4,38.36l1.459-1.37l-4.144-4.145c0.081-1.227,0.288-2.414,0.688-3.551l5.646,5.645
				l1.459-1.37l-6.198-6.199c0.466-0.782,1.042-1.538,1.769-2.261L70.93,23c-5.127,5.127-4.674,10.867-3.809,16.81
				c-6.781-1.01-14.672-1.29-21.65,5.69c-6.563,6.562-6.704,13.93-5.857,20.428c-2.05-0.338-4.005-0.618-5.813-0.618
				c-4.37,0-8.12,2.79-10.819,5.66l2.129,2.11c0.786-0.841,1.669-1.665,2.621-2.39l4.89,4.89l1.46-1.37l-4.641-4.641
				c0.979-0.547,2.011-0.965,3.091-1.149l3.739,3.74l1.471-1.36l-2.42-2.419c1.463,0.12,3.062,0.385,4.764,0.673
				c0.463,2.788,0.946,5.341,0.946,7.507c0,3.32-2.06,6.12-4.23,8.13l2.14,2.12c2.591-2.45,5.091-5.92,5.091-10.25
				c0-2.158-0.394-4.52-0.811-6.998c6.778,1.011,14.659,1.289,21.64-5.692c6.811-6.81,6.666-13.87,5.822-20.435
				c2.062,0.341,4.031,0.625,5.849,0.625c4.2,0,7.81-2.56,10.47-5.31L84.859,36.66z M62.74,61.75
				c-6.311,6.31-13.487,5.744-20.021,4.695c-0.241-1.655-0.423-3.343-0.456-5.041l2.666,2.666l1.461-1.37l-4.027-4.027
				c0.111-1.191,0.329-2.38,0.679-3.561l5.538,5.538l1.46-1.37l-6.235-6.236c0.408-0.913,0.915-1.817,1.529-2.71l6.896,6.896
				l1.459-1.37l-7.13-7.13c0.321-0.373,0.664-0.743,1.03-1.11c0.363-0.362,0.729-0.695,1.097-1.014l7.204,7.204l1.449-1.37
				l-7.061-7.061c0.892-0.617,1.797-1.12,2.709-1.53l6.542,6.542L61,49.02l-5.949-5.95c1.179-0.353,2.367-0.568,3.557-0.684
				l4.582,4.583l1.461-1.359l-3.33-3.33c2.119,0.036,4.221,0.313,6.26,0.639C68.475,49.207,68.841,55.639,62.74,61.75z"/>
		</g>
	</g>
</g>
<g id="R-Yellow" style="display:none;">
	<circle style="display:inline;fill:#FFD75E;" cx="55" cy="55" r="55"/>
	<g style="display:inline;">
		<g>
			<g>
				<path style="fill:#FFE9A1;" d="M34.08,74.21l-1.46,1.37l6.494,6.495c0.396-0.564,0.744-1.165,1.038-1.793"/>
			</g>
			<g>
				<g>
					<path style="fill:#FFE9A1;" d="M40.832,73.892L37.74,70.8l-1.471,1.36l4.734,4.734c0.006-0.112,0.026-0.221,0.026-0.334
						C41.03,75.73,40.945,74.828,40.832,73.892z"/>
				</g>
			</g>
			<g>
				<g>
					<path style="fill:#FFE9A1;" d="M50.746,67.056L46.391,62.7l-1.461,1.37l2.979,2.979C48.852,67.1,49.798,67.104,50.746,67.056z"
						/>
				</g>
			</g>
			<g>
				<path style="fill:#FFE9A1;" d="M50.04,59.28l-1.46,1.37l5.873,5.872c0.721-0.178,1.441-0.393,2.156-0.674"/>
			</g>
			<g>
				<path style="fill:#FFE9A1;" d="M53.689,55.86l-1.459,1.37l7.184,7.185c0.555-0.349,1.105-0.745,1.65-1.181"/>
			</g>
			<g>
				<g>
					<line style="fill:#FFE9A1;" x1="57.34" y1="52.44" x2="55.891" y2="53.81"/>
				</g>
				<g>
					<path style="fill:#FFE9A1;" d="M64.562,59.662L57.34,52.44l-1.449,1.37l7.375,7.375C63.736,60.679,64.173,60.172,64.562,59.662
						z"/>
				</g>
			</g>
			<g>
				<path style="fill:#FFE9A1;" d="M61,49.02l-1.47,1.37l6.684,6.684c0.34-0.66,0.616-1.323,0.852-1.987L61,49.02z"/>
			</g>
			<g>
				<path style="fill:#FFE9A1;" d="M63.189,46.97l4.699,4.699c0.119-0.876,0.18-1.753,0.189-2.631L64.65,45.61"/>
			</g>
			<g>
				<line style="fill:#FFE9A1;" x1="64.65" y1="45.61" x2="63.189" y2="46.97"/>
			</g>
			<g>
				<path style="fill:#FFE9A1;" d="M73.859,36.99L72.4,38.36l2.632,2.632c0.517,0.042,1.019,0.068,1.498,0.068
					c0.434,0,0.86-0.045,1.282-0.117"/>
			</g>
			<g>
				<path style="fill:#FFE9A1;" d="M76.051,34.94l4.858,4.859c0.591-0.331,1.155-0.715,1.699-1.131L77.51,33.57L76.051,34.94"/>
			</g>
		</g>
		<g>
			<path style="fill:#FFFFFF;" d="M84.859,36.66c-2.219,2.29-5.119,4.4-8.329,4.4c-1.841,0-3.968-0.352-6.281-0.742
				c-0.226-1.587-0.429-3.133-0.522-4.632L72.4,38.36l1.459-1.37l-4.144-4.145c0.081-1.228,0.288-2.414,0.688-3.551l5.646,5.646
				l1.459-1.37l-6.198-6.199c0.466-0.782,1.042-1.538,1.769-2.261L70.93,23c-5.127,5.127-4.674,10.867-3.809,16.81
				c-6.781-1.01-14.672-1.29-21.65,5.69c-6.563,6.562-6.704,13.93-5.857,20.428c-2.05-0.338-4.005-0.618-5.813-0.618
				c-4.37,0-8.12,2.79-10.819,5.66l2.129,2.11c0.786-0.841,1.669-1.665,2.621-2.39l4.89,4.89l1.46-1.37l-4.641-4.641
				c0.978-0.547,2.011-0.965,3.091-1.149l3.739,3.74l1.471-1.36l-2.42-2.419c1.463,0.12,3.062,0.385,4.764,0.673
				c0.463,2.788,0.946,5.341,0.946,7.507c0,3.32-2.06,6.12-4.23,8.13l2.14,2.12c2.591-2.45,5.091-5.92,5.091-10.25
				c0-2.158-0.394-4.52-0.811-6.998c6.778,1.011,14.659,1.289,21.64-5.692c6.811-6.81,6.666-13.87,5.822-20.435
				c2.062,0.341,4.031,0.625,5.849,0.625c4.2,0,7.81-2.56,10.47-5.31L84.859,36.66z M62.74,61.75
				c-6.311,6.31-13.487,5.744-20.021,4.695c-0.241-1.655-0.423-3.343-0.456-5.041l2.666,2.666l1.461-1.37l-4.027-4.027
				c0.111-1.191,0.329-2.38,0.679-3.561l5.538,5.538l1.46-1.37l-6.235-6.236c0.408-0.913,0.915-1.817,1.529-2.71l6.896,6.896
				l1.459-1.37l-7.13-7.13c0.321-0.373,0.664-0.743,1.03-1.11c0.363-0.362,0.729-0.695,1.097-1.014l7.204,7.204l1.449-1.37
				l-7.061-7.061c0.892-0.617,1.797-1.12,2.709-1.53l6.542,6.542L61,49.02l-5.949-5.95c1.179-0.353,2.367-0.568,3.557-0.684
				l4.582,4.583l1.461-1.359l-3.33-3.33c2.119,0.036,4.221,0.313,6.26,0.639C68.475,49.207,68.841,55.639,62.74,61.75z"/>
		</g>
	</g>
</g>
</svg>
