<?xml version="1.0" encoding="iso-8859-1"?>
<!-- Generator: Adobe Illustrator 17.1.0, SVG Export Plug-In . SVG Version: 6.00 Build 0)  -->
<!DOCTYPE svg PUBLIC "-//W3C//DTD SVG 1.0//EN" "http://www.w3.org/TR/2001/REC-SVG-20010904/DTD/svg10.dtd">
<svg version="1.0" xmlns="http://www.w3.org/2000/svg" xmlns:xlink="http://www.w3.org/1999/xlink" x="0px" y="0px" width="110px"
	 height="110px" viewBox="0 0 110 110" style="enable-background:new 0 0 110 110;" xml:space="preserve">
<g id="Artboard" style="display:none;">
	
		<rect x="-701.5" y="-222.5" style="display:inline;fill:#808080;stroke:#000000;stroke-miterlimit:10;" width="1404" height="568"/>
</g>
<g id="R-Multicolor" style="display:none;">
	<circle style="display:inline;fill:#25B7D3;" cx="55" cy="55" r="55"/>
	<g style="display:inline;">
		<g>
			<path style="fill:#FBC8C8;" d="M37,79c0,0,3.778-10.39-2.436-17.401c-0.339-0.383-0.336-0.96,0.01-1.337
				C36.719,57.917,40.528,57.967,46,68c1.429,2.619,4.409,2.479,7,1c4.928-2.813,12.04-11.775,19.5-9.592
				c0.339,0.099,0.601,0.37,0.688,0.712c0.087,0.342-0.013,0.705-0.263,0.955L47,87L37,79z"/>
		</g>
		<g>
			<path style="fill:#F0F1F1;" d="M87,58c0,0.552-0.448,1-1,1H24c-0.552,0-1-0.448-1-1v-2c0-0.552,0.448-1,1-1h62
				c0.552,0,1,0.448,1,1V58z"/>
		</g>
		<g>
			<path style="fill:#FFFFFF;" d="M55,27c1.042,0,2.034,0.046,3,0.115V24c0-0.552-0.448-1-1-1h-4c-0.552,0-1,0.448-1,1v3.115
				C52.966,27.046,53.958,27,55,27z"/>
		</g>
		<g>
			<path style="fill:#E2E4E5;" d="M27,55c0,0-1-28,28-28s28,28,28,28H27z"/>
		</g>
		<g>
			<polygon style="fill:#3E3E3F;" points="37,79 27,87 47,87 			"/>
		</g>
		<g>
			<path style="fill:#FFFFFF;" d="M55,27c-29,0-28,28-28,28h28V27z"/>
		</g>
		<g>
			<path style="fill:#FBC8C8;" d="M37,79c0,0,3.778-10.39-2.436-17.401c-0.339-0.383-0.336-0.96,0.01-1.337
				C36.719,57.917,40.528,57.967,46,68c1.429,2.619,4.409,2.479,7,1c4.928-2.813,12.04-11.775,19.5-9.592
				c0.339,0.099,0.601,0.37,0.688,0.712c0.087,0.342-0.013,0.705-0.263,0.955L47,87L37,79z"/>
		</g>
		<g>
			<path style="fill:#F7B4B4;" d="M72.925,61.075c0.25-0.25,0.35-0.612,0.263-0.955s-0.349-0.613-0.688-0.712
				C65.04,57.226,57.928,66.187,53,69c-2.591,1.479-5.571,1.619-7-1c-5.472-10.033-9.281-10.083-11.426-7.738
				c-0.345,0.377-0.349,0.955-0.01,1.337C40.778,68.609,37,79,37,79l2.727,2.182l30.975-17.884L72.925,61.075z"/>
		</g>
	</g>
</g>
<g id="Multicolor">
	<g>
		<g>
			<path style="fill:#FBC8C8;" d="M37,79c0,0,3.778-10.39-2.436-17.401c-0.339-0.383-0.336-0.96,0.01-1.337
				C36.719,57.917,40.528,57.967,46,68c1.429,2.619,4.409,2.479,7,1c4.928-2.813,12.04-11.775,19.5-9.592
				c0.339,0.099,0.601,0.37,0.688,0.712c0.087,0.342-0.013,0.705-0.263,0.955L47,87L37,79z"/>
		</g>
		<g>
			<path style="fill:#F0F1F1;" d="M87,58c0,0.552-0.448,1-1,1H24c-0.552,0-1-0.448-1-1v-2c0-0.552,0.448-1,1-1h62
				c0.552,0,1,0.448,1,1V58z"/>
		</g>
		<g>
			<path style="fill:#FFFFFF;" d="M55,27c1.042,0,2.034,0.046,3,0.115V24c0-0.552-0.448-1-1-1h-4c-0.552,0-1,0.448-1,1v3.115
				C52.966,27.046,53.958,27,55,27z"/>
		</g>
		<g>
			<path style="fill:#E2E4E5;" d="M27,55c0,0-1-28,28-28s28,28,28,28H27z"/>
		</g>
		<g>
			<polygon style="fill:#3E3E3F;" points="37,79 27,87 47,87 			"/>
		</g>
		<g>
			<path style="fill:#FFFFFF;" d="M55,27c-29,0-28,28-28,28h28V27z"/>
		</g>
		<g>
			<path style="fill:#FBC8C8;" d="M37,79c0,0,3.778-10.39-2.436-17.401c-0.339-0.383-0.336-0.96,0.01-1.337
				C36.719,57.917,40.528,57.967,46,68c1.429,2.619,4.409,2.479,7,1c4.928-2.813,12.04-11.775,19.5-9.592
				c0.339,0.099,0.601,0.37,0.688,0.712c0.087,0.342-0.013,0.705-0.263,0.955L47,87L37,79z"/>
		</g>
		<g>
			<path style="fill:#F7B4B4;" d="M72.925,61.075c0.25-0.25,0.35-0.612,0.263-0.955s-0.349-0.613-0.688-0.712
				C65.04,57.226,57.928,66.187,53,69c-2.591,1.479-5.571,1.619-7-1c-5.472-10.033-9.281-10.083-11.426-7.738
				c-0.345,0.377-0.349,0.955-0.01,1.337C40.778,68.609,37,79,37,79l2.727,2.182l30.975-17.884L72.925,61.075z"/>
		</g>
	</g>
</g>
<g id="Blue" style="display:none;">
	<g style="display:inline;">
		<g>
			<path style="fill:#BBE7F2;" d="M37,79c0,0,3.778-10.391-2.436-17.4c-0.339-0.383-0.336-0.96,0.01-1.338
				C36.719,57.917,40.527,57.967,46,68c1.429,2.619,4.409,2.479,7,1c4.929-2.813,12.039-11.774,19.5-9.592
				c0.339,0.099,0.601,0.37,0.688,0.712c0.088,0.342-0.013,0.705-0.262,0.955L47,87L37,79z"/>
		</g>
		<g>
			<path style="fill:#009FC7;" d="M87,58c0,0.552-0.447,1-1,1H24c-0.553,0-1-0.448-1-1v-2c0-0.552,0.447-1,1-1h62
				c0.553,0,1,0.448,1,1V58z"/>
		</g>
		<g>
			<path style="fill:#FFFFFF;" d="M55,27c1.042,0,2.034,0.046,3,0.115V24c0-0.552-0.447-1-1-1h-4c-0.553,0-1,0.448-1,1v3.115
				C52.966,27.046,53.958,27,55,27z"/>
		</g>
		<g>
			<path style="fill:#E1F5FA;" d="M27,55c0,0-1-28,28-28s28,28,28,28H27z"/>
		</g>
		<g>
			<polygon style="fill:#0C333D;" points="37,79 27,87 47,87 			"/>
		</g>
		<g>
			<path style="fill:#FFFFFF;" d="M55,27c-29,0-28,28-28,28h28V27z"/>
		</g>
		<g>
			<path style="fill:#BBE7F2;" d="M37,79c0,0,3.778-10.391-2.436-17.4c-0.339-0.383-0.336-0.96,0.01-1.338
				C36.719,57.917,40.527,57.967,46,68c1.429,2.619,4.409,2.479,7,1c4.929-2.813,12.039-11.774,19.5-9.592
				c0.339,0.099,0.601,0.37,0.688,0.712c0.088,0.342-0.013,0.705-0.262,0.955L47,87L37,79z"/>
		</g>
		<g>
			<path style="fill:#E1F5FA;" d="M72.926,61.075c0.249-0.25,0.35-0.612,0.262-0.955c-0.087-0.342-0.349-0.613-0.688-0.712
				C65.039,57.226,57.929,66.187,53,69c-2.591,1.479-5.571,1.619-7-1c-5.473-10.033-9.281-10.083-11.426-7.738
				c-0.346,0.378-0.349,0.955-0.01,1.337C40.778,68.609,37,79,37,79l2.727,2.182l30.976-17.884L72.926,61.075z"/>
		</g>
	</g>
</g>
<g id="R-Blue" style="display:none;">
	<circle style="display:inline;fill:#81D2EB;" cx="55" cy="55" r="55"/>
	<g style="display:inline;">
		<g>
			<path style="fill:#BBE7F2;" d="M37,79c0,0,3.778-10.391-2.436-17.4c-0.339-0.383-0.336-0.96,0.01-1.338
				C36.719,57.917,40.527,57.967,46,68c1.429,2.619,4.409,2.479,7,1c4.929-2.813,12.039-11.774,19.5-9.592
				c0.339,0.099,0.601,0.37,0.688,0.712c0.088,0.342-0.013,0.705-0.262,0.955L47,87L37,79z"/>
		</g>
		<g>
			<path style="fill:#009FC7;" d="M87,58c0,0.552-0.447,1-1,1H24c-0.553,0-1-0.448-1-1v-2c0-0.552,0.447-1,1-1h62
				c0.553,0,1,0.448,1,1V58z"/>
		</g>
		<g>
			<path style="fill:#FFFFFF;" d="M55,27c1.042,0,2.034,0.046,3,0.115V24c0-0.552-0.447-1-1-1h-4c-0.553,0-1,0.448-1,1v3.115
				C52.966,27.046,53.958,27,55,27z"/>
		</g>
		<g>
			<path style="fill:#E1F5FA;" d="M27,55c0,0-1-28,28-28s28,28,28,28H27z"/>
		</g>
		<g>
			<polygon style="fill:#0C333D;" points="37,79 27,87 47,87 			"/>
		</g>
		<g>
			<path style="fill:#FFFFFF;" d="M55,27c-29,0-28,28-28,28h28V27z"/>
		</g>
		<g>
			<path style="fill:#BBE7F2;" d="M37,79c0,0,3.778-10.391-2.436-17.4c-0.339-0.383-0.336-0.96,0.01-1.338
				C36.719,57.917,40.527,57.967,46,68c1.429,2.619,4.409,2.479,7,1c4.929-2.813,12.039-11.774,19.5-9.592
				c0.339,0.099,0.601,0.37,0.688,0.712c0.088,0.342-0.013,0.705-0.262,0.955L47,87L37,79z"/>
		</g>
		<g>
			<path style="fill:#E1F5FA;" d="M72.926,61.075c0.249-0.25,0.35-0.612,0.262-0.955c-0.087-0.342-0.349-0.613-0.688-0.712
				C65.039,57.226,57.929,66.187,53,69c-2.591,1.479-5.571,1.619-7-1c-5.473-10.033-9.281-10.083-11.426-7.738
				c-0.346,0.378-0.349,0.955-0.01,1.337C40.778,68.609,37,79,37,79l2.727,2.182l30.976-17.884L72.926,61.075z"/>
		</g>
	</g>
</g>
<g id="Green" style="display:none;">
	<g style="display:inline;">
		<g>
			<path style="fill:#AAF0E9;" d="M37,79c0,0,3.778-10.391-2.436-17.4c-0.339-0.383-0.336-0.96,0.01-1.338
				C36.719,57.917,40.527,57.967,46,68c1.429,2.619,4.409,2.479,7,1c4.929-2.813,12.039-11.774,19.5-9.592
				c0.339,0.099,0.601,0.37,0.688,0.712c0.088,0.342-0.013,0.705-0.262,0.955L47,87L37,79z"/>
		</g>
		<g>
			<path style="fill:#00B8A5;" d="M87,58c0,0.552-0.447,1-1,1H24c-0.553,0-1-0.448-1-1v-2c0-0.552,0.447-1,1-1h62
				c0.553,0,1,0.448,1,1V58z"/>
		</g>
		<g>
			<path style="fill:#FFFFFF;" d="M55,27c1.042,0,2.034,0.046,3,0.115V24c0-0.552-0.447-1-1-1h-4c-0.553,0-1,0.448-1,1v3.115
				C52.966,27.046,53.958,27,55,27z"/>
		</g>
		<g>
			<path style="fill:#D7FCF9;" d="M27,55c0,0-1-28,28-28s28,28,28,28H27z"/>
		</g>
		<g>
			<polygon style="fill:#0A3631;" points="37,79 27,87 47,87 			"/>
		</g>
		<g>
			<path style="fill:#FFFFFF;" d="M55,27c-29,0-28,28-28,28h28V27z"/>
		</g>
		<g>
			<path style="fill:#AAF0E9;" d="M37,79c0,0,3.778-10.391-2.436-17.4c-0.339-0.383-0.336-0.96,0.01-1.338
				C36.719,57.917,40.527,57.967,46,68c1.429,2.619,4.409,2.479,7,1c4.929-2.813,12.039-11.774,19.5-9.592
				c0.339,0.099,0.601,0.37,0.688,0.712c0.088,0.342-0.013,0.705-0.262,0.955L47,87L37,79z"/>
		</g>
		<g>
			<path style="fill:#D7FCF9;" d="M72.926,61.075c0.249-0.25,0.35-0.612,0.262-0.955c-0.087-0.342-0.349-0.613-0.688-0.712
				C65.039,57.226,57.929,66.187,53,69c-2.591,1.479-5.571,1.619-7-1c-5.473-10.033-9.281-10.083-11.426-7.738
				c-0.346,0.377-0.349,0.955-0.01,1.337C40.778,68.609,37,79,37,79l2.727,2.182l30.976-17.884L72.926,61.075z"/>
		</g>
	</g>
</g>
<g id="R-Green" style="display:none;">
	<circle style="display:inline;fill:#77E0C4;" cx="55" cy="55" r="55"/>
	<g style="display:inline;">
		<g>
			<path style="fill:#AAF0E9;" d="M37,79c0,0,3.778-10.391-2.436-17.4c-0.339-0.383-0.336-0.96,0.01-1.338
				C36.719,57.917,40.527,57.967,46,68c1.429,2.619,4.409,2.479,7,1c4.929-2.813,12.039-11.774,19.5-9.592
				c0.339,0.099,0.601,0.37,0.688,0.712c0.088,0.342-0.013,0.705-0.262,0.955L47,87L37,79z"/>
		</g>
		<g>
			<path style="fill:#00B8A5;" d="M87,58c0,0.552-0.447,1-1,1H24c-0.553,0-1-0.448-1-1v-2c0-0.552,0.447-1,1-1h62
				c0.553,0,1,0.448,1,1V58z"/>
		</g>
		<g>
			<path style="fill:#FFFFFF;" d="M55,27c1.042,0,2.034,0.046,3,0.115V24c0-0.552-0.447-1-1-1h-4c-0.553,0-1,0.448-1,1v3.115
				C52.966,27.046,53.958,27,55,27z"/>
		</g>
		<g>
			<path style="fill:#D7FCF9;" d="M27,55c0,0-1-28,28-28s28,28,28,28H27z"/>
		</g>
		<g>
			<polygon style="fill:#0A3631;" points="37,79 27,87 47,87 			"/>
		</g>
		<g>
			<path style="fill:#FFFFFF;" d="M55,27c-29,0-28,28-28,28h28V27z"/>
		</g>
		<g>
			<path style="fill:#AAF0E9;" d="M37,79c0,0,3.778-10.391-2.436-17.4c-0.339-0.383-0.336-0.96,0.01-1.338
				C36.719,57.917,40.527,57.967,46,68c1.429,2.619,4.409,2.479,7,1c4.929-2.813,12.039-11.774,19.5-9.592
				c0.339,0.099,0.601,0.37,0.688,0.712c0.088,0.342-0.013,0.705-0.262,0.955L47,87L37,79z"/>
		</g>
		<g>
			<path style="fill:#D7FCF9;" d="M72.926,61.075c0.249-0.25,0.35-0.612,0.262-0.955c-0.087-0.342-0.349-0.613-0.688-0.712
				C65.039,57.226,57.929,66.187,53,69c-2.591,1.479-5.571,1.619-7-1c-5.473-10.033-9.281-10.083-11.426-7.738
				c-0.346,0.377-0.349,0.955-0.01,1.337C40.778,68.609,37,79,37,79l2.727,2.182l30.975-17.884L72.926,61.075z"/>
		</g>
	</g>
</g>
<g id="Red" style="display:none;">
	<g style="display:inline;">
		<g>
			<path style="fill:#FFD7D4;" d="M37,79c0,0,3.778-10.391-2.436-17.4c-0.339-0.383-0.336-0.96,0.01-1.338
				C36.719,57.917,40.527,57.967,46,68c1.429,2.619,4.409,2.479,7,1c4.929-2.813,12.039-11.774,19.5-9.592
				c0.339,0.099,0.601,0.37,0.687,0.712c0.088,0.342-0.013,0.705-0.262,0.955L47,87L37,79z"/>
		</g>
		<g>
			<path style="fill:#E54B44;" d="M87,58c0,0.552-0.447,1-1,1H24c-0.553,0-1-0.448-1-1v-2c0-0.552,0.447-1,1-1h62
				c0.553,0,1,0.448,1,1V58z"/>
		</g>
		<g>
			<path style="fill:#FFFFFF;" d="M55,27c1.042,0,2.034,0.046,3,0.115V24c0-0.552-0.447-1-1-1h-4c-0.553,0-1,0.448-1,1v3.115
				C52.966,27.046,53.958,27,55,27z"/>
		</g>
		<g>
			<path style="fill:#FFEFED;" d="M27,55c0,0-1-28,28-28s28,28,28,28H27z"/>
		</g>
		<g>
			<polygon style="fill:#4A1410;" points="37,79 27,87 47,87 			"/>
		</g>
		<g>
			<path style="fill:#FFFFFF;" d="M55,27c-29,0-28,28-28,28h28V27z"/>
		</g>
		<g>
			<path style="fill:#FFD7D4;" d="M37,79c0,0,3.778-10.391-2.436-17.4c-0.339-0.383-0.336-0.96,0.01-1.338
				C36.719,57.917,40.527,57.967,46,68c1.429,2.619,4.409,2.479,7,1c4.929-2.813,12.039-11.774,19.5-9.592
				c0.339,0.099,0.601,0.37,0.687,0.712c0.088,0.342-0.013,0.705-0.262,0.955L47,87L37,79z"/>
		</g>
		<g>
			<path style="fill:#FFEFED;" d="M72.926,61.075c0.249-0.25,0.35-0.612,0.262-0.955c-0.087-0.342-0.349-0.613-0.687-0.712
				C65.039,57.226,57.929,66.187,53,69c-2.591,1.479-5.571,1.619-7-1c-5.473-10.033-9.281-10.083-11.426-7.738
				c-0.346,0.377-0.349,0.955-0.01,1.337C40.778,68.609,37,79,37,79l2.727,2.182l30.975-17.884L72.926,61.075z"/>
		</g>
	</g>
</g>
<g id="R-Red" style="display:none;">
	<circle style="display:inline;fill:#FABBAF;" cx="55" cy="55" r="55"/>
	<g style="display:inline;">
		<g>
			<path style="fill:#FFD7D4;" d="M37,79c0,0,3.778-10.391-2.436-17.4c-0.339-0.383-0.336-0.96,0.01-1.338
				C36.719,57.917,40.527,57.967,46,68c1.429,2.619,4.409,2.479,7,1c4.929-2.813,12.039-11.774,19.5-9.592
				c0.339,0.099,0.601,0.37,0.687,0.712c0.088,0.342-0.013,0.705-0.262,0.955L47,87L37,79z"/>
		</g>
		<g>
			<path style="fill:#E54B44;" d="M87,58c0,0.552-0.447,1-1,1H24c-0.553,0-1-0.448-1-1v-2c0-0.552,0.447-1,1-1h62
				c0.553,0,1,0.448,1,1V58z"/>
		</g>
		<g>
			<path style="fill:#FFFFFF;" d="M55,27c1.042,0,2.034,0.046,3,0.115V24c0-0.552-0.447-1-1-1h-4c-0.553,0-1,0.448-1,1v3.115
				C52.966,27.046,53.958,27,55,27z"/>
		</g>
		<g>
			<path style="fill:#FFEFED;" d="M27,55c0,0-1-28,28-28s28,28,28,28H27z"/>
		</g>
		<g>
			<polygon style="fill:#4A1410;" points="37,79 27,87 47,87 			"/>
		</g>
		<g>
			<path style="fill:#FFFFFF;" d="M55,27c-29,0-28,28-28,28h28V27z"/>
		</g>
		<g>
			<path style="fill:#FFD7D4;" d="M37,79c0,0,3.778-10.391-2.436-17.4c-0.339-0.383-0.336-0.96,0.01-1.338
				C36.719,57.917,40.527,57.967,46,68c1.429,2.619,4.409,2.479,7,1c4.929-2.813,12.039-11.774,19.5-9.592
				c0.339,0.099,0.601,0.37,0.687,0.712c0.088,0.342-0.013,0.705-0.262,0.955L47,87L37,79z"/>
		</g>
		<g>
			<path style="fill:#FFEFED;" d="M72.926,61.075c0.249-0.25,0.35-0.612,0.262-0.955c-0.087-0.342-0.349-0.613-0.687-0.712
				C65.039,57.226,57.929,66.187,53,69c-2.591,1.479-5.571,1.619-7-1c-5.473-10.033-9.281-10.083-11.426-7.738
				c-0.346,0.377-0.349,0.955-0.01,1.337C40.778,68.609,37,79,37,79l2.727,2.182l30.975-17.884L72.926,61.075z"/>
		</g>
	</g>
</g>
<g id="Yellow" style="display:none;">
	<g style="display:inline;">
		<g>
			<path style="fill:#FFE9A1;" d="M37,79c0,0,3.778-10.391-2.436-17.4c-0.339-0.383-0.336-0.96,0.01-1.338
				C36.719,57.917,40.527,57.967,46,68c1.429,2.619,4.409,2.479,7,1c4.929-2.813,12.039-11.774,19.5-9.592
				c0.339,0.099,0.601,0.37,0.688,0.712c0.088,0.342-0.013,0.705-0.262,0.955L47,87L37,79z"/>
		</g>
		<g>
			<path style="fill:#FA9200;" d="M87,58c0,0.552-0.447,1-1,1H24c-0.553,0-1-0.448-1-1v-2c0-0.552,0.447-1,1-1h62
				c0.553,0,1,0.448,1,1V58z"/>
		</g>
		<g>
			<path style="fill:#FFFFFF;" d="M55,27c1.042,0,2.034,0.046,3,0.115V24c0-0.552-0.447-1-1-1h-4c-0.553,0-1,0.448-1,1v3.115
				C52.966,27.046,53.958,27,55,27z"/>
		</g>
		<g>
			<path style="fill:#FFF5D9;" d="M27,55c0,0-1-28,28-28s28,28,28,28H27z"/>
		</g>
		<g>
			<polygon style="fill:#3D320C;" points="37,79 27,87 47,87 			"/>
		</g>
		<g>
			<path style="fill:#FFFFFF;" d="M55,27c-29,0-28,28-28,28h28V27z"/>
		</g>
		<g>
			<path style="fill:#FFE9A1;" d="M37,79c0,0,3.778-10.391-2.436-17.4c-0.339-0.383-0.336-0.96,0.01-1.338
				C36.719,57.917,40.527,57.967,46,68c1.429,2.619,4.409,2.479,7,1c4.929-2.813,12.039-11.774,19.5-9.592
				c0.339,0.099,0.601,0.37,0.688,0.712c0.088,0.342-0.013,0.705-0.262,0.955L47,87L37,79z"/>
		</g>
		<g>
			<path style="fill:#FFF5D9;" d="M72.926,61.075c0.249-0.25,0.35-0.612,0.262-0.955c-0.087-0.342-0.349-0.613-0.688-0.712
				C65.039,57.226,57.929,66.187,53,69c-2.591,1.479-5.571,1.619-7-1c-5.473-10.033-9.281-10.083-11.426-7.738
				c-0.346,0.377-0.349,0.955-0.01,1.337C40.778,68.609,37,79,37,79l2.727,2.182l30.976-17.884L72.926,61.075z"/>
		</g>
	</g>
</g>
<g id="R-Yellow" style="display:none;">
	<circle style="display:inline;fill:#FFD75E;" cx="55" cy="55" r="55"/>
	<g style="display:inline;">
		<g>
			<path style="fill:#FFE9A1;" d="M37,79c0,0,3.778-10.391-2.436-17.4c-0.339-0.383-0.336-0.96,0.01-1.338
				C36.719,57.917,40.527,57.967,46,68c1.429,2.619,4.409,2.479,7,1c4.929-2.813,12.039-11.774,19.5-9.592
				c0.339,0.099,0.601,0.37,0.688,0.712c0.088,0.342-0.013,0.705-0.262,0.955L47,87L37,79z"/>
		</g>
		<g>
			<path style="fill:#FA9200;" d="M87,58c0,0.552-0.447,1-1,1H24c-0.553,0-1-0.448-1-1v-2c0-0.552,0.447-1,1-1h62
				c0.553,0,1,0.448,1,1V58z"/>
		</g>
		<g>
			<path style="fill:#FFFFFF;" d="M55,27c1.042,0,2.034,0.046,3,0.115V24c0-0.552-0.447-1-1-1h-4c-0.553,0-1,0.448-1,1v3.115
				C52.966,27.046,53.958,27,55,27z"/>
		</g>
		<g>
			<path style="fill:#FFF5D9;" d="M27,55c0,0-1-28,28-28s28,28,28,28H27z"/>
		</g>
		<g>
			<polygon style="fill:#3D320C;" points="37,79 27,87 47,87 			"/>
		</g>
		<g>
			<path style="fill:#FFFFFF;" d="M55,27c-29,0-28,28-28,28h28V27z"/>
		</g>
		<g>
			<path style="fill:#FFE9A1;" d="M37,79c0,0,3.778-10.391-2.436-17.4c-0.339-0.383-0.336-0.96,0.01-1.338
				C36.719,57.917,40.527,57.967,46,68c1.429,2.619,4.409,2.479,7,1c4.929-2.813,12.039-11.774,19.5-9.592
				c0.339,0.099,0.601,0.37,0.688,0.712c0.088,0.342-0.013,0.705-0.262,0.955L47,87L37,79z"/>
		</g>
		<g>
			<path style="fill:#FFF5D9;" d="M72.926,61.075c0.249-0.25,0.35-0.612,0.262-0.955c-0.087-0.342-0.349-0.613-0.688-0.712
				C65.039,57.226,57.929,66.187,53,69c-2.591,1.479-5.571,1.619-7-1c-5.473-10.033-9.281-10.083-11.426-7.738
				c-0.346,0.377-0.349,0.955-0.01,1.337C40.778,68.609,37,79,37,79l2.727,2.182l30.976-17.884L72.926,61.075z"/>
		</g>
	</g>
</g>
</svg>
