<?xml version="1.0" encoding="iso-8859-1"?>
<!-- Generator: Adobe Illustrator 17.1.0, SVG Export Plug-In . SVG Version: 6.00 Build 0)  -->
<!DOCTYPE svg PUBLIC "-//W3C//DTD SVG 1.0//EN" "http://www.w3.org/TR/2001/REC-SVG-20010904/DTD/svg10.dtd">
<svg version="1.0" xmlns="http://www.w3.org/2000/svg" xmlns:xlink="http://www.w3.org/1999/xlink" x="0px" y="0px" width="110px"
	 height="110px" viewBox="0 0 110 110" style="enable-background:new 0 0 110 110;" xml:space="preserve">
<g id="Artboard" style="display:none;">
	<rect x="-296.5" y="-28.5" style="display:inline;fill:#808080;stroke:#000000;stroke-miterlimit:10;" width="1323" height="294"/>
</g>
<g id="R-Multicolor" style="display:none;">
	<g style="display:inline;">
		<circle style="fill:#FABC3D;" cx="55" cy="55" r="55"/>
	</g>
	<g style="display:inline;">
		<path style="fill:#3E3E3F;" d="M83,76c-0.615-1.333-1.698-2.394-3.043-2.982l-9.816-2.637c8.075-9.637,13.396-21.417-0.192-35.231
			c-5-5.083-15-7.15-15-7.15s-10,2.067-15,7.15c-13.474,13.699-8.13,25.534-0.075,35.227l-9.832,2.641
			C28.698,73.606,27.615,74.667,27,76l-4,11h32h32L83,76z"/>
		<path style="fill:#E2E4E5;" d="M65.949,41.25c-3-3.05-6-2.033-11-2.033s-8-1.017-11,2.033c-4.838,4.919-2.615,16.559,1.98,26.13
			C49.961,71.556,55,73,55,73s4.875-1.396,8.872-5.415C68.534,57.976,70.822,46.204,65.949,41.25z"/>
		<path style="fill:#FFFFFF;" d="M43.949,41.25c-4.856,4.938-2.599,16.648,2.032,26.24c4.014,4.094,8.968,5.51,8.968,5.51V39.217
			C49.949,39.217,46.949,38.2,43.949,41.25z"/>
		<g>
			<polygon style="fill:#3E3E3F;" points="54.949,72 52.949,65 56.949,65 			"/>
		</g>
		<path style="fill:#3E3E3F;" d="M65,57l-3,2l-5-2h-1h-2h-1l-5,2l-3-2h-1l2.1,2.8c0.566,0.755,1.456,1.2,2.4,1.2H53l2-2.667L57,61
			h4.5c0.944,0,1.833-0.445,2.4-1.2L66,57H65z"/>
		<g>
			<path style="fill:#3E3E3F;" d="M53.949,51c-3-6-10,0-10,0H53.949z"/>
		</g>
		<g>
			<path style="fill:#3E3E3F;" d="M55.949,51c3-6,10,0,10,0H55.949z"/>
		</g>
		<g>
			<path style="fill:#3E3E3F;" d="M44.949,43c2-1,9,3.139,9,3.139S47.949,38,44.949,43z"/>
		</g>
		<g>
			<path style="fill:#3E3E3F;" d="M64.949,43c-2-1-9,3.139-9,3.139S61.949,38,64.949,43z"/>
		</g>
		<path style="fill:#F7B4B4;" d="M55,73c0,0-4.959-1.418-8.975-5.517c2.538,5.258,5.788,9.88,8.975,12.4
			c3.187-2.52,6.438-7.142,8.975-12.401C59.959,71.582,55,73,55,73z"/>
		<path style="fill:#FBC8C8;" d="M46.025,67.483c2.538,5.258,5.788,9.88,8.975,12.4V73C55,73,50.041,71.582,46.025,67.483z"/>
	</g>
</g>
<g id="Multicolor">
	<g>
		<path style="fill:#3E3E3F;" d="M83,76c-0.615-1.333-1.698-2.394-3.043-2.982l-9.816-2.637c8.075-9.637,13.396-21.417-0.192-35.231
			c-5-5.083-15-7.15-15-7.15s-10,2.067-15,7.15c-13.474,13.699-8.13,25.534-0.075,35.227l-9.832,2.641
			C28.698,73.606,27.615,74.667,27,76l-4,11h32h32L83,76z"/>
		<path style="fill:#E2E4E5;" d="M65.949,41.25c-3-3.05-6-2.033-11-2.033s-8-1.017-11,2.033c-4.838,4.919-2.615,16.559,1.98,26.13
			C49.961,71.556,55,73,55,73s4.875-1.396,8.872-5.415C68.534,57.976,70.822,46.204,65.949,41.25z"/>
		<path style="fill:#FFFFFF;" d="M43.949,41.25c-4.856,4.938-2.599,16.648,2.032,26.24c4.014,4.094,8.968,5.51,8.968,5.51V39.217
			C49.949,39.217,46.949,38.2,43.949,41.25z"/>
		<g>
			<polygon style="fill:#3E3E3F;" points="54.949,72 52.949,65 56.949,65 			"/>
		</g>
		<path style="fill:#3E3E3F;" d="M65,57l-3,2l-5-2h-1h-2h-1l-5,2l-3-2h-1l2.1,2.8c0.566,0.755,1.456,1.2,2.4,1.2H53l2-2.667L57,61
			h4.5c0.944,0,1.833-0.445,2.4-1.2L66,57H65z"/>
		<g>
			<path style="fill:#3E3E3F;" d="M53.949,51c-3-6-10,0-10,0H53.949z"/>
		</g>
		<g>
			<path style="fill:#3E3E3F;" d="M55.949,51c3-6,10,0,10,0H55.949z"/>
		</g>
		<g>
			<path style="fill:#3E3E3F;" d="M44.949,43c2-1,9,3.139,9,3.139S47.949,38,44.949,43z"/>
		</g>
		<g>
			<path style="fill:#3E3E3F;" d="M64.949,43c-2-1-9,3.139-9,3.139S61.949,38,64.949,43z"/>
		</g>
		<path style="fill:#F7B4B4;" d="M55,73c0,0-4.959-1.418-8.975-5.517c2.538,5.258,5.788,9.88,8.975,12.4
			c3.187-2.52,6.438-7.142,8.975-12.401C59.959,71.582,55,73,55,73z"/>
		<path style="fill:#FBC8C8;" d="M46.025,67.483c2.538,5.258,5.788,9.88,8.975,12.4V73C55,73,50.041,71.582,46.025,67.483z"/>
	</g>
</g>
<g id="Blue" style="display:none;">
	<g style="display:inline;">
		<path style="fill:#0C333D;" d="M83,76c-0.615-1.333-1.698-2.394-3.044-2.982l-9.815-2.637c8.075-9.637,13.396-21.417-0.192-35.231
			c-5-5.083-15-7.15-15-7.15s-10,2.067-15,7.15c-13.474,13.699-8.13,25.534-0.075,35.227l-9.832,2.641
			C28.698,73.606,27.615,74.667,27,76l-4,11h32h32L83,76z"/>
		<path style="fill:#E1F5FA;" d="M65.949,41.25c-3-3.05-6-2.033-11-2.033s-8-1.017-11,2.033c-4.838,4.919-2.616,16.559,1.98,26.13
			C49.961,71.557,55,73,55,73s4.874-1.396,8.872-5.415C68.534,57.976,70.822,46.204,65.949,41.25z"/>
		<path style="fill:#FFFFFF;" d="M43.949,41.25c-4.856,4.938-2.599,16.648,2.032,26.24c4.014,4.094,8.968,5.51,8.968,5.51V39.217
			C49.949,39.217,46.949,38.2,43.949,41.25z"/>
		<g>
			<polygon style="fill:#0C333D;" points="54.95,72 52.95,65 56.95,65 			"/>
		</g>
		<path style="fill:#0C333D;" d="M65,57l-3,2l-5-2h-1h-2h-1l-5,2l-3-2h-1l2.1,2.8c0.566,0.756,1.456,1.2,2.4,1.2H53l2-2.667L57,61
			h4.5c0.944,0,1.833-0.444,2.4-1.2L66,57H65z"/>
		<g>
			<path style="fill:#0C333D;" d="M53.95,51c-3-6-10,0-10,0H53.95z"/>
		</g>
		<g>
			<path style="fill:#0C333D;" d="M55.95,51c3-6,10,0,10,0H55.95z"/>
		</g>
		<g>
			<path style="fill:#0C333D;" d="M44.95,43c2-1,9,3.139,9,3.139S47.95,38,44.95,43z"/>
		</g>
		<g>
			<path style="fill:#0C333D;" d="M64.95,43c-2-1-9,3.139-9,3.139S61.95,38,64.95,43z"/>
		</g>
		<path style="fill:#BBE7F2;" d="M55,73c0,0-4.96-1.418-8.975-5.517c2.537,5.258,5.787,9.88,8.975,12.4
			c3.187-2.52,6.437-7.142,8.975-12.401C59.959,71.582,55,73,55,73z"/>
		<path style="fill:#E1F5FA;" d="M46.025,67.483c2.537,5.258,5.787,9.88,8.975,12.4V73C55,73,50.04,71.582,46.025,67.483z"/>
	</g>
</g>
<g id="R-Blue" style="display:none;">
	<g style="display:inline;">
		<circle style="fill:#81D2EB;" cx="55" cy="55" r="55"/>
	</g>
	<g style="display:inline;">
		<path style="fill:#0C333D;" d="M83,76c-0.615-1.333-1.698-2.394-3.044-2.982l-9.815-2.637c8.075-9.637,13.396-21.417-0.192-35.231
			c-5-5.083-15-7.15-15-7.15s-10,2.067-15,7.15c-13.474,13.699-8.13,25.534-0.075,35.227l-9.832,2.641
			C28.698,73.606,27.615,74.667,27,76l-4,11h32h32L83,76z"/>
		<path style="fill:#E1F5FA;" d="M65.949,41.25c-3-3.05-6-2.033-11-2.033s-8-1.017-11,2.033c-4.838,4.919-2.616,16.559,1.98,26.13
			C49.961,71.557,55,73,55,73s4.874-1.396,8.872-5.415C68.534,57.976,70.822,46.204,65.949,41.25z"/>
		<path style="fill:#FFFFFF;" d="M43.949,41.25c-4.856,4.938-2.599,16.648,2.032,26.24c4.014,4.094,8.968,5.51,8.968,5.51V39.217
			C49.949,39.217,46.949,38.2,43.949,41.25z"/>
		<g>
			<polygon style="fill:#0C333D;" points="54.95,72 52.95,65 56.95,65 			"/>
		</g>
		<path style="fill:#0C333D;" d="M65,57l-3,2l-5-2h-1h-2h-1l-5,2l-3-2h-1l2.1,2.8c0.566,0.756,1.456,1.2,2.4,1.2H53l2-2.667L57,61
			h4.5c0.944,0,1.833-0.444,2.4-1.2L66,57H65z"/>
		<g>
			<path style="fill:#0C333D;" d="M53.95,51c-3-6-10,0-10,0H53.95z"/>
		</g>
		<g>
			<path style="fill:#0C333D;" d="M55.95,51c3-6,10,0,10,0H55.95z"/>
		</g>
		<g>
			<path style="fill:#0C333D;" d="M44.95,43c2-1,9,3.139,9,3.139S47.95,38,44.95,43z"/>
		</g>
		<g>
			<path style="fill:#0C333D;" d="M64.95,43c-2-1-9,3.139-9,3.139S61.95,38,64.95,43z"/>
		</g>
		<path style="fill:#BBE7F2;" d="M55,73c0,0-4.96-1.418-8.975-5.517c2.537,5.258,5.787,9.88,8.975,12.4
			c3.187-2.52,6.437-7.142,8.975-12.401C59.959,71.582,55,73,55,73z"/>
		<path style="fill:#E1F5FA;" d="M46.025,67.483c2.537,5.258,5.787,9.88,8.975,12.4V73C55,73,50.04,71.582,46.025,67.483z"/>
	</g>
</g>
<g id="Green" style="display:none;">
	<g style="display:inline;">
		<path style="fill:#0A3631;" d="M83,76c-0.615-1.333-1.698-2.394-3.044-2.982l-9.815-2.637c8.075-9.637,13.396-21.417-0.192-35.231
			c-5-5.083-15-7.15-15-7.15s-10,2.067-15,7.15c-13.474,13.699-8.13,25.534-0.075,35.227l-9.832,2.641
			C28.698,73.606,27.615,74.667,27,76l-4,11h32h32L83,76z"/>
		<path style="fill:#D7FCF9;" d="M65.949,41.25c-3-3.05-6-2.033-11-2.033s-8-1.017-11,2.033c-4.838,4.919-2.616,16.559,1.98,26.13
			C49.961,71.557,55,73,55,73s4.874-1.396,8.872-5.415C68.534,57.976,70.822,46.204,65.949,41.25z"/>
		<path style="fill:#FFFFFF;" d="M43.949,41.25c-4.856,4.938-2.599,16.648,2.032,26.24c4.014,4.094,8.968,5.51,8.968,5.51V39.217
			C49.949,39.217,46.949,38.2,43.949,41.25z"/>
		<g>
			<polygon style="fill:#0A3631;" points="54.95,72 52.95,65 56.95,65 			"/>
		</g>
		<path style="fill:#0A3631;" d="M65,57l-3,2l-5-2h-1h-2h-1l-5,2l-3-2h-1l2.1,2.8c0.566,0.756,1.456,1.2,2.4,1.2H53l2-2.667L57,61
			h4.5c0.944,0,1.833-0.444,2.4-1.2L66,57H65z"/>
		<g>
			<path style="fill:#0A3631;" d="M53.95,51c-3-6-10,0-10,0H53.95z"/>
		</g>
		<g>
			<path style="fill:#0A3631;" d="M55.95,51c3-6,10,0,10,0H55.95z"/>
		</g>
		<g>
			<path style="fill:#0A3631;" d="M44.95,43c2-1,9,3.139,9,3.139S47.95,38,44.95,43z"/>
		</g>
		<g>
			<path style="fill:#0A3631;" d="M64.95,43c-2-1-9,3.139-9,3.139S61.95,38,64.95,43z"/>
		</g>
		<path style="fill:#AAF0E9;" d="M55,73c0,0-4.96-1.418-8.975-5.517c2.537,5.258,5.787,9.88,8.975,12.4
			c3.187-2.52,6.437-7.142,8.975-12.401C59.959,71.582,55,73,55,73z"/>
		<path style="fill:#D7FCF9;" d="M46.025,67.483c2.537,5.258,5.787,9.88,8.975,12.4V73C55,73,50.04,71.582,46.025,67.483z"/>
	</g>
</g>
<g id="R-Green" style="display:none;">
	<g style="display:inline;">
		<circle style="fill:#77E0C4;" cx="55" cy="55" r="55"/>
	</g>
	<g style="display:inline;">
		<path style="fill:#0A3631;" d="M83,76c-0.615-1.333-1.698-2.394-3.044-2.982l-9.815-2.637c8.075-9.637,13.396-21.417-0.192-35.231
			c-5-5.083-15-7.15-15-7.15s-10,2.067-15,7.15c-13.474,13.699-8.13,25.534-0.075,35.227l-9.832,2.641
			C28.698,73.606,27.615,74.667,27,76l-4,11h32h32L83,76z"/>
		<path style="fill:#D7FCF9;" d="M65.949,41.25c-3-3.05-6-2.033-11-2.033s-8-1.017-11,2.033c-4.838,4.919-2.616,16.559,1.98,26.13
			C49.961,71.557,55,73,55,73s4.874-1.396,8.872-5.415C68.534,57.976,70.822,46.204,65.949,41.25z"/>
		<path style="fill:#FFFFFF;" d="M43.949,41.25c-4.856,4.938-2.599,16.648,2.032,26.24c4.014,4.094,8.968,5.51,8.968,5.51V39.217
			C49.949,39.217,46.949,38.2,43.949,41.25z"/>
		<g>
			<polygon style="fill:#0A3631;" points="54.95,72 52.95,65 56.95,65 			"/>
		</g>
		<path style="fill:#0A3631;" d="M65,57l-3,2l-5-2h-1h-2h-1l-5,2l-3-2h-1l2.1,2.8c0.566,0.756,1.456,1.2,2.4,1.2H53l2-2.667L57,61
			h4.5c0.944,0,1.833-0.444,2.4-1.2L66,57H65z"/>
		<g>
			<path style="fill:#0A3631;" d="M53.95,51c-3-6-10,0-10,0H53.95z"/>
		</g>
		<g>
			<path style="fill:#0A3631;" d="M55.95,51c3-6,10,0,10,0H55.95z"/>
		</g>
		<g>
			<path style="fill:#0A3631;" d="M44.95,43c2-1,9,3.139,9,3.139S47.95,38,44.95,43z"/>
		</g>
		<g>
			<path style="fill:#0A3631;" d="M64.95,43c-2-1-9,3.139-9,3.139S61.95,38,64.95,43z"/>
		</g>
		<path style="fill:#AAF0E9;" d="M55,73c0,0-4.96-1.418-8.975-5.517c2.537,5.258,5.787,9.88,8.975,12.4
			c3.187-2.52,6.437-7.142,8.975-12.401C59.959,71.582,55,73,55,73z"/>
		<path style="fill:#D7FCF9;" d="M46.025,67.483c2.537,5.258,5.787,9.88,8.975,12.4V73C55,73,50.04,71.582,46.025,67.483z"/>
	</g>
</g>
<g id="Red" style="display:none;">
	<g style="display:inline;">
		<path style="fill:#4A1410;" d="M83,76c-0.615-1.333-1.698-2.394-3.044-2.982l-9.815-2.637c8.075-9.637,13.396-21.417-0.192-35.231
			c-5-5.083-15-7.15-15-7.15s-10,2.067-15,7.15c-13.474,13.699-8.13,25.534-0.075,35.227l-9.832,2.641
			C28.698,73.606,27.615,74.667,27,76l-4,11h32h32L83,76z"/>
		<path style="fill:#FFEFED;" d="M65.949,41.25c-3-3.05-6-2.033-11-2.033s-8-1.017-11,2.033c-4.838,4.919-2.616,16.559,1.98,26.13
			C49.961,71.557,55,73,55,73s4.874-1.396,8.872-5.415C68.534,57.976,70.822,46.204,65.949,41.25z"/>
		<path style="fill:#FFFFFF;" d="M43.949,41.25c-4.856,4.938-2.599,16.648,2.032,26.24c4.014,4.094,8.968,5.51,8.968,5.51V39.217
			C49.949,39.217,46.949,38.2,43.949,41.25z"/>
		<g>
			<polygon style="fill:#4A1410;" points="54.95,72 52.95,65 56.95,65 			"/>
		</g>
		<path style="fill:#4A1410;" d="M65,57l-3,2l-5-2h-1h-2h-1l-5,2l-3-2h-1l2.1,2.8c0.566,0.756,1.456,1.2,2.4,1.2H53l2-2.667L57,61
			h4.5c0.944,0,1.833-0.444,2.4-1.2L66,57H65z"/>
		<g>
			<path style="fill:#4A1410;" d="M53.95,51c-3-6-10,0-10,0H53.95z"/>
		</g>
		<g>
			<path style="fill:#4A1410;" d="M55.95,51c3-6,10,0,10,0H55.95z"/>
		</g>
		<g>
			<path style="fill:#4A1410;" d="M44.95,43c2-1,9,3.139,9,3.139S47.95,38,44.95,43z"/>
		</g>
		<g>
			<path style="fill:#4A1410;" d="M64.95,43c-2-1-9,3.139-9,3.139S61.95,38,64.95,43z"/>
		</g>
		<path style="fill:#FFD7D4;" d="M55,73c0,0-4.96-1.418-8.975-5.517c2.537,5.258,5.787,9.88,8.975,12.4
			c3.187-2.52,6.437-7.142,8.975-12.401C59.959,71.582,55,73,55,73z"/>
		<path style="fill:#FFEFED;" d="M46.025,67.483c2.537,5.258,5.787,9.88,8.975,12.4V73C55,73,50.04,71.582,46.025,67.483z"/>
	</g>
</g>
<g id="R-Red" style="display:none;">
	<g style="display:inline;">
		<circle style="fill:#FABBAF;" cx="55" cy="55" r="55"/>
	</g>
	<g style="display:inline;">
		<path style="fill:#4A1410;" d="M83,76c-0.615-1.333-1.698-2.394-3.044-2.982l-9.815-2.637c8.075-9.637,13.396-21.417-0.192-35.231
			c-5-5.083-15-7.15-15-7.15s-10,2.067-15,7.15c-13.474,13.699-8.13,25.534-0.075,35.227l-9.832,2.641
			C28.698,73.606,27.615,74.667,27,76l-4,11h32h32L83,76z"/>
		<path style="fill:#FFEFED;" d="M65.949,41.25c-3-3.05-6-2.033-11-2.033s-8-1.017-11,2.033c-4.838,4.919-2.616,16.559,1.98,26.13
			C49.961,71.557,55,73,55,73s4.874-1.396,8.872-5.415C68.534,57.976,70.822,46.204,65.949,41.25z"/>
		<path style="fill:#FFFFFF;" d="M43.949,41.25c-4.856,4.938-2.599,16.648,2.032,26.24c4.014,4.094,8.968,5.51,8.968,5.51V39.217
			C49.949,39.217,46.949,38.2,43.949,41.25z"/>
		<g>
			<polygon style="fill:#4A1410;" points="54.95,72 52.95,65 56.95,65 			"/>
		</g>
		<path style="fill:#4A1410;" d="M65,57l-3,2l-5-2h-1h-2h-1l-5,2l-3-2h-1l2.1,2.8c0.566,0.756,1.456,1.2,2.4,1.2H53l2-2.667L57,61
			h4.5c0.944,0,1.833-0.444,2.4-1.2L66,57H65z"/>
		<g>
			<path style="fill:#4A1410;" d="M53.95,51c-3-6-10,0-10,0H53.95z"/>
		</g>
		<g>
			<path style="fill:#4A1410;" d="M55.95,51c3-6,10,0,10,0H55.95z"/>
		</g>
		<g>
			<path style="fill:#4A1410;" d="M44.95,43c2-1,9,3.139,9,3.139S47.95,38,44.95,43z"/>
		</g>
		<g>
			<path style="fill:#4A1410;" d="M64.95,43c-2-1-9,3.139-9,3.139S61.95,38,64.95,43z"/>
		</g>
		<path style="fill:#FFD7D4;" d="M55,73c0,0-4.959-1.418-8.975-5.517c2.537,5.258,5.787,9.88,8.975,12.4
			c3.187-2.52,6.437-7.142,8.975-12.401C59.959,71.582,55,73,55,73z"/>
		<path style="fill:#FFEFED;" d="M46.025,67.483c2.537,5.258,5.787,9.88,8.975,12.4V73C55,73,50.041,71.582,46.025,67.483z"/>
	</g>
</g>
<g id="Yellow" style="display:none;">
	<g style="display:inline;">
		<path style="fill:#3D320C;" d="M83,76c-0.615-1.333-1.698-2.394-3.044-2.982l-9.815-2.637c8.075-9.637,13.396-21.417-0.192-35.231
			c-5-5.083-15-7.15-15-7.15s-10,2.067-15,7.15c-13.474,13.699-8.13,25.534-0.075,35.227l-9.832,2.641
			C28.698,73.606,27.615,74.667,27,76l-4,11h32h32L83,76z"/>
		<path style="fill:#FFF5D9;" d="M65.949,41.25c-3-3.05-6-2.033-11-2.033s-8-1.017-11,2.033c-4.838,4.919-2.616,16.559,1.98,26.13
			C49.961,71.557,55,73,55,73s4.874-1.396,8.872-5.415C68.534,57.976,70.822,46.204,65.949,41.25z"/>
		<path style="fill:#FFFFFF;" d="M43.949,41.25c-4.856,4.938-2.599,16.648,2.032,26.24c4.014,4.094,8.968,5.51,8.968,5.51V39.217
			C49.949,39.217,46.949,38.2,43.949,41.25z"/>
		<g>
			<polygon style="fill:#3D320C;" points="54.95,72 52.95,65 56.95,65 			"/>
		</g>
		<path style="fill:#3D320C;" d="M65,57l-3,2l-5-2h-1h-2h-1l-5,2l-3-2h-1l2.1,2.8c0.566,0.756,1.456,1.2,2.4,1.2H53l2-2.667L57,61
			h4.5c0.944,0,1.833-0.444,2.4-1.2L66,57H65z"/>
		<g>
			<path style="fill:#3D320C;" d="M53.95,51c-3-6-10,0-10,0H53.95z"/>
		</g>
		<g>
			<path style="fill:#3D320C;" d="M55.95,51c3-6,10,0,10,0H55.95z"/>
		</g>
		<g>
			<path style="fill:#3D320C;" d="M44.95,43c2-1,9,3.139,9,3.139S47.95,38,44.95,43z"/>
		</g>
		<g>
			<path style="fill:#3D320C;" d="M64.95,43c-2-1-9,3.139-9,3.139S61.95,38,64.95,43z"/>
		</g>
		<path style="fill:#FFE9A1;" d="M55,73c0,0-4.96-1.418-8.975-5.517c2.537,5.258,5.787,9.88,8.975,12.4
			c3.187-2.52,6.437-7.142,8.975-12.401C59.959,71.582,55,73,55,73z"/>
		<path style="fill:#FFF5D9;" d="M46.025,67.483c2.537,5.258,5.787,9.88,8.975,12.4V73C55,73,50.04,71.582,46.025,67.483z"/>
	</g>
</g>
<g id="R-Yellow" style="display:none;">
	<g style="display:inline;">
		<circle style="fill:#FFD75E;" cx="55" cy="55" r="55"/>
	</g>
	<g style="display:inline;">
		<path style="fill:#3D320C;" d="M83,76c-0.615-1.333-1.698-2.394-3.044-2.982l-9.815-2.637c8.075-9.637,13.396-21.417-0.192-35.231
			c-5-5.083-15-7.15-15-7.15s-10,2.067-15,7.15c-13.474,13.699-8.13,25.534-0.075,35.227l-9.832,2.641
			C28.698,73.606,27.615,74.667,27,76l-4,11h32h32L83,76z"/>
		<path style="fill:#FFF5D9;" d="M65.949,41.25c-3-3.05-6-2.033-11-2.033s-8-1.017-11,2.033c-4.838,4.919-2.616,16.559,1.98,26.13
			C49.961,71.557,55,73,55,73s4.874-1.396,8.872-5.415C68.534,57.976,70.822,46.204,65.949,41.25z"/>
		<path style="fill:#FFFFFF;" d="M43.949,41.25c-4.856,4.938-2.599,16.648,2.032,26.24c4.014,4.094,8.968,5.51,8.968,5.51V39.217
			C49.949,39.217,46.949,38.2,43.949,41.25z"/>
		<g>
			<polygon style="fill:#3D320C;" points="54.95,72 52.95,65 56.95,65 			"/>
		</g>
		<path style="fill:#3D320C;" d="M65,57l-3,2l-5-2h-1h-2h-1l-5,2l-3-2h-1l2.1,2.8c0.566,0.756,1.456,1.2,2.4,1.2H53l2-2.667L57,61
			h4.5c0.944,0,1.833-0.444,2.4-1.2L66,57H65z"/>
		<g>
			<path style="fill:#3D320C;" d="M53.95,51c-3-6-10,0-10,0H53.95z"/>
		</g>
		<g>
			<path style="fill:#3D320C;" d="M55.95,51c3-6,10,0,10,0H55.95z"/>
		</g>
		<g>
			<path style="fill:#3D320C;" d="M44.95,43c2-1,9,3.139,9,3.139S47.95,38,44.95,43z"/>
		</g>
		<g>
			<path style="fill:#3D320C;" d="M64.95,43c-2-1-9,3.139-9,3.139S61.95,38,64.95,43z"/>
		</g>
		<path style="fill:#FFE9A1;" d="M55,73c0,0-4.96-1.418-8.975-5.517c2.537,5.258,5.787,9.88,8.975,12.4
			c3.187-2.52,6.437-7.142,8.975-12.401C59.959,71.582,55,73,55,73z"/>
		<path style="fill:#FFF5D9;" d="M46.025,67.483c2.537,5.258,5.787,9.88,8.975,12.4V73C55,73,50.04,71.582,46.025,67.483z"/>
	</g>
</g>
</svg>
