<?xml version="1.0" encoding="iso-8859-1"?>
<!-- Generator: Adobe Illustrator 17.1.0, SVG Export Plug-In . SVG Version: 6.00 Build 0)  -->
<!DOCTYPE svg PUBLIC "-//W3C//DTD SVG 1.0//EN" "http://www.w3.org/TR/2001/REC-SVG-20010904/DTD/svg10.dtd">
<svg version="1.0" xmlns="http://www.w3.org/2000/svg" xmlns:xlink="http://www.w3.org/1999/xlink" x="0px" y="0px" width="110px"
	 height="110px" viewBox="0 0 110 110" style="enable-background:new 0 0 110 110;" xml:space="preserve">
<g id="Artboard" style="display:none;">
	
		<rect x="-424.5" y="-178.5" style="display:inline;fill:#808080;stroke:#000000;stroke-miterlimit:10;" width="1341" height="343"/>
</g>
<g id="R-Multicolor" style="display:none;">
	<circle style="display:inline;fill:#E04F5F;" cx="55" cy="55" r="55"/>
	<g style="display:inline;">
		<path style="fill:#F0F1F1;" d="M87,85c0,1.105-0.895,2-2,2H41c-1.105,0-2-0.895-2-2V41c0-1.105,0.895-2,2-2h44
			c1.105,0,2,0.895,2,2V85z"/>
		<rect x="43" y="43" style="fill:#40C9E7;" width="40" height="32"/>
		<path style="fill:#FFFFFF;" d="M71,69c0,1.105-0.895,2-2,2H25c-1.105,0-2-0.895-2-2V25c0-1.105,0.895-2,2-2h44
			c1.105,0,2,0.895,2,2V69z"/>
		<rect x="27" y="27" style="fill:#40C9E7;" width="40" height="32"/>
		<g>
			<polygon style="fill:#6FDAF1;" points="43.979,45.021 62,27 26.962,27 26.962,53.4 35.626,43.003 35.623,43 38.957,39 
				38.959,39.003 38.962,39 			"/>
		</g>
		<polygon style="fill:#84462D;" points="59,31 38,59 67,59 67,42.2 		"/>
		<polygon style="fill:#F0F1F1;" points="58.98,38.979 61.907,43.077 64.833,39.174 58.98,30.979 53.126,38.784 56.053,43.077 		"/>
		<polygon style="fill:#D4A263;" points="39,39 27,53.4 27,59 55.667,59 		"/>
		<path style="fill:#FFFFFF;" d="M49.005,33.037c0,1.105-0.896,2.001-2.001,2.001H34.996c-1.105,0-2.001-0.896-2.001-2.001
			c0-1.241,1.166-2.543,3.336-1.769c1.1-1.36,2.79-2.23,4.67-2.23s3.57,0.87,4.67,2.23C47.85,30.49,49.005,31.807,49.005,33.037z"/>
		<polygon style="fill:#EDBC7C;" points="44.017,45.021 30.038,59 27,59 27,53.4 35.664,43.003 38.995,47 42.328,43 		"/>
		<polygon style="fill:#FFFFFF;" points="38.995,47.038 42.328,43.038 38.995,39.038 35.661,43.038 		"/>
	</g>
</g>
<g id="Multicolor">
	<g>
		<path style="fill:#F0F1F1;" d="M87,85c0,1.105-0.895,2-2,2H41c-1.105,0-2-0.895-2-2V41c0-1.105,0.895-2,2-2h44
			c1.105,0,2,0.895,2,2V85z"/>
		<rect x="43" y="43" style="fill:#40C9E7;" width="40" height="32"/>
		<path style="fill:#FFFFFF;" d="M71,69c0,1.105-0.895,2-2,2H25c-1.105,0-2-0.895-2-2V25c0-1.105,0.895-2,2-2h44
			c1.105,0,2,0.895,2,2V69z"/>
		<rect x="27" y="27" style="fill:#40C9E7;" width="40" height="32"/>
		<g>
			<polygon style="fill:#6FDAF1;" points="43.979,45.021 62,27 26.962,27 26.962,53.4 35.626,43.003 35.623,43 38.957,39 
				38.959,39.003 38.962,39 			"/>
		</g>
		<polygon style="fill:#84462D;" points="59,31 38,59 67,59 67,42.2 		"/>
		<polygon style="fill:#F0F1F1;" points="58.98,38.979 61.907,43.077 64.833,39.174 58.98,30.979 53.126,38.784 56.053,43.077 		"/>
		<polygon style="fill:#D4A263;" points="39,39 27,53.4 27,59 55.667,59 		"/>
		<path style="fill:#FFFFFF;" d="M49.005,33.037c0,1.105-0.896,2.001-2.001,2.001H34.996c-1.105,0-2.001-0.896-2.001-2.001
			c0-1.241,1.166-2.543,3.336-1.769c1.1-1.36,2.79-2.23,4.67-2.23s3.57,0.87,4.67,2.23C47.85,30.49,49.005,31.807,49.005,33.037z"/>
		<polygon style="fill:#EDBC7C;" points="44.017,45.021 30.038,59 27,59 27,53.4 35.664,43.003 38.995,47 42.328,43 		"/>
		<polygon style="fill:#FFFFFF;" points="38.995,47.038 42.328,43.038 38.995,39.038 35.661,43.038 		"/>
	</g>
</g>
<g id="Blue" style="display:none;">
	<g style="display:inline;">
		<g>
			<path style="fill:#E1F5FA;" d="M87,85c0,1.104-0.896,2-2,2H41c-1.105,0-2-0.896-2-2V41c0-1.104,0.895-2,2-2h44
				c1.104,0,2,0.896,2,2V85z"/>
		</g>
		<g>
			<rect x="43" y="43" style="fill:#009FC7;" width="40" height="32"/>
		</g>
		<g>
			<path style="fill:#FFFFFF;" d="M71,69c0,1.104-0.896,2-2,2H25c-1.105,0-2-0.896-2-2V25c0-1.104,0.895-2,2-2h44
				c1.104,0,2,0.896,2,2V69z"/>
		</g>
		<g>
			<rect x="27" y="27" style="fill:#00B7E5;" width="40" height="32"/>
		</g>
		<g>
			<polygon style="fill:#0F6175;" points="59,31 38,59 67,59 67,42.2 			"/>
		</g>
		<g>
			<polygon style="fill:#FFFFFF;" points="58.98,38.979 61.907,43.077 64.833,39.175 58.98,30.979 53.126,38.784 56.053,43.077 			
				"/>
		</g>
		<g>
			<polygon style="fill:#33899E;" points="39,39 27,53.4 27,59 55.666,59 			"/>
		</g>
		<g>
			<path style="fill:#FFFFFF;" d="M49.005,33.037c0,1.105-0.896,2.002-2.001,2.002H34.996c-1.105,0-2.001-0.896-2.001-2.002
				c0-1.241,1.166-2.543,3.336-1.768c1.1-1.36,2.79-2.23,4.67-2.23c1.88,0,3.57,0.87,4.67,2.23
				C47.85,30.49,49.005,31.807,49.005,33.037z"/>
		</g>
		<g>
			<polygon style="fill:#FFFFFF;" points="38.995,47.038 42.328,43.038 38.995,39.038 35.661,43.038 			"/>
		</g>
	</g>
</g>
<g id="R-Blue" style="display:none;">
	<g style="display:inline;">
		<circle style="fill:#81D2EB;" cx="55" cy="55" r="55"/>
	</g>
	<g style="display:inline;">
		<g>
			<path style="fill:#E1F5FA;" d="M87,85c0,1.104-0.896,2-2,2H41c-1.104,0-2-0.896-2-2V41c0-1.104,0.896-2,2-2h44
				c1.104,0,2,0.896,2,2V85z"/>
		</g>
		<g>
			<rect x="43" y="43" style="fill:#009FC7;" width="40" height="32"/>
		</g>
		<g>
			<path style="fill:#FFFFFF;" d="M71,69c0,1.104-0.896,2-2,2H25c-1.104,0-2-0.896-2-2V25c0-1.104,0.896-2,2-2h44
				c1.104,0,2,0.896,2,2V69z"/>
		</g>
		<g>
			<rect x="27" y="27" style="fill:#00B7E5;" width="40" height="32"/>
		</g>
		<g>
			<polygon style="fill:#0F6175;" points="59,31 38,59 67,59 67,42.2 			"/>
		</g>
		<g>
			<polygon style="fill:#FFFFFF;" points="58.98,38.979 61.907,43.077 64.834,39.175 58.98,30.979 53.126,38.784 56.053,43.077 			
				"/>
		</g>
		<g>
			<polygon style="fill:#33899E;" points="39,39 27,53.4 27,59 55.667,59 			"/>
		</g>
		<g>
			<path style="fill:#FFFFFF;" d="M49.005,33.037c0,1.105-0.896,2.002-2.002,2.002H34.996c-1.106,0-2.002-0.896-2.002-2.002
				c0-1.241,1.166-2.543,3.336-1.768c1.1-1.36,2.79-2.23,4.67-2.23s3.57,0.87,4.67,2.23C47.85,30.49,49.005,31.807,49.005,33.037z"
				/>
		</g>
		<g>
			<polygon style="fill:#FFFFFF;" points="38.995,47.038 42.328,43.038 38.995,39.038 35.661,43.038 			"/>
		</g>
	</g>
</g>
<g id="Green" style="display:none;">
	<g style="display:inline;">
		<g>
			<path style="fill:#D7FCF9;" d="M87,85c0,1.104-0.896,2-2,2H41c-1.104,0-2-0.896-2-2V41c0-1.104,0.896-2,2-2h44
				c1.104,0,2,0.896,2,2V85z"/>
		</g>
		<g>
			<rect x="43" y="43" style="fill:#00B8A5;" width="40" height="32"/>
		</g>
		<g>
			<path style="fill:#FFFFFF;" d="M71,69c0,1.104-0.896,2-2,2H25c-1.104,0-2-0.896-2-2V25c0-1.104,0.896-2,2-2h44
				c1.104,0,2,0.896,2,2V69z"/>
		</g>
		<g>
			<rect x="27" y="27" style="fill:#00D6C1;" width="40" height="32"/>
		</g>
		<g>
			<polygon style="fill:#14635B;" points="59,31 38,59 67,59 67,42.2 			"/>
		</g>
		<g>
			<polygon style="fill:#FFFFFF;" points="58.98,38.979 61.907,43.077 64.834,39.175 58.98,30.979 53.126,38.784 56.053,43.077 			
				"/>
		</g>
		<g>
			<polygon style="fill:#3E948B;" points="39,39 27,53.4 27,59 55.667,59 			"/>
		</g>
		<g>
			<path style="fill:#FFFFFF;" d="M49.005,33.037c0,1.105-0.896,2.002-2.001,2.002H34.996c-1.106,0-2.002-0.896-2.002-2.002
				c0-1.241,1.166-2.543,3.336-1.768c1.1-1.36,2.79-2.23,4.67-2.23c1.88,0,3.57,0.87,4.67,2.23
				C47.85,30.49,49.005,31.807,49.005,33.037z"/>
		</g>
		<g>
			<polygon style="fill:#FFFFFF;" points="38.995,47.038 42.328,43.038 38.995,39.038 35.661,43.038 			"/>
		</g>
	</g>
</g>
<g id="R-Green" style="display:none;">
	<g style="display:inline;">
		<circle style="fill:#87E0C8;" cx="55" cy="55" r="55"/>
	</g>
	<g style="display:inline;">
		<g>
			<path style="fill:#D7FCF9;" d="M87,85c0,1.104-0.896,2-2,2H41c-1.104,0-2-0.896-2-2V41c0-1.104,0.896-2,2-2h44
				c1.104,0,2,0.896,2,2V85z"/>
		</g>
		<g>
			<rect x="43" y="43" style="fill:#00B8A5;" width="40" height="32"/>
		</g>
		<g>
			<path style="fill:#FFFFFF;" d="M71,69c0,1.104-0.896,2-2,2H25c-1.104,0-2-0.896-2-2V25c0-1.104,0.896-2,2-2h44
				c1.104,0,2,0.896,2,2V69z"/>
		</g>
		<g>
			<rect x="27" y="27" style="fill:#00D6C1;" width="40" height="32"/>
		</g>
		<g>
			<polygon style="fill:#14635B;" points="59,31 38,59 67,59 67,42.2 			"/>
		</g>
		<g>
			<polygon style="fill:#FFFFFF;" points="58.98,38.979 61.907,43.077 64.834,39.175 58.98,30.979 53.126,38.784 56.053,43.077 			
				"/>
		</g>
		<g>
			<polygon style="fill:#3E948B;" points="39,39 27,53.4 27,59 55.667,59 			"/>
		</g>
		<g>
			<path style="fill:#FFFFFF;" d="M49.005,33.037c0,1.105-0.896,2.002-2.002,2.002H34.996c-1.106,0-2.002-0.896-2.002-2.002
				c0-1.241,1.166-2.543,3.336-1.768c1.1-1.36,2.79-2.23,4.67-2.23c1.88,0,3.57,0.87,4.67,2.23
				C47.85,30.49,49.005,31.807,49.005,33.037z"/>
		</g>
		<g>
			<polygon style="fill:#FFFFFF;" points="38.995,47.038 42.328,43.038 38.995,39.038 35.661,43.038 			"/>
		</g>
	</g>
</g>
<g id="Red" style="display:none;">
	<g style="display:inline;">
		<g>
			<path style="fill:#FFEFED;" d="M87,85c0,1.104-0.896,2-2,2H41c-1.104,0-2-0.896-2-2V41c0-1.104,0.896-2,2-2h44
				c1.104,0,2,0.896,2,2V85z"/>
		</g>
		<g>
			<rect x="43" y="43" style="fill:#E54B44;" width="40" height="32"/>
		</g>
		<g>
			<path style="fill:#FFFFFF;" d="M71,69c0,1.104-0.896,2-2,2H25c-1.104,0-2-0.896-2-2V25c0-1.104,0.896-2,2-2h44
				c1.104,0,2,0.896,2,2V69z"/>
		</g>
		<g>
			<rect x="27" y="27" style="fill:#FF6C5E;" width="40" height="32"/>
		</g>
		<g>
			<polygon style="fill:#7D261E;" points="59,31 38,59 67,59 67,42.2 			"/>
		</g>
		<g>
			<polygon style="fill:#FFFFFF;" points="58.98,38.979 61.907,43.077 64.834,39.175 58.98,30.979 53.126,38.784 56.053,43.077 			
				"/>
		</g>
		<g>
			<polygon style="fill:#B84E44;" points="39,39 27,53.4 27,59 55.667,59 			"/>
		</g>
		<g>
			<path style="fill:#FFFFFF;" d="M49.005,33.037c0,1.105-0.896,2.002-2.001,2.002H34.996c-1.106,0-2.002-0.896-2.002-2.002
				c0-1.241,1.166-2.543,3.336-1.768c1.1-1.36,2.79-2.23,4.67-2.23c1.88,0,3.57,0.87,4.67,2.23
				C47.85,30.49,49.005,31.807,49.005,33.037z"/>
		</g>
		<g>
			<polygon style="fill:#FFFFFF;" points="38.995,47.038 42.328,43.038 38.995,39.038 35.661,43.038 			"/>
		</g>
	</g>
</g>
<g id="R-Red" style="display:none;">
	<g style="display:inline;">
		<circle style="fill:#FABBAF;" cx="55" cy="55" r="55"/>
	</g>
	<g style="display:inline;">
		<g>
			<path style="fill:#FFEFED;" d="M87,85c0,1.104-0.896,2-2,2H41c-1.104,0-2-0.896-2-2V41c0-1.104,0.896-2,2-2h44
				c1.104,0,2,0.896,2,2V85z"/>
		</g>
		<g>
			<rect x="43" y="43" style="fill:#E54B44;" width="40" height="32"/>
		</g>
		<g>
			<path style="fill:#FFFFFF;" d="M71,69c0,1.104-0.896,2-2,2H25c-1.104,0-2-0.896-2-2V25c0-1.104,0.896-2,2-2h44
				c1.104,0,2,0.896,2,2V69z"/>
		</g>
		<g>
			<rect x="27" y="27" style="fill:#FF6C5E;" width="40" height="32"/>
		</g>
		<g>
			<polygon style="fill:#7D261E;" points="59,31 38,59 67,59 67,42.2 			"/>
		</g>
		<g>
			<polygon style="fill:#FFFFFF;" points="58.98,38.979 61.907,43.077 64.834,39.175 58.98,30.979 53.126,38.784 56.053,43.077 			
				"/>
		</g>
		<g>
			<polygon style="fill:#B84E44;" points="39,39 27,53.4 27,59 55.667,59 			"/>
		</g>
		<g>
			<path style="fill:#FFFFFF;" d="M49.005,33.037c0,1.105-0.896,2.002-2.001,2.002H34.996c-1.106,0-2.002-0.896-2.002-2.002
				c0-1.241,1.166-2.543,3.336-1.768c1.1-1.36,2.79-2.23,4.67-2.23c1.88,0,3.57,0.87,4.67,2.23
				C47.85,30.49,49.005,31.807,49.005,33.037z"/>
		</g>
		<g>
			<polygon style="fill:#FFFFFF;" points="38.995,47.038 42.328,43.038 38.995,39.038 35.661,43.038 			"/>
		</g>
	</g>
</g>
<g id="Yellow" style="display:none;">
	<g style="display:inline;">
		<g>
			<path style="fill:#FFF5D9;" d="M87,85c0,1.104-0.896,2-2,2H41c-1.104,0-2-0.896-2-2V41c0-1.104,0.896-2,2-2h44
				c1.104,0,2,0.896,2,2V85z"/>
		</g>
		<g>
			<rect x="43" y="43" style="fill:#FA9200;" width="40" height="32"/>
		</g>
		<g>
			<path style="fill:#FFFFFF;" d="M71,69c0,1.104-0.896,2-2,2H25c-1.104,0-2-0.896-2-2V25c0-1.104,0.896-2,2-2h44
				c1.104,0,2,0.896,2,2V69z"/>
		</g>
		<g>
			<rect x="27" y="27" style="fill:#FFAA00;" width="40" height="32"/>
		</g>
		<g>
			<polygon style="fill:#66510D;" points="59,31 38,59 67,59 67,42.2 			"/>
		</g>
		<g>
			<polygon style="fill:#FFFFFF;" points="58.98,38.979 61.907,43.077 64.834,39.175 58.98,30.979 53.126,38.784 56.053,43.077 			
				"/>
		</g>
		<g>
			<polygon style="fill:#947615;" points="39,39 27,53.4 27,59 55.667,59 			"/>
		</g>
		<g>
			<path style="fill:#FFFFFF;" d="M49.005,33.037c0,1.105-0.896,2.002-2.001,2.002H34.996c-1.106,0-2.002-0.896-2.002-2.002
				c0-1.241,1.166-2.543,3.336-1.768c1.1-1.36,2.79-2.23,4.67-2.23c1.88,0,3.57,0.87,4.67,2.23
				C47.85,30.49,49.005,31.807,49.005,33.037z"/>
		</g>
		<g>
			<polygon style="fill:#FFFFFF;" points="38.995,47.038 42.328,43.038 38.995,39.038 35.661,43.038 			"/>
		</g>
	</g>
</g>
<g id="R-Yellow" style="display:none;">
	<g style="display:inline;">
		<circle style="fill:#FFD75E;" cx="55" cy="55" r="55"/>
	</g>
	<g style="display:inline;">
		<g>
			<path style="fill:#FFF5D9;" d="M87,85c0,1.104-0.896,2-2,2H41c-1.104,0-2-0.896-2-2V41c0-1.104,0.896-2,2-2h44
				c1.104,0,2,0.896,2,2V85z"/>
		</g>
		<g>
			<rect x="43" y="43" style="fill:#FA9200;" width="40" height="32"/>
		</g>
		<g>
			<path style="fill:#FFFFFF;" d="M71,69c0,1.104-0.896,2-2,2H25c-1.104,0-2-0.896-2-2V25c0-1.104,0.896-2,2-2h44
				c1.104,0,2,0.896,2,2V69z"/>
		</g>
		<g>
			<rect x="27" y="27" style="fill:#FFAA00;" width="40" height="32"/>
		</g>
		<g>
			<polygon style="fill:#66510D;" points="59,31 38,59 67,59 67,42.2 			"/>
		</g>
		<g>
			<polygon style="fill:#FFFFFF;" points="58.98,38.979 61.907,43.077 64.834,39.175 58.98,30.979 53.126,38.784 56.053,43.077 			
				"/>
		</g>
		<g>
			<polygon style="fill:#947615;" points="39,39 27,53.4 27,59 55.667,59 			"/>
		</g>
		<g>
			<path style="fill:#FFFFFF;" d="M49.005,33.037c0,1.105-0.896,2.002-2.001,2.002H34.996c-1.106,0-2.002-0.896-2.002-2.002
				c0-1.241,1.166-2.543,3.336-1.768c1.1-1.36,2.79-2.23,4.67-2.23c1.88,0,3.57,0.87,4.67,2.23
				C47.85,30.49,49.005,31.807,49.005,33.037z"/>
		</g>
		<g>
			<polygon style="fill:#FFFFFF;" points="38.995,47.038 42.328,43.038 38.995,39.038 35.661,43.038 			"/>
		</g>
	</g>
</g>
</svg>
