<?xml version="1.0" encoding="iso-8859-1"?>
<!-- Generator: Adobe Illustrator 17.1.0, SVG Export Plug-In . SVG Version: 6.00 Build 0)  -->
<!DOCTYPE svg PUBLIC "-//W3C//DTD SVG 1.0//EN" "http://www.w3.org/TR/2001/REC-SVG-20010904/DTD/svg10.dtd">
<svg version="1.0" xmlns="http://www.w3.org/2000/svg" xmlns:xlink="http://www.w3.org/1999/xlink" x="0px" y="0px" width="110px"
	 height="110px" viewBox="0 0 110 110" style="enable-background:new 0 0 110 110;" xml:space="preserve">
<g id="Artboard" style="display:none;">
	<rect x="-320.5" y="-42.5" style="display:inline;fill:#808080;stroke:#000000;stroke-miterlimit:10;" width="1413" height="737"/>
</g>
<g id="R-Multicolor" style="display:none;">
	<circle style="display:inline;fill:#FABC3D;" cx="55" cy="55" r="55"/>
	<g style="display:inline;">
		<path style="fill:#F0F1F1;" d="M79,55c0-2.209-1.791-4-4-4H35c-2.209,0-4,1.791-4,4v26h48V55z"/>
		<path style="fill:#FFFFFF;" d="M55.021,42.194c-0.007,0-0.014,0.002-0.021,0.002s-0.013-0.002-0.021-0.002
			c-1.568,0-2.84,1.271-2.84,2.84s1.272,2.84,2.84,2.84c0.007,0,0.014-0.002,0.021-0.002s0.013,0.002,0.021,0.002
			c1.568,0,2.84-1.271,2.84-2.84S56.589,42.194,55.021,42.194z"/>
		<path style="fill:#FFFFFF;" d="M55.021,34.121c-0.007,0-0.014,0.001-0.021,0.001s-0.014-0.001-0.021-0.001
			c-4.62,0-8.81,2.537-11.035,6.32l2.457,1.434c1.489-2.723,4.839-4.914,8.578-4.914c0.007,0,0.014,0.001,0.021,0.001
			s0.013-0.001,0.021-0.001c3.739,0,7.089,2.191,8.578,4.914l2.457-1.434C63.83,36.658,59.641,34.121,55.021,34.121z"/>
		<path style="fill:#FFFFFF;" d="M55.021,24.875c-0.007,0-0.014,0-0.021,0s-0.014,0-0.021,0c-7.26,0-14.248,3.129-19.229,9.529
			l2.258,1.733c3.869-5.161,10.052-8.422,16.972-8.422c0.007,0,0.014,0,0.021,0s0.014,0,0.021,0c6.911,0,13.098,3.255,16.972,8.422
			l2.258-1.733C69.308,28.055,62.347,24.875,55.021,24.875z"/>
		<path style="fill:#FFFFFF;" d="M23,81v2c2.561,2.561,6.035,4,9.657,4h44.687c3.622,0,7.096-1.439,9.657-4v-2H23z"/>
		<rect x="35" y="55" style="fill:#3E3E3F;" width="40" height="26"/>
		<polygon style="fill:#5B5C5F;" points="35,80.92 60.92,55 35,55 		"/>
		<rect x="50" y="81" style="fill:#E2E4E5;" width="10" height="2"/>
	</g>
</g>
<g id="Multicolor">
	<g>
		<path style="fill:#F0F1F1;" d="M79,55c0-2.209-1.791-4-4-4H35c-2.209,0-4,1.791-4,4v26h48V55z"/>
		<path style="fill:#FFFFFF;" d="M55.021,42.194c-0.007,0-0.014,0.002-0.021,0.002s-0.013-0.002-0.021-0.002
			c-1.568,0-2.84,1.271-2.84,2.84s1.272,2.84,2.84,2.84c0.007,0,0.014-0.002,0.021-0.002s0.013,0.002,0.021,0.002
			c1.568,0,2.84-1.271,2.84-2.84S56.589,42.194,55.021,42.194z"/>
		<path style="fill:#FFFFFF;" d="M55.021,34.121c-0.007,0-0.014,0.001-0.021,0.001s-0.014-0.001-0.021-0.001
			c-4.62,0-8.81,2.537-11.035,6.32l2.457,1.434c1.489-2.723,4.839-4.914,8.578-4.914c0.007,0,0.014,0.001,0.021,0.001
			s0.013-0.001,0.021-0.001c3.739,0,7.089,2.191,8.578,4.914l2.457-1.434C63.83,36.658,59.641,34.121,55.021,34.121z"/>
		<path style="fill:#FFFFFF;" d="M55.021,24.875c-0.007,0-0.014,0-0.021,0s-0.014,0-0.021,0c-7.26,0-14.248,3.129-19.229,9.529
			l2.258,1.733c3.869-5.161,10.052-8.422,16.972-8.422c0.007,0,0.014,0,0.021,0s0.014,0,0.021,0c6.911,0,13.098,3.255,16.972,8.422
			l2.258-1.733C69.308,28.055,62.347,24.875,55.021,24.875z"/>
		<path style="fill:#FFFFFF;" d="M23,81v2c2.561,2.561,6.035,4,9.657,4h44.687c3.622,0,7.096-1.439,9.657-4v-2H23z"/>
		<rect x="35" y="55" style="fill:#3E3E3F;" width="40" height="26"/>
		<polygon style="fill:#5B5C5F;" points="35,80.92 60.92,55 35,55 		"/>
		<rect x="50" y="81" style="fill:#E2E4E5;" width="10" height="2"/>
	</g>
</g>
<g id="Blue" style="display:none;">
	<g style="display:inline;">
		<g>
			<path style="fill:#E1F5FA;" d="M79,55c0-2.209-1.791-4-4-4H35c-2.209,0-4,1.791-4,4v26h48V55z"/>
		</g>
		<g>
			<path style="fill:#FFFFFF;" d="M55.02,42.194c-0.007,0-0.014,0.002-0.021,0.002c-0.007,0-0.013-0.002-0.021-0.002
				c-1.568,0-2.84,1.272-2.84,2.841c0,1.568,1.272,2.84,2.84,2.84c0.007,0,0.014-0.002,0.021-0.002c0.007,0,0.013,0.002,0.021,0.002
				c1.568,0,2.84-1.271,2.84-2.84C57.861,43.466,56.589,42.194,55.02,42.194z"/>
		</g>
		<g>
			<path style="fill:#FFFFFF;" d="M55.02,34.121c-0.007,0-0.014,0.001-0.021,0.001c-0.007,0-0.014-0.001-0.021-0.001
				c-4.62,0-8.81,2.537-11.035,6.32l2.457,1.434c1.489-2.723,4.839-4.914,8.578-4.914c0.007,0,0.014,0.001,0.021,0.001
				c0.007,0,0.013-0.001,0.021-0.001c3.739,0,7.089,2.191,8.578,4.914l2.457-1.434C63.83,36.658,59.641,34.121,55.02,34.121z"/>
		</g>
		<g>
			<path style="fill:#FFFFFF;" d="M55.02,24.875c-0.007,0-0.014,0.001-0.021,0.001c-0.007,0-0.014-0.001-0.021-0.001
				c-7.26,0-14.248,3.129-19.229,9.529l2.258,1.733c3.869-5.161,10.052-8.422,16.972-8.422c0.007,0,0.014,0,0.021,0
				c0.007,0,0.014,0,0.021,0c6.911,0,13.098,3.255,16.972,8.422l2.258-1.733C69.309,28.056,62.347,24.875,55.02,24.875z"/>
		</g>
		<g>
			<path style="fill:#FFFFFF;" d="M23,81v2c2.561,2.561,6.035,4,9.657,4h44.687c3.622,0,7.096-1.439,9.657-4v-2H23z"/>
		</g>
		<g>
			<rect x="35" y="55" style="fill:#0C333D;" width="40" height="26"/>
		</g>
		<g>
			<polygon style="fill:#0F6175;" points="35,80.92 60.92,55 35,55 			"/>
		</g>
		<g>
			<rect x="50" y="81" style="fill:#E1F5FA;" width="10" height="2"/>
		</g>
	</g>
</g>
<g id="R-Blue" style="display:none;">
	<g style="display:inline;">
		<circle style="fill:#81D2EB;" cx="55" cy="55" r="55"/>
	</g>
	<g style="display:inline;">
		<g>
			<path style="fill:#E1F5FA;" d="M79,55c0-2.209-1.791-4-4-4H35c-2.209,0-4,1.791-4,4v26h48V55z"/>
		</g>
		<g>
			<path style="fill:#FFFFFF;" d="M55.02,42.194c-0.007,0-0.014,0.002-0.021,0.002c-0.007,0-0.013-0.002-0.021-0.002
				c-1.568,0-2.84,1.272-2.84,2.841c0,1.568,1.272,2.84,2.84,2.84c0.007,0,0.014-0.002,0.021-0.002c0.007,0,0.013,0.002,0.021,0.002
				c1.568,0,2.84-1.271,2.84-2.84C57.861,43.466,56.589,42.194,55.02,42.194z"/>
		</g>
		<g>
			<path style="fill:#FFFFFF;" d="M55.02,34.121c-0.007,0-0.014,0.001-0.021,0.001c-0.007,0-0.014-0.001-0.021-0.001
				c-4.62,0-8.81,2.537-11.035,6.32l2.457,1.434c1.489-2.723,4.839-4.914,8.578-4.914c0.007,0,0.014,0.001,0.021,0.001
				c0.007,0,0.013-0.001,0.021-0.001c3.739,0,7.089,2.191,8.578,4.914l2.457-1.434C63.83,36.658,59.641,34.121,55.02,34.121z"/>
		</g>
		<g>
			<path style="fill:#FFFFFF;" d="M55.02,24.875c-0.007,0-0.014,0.001-0.021,0.001c-0.007,0-0.014-0.001-0.021-0.001
				c-7.26,0-14.248,3.129-19.229,9.529l2.258,1.733c3.869-5.161,10.052-8.422,16.972-8.422c0.007,0,0.014,0,0.021,0
				c0.007,0,0.014,0,0.021,0c6.911,0,13.098,3.255,16.972,8.422l2.258-1.733C69.309,28.056,62.347,24.875,55.02,24.875z"/>
		</g>
		<g>
			<path style="fill:#FFFFFF;" d="M23,81v2c2.561,2.561,6.035,4,9.657,4h44.687c3.622,0,7.096-1.439,9.657-4v-2H23z"/>
		</g>
		<g>
			<rect x="35" y="55" style="fill:#0C333D;" width="40" height="26"/>
		</g>
		<g>
			<polygon style="fill:#0F6175;" points="35,80.92 60.92,55 35,55 			"/>
		</g>
		<g>
			<rect x="50" y="81" style="fill:#E1F5FA;" width="10" height="2"/>
		</g>
	</g>
</g>
<g id="Green" style="display:none;">
	<g style="display:inline;">
		<g>
			<path style="fill:#D7FCF9;" d="M79,55c0-2.209-1.791-4-4-4H35c-2.209,0-4,1.791-4,4v26h48V55z"/>
		</g>
		<g>
			<path style="fill:#FFFFFF;" d="M55.02,42.194c-0.007,0-0.014,0.002-0.021,0.002c-0.007,0-0.013-0.002-0.021-0.002
				c-1.568,0-2.84,1.272-2.84,2.841c0,1.568,1.272,2.84,2.84,2.84c0.007,0,0.014-0.002,0.021-0.002c0.007,0,0.013,0.002,0.021,0.002
				c1.568,0,2.84-1.271,2.84-2.84C57.861,43.466,56.589,42.194,55.02,42.194z"/>
		</g>
		<g>
			<path style="fill:#FFFFFF;" d="M55.02,34.121c-0.007,0-0.014,0.001-0.021,0.001c-0.007,0-0.014-0.001-0.021-0.001
				c-4.62,0-8.81,2.537-11.035,6.32l2.457,1.434c1.489-2.723,4.839-4.914,8.578-4.914c0.007,0,0.014,0.001,0.021,0.001
				c0.007,0,0.013-0.001,0.021-0.001c3.739,0,7.089,2.191,8.578,4.914l2.457-1.434C63.83,36.658,59.641,34.121,55.02,34.121z"/>
		</g>
		<g>
			<path style="fill:#FFFFFF;" d="M55.02,24.875c-0.007,0-0.014,0.001-0.021,0.001c-0.007,0-0.014-0.001-0.021-0.001
				c-7.26,0-14.248,3.129-19.229,9.529l2.258,1.733c3.869-5.161,10.052-8.422,16.972-8.422c0.007,0,0.014,0,0.021,0
				c0.007,0,0.014,0,0.021,0c6.911,0,13.098,3.255,16.972,8.422l2.258-1.733C69.309,28.056,62.347,24.875,55.02,24.875z"/>
		</g>
		<g>
			<path style="fill:#FFFFFF;" d="M23,81v2c2.561,2.561,6.035,4,9.657,4h44.687c3.622,0,7.096-1.439,9.657-4v-2H23z"/>
		</g>
		<g>
			<rect x="35" y="55" style="fill:#0A3631;" width="40" height="26"/>
		</g>
		<g>
			<polygon style="fill:#14635B;" points="35,80.92 60.92,55 35,55 			"/>
		</g>
		<g>
			<rect x="50" y="81" style="fill:#D7FCF9;" width="10" height="2"/>
		</g>
	</g>
</g>
<g id="R-Green" style="display:none;">
	<g style="display:inline;">
		<circle style="fill:#87E0C8;" cx="55" cy="55" r="55"/>
	</g>
	<g style="display:inline;">
		<g>
			<path style="fill:#D7FCF9;" d="M79,55c0-2.209-1.791-4-4-4H35c-2.209,0-4,1.791-4,4v26h48V55z"/>
		</g>
		<g>
			<path style="fill:#FFFFFF;" d="M55.021,42.194c-0.007,0-0.014,0.002-0.021,0.002c-0.007,0-0.013-0.002-0.021-0.002
				c-1.568,0-2.84,1.272-2.84,2.841c0,1.568,1.272,2.84,2.84,2.84c0.007,0,0.014-0.002,0.021-0.002c0.007,0,0.013,0.002,0.021,0.002
				c1.568,0,2.84-1.271,2.84-2.84C57.861,43.466,56.589,42.194,55.021,42.194z"/>
		</g>
		<g>
			<path style="fill:#FFFFFF;" d="M55.021,34.121c-0.007,0-0.014,0.001-0.021,0.001c-0.007,0-0.014-0.001-0.021-0.001
				c-4.62,0-8.81,2.537-11.035,6.32l2.457,1.434c1.489-2.723,4.839-4.914,8.578-4.914c0.007,0,0.014,0.001,0.021,0.001
				c0.007,0,0.013-0.001,0.021-0.001c3.739,0,7.089,2.191,8.578,4.914l2.457-1.434C63.83,36.658,59.641,34.121,55.021,34.121z"/>
		</g>
		<g>
			<path style="fill:#FFFFFF;" d="M55.021,24.875c-0.007,0-0.014,0.001-0.021,0.001c-0.007,0-0.014-0.001-0.021-0.001
				c-7.26,0-14.248,3.129-19.229,9.529l2.258,1.733c3.869-5.161,10.052-8.422,16.972-8.422c0.007,0,0.014,0,0.021,0
				c0.007,0,0.014,0,0.021,0c6.911,0,13.098,3.255,16.972,8.422l2.258-1.733C69.309,28.056,62.347,24.875,55.021,24.875z"/>
		</g>
		<g>
			<path style="fill:#FFFFFF;" d="M23,81v2c2.561,2.561,6.035,4,9.657,4h44.687c3.622,0,7.096-1.439,9.657-4v-2H23z"/>
		</g>
		<g>
			<rect x="35" y="55" style="fill:#0A3631;" width="40" height="26"/>
		</g>
		<g>
			<polygon style="fill:#14635B;" points="35,80.92 60.92,55 35,55 			"/>
		</g>
		<g>
			<rect x="50" y="81" style="fill:#D7FCF9;" width="10" height="2"/>
		</g>
	</g>
</g>
<g id="Red" style="display:none;">
	<g style="display:inline;">
		<g>
			<path style="fill:#FFEFED;" d="M79,55c0-2.209-1.791-4-4-4H35c-2.209,0-4,1.791-4,4v26h48V55z"/>
		</g>
		<g>
			<path style="fill:#FFFFFF;" d="M55.021,42.194c-0.007,0-0.014,0.002-0.021,0.002c-0.007,0-0.013-0.002-0.021-0.002
				c-1.568,0-2.84,1.272-2.84,2.841c0,1.568,1.272,2.84,2.84,2.84c0.007,0,0.014-0.002,0.021-0.002c0.007,0,0.013,0.002,0.021,0.002
				c1.568,0,2.84-1.271,2.84-2.84C57.861,43.466,56.589,42.194,55.021,42.194z"/>
		</g>
		<g>
			<path style="fill:#FFFFFF;" d="M55.021,34.121c-0.007,0-0.014,0.001-0.021,0.001c-0.007,0-0.014-0.001-0.021-0.001
				c-4.62,0-8.81,2.537-11.035,6.32l2.457,1.434c1.489-2.723,4.839-4.914,8.578-4.914c0.007,0,0.014,0.001,0.021,0.001
				c0.007,0,0.013-0.001,0.021-0.001c3.739,0,7.089,2.191,8.578,4.914l2.457-1.434C63.83,36.658,59.641,34.121,55.021,34.121z"/>
		</g>
		<g>
			<path style="fill:#FFFFFF;" d="M55.021,24.875c-0.007,0-0.014,0.001-0.021,0.001c-0.007,0-0.014-0.001-0.021-0.001
				c-7.26,0-14.248,3.129-19.229,9.529l2.258,1.733c3.869-5.161,10.052-8.422,16.972-8.422c0.007,0,0.014,0,0.021,0
				c0.007,0,0.014,0,0.021,0c6.911,0,13.098,3.255,16.972,8.422l2.258-1.733C69.309,28.056,62.347,24.875,55.021,24.875z"/>
		</g>
		<g>
			<path style="fill:#FFFFFF;" d="M23,81v2c2.561,2.561,6.035,4,9.657,4h44.687c3.622,0,7.096-1.439,9.657-4v-2H23z"/>
		</g>
		<g>
			<rect x="35" y="55" style="fill:#4A1410;" width="40" height="26"/>
		</g>
		<g>
			<polygon style="fill:#7D261E;" points="35,80.92 60.92,55 35,55 			"/>
		</g>
		<g>
			<rect x="50" y="81" style="fill:#FFEFED;" width="10" height="2"/>
		</g>
	</g>
</g>
<g id="R-Red" style="display:none;">
	<g style="display:inline;">
		<circle style="fill:#FABBAF;" cx="55" cy="55" r="55"/>
	</g>
	<g style="display:inline;">
		<g>
			<path style="fill:#FFEFED;" d="M79,55c0-2.209-1.791-4-4-4H35c-2.209,0-4,1.791-4,4v26h48V55z"/>
		</g>
		<g>
			<path style="fill:#FFFFFF;" d="M55.021,42.194c-0.007,0-0.014,0.002-0.021,0.002s-0.013-0.002-0.021-0.002
				c-1.568,0-2.84,1.272-2.84,2.841c0,1.568,1.272,2.84,2.84,2.84c0.007,0,0.014-0.002,0.021-0.002s0.013,0.002,0.021,0.002
				c1.568,0,2.84-1.271,2.84-2.84C57.861,43.466,56.589,42.194,55.021,42.194z"/>
		</g>
		<g>
			<path style="fill:#FFFFFF;" d="M55.021,34.121c-0.007,0-0.014,0.001-0.021,0.001s-0.014-0.001-0.021-0.001
				c-4.62,0-8.81,2.537-11.035,6.32l2.457,1.434c1.489-2.723,4.839-4.914,8.578-4.914c0.007,0,0.014,0.001,0.021,0.001
				s0.013-0.001,0.021-0.001c3.739,0,7.089,2.191,8.578,4.914l2.457-1.434C63.83,36.658,59.641,34.121,55.021,34.121z"/>
		</g>
		<g>
			<path style="fill:#FFFFFF;" d="M55.021,24.875c-0.007,0-0.014,0.001-0.021,0.001s-0.014-0.001-0.021-0.001
				c-7.26,0-14.248,3.129-19.229,9.529l2.258,1.733c3.869-5.161,10.052-8.422,16.972-8.422c0.007,0,0.014,0,0.021,0s0.014,0,0.021,0
				c6.911,0,13.098,3.255,16.972,8.422l2.258-1.733C69.309,28.056,62.347,24.875,55.021,24.875z"/>
		</g>
		<g>
			<path style="fill:#FFFFFF;" d="M23,81v2c2.561,2.561,6.035,4,9.657,4h44.687c3.622,0,7.096-1.439,9.657-4v-2H23z"/>
		</g>
		<g>
			<rect x="35" y="55" style="fill:#4A1410;" width="40" height="26"/>
		</g>
		<g>
			<polygon style="fill:#7D261E;" points="35,80.92 60.92,55 35,55 			"/>
		</g>
		<g>
			<rect x="50" y="81" style="fill:#FFEFED;" width="10" height="2"/>
		</g>
	</g>
</g>
<g id="Yellow" style="display:none;">
	<g style="display:inline;">
		<g>
			<path style="fill:#FFF5D9;" d="M79,55c0-2.209-1.791-4-4-4H35c-2.209,0-4,1.791-4,4v26h48V55z"/>
		</g>
		<g>
			<path style="fill:#FFFFFF;" d="M55.021,42.194c-0.007,0-0.014,0.002-0.021,0.002s-0.013-0.002-0.021-0.002
				c-1.568,0-2.84,1.272-2.84,2.841c0,1.568,1.272,2.84,2.84,2.84c0.007,0,0.014-0.002,0.021-0.002s0.013,0.002,0.021,0.002
				c1.568,0,2.84-1.271,2.84-2.84C57.861,43.466,56.589,42.194,55.021,42.194z"/>
		</g>
		<g>
			<path style="fill:#FFFFFF;" d="M55.021,34.121c-0.007,0-0.014,0.001-0.021,0.001s-0.014-0.001-0.021-0.001
				c-4.62,0-8.81,2.537-11.035,6.32l2.457,1.434c1.489-2.723,4.839-4.914,8.578-4.914c0.007,0,0.014,0.001,0.021,0.001
				s0.013-0.001,0.021-0.001c3.739,0,7.089,2.191,8.578,4.914l2.457-1.434C63.83,36.658,59.641,34.121,55.021,34.121z"/>
		</g>
		<g>
			<path style="fill:#FFFFFF;" d="M55.021,24.875c-0.007,0-0.014,0.001-0.021,0.001s-0.014-0.001-0.021-0.001
				c-7.26,0-14.248,3.129-19.229,9.529l2.258,1.733c3.869-5.161,10.052-8.422,16.972-8.422c0.007,0,0.014,0,0.021,0s0.014,0,0.021,0
				c6.911,0,13.098,3.255,16.972,8.422l2.258-1.733C69.309,28.056,62.347,24.875,55.021,24.875z"/>
		</g>
		<g>
			<path style="fill:#FFFFFF;" d="M23,81v2c2.561,2.561,6.035,4,9.657,4h44.687c3.622,0,7.096-1.439,9.657-4v-2H23z"/>
		</g>
		<g>
			<rect x="35" y="55" style="fill:#3D320C;" width="40" height="26"/>
		</g>
		<g>
			<polygon style="fill:#66510D;" points="35,80.92 60.92,55 35,55 			"/>
		</g>
		<g>
			<rect x="50" y="81" style="fill:#FFF5D9;" width="10" height="2"/>
		</g>
	</g>
</g>
<g id="R-Yellow" style="display:none;">
	<g style="display:inline;">
		<circle style="fill:#FFD75E;" cx="55" cy="55" r="55"/>
	</g>
	<g style="display:inline;">
		<g>
			<path style="fill:#FFF5D9;" d="M79,55c0-2.209-1.791-4-4-4H35c-2.209,0-4,1.791-4,4v26h48V55z"/>
		</g>
		<g>
			<path style="fill:#FFFFFF;" d="M55.021,42.194c-0.007,0-0.014,0.002-0.021,0.002c-0.007,0-0.013-0.002-0.021-0.002
				c-1.568,0-2.84,1.272-2.84,2.841c0,1.568,1.272,2.84,2.84,2.84c0.007,0,0.014-0.002,0.021-0.002c0.007,0,0.013,0.002,0.021,0.002
				c1.568,0,2.84-1.271,2.84-2.84C57.861,43.466,56.589,42.194,55.021,42.194z"/>
		</g>
		<g>
			<path style="fill:#FFFFFF;" d="M55.021,34.121c-0.007,0-0.014,0.001-0.021,0.001c-0.007,0-0.014-0.001-0.021-0.001
				c-4.62,0-8.81,2.537-11.035,6.32l2.457,1.434c1.489-2.723,4.839-4.914,8.578-4.914c0.007,0,0.014,0.001,0.021,0.001
				c0.007,0,0.013-0.001,0.021-0.001c3.739,0,7.089,2.191,8.578,4.914l2.457-1.434C63.83,36.658,59.641,34.121,55.021,34.121z"/>
		</g>
		<g>
			<path style="fill:#FFFFFF;" d="M55.021,24.875c-0.007,0-0.014,0.001-0.021,0.001c-0.007,0-0.014-0.001-0.021-0.001
				c-7.26,0-14.248,3.129-19.229,9.529l2.258,1.733c3.869-5.161,10.052-8.422,16.972-8.422c0.007,0,0.014,0,0.021,0
				c0.007,0,0.014,0,0.021,0c6.911,0,13.098,3.255,16.972,8.422l2.258-1.733C69.309,28.056,62.347,24.875,55.021,24.875z"/>
		</g>
		<g>
			<path style="fill:#FFFFFF;" d="M23,81v2c2.561,2.561,6.035,4,9.657,4h44.687c3.622,0,7.096-1.439,9.657-4v-2H23z"/>
		</g>
		<g>
			<rect x="35" y="55" style="fill:#3D320C;" width="40" height="26"/>
		</g>
		<g>
			<polygon style="fill:#66510D;" points="35,80.92 60.92,55 35,55 			"/>
		</g>
		<g>
			<rect x="50" y="81" style="fill:#FFF5D9;" width="10" height="2"/>
		</g>
	</g>
</g>
</svg>
