<?xml version="1.0" encoding="iso-8859-1"?>
<!-- Generator: Adobe Illustrator 17.1.0, SVG Export Plug-In . SVG Version: 6.00 Build 0)  -->
<!DOCTYPE svg PUBLIC "-//W3C//DTD SVG 1.0//EN" "http://www.w3.org/TR/2001/REC-SVG-20010904/DTD/svg10.dtd">
<svg version="1.0" xmlns="http://www.w3.org/2000/svg" xmlns:xlink="http://www.w3.org/1999/xlink" x="0px" y="0px" width="110px"
	 height="110px" viewBox="0 0 110 110" style="enable-background:new 0 0 110 110;" xml:space="preserve">
<g id="Artboard" style="display:none;">
	<rect x="-1225" y="-83" style="display:inline;fill:#848484;" width="1422" height="538"/>
</g>
<g id="R-Multicolor" style="display:none;">
	<circle style="display:inline;fill:#32BEA6;" cx="55" cy="54.848" r="55"/>
	<g style="display:inline;">
		<path style="fill:#F0F1F1;" d="M87,51.848c0-5.885-3.635-10.913-8.778-12.983C74.146,28.898,67.562,24.848,59.5,24.848
			c-7.579,0-14.148,4.319-17.369,10.637c-0.962-0.41-2.02-0.637-3.131-0.637c-4.314,0-7.821,3.417-7.984,7.692
			C26.35,44.185,23,48.62,23,53.848c0,6.627,5.373,12,12,12h40C75,65.848,87,63.622,87,51.848z"/>
		<path style="fill:#FFFFFF;" d="M59.5,24.848c-7.579,0-14.148,4.319-17.369,10.637c-5.125-2.183-10.902,1.442-11.116,7.055
			C26.35,44.185,23,48.62,23,53.848c0,6.293,4.847,11.446,11.011,11.95l37.095-37.096C67.775,26.044,63.856,24.848,59.5,24.848z"/>
		<path style="fill:#FACB1B;" d="M38.5,83.181c0,2.025,1.642,3.667,3.667,3.667h25.667c2.025,0,3.667-1.642,3.667-3.667V64.848
			c0-2.025-1.642-3.667-3.667-3.667H42.167c-2.025,0-3.667,1.642-3.667,3.667V83.181z"/>
		<g>
			<path style="fill:#818284;" d="M66.917,61.181h-5.5v-6.417c0-3.538-2.878-6.417-6.417-6.417s-6.417,2.878-6.417,6.417v6.417h-5.5
				v-6.417c0-6.571,5.346-11.917,11.917-11.917s11.917,5.346,11.917,11.917V61.181z"/>
		</g>
		<path style="fill:#692E19;" d="M57.509,69.769c0-1.705-1.383-3.088-3.088-3.088s-3.088,1.383-3.088,3.088
			c0,1.187,0.678,2.206,1.661,2.723l-1.661,8.856h6.175l-1.661-8.856C56.831,71.975,57.509,70.956,57.509,69.769z"/>
	</g>
</g>
<g id="Multicolor">
	<g>
		<path style="fill:#F0F1F1;" d="M87,51.848c0-5.885-3.635-10.913-8.778-12.983C74.146,28.898,67.562,24.848,59.5,24.848
			c-7.579,0-14.148,4.319-17.369,10.637c-0.962-0.41-2.02-0.637-3.131-0.637c-4.314,0-7.821,3.417-7.984,7.692
			C26.35,44.185,23,48.62,23,53.848c0,6.627,5.373,12,12,12h40C75,65.848,87,63.622,87,51.848z"/>
		<path style="fill:#FFFFFF;" d="M59.5,24.848c-7.579,0-14.148,4.319-17.369,10.637c-5.125-2.183-10.902,1.442-11.116,7.055
			C26.35,44.185,23,48.62,23,53.848c0,6.293,4.847,11.446,11.011,11.95l37.095-37.096C67.775,26.044,63.856,24.848,59.5,24.848z"/>
		<path style="fill:#FACB1B;" d="M38.5,83.181c0,2.025,1.642,3.667,3.667,3.667h25.667c2.025,0,3.667-1.642,3.667-3.667V64.848
			c0-2.025-1.642-3.667-3.667-3.667H42.167c-2.025,0-3.667,1.642-3.667,3.667V83.181z"/>
		<g>
			<path style="fill:#818284;" d="M66.917,61.181h-5.5v-6.417c0-3.538-2.878-6.417-6.417-6.417s-6.417,2.878-6.417,6.417v6.417h-5.5
				v-6.417c0-6.571,5.346-11.917,11.917-11.917s11.917,5.346,11.917,11.917V61.181z"/>
		</g>
		<path style="fill:#692E19;" d="M57.509,69.769c0-1.705-1.383-3.088-3.088-3.088s-3.088,1.383-3.088,3.088
			c0,1.187,0.678,2.206,1.661,2.723l-1.661,8.856h6.175l-1.661-8.856C56.831,71.975,57.509,70.956,57.509,69.769z"/>
	</g>
</g>
<g id="Blue" style="display:none;">
	<g style="display:inline;">
		<g>
			<path style="fill:#E1F5FA;" d="M87,52c0-5.885-3.635-10.913-8.778-12.983C74.146,29.05,67.562,25,59.5,25
				c-7.579,0-14.148,4.319-17.369,10.637C41.169,35.228,40.111,35,39,35c-4.314,0-7.821,3.418-7.984,7.692
				C26.35,44.336,23,48.772,23,54c0,6.627,5.373,12,12,12h40C75,66,87,63.774,87,52z"/>
		</g>
		<g>
			<path style="fill:#FFFFFF;" d="M59.5,25c-7.579,0-14.148,4.319-17.369,10.637c-5.125-2.182-10.901,1.443-11.116,7.055
				C26.35,44.336,23,48.772,23,54c0,6.294,4.847,11.446,11.011,11.95l37.095-37.096C67.775,26.196,63.856,25,59.5,25z"/>
		</g>
		<g>
			<path style="fill:#0081A1;" d="M38.5,83.334c0,2.025,1.642,3.666,3.667,3.666h25.667c2.025,0,3.666-1.642,3.666-3.666V65
				c0-2.025-1.642-3.666-3.666-3.666H42.167c-2.025,0-3.667,1.641-3.667,3.666V83.334z"/>
		</g>
		<g>
			<g>
				<path style="fill:#3BB5D4;" d="M66.917,61.334h-5.5v-6.417c0-3.538-2.878-6.417-6.417-6.417c-3.538,0-6.417,2.879-6.417,6.417
					v6.417h-5.5v-6.417C43.083,48.346,48.429,43,55,43s11.917,5.346,11.917,11.917V61.334z"/>
			</g>
		</g>
		<g>
			<path style="fill:#0C333D;" d="M57.509,69.921c0-1.705-1.383-3.088-3.088-3.088c-1.705,0-3.087,1.383-3.087,3.088
				c0,1.187,0.677,2.206,1.66,2.723l-1.66,8.856h6.175l-1.661-8.856C56.831,72.127,57.509,71.108,57.509,69.921z"/>
		</g>
	</g>
</g>
<g id="R-Blue" style="display:none;">
	<g style="display:inline;">
		<circle style="fill:#81D2EB;" cx="55" cy="55" r="55"/>
	</g>
	<g style="display:inline;">
		<g>
			<path style="fill:#E1F5FA;" d="M87,52c0-5.885-3.635-10.913-8.778-12.983C74.146,29.05,67.562,25,59.5,25
				c-7.579,0-14.148,4.319-17.369,10.637C41.169,35.227,40.111,35,39,35c-4.314,0-7.821,3.417-7.984,7.692
				C26.35,44.336,23,48.771,23,54c0,6.627,5.373,12,12,12h40C75,66,87,63.774,87,52z"/>
		</g>
		<g>
			<path style="fill:#FFFFFF;" d="M59.5,25c-7.579,0-14.148,4.319-17.369,10.637c-5.125-2.182-10.901,1.443-11.116,7.055
				C26.35,44.336,23,48.771,23,54c0,6.294,4.847,11.446,11.011,11.95l37.095-37.096C67.775,26.196,63.856,25,59.5,25z"/>
		</g>
		<g>
			<path style="fill:#0081A1;" d="M38.5,83.333c0,2.025,1.642,3.667,3.667,3.667h25.667c2.025,0,3.666-1.642,3.666-3.667V65
				c0-2.025-1.642-3.667-3.666-3.667H42.167c-2.025,0-3.667,1.641-3.667,3.667V83.333z"/>
		</g>
		<g>
			<g>
				<path style="fill:#3BB5D4;" d="M66.917,61.333h-5.5v-6.417c0-3.538-2.878-6.417-6.417-6.417c-3.538,0-6.417,2.879-6.417,6.417
					v6.417h-5.5v-6.417C43.083,48.346,48.429,43,55,43s11.917,5.346,11.917,11.917V61.333z"/>
			</g>
		</g>
		<g>
			<path style="fill:#0C333D;" d="M57.509,69.921c0-1.705-1.383-3.088-3.088-3.088c-1.705,0-3.087,1.383-3.087,3.088
				c0,1.187,0.677,2.206,1.66,2.723l-1.66,8.856h6.175l-1.661-8.856C56.831,72.127,57.509,71.108,57.509,69.921z"/>
		</g>
	</g>
</g>
<g id="Green" style="display:none;">
	<g style="display:inline;">
		<g>
			<path style="fill:#D7FCF9;" d="M87,52c0-5.885-3.635-10.913-8.778-12.983C74.146,29.05,67.562,25,59.5,25
				c-7.579,0-14.148,4.319-17.369,10.637C41.169,35.228,40.111,35,39,35c-4.314,0-7.821,3.418-7.984,7.692
				C26.35,44.336,23,48.772,23,54c0,6.627,5.373,12,12,12h40C75,66,87,63.774,87,52z"/>
		</g>
		<g>
			<path style="fill:#FFFFFF;" d="M59.5,25c-7.579,0-14.148,4.319-17.369,10.637c-5.125-2.182-10.901,1.443-11.116,7.055
				C26.35,44.336,23,48.772,23,54c0,6.294,4.847,11.446,11.011,11.95l37.095-37.096C67.775,26.196,63.856,25,59.5,25z"/>
		</g>
		<g>
			<path style="fill:#009687;" d="M38.5,83.334c0,2.025,1.642,3.666,3.667,3.666h25.667c2.025,0,3.666-1.642,3.666-3.666V65
				c0-2.025-1.642-3.666-3.666-3.666H42.167c-2.025,0-3.667,1.641-3.667,3.666V83.334z"/>
		</g>
		<g>
			<g>
				<path style="fill:#3BC8BA;" d="M66.916,61.334h-5.5v-6.417c0-3.538-2.878-6.417-6.417-6.417s-6.417,2.879-6.417,6.417v6.417
					h-5.5v-6.417C43.083,48.346,48.429,43,55,43s11.916,5.346,11.916,11.917V61.334z"/>
			</g>
		</g>
		<g>
			<path style="fill:#0A3631;" d="M57.509,69.921c0-1.705-1.383-3.088-3.088-3.088c-1.705,0-3.087,1.383-3.087,3.088
				c0,1.187,0.677,2.206,1.66,2.723l-1.66,8.856h6.175l-1.661-8.856C56.831,72.127,57.509,71.108,57.509,69.921z"/>
		</g>
	</g>
</g>
<g id="R-Green" style="display:none;">
	<g style="display:inline;">
		<circle style="fill:#87E0C8;" cx="55" cy="55" r="55"/>
	</g>
	<g style="display:inline;">
		<g>
			<path style="fill:#D7FCF9;" d="M87,52c0-5.885-3.635-10.913-8.778-12.983C74.146,29.05,67.562,25,59.5,25
				c-7.579,0-14.148,4.319-17.369,10.637C41.169,35.228,40.111,35,39,35c-4.314,0-7.821,3.418-7.984,7.692
				C26.35,44.336,23,48.772,23,54c0,6.627,5.373,12,12,12h40C75,66,87,63.774,87,52z"/>
		</g>
		<g>
			<path style="fill:#FFFFFF;" d="M59.5,25c-7.579,0-14.148,4.319-17.369,10.637c-5.125-2.182-10.901,1.443-11.116,7.055
				C26.35,44.336,23,48.772,23,54c0,6.294,4.847,11.446,11.011,11.95l37.095-37.096C67.775,26.196,63.856,25,59.5,25z"/>
		</g>
		<g>
			<path style="fill:#009687;" d="M38.5,83.334c0,2.025,1.642,3.666,3.667,3.666h25.667c2.025,0,3.667-1.642,3.667-3.666V65
				c0-2.025-1.642-3.666-3.667-3.666H42.166c-2.025,0-3.667,1.641-3.667,3.666V83.334z"/>
		</g>
		<g>
			<g>
				<path style="fill:#3BC8BA;" d="M66.916,61.334h-5.5v-6.417c0-3.538-2.878-6.417-6.417-6.417c-3.538,0-6.417,2.879-6.417,6.417
					v6.417h-5.5v-6.417C43.083,48.346,48.429,43,55,43s11.917,5.346,11.917,11.917V61.334z"/>
			</g>
		</g>
		<g>
			<path style="fill:#0A3631;" d="M57.509,69.921c0-1.705-1.383-3.088-3.088-3.088c-1.705,0-3.087,1.383-3.087,3.088
				c0,1.187,0.677,2.206,1.66,2.723l-1.66,8.856h6.175l-1.661-8.856C56.831,72.127,57.509,71.108,57.509,69.921z"/>
		</g>
	</g>
</g>
<g id="Red" style="display:none;">
	<g style="display:inline;">
		<g>
			<path style="fill:#FFEFED;" d="M87,52c0-5.885-3.635-10.913-8.778-12.983C74.146,29.05,67.562,25,59.5,25
				c-7.579,0-14.148,4.319-17.369,10.637C41.169,35.228,40.111,35,39,35c-4.314,0-7.821,3.418-7.984,7.692
				C26.35,44.336,23,48.772,23,54c0,6.627,5.373,12,12,12h40C75,66,87,63.774,87,52z"/>
		</g>
		<g>
			<path style="fill:#FFFFFF;" d="M59.5,25c-7.579,0-14.148,4.319-17.369,10.637c-5.125-2.182-10.901,1.443-11.116,7.055
				C26.35,44.336,23,48.772,23,54c0,6.294,4.847,11.446,11.011,11.95l37.095-37.096C67.775,26.196,63.856,25,59.5,25z"/>
		</g>
		<g>
			<path style="fill:#C23023;" d="M38.5,83.334c0,2.025,1.642,3.666,3.667,3.666h25.667c2.025,0,3.666-1.642,3.666-3.666V65
				c0-2.025-1.642-3.666-3.666-3.666H42.167c-2.025,0-3.667,1.641-3.667,3.666V83.334z"/>
		</g>
		<g>
			<g>
				<path style="fill:#EB756F;" d="M66.917,61.334h-5.5v-6.417c0-3.538-2.878-6.417-6.417-6.417c-3.538,0-6.417,2.879-6.417,6.417
					v6.417h-5.5v-6.417C43.083,48.346,48.429,43,55,43s11.917,5.346,11.917,11.917V61.334z"/>
			</g>
		</g>
		<g>
			<path style="fill:#4A1410;" d="M57.509,69.921c0-1.705-1.383-3.088-3.088-3.088c-1.705,0-3.087,1.383-3.087,3.088
				c0,1.187,0.677,2.206,1.66,2.723l-1.66,8.856h6.175l-1.661-8.856C56.831,72.127,57.509,71.108,57.509,69.921z"/>
		</g>
	</g>
</g>
<g id="R-Red" style="display:none;">
	<g style="display:inline;">
		<circle style="fill:#FABBAF;" cx="55" cy="55" r="55"/>
	</g>
	<g style="display:inline;">
		<g>
			<path style="fill:#FFEFED;" d="M87,52c0-5.885-3.635-10.913-8.778-12.983C74.146,29.05,67.562,25,59.5,25
				c-7.579,0-14.148,4.319-17.369,10.637C41.169,35.227,40.111,35,39,35c-4.314,0-7.821,3.417-7.984,7.692
				C26.35,44.336,23,48.771,23,54c0,6.627,5.373,12,12,12h40C75,66,87,63.774,87,52z"/>
		</g>
		<g>
			<path style="fill:#FFFFFF;" d="M59.5,25c-7.579,0-14.148,4.319-17.369,10.637c-5.125-2.182-10.901,1.443-11.116,7.055
				C26.35,44.336,23,48.771,23,54c0,6.294,4.847,11.446,11.011,11.95l37.095-37.096C67.775,26.196,63.856,25,59.5,25z"/>
		</g>
		<g>
			<path style="fill:#C23023;" d="M38.5,83.333c0,2.025,1.642,3.666,3.667,3.666h25.667c2.025,0,3.666-1.642,3.666-3.666V65
				c0-2.025-1.642-3.667-3.666-3.667H42.167c-2.025,0-3.667,1.641-3.667,3.667V83.333z"/>
		</g>
		<g>
			<g>
				<path style="fill:#EB756F;" d="M66.917,61.333h-5.5v-6.417c0-3.538-2.878-6.417-6.417-6.417c-3.538,0-6.417,2.879-6.417,6.417
					v6.417h-5.5v-6.417C43.083,48.346,48.429,43,55,43s11.917,5.346,11.917,11.917V61.333z"/>
			</g>
		</g>
		<g>
			<path style="fill:#4A1410;" d="M57.509,69.921c0-1.705-1.383-3.088-3.088-3.088c-1.705,0-3.087,1.383-3.087,3.088
				c0,1.187,0.677,2.206,1.66,2.723l-1.66,8.856h6.175l-1.661-8.856C56.831,72.127,57.509,71.108,57.509,69.921z"/>
		</g>
	</g>
</g>
<g id="Yellow" style="display:none;">
	<g style="display:inline;">
		<g>
			<path style="fill:#FFF5D9;" d="M87,52c0-5.885-3.635-10.913-8.778-12.983C74.146,29.05,67.562,25,59.5,25
				c-7.579,0-14.148,4.319-17.369,10.637C41.169,35.228,40.111,35,39,35c-4.314,0-7.821,3.418-7.984,7.692
				C26.35,44.336,23,48.772,23,54c0,6.627,5.373,12,12,12h40C75,66,87,63.774,87,52z"/>
		</g>
		<g>
			<path style="fill:#FFFFFF;" d="M59.5,25c-7.579,0-14.148,4.319-17.369,10.637c-5.125-2.182-10.901,1.443-11.116,7.055
				C26.35,44.336,23,48.772,23,54c0,6.294,4.847,11.446,11.011,11.95l37.095-37.096C67.775,26.196,63.856,25,59.5,25z"/>
		</g>
		<g>
			<path style="fill:#E07000;" d="M38.5,83.334c0,2.025,1.642,3.666,3.667,3.666h25.667c2.025,0,3.666-1.642,3.666-3.666V65
				c0-2.025-1.642-3.666-3.666-3.666H42.167c-2.025,0-3.667,1.641-3.667,3.666V83.334z"/>
		</g>
		<g>
			<g>
				<path style="fill:#FBAB3B;" d="M66.917,61.334h-5.5v-6.417c0-3.538-2.878-6.417-6.417-6.417c-3.538,0-6.417,2.879-6.417,6.417
					v6.417h-5.5v-6.417C43.083,48.346,48.429,43,55,43s11.917,5.346,11.917,11.917V61.334z"/>
			</g>
		</g>
		<g>
			<path style="fill:#3D320C;" d="M57.509,69.921c0-1.705-1.383-3.088-3.088-3.088c-1.705,0-3.087,1.383-3.087,3.088
				c0,1.187,0.677,2.206,1.66,2.723l-1.66,8.856h6.175l-1.661-8.856C56.831,72.127,57.509,71.108,57.509,69.921z"/>
		</g>
	</g>
</g>
<g id="R-Yellow" style="display:none;">
	<g style="display:inline;">
		<circle style="fill:#FFD75E;" cx="55" cy="55" r="55"/>
	</g>
	<g style="display:inline;">
		<g>
			<path style="fill:#FFF5D9;" d="M87,52c0-5.885-3.635-10.913-8.778-12.983C74.146,29.05,67.562,25,59.5,25
				c-7.579,0-14.148,4.319-17.369,10.637C41.169,35.228,40.111,35,39,35c-4.314,0-7.821,3.418-7.984,7.692
				C26.35,44.336,23,48.772,23,54c0,6.627,5.373,12,12,12h40C75,66,87,63.774,87,52z"/>
		</g>
		<g>
			<path style="fill:#FFFFFF;" d="M59.5,25c-7.579,0-14.148,4.319-17.369,10.637c-5.125-2.182-10.901,1.443-11.116,7.055
				C26.35,44.336,23,48.772,23,54c0,6.294,4.847,11.446,11.011,11.95l37.095-37.096C67.775,26.196,63.856,25,59.5,25z"/>
		</g>
		<g>
			<path style="fill:#E07000;" d="M38.5,83.334c0,2.025,1.642,3.666,3.667,3.666h25.667c2.025,0,3.666-1.642,3.666-3.666V65
				c0-2.025-1.642-3.666-3.666-3.666H42.167c-2.025,0-3.667,1.641-3.667,3.666V83.334z"/>
		</g>
		<g>
			<g>
				<path style="fill:#FBAB3B;" d="M66.916,61.334h-5.5v-6.417c0-3.538-2.878-6.417-6.417-6.417s-6.417,2.879-6.417,6.417v6.417
					h-5.5v-6.417C43.083,48.346,48.429,43,55,43s11.916,5.346,11.916,11.917V61.334z"/>
			</g>
		</g>
		<g>
			<path style="fill:#3D320C;" d="M57.509,69.921c0-1.705-1.383-3.088-3.088-3.088c-1.705,0-3.087,1.383-3.087,3.088
				c0,1.187,0.677,2.206,1.66,2.723l-1.66,8.856h6.175l-1.661-8.856C56.831,72.127,57.509,71.108,57.509,69.921z"/>
		</g>
	</g>
</g>
</svg>
