<?xml version="1.0" encoding="iso-8859-1"?>
<!-- Generator: Adobe Illustrator 17.1.0, SVG Export Plug-In . SVG Version: 6.00 Build 0)  -->
<!DOCTYPE svg PUBLIC "-//W3C//DTD SVG 1.0//EN" "http://www.w3.org/TR/2001/REC-SVG-20010904/DTD/svg10.dtd">
<svg version="1.0" xmlns="http://www.w3.org/2000/svg" xmlns:xlink="http://www.w3.org/1999/xlink" x="0px" y="0px" width="110px"
	 height="110px" viewBox="0 0 110 110" style="enable-background:new 0 0 110 110;" xml:space="preserve">
<g id="Artboard" style="display:none;">
	<rect x="-59" y="-591" style="display:inline;fill:#8C8C8C;" width="1412" height="743"/>
</g>
<g id="R-Multicolor" style="display:none;">
	<circle style="display:inline;fill:#E04F5F;" cx="55" cy="55" r="55"/>
	<g style="display:inline;">
		<rect x="23" y="31" style="fill:#F0F1F1;" width="64" height="48"/>
		<path style="fill:#E2E4E5;" d="M60.979,49.685C59.461,47.977,57.285,47,55,47s-4.461,0.977-5.979,2.685L23,78.958h64
			L60.979,49.685z"/>
		<path style="fill:#FFFFFF;" d="M49.021,60.273c1.518,1.708,3.694,2.685,5.979,2.685s4.461-0.977,5.979-2.685L87,31H23
			L49.021,60.273z"/>
		<g>
			<path style="fill:#DF2C2C;" d="M54.966,65.397c0,0,11.965-6.902,11.965-14.531c0-7.629-11.965-7.439-11.965-1.615
				c0-5.824-11.966-6.014-11.966,2.202S54.966,65.397,54.966,65.397z"/>
		</g>
	</g>
</g>
<g id="Multicolor">
	<g>
		<rect x="23" y="31" style="fill:#F0F1F1;" width="64" height="48"/>
		<path style="fill:#E2E4E5;" d="M60.979,49.685C59.461,47.977,57.285,47,55,47s-4.461,0.977-5.979,2.685L23,78.958h64
			L60.979,49.685z"/>
		<path style="fill:#FFFFFF;" d="M49.021,60.273c1.518,1.708,3.694,2.685,5.979,2.685s4.461-0.977,5.979-2.685L87,31H23
			L49.021,60.273z"/>
		<g>
			<path style="fill:#DF2C2C;" d="M54.966,65.397c0,0,11.965-6.902,11.965-14.531c0-7.629-11.965-7.439-11.965-1.615
				c0-5.824-11.966-6.014-11.966,2.202S54.966,65.397,54.966,65.397z"/>
		</g>
	</g>
</g>
<g id="Blue" style="display:none;">
	<g style="display:inline;">
		<g>
			<rect x="23" y="31" style="fill:#E1F5FA;" width="64" height="48"/>
		</g>
		<g>
			<path style="fill:#BBE7F2;" d="M60.979,49.685C59.461,47.978,57.285,47,55,47s-4.461,0.978-5.979,2.685L23,78.959h64
				L60.979,49.685z"/>
		</g>
		<g>
			<path style="fill:#FFFFFF;" d="M49.021,60.273c1.519,1.708,3.694,2.685,5.979,2.685s4.461-0.977,5.979-2.685L87,31H23
				L49.021,60.273z"/>
		</g>
		<g>
			<g>
				<path style="fill:#00B7E5;" d="M54.966,65.397c0,0,11.965-6.902,11.965-14.531s-11.965-7.438-11.965-1.615
					c0-5.824-11.966-6.014-11.966,2.202C43,59.669,54.966,65.397,54.966,65.397z"/>
			</g>
		</g>
	</g>
</g>
<g id="R-Blue" style="display:none;">
	<g style="display:inline;">
		<circle style="fill:#81D2EB;" cx="55" cy="55" r="55"/>
	</g>
	<g style="display:inline;">
		<g>
			<rect x="23" y="31" style="fill:#E1F5FA;" width="64" height="48"/>
		</g>
		<g>
			<path style="fill:#BBE7F2;" d="M60.979,49.685C59.461,47.978,57.285,47,55,47s-4.461,0.978-5.979,2.685L23,78.959h64
				L60.979,49.685z"/>
		</g>
		<g>
			<path style="fill:#FFFFFF;" d="M49.021,60.273c1.519,1.708,3.694,2.685,5.979,2.685s4.461-0.977,5.979-2.685L87,31H23
				L49.021,60.273z"/>
		</g>
		<g>
			<g>
				<path style="fill:#00B7E5;" d="M54.966,65.397c0,0,11.965-6.902,11.965-14.531s-11.965-7.438-11.965-1.615
					c0-5.824-11.966-6.014-11.966,2.202C43,59.669,54.966,65.397,54.966,65.397z"/>
			</g>
		</g>
	</g>
</g>
<g id="Green" style="display:none;">
	<g style="display:inline;">
		<g>
			<rect x="23" y="31" style="fill:#D7FCF9;" width="64" height="48"/>
		</g>
		<g>
			<path style="fill:#AAF0E9;" d="M60.979,49.685C59.461,47.978,57.285,47,55,47c-2.285,0-4.461,0.978-5.979,2.685L23,78.959h64
				L60.979,49.685z"/>
		</g>
		<g>
			<path style="fill:#FFFFFF;" d="M49.02,60.273c1.519,1.708,3.694,2.685,5.979,2.685c2.285,0,4.461-0.977,5.979-2.685L87,31H23
				L49.02,60.273z"/>
		</g>
		<g>
			<g>
				<path style="fill:#00D6C1;" d="M54.966,65.397c0,0,11.965-6.902,11.965-14.531s-11.965-7.438-11.965-1.615
					c0-5.824-11.966-6.014-11.966,2.202C43,59.669,54.966,65.397,54.966,65.397z"/>
			</g>
		</g>
	</g>
</g>
<g id="R-Green" style="display:none;">
	<g style="display:inline;">
		<circle style="fill:#87E0C8;" cx="55" cy="55" r="55"/>
	</g>
	<g style="display:inline;">
		<g>
			<rect x="23" y="31" style="fill:#D7FCF9;" width="64" height="48"/>
		</g>
		<g>
			<path style="fill:#AAF0E9;" d="M60.979,49.685C59.461,47.978,57.285,47,55,47c-2.285,0-4.461,0.978-5.979,2.685L23,78.959h64
				L60.979,49.685z"/>
		</g>
		<g>
			<path style="fill:#FFFFFF;" d="M49.02,60.273c1.519,1.708,3.694,2.685,5.979,2.685c2.285,0,4.461-0.977,5.979-2.685L87,31H23
				L49.02,60.273z"/>
		</g>
		<g>
			<g>
				<path style="fill:#00D6C1;" d="M54.965,65.397c0,0,11.965-6.902,11.965-14.531s-11.965-7.438-11.965-1.615
					c0-5.824-11.966-6.014-11.966,2.202C43,59.669,54.965,65.397,54.965,65.397z"/>
			</g>
		</g>
	</g>
</g>
<g id="Red" style="display:none;">
	<g style="display:inline;">
		<g>
			<rect x="22.896" y="31" style="fill:#FFEFED;" width="64" height="48"/>
		</g>
		<g>
			<path style="fill:#FFD7D4;" d="M60.875,49.685C59.357,47.978,57.181,47,54.896,47s-4.461,0.978-5.979,2.685L22.896,78.959h64
				L60.875,49.685z"/>
		</g>
		<g>
			<path style="fill:#FFFFFF;" d="M48.917,60.273c1.519,1.708,3.694,2.685,5.979,2.685s4.461-0.977,5.979-2.685L86.896,31h-64
				L48.917,60.273z"/>
		</g>
		<g>
			<g>
				<path style="fill:#FF6C5E;" d="M54.862,65.397c0,0,11.965-6.902,11.965-14.531s-11.965-7.438-11.965-1.615
					c0-5.824-11.966-6.014-11.966,2.202C42.896,59.669,54.862,65.397,54.862,65.397z"/>
			</g>
		</g>
	</g>
</g>
<g id="R-Red" style="display:none;">
	<g style="display:inline;">
		<circle style="fill:#FABBAF;" cx="55" cy="55" r="55"/>
	</g>
	<g style="display:inline;">
		<g>
			<rect x="23" y="31" style="fill:#FFEFED;" width="64" height="48"/>
		</g>
		<g>
			<path style="fill:#FFD7D4;" d="M60.979,49.685C59.461,47.978,57.285,47,55,47s-4.461,0.978-5.979,2.685L23,78.959h64
				L60.979,49.685z"/>
		</g>
		<g>
			<path style="fill:#FFFFFF;" d="M49.021,60.273c1.519,1.708,3.694,2.685,5.979,2.685s4.461-0.977,5.979-2.685L87,31H23
				L49.021,60.273z"/>
		</g>
		<g>
			<g>
				<path style="fill:#FF6C5E;" d="M54.966,65.397c0,0,11.965-6.902,11.965-14.531s-11.965-7.438-11.965-1.615
					c0-5.824-11.966-6.014-11.966,2.202C43,59.669,54.966,65.397,54.966,65.397z"/>
			</g>
		</g>
	</g>
</g>
<g id="Yellow" style="display:none;">
	<g style="display:inline;">
		<g>
			<rect x="22.896" y="31" style="fill:#FFF5D9;" width="64" height="48"/>
		</g>
		<g>
			<path style="fill:#FFE9A1;" d="M60.875,49.685C59.357,47.978,57.181,47,54.896,47c-2.285,0-4.461,0.978-5.979,2.685
				L22.896,78.959h64L60.875,49.685z"/>
		</g>
		<g>
			<path style="fill:#FFFFFF;" d="M48.917,60.273c1.519,1.708,3.694,2.685,5.979,2.685c2.285,0,4.461-0.977,5.979-2.685L86.896,31
				h-64L48.917,60.273z"/>
		</g>
		<g>
			<g>
				<path style="fill:#FFAA00;" d="M54.862,65.397c0,0,11.965-6.902,11.965-14.531s-11.965-7.438-11.965-1.615
					c0-5.824-11.966-6.014-11.966,2.202C42.896,59.669,54.862,65.397,54.862,65.397z"/>
			</g>
		</g>
	</g>
</g>
<g id="R-Yellow" style="display:none;">
	<g style="display:inline;">
		<circle style="fill:#FFD75E;" cx="55" cy="55" r="55"/>
	</g>
	<g style="display:inline;">
		<g>
			<rect x="23" y="31" style="fill:#FFF5D9;" width="64" height="48"/>
		</g>
		<g>
			<path style="fill:#FFE9A1;" d="M60.979,49.685C59.461,47.978,57.285,47,55,47s-4.461,0.978-5.979,2.685L23,78.959h64
				L60.979,49.685z"/>
		</g>
		<g>
			<path style="fill:#FFFFFF;" d="M49.021,60.273c1.519,1.708,3.694,2.685,5.979,2.685s4.461-0.977,5.979-2.685L87,31H23
				L49.021,60.273z"/>
		</g>
		<g>
			<g>
				<path style="fill:#FFAA00;" d="M54.966,65.397c0,0,11.965-6.902,11.965-14.531s-11.965-7.438-11.965-1.615
					c0-5.824-11.966-6.014-11.966,2.202C43,59.669,54.966,65.397,54.966,65.397z"/>
			</g>
		</g>
	</g>
</g>
</svg>
