<?xml version="1.0" encoding="iso-8859-1"?>
<!-- Generator: Adobe Illustrator 17.1.0, SVG Export Plug-In . SVG Version: 6.00 Build 0)  -->
<!DOCTYPE svg PUBLIC "-//W3C//DTD SVG 1.0//EN" "http://www.w3.org/TR/2001/REC-SVG-20010904/DTD/svg10.dtd">
<svg version="1.0" xmlns="http://www.w3.org/2000/svg" xmlns:xlink="http://www.w3.org/1999/xlink" x="0px" y="0px" width="110px"
	 height="110px" viewBox="0 0 110 110" style="enable-background:new 0 0 110 110;" xml:space="preserve">
<g id="Artboard" style="display:none;">
	
		<rect x="-716.5" y="-447.5" style="display:inline;fill:#808080;stroke:#000000;stroke-miterlimit:10;" width="1422" height="630"/>
</g>
<g id="R-Multicolor" style="display:none;">
	<circle style="display:inline;fill:#25B7D3;" cx="55" cy="55" r="55"/>
	<g style="display:inline;">
		<g>
			<path style="fill:#F0F1F1;" d="M81.937,24.303C81.205,23.507,80.166,23,79,23H31c-2.209,0-4,1.791-4,4v56c0,2.209,1.791,4,4,4h48
				c2.209,0,4-1.791,4-4V27C83,25.957,82.591,25.015,81.937,24.303z"/>
		</g>
		<g>
			<path style="fill:#FFFFFF;" d="M31,29c0-1.104,0.895-2,2-2h12c1.105,0,2,0.896,2,2v30.239l4.436-4.436
				C51.179,54.623,51,54.338,51,54V44c0-0.552,0.448-1,1-1h10c0.338,0,0.622,0.179,0.803,0.436l4.632-4.632
				C67.179,38.623,67,38.338,67,38V28c0-0.552,0.448-1,1-1h10c0.338,0,0.622,0.179,0.803,0.436l3.133-3.133
				C81.205,23.507,80.166,23,79,23H31c-2.209,0-4,1.791-4,4v52.239l4-4V29z M51,28c0-0.552,0.448-1,1-1h10c0.552,0,1,0.448,1,1v10
				c0,0.552-0.448,1-1,1H52c-0.552,0-1-0.448-1-1V28z"/>
		</g>
		<g>
			<path style="fill:#F4D0A1;" d="M45,27H33c-1.105,0-2,0.896-2,2v46.239V81c0,1.104,0.895,2,2,2h12c1.105,0,2-0.896,2-2V59.239V29
				C47,27.896,46.105,27,45,27z"/>
		</g>
		<g>
			<path style="fill:#F8E1C2;" d="M45,27H33c-1.105,0-2,0.896-2,2v46.239l16-16V29C47,27.896,46.105,27,45,27z"/>
		</g>
		<g>
			<path style="fill:#F79392;" d="M52,39h10c0.552,0,1-0.448,1-1V28c0-0.552-0.448-1-1-1H52c-0.552,0-1,0.448-1,1v10
				C51,38.552,51.448,39,52,39z"/>
		</g>
		<g>
			<path style="fill:#FACB1B;" d="M78.803,27.436C78.622,27.179,78.338,27,78,27H68c-0.552,0-1,0.448-1,1v10
				c0,0.338,0.179,0.623,0.436,0.803C67.598,38.918,67.786,39,68,39h10c0.552,0,1-0.448,1-1V28
				C79,27.786,78.918,27.599,78.803,27.436z"/>
		</g>
		<g>
			<path style="fill:#FBE158;" d="M78,27H68c-0.552,0-1,0.448-1,1v10c0,0.338,0.179,0.623,0.436,0.803l11.368-11.368
				C78.622,27.179,78.338,27,78,27z"/>
		</g>
		<g>
			<path style="fill:#12B2A0;" d="M62.803,43.436C62.622,43.179,62.338,43,62,43H52c-0.552,0-1,0.448-1,1v10
				c0,0.338,0.179,0.623,0.436,0.803C51.598,54.918,51.786,55,52,55h10c0.552,0,1-0.448,1-1V44
				C63,43.786,62.918,43.599,62.803,43.436z"/>
		</g>
		<g>
			<path style="fill:#47C4B7;" d="M62,43H52c-0.552,0-1,0.448-1,1v10c0,0.338,0.179,0.623,0.436,0.803l11.368-11.368
				C62.622,43.179,62.338,43,62,43z"/>
		</g>
		<g>
			<path style="fill:#84462D;" d="M39,43h-4v4l1.876,30.024C36.946,78.135,37.867,79,38.98,79H39h0.02
				c1.113,0,2.034-0.865,2.104-1.976L43,47v-4H39z"/>
		</g>
		<g>
			<path style="fill:#9C6144;" d="M35,43v4l1.876,30.024C36.946,78.135,37.867,79,38.98,79H39V43H35z"/>
		</g>
		<g>
			<path style="fill:#47C4B7;" d="M79,54c0,0.552-0.448,1-1,1H68c-0.552,0-1-0.448-1-1V44c0-0.552,0.448-1,1-1h10
				c0.552,0,1,0.448,1,1V54z"/>
		</g>
		<g>
			<path style="fill:#40C9E7;" d="M63,70c0,0.552-0.448,1-1,1H52c-0.552,0-1-0.448-1-1V60c0-0.552,0.448-1,1-1h10
				c0.552,0,1,0.448,1,1V70z"/>
		</g>
		<g>
			<path style="fill:#40C9E7;" d="M79,70c0,0.552-0.448,1-1,1H68c-0.552,0-1-0.448-1-1V60c0-0.552,0.448-1,1-1h10
				c0.552,0,1,0.448,1,1V70z"/>
		</g>
		<g>
			<path style="fill:#F4D0A1;" d="M79,82c0,0.552-0.448,1-1,1H52c-0.552,0-1-0.448-1-1v-6c0-0.552,0.448-1,1-1h26
				c0.552,0,1,0.448,1,1V82z"/>
		</g>
		<g>
			<path style="fill:#3E3E3F;" d="M39,30L39,30c0,0-5,5.687-5,9c0,1.851,0.713,3.175,1.811,4H39h3.189
				C43.287,42.175,44,40.851,44,39C44,35.687,39.001,30.001,39,30z"/>
		</g>
		<g>
			<path style="fill:#5B5C5F;" d="M34,39c0,1.851,0.713,3.175,1.811,4H39V30h0C39,30,34,35.687,34,39z"/>
		</g>
		<g>
			<polygon style="fill:#F3B607;" points="39,43 35,43 35,47 39,47 43,47 43,43 			"/>
		</g>
		<g>
			<polygon style="fill:#FACB1B;" points="35.811,43 35,43 35,47 39,47 39,43 			"/>
		</g>
	</g>
</g>
<g id="Multicolor">
	<g>
		<g>
			<path style="fill:#F0F1F1;" d="M81.937,24.303C81.205,23.507,80.166,23,79,23H31c-2.209,0-4,1.791-4,4v56c0,2.209,1.791,4,4,4h48
				c2.209,0,4-1.791,4-4V27C83,25.957,82.591,25.015,81.937,24.303z"/>
		</g>
		<g>
			<path style="fill:#FFFFFF;" d="M31,29c0-1.104,0.895-2,2-2h12c1.105,0,2,0.896,2,2v30.239l4.436-4.436
				C51.179,54.623,51,54.338,51,54V44c0-0.552,0.448-1,1-1h10c0.338,0,0.622,0.179,0.803,0.436l4.632-4.632
				C67.179,38.623,67,38.338,67,38V28c0-0.552,0.448-1,1-1h10c0.338,0,0.622,0.179,0.803,0.436l3.133-3.133
				C81.205,23.507,80.166,23,79,23H31c-2.209,0-4,1.791-4,4v52.239l4-4V29z M51,28c0-0.552,0.448-1,1-1h10c0.552,0,1,0.448,1,1v10
				c0,0.552-0.448,1-1,1H52c-0.552,0-1-0.448-1-1V28z"/>
		</g>
		<g>
			<path style="fill:#F4D0A1;" d="M45,27H33c-1.105,0-2,0.896-2,2v46.239V81c0,1.104,0.895,2,2,2h12c1.105,0,2-0.896,2-2V59.239V29
				C47,27.896,46.105,27,45,27z"/>
		</g>
		<g>
			<path style="fill:#F8E1C2;" d="M45,27H33c-1.105,0-2,0.896-2,2v46.239l16-16V29C47,27.896,46.105,27,45,27z"/>
		</g>
		<g>
			<path style="fill:#F79392;" d="M52,39h10c0.552,0,1-0.448,1-1V28c0-0.552-0.448-1-1-1H52c-0.552,0-1,0.448-1,1v10
				C51,38.552,51.448,39,52,39z"/>
		</g>
		<g>
			<path style="fill:#FACB1B;" d="M78.803,27.436C78.622,27.179,78.338,27,78,27H68c-0.552,0-1,0.448-1,1v10
				c0,0.338,0.179,0.623,0.436,0.803C67.598,38.918,67.786,39,68,39h10c0.552,0,1-0.448,1-1V28
				C79,27.786,78.918,27.599,78.803,27.436z"/>
		</g>
		<g>
			<path style="fill:#FBE158;" d="M78,27H68c-0.552,0-1,0.448-1,1v10c0,0.338,0.179,0.623,0.436,0.803l11.368-11.368
				C78.622,27.179,78.338,27,78,27z"/>
		</g>
		<g>
			<path style="fill:#12B2A0;" d="M62.803,43.436C62.622,43.179,62.338,43,62,43H52c-0.552,0-1,0.448-1,1v10
				c0,0.338,0.179,0.623,0.436,0.803C51.598,54.918,51.786,55,52,55h10c0.552,0,1-0.448,1-1V44
				C63,43.786,62.918,43.599,62.803,43.436z"/>
		</g>
		<g>
			<path style="fill:#47C4B7;" d="M62,43H52c-0.552,0-1,0.448-1,1v10c0,0.338,0.179,0.623,0.436,0.803l11.368-11.368
				C62.622,43.179,62.338,43,62,43z"/>
		</g>
		<g>
			<path style="fill:#84462D;" d="M39,43h-4v4l1.876,30.024C36.946,78.135,37.867,79,38.98,79H39h0.02
				c1.113,0,2.034-0.865,2.104-1.976L43,47v-4H39z"/>
		</g>
		<g>
			<path style="fill:#9C6144;" d="M35,43v4l1.876,30.024C36.946,78.135,37.867,79,38.98,79H39V43H35z"/>
		</g>
		<g>
			<path style="fill:#47C4B7;" d="M79,54c0,0.552-0.448,1-1,1H68c-0.552,0-1-0.448-1-1V44c0-0.552,0.448-1,1-1h10
				c0.552,0,1,0.448,1,1V54z"/>
		</g>
		<g>
			<path style="fill:#40C9E7;" d="M63,70c0,0.552-0.448,1-1,1H52c-0.552,0-1-0.448-1-1V60c0-0.552,0.448-1,1-1h10
				c0.552,0,1,0.448,1,1V70z"/>
		</g>
		<g>
			<path style="fill:#40C9E7;" d="M79,70c0,0.552-0.448,1-1,1H68c-0.552,0-1-0.448-1-1V60c0-0.552,0.448-1,1-1h10
				c0.552,0,1,0.448,1,1V70z"/>
		</g>
		<g>
			<path style="fill:#F4D0A1;" d="M79,82c0,0.552-0.448,1-1,1H52c-0.552,0-1-0.448-1-1v-6c0-0.552,0.448-1,1-1h26
				c0.552,0,1,0.448,1,1V82z"/>
		</g>
		<g>
			<path style="fill:#3E3E3F;" d="M39,30L39,30c0,0-5,5.687-5,9c0,1.851,0.713,3.175,1.811,4H39h3.189
				C43.287,42.175,44,40.851,44,39C44,35.687,39.001,30.001,39,30z"/>
		</g>
		<g>
			<path style="fill:#5B5C5F;" d="M34,39c0,1.851,0.713,3.175,1.811,4H39V30h0C39,30,34,35.687,34,39z"/>
		</g>
		<g>
			<polygon style="fill:#F3B607;" points="39,43 35,43 35,47 39,47 43,47 43,43 			"/>
		</g>
		<g>
			<polygon style="fill:#FACB1B;" points="35.811,43 35,43 35,47 39,47 39,43 			"/>
		</g>
	</g>
</g>
<g id="Blue" style="display:none;">
	<g style="display:inline;">
		<g>
			<path style="fill:#E1F5FA;" d="M81.937,24.303C81.205,23.507,80.166,23,79,23H31c-2.209,0-4,1.791-4,4v56c0,2.209,1.791,4,4,4h48
				c2.209,0,4-1.791,4-4V27C83,25.956,82.591,25.015,81.937,24.303z"/>
		</g>
		<g>
			<path style="fill:#FFFFFF;" d="M31,29c0-1.104,0.896-2,2-2h12c1.104,0,2,0.896,2,2v30.239l4.436-4.436
				C51.179,54.623,51,54.339,51,54V44c0-0.552,0.447-1,1-1h10c0.338,0,0.622,0.179,0.804,0.436l4.632-4.632
				C67.179,38.623,67,38.339,67,38V28c0-0.552,0.447-1,1-1h10c0.338,0,0.622,0.179,0.804,0.435l3.133-3.133
				C81.205,23.507,80.166,23,79,23H31c-2.209,0-4,1.791-4,4v52.239l4-4V29z M51,28c0-0.552,0.447-1,1-1h10c0.553,0,1,0.448,1,1v10
				c0,0.552-0.447,1-1,1H52c-0.553,0-1-0.448-1-1V28z"/>
		</g>
		<g>
			<path style="fill:#BBE7F2;" d="M45,27H33c-1.104,0-2,0.896-2,2v46.239V81c0,1.104,0.896,2,2,2h12c1.104,0,2-0.896,2-2V59.239V29
				C47,27.896,46.104,27,45,27z"/>
		</g>
		<g>
			<path style="fill:#E1F5FA;" d="M45,27H33c-1.104,0-2,0.896-2,2v46.239l16-16V29C47,27.896,46.104,27,45,27z"/>
		</g>
		<g>
			<path style="fill:#0F6175;" d="M52,39h10c0.553,0,1-0.448,1-1V28c0-0.552-0.447-1-1-1H52c-0.553,0-1,0.448-1,1v10
				C51,38.552,51.447,39,52,39z"/>
		</g>
		<g>
			<path style="fill:#0C333D;" d="M78.804,27.435C78.622,27.179,78.338,27,78,27H68c-0.553,0-1,0.448-1,1v10
				c0,0.339,0.179,0.623,0.436,0.804C67.599,38.918,67.786,39,68,39h10c0.553,0,1-0.448,1-1V28
				C79,27.786,78.918,27.599,78.804,27.435z"/>
		</g>
		<g>
			<path style="fill:#0F6175;" d="M78,27H68c-0.553,0-1,0.448-1,1v10c0,0.339,0.179,0.623,0.436,0.804l11.368-11.368
				C78.622,27.179,78.338,27,78,27z"/>
		</g>
		<g>
			<path style="fill:#009FC7;" d="M62.804,43.436C62.622,43.179,62.338,43,62,43H52c-0.553,0-1,0.448-1,1v10
				c0,0.339,0.179,0.623,0.436,0.804C51.599,54.918,51.786,55,52,55h10c0.553,0,1-0.448,1-1V44
				C63,43.786,62.918,43.599,62.804,43.436z"/>
		</g>
		<g>
			<path style="fill:#00B7E5;" d="M62,43H52c-0.553,0-1,0.448-1,1v10c0,0.339,0.179,0.623,0.436,0.804l11.368-11.368
				C62.622,43.179,62.338,43,62,43z"/>
		</g>
		<g>
			<path style="fill:#0081A1;" d="M39,43h-4v4l1.877,30.024C36.945,78.135,37.867,79,38.98,79H39h0.02
				c1.113,0,2.035-0.865,2.104-1.976L43,47v-4H39z"/>
		</g>
		<g>
			<path style="fill:#009FC7;" d="M35,43v4l1.877,30.024C36.945,78.135,37.867,79,38.98,79H39V43H35z"/>
		</g>
		<g>
			<path style="fill:#00B7E5;" d="M79,54c0,0.553-0.447,1-1,1H68c-0.553,0-1-0.447-1-1V44c0-0.552,0.447-1,1-1h10
				c0.553,0,1,0.448,1,1V54z"/>
		</g>
		<g>
			<path style="fill:#53BAD4;" d="M63,70c0,0.553-0.447,1-1,1H52c-0.553,0-1-0.447-1-1V60c0-0.552,0.447-1,1-1h10
				c0.553,0,1,0.448,1,1V70z"/>
		</g>
		<g>
			<path style="fill:#53BAD4;" d="M79,70c0,0.553-0.447,1-1,1H68c-0.553,0-1-0.447-1-1V60c0-0.552,0.447-1,1-1h10
				c0.553,0,1,0.448,1,1V70z"/>
		</g>
		<g>
			<path style="fill:#00B7E5;" d="M79,82c0,0.553-0.447,1-1,1H52c-0.553,0-1-0.447-1-1v-6c0-0.552,0.447-1,1-1h26
				c0.553,0,1,0.448,1,1V82z"/>
		</g>
		<g>
			<path style="fill:#0C333D;" d="M39,30L39,30c0,0-5,5.687-5,9c0,1.851,0.713,3.175,1.812,4H39h3.188
				C43.287,42.175,44,40.851,44,39C44,35.687,39.001,30.001,39,30z"/>
		</g>
		<g>
			<path style="fill:#0F6175;" d="M34,39c0,1.851,0.713,3.175,1.812,4H39V30l0,0C39,30,34,35.687,34,39z"/>
		</g>
		<g>
			<polygon style="fill:#81D2EB;" points="39,43 35,43 35,47 39,47 43,47 43,43 			"/>
		</g>
		<g>
			<polygon style="fill:#BBE7F2;" points="35.812,43 35,43 35,47 39,47 39,43 			"/>
		</g>
	</g>
</g>
<g id="R-Blue" style="display:none;">
	<circle style="display:inline;fill:#81D2EB;" cx="55" cy="55" r="55"/>
	<g style="display:inline;">
		<g>
			<path style="fill:#E1F5FA;" d="M81.937,24.303C81.205,23.507,80.166,23,79,23H31c-2.209,0-4,1.791-4,4v56c0,2.209,1.791,4,4,4h48
				c2.209,0,4-1.791,4-4V27C83,25.956,82.591,25.015,81.937,24.303z"/>
		</g>
		<g>
			<path style="fill:#FFFFFF;" d="M31,29c0-1.104,0.896-2,2-2h12c1.104,0,2,0.896,2,2v30.239l4.436-4.436
				C51.179,54.623,51,54.339,51,54V44c0-0.552,0.447-1,1-1h10c0.338,0,0.622,0.179,0.804,0.436l4.632-4.632
				C67.179,38.623,67,38.339,67,38V28c0-0.552,0.447-1,1-1h10c0.338,0,0.622,0.179,0.804,0.436l3.133-3.133
				C81.205,23.507,80.166,23,79,23H31c-2.209,0-4,1.791-4,4v52.239l4-4V29z M51,28c0-0.552,0.447-1,1-1h10c0.553,0,1,0.448,1,1v10
				c0,0.552-0.447,1-1,1H52c-0.553,0-1-0.448-1-1V28z"/>
		</g>
		<g>
			<path style="fill:#BBE7F2;" d="M45,27H33c-1.104,0-2,0.896-2,2v46.239V81c0,1.104,0.896,2,2,2h12c1.104,0,2-0.896,2-2V59.239V29
				C47,27.896,46.104,27,45,27z"/>
		</g>
		<g>
			<path style="fill:#E1F5FA;" d="M45,27H33c-1.104,0-2,0.896-2,2v46.239l16-16V29C47,27.896,46.104,27,45,27z"/>
		</g>
		<g>
			<path style="fill:#0F6175;" d="M52,39h10c0.553,0,1-0.448,1-1V28c0-0.552-0.447-1-1-1H52c-0.553,0-1,0.448-1,1v10
				C51,38.552,51.447,39,52,39z"/>
		</g>
		<g>
			<path style="fill:#0C333D;" d="M78.804,27.436C78.622,27.179,78.338,27,78,27H68c-0.553,0-1,0.448-1,1v10
				c0,0.339,0.179,0.623,0.435,0.804C67.599,38.918,67.786,39,68,39h10c0.553,0,1-0.448,1-1V28
				C79,27.786,78.918,27.599,78.804,27.436z"/>
		</g>
		<g>
			<path style="fill:#0F6175;" d="M78,27H68c-0.553,0-1,0.448-1,1v10c0,0.339,0.179,0.623,0.435,0.804l11.368-11.368
				C78.622,27.179,78.338,27,78,27z"/>
		</g>
		<g>
			<path style="fill:#009FC7;" d="M62.804,43.436C62.622,43.179,62.338,43,62,43H52c-0.553,0-1,0.448-1,1v10
				c0,0.339,0.179,0.623,0.436,0.804C51.599,54.918,51.786,55,52,55h10c0.553,0,1-0.448,1-1V44
				C63,43.786,62.918,43.599,62.804,43.436z"/>
		</g>
		<g>
			<path style="fill:#00B7E5;" d="M62,43H52c-0.553,0-1,0.448-1,1v10c0,0.339,0.179,0.623,0.436,0.804l11.368-11.368
				C62.622,43.179,62.338,43,62,43z"/>
		</g>
		<g>
			<path style="fill:#0081A1;" d="M39,43h-4v4l1.877,30.024C36.945,78.135,37.867,79,38.98,79H39h0.02
				c1.113,0,2.035-0.865,2.104-1.976L43,47v-4H39z"/>
		</g>
		<g>
			<path style="fill:#009FC7;" d="M35,43v4l1.877,30.024C36.945,78.135,37.867,79,38.98,79H39V43H35z"/>
		</g>
		<g>
			<path style="fill:#00B7E5;" d="M79,54c0,0.553-0.447,1-1,1H68c-0.553,0-1-0.447-1-1V44c0-0.552,0.447-1,1-1h10
				c0.553,0,1,0.448,1,1V54z"/>
		</g>
		<g>
			<path style="fill:#53BAD4;" d="M63,70c0,0.553-0.447,1-1,1H52c-0.553,0-1-0.447-1-1V60c0-0.552,0.447-1,1-1h10
				c0.553,0,1,0.448,1,1V70z"/>
		</g>
		<g>
			<path style="fill:#53BAD4;" d="M79,70c0,0.553-0.447,1-1,1H68c-0.553,0-1-0.447-1-1V60c0-0.552,0.447-1,1-1h10
				c0.553,0,1,0.448,1,1V70z"/>
		</g>
		<g>
			<path style="fill:#00B7E5;" d="M79,82c0,0.553-0.447,1-1,1H52c-0.553,0-1-0.447-1-1v-6c0-0.552,0.447-1,1-1h26
				c0.553,0,1,0.448,1,1V82z"/>
		</g>
		<g>
			<path style="fill:#0C333D;" d="M39,30L39,30c0,0-5,5.687-5,9c0,1.851,0.713,3.175,1.812,4H39h3.188
				C43.287,42.175,44,40.851,44,39C44,35.687,39.001,30.001,39,30z"/>
		</g>
		<g>
			<path style="fill:#0F6175;" d="M34,39c0,1.851,0.713,3.175,1.812,4H39V30l0,0C39,30,34,35.687,34,39z"/>
		</g>
		<g>
			<polygon style="fill:#81D2EB;" points="39,43 35,43 35,47 39,47 43,47 43,43 			"/>
		</g>
		<g>
			<polygon style="fill:#BBE7F2;" points="35.811,43 35,43 35,47 39,47 39,43 			"/>
		</g>
	</g>
</g>
<g id="Green" style="display:none;">
	<g style="display:inline;">
		<g>
			<path style="fill:#D7FCF9;" d="M81.937,24.303C81.205,23.507,80.166,23,79,23H31c-2.209,0-4,1.791-4,4v56c0,2.209,1.791,4,4,4h48
				c2.209,0,4-1.791,4-4V27C83,25.956,82.591,25.015,81.937,24.303z"/>
		</g>
		<g>
			<path style="fill:#FFFFFF;" d="M31,29c0-1.105,0.896-2,2-2h12c1.104,0,2,0.895,2,2v30.239l4.436-4.436
				C51.179,54.623,51,54.339,51,54V44c0-0.552,0.447-1,1-1h10c0.338,0,0.622,0.179,0.804,0.435l4.632-4.632
				C67.179,38.623,67,38.339,67,38V28c0-0.552,0.447-1,1-1h10c0.338,0,0.622,0.179,0.804,0.435l3.133-3.133
				C81.205,23.507,80.166,23,79,23H31c-2.209,0-4,1.791-4,4v52.239l4-4V29z M51,28c0-0.552,0.447-1,1-1h10c0.553,0,1,0.448,1,1v10
				c0,0.552-0.447,1-1,1H52c-0.553,0-1-0.448-1-1V28z"/>
		</g>
		<g>
			<path style="fill:#AAF0E9;" d="M45,27H33c-1.104,0-2,0.895-2,2v46.239V81c0,1.104,0.896,2,2,2h12c1.104,0,2-0.896,2-2V59.239V29
				C47,27.895,46.104,27,45,27z"/>
		</g>
		<g>
			<path style="fill:#D7FCF9;" d="M45,27H33c-1.104,0-2,0.895-2,2v46.239l16-16V29C47,27.895,46.104,27,45,27z"/>
		</g>
		<g>
			<path style="fill:#14635B;" d="M52,39h10c0.553,0,1-0.448,1-1V28c0-0.552-0.447-1-1-1H52c-0.553,0-1,0.448-1,1v10
				C51,38.552,51.447,39,52,39z"/>
		</g>
		<g>
			<path style="fill:#0A3631;" d="M78.804,27.435C78.622,27.179,78.338,27,78,27H68c-0.553,0-1,0.448-1,1v10
				c0,0.339,0.179,0.623,0.436,0.804C67.599,38.918,67.786,39,68,39h10c0.553,0,1-0.448,1-1V28
				C79,27.786,78.918,27.599,78.804,27.435z"/>
		</g>
		<g>
			<path style="fill:#14635B;" d="M78,27H68c-0.553,0-1,0.448-1,1v10c0,0.339,0.179,0.623,0.436,0.804l11.368-11.368
				C78.622,27.179,78.338,27,78,27z"/>
		</g>
		<g>
			<path style="fill:#00B8A5;" d="M62.804,43.435C62.622,43.179,62.338,43,62,43H52c-0.553,0-1,0.448-1,1v10
				c0,0.339,0.179,0.623,0.436,0.804C51.599,54.918,51.786,55,52,55h10c0.553,0,1-0.448,1-1V44
				C63,43.786,62.918,43.599,62.804,43.435z"/>
		</g>
		<g>
			<path style="fill:#00D6C1;" d="M62,43H52c-0.553,0-1,0.448-1,1v10c0,0.339,0.179,0.623,0.436,0.804l11.368-11.368
				C62.622,43.179,62.338,43,62,43z"/>
		</g>
		<g>
			<path style="fill:#009687;" d="M39,43h-4v4l1.877,30.024C36.945,78.135,37.867,79,38.98,79H39h0.02
				c1.113,0,2.035-0.865,2.104-1.976L43,47v-4H39z"/>
		</g>
		<g>
			<path style="fill:#00B8A5;" d="M35,43v4l1.877,30.024C36.945,78.135,37.867,79,38.98,79H39V43H35z"/>
		</g>
		<g>
			<path style="fill:#00D6C1;" d="M79,54c0,0.553-0.447,1-1,1H68c-0.553,0-1-0.447-1-1V44c0-0.552,0.447-1,1-1h10
				c0.553,0,1,0.448,1,1V54z"/>
		</g>
		<g>
			<path style="fill:#55C9BE;" d="M63,70c0,0.553-0.447,1-1,1H52c-0.553,0-1-0.447-1-1V60c0-0.552,0.447-1,1-1h10
				c0.553,0,1,0.448,1,1V70z"/>
		</g>
		<g>
			<path style="fill:#55C9BE;" d="M79,70c0,0.553-0.447,1-1,1H68c-0.553,0-1-0.447-1-1V60c0-0.552,0.447-1,1-1h10
				c0.553,0,1,0.448,1,1V70z"/>
		</g>
		<g>
			<path style="fill:#00D6C1;" d="M79,82c0,0.553-0.447,1-1,1H52c-0.553,0-1-0.447-1-1v-6c0-0.552,0.447-1,1-1h26
				c0.553,0,1,0.448,1,1V82z"/>
		</g>
		<g>
			<path style="fill:#0A3631;" d="M39,30L39,30c0,0-5,5.687-5,9c0,1.851,0.713,3.175,1.812,4H39h3.188
				C43.287,42.175,44,40.851,44,39C44,35.687,39.001,30.001,39,30z"/>
		</g>
		<g>
			<path style="fill:#14635B;" d="M34,39c0,1.851,0.713,3.175,1.812,4H39V30l0,0C39,30,34,35.687,34,39z"/>
		</g>
		<g>
			<polygon style="fill:#77E0C4;" points="39,43 35,43 35,47 39,47 43,47 43,43 			"/>
		</g>
		<g>
			<polygon style="fill:#AAF0E9;" points="35.812,43 35,43 35,47 39,47 39,43 			"/>
		</g>
	</g>
</g>
<g id="R-Green" style="display:none;">
	<circle style="display:inline;fill:#77E0C4;" cx="55" cy="55" r="55"/>
	<g style="display:inline;">
		<g>
			<path style="fill:#D7FCF9;" d="M81.937,24.303C81.205,23.507,80.166,23,79,23H31c-2.209,0-4,1.791-4,4v56c0,2.209,1.791,4,4,4h48
				c2.209,0,4-1.791,4-4V27C83,25.956,82.591,25.015,81.937,24.303z"/>
		</g>
		<g>
			<path style="fill:#FFFFFF;" d="M31,29c0-1.104,0.896-2,2-2h12c1.104,0,2,0.896,2,2v30.239l4.436-4.436
				C51.179,54.623,51,54.339,51,54V44c0-0.552,0.447-1,1-1h10c0.338,0,0.622,0.179,0.804,0.436l4.632-4.632
				C67.179,38.623,67,38.339,67,38V28c0-0.552,0.447-1,1-1h10c0.338,0,0.622,0.179,0.804,0.436l3.133-3.133
				C81.205,23.507,80.166,23,79,23H31c-2.209,0-4,1.791-4,4v52.239l4-4V29z M51,28c0-0.552,0.447-1,1-1h10c0.553,0,1,0.448,1,1v10
				c0,0.552-0.447,1-1,1H52c-0.553,0-1-0.448-1-1V28z"/>
		</g>
		<g>
			<path style="fill:#AAF0E9;" d="M45,27H33c-1.104,0-2,0.896-2,2v46.239V81c0,1.104,0.896,2,2,2h12c1.104,0,2-0.896,2-2V59.239V29
				C47,27.896,46.104,27,45,27z"/>
		</g>
		<g>
			<path style="fill:#D7FCF9;" d="M45,27H33c-1.104,0-2,0.896-2,2v46.239l16-16V29C47,27.896,46.104,27,45,27z"/>
		</g>
		<g>
			<path style="fill:#14635B;" d="M52,39h10c0.553,0,1-0.448,1-1V28c0-0.552-0.447-1-1-1H52c-0.553,0-1,0.448-1,1v10
				C51,38.552,51.447,39,52,39z"/>
		</g>
		<g>
			<path style="fill:#0A3631;" d="M78.804,27.436C78.622,27.179,78.338,27,78,27H68c-0.553,0-1,0.448-1,1v10
				c0,0.339,0.179,0.623,0.436,0.804C67.599,38.918,67.786,39,68,39h10c0.553,0,1-0.448,1-1V28
				C79,27.786,78.918,27.599,78.804,27.436z"/>
		</g>
		<g>
			<path style="fill:#14635B;" d="M78,27H68c-0.553,0-1,0.448-1,1v10c0,0.339,0.179,0.623,0.436,0.804l11.368-11.368
				C78.622,27.179,78.338,27,78,27z"/>
		</g>
		<g>
			<path style="fill:#00B8A5;" d="M62.804,43.436C62.622,43.179,62.338,43,62,43H52c-0.553,0-1,0.448-1,1v10
				c0,0.339,0.179,0.623,0.436,0.804C51.599,54.918,51.786,55,52,55h10c0.553,0,1-0.448,1-1V44
				C63,43.786,62.918,43.599,62.804,43.436z"/>
		</g>
		<g>
			<path style="fill:#00D6C1;" d="M62,43H52c-0.553,0-1,0.448-1,1v10c0,0.339,0.179,0.623,0.436,0.804l11.368-11.368
				C62.622,43.179,62.338,43,62,43z"/>
		</g>
		<g>
			<path style="fill:#009687;" d="M39,43h-4v4l1.877,30.024C36.945,78.135,37.867,79,38.98,79H39h0.02
				c1.113,0,2.035-0.865,2.104-1.976L43,47v-4H39z"/>
		</g>
		<g>
			<path style="fill:#00B8A5;" d="M35,43v4l1.877,30.024C36.945,78.135,37.867,79,38.98,79H39V43H35z"/>
		</g>
		<g>
			<path style="fill:#00D6C1;" d="M79,54c0,0.553-0.447,1-1,1H68c-0.553,0-1-0.447-1-1V44c0-0.552,0.447-1,1-1h10
				c0.553,0,1,0.448,1,1V54z"/>
		</g>
		<g>
			<path style="fill:#55C9BE;" d="M63,70c0,0.553-0.447,1-1,1H52c-0.553,0-1-0.447-1-1V60c0-0.552,0.447-1,1-1h10
				c0.553,0,1,0.448,1,1V70z"/>
		</g>
		<g>
			<path style="fill:#55C9BE;" d="M79,70c0,0.553-0.447,1-1,1H68c-0.553,0-1-0.447-1-1V60c0-0.552,0.447-1,1-1h10
				c0.553,0,1,0.448,1,1V70z"/>
		</g>
		<g>
			<path style="fill:#00D6C1;" d="M79,82c0,0.553-0.447,1-1,1H52c-0.553,0-1-0.447-1-1v-6c0-0.552,0.447-1,1-1h26
				c0.553,0,1,0.448,1,1V82z"/>
		</g>
		<g>
			<path style="fill:#0A3631;" d="M39,30L39,30c0,0-5,5.687-5,9c0,1.851,0.713,3.175,1.812,4H39h3.188
				C43.287,42.175,44,40.851,44,39C44,35.687,39.001,30.001,39,30z"/>
		</g>
		<g>
			<path style="fill:#14635B;" d="M34,39c0,1.851,0.713,3.175,1.812,4H39V30l0,0C39,30,34,35.687,34,39z"/>
		</g>
		<g>
			<polygon style="fill:#77E0C4;" points="39,43 35,43 35,47 39,47 43,47 43,43 			"/>
		</g>
		<g>
			<polygon style="fill:#AAF0E9;" points="35.812,43 35,43 35,47 39,47 39,43 			"/>
		</g>
	</g>
</g>
<g id="Red" style="display:none;">
	<g style="display:inline;">
		<g>
			<path style="fill:#FFEFED;" d="M81.936,24.303C81.205,23.507,80.166,23,79,23H31c-2.209,0-4,1.791-4,4v56c0,2.209,1.791,4,4,4h48
				c2.209,0,4-1.791,4-4V27C83,25.956,82.591,25.014,81.936,24.303z"/>
		</g>
		<g>
			<path style="fill:#FFFFFF;" d="M31,29c0-1.104,0.896-2,2-2h12c1.104,0,2,0.896,2,2v30.239l4.435-4.436
				C51.179,54.623,51,54.339,51,54V44c0-0.552,0.447-1,1-1h10c0.338,0,0.622,0.179,0.804,0.435l4.632-4.632
				C67.179,38.623,67,38.339,67,38V28c0-0.552,0.447-1,1-1h10c0.338,0,0.622,0.179,0.804,0.435l3.133-3.133
				C81.205,23.507,80.166,23,79,23H31c-2.209,0-4,1.791-4,4v52.239l4-4V29z M51,28c0-0.552,0.447-1,1-1h10c0.553,0,1,0.448,1,1v10
				c0,0.552-0.447,1-1,1H52c-0.553,0-1-0.448-1-1V28z"/>
		</g>
		<g>
			<path style="fill:#FFD7D4;" d="M45,27H33c-1.104,0-2,0.896-2,2v46.239V81c0,1.104,0.896,2,2,2h12c1.104,0,2-0.896,2-2V59.239V29
				C47,27.895,46.104,27,45,27z"/>
		</g>
		<g>
			<path style="fill:#FFEFED;" d="M45,27H33c-1.104,0-2,0.896-2,2v46.239l16-16V29C47,27.895,46.104,27,45,27z"/>
		</g>
		<g>
			<path style="fill:#7D261E;" d="M52,39h10c0.553,0,1-0.448,1-1V28c0-0.552-0.447-1-1-1H52c-0.553,0-1,0.448-1,1v10
				C51,38.552,51.447,39,52,39z"/>
		</g>
		<g>
			<path style="fill:#4A1410;" d="M78.804,27.435C78.622,27.179,78.338,27,78,27H68c-0.553,0-1,0.448-1,1v10
				c0,0.339,0.179,0.623,0.435,0.804C67.599,38.918,67.786,39,68,39h10c0.553,0,1-0.448,1-1V28
				C79,27.786,78.918,27.598,78.804,27.435z"/>
		</g>
		<g>
			<path style="fill:#7D261E;" d="M78,27H68c-0.553,0-1,0.448-1,1v10c0,0.339,0.179,0.623,0.435,0.804l11.368-11.368
				C78.622,27.179,78.338,27,78,27z"/>
		</g>
		<g>
			<path style="fill:#E54B44;" d="M62.804,43.435C62.622,43.179,62.338,43,62,43H52c-0.553,0-1,0.448-1,1v10
				c0,0.339,0.179,0.623,0.435,0.804C51.599,54.918,51.786,55,52,55h10c0.553,0,1-0.448,1-1V44
				C63,43.786,62.918,43.598,62.804,43.435z"/>
		</g>
		<g>
			<path style="fill:#FF6C5E;" d="M62,43H52c-0.553,0-1,0.448-1,1v10c0,0.339,0.179,0.623,0.435,0.804l11.368-11.368
				C62.622,43.179,62.338,43,62,43z"/>
		</g>
		<g>
			<path style="fill:#C23023;" d="M39,43h-4v4l1.877,30.024C36.945,78.135,37.867,79,38.98,79H39h0.019
				c1.113,0,2.035-0.865,2.104-1.976L43,47v-4H39z"/>
		</g>
		<g>
			<path style="fill:#E54B44;" d="M35,43v4l1.877,30.024C36.945,78.135,37.867,79,38.98,79H39V43H35z"/>
		</g>
		<g>
			<path style="fill:#FF6C5E;" d="M79,54c0,0.553-0.447,1-1,1H68c-0.553,0-1-0.447-1-1V44c0-0.552,0.447-1,1-1h10
				c0.553,0,1,0.448,1,1V54z"/>
		</g>
		<g>
			<path style="fill:#E8A099;" d="M63,70c0,0.553-0.447,1-1,1H52c-0.553,0-1-0.447-1-1V60c0-0.552,0.447-1,1-1h10
				c0.553,0,1,0.448,1,1V70z"/>
		</g>
		<g>
			<path style="fill:#E8A099;" d="M79,70c0,0.553-0.447,1-1,1H68c-0.553,0-1-0.447-1-1V60c0-0.552,0.447-1,1-1h10
				c0.553,0,1,0.448,1,1V70z"/>
		</g>
		<g>
			<path style="fill:#FF6C5E;" d="M79,82c0,0.553-0.447,1-1,1H52c-0.553,0-1-0.447-1-1v-6c0-0.552,0.447-1,1-1h26
				c0.553,0,1,0.448,1,1V82z"/>
		</g>
		<g>
			<path style="fill:#4A1410;" d="M39,30L39,30c0,0-5,5.686-5,9c0,1.851,0.713,3.175,1.811,4H39h3.188C43.287,42.175,44,40.85,44,39
				C44,35.686,39.001,30.001,39,30z"/>
		</g>
		<g>
			<path style="fill:#7D261E;" d="M34,39c0,1.851,0.713,3.175,1.811,4H39V30l0,0C39,30,34,35.686,34,39z"/>
		</g>
		<g>
			<polygon style="fill:#FABBAF;" points="39,43 35,43 35,47 39,47 43,47 43,43 			"/>
		</g>
		<g>
			<polygon style="fill:#FFD7D4;" points="35.811,43 35,43 35,47 39,47 39,43 			"/>
		</g>
	</g>
</g>
<g id="R-Red" style="display:none;">
	<circle style="display:inline;fill:#FABBAF;" cx="55" cy="55" r="55"/>
	<g style="display:inline;">
		<g>
			<path style="fill:#FFEFED;" d="M81.936,24.303C81.205,23.507,80.166,23,79,23H31c-2.209,0-4,1.791-4,4v56c0,2.209,1.791,4,4,4h48
				c2.209,0,4-1.791,4-4V27C83,25.956,82.591,25.015,81.936,24.303z"/>
		</g>
		<g>
			<path style="fill:#FFFFFF;" d="M31,29c0-1.104,0.896-2,2-2h12c1.104,0,2,0.896,2,2v30.239l4.435-4.436
				C51.179,54.623,51,54.339,51,54V44c0-0.552,0.447-1,1-1h10c0.338,0,0.622,0.179,0.804,0.436l4.632-4.632
				C67.179,38.623,67,38.339,67,38V28c0-0.552,0.447-1,1-1h10c0.338,0,0.622,0.179,0.804,0.435l3.133-3.133
				C81.205,23.507,80.166,23,79,23H31c-2.209,0-4,1.791-4,4v52.239l4-4V29z M51,28c0-0.552,0.447-1,1-1h10c0.553,0,1,0.448,1,1v10
				c0,0.552-0.447,1-1,1H52c-0.553,0-1-0.448-1-1V28z"/>
		</g>
		<g>
			<path style="fill:#FFD7D4;" d="M45,27H33c-1.104,0-2,0.896-2,2v46.239V81c0,1.104,0.896,2,2,2h12c1.104,0,2-0.896,2-2V59.239V29
				C47,27.896,46.104,27,45,27z"/>
		</g>
		<g>
			<path style="fill:#FFEFED;" d="M45,27H33c-1.104,0-2,0.896-2,2v46.239l16-16V29C47,27.896,46.104,27,45,27z"/>
		</g>
		<g>
			<path style="fill:#7D261E;" d="M52,39h10c0.553,0,1-0.448,1-1V28c0-0.552-0.447-1-1-1H52c-0.553,0-1,0.448-1,1v10
				C51,38.552,51.447,39,52,39z"/>
		</g>
		<g>
			<path style="fill:#4A1410;" d="M78.804,27.435C78.622,27.179,78.338,27,78,27H68c-0.553,0-1,0.448-1,1v10
				c0,0.339,0.179,0.623,0.435,0.804C67.599,38.918,67.786,39,68,39h10c0.553,0,1-0.448,1-1V28
				C79,27.786,78.918,27.599,78.804,27.435z"/>
		</g>
		<g>
			<path style="fill:#7D261E;" d="M78,27H68c-0.553,0-1,0.448-1,1v10c0,0.339,0.179,0.623,0.435,0.804l11.368-11.368
				C78.622,27.179,78.338,27,78,27z"/>
		</g>
		<g>
			<path style="fill:#E54B44;" d="M62.804,43.436C62.622,43.179,62.338,43,62,43H52c-0.553,0-1,0.448-1,1v10
				c0,0.339,0.179,0.623,0.435,0.804C51.599,54.918,51.786,55,52,55h10c0.553,0,1-0.448,1-1V44
				C63,43.786,62.918,43.599,62.804,43.436z"/>
		</g>
		<g>
			<path style="fill:#FF6C5E;" d="M62,43H52c-0.553,0-1,0.448-1,1v10c0,0.339,0.179,0.623,0.435,0.804l11.368-11.368
				C62.622,43.179,62.338,43,62,43z"/>
		</g>
		<g>
			<path style="fill:#C23023;" d="M39,43h-4v4l1.877,30.024C36.945,78.135,37.867,79,38.98,79H39h0.019
				c1.113,0,2.035-0.865,2.104-1.976L43,47v-4H39z"/>
		</g>
		<g>
			<path style="fill:#E54B44;" d="M35,43v4l1.877,30.024C36.945,78.135,37.867,79,38.98,79H39V43H35z"/>
		</g>
		<g>
			<path style="fill:#FF6C5E;" d="M79,54c0,0.553-0.447,1-1,1H68c-0.553,0-1-0.447-1-1V44c0-0.552,0.447-1,1-1h10
				c0.553,0,1,0.448,1,1V54z"/>
		</g>
		<g>
			<path style="fill:#E8A099;" d="M63,70c0,0.553-0.447,1-1,1H52c-0.553,0-1-0.447-1-1V60c0-0.552,0.447-1,1-1h10
				c0.553,0,1,0.448,1,1V70z"/>
		</g>
		<g>
			<path style="fill:#E8A099;" d="M79,70c0,0.553-0.447,1-1,1H68c-0.553,0-1-0.447-1-1V60c0-0.552,0.447-1,1-1h10
				c0.553,0,1,0.448,1,1V70z"/>
		</g>
		<g>
			<path style="fill:#FF6C5E;" d="M79,82c0,0.553-0.447,1-1,1H52c-0.553,0-1-0.447-1-1v-6c0-0.552,0.447-1,1-1h26
				c0.553,0,1,0.448,1,1V82z"/>
		</g>
		<g>
			<path style="fill:#4A1410;" d="M39,30L39,30c0,0-5,5.687-5,9c0,1.851,0.713,3.175,1.811,4H39h3.188
				C43.287,42.175,44,40.851,44,39C44,35.687,39.001,30.001,39,30z"/>
		</g>
		<g>
			<path style="fill:#7D261E;" d="M34,39c0,1.851,0.713,3.175,1.811,4H39V30l0,0C39,30,34,35.687,34,39z"/>
		</g>
		<g>
			<polygon style="fill:#FABBAF;" points="39,43 35,43 35,47 39,47 43,47 43,43 			"/>
		</g>
		<g>
			<polygon style="fill:#FFD7D4;" points="35.811,43 35,43 35,47 39,47 39,43 			"/>
		</g>
	</g>
</g>
<g id="Yellow" style="display:none;">
	<g style="display:inline;">
		<g>
			<path style="fill:#FFF5D9;" d="M81.937,24.303C81.205,23.507,80.166,23,79,23H31c-2.209,0-4,1.791-4,4v56c0,2.209,1.791,4,4,4h48
				c2.209,0,4-1.791,4-4V27C83,25.956,82.591,25.014,81.937,24.303z"/>
		</g>
		<g>
			<path style="fill:#FFFFFF;" d="M31,29c0-1.104,0.896-2,2-2h12c1.104,0,2,0.896,2,2v30.239l4.436-4.436
				C51.179,54.623,51,54.339,51,54V44c0-0.552,0.447-1,1-1h10c0.338,0,0.622,0.179,0.804,0.435l4.632-4.632
				C67.179,38.623,67,38.339,67,38V28c0-0.552,0.447-1,1-1h10c0.338,0,0.622,0.179,0.804,0.436l3.133-3.133
				C81.205,23.507,80.166,23,79,23H31c-2.209,0-4,1.791-4,4v52.239l4-4V29z M51,28c0-0.552,0.447-1,1-1h10c0.553,0,1,0.448,1,1v10
				c0,0.552-0.447,1-1,1H52c-0.553,0-1-0.448-1-1V28z"/>
		</g>
		<g>
			<path style="fill:#FFE9A1;" d="M45,27H33c-1.104,0-2,0.896-2,2v46.239V81c0,1.104,0.896,2,2,2h12c1.104,0,2-0.896,2-2V59.239V29
				C47,27.895,46.104,27,45,27z"/>
		</g>
		<g>
			<path style="fill:#FFF5D9;" d="M45,27H33c-1.104,0-2,0.896-2,2v46.239l16-16V29C47,27.895,46.104,27,45,27z"/>
		</g>
		<g>
			<path style="fill:#66510D;" d="M52,39h10c0.553,0,1-0.448,1-1V28c0-0.552-0.447-1-1-1H52c-0.553,0-1,0.448-1,1v10
				C51,38.552,51.447,39,52,39z"/>
		</g>
		<g>
			<path style="fill:#3D320C;" d="M78.804,27.435C78.622,27.179,78.338,27,78,27H68c-0.553,0-1,0.448-1,1v10
				c0,0.339,0.179,0.623,0.436,0.804C67.599,38.918,67.786,39,68,39h10c0.553,0,1-0.448,1-1V28
				C79,27.786,78.918,27.598,78.804,27.435z"/>
		</g>
		<g>
			<path style="fill:#66510D;" d="M78,27H68c-0.553,0-1,0.448-1,1v10c0,0.339,0.179,0.623,0.436,0.804l11.368-11.368
				C78.622,27.179,78.338,27,78,27z"/>
		</g>
		<g>
			<path style="fill:#FA9200;" d="M62.804,43.435C62.622,43.179,62.338,43,62,43H52c-0.553,0-1,0.448-1,1v10
				c0,0.339,0.179,0.623,0.436,0.804C51.599,54.918,51.786,55,52,55h10c0.553,0,1-0.448,1-1V44
				C63,43.786,62.918,43.598,62.804,43.435z"/>
		</g>
		<g>
			<path style="fill:#FFAA00;" d="M62,43H52c-0.553,0-1,0.448-1,1v10c0,0.339,0.179,0.623,0.436,0.804l11.368-11.368
				C62.622,43.179,62.338,43,62,43z"/>
		</g>
		<g>
			<path style="fill:#E07000;" d="M39,43h-4v4l1.877,30.024C36.945,78.135,37.867,79,38.98,79H39h0.02
				c1.113,0,2.035-0.865,2.104-1.976L43,47v-4H39z"/>
		</g>
		<g>
			<path style="fill:#FA9200;" d="M35,43v4l1.877,30.024C36.945,78.135,37.867,79,38.98,79H39V43H35z"/>
		</g>
		<g>
			<path style="fill:#FFAA00;" d="M79,54c0,0.553-0.447,1-1,1H68c-0.553,0-1-0.447-1-1V44c0-0.552,0.447-1,1-1h10
				c0.553,0,1,0.448,1,1V54z"/>
		</g>
		<g>
			<path style="fill:#F5C43D;" d="M63,70c0,0.553-0.447,1-1,1H52c-0.553,0-1-0.447-1-1V60c0-0.552,0.447-1,1-1h10
				c0.553,0,1,0.448,1,1V70z"/>
		</g>
		<g>
			<path style="fill:#F5C43D;" d="M79,70c0,0.553-0.447,1-1,1H68c-0.553,0-1-0.447-1-1V60c0-0.552,0.447-1,1-1h10
				c0.553,0,1,0.448,1,1V70z"/>
		</g>
		<g>
			<path style="fill:#FFAA00;" d="M79,82c0,0.553-0.447,1-1,1H52c-0.553,0-1-0.447-1-1v-6c0-0.552,0.447-1,1-1h26
				c0.553,0,1,0.448,1,1V82z"/>
		</g>
		<g>
			<path style="fill:#3D320C;" d="M39,30L39,30c0,0-5,5.686-5,9c0,1.851,0.713,3.175,1.812,4H39h3.188C43.287,42.175,44,40.85,44,39
				C44,35.686,39.001,30.001,39,30z"/>
		</g>
		<g>
			<path style="fill:#66510D;" d="M34,39c0,1.851,0.713,3.175,1.812,4H39V30l0,0C39,30,34,35.686,34,39z"/>
		</g>
		<g>
			<polygon style="fill:#FFD75E;" points="39,43 35,43 35,47 39,47 43,47 43,43 			"/>
		</g>
		<g>
			<polygon style="fill:#FFE9A1;" points="35.812,43 35,43 35,47 39,47 39,43 			"/>
		</g>
	</g>
</g>
<g id="R-Yellow" style="display:none;">
	<circle style="display:inline;fill:#FFD75E;" cx="55" cy="55" r="55"/>
	<g style="display:inline;">
		<g>
			<path style="fill:#FFF5D9;" d="M81.937,24.303C81.205,23.507,80.166,23,79,23H31c-2.209,0-4,1.791-4,4v56c0,2.209,1.791,4,4,4h48
				c2.209,0,4-1.791,4-4V27C83,25.956,82.591,25.015,81.937,24.303z"/>
		</g>
		<g>
			<path style="fill:#FFFFFF;" d="M31,29c0-1.104,0.896-2,2-2h12c1.104,0,2,0.896,2,2v30.239l4.436-4.436
				C51.179,54.623,51,54.339,51,54V44c0-0.552,0.447-1,1-1h10c0.338,0,0.622,0.179,0.804,0.436l4.632-4.632
				C67.179,38.623,67,38.339,67,38V28c0-0.552,0.447-1,1-1h10c0.338,0,0.622,0.179,0.804,0.436l3.133-3.133
				C81.205,23.507,80.166,23,79,23H31c-2.209,0-4,1.791-4,4v52.239l4-4V29z M51,28c0-0.552,0.447-1,1-1h10c0.553,0,1,0.448,1,1v10
				c0,0.552-0.447,1-1,1H52c-0.553,0-1-0.448-1-1V28z"/>
		</g>
		<g>
			<path style="fill:#FFE9A1;" d="M45,27H33c-1.104,0-2,0.896-2,2v46.239V81c0,1.104,0.896,2,2,2h12c1.104,0,2-0.896,2-2V59.239V29
				C47,27.896,46.104,27,45,27z"/>
		</g>
		<g>
			<path style="fill:#FFF5D9;" d="M45,27H33c-1.104,0-2,0.896-2,2v46.239l16-16V29C47,27.896,46.104,27,45,27z"/>
		</g>
		<g>
			<path style="fill:#66510D;" d="M52,39h10c0.553,0,1-0.448,1-1V28c0-0.552-0.447-1-1-1H52c-0.553,0-1,0.448-1,1v10
				C51,38.552,51.447,39,52,39z"/>
		</g>
		<g>
			<path style="fill:#3D320C;" d="M78.804,27.436C78.622,27.179,78.338,27,78,27H68c-0.553,0-1,0.448-1,1v10
				c0,0.339,0.179,0.623,0.436,0.804C67.599,38.918,67.786,39,68,39h10c0.553,0,1-0.448,1-1V28
				C79,27.786,78.918,27.599,78.804,27.436z"/>
		</g>
		<g>
			<path style="fill:#66510D;" d="M78,27H68c-0.553,0-1,0.448-1,1v10c0,0.339,0.179,0.623,0.436,0.804l11.368-11.368
				C78.622,27.179,78.338,27,78,27z"/>
		</g>
		<g>
			<path style="fill:#FA9200;" d="M62.804,43.436C62.622,43.179,62.338,43,62,43H52c-0.553,0-1,0.448-1,1v10
				c0,0.339,0.179,0.623,0.436,0.804C51.599,54.918,51.786,55,52,55h10c0.553,0,1-0.448,1-1V44
				C63,43.786,62.918,43.599,62.804,43.436z"/>
		</g>
		<g>
			<path style="fill:#FFAA00;" d="M62,43H52c-0.553,0-1,0.448-1,1v10c0,0.339,0.179,0.623,0.436,0.804l11.368-11.368
				C62.622,43.179,62.338,43,62,43z"/>
		</g>
		<g>
			<path style="fill:#E07000;" d="M39,43h-4v4l1.877,30.024C36.945,78.135,37.867,79,38.98,79H39h0.02
				c1.113,0,2.035-0.865,2.104-1.976L43,47v-4H39z"/>
		</g>
		<g>
			<path style="fill:#FA9200;" d="M35,43v4l1.877,30.024C36.945,78.135,37.867,79,38.98,79H39V43H35z"/>
		</g>
		<g>
			<path style="fill:#FFAA00;" d="M79,54c0,0.553-0.447,1-1,1H68c-0.553,0-1-0.447-1-1V44c0-0.552,0.447-1,1-1h10
				c0.553,0,1,0.448,1,1V54z"/>
		</g>
		<g>
			<path style="fill:#F5C43D;" d="M63,70c0,0.553-0.447,1-1,1H52c-0.553,0-1-0.447-1-1V60c0-0.552,0.447-1,1-1h10
				c0.553,0,1,0.448,1,1V70z"/>
		</g>
		<g>
			<path style="fill:#F5C43D;" d="M79,70c0,0.553-0.447,1-1,1H68c-0.553,0-1-0.447-1-1V60c0-0.552,0.447-1,1-1h10
				c0.553,0,1,0.448,1,1V70z"/>
		</g>
		<g>
			<path style="fill:#FFAA00;" d="M79,82c0,0.553-0.447,1-1,1H52c-0.553,0-1-0.447-1-1v-6c0-0.552,0.447-1,1-1h26
				c0.553,0,1,0.448,1,1V82z"/>
		</g>
		<g>
			<path style="fill:#3D320C;" d="M39,30L39,30c0,0-5,5.687-5,9c0,1.851,0.713,3.175,1.812,4H39h3.188
				C43.287,42.175,44,40.851,44,39C44,35.687,39.001,30.001,39,30z"/>
		</g>
		<g>
			<path style="fill:#66510D;" d="M34,39c0,1.851,0.713,3.175,1.812,4H39V30l0,0C39,30,34,35.687,34,39z"/>
		</g>
		<g>
			<polygon style="fill:#FFD75E;" points="39,43 35,43 35,47 39,47 43,47 43,43 			"/>
		</g>
		<g>
			<polygon style="fill:#FFE9A1;" points="35.812,43 35,43 35,47 39,47 39,43 			"/>
		</g>
	</g>
</g>
</svg>
