<?xml version="1.0" encoding="iso-8859-1"?>
<!-- Generator: Adobe Illustrator 17.1.0, SVG Export Plug-In . SVG Version: 6.00 Build 0)  -->
<!DOCTYPE svg PUBLIC "-//W3C//DTD SVG 1.0//EN" "http://www.w3.org/TR/2001/REC-SVG-20010904/DTD/svg10.dtd">
<svg version="1.0" xmlns="http://www.w3.org/2000/svg" xmlns:xlink="http://www.w3.org/1999/xlink" x="0px" y="0px" width="110px"
	 height="110px" viewBox="0 0 110 110" style="enable-background:new 0 0 110 110;" xml:space="preserve">
<g id="Artboard" style="display:none;">
	<rect x="-1240" y="-70" style="display:inline;fill:#808080;" width="1437" height="372"/>
</g>
<g id="R-Multicolor" style="display:none;">
	<circle style="display:inline;fill:#25B7D3;" cx="55" cy="55" r="55"/>
	<g style="display:inline;">
		<path style="fill:#FBE158;" d="M65.777,48.614L83.646,23H87L67.938,50.322C67.252,49.712,66.54,49.131,65.777,48.614z"/>
		<path style="fill:#DF2C2C;" d="M58.624,45.527L74.341,23h9.305L65.777,48.614C63.643,47.165,61.222,46.112,58.624,45.527z"/>
		<path style="fill:#FBE158;" d="M55.668,45.084L71.076,23h3.265L58.624,45.527C57.662,45.311,56.675,45.164,55.668,45.084z"/>
		<circle style="fill:#F3B607;" cx="55" cy="66" r="21"/>
		<circle style="fill:#FBE158;" cx="55" cy="66" r="15.5"/>
		<g>
			<path style="fill:#FFFFFF;" d="M86.898,49.134C86.956,49.125,87,49.075,87,49.015v-0.031c0-0.059-0.043-0.11-0.102-0.119
				c-3.342-0.501-5.263-2.423-5.764-5.764C81.125,43.043,81.075,43,81.015,43h-0.03c-0.059,0-0.11,0.043-0.119,0.102
				c-0.501,3.341-2.422,5.263-5.764,5.764C75.043,48.875,75,48.925,75,48.985v0.03c0,0.059,0.043,0.11,0.102,0.119
				c3.342,0.501,5.263,2.423,5.764,5.764C80.875,54.957,80.925,55,80.985,55h0.043c0.052,0,0.096-0.038,0.104-0.089
				C81.63,51.562,83.552,49.636,86.898,49.134z"/>
		</g>
		<g>
			<path style="fill:#FFFFFF;" d="M36.881,80.156C36.949,80.146,37,80.087,37,80.018v-0.036c0-0.069-0.051-0.128-0.119-0.138
				c-3.899-0.585-6.14-2.827-6.725-6.725C30.146,73.05,30.087,73,30.018,73h-0.035c-0.069,0-0.128,0.051-0.138,0.119
				c-0.585,3.898-2.826,6.14-6.725,6.725C23.05,79.854,23,79.913,23,79.982v0.035c0,0.069,0.051,0.128,0.119,0.138
				c3.899,0.585,6.14,2.827,6.725,6.725C29.854,86.95,29.913,87,29.982,87h0.05c0.061,0,0.112-0.044,0.121-0.104
				C30.735,82.989,32.977,80.742,36.881,80.156z"/>
		</g>
		<path style="fill:#FACB1B;" d="M55,45c-11.598,0-21,9.402-21,21c0,5.88,2.423,11.189,6.318,15.001l29.683-29.683
			C66.189,47.423,60.88,45,55,45z"/>
		<path style="fill:#FCF6C2;" d="M55,50.5c-8.561,0-15.5,6.939-15.5,15.5c0,4.361,1.808,8.295,4.707,11.112l21.905-21.905
			C63.295,52.308,59.361,50.5,55,50.5z"/>
		<g>
			<path style="fill:#F99134;" d="M53.635,60.479c-0.539,0.14-1.808,0.517-2.326,0.517c-1.034,0-1.924-0.861-1.924-1.895
				c0-0.89,0.574-1.636,1.464-1.895l2.843-0.833C54.525,56.143,55.156,56,55.76,56h0.057C57.024,56,58,56.976,58,58.182v16.196
				c0,1.206-0.976,2.182-2.183,2.182c-1.206,0-2.183-0.976-2.183-2.182V60.479z"/>
		</g>
		<path style="fill:#FBE158;" d="M44.223,48.614L26.354,23H23l19.062,27.322C42.748,49.712,43.46,49.131,44.223,48.614z"/>
		<path style="fill:#DF2C2C;" d="M51.376,45.527L35.659,23h-9.305l17.869,25.614C46.357,47.165,48.778,46.112,51.376,45.527z"/>
		<path style="fill:#FBE158;" d="M54.332,45.084L38.924,23h-3.265l15.717,22.527C52.338,45.311,53.325,45.164,54.332,45.084z"/>
	</g>
</g>
<g id="Multicolor">
	<g>
		<path style="fill:#FBE158;" d="M65.777,48.614L83.646,23H87L67.938,50.322C67.252,49.712,66.54,49.131,65.777,48.614z"/>
		<path style="fill:#DF2C2C;" d="M58.624,45.527L74.341,23h9.305L65.777,48.614C63.643,47.165,61.222,46.112,58.624,45.527z"/>
		<path style="fill:#FBE158;" d="M55.668,45.084L71.076,23h3.265L58.624,45.527C57.662,45.311,56.675,45.164,55.668,45.084z"/>
		<circle style="fill:#F3B607;" cx="55" cy="66" r="21"/>
		<circle style="fill:#FBE158;" cx="55" cy="66" r="15.5"/>
		<g>
			<path style="fill:#FFFFFF;" d="M86.898,49.134C86.956,49.125,87,49.075,87,49.015v-0.031c0-0.059-0.043-0.11-0.102-0.119
				c-3.342-0.501-5.263-2.423-5.764-5.764C81.125,43.043,81.075,43,81.015,43h-0.03c-0.059,0-0.11,0.043-0.119,0.102
				c-0.501,3.341-2.422,5.263-5.764,5.764C75.043,48.875,75,48.925,75,48.985v0.03c0,0.059,0.043,0.11,0.102,0.119
				c3.342,0.501,5.263,2.423,5.764,5.764C80.875,54.957,80.925,55,80.985,55h0.043c0.052,0,0.096-0.038,0.104-0.089
				C81.63,51.562,83.552,49.636,86.898,49.134z"/>
		</g>
		<g>
			<path style="fill:#FFFFFF;" d="M36.881,80.156C36.949,80.146,37,80.087,37,80.018v-0.036c0-0.069-0.051-0.128-0.119-0.138
				c-3.899-0.585-6.14-2.827-6.725-6.725C30.146,73.05,30.087,73,30.018,73h-0.035c-0.069,0-0.128,0.051-0.138,0.119
				c-0.585,3.898-2.826,6.14-6.725,6.725C23.05,79.854,23,79.913,23,79.982v0.035c0,0.069,0.051,0.128,0.119,0.138
				c3.899,0.585,6.14,2.827,6.725,6.725C29.854,86.95,29.913,87,29.982,87h0.05c0.061,0,0.112-0.044,0.121-0.104
				C30.735,82.989,32.977,80.742,36.881,80.156z"/>
		</g>
		<path style="fill:#FACB1B;" d="M55,45c-11.598,0-21,9.402-21,21c0,5.88,2.423,11.189,6.318,15.001l29.683-29.683
			C66.189,47.423,60.88,45,55,45z"/>
		<path style="fill:#FCF6C2;" d="M55,50.5c-8.561,0-15.5,6.939-15.5,15.5c0,4.361,1.808,8.295,4.707,11.112l21.905-21.905
			C63.295,52.308,59.361,50.5,55,50.5z"/>
		<g>
			<path style="fill:#F99134;" d="M53.635,60.479c-0.539,0.14-1.808,0.517-2.326,0.517c-1.034,0-1.924-0.861-1.924-1.895
				c0-0.89,0.574-1.636,1.464-1.895l2.843-0.833C54.525,56.143,55.156,56,55.76,56h0.057C57.024,56,58,56.976,58,58.182v16.196
				c0,1.206-0.976,2.182-2.183,2.182c-1.206,0-2.183-0.976-2.183-2.182V60.479z"/>
		</g>
		<path style="fill:#FBE158;" d="M44.223,48.614L26.354,23H23l19.062,27.322C42.748,49.712,43.46,49.131,44.223,48.614z"/>
		<path style="fill:#DF2C2C;" d="M51.376,45.527L35.659,23h-9.305l17.869,25.614C46.357,47.165,48.778,46.112,51.376,45.527z"/>
		<path style="fill:#FBE158;" d="M54.332,45.084L38.924,23h-3.265l15.717,22.527C52.338,45.311,53.325,45.164,54.332,45.084z"/>
	</g>
</g>
<g id="Blue" style="display:none;">
	<g style="display:inline;">
		<g>
			<path style="fill:#E1F5FA;" d="M65.777,48.614L83.646,23H87L67.938,50.322C67.252,49.712,66.54,49.131,65.777,48.614z"/>
		</g>
		<g>
			<path style="fill:#00B7E5;" d="M58.624,45.527L74.341,23h9.305L65.777,48.614C63.643,47.165,61.222,46.112,58.624,45.527z"/>
		</g>
		<g>
			<path style="fill:#E1F5FA;" d="M55.668,45.084L71.076,23h3.265L58.624,45.527C57.662,45.311,56.675,45.164,55.668,45.084z"/>
		</g>
		<g>
			<path style="fill:#E1F5FA;" d="M44.223,48.614L26.354,23H23l19.062,27.322C42.748,49.712,43.46,49.131,44.223,48.614z"/>
		</g>
		<g>
			<path style="fill:#00B7E5;" d="M51.376,45.527L35.659,23h-9.306l17.869,25.614C46.357,47.165,48.778,46.112,51.376,45.527z"/>
		</g>
		<g>
			<path style="fill:#E1F5FA;" d="M54.332,45.084L38.924,23h-3.265l15.717,22.527C52.338,45.311,53.325,45.164,54.332,45.084z"/>
		</g>
		<g>
			<circle style="fill:#0081A1;" cx="55" cy="66" r="21"/>
		</g>
		<g>
			<g>
				<path style="fill:#FFFFFF;" d="M86.898,49.134C86.956,49.125,87,49.075,87,49.016v-0.031c0-0.06-0.044-0.11-0.102-0.119
					c-3.342-0.501-5.263-2.423-5.764-5.765C81.125,43.043,81.075,43,81.015,43h-0.03c-0.06,0-0.11,0.044-0.119,0.103
					c-0.502,3.341-2.422,5.263-5.765,5.764C75.043,48.875,75,48.926,75,48.985v0.031c0,0.059,0.044,0.109,0.102,0.118
					c3.342,0.501,5.263,2.423,5.764,5.764C80.875,54.957,80.925,55,80.985,55h0.043c0.052,0,0.096-0.038,0.104-0.089
					C81.63,51.562,83.552,49.636,86.898,49.134z"/>
			</g>
		</g>
		<g>
			<g>
				<path style="fill:#FFFFFF;" d="M36.881,80.156C36.949,80.146,37,80.087,37,80.018v-0.035c0-0.069-0.051-0.128-0.119-0.139
					c-3.899-0.585-6.14-2.827-6.725-6.725C30.146,73.051,30.087,73,30.018,73h-0.035c-0.069,0-0.128,0.051-0.139,0.119
					c-0.585,3.898-2.826,6.14-6.725,6.725C23.05,79.854,23,79.913,23,79.982v0.035c0,0.069,0.051,0.128,0.119,0.139
					c3.898,0.585,6.14,2.827,6.725,6.725C29.854,86.95,29.913,87,29.982,87h0.05c0.061,0,0.112-0.044,0.121-0.104
					C30.735,82.989,32.978,80.742,36.881,80.156z"/>
			</g>
		</g>
		<g>
			<path style="fill:#009FC7;" d="M55,45c-11.598,0-21,9.402-21,21c0,5.88,2.423,11.189,6.318,15.001l29.683-29.683
				C66.189,47.423,60.88,45,55,45z"/>
		</g>
		<g>
			<circle style="fill:#E1F5FA;" cx="55" cy="66" r="15.5"/>
		</g>
		<g>
			<path style="fill:#FFFFFF;" d="M55,50.5c-8.561,0-15.5,6.94-15.5,15.5c0,4.361,1.808,8.295,4.707,11.112l21.905-21.905
				C63.295,52.308,59.361,50.5,55,50.5z"/>
		</g>
		<g>
			<g>
				<path style="fill:#0C333D;" d="M53.635,60.479c-0.539,0.14-1.808,0.517-2.326,0.517c-1.033,0-1.924-0.861-1.924-1.895
					c0-0.89,0.574-1.636,1.465-1.895l2.842-0.833C54.525,56.144,55.157,56,55.76,56h0.057C57.024,56,58,56.977,58,58.182v16.196
					c0,1.206-0.976,2.182-2.183,2.182c-1.207,0-2.183-0.976-2.183-2.182V60.479z"/>
			</g>
		</g>
	</g>
</g>
<g id="R-Blue" style="display:none;">
	<g style="display:inline;">
		<circle style="fill:#81D2EB;" cx="55" cy="55" r="55"/>
	</g>
	<g style="display:inline;">
		<g>
			<path style="fill:#E1F5FA;" d="M65.777,48.614L83.646,23H87L67.938,50.322C67.252,49.712,66.54,49.131,65.777,48.614z"/>
		</g>
		<g>
			<path style="fill:#00B7E5;" d="M58.624,45.527L74.341,23h9.305L65.777,48.614C63.643,47.165,61.222,46.112,58.624,45.527z"/>
		</g>
		<g>
			<path style="fill:#E1F5FA;" d="M55.668,45.084L71.076,23h3.265L58.624,45.527C57.662,45.311,56.675,45.164,55.668,45.084z"/>
		</g>
		<g>
			<path style="fill:#E1F5FA;" d="M44.223,48.614L26.354,23H23l19.062,27.322C42.748,49.712,43.46,49.131,44.223,48.614z"/>
		</g>
		<g>
			<path style="fill:#00B7E5;" d="M51.376,45.527L35.659,23h-9.306l17.869,25.614C46.357,47.165,48.778,46.112,51.376,45.527z"/>
		</g>
		<g>
			<path style="fill:#E1F5FA;" d="M54.332,45.084L38.924,23h-3.265l15.717,22.527C52.338,45.311,53.325,45.164,54.332,45.084z"/>
		</g>
		<g>
			<circle style="fill:#0081A1;" cx="55" cy="66" r="21"/>
		</g>
		<g>
			<g>
				<path style="fill:#FFFFFF;" d="M86.898,49.134C86.956,49.125,87,49.075,87,49.016v-0.031c0-0.06-0.044-0.11-0.102-0.119
					c-3.342-0.501-5.263-2.423-5.764-5.765C81.125,43.043,81.075,43,81.015,43h-0.03c-0.06,0-0.11,0.044-0.119,0.103
					c-0.502,3.341-2.422,5.263-5.765,5.764C75.043,48.875,75,48.926,75,48.985v0.031c0,0.059,0.044,0.109,0.102,0.118
					c3.342,0.501,5.263,2.423,5.764,5.764C80.875,54.957,80.925,55,80.985,55h0.043c0.052,0,0.096-0.038,0.104-0.089
					C81.63,51.562,83.552,49.636,86.898,49.134z"/>
			</g>
		</g>
		<g>
			<g>
				<path style="fill:#FFFFFF;" d="M36.881,80.156C36.949,80.146,37,80.087,37,80.018v-0.035c0-0.069-0.051-0.128-0.119-0.139
					c-3.899-0.585-6.14-2.827-6.725-6.725C30.146,73.051,30.087,73,30.018,73h-0.035c-0.069,0-0.128,0.051-0.139,0.119
					c-0.585,3.898-2.826,6.14-6.725,6.725C23.05,79.854,23,79.913,23,79.982v0.035c0,0.069,0.051,0.128,0.119,0.139
					c3.899,0.585,6.14,2.827,6.725,6.725C29.854,86.95,29.913,87,29.982,87h0.05c0.061,0,0.112-0.044,0.121-0.104
					C30.735,82.989,32.978,80.742,36.881,80.156z"/>
			</g>
		</g>
		<g>
			<path style="fill:#009FC7;" d="M55,45c-11.598,0-21,9.402-21,21c0,5.88,2.423,11.189,6.318,15.001l29.683-29.683
				C66.189,47.423,60.88,45,55,45z"/>
		</g>
		<g>
			<circle style="fill:#E1F5FA;" cx="55" cy="66" r="15.5"/>
		</g>
		<g>
			<path style="fill:#FFFFFF;" d="M55,50.5c-8.56,0-15.5,6.94-15.5,15.5c0,4.361,1.808,8.295,4.707,11.112l21.905-21.905
				C63.295,52.308,59.361,50.5,55,50.5z"/>
		</g>
		<g>
			<g>
				<path style="fill:#0C333D;" d="M53.635,60.479c-0.539,0.14-1.808,0.517-2.326,0.517c-1.033,0-1.924-0.861-1.924-1.895
					c0-0.89,0.574-1.636,1.465-1.895l2.842-0.833C54.525,56.144,55.157,56,55.76,56h0.057C57.024,56,58,56.977,58,58.182v16.196
					c0,1.206-0.976,2.182-2.183,2.182c-1.207,0-2.183-0.976-2.183-2.182V60.479z"/>
			</g>
		</g>
	</g>
</g>
<g id="Green" style="display:none;">
	<g style="display:inline;">
		<g>
			<path style="fill:#D7FCF9;" d="M65.777,48.614L83.646,23H87L67.938,50.322C67.252,49.712,66.54,49.131,65.777,48.614z"/>
		</g>
		<g>
			<path style="fill:#00D6C1;" d="M58.624,45.527L74.341,23h9.305L65.777,48.614C63.643,47.165,61.222,46.112,58.624,45.527z"/>
		</g>
		<g>
			<path style="fill:#D7FCF9;" d="M55.668,45.084L71.076,23h3.265L58.624,45.527C57.662,45.311,56.675,45.164,55.668,45.084z"/>
		</g>
		<g>
			<path style="fill:#D7FCF9;" d="M44.223,48.614L26.354,23H23l19.062,27.322C42.748,49.712,43.46,49.131,44.223,48.614z"/>
		</g>
		<g>
			<path style="fill:#00D6C1;" d="M51.376,45.527L35.659,23h-9.306l17.869,25.614C46.357,47.165,48.778,46.112,51.376,45.527z"/>
		</g>
		<g>
			<path style="fill:#D7FCF9;" d="M54.332,45.084L38.924,23h-3.265l15.717,22.527C52.338,45.311,53.325,45.164,54.332,45.084z"/>
		</g>
		<g>
			<circle style="fill:#009687;" cx="55" cy="66" r="21"/>
		</g>
		<g>
			<g>
				<path style="fill:#FFFFFF;" d="M86.898,49.134C86.956,49.125,87,49.075,87,49.016v-0.031c0-0.06-0.044-0.11-0.102-0.119
					c-3.342-0.501-5.263-2.423-5.764-5.765C81.125,43.043,81.075,43,81.015,43h-0.03c-0.06,0-0.11,0.044-0.119,0.103
					c-0.502,3.341-2.422,5.263-5.765,5.764C75.043,48.875,75,48.926,75,48.985v0.031c0,0.059,0.044,0.109,0.102,0.118
					c3.342,0.501,5.263,2.423,5.764,5.764C80.875,54.957,80.925,55,80.985,55h0.043c0.052,0,0.096-0.038,0.104-0.089
					C81.63,51.562,83.552,49.636,86.898,49.134z"/>
			</g>
		</g>
		<g>
			<g>
				<path style="fill:#FFFFFF;" d="M36.881,80.156C36.949,80.146,37,80.087,37,80.018v-0.035c0-0.069-0.051-0.128-0.119-0.139
					c-3.899-0.585-6.14-2.827-6.725-6.725C30.146,73.051,30.087,73,30.018,73h-0.035c-0.069,0-0.128,0.051-0.139,0.119
					c-0.585,3.898-2.826,6.14-6.725,6.725C23.05,79.854,23,79.913,23,79.982v0.035c0,0.069,0.051,0.128,0.119,0.139
					c3.899,0.585,6.14,2.827,6.725,6.725C29.854,86.95,29.913,87,29.982,87h0.05c0.061,0,0.112-0.044,0.121-0.104
					C30.735,82.989,32.978,80.742,36.881,80.156z"/>
			</g>
		</g>
		<g>
			<path style="fill:#00B8A5;" d="M55,45c-11.598,0-21,9.402-21,21c0,5.88,2.423,11.189,6.318,15.001l29.683-29.683
				C66.189,47.423,60.88,45,55,45z"/>
		</g>
		<g>
			<circle style="fill:#D7FCF9;" cx="55" cy="66" r="15.5"/>
		</g>
		<g>
			<path style="fill:#FFFFFF;" d="M55,50.5c-8.56,0-15.5,6.94-15.5,15.5c0,4.361,1.808,8.295,4.707,11.112l21.905-21.905
				C63.295,52.308,59.361,50.5,55,50.5z"/>
		</g>
		<g>
			<g>
				<path style="fill:#0A3631;" d="M53.635,60.479c-0.539,0.14-1.808,0.517-2.326,0.517c-1.033,0-1.924-0.861-1.924-1.895
					c0-0.89,0.574-1.636,1.465-1.895l2.842-0.833C54.525,56.144,55.157,56,55.76,56h0.057C57.024,56,58,56.977,58,58.182v16.196
					c0,1.206-0.976,2.182-2.183,2.182c-1.207,0-2.183-0.976-2.183-2.182V60.479z"/>
			</g>
		</g>
	</g>
</g>
<g id="R-Green" style="display:none;">
	<g style="display:inline;">
		<circle style="fill:#87E0C8;" cx="55" cy="55" r="55"/>
	</g>
	<g style="display:inline;">
		<g>
			<path style="fill:#D7FCF9;" d="M65.777,48.614L83.646,23H87L67.938,50.322C67.252,49.712,66.54,49.131,65.777,48.614z"/>
		</g>
		<g>
			<path style="fill:#00D6C1;" d="M58.623,45.527L74.341,23h9.305L65.777,48.614C63.643,47.165,61.222,46.112,58.623,45.527z"/>
		</g>
		<g>
			<path style="fill:#D7FCF9;" d="M55.668,45.084L71.076,23h3.265L58.623,45.527C57.662,45.311,56.675,45.164,55.668,45.084z"/>
		</g>
		<g>
			<path style="fill:#D7FCF9;" d="M44.223,48.614L26.353,23H23l19.062,27.322C42.748,49.712,43.46,49.131,44.223,48.614z"/>
		</g>
		<g>
			<path style="fill:#00D6C1;" d="M51.376,45.527L35.659,23h-9.306l17.869,25.614C46.357,47.165,48.778,46.112,51.376,45.527z"/>
		</g>
		<g>
			<path style="fill:#D7FCF9;" d="M54.331,45.084L38.924,23h-3.265l15.717,22.527C52.338,45.311,53.325,45.164,54.331,45.084z"/>
		</g>
		<g>
			<circle style="fill:#009687;" cx="55" cy="66" r="21"/>
		</g>
		<g>
			<g>
				<path style="fill:#FFFFFF;" d="M86.898,49.134C86.956,49.125,87,49.075,87,49.016v-0.031c0-0.06-0.044-0.11-0.102-0.119
					c-3.342-0.501-5.263-2.423-5.764-5.765C81.125,43.043,81.075,43,81.015,43h-0.03c-0.06,0-0.11,0.044-0.119,0.103
					c-0.501,3.341-2.422,5.263-5.765,5.764C75.043,48.875,75,48.926,75,48.985v0.031c0,0.059,0.043,0.109,0.102,0.118
					c3.342,0.501,5.263,2.423,5.764,5.764C80.875,54.957,80.925,55,80.985,55h0.043c0.052,0,0.096-0.038,0.104-0.089
					C81.63,51.562,83.552,49.636,86.898,49.134z"/>
			</g>
		</g>
		<g>
			<g>
				<path style="fill:#FFFFFF;" d="M36.881,80.156C36.949,80.146,37,80.087,37,80.018v-0.035c0-0.069-0.051-0.128-0.119-0.139
					c-3.899-0.585-6.14-2.827-6.725-6.725C30.146,73.051,30.087,73,30.018,73h-0.035c-0.069,0-0.128,0.051-0.139,0.119
					c-0.585,3.898-2.826,6.14-6.725,6.725C23.05,79.854,23,79.913,23,79.982v0.035c0,0.069,0.051,0.128,0.119,0.139
					c3.899,0.585,6.14,2.827,6.725,6.725C29.854,86.95,29.913,87,29.982,87h0.05c0.061,0,0.112-0.044,0.121-0.104
					C30.735,82.989,32.977,80.742,36.881,80.156z"/>
			</g>
		</g>
		<g>
			<path style="fill:#00B8A5;" d="M55,45c-11.598,0-21,9.402-21,21c0,5.88,2.423,11.189,6.318,15.001l29.683-29.683
				C66.189,47.423,60.88,45,55,45z"/>
		</g>
		<g>
			<circle style="fill:#D7FCF9;" cx="55" cy="66" r="15.5"/>
		</g>
		<g>
			<path style="fill:#FFFFFF;" d="M55,50.5c-8.56,0-15.5,6.94-15.5,15.5c0,4.361,1.808,8.295,4.707,11.112l21.905-21.905
				C63.295,52.308,59.361,50.5,55,50.5z"/>
		</g>
		<g>
			<g>
				<path style="fill:#0A3631;" d="M53.635,60.479c-0.539,0.14-1.808,0.517-2.326,0.517c-1.033,0-1.924-0.861-1.924-1.895
					c0-0.89,0.574-1.636,1.465-1.895l2.842-0.833C54.525,56.144,55.157,56,55.76,56h0.057C57.024,56,58,56.977,58,58.182v16.196
					c0,1.206-0.976,2.182-2.183,2.182c-1.207,0-2.183-0.976-2.183-2.182V60.479z"/>
			</g>
		</g>
	</g>
</g>
<g id="Red" style="display:none;">
	<g style="display:inline;">
		<g>
			<path style="fill:#FFEFED;" d="M65.777,48.614L83.646,23H87L67.938,50.322C67.252,49.712,66.54,49.131,65.777,48.614z"/>
		</g>
		<g>
			<path style="fill:#FF6C5E;" d="M58.624,45.527L74.341,23h9.305L65.777,48.614C63.643,47.165,61.222,46.112,58.624,45.527z"/>
		</g>
		<g>
			<path style="fill:#FFEFED;" d="M55.668,45.084L71.076,23h3.265L58.624,45.527C57.662,45.311,56.675,45.164,55.668,45.084z"/>
		</g>
		<g>
			<path style="fill:#FFEFED;" d="M44.223,48.614L26.354,23H23l19.062,27.322C42.748,49.712,43.46,49.131,44.223,48.614z"/>
		</g>
		<g>
			<path style="fill:#FF6C5E;" d="M51.376,45.527L35.659,23h-9.306l17.869,25.614C46.357,47.165,48.778,46.112,51.376,45.527z"/>
		</g>
		<g>
			<path style="fill:#FFEFED;" d="M54.332,45.084L38.924,23h-3.265l15.717,22.527C52.338,45.311,53.325,45.164,54.332,45.084z"/>
		</g>
		<g>
			<circle style="fill:#C23023;" cx="55" cy="66" r="21"/>
		</g>
		<g>
			<g>
				<path style="fill:#FFFFFF;" d="M86.898,49.134C86.956,49.125,87,49.075,87,49.016v-0.031c0-0.06-0.044-0.11-0.102-0.119
					c-3.342-0.501-5.263-2.423-5.764-5.765C81.125,43.043,81.075,43,81.015,43h-0.03c-0.06,0-0.11,0.044-0.119,0.103
					c-0.502,3.341-2.422,5.263-5.765,5.764C75.043,48.875,75,48.926,75,48.985v0.031c0,0.059,0.044,0.109,0.102,0.118
					c3.342,0.501,5.263,2.423,5.764,5.764C80.875,54.957,80.925,55,80.985,55h0.043c0.052,0,0.096-0.038,0.104-0.089
					C81.63,51.562,83.552,49.636,86.898,49.134z"/>
			</g>
		</g>
		<g>
			<g>
				<path style="fill:#FFFFFF;" d="M36.881,80.156C36.949,80.146,37,80.087,37,80.018v-0.035c0-0.069-0.051-0.128-0.119-0.139
					c-3.899-0.585-6.14-2.827-6.725-6.725C30.146,73.051,30.087,73,30.018,73h-0.035c-0.069,0-0.128,0.051-0.139,0.119
					c-0.585,3.898-2.826,6.14-6.725,6.725C23.05,79.854,23,79.913,23,79.982v0.035c0,0.069,0.051,0.128,0.119,0.139
					c3.899,0.585,6.14,2.827,6.725,6.725C29.854,86.95,29.913,87,29.982,87h0.05c0.061,0,0.112-0.044,0.121-0.104
					C30.735,82.989,32.978,80.742,36.881,80.156z"/>
			</g>
		</g>
		<g>
			<path style="fill:#E54B44;" d="M55,45c-11.598,0-21,9.402-21,21c0,5.88,2.423,11.189,6.318,15.001l29.683-29.683
				C66.189,47.423,60.88,45,55,45z"/>
		</g>
		<g>
			<circle style="fill:#FFEFED;" cx="55" cy="66" r="15.5"/>
		</g>
		<g>
			<path style="fill:#FFFFFF;" d="M55,50.5c-8.561,0-15.5,6.94-15.5,15.5c0,4.361,1.808,8.295,4.707,11.112l21.905-21.905
				C63.295,52.308,59.361,50.5,55,50.5z"/>
		</g>
		<g>
			<g>
				<path style="fill:#4A1410;" d="M53.635,60.479c-0.539,0.14-1.808,0.517-2.326,0.517c-1.033,0-1.924-0.861-1.924-1.895
					c0-0.89,0.574-1.636,1.465-1.895l2.842-0.833C54.525,56.144,55.157,56,55.76,56h0.057C57.024,56,58,56.977,58,58.182v16.196
					c0,1.206-0.976,2.182-2.183,2.182c-1.207,0-2.183-0.976-2.183-2.182V60.479z"/>
			</g>
		</g>
	</g>
</g>
<g id="R-Red" style="display:none;">
	<g style="display:inline;">
		<circle style="fill:#FABBAF;" cx="55" cy="55" r="55"/>
	</g>
	<g style="display:inline;">
		<g>
			<path style="fill:#FFEFED;" d="M65.777,48.614L83.646,23H87L67.938,50.322C67.252,49.712,66.54,49.131,65.777,48.614z"/>
		</g>
		<g>
			<path style="fill:#FF6C5E;" d="M58.623,45.527L74.341,23h9.305L65.777,48.614C63.643,47.165,61.222,46.112,58.623,45.527z"/>
		</g>
		<g>
			<path style="fill:#FFEFED;" d="M55.668,45.084L71.076,23h3.265L58.623,45.527C57.662,45.311,56.675,45.164,55.668,45.084z"/>
		</g>
		<g>
			<path style="fill:#FFEFED;" d="M44.223,48.614L26.353,23H23l19.062,27.322C42.748,49.712,43.46,49.131,44.223,48.614z"/>
		</g>
		<g>
			<path style="fill:#FF6C5E;" d="M51.376,45.527L35.659,23h-9.306l17.869,25.614C46.357,47.165,48.778,46.112,51.376,45.527z"/>
		</g>
		<g>
			<path style="fill:#FFEFED;" d="M54.331,45.084L38.924,23h-3.265l15.717,22.527C52.338,45.311,53.325,45.164,54.331,45.084z"/>
		</g>
		<g>
			<circle style="fill:#C23023;" cx="55" cy="66" r="21"/>
		</g>
		<g>
			<g>
				<path style="fill:#FFFFFF;" d="M86.898,49.134C86.956,49.125,87,49.075,87,49.016v-0.031c0-0.06-0.044-0.11-0.102-0.119
					c-3.342-0.501-5.263-2.423-5.764-5.765C81.125,43.043,81.075,43,81.015,43h-0.03c-0.06,0-0.11,0.044-0.119,0.103
					c-0.501,3.341-2.422,5.263-5.765,5.764C75.043,48.875,75,48.926,75,48.985v0.031c0,0.059,0.043,0.109,0.102,0.118
					c3.342,0.501,5.263,2.423,5.764,5.764C80.875,54.957,80.925,55,80.985,55h0.043c0.052,0,0.096-0.038,0.104-0.089
					C81.63,51.562,83.552,49.636,86.898,49.134z"/>
			</g>
		</g>
		<g>
			<g>
				<path style="fill:#FFFFFF;" d="M36.881,80.156C36.949,80.146,37,80.087,37,80.018v-0.035c0-0.069-0.051-0.128-0.119-0.139
					c-3.899-0.585-6.14-2.827-6.725-6.725C30.146,73.051,30.087,73,30.018,73h-0.035c-0.069,0-0.128,0.051-0.139,0.119
					c-0.585,3.898-2.826,6.14-6.725,6.725C23.05,79.854,23,79.913,23,79.982v0.035c0,0.069,0.051,0.128,0.119,0.139
					c3.899,0.585,6.14,2.827,6.725,6.725C29.854,86.95,29.913,87,29.982,87h0.05c0.061,0,0.112-0.044,0.121-0.104
					C30.735,82.989,32.977,80.742,36.881,80.156z"/>
			</g>
		</g>
		<g>
			<path style="fill:#E54B44;" d="M55,45c-11.598,0-21,9.402-21,21c0,5.88,2.423,11.189,6.318,15.001l29.683-29.683
				C66.189,47.423,60.88,45,55,45z"/>
		</g>
		<g>
			<circle style="fill:#FFEFED;" cx="55" cy="66" r="15.5"/>
		</g>
		<g>
			<path style="fill:#FFFFFF;" d="M55,50.5c-8.56,0-15.5,6.94-15.5,15.5c0,4.361,1.808,8.295,4.707,11.112l21.905-21.905
				C63.295,52.308,59.361,50.5,55,50.5z"/>
		</g>
		<g>
			<g>
				<path style="fill:#4A1410;" d="M53.635,60.479c-0.539,0.14-1.808,0.517-2.326,0.517c-1.033,0-1.924-0.861-1.924-1.895
					c0-0.89,0.574-1.636,1.465-1.895l2.842-0.833C54.525,56.144,55.157,56,55.76,56h0.057C57.024,56,58,56.977,58,58.182v16.196
					c0,1.206-0.976,2.182-2.183,2.182c-1.207,0-2.183-0.976-2.183-2.182V60.479z"/>
			</g>
		</g>
	</g>
</g>
<g id="Yellow" style="display:none;">
	<g style="display:inline;">
		<g>
			<path style="fill:#FFF5D9;" d="M65.777,48.614L83.646,23H87L67.938,50.322C67.252,49.712,66.54,49.131,65.777,48.614z"/>
		</g>
		<g>
			<path style="fill:#FFAA00;" d="M58.623,45.527L74.341,23h9.305L65.777,48.614C63.643,47.165,61.222,46.112,58.623,45.527z"/>
		</g>
		<g>
			<path style="fill:#FFF5D9;" d="M55.668,45.084L71.076,23h3.265L58.623,45.527C57.662,45.311,56.675,45.164,55.668,45.084z"/>
		</g>
		<g>
			<path style="fill:#FFF5D9;" d="M44.223,48.614L26.353,23H23l19.062,27.322C42.748,49.712,43.46,49.131,44.223,48.614z"/>
		</g>
		<g>
			<path style="fill:#FFAA00;" d="M51.376,45.527L35.659,23h-9.306l17.869,25.614C46.357,47.165,48.778,46.112,51.376,45.527z"/>
		</g>
		<g>
			<path style="fill:#FFF5D9;" d="M54.331,45.084L38.924,23h-3.265l15.717,22.527C52.338,45.311,53.325,45.164,54.331,45.084z"/>
		</g>
		<g>
			<circle style="fill:#E07000;" cx="55" cy="66" r="21"/>
		</g>
		<g>
			<g>
				<path style="fill:#FFFFFF;" d="M86.898,49.134C86.956,49.125,87,49.075,87,49.016v-0.031c0-0.06-0.044-0.11-0.102-0.119
					c-3.342-0.501-5.263-2.423-5.764-5.765C81.125,43.043,81.075,43,81.015,43h-0.03c-0.06,0-0.11,0.044-0.119,0.103
					c-0.501,3.341-2.422,5.263-5.765,5.764C75.043,48.875,75,48.926,75,48.985v0.031c0,0.059,0.043,0.109,0.102,0.118
					c3.342,0.501,5.263,2.423,5.764,5.764C80.875,54.957,80.925,55,80.985,55h0.043c0.052,0,0.096-0.038,0.104-0.089
					C81.63,51.562,83.552,49.636,86.898,49.134z"/>
			</g>
		</g>
		<g>
			<g>
				<path style="fill:#FFFFFF;" d="M36.881,80.156C36.949,80.146,37,80.087,37,80.018v-0.035c0-0.069-0.051-0.128-0.119-0.139
					c-3.899-0.585-6.14-2.827-6.725-6.725C30.146,73.051,30.087,73,30.018,73h-0.035c-0.069,0-0.128,0.051-0.139,0.119
					c-0.585,3.898-2.826,6.14-6.725,6.725C23.05,79.854,23,79.913,23,79.982v0.035c0,0.069,0.051,0.128,0.119,0.139
					c3.899,0.585,6.14,2.827,6.725,6.725C29.854,86.95,29.913,87,29.982,87h0.05c0.061,0,0.112-0.044,0.121-0.104
					C30.735,82.989,32.977,80.742,36.881,80.156z"/>
			</g>
		</g>
		<g>
			<path style="fill:#FA9200;" d="M55,45c-11.598,0-21,9.402-21,21c0,5.88,2.423,11.189,6.318,15.001l29.683-29.683
				C66.189,47.423,60.88,45,55,45z"/>
		</g>
		<g>
			<circle style="fill:#FFF5D9;" cx="55" cy="66" r="15.5"/>
		</g>
		<g>
			<path style="fill:#FFFFFF;" d="M55,50.5c-8.56,0-15.5,6.94-15.5,15.5c0,4.361,1.808,8.295,4.707,11.112l21.905-21.905
				C63.295,52.308,59.361,50.5,55,50.5z"/>
		</g>
		<g>
			<g>
				<path style="fill:#3D320C;" d="M53.635,60.479c-0.539,0.14-1.808,0.517-2.326,0.517c-1.033,0-1.924-0.861-1.924-1.895
					c0-0.89,0.574-1.636,1.465-1.895l2.842-0.833C54.525,56.144,55.157,56,55.76,56h0.057C57.024,56,58,56.977,58,58.182v16.196
					c0,1.206-0.976,2.182-2.183,2.182c-1.207,0-2.183-0.976-2.183-2.182V60.479z"/>
			</g>
		</g>
	</g>
</g>
<g id="R-Yellow" style="display:none;">
	<g style="display:inline;">
		<circle style="fill:#FFD75E;" cx="55" cy="55" r="55"/>
	</g>
	<g style="display:inline;">
		<g>
			<path style="fill:#FFF5D9;" d="M65.777,48.614L83.646,23H87L67.938,50.322C67.252,49.712,66.54,49.131,65.777,48.614z"/>
		</g>
		<g>
			<path style="fill:#FFAA00;" d="M58.624,45.527L74.341,23h9.305L65.777,48.614C63.643,47.165,61.222,46.112,58.624,45.527z"/>
		</g>
		<g>
			<path style="fill:#FFF5D9;" d="M55.668,45.084L71.076,23h3.265L58.624,45.527C57.662,45.311,56.675,45.164,55.668,45.084z"/>
		</g>
		<g>
			<path style="fill:#FFF5D9;" d="M44.223,48.614L26.354,23H23l19.062,27.322C42.748,49.712,43.46,49.131,44.223,48.614z"/>
		</g>
		<g>
			<path style="fill:#FFAA00;" d="M51.376,45.527L35.659,23h-9.306l17.869,25.614C46.357,47.165,48.778,46.112,51.376,45.527z"/>
		</g>
		<g>
			<path style="fill:#FFF5D9;" d="M54.332,45.084L38.924,23h-3.265l15.717,22.527C52.338,45.311,53.325,45.164,54.332,45.084z"/>
		</g>
		<g>
			<circle style="fill:#E07000;" cx="55" cy="66" r="21"/>
		</g>
		<g>
			<g>
				<path style="fill:#FFFFFF;" d="M86.898,49.134C86.956,49.125,87,49.075,87,49.016v-0.031c0-0.06-0.044-0.11-0.102-0.119
					c-3.342-0.501-5.263-2.423-5.764-5.765C81.125,43.043,81.075,43,81.015,43h-0.03c-0.06,0-0.11,0.044-0.119,0.103
					c-0.502,3.341-2.422,5.263-5.765,5.764C75.043,48.875,75,48.926,75,48.985v0.031c0,0.059,0.044,0.109,0.102,0.118
					c3.342,0.501,5.263,2.423,5.764,5.764C80.875,54.957,80.925,55,80.985,55h0.043c0.052,0,0.096-0.038,0.104-0.089
					C81.63,51.562,83.552,49.636,86.898,49.134z"/>
			</g>
		</g>
		<g>
			<g>
				<path style="fill:#FFFFFF;" d="M36.881,80.156C36.949,80.146,37,80.087,37,80.018v-0.035c0-0.069-0.051-0.128-0.119-0.139
					c-3.899-0.585-6.14-2.827-6.725-6.725C30.146,73.051,30.087,73,30.018,73h-0.035c-0.069,0-0.128,0.051-0.139,0.119
					c-0.585,3.898-2.826,6.14-6.725,6.725C23.05,79.854,23,79.913,23,79.982v0.035c0,0.069,0.051,0.128,0.119,0.139
					c3.898,0.585,6.14,2.827,6.725,6.725C29.854,86.95,29.913,87,29.982,87h0.05c0.061,0,0.112-0.044,0.121-0.104
					C30.735,82.989,32.978,80.742,36.881,80.156z"/>
			</g>
		</g>
		<g>
			<path style="fill:#FA9200;" d="M55,45c-11.598,0-21,9.402-21,21c0,5.88,2.423,11.189,6.318,15.001l29.683-29.683
				C66.189,47.423,60.88,45,55,45z"/>
		</g>
		<g>
			<circle style="fill:#FFF5D9;" cx="55" cy="66" r="15.5"/>
		</g>
		<g>
			<path style="fill:#FFFFFF;" d="M55,50.5c-8.561,0-15.5,6.94-15.5,15.5c0,4.361,1.808,8.295,4.707,11.112l21.905-21.905
				C63.295,52.308,59.361,50.5,55,50.5z"/>
		</g>
		<g>
			<g>
				<path style="fill:#3D320C;" d="M53.635,60.479c-0.539,0.14-1.808,0.517-2.326,0.517c-1.033,0-1.924-0.861-1.924-1.895
					c0-0.89,0.574-1.636,1.465-1.895l2.842-0.833C54.525,56.144,55.157,56,55.76,56h0.057C57.024,56,58,56.977,58,58.182v16.196
					c0,1.206-0.976,2.182-2.183,2.182c-1.207,0-2.183-0.976-2.183-2.182V60.479z"/>
			</g>
		</g>
	</g>
</g>
</svg>
