<?xml version="1.0" encoding="iso-8859-1"?>
<!-- Generator: Adobe Illustrator 17.1.0, SVG Export Plug-In . SVG Version: 6.00 Build 0)  -->
<!DOCTYPE svg PUBLIC "-//W3C//DTD SVG 1.0//EN" "http://www.w3.org/TR/2001/REC-SVG-20010904/DTD/svg10.dtd">
<svg version="1.0" xmlns="http://www.w3.org/2000/svg" xmlns:xlink="http://www.w3.org/1999/xlink" x="0px" y="0px" width="110px"
	 height="110px" viewBox="0 0 110 110" style="enable-background:new 0 0 110 110;" xml:space="preserve">
<g id="Artboard" style="display:none;">
	<rect x="-691" y="-49" style="display:inline;fill:#808080;" width="1358" height="326"/>
</g>
<g id="R-Multicolor" style="display:none;">
	<circle style="display:inline;fill:#E04F5F;" cx="55" cy="54.98" r="55"/>
	<g style="display:inline;">
		<rect x="23" y="68.982" style="fill:#4AC3AF;" width="64" height="18"/>
		<polygon style="fill:#8CE3D4;" points="23,68.982 31,52.982 79,52.982 87,68.982 		"/>
		<polygon style="fill:#0D9681;" points="28,66.982 34,54.982 76,54.982 82,66.982 		"/>
		<circle style="fill:#C2F8F0;" cx="71" cy="60.982" r="1"/>
		<circle style="fill:#C2F8F0;" cx="39" cy="60.982" r="1"/>
		<ellipse style="fill:#C2F8F0;" cx="55" cy="60.982" rx="6" ry="5"/>
		<g>
			<path style="fill:#17B198;" d="M54.96,57.501c0.272,0,0.488,0.18,0.488,0.407v0.109c0.507,0.062,0.957,0.188,1.361,0.376
				c0.178,0.086,0.338,0.235,0.338,0.47c0,0.297-0.281,0.524-0.638,0.524c-0.113,0-0.225-0.023-0.328-0.071
				c-0.263-0.117-0.525-0.211-0.779-0.266v1.19c1.426,0.321,2.036,0.806,2.036,1.683c0,0.876-0.807,1.44-1.99,1.55v0.415
				c0,0.227-0.216,0.407-0.488,0.407c-0.272,0-0.488-0.18-0.488-0.407v-0.423c-0.667-0.07-1.295-0.266-1.849-0.548
				c-0.197-0.102-0.319-0.258-0.319-0.47c0-0.305,0.282-0.532,0.648-0.532c0.122,0,0.253,0.039,0.366,0.102
				c0.394,0.211,0.77,0.36,1.201,0.438v-1.245c-1.351-0.305-2.018-0.736-2.018-1.667c0-0.861,0.788-1.44,1.971-1.542v-0.094
				C54.473,57.681,54.688,57.501,54.96,57.501z M54.52,60.037v-1.057c-0.45,0.055-0.647,0.243-0.647,0.493
				C53.872,59.716,54.003,59.881,54.52,60.037z M55.402,61.407v1.088c0.441-0.055,0.666-0.227,0.666-0.509
				C56.068,61.728,55.908,61.556,55.402,61.407z"/>
		</g>
		<rect x="23" y="70.982" style="fill:#C2F8F0;" width="64" height="2"/>
		<rect x="23" y="74.982" style="fill:#C2F8F0;" width="64" height="2"/>
		<rect x="23" y="78.982" style="fill:#C2F8F0;" width="64" height="2"/>
		<rect x="23" y="82.982" style="fill:#C2F8F0;" width="64" height="2"/>
		<polygon style="fill:#8CE3D4;" points="23,70.982 44.527,70.982 46.527,68.982 23,68.982 		"/>
		<polygon style="fill:#8CE3D4;" points="23,74.982 40.527,74.982 42.527,72.982 23,72.982 		"/>
		<polygon style="fill:#8CE3D4;" points="23,84.982 23,86.982 28.527,86.982 30.527,84.982 		"/>
		<polygon style="fill:#8CE3D4;" points="23,78.982 36.527,78.982 38.527,76.982 23,76.982 		"/>
		<polygon style="fill:#8CE3D4;" points="23,82.982 32.527,82.982 34.527,80.982 23,80.982 		"/>
		<polygon style="fill:#C2F8F0;" points="23,68.982 46.527,68.982 48.527,66.982 28,66.982 34,54.982 60.527,54.982 62.527,52.982 
			31,52.982 		"/>
		<path style="fill:#17B198;" d="M49,60.982c0-2.761,2.686-5,6-5c1.331,0,2.556,0.365,3.551,0.976l1.976-1.976H34l-6,12h20.527
			l2.364-2.364C49.729,63.706,49,62.416,49,60.982z M39,61.982c-0.552,0-1-0.448-1-1s0.448-1,1-1s1,0.448,1,1
			S39.552,61.982,39,61.982z"/>
		<circle style="fill:#FFFFFF;" cx="39" cy="60.982" r="1"/>
		<path style="fill:#FFFFFF;" d="M49,60.982c0,1.435,0.729,2.725,1.891,3.636l1.715-1.715c-0.184-0.102-0.301-0.251-0.301-0.455
			c0-0.305,0.282-0.532,0.648-0.532c0.122,0,0.253,0.039,0.366,0.102c0.04,0.021,0.079,0.034,0.118,0.054l0.906-0.906
			c-1.227-0.303-1.84-0.734-1.84-1.622c0-0.861,0.788-1.44,1.971-1.542v-0.094c0-0.227,0.216-0.407,0.488-0.407
			c0.272,0,0.488,0.18,0.488,0.407v0.109c0.507,0.062,0.957,0.188,1.361,0.376c0.066,0.032,0.126,0.076,0.18,0.126l1.562-1.562
			c-0.995-0.611-2.22-0.976-3.551-0.976C51.686,55.982,49,58.22,49,60.982z"/>
		<path style="fill:#FFFFFF;" d="M55.402,59.051v1.056l0.788-0.788c-0.003-0.001-0.006-0.001-0.009-0.002
			C55.918,59.2,55.655,59.106,55.402,59.051z"/>
		<path style="fill:#FFFFFF;" d="M53.872,59.474c0,0.243,0.131,0.407,0.647,0.563v-1.057C54.069,59.035,53.872,59.223,53.872,59.474
			z"/>
		<polygon style="fill:#FFFFFF;" points="23,72.982 42.527,72.982 44.527,70.982 23,70.982 		"/>
		<polygon style="fill:#FFFFFF;" points="23,76.982 38.527,76.982 40.527,74.982 23,74.982 		"/>
		<polygon style="fill:#FFFFFF;" points="23,80.982 34.527,80.982 36.527,78.982 23,78.982 		"/>
		<polygon style="fill:#FFFFFF;" points="23,84.982 30.527,84.982 32.527,82.982 23,82.982 		"/>
		<polygon style="fill:#FBE158;" points="69.663,28.626 73.888,32.851 65,41.739 55,31.739 33.758,52.982 42.242,52.982 55,40.224 
			65,50.224 78.13,37.094 82.356,41.319 87,23.982 		"/>
	</g>
</g>
<g id="Multicolor">
	<g>
		<rect x="23" y="68.982" style="fill:#4AC3AF;" width="64" height="18"/>
		<polygon style="fill:#8CE3D4;" points="23,68.982 31,52.982 79,52.982 87,68.982 		"/>
		<polygon style="fill:#0D9681;" points="28,66.982 34,54.982 76,54.982 82,66.982 		"/>
		<circle style="fill:#C2F8F0;" cx="71" cy="60.982" r="1"/>
		<circle style="fill:#C2F8F0;" cx="39" cy="60.982" r="1"/>
		<ellipse style="fill:#C2F8F0;" cx="55" cy="60.982" rx="6" ry="5"/>
		<g>
			<path style="fill:#17B198;" d="M54.96,57.501c0.272,0,0.488,0.18,0.488,0.407v0.109c0.507,0.062,0.957,0.188,1.361,0.376
				c0.178,0.086,0.338,0.235,0.338,0.47c0,0.297-0.281,0.524-0.638,0.524c-0.113,0-0.225-0.023-0.328-0.071
				c-0.263-0.117-0.525-0.211-0.779-0.266v1.19c1.426,0.321,2.036,0.806,2.036,1.683c0,0.876-0.807,1.44-1.99,1.55v0.415
				c0,0.227-0.216,0.407-0.488,0.407c-0.272,0-0.488-0.18-0.488-0.407v-0.423c-0.667-0.07-1.295-0.266-1.849-0.548
				c-0.197-0.102-0.319-0.258-0.319-0.47c0-0.305,0.282-0.532,0.648-0.532c0.122,0,0.253,0.039,0.366,0.102
				c0.394,0.211,0.77,0.36,1.201,0.438v-1.245c-1.351-0.305-2.018-0.736-2.018-1.667c0-0.861,0.788-1.44,1.971-1.542v-0.094
				C54.473,57.681,54.688,57.501,54.96,57.501z M54.52,60.037v-1.057c-0.45,0.055-0.647,0.243-0.647,0.493
				C53.872,59.716,54.003,59.881,54.52,60.037z M55.402,61.407v1.088c0.441-0.055,0.666-0.227,0.666-0.509
				C56.068,61.728,55.908,61.556,55.402,61.407z"/>
		</g>
		<rect x="23" y="70.982" style="fill:#C2F8F0;" width="64" height="2"/>
		<rect x="23" y="74.982" style="fill:#C2F8F0;" width="64" height="2"/>
		<rect x="23" y="78.982" style="fill:#C2F8F0;" width="64" height="2"/>
		<rect x="23" y="82.982" style="fill:#C2F8F0;" width="64" height="2"/>
		<polygon style="fill:#8CE3D4;" points="23,70.982 44.527,70.982 46.527,68.982 23,68.982 		"/>
		<polygon style="fill:#8CE3D4;" points="23,74.982 40.527,74.982 42.527,72.982 23,72.982 		"/>
		<polygon style="fill:#8CE3D4;" points="23,84.982 23,86.982 28.527,86.982 30.527,84.982 		"/>
		<polygon style="fill:#8CE3D4;" points="23,78.982 36.527,78.982 38.527,76.982 23,76.982 		"/>
		<polygon style="fill:#8CE3D4;" points="23,82.982 32.527,82.982 34.527,80.982 23,80.982 		"/>
		<polygon style="fill:#C2F8F0;" points="23,68.982 46.527,68.982 48.527,66.982 28,66.982 34,54.982 60.527,54.982 62.527,52.982 
			31,52.982 		"/>
		<path style="fill:#17B198;" d="M49,60.982c0-2.761,2.686-5,6-5c1.331,0,2.556,0.365,3.551,0.976l1.976-1.976H34l-6,12h20.527
			l2.364-2.364C49.729,63.706,49,62.416,49,60.982z M39,61.982c-0.552,0-1-0.448-1-1s0.448-1,1-1s1,0.448,1,1
			S39.552,61.982,39,61.982z"/>
		<circle style="fill:#FFFFFF;" cx="39" cy="60.982" r="1"/>
		<path style="fill:#FFFFFF;" d="M49,60.982c0,1.435,0.729,2.725,1.891,3.636l1.715-1.715c-0.184-0.102-0.301-0.251-0.301-0.455
			c0-0.305,0.282-0.532,0.648-0.532c0.122,0,0.253,0.039,0.366,0.102c0.04,0.021,0.079,0.034,0.118,0.054l0.906-0.906
			c-1.227-0.303-1.84-0.734-1.84-1.622c0-0.861,0.788-1.44,1.971-1.542v-0.094c0-0.227,0.216-0.407,0.488-0.407
			c0.272,0,0.488,0.18,0.488,0.407v0.109c0.507,0.062,0.957,0.188,1.361,0.376c0.066,0.032,0.126,0.076,0.18,0.126l1.562-1.562
			c-0.995-0.611-2.22-0.976-3.551-0.976C51.686,55.982,49,58.22,49,60.982z"/>
		<path style="fill:#FFFFFF;" d="M55.402,59.051v1.056l0.788-0.788c-0.003-0.001-0.006-0.001-0.009-0.002
			C55.918,59.2,55.655,59.106,55.402,59.051z"/>
		<path style="fill:#FFFFFF;" d="M53.872,59.474c0,0.243,0.131,0.407,0.647,0.563v-1.057C54.069,59.035,53.872,59.223,53.872,59.474
			z"/>
		<polygon style="fill:#FFFFFF;" points="23,72.982 42.527,72.982 44.527,70.982 23,70.982 		"/>
		<polygon style="fill:#FFFFFF;" points="23,76.982 38.527,76.982 40.527,74.982 23,74.982 		"/>
		<polygon style="fill:#FFFFFF;" points="23,80.982 34.527,80.982 36.527,78.982 23,78.982 		"/>
		<polygon style="fill:#FFFFFF;" points="23,84.982 30.527,84.982 32.527,82.982 23,82.982 		"/>
		<polygon style="fill:#FBE158;" points="69.663,28.626 73.888,32.851 65,41.739 55,31.739 33.758,52.982 42.242,52.982 55,40.224 
			65,50.224 78.13,37.094 82.356,41.319 87,23.982 		"/>
	</g>
</g>
<g id="Blue" style="display:none;">
	<g style="display:inline;">
		<g>
			<rect x="23" y="69.002" style="fill:#BBE7F2;" width="64" height="18"/>
		</g>
		<g>
			<polygon style="fill:#E1F5FA;" points="23,69.002 31,53.002 79,53.002 87,69.002 			"/>
		</g>
		<g>
			<polygon style="fill:#009FC7;" points="28,67.002 34,55.002 76,55.002 82,67.002 			"/>
		</g>
		<g>
			<circle style="fill:#BBE7F2;" cx="71" cy="61.002" r="1"/>
		</g>
		<g>
			<circle style="fill:#BBE7F2;" cx="39" cy="61.002" r="1"/>
		</g>
		<g>
			<ellipse style="fill:#BBE7F2;" cx="55" cy="61.002" rx="6" ry="5"/>
		</g>
		<g>
			<g>
				<path style="fill:#00B7E5;" d="M54.96,57.521c0.272,0,0.488,0.18,0.488,0.407v0.109c0.507,0.062,0.958,0.188,1.361,0.376
					c0.178,0.086,0.338,0.235,0.338,0.47c0,0.297-0.282,0.525-0.638,0.525c-0.112,0-0.225-0.024-0.328-0.071
					c-0.263-0.117-0.526-0.211-0.779-0.266v1.19c1.427,0.321,2.037,0.806,2.037,1.683c0,0.877-0.807,1.441-1.99,1.55v0.415
					c0,0.227-0.216,0.407-0.488,0.407c-0.272,0-0.488-0.18-0.488-0.407v-0.423c-0.667-0.07-1.295-0.266-1.849-0.548
					c-0.197-0.102-0.319-0.258-0.319-0.47c0-0.305,0.282-0.532,0.647-0.532c0.122,0,0.254,0.039,0.366,0.102
					c0.394,0.211,0.769,0.36,1.201,0.438v-1.245c-1.352-0.305-2.018-0.736-2.018-1.667c0-0.861,0.788-1.44,1.971-1.542v-0.094
					C54.473,57.701,54.688,57.521,54.96,57.521z M54.52,60.057v-1.057c-0.45,0.055-0.647,0.243-0.647,0.493
					C53.872,59.736,54.003,59.901,54.52,60.057z M55.401,61.427v1.088c0.441-0.055,0.667-0.227,0.667-0.509
					C56.068,61.748,55.908,61.576,55.401,61.427z"/>
			</g>
		</g>
		<g>
			<rect x="23" y="71.002" style="fill:#E1F5FA;" width="64" height="2"/>
		</g>
		<g>
			<rect x="23" y="75.002" style="fill:#E1F5FA;" width="64" height="2"/>
		</g>
		<g>
			<rect x="23" y="79.002" style="fill:#E1F5FA;" width="64" height="2"/>
		</g>
		<g>
			<rect x="23" y="83.002" style="fill:#E1F5FA;" width="64" height="2"/>
		</g>
		<g>
			<polygon style="fill:#E1F5FA;" points="23,71.002 44.527,71.002 46.527,69.002 23,69.002 			"/>
		</g>
		<g>
			<polygon style="fill:#E1F5FA;" points="23,75.002 40.527,75.002 42.527,73.002 23,73.002 			"/>
		</g>
		<g>
			<polygon style="fill:#E1F5FA;" points="23,85.002 23,87.002 28.527,87.002 30.527,85.002 			"/>
		</g>
		<g>
			<polygon style="fill:#E1F5FA;" points="23,79.002 36.527,79.002 38.527,77.002 23,77.002 			"/>
		</g>
		<g>
			<polygon style="fill:#E1F5FA;" points="23,83.002 32.527,83.002 34.527,81.002 23,81.002 			"/>
		</g>
		<g>
			<polygon style="fill:#FFFFFF;" points="23,69.002 46.527,69.002 48.527,67.002 28,67.002 34,55.002 60.527,55.002 62.527,53.002 
				31,53.002 			"/>
		</g>
		<g>
			<path style="fill:#00B7E5;" d="M49,61.002c0-2.762,2.687-5,6-5c1.331,0,2.556,0.365,3.551,0.976l1.976-1.976H34l-6,12h20.527
				l2.364-2.364C49.729,63.726,49,62.436,49,61.002z M39,62.002c-0.552,0-1-0.448-1-1c0-0.552,0.448-1,1-1s1,0.448,1,1
				C40,61.554,39.552,62.002,39,62.002z"/>
		</g>
		<g>
			<circle style="fill:#FFFFFF;" cx="39" cy="61.002" r="1"/>
		</g>
		<g>
			<path style="fill:#FFFFFF;" d="M49,61.002c0,1.435,0.729,2.725,1.891,3.636l1.715-1.715c-0.184-0.102-0.301-0.251-0.301-0.454
				c0-0.305,0.282-0.532,0.647-0.532c0.122,0,0.254,0.039,0.366,0.102c0.039,0.021,0.079,0.034,0.118,0.054l0.906-0.905
				c-1.228-0.303-1.84-0.734-1.84-1.622c0-0.861,0.788-1.44,1.971-1.542v-0.094c0-0.227,0.216-0.407,0.488-0.407
				c0.272,0,0.488,0.18,0.488,0.407v0.109c0.507,0.062,0.958,0.188,1.361,0.376c0.066,0.032,0.126,0.076,0.18,0.126l1.562-1.562
				c-0.995-0.611-2.22-0.976-3.551-0.976C51.687,56.002,49,58.24,49,61.002z"/>
		</g>
		<g>
			<path style="fill:#FFFFFF;" d="M55.401,59.071v1.056l0.788-0.788c-0.003-0.001-0.006,0-0.009-0.002
				C55.918,59.22,55.655,59.126,55.401,59.071z"/>
		</g>
		<g>
			<path style="fill:#FFFFFF;" d="M53.872,59.494c0,0.243,0.131,0.407,0.647,0.563v-1.057
				C54.069,59.055,53.872,59.243,53.872,59.494z"/>
		</g>
		<g>
			<polygon style="fill:#FFFFFF;" points="23,73.002 42.527,73.002 44.527,71.002 23,71.002 			"/>
		</g>
		<g>
			<polygon style="fill:#FFFFFF;" points="23,77.002 38.527,77.002 40.527,75.002 23,75.002 			"/>
		</g>
		<g>
			<polygon style="fill:#FFFFFF;" points="23,81.002 34.527,81.002 36.527,79.002 23,79.002 			"/>
		</g>
		<g>
			<polygon style="fill:#FFFFFF;" points="23,85.002 30.527,85.002 32.527,83.002 23,83.002 			"/>
		</g>
		<g>
			<polygon style="fill:#0081A1;" points="69.663,28.646 73.888,32.871 65,41.759 55,31.759 33.758,53.002 42.242,53.002 55,40.244 
				65,50.244 78.13,37.114 82.355,41.339 87,24.002 			"/>
		</g>
	</g>
</g>
<g id="R-Blue" style="display:none;">
	<g style="display:inline;">
		<circle style="fill:#81D2EB;" cx="55" cy="55" r="55"/>
	</g>
	<g style="display:inline;">
		<g>
			<rect x="23" y="69.002" style="fill:#BBE7F2;" width="64" height="18"/>
		</g>
		<g>
			<polygon style="fill:#E1F5FA;" points="23,69.002 31,53.002 79,53.002 87,69.002 			"/>
		</g>
		<g>
			<polygon style="fill:#009FC7;" points="28,67.002 34,55.002 76,55.002 82,67.002 			"/>
		</g>
		<g>
			<circle style="fill:#BBE7F2;" cx="71" cy="61.002" r="1"/>
		</g>
		<g>
			<circle style="fill:#BBE7F2;" cx="39" cy="61.002" r="1"/>
		</g>
		<g>
			<ellipse style="fill:#BBE7F2;" cx="55" cy="61.002" rx="6" ry="5"/>
		</g>
		<g>
			<g>
				<path style="fill:#00B7E5;" d="M54.96,57.521c0.272,0,0.488,0.18,0.488,0.407v0.109c0.507,0.062,0.958,0.188,1.361,0.376
					c0.178,0.086,0.338,0.235,0.338,0.47c0,0.297-0.282,0.524-0.638,0.524c-0.112,0-0.225-0.023-0.328-0.071
					c-0.263-0.117-0.526-0.211-0.779-0.266v1.19c1.427,0.321,2.037,0.806,2.037,1.683c0,0.877-0.807,1.441-1.99,1.55v0.415
					c0,0.227-0.216,0.407-0.488,0.407c-0.272,0-0.488-0.18-0.488-0.407v-0.423c-0.667-0.07-1.295-0.266-1.849-0.548
					c-0.197-0.102-0.319-0.258-0.319-0.47c0-0.305,0.282-0.532,0.647-0.532c0.122,0,0.253,0.039,0.366,0.102
					c0.394,0.211,0.77,0.36,1.201,0.438v-1.245c-1.352-0.305-2.017-0.736-2.017-1.668c0-0.861,0.788-1.44,1.971-1.542v-0.094
					C54.473,57.701,54.688,57.521,54.96,57.521z M54.519,60.057v-1.057c-0.45,0.055-0.647,0.243-0.647,0.493
					C53.872,59.737,54.003,59.901,54.519,60.057z M55.401,61.428v1.088c0.441-0.055,0.667-0.227,0.667-0.509
					C56.068,61.748,55.908,61.576,55.401,61.428z"/>
			</g>
		</g>
		<g>
			<rect x="23" y="71.002" style="fill:#E1F5FA;" width="64" height="2"/>
		</g>
		<g>
			<rect x="23" y="75.002" style="fill:#E1F5FA;" width="64" height="2"/>
		</g>
		<g>
			<rect x="23" y="79.002" style="fill:#E1F5FA;" width="64" height="2"/>
		</g>
		<g>
			<rect x="23" y="83.002" style="fill:#E1F5FA;" width="64" height="2"/>
		</g>
		<g>
			<polygon style="fill:#E1F5FA;" points="23,71.002 44.527,71.002 46.527,69.002 23,69.002 			"/>
		</g>
		<g>
			<polygon style="fill:#E1F5FA;" points="23,75.002 40.527,75.002 42.527,73.002 23,73.002 			"/>
		</g>
		<g>
			<polygon style="fill:#E1F5FA;" points="23,85.002 23,87.002 28.527,87.002 30.527,85.002 			"/>
		</g>
		<g>
			<polygon style="fill:#E1F5FA;" points="23,79.002 36.527,79.002 38.527,77.002 23,77.002 			"/>
		</g>
		<g>
			<polygon style="fill:#E1F5FA;" points="23,83.002 32.527,83.002 34.527,81.002 23,81.002 			"/>
		</g>
		<g>
			<polygon style="fill:#FFFFFF;" points="23,69.002 46.527,69.002 48.527,67.002 28,67.002 34,55.002 60.527,55.002 62.527,53.002 
				31,53.002 			"/>
		</g>
		<g>
			<path style="fill:#00B7E5;" d="M49,61.002c0-2.761,2.687-5,6-5c1.331,0,2.556,0.365,3.551,0.976l1.976-1.976H34l-6,12h20.527
				l2.364-2.364C49.729,63.726,49,62.436,49,61.002z M39,62.002c-0.552,0-1-0.448-1-1c0-0.552,0.448-1,1-1s1,0.448,1,1
				C40,61.554,39.552,62.002,39,62.002z"/>
		</g>
		<g>
			<circle style="fill:#FFFFFF;" cx="39" cy="61.002" r="1"/>
		</g>
		<g>
			<path style="fill:#FFFFFF;" d="M49,61.002c0,1.435,0.729,2.725,1.891,3.636l1.715-1.715c-0.184-0.102-0.301-0.251-0.301-0.454
				c0-0.305,0.282-0.532,0.647-0.532c0.122,0,0.253,0.039,0.366,0.102c0.04,0.021,0.079,0.034,0.118,0.054l0.906-0.905
				c-1.228-0.303-1.84-0.734-1.84-1.622c0-0.861,0.788-1.44,1.971-1.542v-0.094c0-0.227,0.216-0.407,0.488-0.407
				c0.272,0,0.488,0.18,0.488,0.407v0.109c0.507,0.062,0.958,0.188,1.361,0.376c0.066,0.032,0.126,0.076,0.18,0.126l1.562-1.562
				c-0.995-0.611-2.22-0.976-3.551-0.976C51.686,56.002,49,58.24,49,61.002z"/>
		</g>
		<g>
			<path style="fill:#FFFFFF;" d="M55.401,59.071v1.056l0.788-0.788c-0.003-0.001-0.006,0-0.009-0.002
				C55.918,59.22,55.655,59.126,55.401,59.071z"/>
		</g>
		<g>
			<path style="fill:#FFFFFF;" d="M53.872,59.494c0,0.243,0.131,0.407,0.647,0.564v-1.057
				C54.069,59.055,53.872,59.243,53.872,59.494z"/>
		</g>
		<g>
			<polygon style="fill:#FFFFFF;" points="23,73.002 42.527,73.002 44.527,71.002 23,71.002 			"/>
		</g>
		<g>
			<polygon style="fill:#FFFFFF;" points="23,77.002 38.527,77.002 40.527,75.002 23,75.002 			"/>
		</g>
		<g>
			<polygon style="fill:#FFFFFF;" points="23,81.002 34.527,81.002 36.527,79.002 23,79.002 			"/>
		</g>
		<g>
			<polygon style="fill:#FFFFFF;" points="23,85.002 30.527,85.002 32.527,83.002 23,83.002 			"/>
		</g>
		<g>
			<polygon style="fill:#0081A1;" points="69.663,28.646 73.888,32.871 65,41.759 55,31.759 33.758,53.002 42.242,53.002 55,40.244 
				65,50.244 78.13,37.114 82.355,41.339 87,24.002 			"/>
		</g>
	</g>
</g>
<g id="Green" style="display:none;">
	<g style="display:inline;">
		<g>
			<rect x="23" y="69.002" style="fill:#AAF0E9;" width="64" height="18"/>
		</g>
		<g>
			<polygon style="fill:#D7FCF9;" points="23,69.002 31,53.002 79,53.002 87,69.002 			"/>
		</g>
		<g>
			<polygon style="fill:#00B8A5;" points="28,67.002 34,55.002 76,55.002 82,67.002 			"/>
		</g>
		<g>
			<circle style="fill:#AAF0E9;" cx="71" cy="61.002" r="1"/>
		</g>
		<g>
			<circle style="fill:#AAF0E9;" cx="39" cy="61.002" r="1"/>
		</g>
		<g>
			<ellipse style="fill:#AAF0E9;" cx="55" cy="61.002" rx="6" ry="5"/>
		</g>
		<g>
			<g>
				<path style="fill:#00D6C1;" d="M54.96,57.521c0.272,0,0.488,0.18,0.488,0.407v0.109c0.507,0.062,0.958,0.188,1.361,0.376
					c0.178,0.086,0.338,0.235,0.338,0.47c0,0.297-0.282,0.525-0.638,0.525c-0.112,0-0.225-0.024-0.328-0.071
					c-0.263-0.117-0.526-0.211-0.779-0.266v1.19c1.427,0.321,2.037,0.806,2.037,1.683c0,0.877-0.807,1.441-1.99,1.55v0.415
					c0,0.227-0.216,0.407-0.488,0.407c-0.272,0-0.488-0.18-0.488-0.407v-0.423c-0.667-0.07-1.295-0.266-1.849-0.548
					c-0.197-0.102-0.319-0.258-0.319-0.47c0-0.305,0.282-0.532,0.647-0.532c0.122,0,0.254,0.039,0.366,0.102
					c0.394,0.211,0.769,0.36,1.201,0.438v-1.245c-1.352-0.305-2.018-0.736-2.018-1.667c0-0.861,0.788-1.44,1.971-1.542v-0.094
					C54.473,57.701,54.688,57.521,54.96,57.521z M54.52,60.057v-1.057c-0.45,0.055-0.647,0.243-0.647,0.493
					C53.872,59.736,54.003,59.901,54.52,60.057z M55.401,61.427v1.088c0.441-0.055,0.667-0.227,0.667-0.509
					C56.068,61.748,55.908,61.576,55.401,61.427z"/>
			</g>
		</g>
		<g>
			<rect x="23" y="71.002" style="fill:#D7FCF9;" width="64" height="2"/>
		</g>
		<g>
			<rect x="23" y="75.002" style="fill:#D7FCF9;" width="64" height="2"/>
		</g>
		<g>
			<rect x="23" y="79.002" style="fill:#D7FCF9;" width="64" height="2"/>
		</g>
		<g>
			<rect x="23" y="83.002" style="fill:#D7FCF9;" width="64" height="2"/>
		</g>
		<g>
			<polygon style="fill:#D7FCF9;" points="23,71.002 44.527,71.002 46.527,69.002 23,69.002 			"/>
		</g>
		<g>
			<polygon style="fill:#D7FCF9;" points="23,75.002 40.527,75.002 42.527,73.002 23,73.002 			"/>
		</g>
		<g>
			<polygon style="fill:#D7FCF9;" points="23,85.002 23,87.002 28.527,87.002 30.527,85.002 			"/>
		</g>
		<g>
			<polygon style="fill:#D7FCF9;" points="23,79.002 36.527,79.002 38.527,77.002 23,77.002 			"/>
		</g>
		<g>
			<polygon style="fill:#D7FCF9;" points="23,83.002 32.527,83.002 34.527,81.002 23,81.002 			"/>
		</g>
		<g>
			<polygon style="fill:#FFFFFF;" points="23,69.002 46.527,69.002 48.527,67.002 28,67.002 34,55.002 60.527,55.002 62.527,53.002 
				31,53.002 			"/>
		</g>
		<g>
			<path style="fill:#00D6C1;" d="M49,61.002c0-2.762,2.687-5,6-5c1.331,0,2.556,0.365,3.551,0.976l1.976-1.976H34l-6,12h20.527
				l2.364-2.364C49.729,63.726,49,62.436,49,61.002z M39,62.002c-0.552,0-1-0.448-1-1c0-0.552,0.448-1,1-1s1,0.448,1,1
				C40,61.554,39.552,62.002,39,62.002z"/>
		</g>
		<g>
			<circle style="fill:#FFFFFF;" cx="39" cy="61.002" r="1"/>
		</g>
		<g>
			<path style="fill:#FFFFFF;" d="M49,61.002c0,1.435,0.729,2.725,1.891,3.636l1.715-1.715c-0.184-0.102-0.301-0.251-0.301-0.454
				c0-0.305,0.282-0.532,0.647-0.532c0.122,0,0.254,0.039,0.366,0.102c0.039,0.021,0.079,0.034,0.118,0.054l0.906-0.905
				c-1.228-0.303-1.84-0.734-1.84-1.622c0-0.861,0.788-1.44,1.971-1.542v-0.094c0-0.227,0.216-0.407,0.488-0.407
				c0.272,0,0.488,0.18,0.488,0.407v0.109c0.507,0.062,0.958,0.188,1.361,0.376c0.066,0.032,0.126,0.076,0.18,0.126l1.562-1.562
				c-0.995-0.611-2.22-0.976-3.551-0.976C51.687,56.002,49,58.24,49,61.002z"/>
		</g>
		<g>
			<path style="fill:#FFFFFF;" d="M55.401,59.071v1.056l0.788-0.788c-0.003-0.001-0.006,0-0.009-0.002
				C55.918,59.22,55.655,59.126,55.401,59.071z"/>
		</g>
		<g>
			<path style="fill:#FFFFFF;" d="M53.872,59.494c0,0.243,0.131,0.407,0.647,0.563v-1.057
				C54.069,59.055,53.872,59.243,53.872,59.494z"/>
		</g>
		<g>
			<polygon style="fill:#FFFFFF;" points="23,73.002 42.527,73.002 44.527,71.002 23,71.002 			"/>
		</g>
		<g>
			<polygon style="fill:#FFFFFF;" points="23,77.002 38.527,77.002 40.527,75.002 23,75.002 			"/>
		</g>
		<g>
			<polygon style="fill:#FFFFFF;" points="23,81.002 34.527,81.002 36.527,79.002 23,79.002 			"/>
		</g>
		<g>
			<polygon style="fill:#FFFFFF;" points="23,85.002 30.527,85.002 32.527,83.002 23,83.002 			"/>
		</g>
		<g>
			<polygon style="fill:#009687;" points="69.663,28.646 73.888,32.871 65,41.759 55,31.759 33.758,53.002 42.242,53.002 55,40.244 
				65,50.244 78.13,37.114 82.355,41.339 87,24.002 			"/>
		</g>
	</g>
</g>
<g id="R-Green" style="display:none;">
	<g style="display:inline;">
		<circle style="fill:#87E0C8;" cx="55" cy="55" r="55"/>
	</g>
	<g style="display:inline;">
		<g>
			<rect x="23" y="69.002" style="fill:#AAF0E9;" width="64" height="18"/>
		</g>
		<g>
			<polygon style="fill:#D7FCF9;" points="23,69.002 31,53.002 79,53.002 87,69.002 			"/>
		</g>
		<g>
			<polygon style="fill:#00B8A5;" points="28,67.002 34,55.002 76,55.002 82,67.002 			"/>
		</g>
		<g>
			<circle style="fill:#AAF0E9;" cx="71" cy="61.002" r="1"/>
		</g>
		<g>
			<circle style="fill:#AAF0E9;" cx="39" cy="61.002" r="1"/>
		</g>
		<g>
			<ellipse style="fill:#AAF0E9;" cx="55" cy="61.002" rx="6" ry="5"/>
		</g>
		<g>
			<g>
				<path style="fill:#00D6C1;" d="M54.96,57.521c0.272,0,0.488,0.18,0.488,0.407v0.109c0.507,0.062,0.958,0.188,1.361,0.376
					c0.178,0.086,0.338,0.235,0.338,0.47c0,0.297-0.282,0.524-0.638,0.524c-0.112,0-0.225-0.023-0.328-0.071
					c-0.263-0.117-0.526-0.211-0.779-0.266v1.19c1.427,0.321,2.037,0.806,2.037,1.683c0,0.877-0.807,1.441-1.99,1.55v0.415
					c0,0.227-0.216,0.407-0.488,0.407c-0.272,0-0.488-0.18-0.488-0.407v-0.423c-0.667-0.07-1.295-0.266-1.849-0.548
					c-0.197-0.102-0.319-0.258-0.319-0.47c0-0.305,0.282-0.532,0.647-0.532c0.122,0,0.253,0.039,0.366,0.102
					c0.394,0.211,0.77,0.36,1.201,0.438v-1.245c-1.352-0.305-2.017-0.736-2.017-1.668c0-0.861,0.788-1.44,1.971-1.542v-0.094
					C54.473,57.701,54.688,57.521,54.96,57.521z M54.519,60.057v-1.057c-0.45,0.055-0.647,0.243-0.647,0.493
					C53.872,59.737,54.003,59.901,54.519,60.057z M55.401,61.428v1.088c0.441-0.055,0.667-0.227,0.667-0.509
					C56.068,61.748,55.908,61.576,55.401,61.428z"/>
			</g>
		</g>
		<g>
			<rect x="23" y="71.002" style="fill:#D7FCF9;" width="64" height="2"/>
		</g>
		<g>
			<rect x="23" y="75.002" style="fill:#D7FCF9;" width="64" height="2"/>
		</g>
		<g>
			<rect x="23" y="79.002" style="fill:#D7FCF9;" width="64" height="2"/>
		</g>
		<g>
			<rect x="23" y="83.002" style="fill:#D7FCF9;" width="64" height="2"/>
		</g>
		<g>
			<polygon style="fill:#D7FCF9;" points="23,71.002 44.527,71.002 46.527,69.002 23,69.002 			"/>
		</g>
		<g>
			<polygon style="fill:#D7FCF9;" points="23,75.002 40.527,75.002 42.527,73.002 23,73.002 			"/>
		</g>
		<g>
			<polygon style="fill:#D7FCF9;" points="23,85.002 23,87.002 28.527,87.002 30.527,85.002 			"/>
		</g>
		<g>
			<polygon style="fill:#D7FCF9;" points="23,79.002 36.527,79.002 38.527,77.002 23,77.002 			"/>
		</g>
		<g>
			<polygon style="fill:#D7FCF9;" points="23,83.002 32.527,83.002 34.527,81.002 23,81.002 			"/>
		</g>
		<g>
			<polygon style="fill:#FFFFFF;" points="23,69.002 46.527,69.002 48.527,67.002 28,67.002 34,55.002 60.527,55.002 62.527,53.002 
				31,53.002 			"/>
		</g>
		<g>
			<path style="fill:#00D6C1;" d="M49,61.002c0-2.761,2.687-5,6-5c1.331,0,2.556,0.365,3.551,0.976l1.976-1.976H34l-6,12h20.527
				l2.364-2.364C49.729,63.726,49,62.436,49,61.002z M39,62.002c-0.552,0-1-0.448-1-1c0-0.552,0.448-1,1-1s1,0.448,1,1
				C40,61.554,39.552,62.002,39,62.002z"/>
		</g>
		<g>
			<circle style="fill:#FFFFFF;" cx="39" cy="61.002" r="1"/>
		</g>
		<g>
			<path style="fill:#FFFFFF;" d="M49,61.002c0,1.435,0.729,2.725,1.891,3.636l1.715-1.715c-0.184-0.102-0.301-0.251-0.301-0.454
				c0-0.305,0.282-0.532,0.647-0.532c0.122,0,0.253,0.039,0.366,0.102c0.04,0.021,0.079,0.034,0.118,0.054l0.906-0.905
				c-1.228-0.303-1.84-0.734-1.84-1.622c0-0.861,0.788-1.44,1.971-1.542v-0.094c0-0.227,0.216-0.407,0.488-0.407
				c0.272,0,0.488,0.18,0.488,0.407v0.109c0.507,0.062,0.958,0.188,1.361,0.376c0.066,0.032,0.126,0.076,0.18,0.126l1.562-1.562
				c-0.995-0.611-2.22-0.976-3.551-0.976C51.686,56.002,49,58.24,49,61.002z"/>
		</g>
		<g>
			<path style="fill:#FFFFFF;" d="M55.401,59.071v1.056l0.788-0.788c-0.003-0.001-0.006,0-0.009-0.002
				C55.918,59.22,55.655,59.126,55.401,59.071z"/>
		</g>
		<g>
			<path style="fill:#FFFFFF;" d="M53.872,59.494c0,0.243,0.131,0.407,0.647,0.564v-1.057
				C54.069,59.055,53.872,59.243,53.872,59.494z"/>
		</g>
		<g>
			<polygon style="fill:#FFFFFF;" points="23,73.002 42.527,73.002 44.527,71.002 23,71.002 			"/>
		</g>
		<g>
			<polygon style="fill:#FFFFFF;" points="23,77.002 38.527,77.002 40.527,75.002 23,75.002 			"/>
		</g>
		<g>
			<polygon style="fill:#FFFFFF;" points="23,81.002 34.527,81.002 36.527,79.002 23,79.002 			"/>
		</g>
		<g>
			<polygon style="fill:#FFFFFF;" points="23,85.002 30.527,85.002 32.527,83.002 23,83.002 			"/>
		</g>
		<g>
			<polygon style="fill:#009687;" points="69.663,28.646 73.888,32.871 65,41.759 55,31.759 33.758,53.002 42.242,53.002 55,40.244 
				65,50.244 78.13,37.114 82.355,41.339 87,24.002 			"/>
		</g>
	</g>
</g>
<g id="Red" style="display:none;">
	<g style="display:inline;">
		<g>
			<rect x="23" y="69.002" style="fill:#FFD7D4;" width="64" height="18"/>
		</g>
		<g>
			<polygon style="fill:#FFEFED;" points="23,69.002 31,53.002 79,53.002 87,69.002 			"/>
		</g>
		<g>
			<polygon style="fill:#E54B44;" points="28,67.002 34,55.002 76,55.002 82,67.002 			"/>
		</g>
		<g>
			<circle style="fill:#FFD7D4;" cx="71" cy="61.002" r="1"/>
		</g>
		<g>
			<circle style="fill:#FFD7D4;" cx="39" cy="61.002" r="1"/>
		</g>
		<g>
			<ellipse style="fill:#FFD7D4;" cx="55" cy="61.002" rx="6" ry="5"/>
		</g>
		<g>
			<g>
				<path style="fill:#FF6C5E;" d="M54.96,57.521c0.272,0,0.488,0.18,0.488,0.407v0.109c0.507,0.062,0.958,0.188,1.361,0.376
					c0.178,0.086,0.338,0.235,0.338,0.47c0,0.297-0.282,0.525-0.638,0.525c-0.112,0-0.225-0.024-0.328-0.071
					c-0.263-0.117-0.526-0.211-0.779-0.266v1.19c1.427,0.321,2.037,0.806,2.037,1.683c0,0.877-0.807,1.441-1.99,1.55v0.415
					c0,0.227-0.216,0.407-0.488,0.407c-0.272,0-0.488-0.18-0.488-0.407v-0.423c-0.667-0.07-1.295-0.266-1.849-0.548
					c-0.197-0.102-0.319-0.258-0.319-0.47c0-0.305,0.282-0.532,0.647-0.532c0.122,0,0.253,0.039,0.366,0.102
					c0.394,0.211,0.77,0.36,1.201,0.438v-1.245c-1.352-0.305-2.017-0.736-2.017-1.667c0-0.861,0.788-1.44,1.971-1.542v-0.094
					C54.473,57.701,54.688,57.521,54.96,57.521z M54.519,60.057v-1.057c-0.45,0.055-0.647,0.243-0.647,0.493
					C53.872,59.736,54.003,59.901,54.519,60.057z M55.401,61.427v1.088c0.441-0.055,0.667-0.227,0.667-0.509
					C56.068,61.748,55.908,61.576,55.401,61.427z"/>
			</g>
		</g>
		<g>
			<rect x="23" y="71.002" style="fill:#FFEFED;" width="64" height="2"/>
		</g>
		<g>
			<rect x="23" y="75.002" style="fill:#FFEFED;" width="64" height="2"/>
		</g>
		<g>
			<rect x="23" y="79.002" style="fill:#FFEFED;" width="64" height="2"/>
		</g>
		<g>
			<rect x="23" y="83.002" style="fill:#FFEFED;" width="64" height="2"/>
		</g>
		<g>
			<polygon style="fill:#FFEFED;" points="23,71.002 44.527,71.002 46.527,69.002 23,69.002 			"/>
		</g>
		<g>
			<polygon style="fill:#FFEFED;" points="23,75.002 40.527,75.002 42.527,73.002 23,73.002 			"/>
		</g>
		<g>
			<polygon style="fill:#FFEFED;" points="23,85.002 23,87.002 28.527,87.002 30.527,85.002 			"/>
		</g>
		<g>
			<polygon style="fill:#FFEFED;" points="23,79.002 36.527,79.002 38.527,77.002 23,77.002 			"/>
		</g>
		<g>
			<polygon style="fill:#FFEFED;" points="23,83.002 32.527,83.002 34.527,81.002 23,81.002 			"/>
		</g>
		<g>
			<polygon style="fill:#FFFFFF;" points="23,69.002 46.527,69.002 48.527,67.002 28,67.002 34,55.002 60.527,55.002 62.527,53.002 
				31,53.002 			"/>
		</g>
		<g>
			<path style="fill:#FF6C5E;" d="M49,61.002c0-2.762,2.687-5,6-5c1.331,0,2.556,0.365,3.551,0.976l1.976-1.976H34l-6,12h20.527
				l2.364-2.364C49.729,63.726,49,62.436,49,61.002z M39,62.002c-0.552,0-1-0.448-1-1c0-0.552,0.448-1,1-1s1,0.448,1,1
				C40,61.554,39.552,62.002,39,62.002z"/>
		</g>
		<g>
			<circle style="fill:#FFFFFF;" cx="39" cy="61.002" r="1"/>
		</g>
		<g>
			<path style="fill:#FFFFFF;" d="M49,61.002c0,1.435,0.729,2.725,1.891,3.636l1.715-1.715c-0.184-0.102-0.301-0.251-0.301-0.454
				c0-0.305,0.282-0.532,0.647-0.532c0.122,0,0.253,0.039,0.366,0.102c0.04,0.021,0.079,0.034,0.118,0.054l0.906-0.905
				c-1.228-0.303-1.84-0.734-1.84-1.622c0-0.861,0.788-1.44,1.971-1.542v-0.094c0-0.227,0.216-0.407,0.488-0.407
				c0.272,0,0.488,0.18,0.488,0.407v0.109c0.507,0.062,0.958,0.188,1.361,0.376c0.066,0.032,0.126,0.076,0.18,0.126l1.562-1.562
				c-0.995-0.611-2.22-0.976-3.551-0.976C51.686,56.002,49,58.24,49,61.002z"/>
		</g>
		<g>
			<path style="fill:#FFFFFF;" d="M55.401,59.071v1.056l0.788-0.788c-0.003-0.001-0.006,0-0.009-0.002
				C55.918,59.22,55.655,59.126,55.401,59.071z"/>
		</g>
		<g>
			<path style="fill:#FFFFFF;" d="M53.872,59.494c0,0.243,0.131,0.407,0.647,0.563v-1.057
				C54.069,59.055,53.872,59.243,53.872,59.494z"/>
		</g>
		<g>
			<polygon style="fill:#FFFFFF;" points="23,73.002 42.527,73.002 44.527,71.002 23,71.002 			"/>
		</g>
		<g>
			<polygon style="fill:#FFFFFF;" points="23,77.002 38.527,77.002 40.527,75.002 23,75.002 			"/>
		</g>
		<g>
			<polygon style="fill:#FFFFFF;" points="23,81.002 34.527,81.002 36.527,79.002 23,79.002 			"/>
		</g>
		<g>
			<polygon style="fill:#FFFFFF;" points="23,85.002 30.527,85.002 32.527,83.002 23,83.002 			"/>
		</g>
		<g>
			<polygon style="fill:#C23023;" points="69.663,28.646 73.888,32.871 65,41.759 55,31.759 33.758,53.002 42.242,53.002 55,40.244 
				65,50.244 78.13,37.114 82.355,41.339 87,24.002 			"/>
		</g>
	</g>
</g>
<g id="R-Red" style="display:none;">
	<g style="display:inline;">
		<circle style="fill:#FABBAF;" cx="55" cy="55" r="55"/>
	</g>
	<g style="display:inline;">
		<g>
			<rect x="23" y="69.002" style="fill:#FFD7D4;" width="64" height="18"/>
		</g>
		<g>
			<polygon style="fill:#FFEFED;" points="23,69.002 31,53.002 79,53.002 87,69.002 			"/>
		</g>
		<g>
			<polygon style="fill:#E54B44;" points="28,67.002 34,55.002 76,55.002 82,67.002 			"/>
		</g>
		<g>
			<circle style="fill:#FFD7D4;" cx="71" cy="61.002" r="1"/>
		</g>
		<g>
			<circle style="fill:#FFD7D4;" cx="39" cy="61.002" r="1"/>
		</g>
		<g>
			<ellipse style="fill:#FFD7D4;" cx="55" cy="61.002" rx="6" ry="5"/>
		</g>
		<g>
			<g>
				<path style="fill:#FF6C5E;" d="M54.96,57.521c0.272,0,0.488,0.18,0.488,0.407v0.109c0.507,0.062,0.958,0.188,1.361,0.376
					c0.178,0.086,0.338,0.235,0.338,0.47c0,0.297-0.282,0.524-0.638,0.524c-0.112,0-0.225-0.023-0.328-0.071
					c-0.263-0.117-0.526-0.211-0.779-0.266v1.19c1.427,0.321,2.037,0.806,2.037,1.683c0,0.877-0.807,1.441-1.99,1.55v0.415
					c0,0.227-0.216,0.407-0.488,0.407c-0.272,0-0.488-0.18-0.488-0.407v-0.423c-0.667-0.07-1.295-0.266-1.849-0.548
					c-0.197-0.102-0.319-0.258-0.319-0.47c0-0.305,0.282-0.532,0.647-0.532c0.122,0,0.254,0.039,0.366,0.102
					c0.394,0.211,0.769,0.36,1.201,0.438v-1.245c-1.352-0.305-2.018-0.736-2.018-1.668c0-0.861,0.788-1.44,1.971-1.542v-0.094
					C54.473,57.701,54.688,57.521,54.96,57.521z M54.52,60.057v-1.057c-0.45,0.055-0.647,0.243-0.647,0.493
					C53.872,59.737,54.003,59.901,54.52,60.057z M55.401,61.428v1.088c0.441-0.055,0.667-0.227,0.667-0.509
					C56.068,61.748,55.908,61.576,55.401,61.428z"/>
			</g>
		</g>
		<g>
			<rect x="23" y="71.002" style="fill:#FFEFED;" width="64" height="2"/>
		</g>
		<g>
			<rect x="23" y="75.002" style="fill:#FFEFED;" width="64" height="2"/>
		</g>
		<g>
			<rect x="23" y="79.002" style="fill:#FFEFED;" width="64" height="2"/>
		</g>
		<g>
			<rect x="23" y="83.002" style="fill:#FFEFED;" width="64" height="2"/>
		</g>
		<g>
			<polygon style="fill:#FFEFED;" points="23,71.002 44.527,71.002 46.527,69.002 23,69.002 			"/>
		</g>
		<g>
			<polygon style="fill:#FFEFED;" points="23,75.002 40.527,75.002 42.527,73.002 23,73.002 			"/>
		</g>
		<g>
			<polygon style="fill:#FFEFED;" points="23,85.002 23,87.002 28.527,87.002 30.527,85.002 			"/>
		</g>
		<g>
			<polygon style="fill:#FFEFED;" points="23,79.002 36.527,79.002 38.527,77.002 23,77.002 			"/>
		</g>
		<g>
			<polygon style="fill:#FFEFED;" points="23,83.002 32.527,83.002 34.527,81.002 23,81.002 			"/>
		</g>
		<g>
			<polygon style="fill:#FFFFFF;" points="23,69.002 46.527,69.002 48.527,67.002 28,67.002 34,55.002 60.527,55.002 62.527,53.002 
				31,53.002 			"/>
		</g>
		<g>
			<path style="fill:#FF6C5E;" d="M49,61.002c0-2.761,2.687-5,6-5c1.331,0,2.556,0.365,3.551,0.976l1.976-1.976H34l-6,12h20.527
				l2.364-2.364C49.729,63.726,49,62.436,49,61.002z M39,62.002c-0.552,0-1-0.448-1-1c0-0.552,0.448-1,1-1s1,0.448,1,1
				C40,61.554,39.552,62.002,39,62.002z"/>
		</g>
		<g>
			<circle style="fill:#FFFFFF;" cx="39" cy="61.002" r="1"/>
		</g>
		<g>
			<path style="fill:#FFFFFF;" d="M49,61.002c0,1.435,0.729,2.725,1.891,3.636l1.715-1.715c-0.184-0.102-0.301-0.251-0.301-0.454
				c0-0.305,0.282-0.532,0.647-0.532c0.122,0,0.254,0.039,0.366,0.102c0.039,0.021,0.079,0.034,0.118,0.054l0.906-0.905
				c-1.228-0.303-1.84-0.734-1.84-1.622c0-0.861,0.788-1.44,1.971-1.542v-0.094c0-0.227,0.216-0.407,0.488-0.407
				c0.272,0,0.488,0.18,0.488,0.407v0.109c0.507,0.062,0.958,0.188,1.361,0.376c0.066,0.032,0.126,0.076,0.18,0.126l1.562-1.562
				c-0.995-0.611-2.22-0.976-3.551-0.976C51.687,56.002,49,58.24,49,61.002z"/>
		</g>
		<g>
			<path style="fill:#FFFFFF;" d="M55.401,59.071v1.056l0.788-0.788c-0.003-0.001-0.006,0-0.009-0.002
				C55.918,59.22,55.655,59.126,55.401,59.071z"/>
		</g>
		<g>
			<path style="fill:#FFFFFF;" d="M53.872,59.494c0,0.243,0.131,0.407,0.647,0.564v-1.057
				C54.069,59.055,53.872,59.243,53.872,59.494z"/>
		</g>
		<g>
			<polygon style="fill:#FFFFFF;" points="23,73.002 42.527,73.002 44.527,71.002 23,71.002 			"/>
		</g>
		<g>
			<polygon style="fill:#FFFFFF;" points="23,77.002 38.527,77.002 40.527,75.002 23,75.002 			"/>
		</g>
		<g>
			<polygon style="fill:#FFFFFF;" points="23,81.002 34.527,81.002 36.527,79.002 23,79.002 			"/>
		</g>
		<g>
			<polygon style="fill:#FFFFFF;" points="23,85.002 30.527,85.002 32.527,83.002 23,83.002 			"/>
		</g>
		<g>
			<polygon style="fill:#C23023;" points="69.663,28.646 73.888,32.871 65,41.759 55,31.759 33.758,53.002 42.242,53.002 55,40.244 
				65,50.244 78.13,37.114 82.355,41.339 87,24.002 			"/>
		</g>
	</g>
</g>
<g id="Yellow" style="display:none;">
	<g style="display:inline;">
		<g>
			<rect x="23" y="69.002" style="fill:#FFE9A1;" width="64" height="18"/>
		</g>
		<g>
			<polygon style="fill:#FFF5D9;" points="23,69.002 31,53.002 79,53.002 87,69.002 			"/>
		</g>
		<g>
			<polygon style="fill:#FA9200;" points="28,67.002 34,55.002 76,55.002 82,67.002 			"/>
		</g>
		<g>
			<circle style="fill:#FFE9A1;" cx="71" cy="61.002" r="1"/>
		</g>
		<g>
			<circle style="fill:#FFE9A1;" cx="39" cy="61.002" r="1"/>
		</g>
		<g>
			<ellipse style="fill:#FFE9A1;" cx="55" cy="61.002" rx="6" ry="5"/>
		</g>
		<g>
			<g>
				<path style="fill:#FFAA00;" d="M54.96,57.521c0.272,0,0.488,0.18,0.488,0.407v0.109c0.507,0.062,0.958,0.188,1.361,0.376
					c0.178,0.086,0.338,0.235,0.338,0.47c0,0.297-0.282,0.524-0.638,0.524c-0.112,0-0.225-0.023-0.328-0.071
					c-0.263-0.117-0.526-0.211-0.779-0.266v1.19c1.427,0.321,2.037,0.806,2.037,1.683c0,0.877-0.807,1.441-1.99,1.55v0.415
					c0,0.227-0.216,0.407-0.488,0.407c-0.272,0-0.488-0.18-0.488-0.407v-0.423c-0.667-0.07-1.295-0.266-1.849-0.548
					c-0.197-0.102-0.319-0.258-0.319-0.47c0-0.305,0.282-0.532,0.647-0.532c0.122,0,0.253,0.039,0.366,0.102
					c0.394,0.211,0.77,0.36,1.201,0.438v-1.245c-1.352-0.305-2.017-0.736-2.017-1.668c0-0.861,0.788-1.44,1.971-1.542v-0.094
					C54.473,57.701,54.688,57.521,54.96,57.521z M54.52,60.057v-1.057c-0.45,0.055-0.647,0.243-0.647,0.493
					C53.872,59.737,54.003,59.901,54.52,60.057z M55.401,61.428v1.088c0.441-0.055,0.667-0.227,0.667-0.509
					C56.068,61.748,55.908,61.576,55.401,61.428z"/>
			</g>
		</g>
		<g>
			<rect x="23" y="71.002" style="fill:#FFF5D9;" width="64" height="2"/>
		</g>
		<g>
			<rect x="23" y="75.002" style="fill:#FFF5D9;" width="64" height="2"/>
		</g>
		<g>
			<rect x="23" y="79.002" style="fill:#FFF5D9;" width="64" height="2"/>
		</g>
		<g>
			<rect x="23" y="83.002" style="fill:#FFF5D9;" width="64" height="2"/>
		</g>
		<g>
			<polygon style="fill:#FFF5D9;" points="23,71.002 44.527,71.002 46.527,69.002 23,69.002 			"/>
		</g>
		<g>
			<polygon style="fill:#FFF5D9;" points="23,75.002 40.527,75.002 42.527,73.002 23,73.002 			"/>
		</g>
		<g>
			<polygon style="fill:#FFF5D9;" points="23,85.002 23,87.002 28.527,87.002 30.527,85.002 			"/>
		</g>
		<g>
			<polygon style="fill:#FFF5D9;" points="23,79.002 36.527,79.002 38.527,77.002 23,77.002 			"/>
		</g>
		<g>
			<polygon style="fill:#FFF5D9;" points="23,83.002 32.527,83.002 34.527,81.002 23,81.002 			"/>
		</g>
		<g>
			<polygon style="fill:#FFFFFF;" points="23,69.002 46.527,69.002 48.527,67.002 28,67.002 34,55.002 60.527,55.002 62.527,53.002 
				31,53.002 			"/>
		</g>
		<g>
			<path style="fill:#FFAA00;" d="M49,61.002c0-2.761,2.687-5,6-5c1.331,0,2.556,0.365,3.551,0.976l1.976-1.976H34l-6,12h20.527
				l2.364-2.364C49.729,63.726,49,62.436,49,61.002z M39,62.002c-0.552,0-1-0.448-1-1c0-0.552,0.448-1,1-1s1,0.448,1,1
				C40,61.554,39.552,62.002,39,62.002z"/>
		</g>
		<g>
			<circle style="fill:#FFFFFF;" cx="39" cy="61.002" r="1"/>
		</g>
		<g>
			<path style="fill:#FFFFFF;" d="M49,61.002c0,1.435,0.729,2.725,1.891,3.636l1.715-1.715c-0.184-0.102-0.301-0.251-0.301-0.454
				c0-0.305,0.282-0.532,0.647-0.532c0.122,0,0.253,0.039,0.366,0.102c0.04,0.021,0.079,0.034,0.118,0.054l0.906-0.905
				c-1.228-0.303-1.84-0.734-1.84-1.622c0-0.861,0.788-1.44,1.971-1.542v-0.094c0-0.227,0.216-0.407,0.488-0.407
				c0.272,0,0.488,0.18,0.488,0.407v0.109c0.507,0.062,0.958,0.188,1.361,0.376c0.066,0.032,0.126,0.076,0.18,0.126l1.562-1.562
				c-0.995-0.611-2.22-0.976-3.551-0.976C51.687,56.002,49,58.24,49,61.002z"/>
		</g>
		<g>
			<path style="fill:#FFFFFF;" d="M55.401,59.071v1.056l0.788-0.788c-0.003-0.001-0.006,0-0.009-0.002
				C55.918,59.22,55.655,59.126,55.401,59.071z"/>
		</g>
		<g>
			<path style="fill:#FFFFFF;" d="M53.872,59.494c0,0.243,0.131,0.407,0.647,0.564v-1.057
				C54.069,59.055,53.872,59.243,53.872,59.494z"/>
		</g>
		<g>
			<polygon style="fill:#FFFFFF;" points="23,73.002 42.527,73.002 44.527,71.002 23,71.002 			"/>
		</g>
		<g>
			<polygon style="fill:#FFFFFF;" points="23,77.002 38.527,77.002 40.527,75.002 23,75.002 			"/>
		</g>
		<g>
			<polygon style="fill:#FFFFFF;" points="23,81.002 34.527,81.002 36.527,79.002 23,79.002 			"/>
		</g>
		<g>
			<polygon style="fill:#FFFFFF;" points="23,85.002 30.527,85.002 32.527,83.002 23,83.002 			"/>
		</g>
		<g>
			<polygon style="fill:#E07000;" points="69.663,28.646 73.888,32.871 65,41.759 55,31.759 33.758,53.002 42.242,53.002 55,40.244 
				65,50.244 78.13,37.114 82.355,41.339 87,24.002 			"/>
		</g>
	</g>
</g>
<g id="R-Yellow" style="display:none;">
	<g style="display:inline;">
		<circle style="fill:#FFD75E;" cx="55" cy="55" r="55"/>
	</g>
	<g style="display:inline;">
		<g>
			<rect x="23" y="69.002" style="fill:#FFE9A1;" width="64" height="18"/>
		</g>
		<g>
			<polygon style="fill:#FFF5D9;" points="23,69.002 31,53.002 79,53.002 87,69.002 			"/>
		</g>
		<g>
			<polygon style="fill:#FA9200;" points="28,67.002 34,55.002 76,55.002 82,67.002 			"/>
		</g>
		<g>
			<circle style="fill:#FFE9A1;" cx="71" cy="61.002" r="1"/>
		</g>
		<g>
			<circle style="fill:#FFE9A1;" cx="39" cy="61.002" r="1"/>
		</g>
		<g>
			<ellipse style="fill:#FFE9A1;" cx="55" cy="61.002" rx="6" ry="5"/>
		</g>
		<g>
			<g>
				<path style="fill:#FFAA00;" d="M54.96,57.521c0.272,0,0.488,0.18,0.488,0.407v0.109c0.507,0.062,0.958,0.188,1.361,0.376
					c0.178,0.086,0.338,0.235,0.338,0.47c0,0.297-0.282,0.524-0.638,0.524c-0.112,0-0.225-0.023-0.328-0.071
					c-0.263-0.117-0.526-0.211-0.779-0.266v1.19c1.427,0.321,2.037,0.806,2.037,1.683c0,0.877-0.807,1.441-1.99,1.55v0.415
					c0,0.227-0.216,0.407-0.488,0.407c-0.272,0-0.488-0.18-0.488-0.407v-0.423c-0.667-0.07-1.295-0.266-1.849-0.548
					c-0.197-0.102-0.319-0.258-0.319-0.47c0-0.305,0.282-0.532,0.647-0.532c0.122,0,0.253,0.039,0.366,0.102
					c0.394,0.211,0.77,0.36,1.201,0.438v-1.245c-1.352-0.305-2.017-0.736-2.017-1.668c0-0.861,0.788-1.44,1.971-1.542v-0.094
					C54.473,57.701,54.688,57.521,54.96,57.521z M54.52,60.057v-1.057c-0.45,0.055-0.647,0.243-0.647,0.493
					C53.872,59.737,54.003,59.901,54.52,60.057z M55.401,61.428v1.088c0.441-0.055,0.667-0.227,0.667-0.509
					C56.068,61.748,55.908,61.576,55.401,61.428z"/>
			</g>
		</g>
		<g>
			<rect x="23" y="71.002" style="fill:#FFF5D9;" width="64" height="2"/>
		</g>
		<g>
			<rect x="23" y="75.002" style="fill:#FFF5D9;" width="64" height="2"/>
		</g>
		<g>
			<rect x="23" y="79.002" style="fill:#FFF5D9;" width="64" height="2"/>
		</g>
		<g>
			<rect x="23" y="83.002" style="fill:#FFF5D9;" width="64" height="2"/>
		</g>
		<g>
			<polygon style="fill:#FFF5D9;" points="23,71.002 44.527,71.002 46.527,69.002 23,69.002 			"/>
		</g>
		<g>
			<polygon style="fill:#FFF5D9;" points="23,75.002 40.527,75.002 42.527,73.002 23,73.002 			"/>
		</g>
		<g>
			<polygon style="fill:#FFF5D9;" points="23,85.002 23,87.002 28.527,87.002 30.527,85.002 			"/>
		</g>
		<g>
			<polygon style="fill:#FFF5D9;" points="23,79.002 36.527,79.002 38.527,77.002 23,77.002 			"/>
		</g>
		<g>
			<polygon style="fill:#FFF5D9;" points="23,83.002 32.527,83.002 34.527,81.002 23,81.002 			"/>
		</g>
		<g>
			<polygon style="fill:#FFFFFF;" points="23,69.002 46.527,69.002 48.527,67.002 28,67.002 34,55.002 60.527,55.002 62.527,53.002 
				31,53.002 			"/>
		</g>
		<g>
			<path style="fill:#FFAA00;" d="M49,61.002c0-2.761,2.687-5,6-5c1.331,0,2.556,0.365,3.551,0.976l1.976-1.976H34l-6,12h20.527
				l2.364-2.364C49.729,63.726,49,62.436,49,61.002z M39,62.002c-0.552,0-1-0.448-1-1c0-0.552,0.448-1,1-1s1,0.448,1,1
				C40,61.554,39.552,62.002,39,62.002z"/>
		</g>
		<g>
			<circle style="fill:#FFFFFF;" cx="39" cy="61.002" r="1"/>
		</g>
		<g>
			<path style="fill:#FFFFFF;" d="M49,61.002c0,1.435,0.729,2.725,1.891,3.636l1.715-1.715c-0.184-0.102-0.301-0.251-0.301-0.454
				c0-0.305,0.282-0.532,0.647-0.532c0.122,0,0.253,0.039,0.366,0.102c0.04,0.021,0.079,0.034,0.118,0.054l0.906-0.905
				c-1.228-0.303-1.84-0.734-1.84-1.622c0-0.861,0.788-1.44,1.971-1.542v-0.094c0-0.227,0.216-0.407,0.488-0.407
				c0.272,0,0.488,0.18,0.488,0.407v0.109c0.507,0.062,0.958,0.188,1.361,0.376c0.066,0.032,0.126,0.076,0.18,0.126l1.562-1.562
				c-0.995-0.611-2.22-0.976-3.551-0.976C51.687,56.002,49,58.24,49,61.002z"/>
		</g>
		<g>
			<path style="fill:#FFFFFF;" d="M55.401,59.071v1.056l0.788-0.788c-0.003-0.001-0.006,0-0.009-0.002
				C55.918,59.22,55.655,59.126,55.401,59.071z"/>
		</g>
		<g>
			<path style="fill:#FFFFFF;" d="M53.872,59.494c0,0.243,0.131,0.407,0.647,0.564v-1.057
				C54.069,59.055,53.872,59.243,53.872,59.494z"/>
		</g>
		<g>
			<polygon style="fill:#FFFFFF;" points="23,73.002 42.527,73.002 44.527,71.002 23,71.002 			"/>
		</g>
		<g>
			<polygon style="fill:#FFFFFF;" points="23,77.002 38.527,77.002 40.527,75.002 23,75.002 			"/>
		</g>
		<g>
			<polygon style="fill:#FFFFFF;" points="23,81.002 34.527,81.002 36.527,79.002 23,79.002 			"/>
		</g>
		<g>
			<polygon style="fill:#FFFFFF;" points="23,85.002 30.527,85.002 32.527,83.002 23,83.002 			"/>
		</g>
		<g>
			<polygon style="fill:#E07000;" points="69.663,28.646 73.888,32.871 65,41.759 55,31.759 33.758,53.002 42.242,53.002 55,40.244 
				65,50.244 78.13,37.114 82.355,41.339 87,24.002 			"/>
		</g>
	</g>
</g>
</svg>
