<?xml version="1.0" encoding="iso-8859-1"?>
<!-- Generator: Adobe Illustrator 17.1.0, SVG Export Plug-In . SVG Version: 6.00 Build 0)  -->
<!DOCTYPE svg PUBLIC "-//W3C//DTD SVG 1.0//EN" "http://www.w3.org/TR/2001/REC-SVG-20010904/DTD/svg10.dtd">
<svg version="1.0" xmlns="http://www.w3.org/2000/svg" xmlns:xlink="http://www.w3.org/1999/xlink" x="0px" y="0px" width="110px"
	 height="110px" viewBox="0 0 110 110" style="enable-background:new 0 0 110 110;" xml:space="preserve">
<g id="Artboard" style="display:none;">
	<rect x="-702.5" y="-59.5" style="display:inline;fill:#808080;stroke:#000000;stroke-miterlimit:10;" width="1363" height="720"/>
</g>
<g id="R-Multicolor" style="display:none;">
	<circle style="display:inline;fill:#32BEA6;" cx="55" cy="55" r="55"/>
	<g style="display:inline;">
		<path style="fill:#F0F1F1;" d="M87,29c0-2.209-1.791-4-4-4H27c-2.209,0-4,1.791-4,4v52c0,2.209,1.791,4,4,4h56
			c2.209,0,4-1.791,4-4V29z"/>
		<path style="fill:#FFFFFF;" d="M83,25H27c-2.209,0-4,1.791-4,4v52c0,1.219,0.557,2.297,1.417,3.031l58.99-58.99
			C83.271,25.027,83.139,25,83,25z"/>
		<rect x="49" y="73" style="fill:#17B198;" width="12" height="4"/>
		<rect x="49" y="65" style="fill:#17B198;" width="12" height="4"/>
		<rect x="49" y="57" style="fill:#F3B607;" width="12" height="4"/>
		<rect x="33" y="73" style="fill:#17B198;" width="12" height="4"/>
		<rect x="33" y="65" style="fill:#17B198;" width="12" height="4"/>
		<rect x="33" y="57" style="fill:#F3B607;" width="12" height="4"/>
		<rect x="33" y="49" style="fill:#F37A10;" width="12" height="4"/>
		<rect x="65" y="73" style="fill:#17B198;" width="12" height="4"/>
		<rect x="65" y="65" style="fill:#17B198;" width="12" height="4"/>
		<rect x="65" y="57" style="fill:#F3B607;" width="12" height="4"/>
		<rect x="49" y="49" style="fill:#F37A10;" width="12" height="4"/>
		<rect x="49" y="41" style="fill:#FA5655;" width="12" height="4"/>
		<rect x="49" y="33" style="fill:#DF2C2C;" width="12" height="4"/>
	</g>
</g>
<g id="Multicolor">
	<g>
		<path style="fill:#F0F1F1;" d="M87,29c0-2.209-1.791-4-4-4H27c-2.209,0-4,1.791-4,4v52c0,2.209,1.791,4,4,4h56
			c2.209,0,4-1.791,4-4V29z"/>
		<path style="fill:#FFFFFF;" d="M83,25H27c-2.209,0-4,1.791-4,4v52c0,1.219,0.557,2.297,1.417,3.031l58.99-58.99
			C83.271,25.027,83.139,25,83,25z"/>
		<rect x="49" y="73" style="fill:#17B198;" width="12" height="4"/>
		<rect x="49" y="65" style="fill:#17B198;" width="12" height="4"/>
		<rect x="49" y="57" style="fill:#F3B607;" width="12" height="4"/>
		<rect x="33" y="73" style="fill:#17B198;" width="12" height="4"/>
		<rect x="33" y="65" style="fill:#17B198;" width="12" height="4"/>
		<rect x="33" y="57" style="fill:#F3B607;" width="12" height="4"/>
		<rect x="33" y="49" style="fill:#F37A10;" width="12" height="4"/>
		<rect x="65" y="73" style="fill:#17B198;" width="12" height="4"/>
		<rect x="65" y="65" style="fill:#17B198;" width="12" height="4"/>
		<rect x="65" y="57" style="fill:#F3B607;" width="12" height="4"/>
		<rect x="49" y="49" style="fill:#F37A10;" width="12" height="4"/>
		<rect x="49" y="41" style="fill:#FA5655;" width="12" height="4"/>
		<rect x="49" y="33" style="fill:#DF2C2C;" width="12" height="4"/>
	</g>
</g>
<g id="Blue" style="display:none;">
	<g style="display:inline;">
		<g>
			<path style="fill:#E1F5FA;" d="M87,29c0-2.209-1.791-4-4-4H27c-2.209,0-4,1.791-4,4v52c0,2.21,1.791,4,4,4h56c2.209,0,4-1.79,4-4
				V29z"/>
		</g>
		<g>
			<path style="fill:#FFFFFF;" d="M83,25H27c-2.209,0-4,1.791-4,4v52c0,1.219,0.557,2.297,1.417,3.031l58.99-58.99
				C83.271,25.027,83.139,25,83,25z"/>
		</g>
		<g>
			<rect x="49" y="73" style="fill:#0C333D;" width="12" height="4"/>
		</g>
		<g>
			<rect x="49" y="65" style="fill:#0F6175;" width="12" height="4"/>
		</g>
		<g>
			<rect x="49" y="57" style="fill:#0081A1;" width="12" height="4"/>
		</g>
		<g>
			<rect x="33" y="73" style="fill:#0C333D;" width="12" height="4"/>
		</g>
		<g>
			<rect x="33" y="65" style="fill:#0F6175;" width="12" height="4"/>
		</g>
		<g>
			<rect x="33" y="57" style="fill:#0081A1;" width="12" height="4"/>
		</g>
		<g>
			<rect x="33" y="49" style="fill:#009FC7;" width="12" height="4"/>
		</g>
		<g>
			<rect x="65" y="73" style="fill:#0C333D;" width="12" height="4"/>
		</g>
		<g>
			<rect x="65" y="65" style="fill:#0F6175;" width="12" height="4"/>
		</g>
		<g>
			<rect x="65" y="57" style="fill:#0081A1;" width="12" height="4"/>
		</g>
		<g>
			<rect x="49" y="49" style="fill:#009FC7;" width="12" height="4"/>
		</g>
		<g>
			<rect x="49" y="41" style="fill:#00B7E5;" width="12" height="4"/>
		</g>
		<g>
			<rect x="49" y="33" style="fill:#00B7E5;" width="12" height="4"/>
		</g>
	</g>
</g>
<g id="R-Blue" style="display:none;">
	<g style="display:inline;">
		<circle style="fill:#81D2EB;" cx="55" cy="55" r="55"/>
	</g>
	<g style="display:inline;">
		<g>
			<path style="fill:#E1F5FA;" d="M87,29c0-2.209-1.791-4-4-4H27c-2.209,0-4,1.791-4,4v52c0,2.21,1.791,4,4,4h56c2.209,0,4-1.79,4-4
				V29z"/>
		</g>
		<g>
			<path style="fill:#FFFFFF;" d="M83,25H27c-2.209,0-4,1.791-4,4v52c0,1.219,0.557,2.297,1.417,3.031l58.99-58.99
				C83.271,25.027,83.139,25,83,25z"/>
		</g>
		<g>
			<rect x="49" y="73" style="fill:#0C333D;" width="12" height="4"/>
		</g>
		<g>
			<rect x="49" y="65" style="fill:#0F6175;" width="12" height="4"/>
		</g>
		<g>
			<rect x="49" y="57" style="fill:#0081A1;" width="12" height="4"/>
		</g>
		<g>
			<rect x="33" y="73" style="fill:#0C333D;" width="12" height="4"/>
		</g>
		<g>
			<rect x="33" y="65" style="fill:#0F6175;" width="12" height="4"/>
		</g>
		<g>
			<rect x="33" y="57" style="fill:#0081A1;" width="12" height="4"/>
		</g>
		<g>
			<rect x="33" y="49" style="fill:#009FC7;" width="12" height="4"/>
		</g>
		<g>
			<rect x="65" y="73" style="fill:#0C333D;" width="12" height="4"/>
		</g>
		<g>
			<rect x="65" y="65" style="fill:#0F6175;" width="12" height="4"/>
		</g>
		<g>
			<rect x="65" y="57" style="fill:#0081A1;" width="12" height="4"/>
		</g>
		<g>
			<rect x="49" y="49" style="fill:#009FC7;" width="12" height="4"/>
		</g>
		<g>
			<rect x="49" y="41" style="fill:#00B7E5;" width="12" height="4"/>
		</g>
		<g>
			<rect x="49" y="33" style="fill:#00B7E5;" width="12" height="4"/>
		</g>
	</g>
</g>
<g id="Green" style="display:none;">
	<g style="display:inline;">
		<g>
			<path style="fill:#D7FCF9;" d="M87,29c0-2.209-1.791-4-4-4H27c-2.209,0-4,1.791-4,4v52c0,2.21,1.791,4,4,4h56c2.209,0,4-1.79,4-4
				V29z"/>
		</g>
		<g>
			<path style="fill:#FFFFFF;" d="M83,25H27c-2.209,0-4,1.791-4,4v52c0,1.219,0.557,2.297,1.417,3.031l58.99-58.99
				C83.271,25.027,83.139,25,83,25z"/>
		</g>
		<g>
			<rect x="49" y="73" style="fill:#0A3631;" width="12" height="4"/>
		</g>
		<g>
			<rect x="49" y="65" style="fill:#14635B;" width="12" height="4"/>
		</g>
		<g>
			<rect x="49" y="57" style="fill:#009687;" width="12" height="4"/>
		</g>
		<g>
			<rect x="33" y="73" style="fill:#0A3631;" width="12" height="4"/>
		</g>
		<g>
			<rect x="33" y="65" style="fill:#14635B;" width="12" height="4"/>
		</g>
		<g>
			<rect x="33" y="57" style="fill:#009687;" width="12" height="4"/>
		</g>
		<g>
			<rect x="33" y="49" style="fill:#00B8A5;" width="12" height="4"/>
		</g>
		<g>
			<rect x="65" y="73" style="fill:#0A3631;" width="12" height="4"/>
		</g>
		<g>
			<rect x="65" y="65" style="fill:#14635B;" width="12" height="4"/>
		</g>
		<g>
			<rect x="65" y="57" style="fill:#009687;" width="12" height="4"/>
		</g>
		<g>
			<rect x="49" y="49" style="fill:#00B8A5;" width="12" height="4"/>
		</g>
		<g>
			<rect x="49" y="41" style="fill:#00D6C1;" width="12" height="4"/>
		</g>
		<g>
			<rect x="49" y="33" style="fill:#00D6C1;" width="12" height="4"/>
		</g>
	</g>
</g>
<g id="R-Green" style="display:none;">
	<g style="display:inline;">
		<circle style="fill:#87E0C8;" cx="55" cy="55" r="55"/>
	</g>
	<g style="display:inline;">
		<g>
			<path style="fill:#D7FCF9;" d="M87,29c0-2.209-1.791-4-4-4H27c-2.209,0-4,1.791-4,4v52c0,2.21,1.791,4,4,4h56c2.209,0,4-1.79,4-4
				V29z"/>
		</g>
		<g>
			<path style="fill:#FFFFFF;" d="M83,25H27c-2.209,0-4,1.791-4,4v52c0,1.219,0.557,2.297,1.417,3.031l58.99-58.99
				C83.271,25.027,83.139,25,83,25z"/>
		</g>
		<g>
			<rect x="49" y="73" style="fill:#0A3631;" width="12" height="4"/>
		</g>
		<g>
			<rect x="49" y="65" style="fill:#14635B;" width="12" height="4"/>
		</g>
		<g>
			<rect x="49" y="57" style="fill:#009687;" width="12" height="4"/>
		</g>
		<g>
			<rect x="33" y="73" style="fill:#0A3631;" width="12" height="4"/>
		</g>
		<g>
			<rect x="33" y="65" style="fill:#14635B;" width="12" height="4"/>
		</g>
		<g>
			<rect x="33" y="57" style="fill:#009687;" width="12" height="4"/>
		</g>
		<g>
			<rect x="33" y="49" style="fill:#00B8A5;" width="12" height="4"/>
		</g>
		<g>
			<rect x="65" y="73" style="fill:#0A3631;" width="12" height="4"/>
		</g>
		<g>
			<rect x="65" y="65" style="fill:#14635B;" width="12" height="4"/>
		</g>
		<g>
			<rect x="65" y="57" style="fill:#009687;" width="12" height="4"/>
		</g>
		<g>
			<rect x="49" y="49" style="fill:#00B8A5;" width="12" height="4"/>
		</g>
		<g>
			<rect x="49" y="41" style="fill:#00D6C1;" width="12" height="4"/>
		</g>
		<g>
			<rect x="49" y="33" style="fill:#00D6C1;" width="12" height="4"/>
		</g>
	</g>
</g>
<g id="Red" style="display:none;">
	<g style="display:inline;">
		<g>
			<path style="fill:#FFEFED;" d="M87,29c0-2.209-1.791-4-4-4H27c-2.209,0-4,1.791-4,4v52c0,2.21,1.791,4,4,4h56c2.209,0,4-1.79,4-4
				V29z"/>
		</g>
		<g>
			<path style="fill:#FFFFFF;" d="M83,25H27c-2.209,0-4,1.791-4,4v52c0,1.219,0.557,2.297,1.417,3.031l58.99-58.99
				C83.271,25.027,83.139,25,83,25z"/>
		</g>
		<g>
			<rect x="49" y="73" style="fill:#4A1410;" width="12" height="4"/>
		</g>
		<g>
			<rect x="49" y="65" style="fill:#7D261E;" width="12" height="4"/>
		</g>
		<g>
			<rect x="49" y="57" style="fill:#C23023;" width="12" height="4"/>
		</g>
		<g>
			<rect x="33" y="73" style="fill:#4A1410;" width="12" height="4"/>
		</g>
		<g>
			<rect x="33" y="65" style="fill:#7D261E;" width="12" height="4"/>
		</g>
		<g>
			<rect x="33" y="57" style="fill:#C23023;" width="12" height="4"/>
		</g>
		<g>
			<rect x="33" y="49" style="fill:#E54B44;" width="12" height="4"/>
		</g>
		<g>
			<rect x="65" y="73" style="fill:#4A1410;" width="12" height="4"/>
		</g>
		<g>
			<rect x="65" y="65" style="fill:#7D261E;" width="12" height="4"/>
		</g>
		<g>
			<rect x="65" y="57" style="fill:#C23023;" width="12" height="4"/>
		</g>
		<g>
			<rect x="49" y="49" style="fill:#E54B44;" width="12" height="4"/>
		</g>
		<g>
			<rect x="49" y="41" style="fill:#FF6C5E;" width="12" height="4"/>
		</g>
		<g>
			<rect x="49" y="33" style="fill:#FF6C5E;" width="12" height="4"/>
		</g>
	</g>
</g>
<g id="R-Red" style="display:none;">
	<g style="display:inline;">
		<circle style="fill:#FABBAF;" cx="55" cy="55" r="55"/>
	</g>
	<g style="display:inline;">
		<g>
			<path style="fill:#FFEFED;" d="M87,29c0-2.209-1.791-4-4-4H27c-2.209,0-4,1.791-4,4v52c0,2.21,1.791,4,4,4h56c2.209,0,4-1.79,4-4
				V29z"/>
		</g>
		<g>
			<path style="fill:#FFFFFF;" d="M83,25H27c-2.209,0-4,1.791-4,4v52c0,1.219,0.557,2.297,1.417,3.031l58.99-58.99
				C83.271,25.027,83.139,25,83,25z"/>
		</g>
		<g>
			<rect x="49" y="73" style="fill:#4A1410;" width="12" height="4"/>
		</g>
		<g>
			<rect x="49" y="65" style="fill:#7D261E;" width="12" height="4"/>
		</g>
		<g>
			<rect x="49" y="57" style="fill:#C23023;" width="12" height="4"/>
		</g>
		<g>
			<rect x="33" y="73" style="fill:#4A1410;" width="12" height="4"/>
		</g>
		<g>
			<rect x="33" y="65" style="fill:#7D261E;" width="12" height="4"/>
		</g>
		<g>
			<rect x="33" y="57" style="fill:#C23023;" width="12" height="4"/>
		</g>
		<g>
			<rect x="33" y="49" style="fill:#E54B44;" width="12" height="4"/>
		</g>
		<g>
			<rect x="65" y="73" style="fill:#4A1410;" width="12" height="4"/>
		</g>
		<g>
			<rect x="65" y="65" style="fill:#7D261E;" width="12" height="4"/>
		</g>
		<g>
			<rect x="65" y="57" style="fill:#C23023;" width="12" height="4"/>
		</g>
		<g>
			<rect x="49" y="49" style="fill:#E54B44;" width="12" height="4"/>
		</g>
		<g>
			<rect x="49" y="41" style="fill:#FF6C5E;" width="12" height="4"/>
		</g>
		<g>
			<rect x="49" y="33" style="fill:#FF6C5E;" width="12" height="4"/>
		</g>
	</g>
</g>
<g id="Yellow" style="display:none;">
	<g style="display:inline;">
		<g>
			<path style="fill:#FFF5D9;" d="M87,29c0-2.209-1.791-4-4-4H27c-2.209,0-4,1.791-4,4v52c0,2.209,1.791,4,4,4h56
				c2.209,0,4-1.791,4-4V29z"/>
		</g>
		<g>
			<path style="fill:#FFFFFF;" d="M83,25H27c-2.209,0-4,1.791-4,4v52c0,1.219,0.557,2.297,1.417,3.031l58.99-58.99
				C83.271,25.027,83.139,25,83,25z"/>
		</g>
		<g>
			<rect x="49" y="73" style="fill:#3D320C;" width="12" height="4"/>
		</g>
		<g>
			<rect x="49" y="65" style="fill:#66510D;" width="12" height="4"/>
		</g>
		<g>
			<rect x="49" y="57" style="fill:#E07000;" width="12" height="4"/>
		</g>
		<g>
			<rect x="33" y="73" style="fill:#3D320C;" width="12" height="4"/>
		</g>
		<g>
			<rect x="33" y="65" style="fill:#66510D;" width="12" height="4"/>
		</g>
		<g>
			<rect x="33" y="57" style="fill:#E07000;" width="12" height="4"/>
		</g>
		<g>
			<rect x="33" y="49" style="fill:#FA9200;" width="12" height="4"/>
		</g>
		<g>
			<rect x="65" y="73" style="fill:#3D320C;" width="12" height="4"/>
		</g>
		<g>
			<rect x="65" y="65" style="fill:#66510D;" width="12" height="4"/>
		</g>
		<g>
			<rect x="65" y="57" style="fill:#E07000;" width="12" height="4"/>
		</g>
		<g>
			<rect x="49" y="49" style="fill:#FA9200;" width="12" height="4"/>
		</g>
		<g>
			<rect x="49" y="41" style="fill:#FFAA00;" width="12" height="4"/>
		</g>
		<g>
			<rect x="49" y="33" style="fill:#FFAA00;" width="12" height="4"/>
		</g>
	</g>
</g>
<g id="R-Yellow" style="display:none;">
	<g style="display:inline;">
		<circle style="fill:#FFD75E;" cx="55" cy="55" r="55"/>
	</g>
	<g style="display:inline;">
		<g>
			<path style="fill:#FFF5D9;" d="M87,29c0-2.209-1.791-4-4-4H27c-2.209,0-4,1.791-4,4v52c0,2.21,1.791,4,4,4h56c2.209,0,4-1.79,4-4
				V29z"/>
		</g>
		<g>
			<path style="fill:#FFFFFF;" d="M83,25H27c-2.209,0-4,1.791-4,4v52c0,1.219,0.557,2.297,1.417,3.031l58.99-58.99
				C83.271,25.027,83.139,25,83,25z"/>
		</g>
		<g>
			<rect x="49" y="73" style="fill:#3D320C;" width="12" height="4"/>
		</g>
		<g>
			<rect x="49" y="65" style="fill:#66510D;" width="12" height="4"/>
		</g>
		<g>
			<rect x="49" y="57" style="fill:#E07000;" width="12" height="4"/>
		</g>
		<g>
			<rect x="33" y="73" style="fill:#3D320C;" width="12" height="4"/>
		</g>
		<g>
			<rect x="33" y="65" style="fill:#66510D;" width="12" height="4"/>
		</g>
		<g>
			<rect x="33" y="57" style="fill:#E07000;" width="12" height="4"/>
		</g>
		<g>
			<rect x="33" y="49" style="fill:#FA9200;" width="12" height="4"/>
		</g>
		<g>
			<rect x="65" y="73" style="fill:#3D320C;" width="12" height="4"/>
		</g>
		<g>
			<rect x="65" y="65" style="fill:#66510D;" width="12" height="4"/>
		</g>
		<g>
			<rect x="65" y="57" style="fill:#E07000;" width="12" height="4"/>
		</g>
		<g>
			<rect x="49" y="49" style="fill:#FA9200;" width="12" height="4"/>
		</g>
		<g>
			<rect x="49" y="41" style="fill:#FFAA00;" width="12" height="4"/>
		</g>
		<g>
			<rect x="49" y="33" style="fill:#FFAA00;" width="12" height="4"/>
		</g>
	</g>
</g>
</svg>
