<?xml version="1.0" encoding="iso-8859-1"?>
<!-- Generator: Adobe Illustrator 17.1.0, SVG Export Plug-In . SVG Version: 6.00 Build 0)  -->
<!DOCTYPE svg PUBLIC "-//W3C//DTD SVG 1.0//EN" "http://www.w3.org/TR/2001/REC-SVG-20010904/DTD/svg10.dtd">
<svg version="1.0" xmlns="http://www.w3.org/2000/svg" xmlns:xlink="http://www.w3.org/1999/xlink" x="0px" y="0px" width="110px"
	 height="110px" viewBox="0 0 110 110" style="enable-background:new 0 0 110 110;" xml:space="preserve">
<g id="Artboard" style="display:none;">
	<rect x="-40.5" y="-28.5" style="display:inline;fill:#808080;stroke:#000000;stroke-miterlimit:10;" width="1323" height="294"/>
</g>
<g id="R-Multicolor" style="display:none;">
	<g style="display:inline;">
		<circle style="fill:#32BEA6;" cx="55" cy="55" r="55"/>
	</g>
	<path style="display:inline;fill:#3E3E3F;" d="M36.747,64.479l-5.638-12.453c-0.542-1.198-1.952-1.729-3.15-1.187
		c-1.198,0.542-1.729,1.952-1.187,3.15l5.641,12.459L36.747,64.479z"/>
	<g style="display:inline;">
		<polygon style="fill:#F3B607;" points="41,67 40,63 29,68 33,71 		"/>
	</g>
	<g style="display:inline;">
		<path style="fill:#3E3E3F;" d="M83,71.993C80.799,70.59,73,68,67,65c1.389-6.625,5-18,3-31c-0.912-5.93-11-11-15-11
			s-14.088,5.07-15,11c-2,13,1.611,24.375,3,31c-6,3-13.799,5.59-16,6.993C23.959,73.931,23,87,23,87h64
			C87,87,86.041,73.931,83,71.993z"/>
	</g>
	<path style="display:inline;fill:#5B5C5F;" d="M55,73.25V23c-4,0-14.088,5.07-15,11c-2,13,1.611,24.375,3,31L55,73.25z"/>
	<g style="display:inline;">
		<path style="fill:#FBD7D7;" d="M55,41c-7,0-12,1-12,1v5c0,0,7,6,12,6s12-6,12-6v-5C67,42,62,41,55,41z"/>
	</g>
	<g style="display:inline;">
		<path style="fill:#FBC8C8;" d="M67,47v-5c0,0-5-1-12-1v12C60,53,67,47,67,47z"/>
	</g>
	<g style="display:inline;">
		<path style="fill:#3E3E3F;" d="M51.994,46c0-1.104-0.896-2-2-2c-0.002,0-0.004,0-0.006,0c0.001,0.021,0.006,0.041,0.006,0.062
			c0,1.103-0.892,1.996-1.994,2C48.033,47.137,48.91,48,49.994,48C51.098,48,51.994,47.104,51.994,46z"/>
	</g>
	<g style="display:inline;">
		<path style="fill:#3E3E3F;" d="M61.987,46c0-1.104-0.896-2-2-2c-0.002,0-0.004,0-0.006,0c0.001,0.021,0.006,0.041,0.006,0.062
			c0,1.103-0.892,1.996-1.994,2C58.027,47.137,58.904,48,59.987,48C61.092,48,61.987,47.104,61.987,46z"/>
	</g>
	<path style="display:inline;fill:#E2E4E5;" d="M57.932,75.265L43,65c-1.429,0.715-2.961,1.405-4.495,2.063l15.416,11.157
		L57.932,75.265z"/>
	<g style="display:inline;">
		<path style="fill:#F1F2F2;" d="M53.391,87l21.117-18.68c-1.483-0.604-3.024-1.249-4.536-1.924L42,87H53.391z"/>
	</g>
</g>
<g id="Multicolor">
	<path style="fill:#3E3E3F;" d="M36.747,64.479l-5.638-12.453c-0.542-1.198-1.952-1.729-3.15-1.187
		c-1.198,0.542-1.729,1.952-1.187,3.15l5.641,12.459L36.747,64.479z"/>
	<g>
		<polygon style="fill:#F3B607;" points="41,67 40,63 29,68 33,71 		"/>
	</g>
	<g>
		<path style="fill:#3E3E3F;" d="M83,71.993C80.799,70.59,73,68,67,65c1.389-6.625,5-18,3-31c-0.912-5.93-11-11-15-11
			s-14.088,5.07-15,11c-2,13,1.611,24.375,3,31c-6,3-13.799,5.59-16,6.993C23.959,73.931,23,87,23,87h64
			C87,87,86.041,73.931,83,71.993z"/>
	</g>
	<path style="fill:#5B5C5F;" d="M55,73.25V23c-4,0-14.088,5.07-15,11c-2,13,1.611,24.375,3,31L55,73.25z"/>
	<g>
		<path style="fill:#FBD7D7;" d="M55,41c-7,0-12,1-12,1v5c0,0,7,6,12,6s12-6,12-6v-5C67,42,62,41,55,41z"/>
	</g>
	<g>
		<path style="fill:#FBC8C8;" d="M67,47v-5c0,0-5-1-12-1v12C60,53,67,47,67,47z"/>
	</g>
	<g>
		<path style="fill:#3E3E3F;" d="M51.994,46c0-1.104-0.896-2-2-2c-0.002,0-0.004,0-0.006,0c0.001,0.021,0.006,0.041,0.006,0.062
			c0,1.103-0.892,1.996-1.994,2C48.033,47.137,48.91,48,49.994,48C51.098,48,51.994,47.104,51.994,46z"/>
	</g>
	<g>
		<path style="fill:#3E3E3F;" d="M61.987,46c0-1.104-0.896-2-2-2c-0.002,0-0.004,0-0.006,0c0.001,0.021,0.006,0.041,0.006,0.062
			c0,1.103-0.892,1.996-1.994,2C58.027,47.137,58.904,48,59.987,48C61.092,48,61.987,47.104,61.987,46z"/>
	</g>
	<path style="fill:#E2E4E5;" d="M57.932,75.265L43,65c-1.429,0.715-2.961,1.405-4.495,2.063l15.416,11.157L57.932,75.265z"/>
	<g>
		<path style="fill:#F1F2F2;" d="M53.391,87l21.117-18.68c-1.483-0.604-3.024-1.249-4.536-1.924L42,87H53.391z"/>
	</g>
</g>
<g id="Blue" style="display:none;">
	<g style="display:inline;">
		<path style="fill:#0C333D;" d="M36.747,64.479l-5.638-12.453c-0.542-1.197-1.952-1.729-3.15-1.187
			c-1.198,0.542-1.729,1.952-1.187,3.15l5.641,12.459L36.747,64.479z"/>
		<g>
			<polygon style="fill:#0081A1;" points="41,67 40,63 29,68 33,71 			"/>
		</g>
		<g>
			<path style="fill:#0C333D;" d="M83,71.993C80.799,70.59,73,68,67,65c1.389-6.624,5-18,3-31c-0.912-5.93-11-11-15-11
				s-14.088,5.07-15,11c-2,13,1.611,24.376,3,31c-6,3-13.799,5.59-16,6.993C23.959,73.931,23,87,23,87h64
				C87,87,86.04,73.931,83,71.993z"/>
		</g>
		<path style="fill:#0F6175;" d="M55,73.25V23c-4,0-14.088,5.07-15,11c-2,13,1.611,24.376,3,31L55,73.25z"/>
		<g>
			<path style="fill:#FFFFFF;" d="M55,41c-7,0-12,1-12,1v5c0,0,7,6,12,6s12-6,12-6v-5C67,42,62,41,55,41z"/>
		</g>
		<g>
			<path style="fill:#E1F5FA;" d="M67,47v-5c0,0-5-1-12-1v12C60,53,67,47,67,47z"/>
		</g>
		<g>
			<path style="fill:#0C333D;" d="M51.994,46c0-1.104-0.896-2-2-2c-0.002,0-0.004,0.001-0.006,0.001
				c0.001,0.021,0.006,0.041,0.006,0.062c0,1.102-0.892,1.996-1.994,1.999C48.033,47.137,48.91,48,49.994,48
				C51.098,48,51.994,47.104,51.994,46z"/>
		</g>
		<g>
			<path style="fill:#0C333D;" d="M61.987,46c0-1.104-0.896-2-2-2c-0.002,0-0.004,0.001-0.007,0.001
				c0.001,0.021,0.007,0.041,0.007,0.062c0,1.102-0.892,1.996-1.994,1.999C58.027,47.137,58.904,48,59.987,48
				C61.092,48,61.987,47.104,61.987,46z"/>
		</g>
		<path style="fill:#E1F5FA;" d="M57.932,75.266L43,65c-1.429,0.715-2.961,1.405-4.495,2.063l15.415,11.157L57.932,75.266z"/>
		<g>
			<path style="fill:#FFFFFF;" d="M53.391,87l21.117-18.68c-1.483-0.604-3.024-1.249-4.536-1.924L42,87H53.391z"/>
		</g>
	</g>
</g>
<g id="R-Blue" style="display:none;">
	<g style="display:inline;">
		<circle style="fill:#81D2EB;" cx="55" cy="55" r="55"/>
	</g>
	<g style="display:inline;">
		<path style="fill:#0C333D;" d="M36.747,64.479l-5.638-12.453c-0.542-1.197-1.952-1.729-3.15-1.187
			c-1.198,0.542-1.729,1.952-1.187,3.15l5.641,12.459L36.747,64.479z"/>
		<g>
			<polygon style="fill:#0081A1;" points="41,67 40,63 29,68 33,71 			"/>
		</g>
		<g>
			<path style="fill:#0C333D;" d="M83,71.993C80.799,70.59,73,68,67,65c1.389-6.624,5-18,3-31c-0.912-5.93-11-11-15-11
				s-14.088,5.07-15,11c-2,13,1.611,24.376,3,31c-6,3-13.799,5.59-16,6.993C23.959,73.931,23,87,23,87h64
				C87,87,86.04,73.931,83,71.993z"/>
		</g>
		<path style="fill:#0F6175;" d="M55,73.25V23c-4,0-14.088,5.07-15,11c-2,13,1.611,24.376,3,31L55,73.25z"/>
		<g>
			<path style="fill:#FFFFFF;" d="M55,41c-7,0-12,1-12,1v5c0,0,7,6,12,6s12-6,12-6v-5C67,42,62,41,55,41z"/>
		</g>
		<g>
			<path style="fill:#E1F5FA;" d="M67,47v-5c0,0-5-1-12-1v12C60,53,67,47,67,47z"/>
		</g>
		<g>
			<path style="fill:#0C333D;" d="M51.994,46c0-1.104-0.896-2-2-2c-0.002,0-0.004,0.001-0.006,0.001
				c0.001,0.021,0.006,0.041,0.006,0.062c0,1.102-0.892,1.996-1.994,1.999C48.033,47.137,48.91,48,49.994,48
				C51.098,48,51.994,47.104,51.994,46z"/>
		</g>
		<g>
			<path style="fill:#0C333D;" d="M61.987,46c0-1.104-0.896-2-2-2c-0.002,0-0.004,0.001-0.007,0.001
				c0.001,0.021,0.007,0.041,0.007,0.062c0,1.102-0.892,1.996-1.994,1.999C58.027,47.137,58.904,48,59.987,48
				C61.092,48,61.987,47.104,61.987,46z"/>
		</g>
		<path style="fill:#E1F5FA;" d="M57.932,75.266L43,65c-1.429,0.715-2.961,1.405-4.495,2.063l15.415,11.157L57.932,75.266z"/>
		<g>
			<path style="fill:#FFFFFF;" d="M53.391,87l21.117-18.68c-1.483-0.604-3.024-1.249-4.536-1.924L42,87H53.391z"/>
		</g>
	</g>
</g>
<g id="Green" style="display:none;">
	<g style="display:inline;">
		<path style="fill:#0A3631;" d="M36.747,64.479l-5.638-12.453c-0.542-1.197-1.952-1.729-3.15-1.187
			c-1.198,0.542-1.729,1.952-1.187,3.15l5.641,12.459L36.747,64.479z"/>
		<g>
			<polygon style="fill:#009687;" points="41,67 40,63 29,68 33,71 			"/>
		</g>
		<g>
			<path style="fill:#0A3631;" d="M83,71.993C80.799,70.59,73,68,67,65c1.389-6.624,5-18,3-31c-0.912-5.93-11-11-15-11
				s-14.088,5.07-15,11c-2,13,1.611,24.376,3,31c-6,3-13.799,5.59-16,6.993C23.959,73.931,23,87,23,87h64
				C87,87,86.04,73.931,83,71.993z"/>
		</g>
		<path style="fill:#14635B;" d="M55,73.25V23c-4,0-14.088,5.07-15,11c-2,13,1.611,24.376,3,31L55,73.25z"/>
		<g>
			<path style="fill:#FFFFFF;" d="M55,41c-7,0-12,1-12,1v5c0,0,7,6,12,6s12-6,12-6v-5C67,42,62,41,55,41z"/>
		</g>
		<g>
			<path style="fill:#D7FCF9;" d="M67,47v-5c0,0-5-1-12-1v12C60,53,67,47,67,47z"/>
		</g>
		<g>
			<path style="fill:#0A3631;" d="M51.994,46c0-1.104-0.896-2-2-2c-0.002,0-0.004,0.001-0.006,0.001
				c0.001,0.021,0.006,0.041,0.006,0.062c0,1.102-0.892,1.996-1.994,1.999C48.033,47.137,48.91,48,49.994,48
				C51.098,48,51.994,47.104,51.994,46z"/>
		</g>
		<g>
			<path style="fill:#0A3631;" d="M61.987,46c0-1.104-0.896-2-2-2c-0.002,0-0.004,0.001-0.007,0.001
				c0.001,0.021,0.007,0.041,0.007,0.062c0,1.102-0.892,1.996-1.994,1.999C58.027,47.137,58.904,48,59.987,48
				C61.092,48,61.987,47.104,61.987,46z"/>
		</g>
		<path style="fill:#D7FCF9;" d="M57.932,75.266L43,65c-1.429,0.715-2.961,1.405-4.495,2.063l15.415,11.157L57.932,75.266z"/>
		<g>
			<path style="fill:#FFFFFF;" d="M53.391,87l21.117-18.68c-1.483-0.604-3.024-1.249-4.536-1.924L42,87H53.391z"/>
		</g>
	</g>
</g>
<g id="R-Green" style="display:none;">
	<g style="display:inline;">
		<circle style="fill:#77E0C4;" cx="55" cy="55" r="55"/>
	</g>
	<g style="display:inline;">
		<path style="fill:#0A3631;" d="M36.747,64.479l-5.638-12.453c-0.542-1.197-1.952-1.729-3.15-1.187
			c-1.198,0.542-1.729,1.952-1.187,3.15l5.641,12.459L36.747,64.479z"/>
		<g>
			<polygon style="fill:#009687;" points="41,67 40,63 29,68 33,71 			"/>
		</g>
		<g>
			<path style="fill:#0A3631;" d="M83,71.993C80.799,70.59,73,68,67,65c1.389-6.624,5-18,3-31c-0.912-5.93-11-11-15-11
				s-14.088,5.07-15,11c-2,13,1.611,24.376,3,31c-6,3-13.799,5.59-16,6.993C23.959,73.931,23,87,23,87h64
				C87,87,86.04,73.931,83,71.993z"/>
		</g>
		<path style="fill:#14635B;" d="M55,73.25V23c-4,0-14.088,5.07-15,11c-2,13,1.611,24.376,3,31L55,73.25z"/>
		<g>
			<path style="fill:#FFFFFF;" d="M55,41c-7,0-12,1-12,1v5c0,0,7,6,12,6s12-6,12-6v-5C67,42,62,41,55,41z"/>
		</g>
		<g>
			<path style="fill:#D7FCF9;" d="M67,47v-5c0,0-5-1-12-1v12C60,53,67,47,67,47z"/>
		</g>
		<g>
			<path style="fill:#0A3631;" d="M51.994,46c0-1.104-0.896-2-2-2c-0.002,0-0.004,0.001-0.006,0.001
				c0.001,0.021,0.006,0.041,0.006,0.062c0,1.102-0.892,1.996-1.994,1.999C48.033,47.137,48.91,48,49.994,48
				C51.098,48,51.994,47.104,51.994,46z"/>
		</g>
		<g>
			<path style="fill:#0A3631;" d="M61.987,46c0-1.104-0.896-2-2-2c-0.002,0-0.004,0.001-0.007,0.001
				c0.001,0.021,0.007,0.041,0.007,0.062c0,1.102-0.892,1.996-1.994,1.999C58.027,47.137,58.904,48,59.987,48
				C61.092,48,61.987,47.104,61.987,46z"/>
		</g>
		<path style="fill:#D7FCF9;" d="M57.932,75.266L43,65c-1.429,0.715-2.961,1.405-4.495,2.063l15.415,11.157L57.932,75.266z"/>
		<g>
			<path style="fill:#FFFFFF;" d="M53.391,87l21.117-18.68c-1.483-0.604-3.024-1.249-4.536-1.924L42,87H53.391z"/>
		</g>
	</g>
</g>
<g id="Red" style="display:none;">
	<g style="display:inline;">
		<path style="fill:#4A1410;" d="M36.747,64.479l-5.638-12.453c-0.542-1.197-1.952-1.729-3.15-1.187
			c-1.198,0.542-1.729,1.952-1.187,3.15l5.641,12.459L36.747,64.479z"/>
		<g>
			<polygon style="fill:#C23023;" points="41,67 40,63 29,68 33,71 			"/>
		</g>
		<g>
			<path style="fill:#4A1410;" d="M83,71.993C80.799,70.59,73,68,67,65c1.389-6.624,5-18,3-31c-0.912-5.93-11-11-15-11
				s-14.088,5.07-15,11c-2,13,1.611,24.376,3,31c-6,3-13.799,5.59-16,6.993C23.959,73.931,23,87,23,87h64
				C87,87,86.04,73.931,83,71.993z"/>
		</g>
		<path style="fill:#7D261E;" d="M55,73.25V23c-4,0-14.088,5.07-15,11c-2,13,1.611,24.376,3,31L55,73.25z"/>
		<g>
			<path style="fill:#FFFFFF;" d="M55,41c-7,0-12,1-12,1v5c0,0,7,6,12,6s12-6,12-6v-5C67,42,62,41,55,41z"/>
		</g>
		<g>
			<path style="fill:#FFEFED;" d="M67,47v-5c0,0-5-1-12-1v12C60,53,67,47,67,47z"/>
		</g>
		<g>
			<path style="fill:#4A1410;" d="M51.994,46c0-1.104-0.896-2-2-2c-0.002,0-0.004,0.001-0.006,0.001
				c0.001,0.021,0.006,0.041,0.006,0.062c0,1.102-0.892,1.996-1.994,1.999C48.033,47.137,48.91,48,49.994,48
				C51.098,48,51.994,47.104,51.994,46z"/>
		</g>
		<g>
			<path style="fill:#4A1410;" d="M61.987,46c0-1.104-0.896-2-2-2c-0.002,0-0.004,0.001-0.007,0.001
				c0.001,0.021,0.007,0.041,0.007,0.062c0,1.102-0.892,1.996-1.994,1.999C58.027,47.137,58.904,48,59.987,48
				C61.092,48,61.987,47.104,61.987,46z"/>
		</g>
		<path style="fill:#FFEFED;" d="M57.932,75.266L43,65c-1.429,0.715-2.961,1.405-4.495,2.063l15.415,11.157L57.932,75.266z"/>
		<g>
			<path style="fill:#FFFFFF;" d="M53.391,87l21.117-18.68c-1.483-0.604-3.024-1.249-4.536-1.924L42,87H53.391z"/>
		</g>
	</g>
</g>
<g id="R-Red" style="display:none;">
	<g style="display:inline;">
		<circle style="fill:#FABBAF;" cx="55" cy="55" r="55"/>
	</g>
	<g style="display:inline;">
		<path style="fill:#4A1410;" d="M36.747,64.479l-5.638-12.453c-0.542-1.197-1.952-1.729-3.15-1.187
			c-1.198,0.542-1.729,1.952-1.187,3.15l5.641,12.459L36.747,64.479z"/>
		<g>
			<polygon style="fill:#C23023;" points="41,67 40,63 29,68 33,71 			"/>
		</g>
		<g>
			<path style="fill:#4A1410;" d="M83,71.993C80.799,70.59,73,68,67,65c1.389-6.624,5-18,3-31c-0.912-5.93-11-11-15-11
				s-14.088,5.07-15,11c-2,13,1.611,24.376,3,31c-6,3-13.799,5.59-16,6.993C23.959,73.931,23,87,23,87h64
				C87,87,86.04,73.931,83,71.993z"/>
		</g>
		<path style="fill:#7D261E;" d="M55,73.25V23c-4,0-14.088,5.07-15,11c-2,13,1.611,24.376,3,31L55,73.25z"/>
		<g>
			<path style="fill:#FFFFFF;" d="M55,41c-7,0-12,1-12,1v5c0,0,7,6,12,6s12-6,12-6v-5C67,42,62,41,55,41z"/>
		</g>
		<g>
			<path style="fill:#FFEFED;" d="M67,47v-5c0,0-5-1-12-1v12C60,53,67,47,67,47z"/>
		</g>
		<g>
			<path style="fill:#4A1410;" d="M51.994,46c0-1.104-0.896-2-2-2c-0.002,0-0.004,0.001-0.006,0.001
				c0.001,0.021,0.006,0.041,0.006,0.062c0,1.102-0.892,1.996-1.994,1.999C48.033,47.137,48.91,48,49.994,48
				C51.098,48,51.994,47.104,51.994,46z"/>
		</g>
		<g>
			<path style="fill:#4A1410;" d="M61.987,46c0-1.104-0.896-2-2-2c-0.002,0-0.004,0.001-0.007,0.001
				c0.001,0.021,0.007,0.041,0.007,0.062c0,1.102-0.892,1.996-1.994,1.999C58.027,47.137,58.904,48,59.987,48
				C61.092,48,61.987,47.104,61.987,46z"/>
		</g>
		<path style="fill:#FFEFED;" d="M57.932,75.266L43,65c-1.429,0.715-2.961,1.405-4.495,2.063l15.415,11.157L57.932,75.266z"/>
		<g>
			<path style="fill:#FFFFFF;" d="M53.391,87l21.117-18.68c-1.483-0.604-3.024-1.249-4.536-1.924L42,87H53.391z"/>
		</g>
	</g>
</g>
<g id="Yellow" style="display:none;">
	<g style="display:inline;">
		<path style="fill:#3D320C;" d="M36.747,64.479l-5.638-12.453c-0.542-1.197-1.952-1.729-3.15-1.187
			c-1.198,0.542-1.729,1.952-1.187,3.15l5.641,12.459L36.747,64.479z"/>
		<g>
			<polygon style="fill:#E07000;" points="41,67 40,63 29,68 33,71 			"/>
		</g>
		<g>
			<path style="fill:#3D320C;" d="M83,71.993C80.799,70.59,73,68,67,65c1.389-6.624,5-18,3-31c-0.912-5.93-11-11-15-11
				s-14.088,5.07-15,11c-2,13,1.611,24.376,3,31c-6,3-13.799,5.59-16,6.993C23.959,73.931,23,87,23,87h64
				C87,87,86.04,73.931,83,71.993z"/>
		</g>
		<path style="fill:#66510D;" d="M55,73.25V23c-4,0-14.088,5.07-15,11c-2,13,1.611,24.376,3,31L55,73.25z"/>
		<g>
			<path style="fill:#FFFFFF;" d="M55,41c-7,0-12,1-12,1v5c0,0,7,6,12,6s12-6,12-6v-5C67,42,62,41,55,41z"/>
		</g>
		<g>
			<path style="fill:#FFF5D9;" d="M67,47v-5c0,0-5-1-12-1v12C60,53,67,47,67,47z"/>
		</g>
		<g>
			<path style="fill:#3D320C;" d="M51.994,46c0-1.104-0.896-2-2-2c-0.002,0-0.004,0.001-0.006,0.001
				c0.001,0.021,0.006,0.041,0.006,0.062c0,1.102-0.892,1.996-1.994,1.999C48.033,47.137,48.91,48,49.994,48
				C51.098,48,51.994,47.104,51.994,46z"/>
		</g>
		<g>
			<path style="fill:#3D320C;" d="M61.987,46c0-1.104-0.896-2-2-2c-0.002,0-0.004,0.001-0.007,0.001
				c0.001,0.021,0.007,0.041,0.007,0.062c0,1.102-0.892,1.996-1.994,1.999C58.027,47.137,58.904,48,59.987,48
				C61.092,48,61.987,47.104,61.987,46z"/>
		</g>
		<path style="fill:#FFF5D9;" d="M57.932,75.266L43,65c-1.429,0.715-2.961,1.405-4.495,2.063l15.415,11.157L57.932,75.266z"/>
		<g>
			<path style="fill:#FFFFFF;" d="M53.391,87l21.117-18.68c-1.483-0.604-3.024-1.249-4.536-1.924L42,87H53.391z"/>
		</g>
	</g>
</g>
<g id="R-Yellow" style="display:none;">
	<g style="display:inline;">
		<circle style="fill:#FFD75E;" cx="55" cy="55" r="55"/>
	</g>
	<g style="display:inline;">
		<path style="fill:#3D320C;" d="M36.747,64.479l-5.638-12.453c-0.542-1.197-1.952-1.729-3.15-1.187
			c-1.198,0.542-1.729,1.952-1.187,3.15l5.641,12.459L36.747,64.479z"/>
		<g>
			<polygon style="fill:#E07000;" points="41,67 40,63 29,68 33,71 			"/>
		</g>
		<g>
			<path style="fill:#3D320C;" d="M83,71.993C80.799,70.59,73,68,67,65c1.389-6.624,5-18,3-31c-0.912-5.93-11-11-15-11
				s-14.088,5.07-15,11c-2,13,1.611,24.376,3,31c-6,3-13.799,5.59-16,6.993C23.959,73.931,23,87,23,87h64
				C87,87,86.04,73.931,83,71.993z"/>
		</g>
		<path style="fill:#66510D;" d="M55,73.25V23c-4,0-14.088,5.07-15,11c-2,13,1.611,24.376,3,31L55,73.25z"/>
		<g>
			<path style="fill:#FFFFFF;" d="M55,41c-7,0-12,1-12,1v5c0,0,7,6,12,6s12-6,12-6v-5C67,42,62,41,55,41z"/>
		</g>
		<g>
			<path style="fill:#FFF5D9;" d="M67,47v-5c0,0-5-1-12-1v12C60,53,67,47,67,47z"/>
		</g>
		<g>
			<path style="fill:#3D320C;" d="M51.994,46c0-1.104-0.896-2-2-2c-0.002,0-0.004,0.001-0.006,0.001
				c0.001,0.021,0.006,0.041,0.006,0.062c0,1.102-0.892,1.996-1.994,1.999C48.033,47.137,48.91,48,49.994,48
				C51.098,48,51.994,47.104,51.994,46z"/>
		</g>
		<g>
			<path style="fill:#3D320C;" d="M61.987,46c0-1.104-0.896-2-2-2c-0.002,0-0.004,0.001-0.007,0.001
				c0.001,0.021,0.007,0.041,0.007,0.062c0,1.102-0.892,1.996-1.994,1.999C58.027,47.137,58.904,48,59.987,48
				C61.092,48,61.987,47.104,61.987,46z"/>
		</g>
		<path style="fill:#FFF5D9;" d="M57.932,75.266L43,65c-1.429,0.715-2.961,1.405-4.495,2.063l15.415,11.157L57.932,75.266z"/>
		<g>
			<path style="fill:#FFFFFF;" d="M53.391,87l21.117-18.68c-1.483-0.604-3.024-1.249-4.536-1.924L42,87H53.391z"/>
		</g>
	</g>
</g>
</svg>
