<?xml version="1.0" encoding="iso-8859-1"?>
<!-- Generator: Adobe Illustrator 17.1.0, SVG Export Plug-In . SVG Version: 6.00 Build 0)  -->
<!DOCTYPE svg PUBLIC "-//W3C//DTD SVG 1.0//EN" "http://www.w3.org/TR/2001/REC-SVG-20010904/DTD/svg10.dtd">
<svg version="1.0" xmlns="http://www.w3.org/2000/svg" xmlns:xlink="http://www.w3.org/1999/xlink" x="0px" y="0px" width="110px"
	 height="110px" viewBox="0 0 110 110" style="enable-background:new 0 0 110 110;" xml:space="preserve">
<g id="Artboard" style="display:none;">
	<rect x="-1210" y="-74" style="display:inline;fill:#808080;" width="1364" height="731"/>
</g>
<g id="R-Multicolor" style="display:none;">
	<circle style="display:inline;fill:#32BEA6;" cx="55" cy="55" r="55"/>
	<g style="display:inline;">
		<path style="fill:#FFFFFF;" d="M83,67H43v16c0,2.209-1.791,4-4,4h44c2.209,0,4-1.791,4-4V71C87,68.791,85.209,67,83,67z"/>
		<rect x="63" y="71" style="fill:#F79392;" width="6" height="12"/>
		<rect x="73" y="71" style="fill:#F79392;" width="6" height="12"/>
		<polygon style="fill:#DF2C2C;" points="43,82.049 43,83 49,83 49,78.844 		"/>
		<polygon style="fill:#FA5655;" points="53,76.707 53,83 59,83 59,73.502 		"/>
		<path style="fill:#FFFFFF;" d="M83.115,56.011l-5.83-10.489c-1.073-1.931-3.508-2.626-5.439-1.553L43,59.377v22.671l38.562-20.598
			C83.493,60.378,84.188,57.942,83.115,56.011z"/>
		
			<rect x="64.585" y="53.111" transform="matrix(0.4858 0.8741 -0.8741 0.4858 85.3401 -32.844)" style="fill:#FBEC9A;" width="12" height="6"/>
		
			<rect x="55.844" y="57.969" transform="matrix(0.4858 0.8741 -0.8741 0.4858 85.0918 -22.706)" style="fill:#FBE158;" width="12" height="6"/>
		<polygon style="fill:#FACB1B;" points="45.411,76.967 49.9,74.472 48.379,71.736 		"/>
		<polygon style="fill:#FACB1B;" points="50.691,67.662 53.396,72.529 58.641,69.614 54.16,61.551 		"/>
		<path style="fill:#FFFFFF;" d="M65.552,33.499l-10.343-6.085c-1.904-1.12-4.356-0.485-5.476,1.419L43,40.698v40.517l23.972-42.24
			C68.092,37.071,67.457,34.619,65.552,33.499z"/>
		
			<rect x="48.803" y="36.938" transform="matrix(0.8619 0.5071 -0.5071 0.8619 27.818 -22.2733)" style="fill:#40C9E7;" width="12" height="6"/>
		
			<rect x="43.733" y="45.557" transform="matrix(0.8619 0.5071 -0.5071 0.8619 31.4882 -18.5122)" style="fill:#21B2D1;" width="12" height="6"/>
		<polygon style="fill:#059BBF;" points="43,52.718 43,59.679 48.312,62.804 51.355,57.633 		"/>
		<polygon style="fill:#0484AB;" points="43,64.32 43,71.281 43.242,71.423 46.284,66.252 		"/>
		<path style="fill:#DF2C2C;" d="M39,23H27c-2.209,0-4,1.791-4,4v56c0,2.209,1.791,4,4,4h12c2.209,0,4-1.791,4-4V27
			C43,24.791,41.209,23,39,23z M33,79c-1.104,0-2-0.896-2-2s0.896-2,2-2s2,0.896,2,2S34.104,79,33,79z"/>
		<path style="fill:#FA5655;" d="M43,36.355V27c0-2.209-1.791-4-4-4H27c-2.209,0-4,1.791-4,4v29.355L43,36.355z"/>
		<g>
			<path style="fill:#FFFFFF;" d="M30.644,70.292c-0.276,0-0.488-0.213-0.488-0.488v-1.685c0-1.291,0.732-2.094,1.842-2.094h0.016
				c1.236,0,1.882,0.992,1.882,2.205v1.094h1.331c0.268,0,0.48,0.213,0.48,0.48c0,0.275-0.213,0.488-0.48,0.488H30.644z
				 M33.022,68.197c0-0.732-0.409-1.189-0.984-1.189h-0.016c-0.646,0-0.984,0.464-0.984,1.189v1.125h1.984V68.197z"/>
			<path style="fill:#FFFFFF;" d="M35.038,65.785l-4.567-2.047c-0.244-0.11-0.394-0.307-0.394-0.583v-0.047
				c0-0.275,0.15-0.464,0.394-0.575l4.567-2.047c0.071-0.04,0.142-0.055,0.205-0.055c0.26,0,0.464,0.197,0.464,0.457
				c0,0.229-0.134,0.386-0.339,0.473l-1.031,0.449v2.677L35.4,64.95c0.197,0.079,0.307,0.244,0.307,0.449
				c0,0.252-0.197,0.449-0.449,0.449C35.187,65.848,35.116,65.824,35.038,65.785z M33.479,62.179l-2.228,0.969l2.228,0.968V62.179z"
				/>
			<path style="fill:#FFFFFF;" d="M30.613,59.38c-0.268,0-0.488-0.213-0.488-0.488V58.79c0-0.236,0.118-0.37,0.283-0.504
				l3.567-2.755h-3.385c-0.26,0-0.472-0.213-0.472-0.473c0-0.268,0.213-0.48,0.472-0.48h4.63c0.268,0,0.48,0.205,0.48,0.473v0.04
				c0,0.228-0.118,0.37-0.291,0.504l-3.669,2.834h3.496c0.26,0,0.472,0.212,0.472,0.472c0,0.268-0.213,0.48-0.472,0.48H30.613z"/>
			<path style="fill:#FFFFFF;" d="M31.054,51.802v1.338c0,0.252-0.205,0.449-0.449,0.449c-0.244,0-0.449-0.197-0.449-0.449v-3.661
				c0-0.244,0.205-0.441,0.449-0.441c0.244,0,0.449,0.197,0.449,0.441v1.347h4.173c0.268,0,0.48,0.22,0.48,0.488
				c0,0.268-0.213,0.488-0.48,0.488H31.054z"/>
			<path style="fill:#FFFFFF;" d="M32.927,48.595h-0.016c-1.551,0-2.85-1.197-2.85-2.89s1.283-2.874,2.834-2.874h0.016
				c1.551,0,2.85,1.197,2.85,2.89S34.479,48.595,32.927,48.595z M32.927,43.847h-0.016c-1.071,0-1.961,0.78-1.961,1.874
				s0.874,1.858,1.945,1.858h0.016c1.071,0,1.953-0.779,1.953-1.874C34.864,44.611,33.998,43.847,32.927,43.847z"/>
			<path style="fill:#FFFFFF;" d="M30.613,41.655c-0.268,0-0.488-0.213-0.488-0.488v-0.103c0-0.236,0.118-0.37,0.283-0.504
				l3.567-2.755h-3.385c-0.26,0-0.472-0.213-0.472-0.473c0-0.268,0.213-0.48,0.472-0.48h4.63c0.268,0,0.48,0.205,0.48,0.473v0.04
				c0,0.228-0.118,0.37-0.291,0.504l-3.669,2.834h3.496c0.26,0,0.472,0.212,0.472,0.472c0,0.268-0.213,0.48-0.472,0.48H30.613z"/>
			<path style="fill:#FFFFFF;" d="M35.179,35.431h-4.535c-0.276,0-0.488-0.213-0.488-0.488v-3.205c0-0.236,0.197-0.433,0.433-0.433
				c0.244,0,0.433,0.197,0.433,0.433v2.724h1.433v-2.37c0-0.236,0.197-0.433,0.441-0.433c0.236,0,0.425,0.197,0.425,0.433v2.37h1.48
				v-2.763c0-0.236,0.197-0.433,0.433-0.433c0.244,0,0.433,0.197,0.433,0.433v3.244C35.667,35.218,35.455,35.431,35.179,35.431z"/>
		</g>
	</g>
</g>
<g id="Multicolor_1_">
	<g>
		<path style="fill:#FFFFFF;" d="M83,67H43v16c0,2.209-1.791,4-4,4h44c2.209,0,4-1.791,4-4V71C87,68.791,85.209,67,83,67z"/>
		<rect x="63" y="71" style="fill:#F79392;" width="6" height="12"/>
		<rect x="73" y="71" style="fill:#F79392;" width="6" height="12"/>
		<polygon style="fill:#DF2C2C;" points="43,82.049 43,83 49,83 49,78.844 		"/>
		<polygon style="fill:#FA5655;" points="53,76.707 53,83 59,83 59,73.502 		"/>
		<path style="fill:#FFFFFF;" d="M83.115,56.011l-5.83-10.489c-1.073-1.931-3.508-2.626-5.439-1.553L43,59.377v22.671l38.562-20.598
			C83.493,60.378,84.188,57.942,83.115,56.011z"/>
		
			<rect x="64.585" y="53.111" transform="matrix(0.4858 0.8741 -0.8741 0.4858 85.3401 -32.844)" style="fill:#FBEC9A;" width="12" height="6"/>
		
			<rect x="55.844" y="57.969" transform="matrix(0.4858 0.8741 -0.8741 0.4858 85.0918 -22.706)" style="fill:#FBE158;" width="12" height="6"/>
		<polygon style="fill:#FACB1B;" points="45.411,76.967 49.9,74.472 48.379,71.736 		"/>
		<polygon style="fill:#FACB1B;" points="50.691,67.662 53.396,72.529 58.641,69.614 54.16,61.551 		"/>
		<path style="fill:#FFFFFF;" d="M65.552,33.499l-10.343-6.085c-1.904-1.12-4.356-0.485-5.476,1.419L43,40.698v40.517l23.972-42.24
			C68.092,37.071,67.457,34.619,65.552,33.499z"/>
		
			<rect x="48.803" y="36.938" transform="matrix(0.8619 0.5071 -0.5071 0.8619 27.818 -22.2733)" style="fill:#40C9E7;" width="12" height="6"/>
		
			<rect x="43.733" y="45.557" transform="matrix(0.8619 0.5071 -0.5071 0.8619 31.4882 -18.5122)" style="fill:#21B2D1;" width="12" height="6"/>
		<polygon style="fill:#059BBF;" points="43,52.718 43,59.679 48.312,62.804 51.355,57.633 		"/>
		<polygon style="fill:#0484AB;" points="43,64.32 43,71.281 43.242,71.423 46.284,66.252 		"/>
		<path style="fill:#DF2C2C;" d="M39,23H27c-2.209,0-4,1.791-4,4v56c0,2.209,1.791,4,4,4h12c2.209,0,4-1.791,4-4V27
			C43,24.791,41.209,23,39,23z M33,79c-1.104,0-2-0.896-2-2s0.896-2,2-2s2,0.896,2,2S34.104,79,33,79z"/>
		<path style="fill:#FA5655;" d="M43,36.355V27c0-2.209-1.791-4-4-4H27c-2.209,0-4,1.791-4,4v29.355L43,36.355z"/>
		<g>
			<path style="fill:#FFFFFF;" d="M30.644,70.292c-0.276,0-0.488-0.213-0.488-0.488v-1.685c0-1.291,0.732-2.094,1.842-2.094h0.016
				c1.236,0,1.882,0.992,1.882,2.205v1.094h1.331c0.268,0,0.48,0.213,0.48,0.48c0,0.275-0.213,0.488-0.48,0.488H30.644z
				 M33.022,68.197c0-0.732-0.409-1.189-0.984-1.189h-0.016c-0.646,0-0.984,0.464-0.984,1.189v1.125h1.984V68.197z"/>
			<path style="fill:#FFFFFF;" d="M35.038,65.785l-4.567-2.047c-0.244-0.11-0.394-0.307-0.394-0.583v-0.047
				c0-0.275,0.15-0.464,0.394-0.575l4.567-2.047c0.071-0.04,0.142-0.055,0.205-0.055c0.26,0,0.464,0.197,0.464,0.457
				c0,0.229-0.134,0.386-0.339,0.473l-1.031,0.449v2.677L35.4,64.95c0.197,0.079,0.307,0.244,0.307,0.449
				c0,0.252-0.197,0.449-0.449,0.449C35.187,65.848,35.116,65.824,35.038,65.785z M33.479,62.179l-2.228,0.969l2.228,0.968V62.179z"
				/>
			<path style="fill:#FFFFFF;" d="M30.613,59.38c-0.268,0-0.488-0.213-0.488-0.488V58.79c0-0.236,0.118-0.37,0.283-0.504
				l3.567-2.755h-3.385c-0.26,0-0.472-0.213-0.472-0.473c0-0.268,0.213-0.48,0.472-0.48h4.63c0.268,0,0.48,0.205,0.48,0.473v0.04
				c0,0.228-0.118,0.37-0.291,0.504l-3.669,2.834h3.496c0.26,0,0.472,0.212,0.472,0.472c0,0.268-0.213,0.48-0.472,0.48H30.613z"/>
			<path style="fill:#FFFFFF;" d="M31.054,51.802v1.338c0,0.252-0.205,0.449-0.449,0.449c-0.244,0-0.449-0.197-0.449-0.449v-3.661
				c0-0.244,0.205-0.441,0.449-0.441c0.244,0,0.449,0.197,0.449,0.441v1.347h4.173c0.268,0,0.48,0.22,0.48,0.488
				c0,0.268-0.213,0.488-0.48,0.488H31.054z"/>
			<path style="fill:#FFFFFF;" d="M32.927,48.595h-0.016c-1.551,0-2.85-1.197-2.85-2.89s1.283-2.874,2.834-2.874h0.016
				c1.551,0,2.85,1.197,2.85,2.89S34.479,48.595,32.927,48.595z M32.927,43.847h-0.016c-1.071,0-1.961,0.78-1.961,1.874
				s0.874,1.858,1.945,1.858h0.016c1.071,0,1.953-0.779,1.953-1.874C34.864,44.611,33.998,43.847,32.927,43.847z"/>
			<path style="fill:#FFFFFF;" d="M30.613,41.655c-0.268,0-0.488-0.213-0.488-0.488v-0.103c0-0.236,0.118-0.37,0.283-0.504
				l3.567-2.755h-3.385c-0.26,0-0.472-0.213-0.472-0.473c0-0.268,0.213-0.48,0.472-0.48h4.63c0.268,0,0.48,0.205,0.48,0.473v0.04
				c0,0.228-0.118,0.37-0.291,0.504l-3.669,2.834h3.496c0.26,0,0.472,0.212,0.472,0.472c0,0.268-0.213,0.48-0.472,0.48H30.613z"/>
			<path style="fill:#FFFFFF;" d="M35.179,35.431h-4.535c-0.276,0-0.488-0.213-0.488-0.488v-3.205c0-0.236,0.197-0.433,0.433-0.433
				c0.244,0,0.433,0.197,0.433,0.433v2.724h1.433v-2.37c0-0.236,0.197-0.433,0.441-0.433c0.236,0,0.425,0.197,0.425,0.433v2.37h1.48
				v-2.763c0-0.236,0.197-0.433,0.433-0.433c0.244,0,0.433,0.197,0.433,0.433v3.244C35.667,35.218,35.455,35.431,35.179,35.431z"/>
		</g>
	</g>
</g>
<g id="Blue" style="display:none;">
	<g style="display:inline;">
		<g>
			<path style="fill:#FFFFFF;" d="M83,67H43v16c0,2.209-1.791,4-4,4h44c2.209,0,4-1.791,4-4V71C87,68.791,85.209,67,83,67z"/>
		</g>
		<g>
			<rect x="63" y="71" style="fill:#009FC7;" width="6" height="12"/>
		</g>
		<g>
			<rect x="73" y="71" style="fill:#00B7E5;" width="6" height="12"/>
		</g>
		<g>
			<polygon style="fill:#0F6175;" points="43,82.049 43,83 49,83 49,78.844 			"/>
		</g>
		<g>
			<polygon style="fill:#0081A1;" points="53,76.707 53,83 59,83 59,73.502 			"/>
		</g>
		<g>
			<path style="fill:#FFFFFF;" d="M83.115,56.012l-5.83-10.489c-1.073-1.931-3.508-2.626-5.439-1.553L43,59.377v22.671
				l38.562-20.598C83.493,60.378,84.188,57.942,83.115,56.012z"/>
		</g>
		<g>
			
				<rect x="64.585" y="53.111" transform="matrix(0.4858 0.8741 -0.8741 0.4858 85.3378 -32.8445)" style="fill:#00B7E5;" width="12" height="6"/>
		</g>
		<g>
			
				<rect x="55.844" y="57.969" transform="matrix(0.4858 0.8741 -0.8741 0.4858 85.0961 -22.7047)" style="fill:#009FC7;" width="12" height="6"/>
		</g>
		<g>
			<polygon style="fill:#0F6175;" points="45.411,76.967 49.9,74.472 48.379,71.736 			"/>
		</g>
		<g>
			<polygon style="fill:#0081A1;" points="50.691,67.662 53.396,72.528 58.641,69.614 54.16,61.551 			"/>
		</g>
		<g>
			<path style="fill:#FFFFFF;" d="M65.552,33.499l-10.343-6.085c-1.904-1.12-4.356-0.484-5.476,1.42L43,40.698v40.517l23.972-42.24
				C68.092,37.071,67.456,34.619,65.552,33.499z"/>
		</g>
		<g>
			
				<rect x="48.803" y="36.937" transform="matrix(0.8619 0.507 -0.507 0.8619 27.8156 -22.2723)" style="fill:#00B7E5;" width="12" height="6"/>
		</g>
		<g>
			
				<rect x="43.733" y="45.557" transform="matrix(0.8619 0.507 -0.507 0.8619 31.4867 -18.5118)" style="fill:#009FC7;" width="12" height="6"/>
		</g>
		<g>
			<polygon style="fill:#0081A1;" points="43,52.718 43,59.679 48.312,62.804 51.355,57.633 			"/>
		</g>
		<g>
			<polygon style="fill:#0C333D;" points="43,64.319 43,71.281 43.242,71.423 46.284,66.252 			"/>
		</g>
		<g>
			<path style="fill:#0C333D;" d="M39,23H27c-2.209,0-4,1.791-4,4v56c0,2.209,1.791,4,4,4h12c2.209,0,4-1.791,4-4V27
				C43,24.791,41.209,23,39,23z M33,79c-1.104,0-2-0.896-2-2s0.896-2,2-2s2,0.896,2,2S34.104,79,33,79z"/>
		</g>
		<g>
			<path style="fill:#0F6175;" d="M43,36.356V27c0-2.209-1.791-4-4-4H27c-2.209,0-4,1.791-4,4v29.356L43,36.356z"/>
		</g>
		<g>
			<g>
				<path style="fill:#FFFFFF;" d="M30.644,70.291c-0.275,0-0.488-0.213-0.488-0.488v-1.685c0-1.291,0.732-2.094,1.843-2.094h0.016
					c1.236,0,1.881,0.992,1.881,2.205v1.094h1.331c0.268,0,0.48,0.213,0.48,0.48c0,0.275-0.213,0.488-0.48,0.488H30.644z
					 M33.022,68.197c0-0.732-0.41-1.189-0.984-1.189h-0.016c-0.645,0-0.984,0.464-0.984,1.189v1.126h1.984V68.197z"/>
			</g>
			<g>
				<path style="fill:#FFFFFF;" d="M35.038,65.785l-4.567-2.047c-0.244-0.11-0.394-0.307-0.394-0.582v-0.047
					c0-0.275,0.149-0.464,0.394-0.575l4.567-2.047c0.071-0.039,0.142-0.055,0.205-0.055c0.26,0,0.465,0.197,0.465,0.457
					c0,0.229-0.134,0.386-0.339,0.473l-1.031,0.449v2.677L35.4,64.95c0.197,0.079,0.307,0.244,0.307,0.449
					c0,0.252-0.197,0.449-0.449,0.449C35.187,65.848,35.116,65.824,35.038,65.785z M33.478,62.179l-2.228,0.969l2.228,0.968V62.179z
					"/>
			</g>
			<g>
				<path style="fill:#FFFFFF;" d="M30.613,59.38c-0.268,0-0.488-0.213-0.488-0.488V58.79c0-0.236,0.118-0.37,0.283-0.504
					l3.567-2.755h-3.386c-0.26,0-0.472-0.213-0.472-0.473c0-0.268,0.212-0.48,0.472-0.48h4.63c0.268,0,0.48,0.205,0.48,0.473v0.04
					c0,0.228-0.118,0.37-0.291,0.504l-3.669,2.834h3.496c0.26,0,0.473,0.212,0.473,0.472c0,0.268-0.213,0.48-0.473,0.48H30.613z"/>
			</g>
			<g>
				<path style="fill:#FFFFFF;" d="M31.054,51.802v1.338c0,0.252-0.205,0.449-0.449,0.449c-0.244,0-0.449-0.197-0.449-0.449v-3.661
					c0-0.244,0.205-0.441,0.449-0.441c0.245,0,0.449,0.197,0.449,0.441v1.347h4.173c0.268,0,0.48,0.22,0.48,0.488
					c0,0.267-0.213,0.488-0.48,0.488H31.054z"/>
			</g>
			<g>
				<path style="fill:#FFFFFF;" d="M32.928,48.595h-0.016c-1.551,0-2.85-1.197-2.85-2.89c0-1.693,1.283-2.874,2.834-2.874h0.016
					c1.551,0,2.85,1.197,2.85,2.89C35.762,47.414,34.478,48.595,32.928,48.595z M32.928,43.847h-0.016
					c-1.071,0-1.96,0.78-1.96,1.874c0,1.094,0.874,1.858,1.944,1.858h0.016c1.071,0,1.953-0.779,1.953-1.874
					C34.864,44.611,33.998,43.847,32.928,43.847z"/>
			</g>
			<g>
				<path style="fill:#FFFFFF;" d="M30.613,41.655c-0.268,0-0.488-0.213-0.488-0.488v-0.103c0-0.236,0.118-0.37,0.283-0.504
					l3.567-2.755h-3.386c-0.26,0-0.472-0.213-0.472-0.473c0-0.267,0.212-0.48,0.472-0.48h4.63c0.268,0,0.48,0.205,0.48,0.473v0.04
					c0,0.228-0.118,0.37-0.291,0.504l-3.669,2.834h3.496c0.26,0,0.473,0.213,0.473,0.472c0,0.268-0.213,0.481-0.473,0.481H30.613z"
					/>
			</g>
			<g>
				<path style="fill:#FFFFFF;" d="M35.179,35.431h-4.535c-0.275,0-0.488-0.213-0.488-0.488v-3.205c0-0.236,0.197-0.433,0.433-0.433
					c0.244,0,0.433,0.197,0.433,0.433v2.724h1.433v-2.37c0-0.236,0.197-0.433,0.44-0.433c0.237,0,0.426,0.197,0.426,0.433v2.37h1.48
					v-2.763c0-0.236,0.197-0.433,0.433-0.433c0.244,0,0.433,0.197,0.433,0.433v3.244C35.667,35.218,35.455,35.431,35.179,35.431z"/>
			</g>
		</g>
	</g>
</g>
<g id="R-Blue" style="display:none;">
	<g style="display:inline;">
		<circle style="fill:#81D2EB;" cx="55" cy="55" r="55"/>
	</g>
	<g style="display:inline;">
		<g>
			<path style="fill:#FFFFFF;" d="M83,67H43v16c0,2.209-1.791,4-4,4h44c2.209,0,4-1.791,4-4V71C87,68.791,85.209,67,83,67z"/>
		</g>
		<g>
			<rect x="63" y="71" style="fill:#009FC7;" width="6" height="12"/>
		</g>
		<g>
			<rect x="73" y="71" style="fill:#00B7E5;" width="6" height="12"/>
		</g>
		<g>
			<polygon style="fill:#0F6175;" points="43,82.049 43,83 49,83 49,78.844 			"/>
		</g>
		<g>
			<polygon style="fill:#0081A1;" points="53,76.707 53,83 59,83 59,73.502 			"/>
		</g>
		<g>
			<path style="fill:#FFFFFF;" d="M83.115,56.012l-5.829-10.489c-1.073-1.931-3.508-2.626-5.439-1.553L43,59.377v22.671
				l38.562-20.598C83.493,60.378,84.188,57.942,83.115,56.012z"/>
		</g>
		<g>
			
				<rect x="64.585" y="53.111" transform="matrix(0.4858 0.8741 -0.8741 0.4858 85.3378 -32.8445)" style="fill:#00B7E5;" width="12" height="6"/>
		</g>
		<g>
			
				<rect x="55.844" y="57.969" transform="matrix(0.4858 0.8741 -0.8741 0.4858 85.0961 -22.7047)" style="fill:#009FC7;" width="12" height="6"/>
		</g>
		<g>
			<polygon style="fill:#0F6175;" points="45.411,76.967 49.9,74.472 48.379,71.736 			"/>
		</g>
		<g>
			<polygon style="fill:#0081A1;" points="50.691,67.662 53.396,72.528 58.641,69.614 54.16,61.551 			"/>
		</g>
		<g>
			<path style="fill:#FFFFFF;" d="M65.552,33.499l-10.343-6.085c-1.904-1.12-4.356-0.484-5.476,1.42L43,40.698v40.517l23.972-42.24
				C68.092,37.071,67.456,34.619,65.552,33.499z"/>
		</g>
		<g>
			
				<rect x="48.803" y="36.937" transform="matrix(0.8619 0.507 -0.507 0.8619 27.8156 -22.2723)" style="fill:#00B7E5;" width="12" height="6"/>
		</g>
		<g>
			
				<rect x="43.733" y="45.557" transform="matrix(0.8619 0.507 -0.507 0.8619 31.4867 -18.5118)" style="fill:#009FC7;" width="12" height="6"/>
		</g>
		<g>
			<polygon style="fill:#0081A1;" points="43,52.718 43,59.679 48.312,62.804 51.355,57.633 			"/>
		</g>
		<g>
			<polygon style="fill:#0C333D;" points="43,64.319 43,71.281 43.242,71.423 46.284,66.252 			"/>
		</g>
		<g>
			<path style="fill:#0C333D;" d="M39,23H27c-2.209,0-4,1.791-4,4v56c0,2.209,1.791,4,4,4h12c2.209,0,4-1.791,4-4V27
				C43,24.791,41.209,23,39,23z M33,79c-1.104,0-2-0.896-2-2s0.896-2,2-2s2,0.896,2,2S34.104,79,33,79z"/>
		</g>
		<g>
			<path style="fill:#0F6175;" d="M43,36.356V27c0-2.209-1.791-4-4-4H27c-2.209,0-4,1.791-4,4v29.356L43,36.356z"/>
		</g>
		<g>
			<g>
				<path style="fill:#FFFFFF;" d="M30.644,70.291c-0.275,0-0.488-0.213-0.488-0.488v-1.685c0-1.291,0.732-2.094,1.843-2.094h0.016
					c1.236,0,1.881,0.992,1.881,2.205v1.094h1.331c0.268,0,0.48,0.213,0.48,0.48c0,0.275-0.213,0.488-0.48,0.488H30.644z
					 M33.022,68.197c0-0.732-0.41-1.189-0.984-1.189h-0.016c-0.645,0-0.984,0.464-0.984,1.189v1.126h1.984V68.197z"/>
			</g>
			<g>
				<path style="fill:#FFFFFF;" d="M35.038,65.785l-4.567-2.047c-0.244-0.11-0.394-0.307-0.394-0.582v-0.047
					c0-0.275,0.149-0.464,0.394-0.575l4.567-2.047c0.071-0.039,0.142-0.055,0.205-0.055c0.26,0,0.465,0.197,0.465,0.457
					c0,0.229-0.134,0.386-0.339,0.473l-1.031,0.449v2.677L35.4,64.95c0.197,0.079,0.307,0.244,0.307,0.449
					c0,0.252-0.197,0.449-0.449,0.449C35.188,65.848,35.116,65.824,35.038,65.785z M33.479,62.179l-2.228,0.969l2.228,0.968V62.179z
					"/>
			</g>
			<g>
				<path style="fill:#FFFFFF;" d="M30.613,59.38c-0.268,0-0.488-0.213-0.488-0.488V58.79c0-0.236,0.118-0.37,0.283-0.504
					l3.567-2.755h-3.386c-0.26,0-0.472-0.213-0.472-0.473c0-0.268,0.212-0.48,0.472-0.48h4.63c0.268,0,0.48,0.205,0.48,0.473v0.04
					c0,0.228-0.118,0.37-0.291,0.504l-3.669,2.834h3.496c0.26,0,0.473,0.212,0.473,0.472c0,0.268-0.213,0.48-0.473,0.48H30.613z"/>
			</g>
			<g>
				<path style="fill:#FFFFFF;" d="M31.054,51.802v1.338c0,0.252-0.205,0.449-0.449,0.449c-0.244,0-0.449-0.197-0.449-0.449v-3.661
					c0-0.244,0.205-0.441,0.449-0.441c0.245,0,0.449,0.197,0.449,0.441v1.347h4.173c0.268,0,0.48,0.22,0.48,0.488
					c0,0.267-0.213,0.488-0.48,0.488H31.054z"/>
			</g>
			<g>
				<path style="fill:#FFFFFF;" d="M32.928,48.595h-0.016c-1.551,0-2.85-1.197-2.85-2.89c0-1.693,1.283-2.874,2.834-2.874h0.016
					c1.551,0,2.85,1.197,2.85,2.89C35.762,47.414,34.479,48.595,32.928,48.595z M32.928,43.847h-0.016
					c-1.071,0-1.96,0.78-1.96,1.874c0,1.094,0.874,1.858,1.944,1.858h0.016c1.071,0,1.953-0.779,1.953-1.874
					C34.864,44.611,33.999,43.847,32.928,43.847z"/>
			</g>
			<g>
				<path style="fill:#FFFFFF;" d="M30.613,41.655c-0.268,0-0.488-0.213-0.488-0.488v-0.103c0-0.236,0.118-0.37,0.283-0.504
					l3.567-2.755h-3.386c-0.26,0-0.472-0.213-0.472-0.473c0-0.267,0.212-0.48,0.472-0.48h4.63c0.268,0,0.48,0.205,0.48,0.473v0.04
					c0,0.228-0.118,0.37-0.291,0.504l-3.669,2.834h3.496c0.26,0,0.473,0.213,0.473,0.472c0,0.268-0.213,0.481-0.473,0.481H30.613z"
					/>
			</g>
			<g>
				<path style="fill:#FFFFFF;" d="M35.179,35.431h-4.535c-0.275,0-0.488-0.213-0.488-0.488v-3.205c0-0.236,0.197-0.433,0.433-0.433
					c0.244,0,0.433,0.197,0.433,0.433v2.724h1.433v-2.37c0-0.236,0.197-0.433,0.44-0.433c0.237,0,0.426,0.197,0.426,0.433v2.37h1.48
					v-2.763c0-0.236,0.197-0.433,0.433-0.433c0.244,0,0.433,0.197,0.433,0.433v3.244C35.667,35.218,35.455,35.431,35.179,35.431z"/>
			</g>
		</g>
	</g>
</g>
<g id="Green" style="display:none;">
	<g style="display:inline;">
		<g>
			<path style="fill:#FFFFFF;" d="M83,67H43v16c0,2.209-1.791,4-4,4h44c2.209,0,4-1.791,4-4V71C87,68.791,85.209,67,83,67z"/>
		</g>
		<g>
			<rect x="63" y="71" style="fill:#00B8A5;" width="6" height="12"/>
		</g>
		<g>
			<rect x="73" y="71" style="fill:#00D6C1;" width="6" height="12"/>
		</g>
		<g>
			<polygon style="fill:#14635B;" points="43,82.049 43,83 49,83 49,78.844 			"/>
		</g>
		<g>
			<polygon style="fill:#009687;" points="53,76.707 53,83 59,83 59,73.502 			"/>
		</g>
		<g>
			<path style="fill:#FFFFFF;" d="M83.115,56.012l-5.829-10.489c-1.073-1.931-3.508-2.626-5.439-1.553L43,59.378v22.671
				l38.562-20.598C83.493,60.378,84.188,57.943,83.115,56.012z"/>
		</g>
		<g>
			
				<rect x="64.585" y="53.111" transform="matrix(0.4858 0.8741 -0.8741 0.4858 85.338 -32.8444)" style="fill:#00D6C1;" width="12" height="6"/>
		</g>
		<g>
			
				<rect x="55.844" y="57.969" transform="matrix(0.4858 0.8741 -0.8741 0.4858 85.0963 -22.7045)" style="fill:#00B8A5;" width="12" height="6"/>
		</g>
		<g>
			<polygon style="fill:#14635B;" points="45.411,76.967 49.9,74.472 48.379,71.736 			"/>
		</g>
		<g>
			<polygon style="fill:#009687;" points="50.691,67.662 53.396,72.529 58.641,69.614 54.16,61.551 			"/>
		</g>
		<g>
			<path style="fill:#FFFFFF;" d="M65.552,33.499l-10.343-6.085c-1.904-1.12-4.356-0.484-5.476,1.42L43,40.698v40.517l23.972-42.24
				C68.092,37.071,67.456,34.619,65.552,33.499z"/>
		</g>
		<g>
			
				<rect x="48.803" y="36.938" transform="matrix(0.8619 0.507 -0.507 0.8619 27.8157 -22.2723)" style="fill:#00D6C1;" width="12" height="6"/>
		</g>
		<g>
			
				<rect x="43.733" y="45.557" transform="matrix(0.8619 0.507 -0.507 0.8619 31.4869 -18.5118)" style="fill:#00B8A5;" width="12" height="6"/>
		</g>
		<g>
			<polygon style="fill:#009687;" points="43,52.718 43,59.679 48.312,62.804 51.355,57.633 			"/>
		</g>
		<g>
			<polygon style="fill:#0A3631;" points="43,64.32 43,71.281 43.242,71.423 46.284,66.252 			"/>
		</g>
		<g>
			<path style="fill:#0A3631;" d="M39,23H27c-2.209,0-4,1.791-4,4v56c0,2.209,1.791,4,4,4h12c2.209,0,4-1.791,4-4V27
				C43,24.791,41.209,23,39,23z M33,79c-1.104,0-2-0.896-2-2s0.896-2,2-2s2,0.896,2,2S34.104,79,33,79z"/>
		</g>
		<g>
			<path style="fill:#14635B;" d="M43,36.356V27c0-2.209-1.791-4-4-4H27c-2.209,0-4,1.791-4,4v29.355L43,36.356z"/>
		</g>
		<g>
			<g>
				<path style="fill:#FFFFFF;" d="M30.644,70.292c-0.275,0-0.488-0.213-0.488-0.488v-1.685c0-1.291,0.732-2.094,1.843-2.094h0.016
					c1.236,0,1.881,0.992,1.881,2.205v1.094h1.331c0.267,0,0.48,0.213,0.48,0.48c0,0.275-0.213,0.488-0.48,0.488H30.644z
					 M33.022,68.198c0-0.733-0.41-1.189-0.984-1.189h-0.016c-0.646,0-0.984,0.464-0.984,1.189v1.125h1.984V68.198z"/>
			</g>
			<g>
				<path style="fill:#FFFFFF;" d="M35.038,65.785l-4.567-2.047c-0.244-0.11-0.394-0.307-0.394-0.583v-0.047
					c0-0.275,0.149-0.464,0.394-0.575l4.567-2.047c0.071-0.04,0.142-0.055,0.205-0.055c0.26,0,0.465,0.197,0.465,0.457
					c0,0.229-0.134,0.386-0.339,0.473l-1.031,0.449v2.677L35.4,64.95c0.197,0.079,0.307,0.244,0.307,0.449
					c0,0.252-0.197,0.449-0.449,0.449C35.188,65.848,35.116,65.824,35.038,65.785z M33.479,62.179l-2.228,0.969l2.228,0.968V62.179z
					"/>
			</g>
			<g>
				<path style="fill:#FFFFFF;" d="M30.613,59.381c-0.268,0-0.488-0.213-0.488-0.488V58.79c0-0.236,0.118-0.37,0.283-0.504
					l3.567-2.755h-3.386c-0.26,0-0.472-0.213-0.472-0.473c0-0.268,0.212-0.48,0.472-0.48h4.63c0.268,0,0.48,0.205,0.48,0.473v0.04
					c0,0.228-0.118,0.37-0.291,0.504l-3.669,2.834h3.496c0.26,0,0.473,0.212,0.473,0.472c0,0.268-0.213,0.481-0.473,0.481H30.613z"
					/>
			</g>
			<g>
				<path style="fill:#FFFFFF;" d="M31.054,51.802v1.338c0,0.252-0.205,0.449-0.449,0.449c-0.244,0-0.449-0.197-0.449-0.449V49.48
					c0-0.244,0.205-0.441,0.449-0.441c0.245,0,0.449,0.197,0.449,0.441v1.347h4.173c0.267,0,0.48,0.22,0.48,0.488
					c0,0.268-0.213,0.488-0.48,0.488H31.054z"/>
			</g>
			<g>
				<path style="fill:#FFFFFF;" d="M32.928,48.595h-0.016c-1.551,0-2.85-1.197-2.85-2.89c0-1.693,1.283-2.874,2.834-2.874h0.016
					c1.551,0,2.85,1.197,2.85,2.89C35.762,47.414,34.479,48.595,32.928,48.595z M32.928,43.847h-0.016
					c-1.071,0-1.96,0.78-1.96,1.874s0.874,1.858,1.944,1.858h0.016c1.071,0,1.953-0.779,1.953-1.874
					C34.864,44.611,33.999,43.847,32.928,43.847z"/>
			</g>
			<g>
				<path style="fill:#FFFFFF;" d="M30.613,41.655c-0.268,0-0.488-0.213-0.488-0.488v-0.103c0-0.236,0.118-0.37,0.283-0.504
					l3.567-2.755h-3.386c-0.26,0-0.472-0.213-0.472-0.473c0-0.268,0.212-0.48,0.472-0.48h4.63c0.268,0,0.48,0.205,0.48,0.473v0.04
					c0,0.228-0.118,0.37-0.291,0.504l-3.669,2.834h3.496c0.26,0,0.473,0.213,0.473,0.472c0,0.268-0.213,0.48-0.473,0.48H30.613z"/>
			</g>
			<g>
				<path style="fill:#FFFFFF;" d="M35.179,35.431h-4.535c-0.275,0-0.488-0.213-0.488-0.488v-3.205c0-0.236,0.197-0.433,0.433-0.433
					c0.244,0,0.433,0.197,0.433,0.433v2.724h1.433v-2.37c0-0.236,0.197-0.433,0.44-0.433c0.237,0,0.426,0.197,0.426,0.433v2.37h1.48
					v-2.763c0-0.236,0.197-0.433,0.433-0.433c0.244,0,0.433,0.197,0.433,0.433v3.244C35.667,35.219,35.455,35.431,35.179,35.431z"/>
			</g>
		</g>
	</g>
</g>
<g id="R-Green" style="display:none;">
	<g style="display:inline;">
		<circle style="fill:#87E0C8;" cx="55" cy="55" r="55"/>
	</g>
	<g style="display:inline;">
		<g>
			<path style="fill:#FFFFFF;" d="M83,67H43v16c0,2.209-1.791,4-4,4h44c2.209,0,4-1.791,4-4V71C87,68.791,85.209,67,83,67z"/>
		</g>
		<g>
			<rect x="63" y="71" style="fill:#00B8A5;" width="6" height="12"/>
		</g>
		<g>
			<rect x="73" y="71" style="fill:#00D6C1;" width="6" height="12"/>
		</g>
		<g>
			<polygon style="fill:#14635B;" points="43,82.049 43,83 49,83 49,78.844 			"/>
		</g>
		<g>
			<polygon style="fill:#009687;" points="53,76.707 53,83 59,83 59,73.502 			"/>
		</g>
		<g>
			<path style="fill:#FFFFFF;" d="M83.115,56.012l-5.829-10.489c-1.073-1.931-3.508-2.626-5.439-1.553L43,59.377v22.671
				l38.562-20.598C83.493,60.378,84.188,57.942,83.115,56.012z"/>
		</g>
		<g>
			
				<rect x="64.585" y="53.111" transform="matrix(0.4858 0.8741 -0.8741 0.4858 85.3378 -32.8445)" style="fill:#00D6C1;" width="12" height="6"/>
		</g>
		<g>
			
				<rect x="55.844" y="57.969" transform="matrix(0.4858 0.8741 -0.8741 0.4858 85.0961 -22.7047)" style="fill:#00B8A5;" width="12" height="6"/>
		</g>
		<g>
			<polygon style="fill:#14635B;" points="45.411,76.967 49.9,74.472 48.379,71.736 			"/>
		</g>
		<g>
			<polygon style="fill:#009687;" points="50.691,67.662 53.396,72.528 58.641,69.614 54.16,61.551 			"/>
		</g>
		<g>
			<path style="fill:#FFFFFF;" d="M65.552,33.499l-10.343-6.085c-1.904-1.12-4.356-0.484-5.476,1.42L43,40.698v40.517l23.972-42.24
				C68.092,37.071,67.456,34.619,65.552,33.499z"/>
		</g>
		<g>
			
				<rect x="48.803" y="36.937" transform="matrix(0.8619 0.507 -0.507 0.8619 27.8156 -22.2723)" style="fill:#00D6C1;" width="12" height="6"/>
		</g>
		<g>
			
				<rect x="43.733" y="45.557" transform="matrix(0.8619 0.507 -0.507 0.8619 31.4867 -18.5118)" style="fill:#00B8A5;" width="12" height="6"/>
		</g>
		<g>
			<polygon style="fill:#009687;" points="43,52.718 43,59.679 48.312,62.804 51.355,57.633 			"/>
		</g>
		<g>
			<polygon style="fill:#0A3631;" points="43,64.319 43,71.281 43.242,71.423 46.284,66.252 			"/>
		</g>
		<g>
			<path style="fill:#0A3631;" d="M39,23H27c-2.209,0-4,1.791-4,4v56c0,2.209,1.791,4,4,4h12c2.209,0,4-1.791,4-4V27
				C43,24.791,41.209,23,39,23z M33,79c-1.104,0-2-0.896-2-2s0.896-2,2-2s2,0.896,2,2S34.104,79,33,79z"/>
		</g>
		<g>
			<path style="fill:#14635B;" d="M43,36.356V27c0-2.209-1.791-4-4-4H27c-2.209,0-4,1.791-4,4v29.356L43,36.356z"/>
		</g>
		<g>
			<g>
				<path style="fill:#FFFFFF;" d="M30.644,70.291c-0.275,0-0.488-0.213-0.488-0.488v-1.685c0-1.291,0.732-2.094,1.843-2.094h0.016
					c1.236,0,1.881,0.992,1.881,2.205v1.094h1.331c0.267,0,0.48,0.213,0.48,0.48c0,0.275-0.213,0.488-0.48,0.488H30.644z
					 M33.022,68.197c0-0.732-0.41-1.189-0.984-1.189h-0.016c-0.646,0-0.984,0.464-0.984,1.189v1.126h1.984V68.197z"/>
			</g>
			<g>
				<path style="fill:#FFFFFF;" d="M35.038,65.785l-4.567-2.047c-0.244-0.11-0.394-0.307-0.394-0.582v-0.047
					c0-0.275,0.149-0.464,0.394-0.575l4.567-2.047c0.071-0.039,0.142-0.055,0.205-0.055c0.26,0,0.465,0.197,0.465,0.457
					c0,0.229-0.134,0.386-0.339,0.473l-1.031,0.449v2.677L35.4,64.95c0.197,0.079,0.307,0.244,0.307,0.449
					c0,0.252-0.197,0.449-0.449,0.449C35.188,65.848,35.116,65.824,35.038,65.785z M33.479,62.179l-2.228,0.969l2.228,0.968V62.179z
					"/>
			</g>
			<g>
				<path style="fill:#FFFFFF;" d="M30.613,59.38c-0.268,0-0.488-0.213-0.488-0.488V58.79c0-0.236,0.118-0.37,0.283-0.504
					l3.567-2.755h-3.386c-0.26,0-0.472-0.213-0.472-0.473c0-0.268,0.212-0.48,0.472-0.48h4.63c0.268,0,0.48,0.205,0.48,0.473v0.04
					c0,0.228-0.118,0.37-0.291,0.504l-3.669,2.834h3.496c0.26,0,0.473,0.212,0.473,0.472c0,0.268-0.213,0.48-0.473,0.48H30.613z"/>
			</g>
			<g>
				<path style="fill:#FFFFFF;" d="M31.054,51.802v1.338c0,0.252-0.205,0.449-0.449,0.449c-0.244,0-0.449-0.197-0.449-0.449v-3.661
					c0-0.244,0.205-0.441,0.449-0.441c0.245,0,0.449,0.197,0.449,0.441v1.347h4.173c0.267,0,0.48,0.22,0.48,0.488
					c0,0.267-0.213,0.488-0.48,0.488H31.054z"/>
			</g>
			<g>
				<path style="fill:#FFFFFF;" d="M32.928,48.595h-0.016c-1.551,0-2.85-1.197-2.85-2.89c0-1.693,1.283-2.874,2.834-2.874h0.016
					c1.551,0,2.85,1.197,2.85,2.89C35.762,47.414,34.479,48.595,32.928,48.595z M32.928,43.847h-0.016
					c-1.071,0-1.96,0.78-1.96,1.874c0,1.094,0.874,1.858,1.944,1.858h0.016c1.071,0,1.953-0.779,1.953-1.874
					C34.864,44.611,33.999,43.847,32.928,43.847z"/>
			</g>
			<g>
				<path style="fill:#FFFFFF;" d="M30.613,41.655c-0.268,0-0.488-0.213-0.488-0.488v-0.103c0-0.236,0.118-0.37,0.283-0.504
					l3.567-2.755h-3.386c-0.26,0-0.472-0.213-0.472-0.473c0-0.267,0.212-0.48,0.472-0.48h4.63c0.268,0,0.48,0.205,0.48,0.473v0.04
					c0,0.228-0.118,0.37-0.291,0.504l-3.669,2.834h3.496c0.26,0,0.473,0.213,0.473,0.472c0,0.268-0.213,0.481-0.473,0.481H30.613z"
					/>
			</g>
			<g>
				<path style="fill:#FFFFFF;" d="M35.179,35.431h-4.535c-0.275,0-0.488-0.213-0.488-0.488v-3.205c0-0.236,0.197-0.433,0.433-0.433
					c0.244,0,0.433,0.197,0.433,0.433v2.724h1.433v-2.37c0-0.236,0.197-0.433,0.44-0.433c0.237,0,0.426,0.197,0.426,0.433v2.37h1.48
					v-2.763c0-0.236,0.197-0.433,0.433-0.433c0.244,0,0.433,0.197,0.433,0.433v3.244C35.667,35.218,35.455,35.431,35.179,35.431z"/>
			</g>
		</g>
	</g>
</g>
<g id="Red" style="display:none;">
	<g style="display:inline;">
		<g>
			<path style="fill:#FFFFFF;" d="M83,67H43v16c0,2.209-1.791,4-4,4h44c2.209,0,4-1.791,4-4V71C87,68.791,85.209,67,83,67z"/>
		</g>
		<g>
			<rect x="63" y="71" style="fill:#E54B44;" width="6" height="12"/>
		</g>
		<g>
			<rect x="73" y="71" style="fill:#FF6C5E;" width="6" height="12"/>
		</g>
		<g>
			<polygon style="fill:#7D261E;" points="43,82.049 43,83 49,83 49,78.844 			"/>
		</g>
		<g>
			<polygon style="fill:#C23023;" points="53,76.707 53,83 59,83 59,73.502 			"/>
		</g>
		<g>
			<path style="fill:#FFFFFF;" d="M83.115,56.012l-5.829-10.489c-1.073-1.931-3.508-2.626-5.439-1.553L43,59.377v22.671
				l38.562-20.598C83.493,60.378,84.188,57.942,83.115,56.012z"/>
		</g>
		<g>
			
				<rect x="64.585" y="53.111" transform="matrix(0.4858 0.8741 -0.8741 0.4858 85.3378 -32.8445)" style="fill:#FF6C5E;" width="12" height="6"/>
		</g>
		<g>
			
				<rect x="55.844" y="57.969" transform="matrix(0.4858 0.8741 -0.8741 0.4858 85.0961 -22.7047)" style="fill:#E54B44;" width="12" height="6"/>
		</g>
		<g>
			<polygon style="fill:#7D261E;" points="45.411,76.967 49.9,74.472 48.379,71.736 			"/>
		</g>
		<g>
			<polygon style="fill:#C23023;" points="50.691,67.662 53.396,72.528 58.641,69.614 54.16,61.551 			"/>
		</g>
		<g>
			<path style="fill:#FFFFFF;" d="M65.552,33.499l-10.343-6.085c-1.904-1.12-4.356-0.484-5.476,1.42L43,40.698v40.517l23.972-42.24
				C68.092,37.071,67.456,34.619,65.552,33.499z"/>
		</g>
		<g>
			
				<rect x="48.803" y="36.937" transform="matrix(0.8619 0.507 -0.507 0.8619 27.8156 -22.2723)" style="fill:#FF6C5E;" width="12" height="6"/>
		</g>
		<g>
			
				<rect x="43.733" y="45.557" transform="matrix(0.8619 0.507 -0.507 0.8619 31.4867 -18.5118)" style="fill:#E54B44;" width="12" height="6"/>
		</g>
		<g>
			<polygon style="fill:#C23023;" points="43,52.718 43,59.679 48.312,62.804 51.355,57.633 			"/>
		</g>
		<g>
			<polygon style="fill:#4A1410;" points="43,64.319 43,71.281 43.242,71.423 46.284,66.252 			"/>
		</g>
		<g>
			<path style="fill:#4A1410;" d="M39,23H27c-2.209,0-4,1.791-4,4v56c0,2.209,1.791,4,4,4h12c2.209,0,4-1.791,4-4V27
				C43,24.791,41.209,23,39,23z M33,79c-1.104,0-2-0.896-2-2s0.896-2,2-2s2,0.896,2,2S34.104,79,33,79z"/>
		</g>
		<g>
			<path style="fill:#7D261E;" d="M43,36.356V27c0-2.209-1.791-4-4-4H27c-2.209,0-4,1.791-4,4v29.356L43,36.356z"/>
		</g>
		<g>
			<g>
				<path style="fill:#FFFFFF;" d="M30.644,70.291c-0.275,0-0.488-0.213-0.488-0.488v-1.685c0-1.291,0.732-2.094,1.843-2.094h0.016
					c1.236,0,1.881,0.992,1.881,2.205v1.094h1.331c0.268,0,0.48,0.213,0.48,0.48c0,0.275-0.213,0.488-0.48,0.488H30.644z
					 M33.022,68.197c0-0.732-0.41-1.189-0.984-1.189h-0.016c-0.645,0-0.984,0.464-0.984,1.189v1.126h1.984V68.197z"/>
			</g>
			<g>
				<path style="fill:#FFFFFF;" d="M35.038,65.785l-4.567-2.047c-0.244-0.11-0.394-0.307-0.394-0.582v-0.047
					c0-0.275,0.149-0.464,0.394-0.575l4.567-2.047c0.071-0.039,0.142-0.055,0.205-0.055c0.26,0,0.465,0.197,0.465,0.457
					c0,0.229-0.134,0.386-0.339,0.473l-1.031,0.449v2.677L35.4,64.95c0.197,0.079,0.307,0.244,0.307,0.449
					c0,0.252-0.197,0.449-0.449,0.449C35.188,65.848,35.116,65.824,35.038,65.785z M33.479,62.179l-2.228,0.969l2.228,0.968V62.179z
					"/>
			</g>
			<g>
				<path style="fill:#FFFFFF;" d="M30.613,59.38c-0.268,0-0.488-0.213-0.488-0.488V58.79c0-0.236,0.118-0.37,0.283-0.504
					l3.567-2.755h-3.386c-0.26,0-0.472-0.213-0.472-0.473c0-0.268,0.212-0.48,0.472-0.48h4.63c0.268,0,0.48,0.205,0.48,0.473v0.04
					c0,0.228-0.118,0.37-0.291,0.504l-3.669,2.834h3.496c0.26,0,0.473,0.212,0.473,0.472c0,0.268-0.213,0.48-0.473,0.48H30.613z"/>
			</g>
			<g>
				<path style="fill:#FFFFFF;" d="M31.054,51.802v1.338c0,0.252-0.205,0.449-0.449,0.449c-0.244,0-0.449-0.197-0.449-0.449v-3.661
					c0-0.244,0.205-0.441,0.449-0.441c0.245,0,0.449,0.197,0.449,0.441v1.347h4.173c0.268,0,0.48,0.22,0.48,0.488
					c0,0.267-0.213,0.488-0.48,0.488H31.054z"/>
			</g>
			<g>
				<path style="fill:#FFFFFF;" d="M32.928,48.595h-0.016c-1.551,0-2.85-1.197-2.85-2.89c0-1.693,1.283-2.874,2.834-2.874h0.016
					c1.551,0,2.85,1.197,2.85,2.89C35.762,47.414,34.479,48.595,32.928,48.595z M32.928,43.847h-0.016
					c-1.071,0-1.96,0.78-1.96,1.874c0,1.094,0.874,1.858,1.944,1.858h0.016c1.071,0,1.953-0.779,1.953-1.874
					C34.864,44.611,33.999,43.847,32.928,43.847z"/>
			</g>
			<g>
				<path style="fill:#FFFFFF;" d="M30.613,41.655c-0.268,0-0.488-0.213-0.488-0.488v-0.103c0-0.236,0.118-0.37,0.283-0.504
					l3.567-2.755h-3.386c-0.26,0-0.472-0.213-0.472-0.473c0-0.267,0.212-0.48,0.472-0.48h4.63c0.268,0,0.48,0.205,0.48,0.473v0.04
					c0,0.228-0.118,0.37-0.291,0.504l-3.669,2.834h3.496c0.26,0,0.473,0.213,0.473,0.472c0,0.268-0.213,0.481-0.473,0.481H30.613z"
					/>
			</g>
			<g>
				<path style="fill:#FFFFFF;" d="M35.179,35.431h-4.535c-0.275,0-0.488-0.213-0.488-0.488v-3.205c0-0.236,0.197-0.433,0.433-0.433
					c0.244,0,0.433,0.197,0.433,0.433v2.724h1.433v-2.37c0-0.236,0.197-0.433,0.44-0.433c0.237,0,0.426,0.197,0.426,0.433v2.37h1.48
					v-2.763c0-0.236,0.197-0.433,0.433-0.433c0.244,0,0.433,0.197,0.433,0.433v3.244C35.667,35.218,35.455,35.431,35.179,35.431z"/>
			</g>
		</g>
	</g>
</g>
<g id="R-Red" style="display:none;">
	<g style="display:inline;">
		<circle style="fill:#FABBAF;" cx="55" cy="55" r="55"/>
	</g>
	<g style="display:inline;">
		<g>
			<path style="fill:#FFFFFF;" d="M83,67H43v16c0,2.209-1.791,4-4,4h44c2.209,0,4-1.791,4-4V71C87,68.791,85.209,67,83,67z"/>
		</g>
		<g>
			<rect x="63" y="71" style="fill:#E54B44;" width="6" height="12"/>
		</g>
		<g>
			<rect x="73" y="71" style="fill:#FF6C5E;" width="6" height="12"/>
		</g>
		<g>
			<polygon style="fill:#7D261E;" points="43,82.049 43,83 49,83 49,78.844 			"/>
		</g>
		<g>
			<polygon style="fill:#C23023;" points="53,76.707 53,83 59,83 59,73.502 			"/>
		</g>
		<g>
			<path style="fill:#FFFFFF;" d="M83.115,56.012l-5.829-10.489c-1.073-1.931-3.508-2.626-5.439-1.553L43,59.377v22.671
				l38.562-20.598C83.493,60.378,84.188,57.942,83.115,56.012z"/>
		</g>
		<g>
			
				<rect x="64.585" y="53.111" transform="matrix(0.4858 0.8741 -0.8741 0.4858 85.3378 -32.8445)" style="fill:#FF6C5E;" width="12" height="6"/>
		</g>
		<g>
			
				<rect x="55.844" y="57.969" transform="matrix(0.4858 0.8741 -0.8741 0.4858 85.0961 -22.7047)" style="fill:#E54B44;" width="12" height="6"/>
		</g>
		<g>
			<polygon style="fill:#7D261E;" points="45.411,76.967 49.9,74.472 48.379,71.736 			"/>
		</g>
		<g>
			<polygon style="fill:#C23023;" points="50.691,67.662 53.396,72.528 58.641,69.614 54.16,61.551 			"/>
		</g>
		<g>
			<path style="fill:#FFFFFF;" d="M65.552,33.499l-10.343-6.085c-1.904-1.12-4.356-0.484-5.476,1.42L43,40.698v40.517l23.972-42.24
				C68.092,37.071,67.456,34.619,65.552,33.499z"/>
		</g>
		<g>
			
				<rect x="48.803" y="36.937" transform="matrix(0.8619 0.507 -0.507 0.8619 27.8156 -22.2723)" style="fill:#FF6C5E;" width="12" height="6"/>
		</g>
		<g>
			
				<rect x="43.733" y="45.557" transform="matrix(0.8619 0.507 -0.507 0.8619 31.4867 -18.5118)" style="fill:#E54B44;" width="12" height="6"/>
		</g>
		<g>
			<polygon style="fill:#C23023;" points="43,52.718 43,59.679 48.312,62.804 51.355,57.633 			"/>
		</g>
		<g>
			<polygon style="fill:#4A1410;" points="43,64.319 43,71.281 43.242,71.423 46.284,66.252 			"/>
		</g>
		<g>
			<path style="fill:#4A1410;" d="M39,23H27c-2.209,0-4,1.791-4,4v56c0,2.209,1.791,4,4,4h12c2.209,0,4-1.791,4-4V27
				C43,24.791,41.209,23,39,23z M33,79c-1.104,0-2-0.896-2-2s0.896-2,2-2s2,0.896,2,2S34.104,79,33,79z"/>
		</g>
		<g>
			<path style="fill:#7D261E;" d="M43,36.356V27c0-2.209-1.791-4-4-4H27c-2.209,0-4,1.791-4,4v29.356L43,36.356z"/>
		</g>
		<g>
			<g>
				<path style="fill:#FFFFFF;" d="M30.644,70.291c-0.275,0-0.488-0.213-0.488-0.488v-1.685c0-1.291,0.732-2.094,1.843-2.094h0.016
					c1.236,0,1.881,0.992,1.881,2.205v1.094h1.331c0.268,0,0.48,0.213,0.48,0.48c0,0.275-0.213,0.488-0.48,0.488H30.644z
					 M33.022,68.197c0-0.732-0.41-1.189-0.984-1.189h-0.016c-0.645,0-0.984,0.464-0.984,1.189v1.126h1.984V68.197z"/>
			</g>
			<g>
				<path style="fill:#FFFFFF;" d="M35.038,65.785l-4.567-2.047c-0.244-0.11-0.394-0.307-0.394-0.582v-0.047
					c0-0.275,0.149-0.464,0.394-0.575l4.567-2.047c0.071-0.039,0.142-0.055,0.205-0.055c0.26,0,0.465,0.197,0.465,0.457
					c0,0.229-0.134,0.386-0.339,0.473l-1.031,0.449v2.677L35.4,64.95c0.197,0.079,0.307,0.244,0.307,0.449
					c0,0.252-0.197,0.449-0.449,0.449C35.188,65.848,35.116,65.824,35.038,65.785z M33.479,62.179l-2.228,0.969l2.228,0.968V62.179z
					"/>
			</g>
			<g>
				<path style="fill:#FFFFFF;" d="M30.613,59.38c-0.268,0-0.488-0.213-0.488-0.488V58.79c0-0.236,0.118-0.37,0.283-0.504
					l3.567-2.755h-3.386c-0.26,0-0.472-0.213-0.472-0.473c0-0.268,0.212-0.48,0.472-0.48h4.63c0.268,0,0.48,0.205,0.48,0.473v0.04
					c0,0.228-0.118,0.37-0.291,0.504l-3.669,2.834h3.496c0.26,0,0.473,0.212,0.473,0.472c0,0.268-0.213,0.48-0.473,0.48H30.613z"/>
			</g>
			<g>
				<path style="fill:#FFFFFF;" d="M31.054,51.802v1.338c0,0.252-0.205,0.449-0.449,0.449c-0.244,0-0.449-0.197-0.449-0.449v-3.661
					c0-0.244,0.205-0.441,0.449-0.441c0.245,0,0.449,0.197,0.449,0.441v1.347h4.173c0.268,0,0.48,0.22,0.48,0.488
					c0,0.267-0.213,0.488-0.48,0.488H31.054z"/>
			</g>
			<g>
				<path style="fill:#FFFFFF;" d="M32.928,48.595h-0.016c-1.551,0-2.85-1.197-2.85-2.89c0-1.693,1.283-2.874,2.834-2.874h0.016
					c1.551,0,2.85,1.197,2.85,2.89C35.762,47.414,34.479,48.595,32.928,48.595z M32.928,43.847h-0.016
					c-1.071,0-1.96,0.78-1.96,1.874c0,1.094,0.874,1.858,1.944,1.858h0.016c1.071,0,1.953-0.779,1.953-1.874
					C34.864,44.611,33.999,43.847,32.928,43.847z"/>
			</g>
			<g>
				<path style="fill:#FFFFFF;" d="M30.613,41.655c-0.268,0-0.488-0.213-0.488-0.488v-0.103c0-0.236,0.118-0.37,0.283-0.504
					l3.567-2.755h-3.386c-0.26,0-0.472-0.213-0.472-0.473c0-0.267,0.212-0.48,0.472-0.48h4.63c0.268,0,0.48,0.205,0.48,0.473v0.04
					c0,0.228-0.118,0.37-0.291,0.504l-3.669,2.834h3.496c0.26,0,0.473,0.213,0.473,0.472c0,0.268-0.213,0.481-0.473,0.481H30.613z"
					/>
			</g>
			<g>
				<path style="fill:#FFFFFF;" d="M35.179,35.431h-4.535c-0.275,0-0.488-0.213-0.488-0.488v-3.205c0-0.236,0.197-0.433,0.433-0.433
					c0.244,0,0.433,0.197,0.433,0.433v2.724h1.433v-2.37c0-0.236,0.197-0.433,0.44-0.433c0.237,0,0.426,0.197,0.426,0.433v2.37h1.48
					v-2.763c0-0.236,0.197-0.433,0.433-0.433c0.244,0,0.433,0.197,0.433,0.433v3.244C35.667,35.218,35.455,35.431,35.179,35.431z"/>
			</g>
		</g>
	</g>
</g>
<g id="Yellow" style="display:none;">
	<g style="display:inline;">
		<g>
			<path style="fill:#FFFFFF;" d="M83,67H43v16c0,2.209-1.791,4-4,4h44c2.209,0,4-1.791,4-4V71C87,68.791,85.209,67,83,67z"/>
		</g>
		<g>
			<rect x="63" y="71" style="fill:#FA9200;" width="6" height="12"/>
		</g>
		<g>
			<rect x="73" y="71" style="fill:#FFAA00;" width="6" height="12"/>
		</g>
		<g>
			<polygon style="fill:#66510D;" points="43,82.049 43,83 49,83 49,78.844 			"/>
		</g>
		<g>
			<polygon style="fill:#E07000;" points="53,76.707 53,83 59,83 59,73.502 			"/>
		</g>
		<g>
			<path style="fill:#FFFFFF;" d="M83.115,56.012l-5.829-10.489c-1.073-1.931-3.508-2.626-5.439-1.553L43,59.377v22.671
				l38.562-20.598C83.493,60.378,84.188,57.942,83.115,56.012z"/>
		</g>
		<g>
			
				<rect x="64.585" y="53.111" transform="matrix(0.4858 0.8741 -0.8741 0.4858 85.3378 -32.8445)" style="fill:#FFAA00;" width="12" height="6"/>
		</g>
		<g>
			
				<rect x="55.844" y="57.969" transform="matrix(0.4858 0.8741 -0.8741 0.4858 85.0961 -22.7047)" style="fill:#FA9200;" width="12" height="6"/>
		</g>
		<g>
			<polygon style="fill:#66510D;" points="45.411,76.967 49.9,74.472 48.379,71.736 			"/>
		</g>
		<g>
			<polygon style="fill:#E07000;" points="50.691,67.662 53.396,72.528 58.641,69.614 54.16,61.551 			"/>
		</g>
		<g>
			<path style="fill:#FFFFFF;" d="M65.552,33.499l-10.343-6.085c-1.904-1.12-4.356-0.484-5.476,1.42L43,40.698v40.517l23.972-42.24
				C68.092,37.071,67.456,34.619,65.552,33.499z"/>
		</g>
		<g>
			
				<rect x="48.803" y="36.937" transform="matrix(0.8619 0.507 -0.507 0.8619 27.8156 -22.2723)" style="fill:#FFAA00;" width="12" height="6"/>
		</g>
		<g>
			
				<rect x="43.733" y="45.557" transform="matrix(0.8619 0.507 -0.507 0.8619 31.4867 -18.5118)" style="fill:#FA9200;" width="12" height="6"/>
		</g>
		<g>
			<polygon style="fill:#E07000;" points="43,52.718 43,59.679 48.312,62.804 51.355,57.633 			"/>
		</g>
		<g>
			<polygon style="fill:#3D320C;" points="43,64.319 43,71.281 43.242,71.423 46.284,66.252 			"/>
		</g>
		<g>
			<path style="fill:#3D320C;" d="M39,23H27c-2.209,0-4,1.791-4,4v56c0,2.209,1.791,4,4,4h12c2.209,0,4-1.791,4-4V27
				C43,24.791,41.209,23,39,23z M33,79c-1.104,0-2-0.896-2-2s0.896-2,2-2s2,0.896,2,2S34.104,79,33,79z"/>
		</g>
		<g>
			<path style="fill:#66510D;" d="M43,36.356V27c0-2.209-1.791-4-4-4H27c-2.209,0-4,1.791-4,4v29.356L43,36.356z"/>
		</g>
		<g>
			<g>
				<path style="fill:#FFFFFF;" d="M30.644,70.291c-0.275,0-0.488-0.213-0.488-0.488v-1.685c0-1.291,0.732-2.094,1.843-2.094h0.016
					c1.236,0,1.881,0.992,1.881,2.205v1.094h1.331c0.268,0,0.48,0.213,0.48,0.48c0,0.275-0.213,0.488-0.48,0.488H30.644z
					 M33.022,68.197c0-0.732-0.41-1.189-0.984-1.189h-0.016c-0.645,0-0.984,0.464-0.984,1.189v1.126h1.984V68.197z"/>
			</g>
			<g>
				<path style="fill:#FFFFFF;" d="M35.038,65.785l-4.567-2.047c-0.244-0.11-0.394-0.307-0.394-0.582v-0.047
					c0-0.275,0.149-0.464,0.394-0.575l4.567-2.047c0.071-0.039,0.142-0.055,0.205-0.055c0.26,0,0.465,0.197,0.465,0.457
					c0,0.229-0.134,0.386-0.339,0.473l-1.031,0.449v2.677L35.4,64.95c0.197,0.079,0.307,0.244,0.307,0.449
					c0,0.252-0.197,0.449-0.449,0.449C35.188,65.848,35.116,65.824,35.038,65.785z M33.479,62.179l-2.228,0.969l2.228,0.968V62.179z
					"/>
			</g>
			<g>
				<path style="fill:#FFFFFF;" d="M30.613,59.38c-0.268,0-0.488-0.213-0.488-0.488V58.79c0-0.236,0.118-0.37,0.283-0.504
					l3.567-2.755h-3.386c-0.26,0-0.472-0.213-0.472-0.473c0-0.268,0.212-0.48,0.472-0.48h4.63c0.268,0,0.48,0.205,0.48,0.473v0.04
					c0,0.228-0.118,0.37-0.291,0.504l-3.669,2.834h3.496c0.26,0,0.473,0.212,0.473,0.472c0,0.268-0.213,0.48-0.473,0.48H30.613z"/>
			</g>
			<g>
				<path style="fill:#FFFFFF;" d="M31.054,51.802v1.338c0,0.252-0.205,0.449-0.449,0.449c-0.244,0-0.449-0.197-0.449-0.449v-3.661
					c0-0.244,0.205-0.441,0.449-0.441c0.245,0,0.449,0.197,0.449,0.441v1.347h4.173c0.268,0,0.48,0.22,0.48,0.488
					c0,0.267-0.213,0.488-0.48,0.488H31.054z"/>
			</g>
			<g>
				<path style="fill:#FFFFFF;" d="M32.928,48.595h-0.016c-1.551,0-2.85-1.197-2.85-2.89c0-1.693,1.283-2.874,2.834-2.874h0.016
					c1.551,0,2.85,1.197,2.85,2.89C35.762,47.414,34.479,48.595,32.928,48.595z M32.928,43.847h-0.016
					c-1.071,0-1.96,0.78-1.96,1.874c0,1.094,0.874,1.858,1.944,1.858h0.016c1.071,0,1.953-0.779,1.953-1.874
					C34.864,44.611,33.999,43.847,32.928,43.847z"/>
			</g>
			<g>
				<path style="fill:#FFFFFF;" d="M30.613,41.655c-0.268,0-0.488-0.213-0.488-0.488v-0.103c0-0.236,0.118-0.37,0.283-0.504
					l3.567-2.755h-3.386c-0.26,0-0.472-0.213-0.472-0.473c0-0.267,0.212-0.48,0.472-0.48h4.63c0.268,0,0.48,0.205,0.48,0.473v0.04
					c0,0.228-0.118,0.37-0.291,0.504l-3.669,2.834h3.496c0.26,0,0.473,0.213,0.473,0.472c0,0.268-0.213,0.481-0.473,0.481H30.613z"
					/>
			</g>
			<g>
				<path style="fill:#FFFFFF;" d="M35.179,35.431h-4.535c-0.275,0-0.488-0.213-0.488-0.488v-3.205c0-0.236,0.197-0.433,0.433-0.433
					c0.244,0,0.433,0.197,0.433,0.433v2.724h1.433v-2.37c0-0.236,0.197-0.433,0.44-0.433c0.237,0,0.426,0.197,0.426,0.433v2.37h1.48
					v-2.763c0-0.236,0.197-0.433,0.433-0.433c0.244,0,0.433,0.197,0.433,0.433v3.244C35.667,35.218,35.455,35.431,35.179,35.431z"/>
			</g>
		</g>
	</g>
</g>
<g id="R-Yellow" style="display:none;">
	<g style="display:inline;">
		<circle style="fill:#FFD75E;" cx="55" cy="55" r="55"/>
	</g>
	<g style="display:inline;">
		<g>
			<path style="fill:#FFFFFF;" d="M83,67H43v16c0,2.209-1.791,4-4,4h44c2.209,0,4-1.791,4-4V71C87,68.791,85.209,67,83,67z"/>
		</g>
		<g>
			<rect x="63" y="71" style="fill:#FA9200;" width="6" height="12"/>
		</g>
		<g>
			<rect x="73" y="71" style="fill:#FFAA00;" width="6" height="12"/>
		</g>
		<g>
			<polygon style="fill:#66510D;" points="43,82.049 43,83 49,83 49,78.844 			"/>
		</g>
		<g>
			<polygon style="fill:#E07000;" points="53,76.707 53,83 59,83 59,73.502 			"/>
		</g>
		<g>
			<path style="fill:#FFFFFF;" d="M83.115,56.012l-5.83-10.489c-1.073-1.931-3.508-2.626-5.439-1.553L43,59.377v22.671
				l38.562-20.598C83.493,60.378,84.188,57.942,83.115,56.012z"/>
		</g>
		<g>
			
				<rect x="64.585" y="53.111" transform="matrix(0.4858 0.8741 -0.8741 0.4858 85.3378 -32.8445)" style="fill:#FFAA00;" width="12" height="6"/>
		</g>
		<g>
			
				<rect x="55.844" y="57.969" transform="matrix(0.4858 0.8741 -0.8741 0.4858 85.0961 -22.7047)" style="fill:#FA9200;" width="12" height="6"/>
		</g>
		<g>
			<polygon style="fill:#66510D;" points="45.411,76.967 49.9,74.472 48.379,71.736 			"/>
		</g>
		<g>
			<polygon style="fill:#E07000;" points="50.691,67.662 53.396,72.528 58.641,69.614 54.16,61.551 			"/>
		</g>
		<g>
			<path style="fill:#FFFFFF;" d="M65.552,33.499l-10.343-6.085c-1.904-1.12-4.356-0.484-5.476,1.42L43,40.698v40.517l23.972-42.24
				C68.092,37.071,67.456,34.619,65.552,33.499z"/>
		</g>
		<g>
			
				<rect x="48.803" y="36.937" transform="matrix(0.8619 0.507 -0.507 0.8619 27.8156 -22.2723)" style="fill:#FFAA00;" width="12" height="6"/>
		</g>
		<g>
			
				<rect x="43.733" y="45.557" transform="matrix(0.8619 0.507 -0.507 0.8619 31.4867 -18.5118)" style="fill:#FA9200;" width="12" height="6"/>
		</g>
		<g>
			<polygon style="fill:#E07000;" points="43,52.718 43,59.679 48.312,62.804 51.355,57.633 			"/>
		</g>
		<g>
			<polygon style="fill:#3D320C;" points="43,64.319 43,71.281 43.242,71.423 46.284,66.252 			"/>
		</g>
		<g>
			<path style="fill:#3D320C;" d="M39,23H27c-2.209,0-4,1.791-4,4v56c0,2.209,1.791,4,4,4h12c2.209,0,4-1.791,4-4V27
				C43,24.791,41.209,23,39,23z M33,79c-1.104,0-2-0.896-2-2s0.896-2,2-2s2,0.896,2,2S34.104,79,33,79z"/>
		</g>
		<g>
			<path style="fill:#66510D;" d="M43,36.356V27c0-2.209-1.791-4-4-4H27c-2.209,0-4,1.791-4,4v29.356L43,36.356z"/>
		</g>
		<g>
			<g>
				<path style="fill:#FFFFFF;" d="M30.644,70.291c-0.275,0-0.488-0.213-0.488-0.488v-1.685c0-1.291,0.732-2.094,1.843-2.094h0.016
					c1.236,0,1.881,0.992,1.881,2.205v1.094h1.331c0.268,0,0.48,0.213,0.48,0.48c0,0.275-0.213,0.488-0.48,0.488H30.644z
					 M33.022,68.197c0-0.732-0.41-1.189-0.984-1.189h-0.016c-0.645,0-0.984,0.464-0.984,1.189v1.126h1.984V68.197z"/>
			</g>
			<g>
				<path style="fill:#FFFFFF;" d="M35.038,65.785l-4.567-2.047c-0.244-0.11-0.394-0.307-0.394-0.582v-0.047
					c0-0.275,0.149-0.464,0.394-0.575l4.567-2.047c0.071-0.039,0.142-0.055,0.205-0.055c0.26,0,0.465,0.197,0.465,0.457
					c0,0.229-0.134,0.386-0.339,0.473l-1.031,0.449v2.677L35.4,64.95c0.197,0.079,0.307,0.244,0.307,0.449
					c0,0.252-0.197,0.449-0.449,0.449C35.187,65.848,35.116,65.824,35.038,65.785z M33.478,62.179l-2.228,0.969l2.228,0.968V62.179z
					"/>
			</g>
			<g>
				<path style="fill:#FFFFFF;" d="M30.613,59.38c-0.268,0-0.488-0.213-0.488-0.488V58.79c0-0.236,0.118-0.37,0.283-0.504
					l3.567-2.755h-3.386c-0.26,0-0.472-0.213-0.472-0.473c0-0.268,0.212-0.48,0.472-0.48h4.63c0.268,0,0.48,0.205,0.48,0.473v0.04
					c0,0.228-0.118,0.37-0.291,0.504l-3.669,2.834h3.496c0.26,0,0.473,0.212,0.473,0.472c0,0.268-0.213,0.48-0.473,0.48H30.613z"/>
			</g>
			<g>
				<path style="fill:#FFFFFF;" d="M31.054,51.802v1.338c0,0.252-0.205,0.449-0.449,0.449c-0.244,0-0.449-0.197-0.449-0.449v-3.661
					c0-0.244,0.205-0.441,0.449-0.441c0.245,0,0.449,0.197,0.449,0.441v1.347h4.173c0.268,0,0.48,0.22,0.48,0.488
					c0,0.267-0.213,0.488-0.48,0.488H31.054z"/>
			</g>
			<g>
				<path style="fill:#FFFFFF;" d="M32.928,48.595h-0.016c-1.551,0-2.85-1.197-2.85-2.89c0-1.693,1.283-2.874,2.834-2.874h0.016
					c1.551,0,2.85,1.197,2.85,2.89C35.762,47.414,34.478,48.595,32.928,48.595z M32.928,43.847h-0.016
					c-1.071,0-1.96,0.78-1.96,1.874c0,1.094,0.874,1.858,1.944,1.858h0.016c1.071,0,1.953-0.779,1.953-1.874
					C34.864,44.611,33.998,43.847,32.928,43.847z"/>
			</g>
			<g>
				<path style="fill:#FFFFFF;" d="M30.613,41.655c-0.268,0-0.488-0.213-0.488-0.488v-0.103c0-0.236,0.118-0.37,0.283-0.504
					l3.567-2.755h-3.386c-0.26,0-0.472-0.213-0.472-0.473c0-0.267,0.212-0.48,0.472-0.48h4.63c0.268,0,0.48,0.205,0.48,0.473v0.04
					c0,0.228-0.118,0.37-0.291,0.504l-3.669,2.834h3.496c0.26,0,0.473,0.213,0.473,0.472c0,0.268-0.213,0.481-0.473,0.481H30.613z"
					/>
			</g>
			<g>
				<path style="fill:#FFFFFF;" d="M35.179,35.431h-4.535c-0.275,0-0.488-0.213-0.488-0.488v-3.205c0-0.236,0.197-0.433,0.433-0.433
					c0.244,0,0.433,0.197,0.433,0.433v2.724h1.433v-2.37c0-0.236,0.197-0.433,0.44-0.433c0.237,0,0.426,0.197,0.426,0.433v2.37h1.48
					v-2.763c0-0.236,0.197-0.433,0.433-0.433c0.244,0,0.433,0.197,0.433,0.433v3.244C35.667,35.218,35.455,35.431,35.179,35.431z"/>
			</g>
		</g>
	</g>
</g>
</svg>
