<?xml version="1.0" encoding="iso-8859-1"?>
<!-- Generator: Adobe Illustrator 17.1.0, SVG Export Plug-In . SVG Version: 6.00 Build 0)  -->
<!DOCTYPE svg PUBLIC "-//W3C//DTD SVG 1.0//EN" "http://www.w3.org/TR/2001/REC-SVG-20010904/DTD/svg10.dtd">
<svg version="1.0" xmlns="http://www.w3.org/2000/svg" xmlns:xlink="http://www.w3.org/1999/xlink" x="0px" y="0px" width="110px"
	 height="110px" viewBox="0 0 110 110" style="enable-background:new 0 0 110 110;" xml:space="preserve">
<g id="Artboard" style="display:none;">
	<rect x="-559" y="-29" style="display:inline;fill:#808080;" width="1331" height="306"/>
</g>
<g id="R-Multicolor" style="display:none;">
	<circle style="display:inline;fill:#FABC3D;" cx="55" cy="55" r="55"/>
	<g style="display:inline;">
		<g>
			<g>
				<path style="fill:#F0F1F1;" d="M23.138,83.047c0.207-0.462,12.791-28.593,15.514-34.68c-0.702,3.651,3.525,10.256,8.125,14.857
					c5.591,5.591,11.866,8.87,15.116,8.034c-5.634,2.522-34.503,15.411-34.939,15.605c-0.798,0.367-2.002-0.017-2.896-0.92
					C23.155,85.049,22.771,83.845,23.138,83.047z"/>
			</g>
		</g>
		<g>
			<path style="fill:#FFFFFF;" d="M23.138,83.047c0.207-0.462,12.791-28.593,15.514-34.68c-0.701,3.648,3.517,10.244,8.112,14.844
				L24.045,85.928C23.152,85.037,22.773,83.841,23.138,83.047z"/>
		</g>
		<g>
			<g>
				<circle style="fill:#DF2C2C;" cx="46" cy="37" r="2"/>
			</g>
		</g>
		<g>
			<g>
				<circle style="fill:#F37A10;" cx="62" cy="41" r="2"/>
			</g>
		</g>
		<g>
			<g>
				<circle style="fill:#059BBF;" cx="81" cy="49" r="2"/>
			</g>
		</g>
		<g>
			<g>
				<circle style="fill:#FA5655;" cx="82" cy="71" r="2"/>
			</g>
		</g>
		<g>
			<g>
				<circle style="fill:#12B2A0;" cx="59" cy="27" r="2"/>
			</g>
		</g>
		<g>
			<g>
				<polygon style="fill:#FA5655;" points="72.877,26.652 68.925,28.666 65.788,25.529 66.482,29.911 62.529,31.925 66.911,32.619 
					67.605,37 69.619,33.047 74,33.741 70.863,30.605 				"/>
			</g>
		</g>
		<g>
			<g>
				<polygon style="fill:#F37A10;" points="72.035,60 71.082,62.932 68,62.932 70.494,64.588 69.541,67.442 72.035,65.591 
					74.529,67.383 73.576,64.598 76.07,62.932 72.988,62.932 				"/>
			</g>
		</g>
		<g>
			<g>
				<path style="fill:#DF2C2C;" d="M65,50c9.961,0,12.055-6.333,13.737-11.421C80.138,34.345,81.244,31,86,31c0.552,0,1-0.448,1-1
					s-0.448-1-1-1c-6.201,0-7.706,4.551-9.161,8.951C75.13,43.119,73.516,48,65,48c-0.552,0-1,0.448-1,1S64.448,50,65,50z"/>
			</g>
		</g>
		<g>
			<g>
				<path style="fill:#059BBF;" d="M51.625,43.781c7.008-5.607,4.519-9.36,2.112-12.991C52.391,28.761,51,26.663,51,24
					c0-0.552-0.448-1-1-1s-1,0.448-1,1c0,3.266,1.631,5.725,3.07,7.896c2.34,3.528,3.886,5.86-1.695,10.324
					c-0.431,0.345-0.501,0.974-0.156,1.406C50.567,44.059,51.196,44.124,51.625,43.781z"/>
			</g>
		</g>
		<g>
			<g>
				<path style="fill:#12B2A0;" d="M86,62c0.552,0,1-0.448,1-1s-0.448-1-1-1c-2.858,0-5.139-1.521-7.345-2.992
					c-3.562-2.375-7.246-4.832-12.362,0.285c-0.391,0.39-0.391,1.024,0,1.414c0.39,0.391,1.024,0.391,1.414,0
					c3.957-3.956,6.296-2.396,9.838-0.035C79.885,60.232,82.536,62,86,62z"/>
			</g>
		</g>
		<g>
			<g>
				<path style="fill:#DF2C2C;" d="M39.221,81.352c-9.117,4.109,1.86-0.816-7.266,3.274c-2.222-2.305-4.326-4.776-6.222-7.38
					c1.062-2.374,2.356-5.268,3.716-8.307C32.074,73.57,35.412,77.783,39.221,81.352z"/>
			</g>
		</g>
		<g>
			<path style="fill:#FA5655;" d="M34.133,75.84l-5.316,5.317c-1.075-1.266-2.108-2.57-3.084-3.912
				c1.062-2.374,2.356-5.268,3.716-8.307C30.825,71.366,32.401,73.675,34.133,75.84z"/>
		</g>
		<g>
			<path style="fill:#E2E4E5;" d="M46.777,63.223c6.48,6.479,13.889,9.868,16.428,7.325c2.519-2.519-0.767-9.871-7.327-16.44
				c-6.569-6.56-13.919-9.835-16.439-7.327C36.506,49.711,41.398,57.844,46.777,63.223z"/>
		</g>
		<path style="fill:#DF2C2C;" d="M45.322,66.558c-3.574-4.837-5.737-9.946-6.194-14.51c-0.487-1.39-0.674-2.649-0.477-3.679
			l-5.611,12.563c1.406,3.037,3.227,6.089,5.41,9.045c2.272,3.074,4.83,5.892,7.555,8.375l7.602-3.396
			C50.593,72.705,47.736,69.839,45.322,66.558z"/>
		<g>
			<path style="fill:#F0F1F1;" d="M55.871,54.102l-9.107,9.107c-5.374-5.379-10.255-13.501-7.326-16.428
				C41.958,44.275,49.304,47.547,55.871,54.102z"/>
		</g>
		<path style="fill:#FA5655;" d="M38.651,48.369l-5.611,12.563c1.406,3.037,3.227,6.089,5.41,9.045
			c0.219,0.296,0.453,0.578,0.677,0.87l5.413-5.413c-3.102-4.503-4.994-9.18-5.416-13.395C38.64,50.652,38.454,49.396,38.651,48.369
			z"/>
	</g>
</g>
<g id="Multicolor">
	<g>
		<g>
			<g>
				<path style="fill:#F0F1F1;" d="M23.138,83.047c0.207-0.462,12.791-28.593,15.514-34.68c-0.702,3.651,3.525,10.256,8.125,14.857
					c5.591,5.591,11.866,8.87,15.116,8.034c-5.634,2.522-34.503,15.411-34.939,15.605c-0.798,0.367-2.002-0.017-2.896-0.92
					C23.155,85.049,22.771,83.845,23.138,83.047z"/>
			</g>
		</g>
		<g>
			<path style="fill:#FFFFFF;" d="M23.138,83.047c0.207-0.462,12.791-28.593,15.514-34.68c-0.701,3.648,3.517,10.244,8.112,14.844
				L24.045,85.928C23.152,85.037,22.773,83.841,23.138,83.047z"/>
		</g>
		<g>
			<g>
				<circle style="fill:#DF2C2C;" cx="46" cy="37" r="2"/>
			</g>
		</g>
		<g>
			<g>
				<circle style="fill:#F37A10;" cx="62" cy="41" r="2"/>
			</g>
		</g>
		<g>
			<g>
				<circle style="fill:#059BBF;" cx="81" cy="49" r="2"/>
			</g>
		</g>
		<g>
			<g>
				<circle style="fill:#FA5655;" cx="82" cy="71" r="2"/>
			</g>
		</g>
		<g>
			<g>
				<circle style="fill:#12B2A0;" cx="59" cy="27" r="2"/>
			</g>
		</g>
		<g>
			<g>
				<polygon style="fill:#FA5655;" points="72.877,26.652 68.925,28.666 65.788,25.529 66.482,29.911 62.529,31.925 66.911,32.619 
					67.605,37 69.619,33.047 74,33.741 70.863,30.605 				"/>
			</g>
		</g>
		<g>
			<g>
				<polygon style="fill:#F37A10;" points="72.035,60 71.082,62.932 68,62.932 70.494,64.588 69.541,67.442 72.035,65.591 
					74.529,67.383 73.576,64.598 76.07,62.932 72.988,62.932 				"/>
			</g>
		</g>
		<g>
			<g>
				<path style="fill:#DF2C2C;" d="M65,50c9.961,0,12.055-6.333,13.737-11.421C80.138,34.345,81.244,31,86,31c0.552,0,1-0.448,1-1
					s-0.448-1-1-1c-6.201,0-7.706,4.551-9.161,8.951C75.13,43.119,73.516,48,65,48c-0.552,0-1,0.448-1,1S64.448,50,65,50z"/>
			</g>
		</g>
		<g>
			<g>
				<path style="fill:#059BBF;" d="M51.625,43.781c7.008-5.607,4.519-9.36,2.112-12.991C52.391,28.761,51,26.663,51,24
					c0-0.552-0.448-1-1-1s-1,0.448-1,1c0,3.266,1.631,5.725,3.07,7.896c2.34,3.528,3.886,5.86-1.695,10.324
					c-0.431,0.345-0.501,0.974-0.156,1.406C50.567,44.059,51.196,44.124,51.625,43.781z"/>
			</g>
		</g>
		<g>
			<g>
				<path style="fill:#12B2A0;" d="M86,62c0.552,0,1-0.448,1-1s-0.448-1-1-1c-2.858,0-5.139-1.521-7.345-2.992
					c-3.562-2.375-7.246-4.832-12.362,0.285c-0.391,0.39-0.391,1.024,0,1.414c0.39,0.391,1.024,0.391,1.414,0
					c3.957-3.956,6.296-2.396,9.838-0.035C79.885,60.232,82.536,62,86,62z"/>
			</g>
		</g>
		<g>
			<g>
				<path style="fill:#DF2C2C;" d="M39.221,81.352c-9.117,4.109,1.86-0.816-7.266,3.274c-2.222-2.305-4.326-4.776-6.222-7.38
					c1.062-2.374,2.356-5.268,3.716-8.307C32.074,73.57,35.412,77.783,39.221,81.352z"/>
			</g>
		</g>
		<g>
			<path style="fill:#FA5655;" d="M34.133,75.84l-5.316,5.317c-1.075-1.266-2.108-2.57-3.084-3.912
				c1.062-2.374,2.356-5.268,3.716-8.307C30.825,71.366,32.401,73.675,34.133,75.84z"/>
		</g>
		<g>
			<path style="fill:#E2E4E5;" d="M46.777,63.223c6.48,6.479,13.889,9.868,16.428,7.325c2.519-2.519-0.767-9.871-7.327-16.44
				c-6.569-6.56-13.919-9.835-16.439-7.327C36.506,49.711,41.398,57.844,46.777,63.223z"/>
		</g>
		<path style="fill:#DF2C2C;" d="M45.322,66.558c-3.574-4.837-5.737-9.946-6.194-14.51c-0.487-1.39-0.674-2.649-0.477-3.679
			l-5.611,12.563c1.406,3.037,3.227,6.089,5.41,9.045c2.272,3.074,4.83,5.892,7.555,8.375l7.602-3.396
			C50.593,72.705,47.736,69.839,45.322,66.558z"/>
		<g>
			<path style="fill:#F0F1F1;" d="M55.871,54.102l-9.107,9.107c-5.374-5.379-10.255-13.501-7.326-16.428
				C41.958,44.275,49.304,47.547,55.871,54.102z"/>
		</g>
		<path style="fill:#FA5655;" d="M38.651,48.369l-5.611,12.563c1.406,3.037,3.227,6.089,5.41,9.045
			c0.219,0.296,0.453,0.578,0.677,0.87l5.413-5.413c-3.102-4.503-4.994-9.18-5.416-13.395C38.64,50.652,38.454,49.396,38.651,48.369
			z"/>
	</g>
</g>
<g id="Blue" style="display:none;">
	<g style="display:inline;">
		<g>
			<g>
				<path style="fill:#E1F5FA;" d="M23.138,83.048c0.207-0.462,12.791-28.594,15.514-34.681c-0.702,3.651,3.525,10.256,8.125,14.857
					c5.591,5.591,11.866,8.87,15.116,8.034c-5.634,2.521-34.503,15.41-34.939,15.605c-0.798,0.366-2.002-0.018-2.896-0.92
					C23.155,85.05,22.772,83.846,23.138,83.048z"/>
			</g>
		</g>
		<g>
			<path style="fill:#FFFFFF;" d="M23.138,83.048c0.207-0.462,12.791-28.593,15.514-34.681c-0.701,3.648,3.517,10.244,8.112,14.844
				L24.045,85.93C23.152,85.037,22.773,83.842,23.138,83.048z"/>
		</g>
		<g>
			<g>
				<circle style="fill:#0F6175;" cx="46" cy="37.001" r="2"/>
			</g>
		</g>
		<g>
			<g>
				<circle style="fill:#0F6175;" cx="62" cy="41.001" r="2"/>
			</g>
		</g>
		<g>
			<g>
				<circle style="fill:#E1F5FA;" cx="81" cy="49.001" r="2"/>
			</g>
		</g>
		<g>
			<g>
				<circle style="fill:#E1F5FA;" cx="82" cy="71.001" r="2"/>
			</g>
		</g>
		<g>
			<g>
				<circle style="fill:#0081A1;" cx="59" cy="27.001" r="2"/>
			</g>
		</g>
		<g>
			<g>
				<polygon style="fill:#E1F5FA;" points="72.877,26.653 68.925,28.667 65.788,25.53 66.482,29.912 62.529,31.926 66.911,32.619 
					67.605,37.001 69.619,33.049 74,33.742 70.863,30.606 				"/>
			</g>
		</g>
		<g>
			<g>
				<polygon style="fill:#0F6175;" points="72.035,60.001 71.083,62.933 68,62.933 70.494,64.589 69.541,67.443 72.035,65.592 
					74.529,67.385 73.576,64.599 76.07,62.933 72.987,62.933 				"/>
			</g>
		</g>
		<g>
			<g>
				<path style="fill:#0C333D;" d="M65,50.001c9.961,0,12.055-6.333,13.737-11.421c1.4-4.234,2.506-7.579,7.263-7.579
					c0.552,0,1-0.448,1-1s-0.448-1-1-1c-6.201,0-7.706,4.551-9.162,8.951C75.129,43.12,73.516,48.001,65,48.001
					c-0.552,0-1,0.448-1,1S64.448,50.001,65,50.001z"/>
			</g>
		</g>
		<g>
			<g>
				<path style="fill:#0C333D;" d="M51.625,43.781c7.008-5.606,4.519-9.359,2.112-12.99C52.391,28.762,51,26.664,51,24.001
					c0-0.552-0.448-1-1-1s-1,0.448-1,1c0,3.267,1.631,5.726,3.07,7.896c2.34,3.528,3.886,5.859-1.695,10.324
					c-0.431,0.345-0.501,0.974-0.156,1.405C50.566,44.06,51.196,44.125,51.625,43.781z"/>
			</g>
		</g>
		<g>
			<g>
				<path style="fill:#0081A1;" d="M86,62.001c0.552,0,1-0.448,1-1s-0.448-1-1-1c-2.858,0-5.139-1.521-7.345-2.991
					c-3.562-2.375-7.246-4.832-12.362,0.284c-0.39,0.391-0.39,1.023,0,1.414c0.391,0.391,1.024,0.391,1.414,0
					c3.957-3.956,6.297-2.396,9.839-0.035C79.885,60.232,82.536,62.001,86,62.001z"/>
			</g>
		</g>
		<g>
			<g>
				<path style="fill:#0081A1;" d="M39.221,81.353c-9.117,4.109,1.859-0.815-7.266,3.274c-2.222-2.307-4.326-4.776-6.222-7.381
					c1.062-2.375,2.356-5.268,3.716-8.307C32.074,73.571,35.412,77.785,39.221,81.353z"/>
			</g>
		</g>
		<g>
			<path style="fill:#009FC7;" d="M34.133,75.841l-5.316,5.317c-1.075-1.267-2.108-2.57-3.084-3.912
				c1.062-2.375,2.356-5.269,3.716-8.307C30.825,71.367,32.4,73.676,34.133,75.841z"/>
		</g>
		<g>
			<path style="fill:#BBE7F2;" d="M46.777,63.224c6.48,6.479,13.889,9.868,16.428,7.325c2.519-2.519-0.767-9.87-7.327-16.439
				c-6.569-6.56-13.918-9.834-16.439-7.327C36.506,49.712,41.398,57.846,46.777,63.224z"/>
		</g>
		<path style="fill:#0081A1;" d="M45.322,66.559c-3.574-4.837-5.737-9.945-6.194-14.51c-0.487-1.39-0.674-2.649-0.476-3.679
			l-5.611,12.562c1.406,3.037,3.227,6.089,5.41,9.045c2.273,3.074,4.83,5.893,7.555,8.375l7.602-3.396
			C50.593,72.706,47.736,69.84,45.322,66.559z"/>
		<g>
			<path style="fill:#E1F5FA;" d="M55.871,54.104l-9.107,9.107c-5.374-5.379-10.255-13.502-7.326-16.429
				C41.958,44.275,49.304,47.548,55.871,54.104z"/>
		</g>
		<path style="fill:#009FC7;" d="M38.651,48.37l-5.611,12.562c1.406,3.037,3.227,6.089,5.41,9.045
			c0.219,0.296,0.453,0.578,0.677,0.87l5.413-5.413c-3.102-4.502-4.994-9.181-5.416-13.394C38.64,50.653,38.454,49.398,38.651,48.37
			z"/>
	</g>
</g>
<g id="R-Blue" style="display:none;">
	<circle style="display:inline;fill:#81D2EB;" cx="55.125" cy="55" r="55"/>
	<g style="display:inline;">
		<g>
			<g>
				<path style="fill:#E1F5FA;" d="M23.263,83.047c0.207-0.462,12.791-28.594,15.514-34.681c-0.702,3.651,3.525,10.256,8.125,14.857
					c5.591,5.591,11.866,8.87,15.116,8.034c-5.634,2.521-34.503,15.41-34.939,15.605c-0.798,0.366-2.002-0.018-2.896-0.92
					C23.28,85.049,22.897,83.845,23.263,83.047z"/>
			</g>
		</g>
		<g>
			<path style="fill:#FFFFFF;" d="M23.263,83.047c0.207-0.462,12.791-28.593,15.514-34.681c-0.701,3.648,3.517,10.244,8.112,14.844
				L24.171,85.929C23.278,85.036,22.899,83.841,23.263,83.047z"/>
		</g>
		<g>
			<g>
				<circle style="fill:#0F6175;" cx="46.125" cy="37" r="2"/>
			</g>
		</g>
		<g>
			<g>
				<circle style="fill:#0F6175;" cx="62.125" cy="41" r="2"/>
			</g>
		</g>
		<g>
			<g>
				<circle style="fill:#E1F5FA;" cx="81.125" cy="49" r="2"/>
			</g>
		</g>
		<g>
			<g>
				<circle style="fill:#E1F5FA;" cx="82.125" cy="71" r="2"/>
			</g>
		</g>
		<g>
			<g>
				<circle style="fill:#0081A1;" cx="59.125" cy="27" r="2"/>
			</g>
		</g>
		<g>
			<g>
				<polygon style="fill:#E1F5FA;" points="73.003,26.652 69.05,28.666 65.913,25.529 66.607,29.911 62.655,31.925 67.036,32.618 
					67.73,37 69.744,33.048 74.125,33.741 70.989,30.604 				"/>
			</g>
		</g>
		<g>
			<g>
				<polygon style="fill:#0F6175;" points="72.16,60 71.208,62.932 68.125,62.932 70.619,64.588 69.666,67.442 72.16,65.591 
					74.654,67.384 73.702,64.598 76.196,62.932 73.113,62.932 				"/>
			</g>
		</g>
		<g>
			<g>
				<path style="fill:#0C333D;" d="M65.125,50c9.961,0,12.055-6.333,13.737-11.421c1.4-4.234,2.506-7.579,7.263-7.579
					c0.552,0,1-0.448,1-1s-0.448-1-1-1c-6.201,0-7.707,4.551-9.162,8.951C75.255,43.119,73.641,48,65.125,48c-0.552,0-1,0.448-1,1
					S64.573,50,65.125,50z"/>
			</g>
		</g>
		<g>
			<g>
				<path style="fill:#0C333D;" d="M51.75,43.78c7.008-5.606,4.519-9.359,2.112-12.99c-1.346-2.029-2.737-4.127-2.737-6.79
					c0-0.552-0.448-1-1-1s-1,0.448-1,1c0,3.267,1.631,5.726,3.07,7.896c2.34,3.528,3.886,5.859-1.695,10.324
					c-0.431,0.345-0.501,0.974-0.156,1.405C50.692,44.059,51.322,44.124,51.75,43.78z"/>
			</g>
		</g>
		<g>
			<g>
				<path style="fill:#0081A1;" d="M86.125,62c0.552,0,1-0.448,1-1s-0.448-1-1-1c-2.858,0-5.139-1.521-7.345-2.991
					c-3.562-2.375-7.246-4.832-12.362,0.284c-0.39,0.391-0.39,1.023,0,1.414c0.391,0.391,1.024,0.391,1.414,0
					c3.957-3.956,6.297-2.396,9.839-0.035C80.01,60.231,82.662,62,86.125,62z"/>
			</g>
		</g>
		<g>
			<g>
				<path style="fill:#0081A1;" d="M39.346,81.352c-9.117,4.109,1.859-0.815-7.266,3.274c-2.222-2.307-4.326-4.776-6.222-7.381
					c1.062-2.375,2.356-5.268,3.716-8.307C32.199,73.57,35.537,77.784,39.346,81.352z"/>
			</g>
		</g>
		<g>
			<path style="fill:#009FC7;" d="M34.259,75.84l-5.316,5.317c-1.075-1.267-2.108-2.57-3.084-3.912
				c1.062-2.375,2.356-5.269,3.716-8.307C30.95,71.366,32.526,73.675,34.259,75.84z"/>
		</g>
		<g>
			<path style="fill:#BBE7F2;" d="M46.902,63.223c6.48,6.479,13.889,9.868,16.428,7.325c2.52-2.519-0.767-9.87-7.327-16.439
				c-6.569-6.56-13.918-9.834-16.439-7.327C36.632,49.711,41.523,57.845,46.902,63.223z"/>
		</g>
		<path style="fill:#0081A1;" d="M45.447,66.558c-3.574-4.837-5.737-9.945-6.194-14.51c-0.487-1.39-0.674-2.649-0.476-3.679
			l-5.611,12.562c1.406,3.037,3.227,6.089,5.41,9.045c2.273,3.074,4.83,5.893,7.555,8.375l7.602-3.396
			C50.719,72.705,47.861,69.839,45.447,66.558z"/>
		<g>
			<path style="fill:#E1F5FA;" d="M55.997,54.103l-9.107,9.107c-5.374-5.379-10.255-13.502-7.326-16.429
				C42.083,44.274,49.429,47.547,55.997,54.103z"/>
		</g>
		<path style="fill:#009FC7;" d="M38.777,48.369l-5.611,12.562c1.406,3.037,3.227,6.089,5.41,9.045
			c0.219,0.296,0.453,0.578,0.677,0.87l5.413-5.413c-3.102-4.502-4.994-9.181-5.416-13.395
			C38.766,50.652,38.58,49.396,38.777,48.369z"/>
	</g>
</g>
<g id="Green" style="display:none;">
	<g style="display:inline;">
		<g>
			<g>
				<path style="fill:#D7FCF9;" d="M23.138,83.048c0.207-0.462,12.791-28.594,15.514-34.681c-0.702,3.651,3.525,10.256,8.125,14.857
					c5.591,5.591,11.866,8.87,15.116,8.034c-5.634,2.522-34.503,15.41-34.939,15.605c-0.798,0.366-2.002-0.018-2.896-0.92
					C23.155,85.05,22.772,83.846,23.138,83.048z"/>
			</g>
		</g>
		<g>
			<path style="fill:#FFFFFF;" d="M23.138,83.048c0.207-0.462,12.791-28.593,15.514-34.681c-0.701,3.648,3.517,10.244,8.112,14.844
				L24.045,85.93C23.152,85.037,22.773,83.842,23.138,83.048z"/>
		</g>
		<g>
			<g>
				<circle style="fill:#14635B;" cx="46" cy="37.001" r="2"/>
			</g>
		</g>
		<g>
			<g>
				<circle style="fill:#14635B;" cx="62" cy="41.001" r="2"/>
			</g>
		</g>
		<g>
			<g>
				<circle style="fill:#D7FCF9;" cx="81" cy="49.001" r="2"/>
			</g>
		</g>
		<g>
			<g>
				<circle style="fill:#D7FCF9;" cx="82" cy="71.001" r="2"/>
			</g>
		</g>
		<g>
			<g>
				<circle style="fill:#009687;" cx="59" cy="27.001" r="2"/>
			</g>
		</g>
		<g>
			<g>
				<polygon style="fill:#D7FCF9;" points="72.877,26.653 68.925,28.667 65.788,25.53 66.482,29.912 62.529,31.926 66.911,32.619 
					67.605,37.001 69.619,33.049 74,33.742 70.863,30.606 				"/>
			</g>
		</g>
		<g>
			<g>
				<polygon style="fill:#14635B;" points="72.035,60.001 71.083,62.933 68,62.933 70.494,64.589 69.541,67.443 72.035,65.592 
					74.529,67.385 73.576,64.599 76.07,62.933 72.987,62.933 				"/>
			</g>
		</g>
		<g>
			<g>
				<path style="fill:#0A3631;" d="M65,50.001c9.961,0,12.055-6.333,13.737-11.421c1.4-4.234,2.506-7.579,7.263-7.579
					c0.552,0,1-0.448,1-1s-0.448-1-1-1c-6.201,0-7.706,4.551-9.162,8.951C75.129,43.12,73.516,48.001,65,48.001
					c-0.552,0-1,0.448-1,1S64.448,50.001,65,50.001z"/>
			</g>
		</g>
		<g>
			<g>
				<path style="fill:#0A3631;" d="M51.625,43.781c7.008-5.606,4.519-9.359,2.112-12.99C52.391,28.762,51,26.664,51,24.001
					c0-0.552-0.448-1-1-1s-1,0.448-1,1c0,3.267,1.631,5.726,3.07,7.896c2.34,3.528,3.886,5.859-1.695,10.324
					c-0.431,0.345-0.501,0.974-0.156,1.405C50.566,44.06,51.196,44.125,51.625,43.781z"/>
			</g>
		</g>
		<g>
			<g>
				<path style="fill:#009687;" d="M86,62.001c0.552,0,1-0.448,1-1s-0.448-1-1-1c-2.858,0-5.139-1.52-7.345-2.991
					c-3.562-2.375-7.246-4.832-12.362,0.284c-0.39,0.391-0.39,1.023,0,1.414c0.391,0.391,1.024,0.391,1.414,0
					c3.957-3.956,6.297-2.396,9.839-0.035C79.885,60.232,82.536,62.001,86,62.001z"/>
			</g>
		</g>
		<g>
			<g>
				<path style="fill:#009687;" d="M39.221,81.353c-9.117,4.109,1.859-0.815-7.266,3.274c-2.222-2.307-4.326-4.776-6.222-7.381
					c1.062-2.375,2.356-5.268,3.716-8.307C32.074,73.571,35.412,77.785,39.221,81.353z"/>
			</g>
		</g>
		<g>
			<path style="fill:#00B8A5;" d="M34.133,75.841l-5.316,5.317c-1.075-1.267-2.108-2.57-3.084-3.912
				c1.062-2.375,2.356-5.269,3.716-8.307C30.825,71.367,32.4,73.676,34.133,75.841z"/>
		</g>
		<g>
			<path style="fill:#AAF0E9;" d="M46.777,63.224c6.48,6.479,13.889,9.868,16.428,7.325c2.519-2.519-0.767-9.87-7.327-16.44
				c-6.569-6.56-13.918-9.834-16.439-7.327C36.506,49.712,41.398,57.846,46.777,63.224z"/>
		</g>
		<path style="fill:#009687;" d="M45.322,66.559c-3.574-4.837-5.737-9.945-6.194-14.51c-0.487-1.39-0.674-2.649-0.476-3.679
			l-5.611,12.562c1.406,3.037,3.227,6.089,5.41,9.045c2.273,3.074,4.83,5.893,7.555,8.375l7.602-3.397
			C50.593,72.706,47.736,69.84,45.322,66.559z"/>
		<g>
			<path style="fill:#D7FCF9;" d="M55.871,54.104l-9.107,9.107c-5.374-5.379-10.255-13.502-7.326-16.429
				C41.958,44.275,49.304,47.548,55.871,54.104z"/>
		</g>
		<path style="fill:#00B8A5;" d="M38.651,48.37l-5.611,12.562c1.406,3.037,3.227,6.089,5.41,9.045
			c0.219,0.296,0.453,0.578,0.677,0.87l5.413-5.413c-3.102-4.502-4.994-9.181-5.416-13.395C38.64,50.653,38.454,49.397,38.651,48.37
			z"/>
	</g>
</g>
<g id="R-Green" style="display:none;">
	<circle style="display:inline;fill:#77E0C4;" cx="55.125" cy="55" r="55"/>
	<g style="display:inline;">
		<g>
			<g>
				<path style="fill:#D7FCF9;" d="M23.263,83.047c0.207-0.462,12.791-28.594,15.514-34.681c-0.702,3.651,3.525,10.256,8.125,14.856
					c5.591,5.591,11.866,8.87,15.116,8.034c-5.634,2.522-34.503,15.41-34.939,15.605c-0.798,0.366-2.002-0.018-2.896-0.92
					C23.28,85.049,22.897,83.845,23.263,83.047z"/>
			</g>
		</g>
		<g>
			<path style="fill:#FFFFFF;" d="M23.263,83.047c0.207-0.462,12.791-28.593,15.514-34.681c-0.701,3.647,3.517,10.244,8.112,14.844
				L24.171,85.929C23.278,85.036,22.899,83.841,23.263,83.047z"/>
		</g>
		<g>
			<g>
				<circle style="fill:#14635B;" cx="46.125" cy="37" r="2"/>
			</g>
		</g>
		<g>
			<g>
				<circle style="fill:#14635B;" cx="62.125" cy="41" r="2"/>
			</g>
		</g>
		<g>
			<g>
				<circle style="fill:#D7FCF9;" cx="81.125" cy="49" r="2"/>
			</g>
		</g>
		<g>
			<g>
				<circle style="fill:#D7FCF9;" cx="82.125" cy="71" r="2"/>
			</g>
		</g>
		<g>
			<g>
				<circle style="fill:#009687;" cx="59.125" cy="27" r="2"/>
			</g>
		</g>
		<g>
			<g>
				<polygon style="fill:#D7FCF9;" points="73.003,26.652 69.05,28.666 65.913,25.529 66.607,29.911 62.655,31.925 67.036,32.618 
					67.73,37 69.744,33.048 74.126,33.741 70.989,30.604 				"/>
			</g>
		</g>
		<g>
			<g>
				<polygon style="fill:#14635B;" points="72.16,60 71.208,62.932 68.126,62.932 70.619,64.588 69.666,67.442 72.16,65.591 
					74.654,67.384 73.702,64.598 76.196,62.932 73.113,62.932 				"/>
			</g>
		</g>
		<g>
			<g>
				<path style="fill:#0A3631;" d="M65.126,50c9.961,0,12.055-6.333,13.737-11.421c1.4-4.234,2.506-7.579,7.263-7.579
					c0.552,0,1-0.448,1-1s-0.448-1-1-1c-6.201,0-7.707,4.551-9.162,8.951C75.255,43.119,73.641,48,65.126,48c-0.552,0-1,0.448-1,1
					S64.573,50,65.126,50z"/>
			</g>
		</g>
		<g>
			<g>
				<path style="fill:#0A3631;" d="M51.75,43.78c7.008-5.606,4.519-9.359,2.112-12.99c-1.346-2.029-2.737-4.127-2.737-6.79
					c0-0.552-0.448-1-1-1s-1,0.448-1,1c0,3.267,1.631,5.726,3.07,7.896c2.34,3.528,3.886,5.859-1.695,10.324
					c-0.431,0.345-0.501,0.974-0.156,1.405C50.692,44.059,51.322,44.124,51.75,43.78z"/>
			</g>
		</g>
		<g>
			<g>
				<path style="fill:#009687;" d="M86.126,62c0.552,0,1-0.448,1-1s-0.448-1-1-1c-2.858,0-5.139-1.521-7.345-2.991
					c-3.562-2.375-7.246-4.832-12.362,0.284c-0.39,0.391-0.39,1.023,0,1.414c0.391,0.391,1.024,0.391,1.414,0
					c3.957-3.956,6.297-2.396,9.839-0.035C80.01,60.231,82.662,62,86.126,62z"/>
			</g>
		</g>
		<g>
			<g>
				<path style="fill:#009687;" d="M39.346,81.352c-9.117,4.109,1.859-0.816-7.266,3.274c-2.222-2.307-4.326-4.776-6.222-7.381
					c1.062-2.375,2.356-5.268,3.716-8.307C32.199,73.57,35.537,77.784,39.346,81.352z"/>
			</g>
		</g>
		<g>
			<path style="fill:#00B8A5;" d="M34.259,75.84l-5.316,5.317c-1.075-1.267-2.108-2.57-3.084-3.912
				c1.062-2.375,2.356-5.269,3.716-8.307C30.95,71.366,32.526,73.675,34.259,75.84z"/>
		</g>
		<g>
			<path style="fill:#AAF0E9;" d="M46.902,63.223c6.48,6.479,13.889,9.868,16.428,7.325c2.52-2.519-0.767-9.87-7.327-16.44
				c-6.569-6.56-13.918-9.834-16.439-7.327C36.632,49.711,41.523,57.845,46.902,63.223z"/>
		</g>
		<path style="fill:#009687;" d="M45.447,66.558c-3.574-4.837-5.737-9.945-6.194-14.51c-0.487-1.39-0.674-2.649-0.476-3.679
			l-5.611,12.562c1.406,3.037,3.227,6.089,5.41,9.045c2.273,3.074,4.83,5.893,7.555,8.375l7.602-3.397
			C50.719,72.705,47.861,69.839,45.447,66.558z"/>
		<g>
			<path style="fill:#D7FCF9;" d="M55.997,54.103l-9.107,9.107c-5.374-5.379-10.255-13.502-7.326-16.429
				C42.083,44.274,49.429,47.547,55.997,54.103z"/>
		</g>
		<path style="fill:#00B8A5;" d="M38.777,48.369l-5.611,12.562c1.406,3.037,3.227,6.089,5.41,9.045
			c0.219,0.296,0.453,0.578,0.677,0.87l5.413-5.413c-3.102-4.502-4.994-9.181-5.416-13.395
			C38.766,50.652,38.58,49.396,38.777,48.369z"/>
	</g>
</g>
<g id="Red" style="display:none;">
	<g style="display:inline;">
		<g>
			<g>
				<path style="fill:#FFEFED;" d="M23.138,83.048c0.207-0.462,12.791-28.594,15.514-34.681c-0.702,3.651,3.525,10.256,8.125,14.856
					c5.591,5.591,11.866,8.87,15.116,8.034c-5.634,2.521-34.503,15.41-34.939,15.605c-0.798,0.366-2.002-0.018-2.896-0.92
					C23.155,85.05,22.771,83.846,23.138,83.048z"/>
			</g>
		</g>
		<g>
			<path style="fill:#FFFFFF;" d="M23.138,83.048c0.207-0.462,12.791-28.593,15.514-34.681c-0.701,3.647,3.517,10.244,8.112,14.844
				L24.045,85.93C23.152,85.037,22.773,83.842,23.138,83.048z"/>
		</g>
		<g>
			<g>
				<circle style="fill:#7D261E;" cx="46" cy="37.001" r="2"/>
			</g>
		</g>
		<g>
			<g>
				<circle style="fill:#7D261E;" cx="62" cy="41.001" r="2"/>
			</g>
		</g>
		<g>
			<g>
				<circle style="fill:#FFEFED;" cx="81" cy="49.001" r="2"/>
			</g>
		</g>
		<g>
			<g>
				<circle style="fill:#FFEFED;" cx="82" cy="71.001" r="2"/>
			</g>
		</g>
		<g>
			<g>
				<circle style="fill:#C23023;" cx="59" cy="27.001" r="2"/>
			</g>
		</g>
		<g>
			<g>
				<polygon style="fill:#FFEFED;" points="72.877,26.653 68.925,28.667 65.788,25.53 66.482,29.912 62.529,31.926 66.911,32.619 
					67.605,37.001 69.619,33.049 74,33.742 70.863,30.605 				"/>
			</g>
		</g>
		<g>
			<g>
				<polygon style="fill:#7D261E;" points="72.035,60.001 71.082,62.933 68,62.933 70.494,64.589 69.541,67.443 72.035,65.592 
					74.529,67.385 73.576,64.599 76.07,62.933 72.987,62.933 				"/>
			</g>
		</g>
		<g>
			<g>
				<path style="fill:#4A1410;" d="M65,50.001c9.961,0,12.055-6.333,13.737-11.421c1.4-4.234,2.506-7.579,7.263-7.579
					c0.552,0,1-0.448,1-1s-0.448-1-1-1c-6.201,0-7.707,4.551-9.162,8.951C75.129,43.12,73.516,48.001,65,48.001
					c-0.552,0-1,0.448-1,1S64.448,50.001,65,50.001z"/>
			</g>
		</g>
		<g>
			<g>
				<path style="fill:#4A1410;" d="M51.625,43.781c7.008-5.606,4.519-9.359,2.112-12.99C52.391,28.762,51,26.664,51,24.001
					c0-0.552-0.448-1-1-1c-0.552,0-1,0.448-1,1c0,3.267,1.631,5.726,3.07,7.896c2.34,3.528,3.886,5.859-1.695,10.324
					c-0.431,0.345-0.502,0.974-0.156,1.405C50.566,44.06,51.196,44.125,51.625,43.781z"/>
			</g>
		</g>
		<g>
			<g>
				<path style="fill:#C23023;" d="M86,62.001c0.552,0,1-0.448,1-1s-0.448-1-1-1c-2.858,0-5.139-1.521-7.345-2.991
					c-3.562-2.375-7.246-4.832-12.362,0.284c-0.39,0.391-0.39,1.023,0,1.414c0.391,0.391,1.024,0.391,1.414,0
					c3.957-3.956,6.297-2.396,9.839-0.035C79.885,60.232,82.536,62.001,86,62.001z"/>
			</g>
		</g>
		<g>
			<g>
				<path style="fill:#C23023;" d="M39.221,81.353c-9.117,4.109,1.859-0.815-7.266,3.274c-2.222-2.307-4.326-4.776-6.222-7.381
					c1.062-2.375,2.356-5.268,3.716-8.307C32.074,73.571,35.412,77.785,39.221,81.353z"/>
			</g>
		</g>
		<g>
			<path style="fill:#E54B44;" d="M34.133,75.841l-5.316,5.317c-1.075-1.267-2.108-2.57-3.084-3.912
				c1.062-2.375,2.356-5.269,3.716-8.307C30.825,71.367,32.4,73.676,34.133,75.841z"/>
		</g>
		<g>
			<path style="fill:#FFD7D4;" d="M46.777,63.224c6.48,6.479,13.889,9.868,16.428,7.325c2.519-2.519-0.767-9.87-7.327-16.439
				c-6.569-6.56-13.918-9.834-16.439-7.327C36.506,49.712,41.398,57.846,46.777,63.224z"/>
		</g>
		<path style="fill:#C23023;" d="M45.322,66.559c-3.574-4.837-5.737-9.945-6.194-14.51c-0.487-1.39-0.674-2.649-0.476-3.679
			l-5.611,12.562c1.406,3.037,3.227,6.089,5.41,9.045c2.272,3.074,4.83,5.893,7.555,8.375l7.602-3.396
			C50.593,72.706,47.736,69.84,45.322,66.559z"/>
		<g>
			<path style="fill:#FFEFED;" d="M55.871,54.104l-9.107,9.107c-5.374-5.379-10.255-13.502-7.326-16.429
				C41.958,44.275,49.304,47.548,55.871,54.104z"/>
		</g>
		<path style="fill:#E54B44;" d="M38.651,48.37l-5.611,12.562c1.406,3.037,3.227,6.089,5.41,9.045
			c0.219,0.296,0.453,0.578,0.677,0.87l5.413-5.413c-3.102-4.502-4.994-9.181-5.416-13.395C38.64,50.653,38.454,49.397,38.651,48.37
			z"/>
	</g>
</g>
<g id="R-Red" style="display:none;">
	<circle style="display:inline;fill:#FABBAF;" cx="55.125" cy="55" r="55"/>
	<g style="display:inline;">
		<g>
			<g>
				<path style="fill:#FFEFED;" d="M23.263,83.047c0.207-0.462,12.791-28.594,15.514-34.681c-0.702,3.651,3.525,10.256,8.125,14.856
					c5.591,5.591,11.866,8.87,15.116,8.034c-5.634,2.522-34.503,15.41-34.939,15.605c-0.798,0.366-2.002-0.018-2.896-0.92
					C23.28,85.049,22.897,83.845,23.263,83.047z"/>
			</g>
		</g>
		<g>
			<path style="fill:#FFFFFF;" d="M23.263,83.047c0.207-0.462,12.791-28.593,15.514-34.681c-0.701,3.647,3.517,10.244,8.112,14.844
				L24.171,85.929C23.278,85.036,22.899,83.841,23.263,83.047z"/>
		</g>
		<g>
			<g>
				<circle style="fill:#7D261E;" cx="46.125" cy="37" r="2"/>
			</g>
		</g>
		<g>
			<g>
				<circle style="fill:#7D261E;" cx="62.125" cy="41" r="2"/>
			</g>
		</g>
		<g>
			<g>
				<circle style="fill:#FFEFED;" cx="81.125" cy="49" r="2"/>
			</g>
		</g>
		<g>
			<g>
				<circle style="fill:#FFEFED;" cx="82.125" cy="71" r="2"/>
			</g>
		</g>
		<g>
			<g>
				<circle style="fill:#C23023;" cx="59.125" cy="27" r="2"/>
			</g>
		</g>
		<g>
			<g>
				<polygon style="fill:#FFEFED;" points="73.003,26.652 69.05,28.666 65.913,25.529 66.607,29.911 62.655,31.925 67.036,32.618 
					67.731,37 69.744,33.048 74.126,33.741 70.989,30.604 				"/>
			</g>
		</g>
		<g>
			<g>
				<polygon style="fill:#7D261E;" points="72.16,60 71.208,62.932 68.126,62.932 70.619,64.588 69.667,67.442 72.16,65.591 
					74.654,67.384 73.702,64.598 76.196,62.932 73.113,62.932 				"/>
			</g>
		</g>
		<g>
			<g>
				<path style="fill:#4A1410;" d="M65.126,50c9.961,0,12.055-6.333,13.737-11.421c1.4-4.234,2.506-7.579,7.263-7.579
					c0.552,0,1-0.448,1-1s-0.448-1-1-1c-6.201,0-7.706,4.551-9.162,8.951C75.255,43.119,73.641,48,65.126,48c-0.552,0-1,0.448-1,1
					S64.573,50,65.126,50z"/>
			</g>
		</g>
		<g>
			<g>
				<path style="fill:#4A1410;" d="M51.751,43.78c7.008-5.606,4.519-9.359,2.112-12.99c-1.346-2.029-2.737-4.127-2.737-6.79
					c0-0.552-0.448-1-1-1s-1,0.448-1,1c0,3.267,1.631,5.726,3.07,7.896c2.34,3.528,3.886,5.859-1.695,10.324
					c-0.431,0.345-0.501,0.974-0.156,1.405C50.692,44.059,51.322,44.124,51.751,43.78z"/>
			</g>
		</g>
		<g>
			<g>
				<path style="fill:#C23023;" d="M86.126,62c0.552,0,1-0.448,1-1s-0.448-1-1-1c-2.858,0-5.139-1.521-7.345-2.991
					c-3.562-2.375-7.246-4.832-12.362,0.284c-0.39,0.391-0.39,1.023,0,1.414c0.391,0.391,1.024,0.391,1.414,0
					c3.957-3.956,6.297-2.396,9.839-0.035C80.01,60.231,82.662,62,86.126,62z"/>
			</g>
		</g>
		<g>
			<g>
				<path style="fill:#C23023;" d="M39.346,81.352c-9.117,4.109,1.859-0.816-7.266,3.274c-2.222-2.307-4.326-4.776-6.222-7.381
					c1.062-2.375,2.356-5.268,3.716-8.307C32.199,73.57,35.537,77.784,39.346,81.352z"/>
			</g>
		</g>
		<g>
			<path style="fill:#E54B44;" d="M34.259,75.84l-5.316,5.317c-1.075-1.267-2.108-2.57-3.084-3.912
				c1.062-2.375,2.356-5.269,3.716-8.307C30.95,71.366,32.526,73.675,34.259,75.84z"/>
		</g>
		<g>
			<path style="fill:#FFD7D4;" d="M46.902,63.223c6.48,6.479,13.889,9.868,16.428,7.325c2.519-2.519-0.767-9.87-7.327-16.44
				c-6.569-6.56-13.918-9.834-16.439-7.327C36.632,49.711,41.523,57.845,46.902,63.223z"/>
		</g>
		<path style="fill:#C23023;" d="M45.447,66.558c-3.574-4.837-5.737-9.945-6.194-14.51c-0.487-1.39-0.674-2.649-0.476-3.679
			l-5.611,12.562c1.406,3.037,3.227,6.089,5.41,9.045c2.272,3.074,4.83,5.893,7.555,8.375l7.602-3.397
			C50.719,72.705,47.861,69.839,45.447,66.558z"/>
		<g>
			<path style="fill:#FFEFED;" d="M55.997,54.103l-9.107,9.107c-5.374-5.379-10.255-13.502-7.326-16.429
				C42.084,44.274,49.429,47.547,55.997,54.103z"/>
		</g>
		<path style="fill:#E54B44;" d="M38.777,48.369l-5.611,12.562c1.406,3.037,3.227,6.089,5.41,9.045
			c0.219,0.296,0.453,0.578,0.677,0.87l5.413-5.413c-3.102-4.502-4.994-9.181-5.416-13.395
			C38.766,50.652,38.58,49.396,38.777,48.369z"/>
	</g>
</g>
<g id="Yellow" style="display:none;">
	<g style="display:inline;">
		<g>
			<g>
				<path style="fill:#FFF5D9;" d="M23.138,83.048c0.207-0.462,12.791-28.594,15.514-34.681c-0.702,3.651,3.525,10.256,8.125,14.857
					c5.591,5.591,11.866,8.87,15.116,8.034c-5.634,2.522-34.503,15.41-34.939,15.605c-0.798,0.366-2.002-0.018-2.896-0.92
					C23.155,85.05,22.771,83.846,23.138,83.048z"/>
			</g>
		</g>
		<g>
			<path style="fill:#FFFFFF;" d="M23.138,83.048c0.207-0.462,12.791-28.593,15.514-34.681c-0.701,3.648,3.517,10.244,8.112,14.844
				L24.045,85.93C23.152,85.037,22.773,83.842,23.138,83.048z"/>
		</g>
		<g>
			<g>
				<circle style="fill:#66510D;" cx="46" cy="37.001" r="2"/>
			</g>
		</g>
		<g>
			<g>
				<circle style="fill:#66510D;" cx="62" cy="41.001" r="2"/>
			</g>
		</g>
		<g>
			<g>
				<circle style="fill:#FFF5D9;" cx="81" cy="49.001" r="2"/>
			</g>
		</g>
		<g>
			<g>
				<circle style="fill:#FFF5D9;" cx="82" cy="71.001" r="2"/>
			</g>
		</g>
		<g>
			<g>
				<circle style="fill:#E07000;" cx="59" cy="27.001" r="2"/>
			</g>
		</g>
		<g>
			<g>
				<polygon style="fill:#FFF5D9;" points="72.877,26.653 68.925,28.667 65.788,25.53 66.482,29.912 62.529,31.926 66.911,32.619 
					67.605,37.001 69.619,33.049 74,33.742 70.863,30.606 				"/>
			</g>
		</g>
		<g>
			<g>
				<polygon style="fill:#66510D;" points="72.035,60.001 71.082,62.933 68,62.933 70.494,64.589 69.541,67.443 72.035,65.592 
					74.529,67.385 73.576,64.599 76.07,62.933 72.987,62.933 				"/>
			</g>
		</g>
		<g>
			<g>
				<path style="fill:#3D320C;" d="M65,50.001c9.961,0,12.055-6.333,13.737-11.421c1.4-4.234,2.506-7.579,7.263-7.579
					c0.552,0,1-0.448,1-1s-0.448-1-1-1c-6.201,0-7.707,4.551-9.162,8.951C75.129,43.12,73.516,48.001,65,48.001
					c-0.552,0-1,0.448-1,1S64.448,50.001,65,50.001z"/>
			</g>
		</g>
		<g>
			<g>
				<path style="fill:#3D320C;" d="M51.625,43.781c7.008-5.606,4.519-9.359,2.112-12.99C52.391,28.762,51,26.664,51,24.001
					c0-0.552-0.448-1-1-1c-0.552,0-1,0.448-1,1c0,3.267,1.631,5.726,3.07,7.896c2.34,3.528,3.886,5.859-1.695,10.324
					c-0.431,0.345-0.502,0.974-0.156,1.405C50.566,44.06,51.196,44.125,51.625,43.781z"/>
			</g>
		</g>
		<g>
			<g>
				<path style="fill:#E07000;" d="M86,62.001c0.552,0,1-0.448,1-1s-0.448-1-1-1c-2.858,0-5.139-1.52-7.345-2.991
					c-3.562-2.375-7.246-4.832-12.362,0.284c-0.39,0.391-0.39,1.023,0,1.414c0.391,0.391,1.024,0.391,1.414,0
					c3.957-3.956,6.297-2.396,9.839-0.035C79.885,60.232,82.536,62.001,86,62.001z"/>
			</g>
		</g>
		<g>
			<g>
				<path style="fill:#E07000;" d="M39.221,81.353c-9.117,4.109,1.859-0.815-7.266,3.274c-2.222-2.307-4.326-4.776-6.222-7.381
					c1.062-2.375,2.356-5.268,3.716-8.307C32.074,73.571,35.412,77.785,39.221,81.353z"/>
			</g>
		</g>
		<g>
			<path style="fill:#FA9200;" d="M34.133,75.841l-5.316,5.317c-1.075-1.267-2.108-2.57-3.084-3.912
				c1.062-2.375,2.356-5.269,3.716-8.307C30.825,71.367,32.4,73.676,34.133,75.841z"/>
		</g>
		<g>
			<path style="fill:#FFE9A1;" d="M46.777,63.224c6.48,6.479,13.889,9.868,16.428,7.325c2.519-2.519-0.767-9.87-7.327-16.44
				c-6.569-6.56-13.918-9.834-16.439-7.327C36.506,49.712,41.398,57.846,46.777,63.224z"/>
		</g>
		<path style="fill:#E07000;" d="M45.322,66.559c-3.574-4.837-5.737-9.945-6.194-14.51c-0.487-1.39-0.674-2.649-0.476-3.679
			l-5.611,12.562c1.406,3.037,3.227,6.089,5.41,9.045c2.272,3.074,4.83,5.893,7.555,8.375l7.602-3.397
			C50.593,72.706,47.736,69.84,45.322,66.559z"/>
		<g>
			<path style="fill:#FFF5D9;" d="M55.871,54.104l-9.107,9.107c-5.374-5.379-10.255-13.502-7.326-16.429
				C41.958,44.275,49.304,47.548,55.871,54.104z"/>
		</g>
		<path style="fill:#FA9200;" d="M38.651,48.37l-5.611,12.562c1.406,3.037,3.227,6.089,5.41,9.045
			c0.219,0.296,0.453,0.578,0.677,0.87l5.413-5.413c-3.102-4.502-4.994-9.181-5.416-13.395C38.64,50.653,38.454,49.397,38.651,48.37
			z"/>
	</g>
</g>
<g id="R-Yellow" style="display:none;">
	<circle style="display:inline;fill:#FFD75E;" cx="55.125" cy="55" r="55"/>
	<g style="display:inline;">
		<g>
			<g>
				<path style="fill:#FFF5D9;" d="M23.263,83.047c0.207-0.462,12.791-28.594,15.514-34.681c-0.702,3.651,3.525,10.256,8.125,14.856
					c5.591,5.591,11.866,8.87,15.116,8.034c-5.634,2.521-34.503,15.41-34.939,15.605c-0.798,0.366-2.002-0.018-2.896-0.92
					C23.28,85.049,22.897,83.845,23.263,83.047z"/>
			</g>
		</g>
		<g>
			<path style="fill:#FFFFFF;" d="M23.263,83.047c0.207-0.462,12.791-28.593,15.514-34.681c-0.701,3.647,3.517,10.244,8.112,14.844
				L24.171,85.929C23.278,85.036,22.899,83.841,23.263,83.047z"/>
		</g>
		<g>
			<g>
				<circle style="fill:#66510D;" cx="46.125" cy="37" r="2"/>
			</g>
		</g>
		<g>
			<g>
				<circle style="fill:#66510D;" cx="62.125" cy="41" r="2"/>
			</g>
		</g>
		<g>
			<g>
				<circle style="fill:#FFF5D9;" cx="81.125" cy="49" r="2"/>
			</g>
		</g>
		<g>
			<g>
				<circle style="fill:#FFF5D9;" cx="82.125" cy="71" r="2"/>
			</g>
		</g>
		<g>
			<g>
				<circle style="fill:#E07000;" cx="59.125" cy="27" r="2"/>
			</g>
		</g>
		<g>
			<g>
				<polygon style="fill:#FFF5D9;" points="73.003,26.652 69.05,28.666 65.913,25.529 66.607,29.911 62.655,31.925 67.036,32.618 
					67.73,37 69.744,33.048 74.126,33.741 70.989,30.604 				"/>
			</g>
		</g>
		<g>
			<g>
				<polygon style="fill:#66510D;" points="72.16,60 71.208,62.932 68.126,62.932 70.619,64.588 69.667,67.442 72.16,65.591 
					74.654,67.384 73.702,64.598 76.196,62.932 73.113,62.932 				"/>
			</g>
		</g>
		<g>
			<g>
				<path style="fill:#3D320C;" d="M65.126,50c9.961,0,12.055-6.333,13.737-11.421c1.4-4.234,2.506-7.579,7.263-7.579
					c0.552,0,1-0.448,1-1s-0.448-1-1-1c-6.201,0-7.707,4.551-9.162,8.951C75.255,43.119,73.641,48,65.126,48c-0.552,0-1,0.448-1,1
					S64.573,50,65.126,50z"/>
			</g>
		</g>
		<g>
			<g>
				<path style="fill:#3D320C;" d="M51.75,43.78c7.008-5.606,4.519-9.359,2.112-12.99c-1.346-2.029-2.737-4.127-2.737-6.79
					c0-0.552-0.448-1-1-1s-1,0.448-1,1c0,3.267,1.631,5.726,3.07,7.896c2.34,3.528,3.886,5.859-1.695,10.324
					c-0.431,0.345-0.501,0.974-0.156,1.405C50.692,44.059,51.322,44.124,51.75,43.78z"/>
			</g>
		</g>
		<g>
			<g>
				<path style="fill:#E07000;" d="M86.126,62c0.552,0,1-0.448,1-1s-0.448-1-1-1c-2.858,0-5.139-1.521-7.345-2.991
					c-3.562-2.375-7.246-4.832-12.362,0.284c-0.39,0.391-0.39,1.023,0,1.414c0.391,0.391,1.024,0.391,1.414,0
					c3.957-3.956,6.297-2.396,9.839-0.035C80.01,60.231,82.662,62,86.126,62z"/>
			</g>
		</g>
		<g>
			<g>
				<path style="fill:#E07000;" d="M39.346,81.352c-9.117,4.109,1.859-0.815-7.266,3.274c-2.222-2.307-4.326-4.776-6.222-7.381
					c1.062-2.375,2.356-5.268,3.716-8.307C32.199,73.57,35.537,77.784,39.346,81.352z"/>
			</g>
		</g>
		<g>
			<path style="fill:#FA9200;" d="M34.259,75.84l-5.316,5.317c-1.075-1.267-2.108-2.57-3.084-3.912
				c1.062-2.375,2.356-5.269,3.716-8.307C30.95,71.366,32.526,73.675,34.259,75.84z"/>
		</g>
		<g>
			<path style="fill:#FFE9A1;" d="M46.902,63.223c6.48,6.479,13.889,9.868,16.428,7.325c2.52-2.519-0.767-9.87-7.327-16.439
				c-6.569-6.56-13.918-9.834-16.439-7.327C36.632,49.711,41.523,57.845,46.902,63.223z"/>
		</g>
		<path style="fill:#E07000;" d="M45.447,66.558c-3.574-4.837-5.737-9.945-6.194-14.51c-0.487-1.39-0.674-2.649-0.476-3.679
			l-5.611,12.562c1.406,3.037,3.227,6.089,5.41,9.045c2.273,3.074,4.83,5.893,7.555,8.375l7.602-3.396
			C50.719,72.705,47.861,69.839,45.447,66.558z"/>
		<g>
			<path style="fill:#FFF5D9;" d="M55.997,54.103l-9.107,9.107c-5.374-5.379-10.255-13.502-7.326-16.429
				C42.083,44.274,49.429,47.547,55.997,54.103z"/>
		</g>
		<path style="fill:#FA9200;" d="M38.777,48.369l-5.611,12.562c1.406,3.037,3.227,6.089,5.41,9.045
			c0.219,0.296,0.453,0.578,0.677,0.87l5.413-5.413c-3.102-4.502-4.994-9.181-5.416-13.395
			C38.766,50.652,38.58,49.396,38.777,48.369z"/>
	</g>
</g>
</svg>
