<?xml version="1.0" encoding="iso-8859-1"?>
<!-- Generator: Adobe Illustrator 17.1.0, SVG Export Plug-In . SVG Version: 6.00 Build 0)  -->
<!DOCTYPE svg PUBLIC "-//W3C//DTD SVG 1.0//EN" "http://www.w3.org/TR/2001/REC-SVG-20010904/DTD/svg10.dtd">
<svg version="1.0" xmlns="http://www.w3.org/2000/svg" xmlns:xlink="http://www.w3.org/1999/xlink" x="0px" y="0px" width="110px"
	 height="110px" viewBox="0 0 110 110" style="enable-background:new 0 0 110 110;" xml:space="preserve">
<g id="Artboard" style="display:none;">
	<rect x="-1223" y="-53" style="display:inline;fill:#898989;" width="1374" height="578"/>
</g>
<g id="R-Multicolor" style="display:none;">
	<circle style="display:inline;fill:#FABC3D;" cx="55" cy="55" r="55"/>
	<g style="display:inline;">
		<rect x="41" y="43" style="fill:#6FDAF1;" width="28" height="35"/>
		<polygon style="fill:#9CE5F4;" points="41,76.381 69,48.381 69,43 41,43 		"/>
		<path style="fill:#DF2C2C;" d="M33,33.671V39v8.444V83h44V47.444V39v-5.329C64.807,25.958,45.193,25.958,33,33.671z M48,78h-7V68
			h7V78z M48,66h-7V56h7V66z M48,54h-7V43h7V54z M60,78H50V68h10V78z M60,66H50V56h10V66z M60,54H50V43h10V54z M69,78h-7V68h7V78z
			 M69,66h-7V56h7V66z M69,54h-7V43h7V54z"/>
		<path style="fill:#BF0302;" d="M31.429,29.826C31.161,30.013,31,30.32,31,30.647v2.457c0,0.368,0.202,0.706,0.526,0.88
			c0.324,0.174,0.717,0.156,1.024-0.046c12.3-8.089,32.6-8.089,44.901,0c0.307,0.202,0.7,0.219,1.024,0.045
			C78.798,33.809,79,33.471,79,33.104v-2.457c0-0.327-0.16-0.634-0.429-0.821C65.524,20.725,44.476,20.725,31.429,29.826z"/>
		<rect x="41" y="33" style="fill:#FFFFFF;" width="28" height="7"/>
		<g>
			<path style="fill:#3E3E3F;" d="M44.879,34.419h1.831c1.119,0,1.675,0.809,1.675,1.617c0,0.815-0.562,1.624-1.669,1.624h-0.679V39
				h-1.158V34.419z M46.71,36.632c0.699,0.007,0.699-1.139,0-1.132h-0.673v1.132H46.71z"/>
			<path style="fill:#3E3E3F;" d="M50.043,39h-1.165v-4.581h1.165v1.734h1.32v-1.734h1.165V39h-1.165v-1.728h-1.32V39z"/>
			<path style="fill:#3E3E3F;" d="M53.144,35.927c0-1.054,0.944-1.572,1.896-1.572s1.902,0.524,1.902,1.572v1.566
				c0,1.048-0.945,1.572-1.896,1.572c-0.951,0-1.902-0.524-1.902-1.572V35.927z M54.302,37.493c0,0.336,0.375,0.498,0.744,0.498
				s0.738-0.168,0.738-0.498v-1.566c0-0.356-0.382-0.518-0.757-0.518c-0.362,0-0.725,0.181-0.725,0.518V37.493z"/>
			<path style="fill:#3E3E3F;" d="M57.557,34.419h1.1l1.106,1.954l0.388,0.919l0.033-0.006c-0.007,0-0.123-0.79-0.13-0.79v-2.077
				h1.152V39h-1.171L59,37.195l-0.401-0.918l-0.032,0.006l0.149,0.886V39h-1.158V34.419z"/>
			<path style="fill:#3E3E3F;" d="M63.102,36.218h1.857v1.003h-1.857v0.686h2.019V39h-3.189v-4.581h3.189v1.087h-2.019V36.218z"/>
		</g>
		<path style="fill:#3E3E3F;" d="M79,87H31v-2c0-1.105,0.895-2,2-2h44c1.105,0,2,0.895,2,2V87z"/>
	</g>
</g>
<g id="Multicolor_1_">
	<g>
		<rect x="41" y="43" style="fill:#6FDAF1;" width="28" height="35"/>
		<polygon style="fill:#9CE5F4;" points="41,76.381 69,48.381 69,43 41,43 		"/>
		<path style="fill:#DF2C2C;" d="M33,33.671V39v8.444V83h44V47.444V39v-5.329C64.807,25.958,45.193,25.958,33,33.671z M48,78h-7V68
			h7V78z M48,66h-7V56h7V66z M48,54h-7V43h7V54z M60,78H50V68h10V78z M60,66H50V56h10V66z M60,54H50V43h10V54z M69,78h-7V68h7V78z
			 M69,66h-7V56h7V66z M69,54h-7V43h7V54z"/>
		<path style="fill:#BF0302;" d="M31.429,29.826C31.161,30.013,31,30.32,31,30.647v2.457c0,0.368,0.202,0.706,0.526,0.88
			c0.324,0.174,0.717,0.156,1.024-0.046c12.3-8.089,32.6-8.089,44.901,0c0.307,0.202,0.7,0.219,1.024,0.045
			C78.798,33.809,79,33.471,79,33.104v-2.457c0-0.327-0.16-0.634-0.429-0.821C65.524,20.725,44.476,20.725,31.429,29.826z"/>
		<rect x="41" y="33" style="fill:#FFFFFF;" width="28" height="7"/>
		<g>
			<path style="fill:#3E3E3F;" d="M44.879,34.419h1.831c1.119,0,1.675,0.809,1.675,1.617c0,0.815-0.562,1.624-1.669,1.624h-0.679V39
				h-1.158V34.419z M46.71,36.632c0.699,0.007,0.699-1.139,0-1.132h-0.673v1.132H46.71z"/>
			<path style="fill:#3E3E3F;" d="M50.043,39h-1.165v-4.581h1.165v1.734h1.32v-1.734h1.165V39h-1.165v-1.728h-1.32V39z"/>
			<path style="fill:#3E3E3F;" d="M53.144,35.927c0-1.054,0.944-1.572,1.896-1.572s1.902,0.524,1.902,1.572v1.566
				c0,1.048-0.945,1.572-1.896,1.572c-0.951,0-1.902-0.524-1.902-1.572V35.927z M54.302,37.493c0,0.336,0.375,0.498,0.744,0.498
				s0.738-0.168,0.738-0.498v-1.566c0-0.356-0.382-0.518-0.757-0.518c-0.362,0-0.725,0.181-0.725,0.518V37.493z"/>
			<path style="fill:#3E3E3F;" d="M57.557,34.419h1.1l1.106,1.954l0.388,0.919l0.033-0.006c-0.007,0-0.123-0.79-0.13-0.79v-2.077
				h1.152V39h-1.171L59,37.195l-0.401-0.918l-0.032,0.006l0.149,0.886V39h-1.158V34.419z"/>
			<path style="fill:#3E3E3F;" d="M63.102,36.218h1.857v1.003h-1.857v0.686h2.019V39h-3.189v-4.581h3.189v1.087h-2.019V36.218z"/>
		</g>
		<path style="fill:#3E3E3F;" d="M79,87H31v-2c0-1.105,0.895-2,2-2h44c1.105,0,2,0.895,2,2V87z"/>
	</g>
</g>
<g id="Blue" style="display:none;">
	<g style="display:inline;">
		<g>
			<rect x="41" y="43" style="fill:#009FC7;" width="28" height="35"/>
		</g>
		<g>
			<polygon style="fill:#00B7E5;" points="41,76.381 69,48.381 69,43 41,43 			"/>
		</g>
		<g>
			<path style="fill:#0F6175;" d="M33,33.671V39v8.444V83h44V47.444V39v-5.329C64.807,25.958,45.193,25.958,33,33.671z M48,78h-7V68
				h7V78z M48,66h-7V56h7V66z M48,54h-7V43h7V54z M60,78H50V68h10V78z M60,66H50V56h10V66z M60,54H50V43h10V54z M69,78h-7V68h7V78z
				 M69,66h-7V56h7V66z M69,54h-7V43h7V54z"/>
		</g>
		<g>
			<path style="fill:#0C333D;" d="M31.429,29.826C31.161,30.013,31,30.32,31,30.647v2.457c0,0.368,0.202,0.706,0.525,0.88
				c0.324,0.174,0.717,0.157,1.024-0.045c12.3-8.089,32.601-8.089,44.9,0c0.308,0.202,0.7,0.219,1.024,0.044
				C78.798,33.809,79,33.471,79,33.104v-2.457c0-0.327-0.16-0.634-0.429-0.821C65.523,20.725,44.477,20.725,31.429,29.826z"/>
		</g>
		<g>
			<rect x="41" y="33" style="fill:#FFFFFF;" width="28" height="7"/>
		</g>
		<g>
			<g>
				<path style="fill:#0081A1;" d="M44.879,34.419h1.831c1.119,0,1.675,0.808,1.675,1.618c0,0.815-0.562,1.623-1.669,1.623h-0.679
					V39h-1.158V34.419z M46.71,36.632c0.699,0.006,0.699-1.139,0-1.132h-0.673v1.132H46.71z"/>
			</g>
			<g>
				<path style="fill:#0081A1;" d="M50.043,39h-1.165v-4.581h1.165v1.734h1.32v-1.734h1.165V39h-1.165v-1.727h-1.32V39z"/>
			</g>
			<g>
				<path style="fill:#0081A1;" d="M53.144,35.927c0-1.054,0.944-1.572,1.896-1.572c0.951,0,1.902,0.524,1.902,1.572v1.566
					c0,1.048-0.945,1.572-1.896,1.572c-0.951,0-1.902-0.524-1.902-1.572V35.927z M54.302,37.493c0,0.336,0.375,0.498,0.744,0.498
					c0.369,0,0.738-0.168,0.738-0.498v-1.566c0-0.356-0.382-0.518-0.757-0.518c-0.362,0-0.725,0.181-0.725,0.518V37.493z"/>
			</g>
			<g>
				<path style="fill:#0081A1;" d="M57.557,34.419h1.1l1.106,1.954l0.388,0.918l0.033-0.006c-0.007,0-0.123-0.79-0.13-0.79v-2.077
					h1.152V39h-1.171L59,37.195l-0.401-0.918l-0.032,0.006l0.149,0.886V39h-1.158V34.419z"/>
			</g>
			<g>
				<path style="fill:#0081A1;" d="M63.102,36.218h1.857v1.003h-1.857v0.686h2.018V39h-3.189v-4.581h3.189v1.087h-2.018V36.218z"/>
			</g>
		</g>
		<g>
			<path style="fill:#0C333D;" d="M79,87H31v-2c0-1.104,0.896-2,2-2h44c1.104,0,2,0.896,2,2V87z"/>
		</g>
	</g>
</g>
<g id="R-Blue" style="display:none;">
	<g style="display:inline;">
		<circle style="fill:#81D2EB;" cx="55" cy="55" r="55"/>
	</g>
	<g style="display:inline;">
		<g>
			<rect x="41" y="43" style="fill:#009FC7;" width="28" height="35"/>
		</g>
		<g>
			<polygon style="fill:#00B7E5;" points="41,76.381 69,48.381 69,43 41,43 			"/>
		</g>
		<g>
			<path style="fill:#0F6175;" d="M33,33.671V39v8.444V83h44V47.444V39v-5.329C64.807,25.958,45.193,25.958,33,33.671z M48,78h-7V68
				h7V78z M48,66h-7V56h7V66z M48,54h-7V43h7V54z M60,78H50V68h10V78z M60,66H50V56h10V66z M60,54H50V43h10V54z M69,78h-7V68h7V78z
				 M69,66h-7V56h7V66z M69,54h-7V43h7V54z"/>
		</g>
		<g>
			<path style="fill:#0C333D;" d="M31.429,29.826C31.161,30.013,31,30.32,31,30.647v2.457c0,0.368,0.202,0.706,0.525,0.88
				c0.324,0.174,0.717,0.157,1.024-0.045c12.3-8.089,32.601-8.089,44.9,0c0.308,0.202,0.7,0.219,1.024,0.044
				C78.798,33.809,79,33.471,79,33.104v-2.457c0-0.327-0.16-0.634-0.429-0.821C65.523,20.725,44.477,20.725,31.429,29.826z"/>
		</g>
		<g>
			<rect x="41" y="33" style="fill:#FFFFFF;" width="28" height="7"/>
		</g>
		<g>
			<g>
				<path style="fill:#0081A1;" d="M44.879,34.419h1.831c1.119,0,1.675,0.808,1.675,1.618c0,0.815-0.562,1.623-1.669,1.623h-0.679
					V39h-1.158V34.419z M46.71,36.632c0.699,0.006,0.699-1.139,0-1.132h-0.673v1.132H46.71z"/>
			</g>
			<g>
				<path style="fill:#0081A1;" d="M50.043,39h-1.165v-4.581h1.165v1.734h1.32v-1.734h1.165V39h-1.165v-1.727h-1.32V39z"/>
			</g>
			<g>
				<path style="fill:#0081A1;" d="M53.144,35.927c0-1.054,0.944-1.572,1.896-1.572c0.951,0,1.902,0.524,1.902,1.572v1.566
					c0,1.048-0.945,1.572-1.896,1.572c-0.951,0-1.902-0.524-1.902-1.572V35.927z M54.302,37.493c0,0.336,0.375,0.498,0.744,0.498
					c0.369,0,0.738-0.168,0.738-0.498v-1.566c0-0.356-0.382-0.518-0.757-0.518c-0.362,0-0.725,0.181-0.725,0.518V37.493z"/>
			</g>
			<g>
				<path style="fill:#0081A1;" d="M57.557,34.419h1.1l1.106,1.954l0.388,0.918l0.033-0.006c-0.007,0-0.123-0.79-0.13-0.79v-2.077
					h1.152V39h-1.171L59,37.195l-0.401-0.918l-0.032,0.006l0.149,0.886V39h-1.158V34.419z"/>
			</g>
			<g>
				<path style="fill:#0081A1;" d="M63.102,36.218h1.857v1.003h-1.857v0.686h2.018V39h-3.189v-4.581h3.189v1.087h-2.018V36.218z"/>
			</g>
		</g>
		<g>
			<path style="fill:#0C333D;" d="M79,87H31v-2c0-1.104,0.896-2,2-2h44c1.104,0,2,0.896,2,2V87z"/>
		</g>
	</g>
</g>
<g id="Green" style="display:none;">
	<g style="display:inline;">
		<g>
			<rect x="41" y="43" style="fill:#00B8A5;" width="28" height="35"/>
		</g>
		<g>
			<polygon style="fill:#00D6C1;" points="41,76.381 69,48.381 69,43 41,43 			"/>
		</g>
		<g>
			<path style="fill:#14635B;" d="M33,33.671V39v8.444V83h44V47.444V39v-5.329C64.807,25.958,45.193,25.958,33,33.671z M48,78h-7V68
				h7V78z M48,66h-7V56h7V66z M48,54h-7V43h7V54z M60,78H50V68h10V78z M60,66H50V56h10V66z M60,54H50V43h10V54z M69,78h-7V68h7V78z
				 M69,66h-7V56h7V66z M69,54h-7V43h7V54z"/>
		</g>
		<g>
			<path style="fill:#0A3631;" d="M31.429,29.826C31.161,30.013,31,30.32,31,30.647v2.457c0,0.368,0.202,0.706,0.525,0.88
				c0.324,0.174,0.717,0.157,1.024-0.045c12.3-8.089,32.601-8.089,44.9,0c0.308,0.202,0.7,0.219,1.024,0.044
				C78.798,33.809,79,33.471,79,33.104v-2.457c0-0.327-0.16-0.634-0.429-0.821C65.523,20.725,44.477,20.725,31.429,29.826z"/>
		</g>
		<g>
			<rect x="41" y="33" style="fill:#FFFFFF;" width="28" height="7"/>
		</g>
		<g>
			<g>
				<path style="fill:#009687;" d="M44.879,34.419h1.831c1.119,0,1.675,0.808,1.675,1.618c0,0.815-0.562,1.623-1.669,1.623h-0.679
					V39h-1.158V34.419z M46.71,36.632c0.699,0.006,0.699-1.139,0-1.132h-0.673v1.132H46.71z"/>
			</g>
			<g>
				<path style="fill:#009687;" d="M50.043,39h-1.165v-4.581h1.165v1.734h1.32v-1.734h1.165V39h-1.165v-1.727h-1.32V39z"/>
			</g>
			<g>
				<path style="fill:#009687;" d="M53.144,35.927c0-1.054,0.944-1.572,1.896-1.572c0.951,0,1.902,0.524,1.902,1.572v1.566
					c0,1.048-0.945,1.572-1.896,1.572c-0.951,0-1.902-0.524-1.902-1.572V35.927z M54.302,37.493c0,0.336,0.375,0.498,0.744,0.498
					c0.369,0,0.738-0.168,0.738-0.498v-1.566c0-0.356-0.382-0.518-0.757-0.518c-0.362,0-0.725,0.181-0.725,0.518V37.493z"/>
			</g>
			<g>
				<path style="fill:#009687;" d="M57.557,34.419h1.1l1.106,1.954l0.388,0.918l0.033-0.006c-0.007,0-0.123-0.79-0.13-0.79v-2.077
					h1.152V39h-1.171L59,37.195l-0.401-0.918l-0.032,0.006l0.149,0.886V39h-1.158V34.419z"/>
			</g>
			<g>
				<path style="fill:#009687;" d="M63.102,36.218h1.857v1.003h-1.857v0.686h2.018V39h-3.189v-4.581h3.189v1.087h-2.018V36.218z"/>
			</g>
		</g>
		<g>
			<path style="fill:#0A3631;" d="M79,87H31v-2c0-1.104,0.896-2,2-2h44c1.104,0,2,0.896,2,2V87z"/>
		</g>
	</g>
</g>
<g id="R-Green" style="display:none;">
	<g style="display:inline;">
		<circle style="fill:#87E0C8;" cx="55" cy="55" r="55"/>
	</g>
	<g style="display:inline;">
		<g>
			<rect x="41" y="43" style="fill:#00B8A5;" width="28" height="35"/>
		</g>
		<g>
			<polygon style="fill:#00D6C1;" points="41,76.381 69,48.381 69,43 41,43 			"/>
		</g>
		<g>
			<path style="fill:#14635B;" d="M33,33.671V39v8.444V83h44V47.444V39v-5.329C64.807,25.958,45.193,25.958,33,33.671z M48,78h-7V68
				h7V78z M48,66h-7V56h7V66z M48,54h-7V43h7V54z M60,78H50V68h10V78z M60,66H50V56h10V66z M60,54H50V43h10V54z M69,78h-7V68h7V78z
				 M69,66h-7V56h7V66z M69,54h-7V43h7V54z"/>
		</g>
		<g>
			<path style="fill:#0A3631;" d="M31.429,29.826C31.161,30.013,31,30.32,31,30.647v2.457c0,0.368,0.202,0.706,0.525,0.88
				c0.324,0.174,0.717,0.157,1.024-0.045c12.3-8.089,32.601-8.089,44.9,0c0.308,0.202,0.7,0.219,1.024,0.044
				C78.798,33.809,79,33.471,79,33.104v-2.457c0-0.327-0.16-0.634-0.429-0.821C65.523,20.725,44.477,20.725,31.429,29.826z"/>
		</g>
		<g>
			<rect x="41" y="33" style="fill:#FFFFFF;" width="28" height="7"/>
		</g>
		<g>
			<g>
				<path style="fill:#009687;" d="M44.879,34.419h1.831c1.119,0,1.675,0.808,1.675,1.618c0,0.815-0.562,1.623-1.669,1.623h-0.679
					V39h-1.158V34.419z M46.71,36.632c0.699,0.006,0.699-1.139,0-1.132h-0.673v1.132H46.71z"/>
			</g>
			<g>
				<path style="fill:#009687;" d="M50.043,39h-1.165v-4.581h1.165v1.734h1.32v-1.734h1.165V39h-1.165v-1.727h-1.32V39z"/>
			</g>
			<g>
				<path style="fill:#009687;" d="M53.144,35.927c0-1.054,0.944-1.572,1.896-1.572c0.951,0,1.902,0.524,1.902,1.572v1.566
					c0,1.048-0.945,1.572-1.896,1.572c-0.951,0-1.902-0.524-1.902-1.572V35.927z M54.302,37.493c0,0.336,0.375,0.498,0.744,0.498
					c0.369,0,0.738-0.168,0.738-0.498v-1.566c0-0.356-0.382-0.518-0.757-0.518c-0.362,0-0.725,0.181-0.725,0.518V37.493z"/>
			</g>
			<g>
				<path style="fill:#009687;" d="M57.557,34.419h1.1l1.106,1.954l0.388,0.918l0.033-0.006c-0.007,0-0.123-0.79-0.13-0.79v-2.077
					h1.152V39h-1.171l-1.035-1.805l-0.401-0.918l-0.032,0.006l0.149,0.886V39h-1.158V34.419z"/>
			</g>
			<g>
				<path style="fill:#009687;" d="M63.102,36.218h1.857v1.003h-1.857v0.686h2.019V39h-3.189v-4.581h3.189v1.087h-2.019V36.218z"/>
			</g>
		</g>
		<g>
			<path style="fill:#0A3631;" d="M79,87H31v-2c0-1.104,0.896-2,2-2h44c1.104,0,2,0.896,2,2V87z"/>
		</g>
	</g>
</g>
<g id="Red" style="display:none;">
	<g style="display:inline;">
		<g>
			<rect x="41" y="43" style="fill:#E54B44;" width="28" height="35"/>
		</g>
		<g>
			<polygon style="fill:#FF6C5E;" points="41,76.381 69,48.381 69,43 41,43 			"/>
		</g>
		<g>
			<path style="fill:#7D261E;" d="M33,33.671V39v8.444V83h44V47.444V39v-5.329C64.807,25.958,45.193,25.958,33,33.671z M48,78h-7V68
				h7V78z M48,66h-7V56h7V66z M48,54h-7V43h7V54z M60,78H50V68h10V78z M60,66H50V56h10V66z M60,54H50V43h10V54z M69,78h-7V68h7V78z
				 M69,66h-7V56h7V66z M69,54h-7V43h7V54z"/>
		</g>
		<g>
			<path style="fill:#4A1410;" d="M31.429,29.826C31.161,30.013,31,30.32,31,30.647v2.457c0,0.368,0.202,0.706,0.525,0.88
				c0.324,0.174,0.717,0.157,1.024-0.045c12.3-8.089,32.601-8.089,44.9,0c0.308,0.202,0.7,0.219,1.024,0.044
				C78.798,33.809,79,33.471,79,33.104v-2.457c0-0.327-0.16-0.634-0.429-0.821C65.523,20.725,44.477,20.725,31.429,29.826z"/>
		</g>
		<g>
			<rect x="41" y="33" style="fill:#FFFFFF;" width="28" height="7"/>
		</g>
		<g>
			<g>
				<path style="fill:#C23023;" d="M44.879,34.419h1.831c1.119,0,1.675,0.808,1.675,1.618c0,0.815-0.562,1.623-1.669,1.623h-0.679
					V39h-1.158V34.419z M46.71,36.632c0.699,0.006,0.699-1.139,0-1.132h-0.673v1.132H46.71z"/>
			</g>
			<g>
				<path style="fill:#C23023;" d="M50.043,39h-1.165v-4.581h1.165v1.734h1.32v-1.734h1.165V39h-1.165v-1.727h-1.32V39z"/>
			</g>
			<g>
				<path style="fill:#C23023;" d="M53.144,35.927c0-1.054,0.944-1.572,1.896-1.572c0.951,0,1.902,0.524,1.902,1.572v1.566
					c0,1.048-0.945,1.572-1.896,1.572c-0.951,0-1.902-0.524-1.902-1.572V35.927z M54.302,37.493c0,0.336,0.375,0.498,0.744,0.498
					c0.369,0,0.738-0.168,0.738-0.498v-1.566c0-0.356-0.382-0.518-0.757-0.518c-0.362,0-0.725,0.181-0.725,0.518V37.493z"/>
			</g>
			<g>
				<path style="fill:#C23023;" d="M57.557,34.419h1.1l1.106,1.954l0.388,0.918l0.033-0.006c-0.007,0-0.123-0.79-0.13-0.79v-2.077
					h1.152V39h-1.171L59,37.195l-0.401-0.918l-0.032,0.006l0.149,0.886V39h-1.158V34.419z"/>
			</g>
			<g>
				<path style="fill:#C23023;" d="M63.102,36.218h1.857v1.003h-1.857v0.686h2.018V39h-3.189v-4.581h3.189v1.087h-2.018V36.218z"/>
			</g>
		</g>
		<g>
			<path style="fill:#4A1410;" d="M79,87H31v-2c0-1.104,0.896-2,2-2h44c1.104,0,2,0.896,2,2V87z"/>
		</g>
	</g>
</g>
<g id="R-Red" style="display:none;">
	<g style="display:inline;">
		<circle style="fill:#FABBAF;" cx="55" cy="55" r="55"/>
	</g>
	<g style="display:inline;">
		<g>
			<rect x="41" y="43" style="fill:#E54B44;" width="28" height="35"/>
		</g>
		<g>
			<polygon style="fill:#FF6C5E;" points="41,76.381 69,48.381 69,43 41,43 			"/>
		</g>
		<g>
			<path style="fill:#7D261E;" d="M33,33.671V39v8.444V83h44V47.444V39v-5.329C64.807,25.958,45.193,25.958,33,33.671z M48,78h-7V68
				h7V78z M48,66h-7V56h7V66z M48,54h-7V43h7V54z M60,78H50V68h10V78z M60,66H50V56h10V66z M60,54H50V43h10V54z M69,78h-7V68h7V78z
				 M69,66h-7V56h7V66z M69,54h-7V43h7V54z"/>
		</g>
		<g>
			<path style="fill:#4A1410;" d="M31.429,29.826C31.161,30.013,31,30.32,31,30.647v2.457c0,0.368,0.202,0.706,0.525,0.88
				c0.324,0.174,0.717,0.157,1.024-0.045c12.3-8.089,32.601-8.089,44.9,0c0.308,0.202,0.7,0.219,1.024,0.044
				C78.798,33.809,79,33.471,79,33.104v-2.457c0-0.327-0.16-0.634-0.429-0.821C65.523,20.725,44.477,20.725,31.429,29.826z"/>
		</g>
		<g>
			<rect x="41" y="33" style="fill:#FFFFFF;" width="28" height="7"/>
		</g>
		<g>
			<g>
				<path style="fill:#C23023;" d="M44.879,34.419h1.831c1.119,0,1.675,0.808,1.675,1.618c0,0.815-0.562,1.623-1.669,1.623h-0.679
					V39h-1.158V34.419z M46.71,36.632c0.699,0.006,0.699-1.139,0-1.132h-0.673v1.132H46.71z"/>
			</g>
			<g>
				<path style="fill:#C23023;" d="M50.043,39h-1.165v-4.581h1.165v1.734h1.32v-1.734h1.165V39h-1.165v-1.727h-1.32V39z"/>
			</g>
			<g>
				<path style="fill:#C23023;" d="M53.144,35.927c0-1.054,0.944-1.572,1.896-1.572c0.951,0,1.902,0.524,1.902,1.572v1.566
					c0,1.048-0.945,1.572-1.896,1.572c-0.951,0-1.902-0.524-1.902-1.572V35.927z M54.302,37.493c0,0.336,0.375,0.498,0.744,0.498
					c0.369,0,0.738-0.168,0.738-0.498v-1.566c0-0.356-0.382-0.518-0.757-0.518c-0.362,0-0.725,0.181-0.725,0.518V37.493z"/>
			</g>
			<g>
				<path style="fill:#C23023;" d="M57.557,34.419h1.1l1.106,1.954l0.388,0.918l0.033-0.006c-0.007,0-0.123-0.79-0.13-0.79v-2.077
					h1.152V39h-1.171l-1.035-1.805l-0.401-0.918l-0.032,0.006l0.149,0.886V39h-1.158V34.419z"/>
			</g>
			<g>
				<path style="fill:#C23023;" d="M63.102,36.218h1.857v1.003h-1.857v0.686h2.019V39h-3.189v-4.581h3.189v1.087h-2.019V36.218z"/>
			</g>
		</g>
		<g>
			<path style="fill:#4A1410;" d="M79,87H31v-2c0-1.104,0.896-2,2-2h44c1.104,0,2,0.896,2,2V87z"/>
		</g>
	</g>
</g>
<g id="Yellow" style="display:none;">
	<g style="display:inline;">
		<g>
			<rect x="41" y="42.87" style="fill:#FA9200;" width="28" height="35"/>
		</g>
		<g>
			<polygon style="fill:#FFAA00;" points="41,76.25 69,48.251 69,42.87 41,42.87 			"/>
		</g>
		<g>
			<path style="fill:#66510D;" d="M33,33.54v5.329v8.444V82.87h44V47.314V38.87V33.54C64.807,25.828,45.193,25.828,33,33.54z
				 M48,77.87h-7v-10h7V77.87z M48,65.87h-7v-10h7V65.87z M48,53.87h-7v-11h7V53.87z M60,77.87H50v-10h10V77.87z M60,65.87H50v-10
				h10V65.87z M60,53.87H50v-11h10V53.87z M69,77.87h-7v-10h7V77.87z M69,65.87h-7v-10h7V65.87z M69,53.87h-7v-11h7V53.87z"/>
		</g>
		<g>
			<path style="fill:#3D320C;" d="M31.429,29.696C31.161,29.883,31,30.19,31,30.517v2.456c0,0.368,0.202,0.706,0.525,0.88
				c0.324,0.174,0.717,0.157,1.024-0.045c12.3-8.089,32.601-8.089,44.9,0c0.308,0.202,0.7,0.219,1.024,0.044
				C78.798,33.679,79,33.34,79,32.973v-2.456c0-0.327-0.16-0.634-0.429-0.821C65.523,20.594,44.477,20.594,31.429,29.696z"/>
		</g>
		<g>
			<rect x="41" y="32.87" style="fill:#FFFFFF;" width="28" height="7"/>
		</g>
		<g>
			<g>
				<path style="fill:#E07000;" d="M44.879,34.289h1.831c1.119,0,1.675,0.808,1.675,1.618c0,0.815-0.562,1.624-1.669,1.624h-0.679
					v1.339h-1.158V34.289z M46.71,36.502c0.699,0.006,0.699-1.139,0-1.132h-0.673v1.132H46.71z"/>
			</g>
			<g>
				<path style="fill:#E07000;" d="M50.043,38.87h-1.165v-4.581h1.165v1.734h1.32v-1.734h1.165v4.581h-1.165v-1.727h-1.32V38.87z"/>
			</g>
			<g>
				<path style="fill:#E07000;" d="M53.144,35.796c0-1.054,0.944-1.572,1.896-1.572c0.951,0,1.902,0.524,1.902,1.572v1.566
					c0,1.048-0.945,1.572-1.896,1.572c-0.951,0-1.902-0.524-1.902-1.572V35.796z M54.302,37.362c0,0.336,0.375,0.498,0.744,0.498
					c0.369,0,0.738-0.168,0.738-0.498v-1.566c0-0.356-0.382-0.518-0.757-0.518c-0.362,0-0.725,0.181-0.725,0.518V37.362z"/>
			</g>
			<g>
				<path style="fill:#E07000;" d="M57.557,34.289h1.1l1.106,1.954l0.388,0.918l0.033-0.006c-0.007,0-0.123-0.79-0.13-0.79v-2.077
					h1.152v4.581h-1.171L59,37.064l-0.401-0.918l-0.032,0.006l0.149,0.886v1.831h-1.158V34.289z"/>
			</g>
			<g>
				<path style="fill:#E07000;" d="M63.102,36.087h1.857v1.003h-1.857v0.686h2.018v1.093h-3.189v-4.581h3.189v1.087h-2.018V36.087z"
					/>
			</g>
		</g>
		<g>
			<path style="fill:#3D320C;" d="M79,86.87H31v-2c0-1.104,0.896-2,2-2h44c1.104,0,2,0.896,2,2V86.87z"/>
		</g>
	</g>
</g>
<g id="R-Yellow" style="display:none;">
	<g style="display:inline;">
		<circle style="fill:#FFD75E;" cx="55" cy="55" r="55"/>
	</g>
	<g style="display:inline;">
		<g>
			<rect x="41" y="43" style="fill:#FA9200;" width="28" height="35"/>
		</g>
		<g>
			<polygon style="fill:#FFAA00;" points="41,76.381 69,48.381 69,43 41,43 			"/>
		</g>
		<g>
			<path style="fill:#66510D;" d="M33,33.671V39v8.444V83h44V47.444V39v-5.329C64.807,25.958,45.193,25.958,33,33.671z M48,78h-7V68
				h7V78z M48,66h-7V56h7V66z M48,54h-7V43h7V54z M60,78H50V68h10V78z M60,66H50V56h10V66z M60,54H50V43h10V54z M69,78h-7V68h7V78z
				 M69,66h-7V56h7V66z M69,54h-7V43h7V54z"/>
		</g>
		<g>
			<path style="fill:#3D320C;" d="M31.429,29.826C31.161,30.013,31,30.32,31,30.647v2.457c0,0.368,0.202,0.706,0.525,0.88
				c0.324,0.174,0.717,0.157,1.024-0.045c12.3-8.089,32.601-8.089,44.9,0c0.308,0.202,0.7,0.219,1.024,0.044
				C78.798,33.809,79,33.471,79,33.104v-2.457c0-0.327-0.16-0.634-0.429-0.821C65.523,20.725,44.477,20.725,31.429,29.826z"/>
		</g>
		<g>
			<rect x="41" y="33" style="fill:#FFFFFF;" width="28" height="7"/>
		</g>
		<g>
			<g>
				<path style="fill:#E07000;" d="M44.879,34.419h1.831c1.119,0,1.675,0.808,1.675,1.618c0,0.815-0.562,1.623-1.669,1.623h-0.679
					V39h-1.158V34.419z M46.71,36.632c0.699,0.006,0.699-1.139,0-1.132h-0.673v1.132H46.71z"/>
			</g>
			<g>
				<path style="fill:#E07000;" d="M50.043,39h-1.165v-4.581h1.165v1.734h1.32v-1.734h1.165V39h-1.165v-1.727h-1.32V39z"/>
			</g>
			<g>
				<path style="fill:#E07000;" d="M53.144,35.927c0-1.054,0.944-1.572,1.896-1.572c0.951,0,1.902,0.524,1.902,1.572v1.566
					c0,1.048-0.945,1.572-1.896,1.572c-0.951,0-1.902-0.524-1.902-1.572V35.927z M54.302,37.493c0,0.336,0.375,0.498,0.744,0.498
					c0.369,0,0.738-0.168,0.738-0.498v-1.566c0-0.356-0.382-0.518-0.757-0.518c-0.362,0-0.725,0.181-0.725,0.518V37.493z"/>
			</g>
			<g>
				<path style="fill:#E07000;" d="M57.557,34.419h1.1l1.106,1.954l0.388,0.918l0.033-0.006c-0.007,0-0.123-0.79-0.13-0.79v-2.077
					h1.152V39h-1.171l-1.035-1.805l-0.401-0.918l-0.032,0.006l0.149,0.886V39h-1.158V34.419z"/>
			</g>
			<g>
				<path style="fill:#E07000;" d="M63.102,36.218h1.857v1.003h-1.857v0.686h2.019V39h-3.189v-4.581h3.189v1.087h-2.019V36.218z"/>
			</g>
		</g>
		<g>
			<path style="fill:#3D320C;" d="M79,87H31v-2c0-1.104,0.896-2,2-2h44c1.104,0,2,0.896,2,2V87z"/>
		</g>
	</g>
</g>
</svg>
