<?xml version="1.0" encoding="iso-8859-1"?>
<!-- Generator: Adobe Illustrator 17.1.0, SVG Export Plug-In . SVG Version: 6.00 Build 0)  -->
<!DOCTYPE svg PUBLIC "-//W3C//DTD SVG 1.0//EN" "http://www.w3.org/TR/2001/REC-SVG-20010904/DTD/svg10.dtd">
<svg version="1.0" xmlns="http://www.w3.org/2000/svg" xmlns:xlink="http://www.w3.org/1999/xlink" x="0px" y="0px" width="110px"
	 height="110px" viewBox="0 0 110 110" style="enable-background:new 0 0 110 110;" xml:space="preserve">
<g id="Artboard" style="display:none;">
	<rect x="-964" y="-294" style="display:inline;fill:#808080;" width="1360" height="442"/>
</g>
<g id="R-Multicolor" style="display:none;">
	<circle style="display:inline;fill:#E04F5F;" cx="55" cy="55" r="55"/>
	<g style="display:inline;">
		<polygon style="fill:#FCF6C2;" points="59,34 27,46 27,71 51,83 83,71 83,46 		"/>
		<polygon style="fill:#F3B607;" points="83,71 51,83 51,58 83,46 		"/>
		<polygon style="fill:#FACB1B;" points="27,71 51,83 51,58 27,46 		"/>
		<path style="fill:#F3B607;" d="M59,48v4c0,1.1-2.69,2-6,2s-6-0.9-6-2v-4c0,1.1,2.69,2,6,2S59,49.1,59,48z"/>
		<path style="fill:#FCF6C2;" d="M53,46c-3.31,0-6,0.9-6,2s2.69,2,6,2s6-0.9,6-2S56.31,46,53,46z"/>
		<path style="fill:#F3B607;" d="M47,42v4c0,1.1-2.69,2-6,2s-6-0.9-6-2v-4c0,1.1,2.69,2,6,2S47,43.1,47,42z"/>
		<path style="fill:#FCF6C2;" d="M41,40c-3.31,0-6,0.9-6,2s2.69,2,6,2s6-0.9,6-2S44.31,40,41,40z"/>
		<path style="fill:#F3B607;" d="M63,36v4c0,1.1-2.69,2-6,2s-6-0.9-6-2v-4c0,1.1,2.69,2,6,2S63,37.1,63,36z"/>
		<path style="fill:#FCF6C2;" d="M57,34c-3.31,0-6,0.9-6,2s2.69,2,6,2s6-0.9,6-2S60.31,34,57,34z"/>
		<path style="fill:#F3B607;" d="M75,42v4c0,1.1-2.69,2-6,2s-6-0.9-6-2v-4c0,1.1,2.69,2,6,2S75,43.1,75,42z"/>
		<path style="fill:#FCF6C2;" d="M69,40c-3.31,0-6,0.9-6,2s2.69,2,6,2s6-0.9,6-2S72.31,40,69,40z"/>
	</g>
</g>
<g id="Multicolor_1_">
	<g>
		<polygon style="fill:#FCF6C2;" points="59,34 27,46 27,71 51,83 83,71 83,46 		"/>
		<polygon style="fill:#F3B607;" points="83,71 51,83 51,58 83,46 		"/>
		<polygon style="fill:#FACB1B;" points="27,71 51,83 51,58 27,46 		"/>
		<path style="fill:#F3B607;" d="M59,48v4c0,1.1-2.69,2-6,2s-6-0.9-6-2v-4c0,1.1,2.69,2,6,2S59,49.1,59,48z"/>
		<path style="fill:#FCF6C2;" d="M53,46c-3.31,0-6,0.9-6,2s2.69,2,6,2s6-0.9,6-2S56.31,46,53,46z"/>
		<path style="fill:#F3B607;" d="M47,42v4c0,1.1-2.69,2-6,2s-6-0.9-6-2v-4c0,1.1,2.69,2,6,2S47,43.1,47,42z"/>
		<path style="fill:#FCF6C2;" d="M41,40c-3.31,0-6,0.9-6,2s2.69,2,6,2s6-0.9,6-2S44.31,40,41,40z"/>
		<path style="fill:#F3B607;" d="M63,36v4c0,1.1-2.69,2-6,2s-6-0.9-6-2v-4c0,1.1,2.69,2,6,2S63,37.1,63,36z"/>
		<path style="fill:#FCF6C2;" d="M57,34c-3.31,0-6,0.9-6,2s2.69,2,6,2s6-0.9,6-2S60.31,34,57,34z"/>
		<path style="fill:#F3B607;" d="M75,42v4c0,1.1-2.69,2-6,2s-6-0.9-6-2v-4c0,1.1,2.69,2,6,2S75,43.1,75,42z"/>
		<path style="fill:#FCF6C2;" d="M69,40c-3.31,0-6,0.9-6,2s2.69,2,6,2s6-0.9,6-2S72.31,40,69,40z"/>
	</g>
</g>
<g id="Blue" style="display:none;">
	<g style="display:inline;">
		<g>
			<polygon style="fill:#00B7E5;" points="59,34 27,46 27,71 51,83 83,71 83,46 			"/>
		</g>
		<g>
			<polygon style="fill:#0081A1;" points="83,71 51,83 51,58 83,46 			"/>
		</g>
		<g>
			<polygon style="fill:#009FC7;" points="27,71 51,83 51,58 27,46 			"/>
		</g>
		<g>
			<path style="fill:#0081A1;" d="M59,48v4c0,1.1-2.69,2-6,2s-6-0.9-6-2v-4c0,1.1,2.69,2,6,2S59,49.1,59,48z"/>
		</g>
		<g>
			<path style="fill:#BBE7F2;" d="M53,46c-3.31,0-6,0.9-6,2s2.69,2,6,2s6-0.9,6-2S56.31,46,53,46z"/>
		</g>
		<g>
			<path style="fill:#0081A1;" d="M47,42v4c0,1.1-2.69,2-6,2s-6-0.9-6-2v-4c0,1.1,2.69,2,6,2S47,43.1,47,42z"/>
		</g>
		<g>
			<path style="fill:#BBE7F2;" d="M41,40c-3.31,0-6,0.9-6,2s2.69,2,6,2s6-0.9,6-2S44.31,40,41,40z"/>
		</g>
		<g>
			<path style="fill:#0081A1;" d="M63,36v4c0,1.1-2.69,2-6,2s-6-0.9-6-2v-4c0,1.1,2.69,2,6,2S63,37.1,63,36z"/>
		</g>
		<g>
			<path style="fill:#BBE7F2;" d="M57,34c-3.31,0-6,0.9-6,2s2.69,2,6,2s6-0.9,6-2S60.31,34,57,34z"/>
		</g>
		<g>
			<path style="fill:#0081A1;" d="M75,42v4c0,1.1-2.69,2-6,2s-6-0.9-6-2v-4c0,1.1,2.69,2,6,2S75,43.1,75,42z"/>
		</g>
		<g>
			<path style="fill:#BBE7F2;" d="M69,40c-3.31,0-6,0.9-6,2s2.69,2,6,2s6-0.9,6-2S72.31,40,69,40z"/>
		</g>
	</g>
</g>
<g id="R-Blue" style="display:none;">
	<g style="display:inline;">
		<circle style="fill:#81D2EB;" cx="55" cy="55" r="55"/>
	</g>
	<g style="display:inline;">
		<g>
			<polygon style="fill:#00B7E5;" points="59,34 27,46 27,71 51,83 83,71 83,46 			"/>
		</g>
		<g>
			<polygon style="fill:#0081A1;" points="83,71 51,83 51,58 83,46 			"/>
		</g>
		<g>
			<polygon style="fill:#009FC7;" points="27,71 51,83 51,58 27,46 			"/>
		</g>
		<g>
			<path style="fill:#0081A1;" d="M59,48v4c0,1.1-2.69,2-6,2s-6-0.9-6-2v-4c0,1.1,2.69,2,6,2S59,49.1,59,48z"/>
		</g>
		<g>
			<path style="fill:#BBE7F2;" d="M53,46c-3.31,0-6,0.9-6,2s2.69,2,6,2s6-0.9,6-2S56.31,46,53,46z"/>
		</g>
		<g>
			<path style="fill:#0081A1;" d="M47,42v4c0,1.1-2.69,2-6,2s-6-0.9-6-2v-4c0,1.1,2.69,2,6,2S47,43.1,47,42z"/>
		</g>
		<g>
			<path style="fill:#BBE7F2;" d="M41,40c-3.31,0-6,0.9-6,2s2.69,2,6,2s6-0.9,6-2S44.31,40,41,40z"/>
		</g>
		<g>
			<path style="fill:#0081A1;" d="M63,36v4c0,1.1-2.69,2-6,2s-6-0.9-6-2v-4c0,1.1,2.69,2,6,2S63,37.1,63,36z"/>
		</g>
		<g>
			<path style="fill:#BBE7F2;" d="M57,34c-3.31,0-6,0.9-6,2s2.69,2,6,2s6-0.9,6-2S60.31,34,57,34z"/>
		</g>
		<g>
			<path style="fill:#0081A1;" d="M75,42v4c0,1.1-2.69,2-6,2c-3.31,0-6-0.9-6-2v-4c0,1.1,2.69,2,6,2C72.31,44,75,43.1,75,42z"/>
		</g>
		<g>
			<path style="fill:#BBE7F2;" d="M69,40c-3.31,0-6,0.9-6,2s2.69,2,6,2c3.31,0,6-0.9,6-2S72.31,40,69,40z"/>
		</g>
	</g>
</g>
<g id="Green" style="display:none;">
	<g style="display:inline;">
		<g>
			<polygon style="fill:#00D6C1;" points="59,34 27,46 27,71 51,83 83,71 83,46 			"/>
		</g>
		<g>
			<polygon style="fill:#009687;" points="83,71 51,83 51,58 83,46 			"/>
		</g>
		<g>
			<polygon style="fill:#00B8A5;" points="27,71 51,83 51,58 27,46 			"/>
		</g>
		<g>
			<path style="fill:#009687;" d="M59,48v4c0,1.1-2.69,2-6,2s-6-0.9-6-2v-4c0,1.1,2.69,2,6,2S59,49.1,59,48z"/>
		</g>
		<g>
			<path style="fill:#AAF0E9;" d="M53,46c-3.31,0-6,0.9-6,2s2.69,2,6,2s6-0.9,6-2S56.31,46,53,46z"/>
		</g>
		<g>
			<path style="fill:#009687;" d="M47,42v4c0,1.1-2.69,2-6,2s-6-0.9-6-2v-4c0,1.1,2.69,2,6,2S47,43.1,47,42z"/>
		</g>
		<g>
			<path style="fill:#AAF0E9;" d="M41,40c-3.31,0-6,0.9-6,2s2.69,2,6,2s6-0.9,6-2S44.31,40,41,40z"/>
		</g>
		<g>
			<path style="fill:#009687;" d="M63,36v4c0,1.1-2.69,2-6,2s-6-0.9-6-2v-4c0,1.1,2.69,2,6,2S63,37.1,63,36z"/>
		</g>
		<g>
			<path style="fill:#AAF0E9;" d="M57,34c-3.31,0-6,0.9-6,2s2.69,2,6,2s6-0.9,6-2S60.31,34,57,34z"/>
		</g>
		<g>
			<path style="fill:#009687;" d="M75,42v4c0,1.1-2.69,2-6,2c-3.31,0-6-0.9-6-2v-4c0,1.1,2.69,2,6,2C72.31,44,75,43.1,75,42z"/>
		</g>
		<g>
			<path style="fill:#AAF0E9;" d="M69,40c-3.31,0-6,0.9-6,2s2.69,2,6,2c3.31,0,6-0.9,6-2S72.31,40,69,40z"/>
		</g>
	</g>
</g>
<g id="R-Green" style="display:none;">
	<g style="display:inline;">
		<circle style="fill:#87E0C8;" cx="55" cy="55" r="55"/>
	</g>
	<g style="display:inline;">
		<g>
			<polygon style="fill:#00D6C1;" points="59,34 27,46 27,71 51,83 83,71 83,46 			"/>
		</g>
		<g>
			<polygon style="fill:#009687;" points="83,71 51,83 51,58 83,46 			"/>
		</g>
		<g>
			<polygon style="fill:#00B8A5;" points="27,71 51,83 51,58 27,46 			"/>
		</g>
		<g>
			<path style="fill:#009687;" d="M59,48v4c0,1.1-2.69,2-6,2s-6-0.9-6-2v-4c0,1.1,2.69,2,6,2S59,49.1,59,48z"/>
		</g>
		<g>
			<path style="fill:#AAF0E9;" d="M53,46c-3.31,0-6,0.9-6,2s2.69,2,6,2s6-0.9,6-2S56.31,46,53,46z"/>
		</g>
		<g>
			<path style="fill:#009687;" d="M47,42v4c0,1.1-2.69,2-6,2s-6-0.9-6-2v-4c0,1.1,2.69,2,6,2S47,43.1,47,42z"/>
		</g>
		<g>
			<path style="fill:#AAF0E9;" d="M41,40c-3.31,0-6,0.9-6,2s2.69,2,6,2s6-0.9,6-2S44.31,40,41,40z"/>
		</g>
		<g>
			<path style="fill:#009687;" d="M63,36v4c0,1.1-2.69,2-6,2s-6-0.9-6-2v-4c0,1.1,2.69,2,6,2S63,37.1,63,36z"/>
		</g>
		<g>
			<path style="fill:#AAF0E9;" d="M57,34c-3.31,0-6,0.9-6,2s2.69,2,6,2s6-0.9,6-2S60.31,34,57,34z"/>
		</g>
		<g>
			<path style="fill:#009687;" d="M75,42v4c0,1.1-2.69,2-6,2s-6-0.9-6-2v-4c0,1.1,2.69,2,6,2S75,43.1,75,42z"/>
		</g>
		<g>
			<path style="fill:#AAF0E9;" d="M69,40c-3.31,0-6,0.9-6,2s2.69,2,6,2s6-0.9,6-2S72.31,40,69,40z"/>
		</g>
	</g>
</g>
<g id="Red" style="display:none;">
	<g style="display:inline;">
		<g>
			<polygon style="fill:#FF6C5E;" points="59,34 27,46 27,71 51,83 83,71 83,46 			"/>
		</g>
		<g>
			<polygon style="fill:#C23023;" points="83,71 51,83 51,58 83,46 			"/>
		</g>
		<g>
			<polygon style="fill:#E54B44;" points="27,71 51,83 51,58 27,46 			"/>
		</g>
		<g>
			<path style="fill:#C23023;" d="M59,48v4c0,1.1-2.69,2-6,2s-6-0.9-6-2v-4c0,1.1,2.69,2,6,2S59,49.1,59,48z"/>
		</g>
		<g>
			<path style="fill:#FFD7D4;" d="M53,46c-3.31,0-6,0.9-6,2s2.69,2,6,2s6-0.9,6-2S56.31,46,53,46z"/>
		</g>
		<g>
			<path style="fill:#C23023;" d="M47,42v4c0,1.1-2.69,2-6,2s-6-0.9-6-2v-4c0,1.1,2.69,2,6,2S47,43.1,47,42z"/>
		</g>
		<g>
			<path style="fill:#FFD7D4;" d="M41,40c-3.31,0-6,0.9-6,2s2.69,2,6,2s6-0.9,6-2S44.31,40,41,40z"/>
		</g>
		<g>
			<path style="fill:#C23023;" d="M63,36v4c0,1.1-2.69,2-6,2s-6-0.9-6-2v-4c0,1.1,2.69,2,6,2S63,37.1,63,36z"/>
		</g>
		<g>
			<path style="fill:#FFD7D4;" d="M57,34c-3.31,0-6,0.9-6,2s2.69,2,6,2s6-0.9,6-2S60.31,34,57,34z"/>
		</g>
		<g>
			<path style="fill:#C23023;" d="M75,42v4c0,1.1-2.69,2-6,2s-6-0.9-6-2v-4c0,1.1,2.69,2,6,2S75,43.1,75,42z"/>
		</g>
		<g>
			<path style="fill:#FFD7D4;" d="M69,40c-3.31,0-6,0.9-6,2s2.69,2,6,2s6-0.9,6-2S72.31,40,69,40z"/>
		</g>
	</g>
</g>
<g id="R-Red" style="display:none;">
	<g style="display:inline;">
		<circle style="fill:#FABBAF;" cx="55" cy="55" r="55"/>
	</g>
	<g style="display:inline;">
		<g>
			<polygon style="fill:#FF6C5E;" points="59,34 27,46 27,71 51,83 83,71 83,46 			"/>
		</g>
		<g>
			<polygon style="fill:#C23023;" points="83,71 51,83 51,58 83,46 			"/>
		</g>
		<g>
			<polygon style="fill:#E54B44;" points="27,71 51,83 51,58 27,46 			"/>
		</g>
		<g>
			<path style="fill:#C23023;" d="M59,48v4c0,1.1-2.69,2-6,2s-6-0.9-6-2v-4c0,1.1,2.69,2,6,2S59,49.1,59,48z"/>
		</g>
		<g>
			<path style="fill:#FFD7D4;" d="M53,46c-3.31,0-6,0.9-6,2s2.69,2,6,2s6-0.9,6-2S56.31,46,53,46z"/>
		</g>
		<g>
			<path style="fill:#C23023;" d="M47,42v4c0,1.1-2.69,2-6,2s-6-0.9-6-2v-4c0,1.1,2.69,2,6,2S47,43.1,47,42z"/>
		</g>
		<g>
			<path style="fill:#FFD7D4;" d="M41,40c-3.31,0-6,0.9-6,2s2.69,2,6,2s6-0.9,6-2S44.31,40,41,40z"/>
		</g>
		<g>
			<path style="fill:#C23023;" d="M63,36v4c0,1.1-2.69,2-6,2s-6-0.9-6-2v-4c0,1.1,2.69,2,6,2S63,37.1,63,36z"/>
		</g>
		<g>
			<path style="fill:#FFD7D4;" d="M57,34c-3.31,0-6,0.9-6,2s2.69,2,6,2s6-0.9,6-2S60.31,34,57,34z"/>
		</g>
		<g>
			<path style="fill:#C23023;" d="M75,42v4c0,1.1-2.69,2-6,2c-3.31,0-6-0.9-6-2v-4c0,1.1,2.69,2,6,2C72.31,44,75,43.1,75,42z"/>
		</g>
		<g>
			<path style="fill:#FFD7D4;" d="M69,40c-3.31,0-6,0.9-6,2s2.69,2,6,2c3.31,0,6-0.9,6-2S72.31,40,69,40z"/>
		</g>
	</g>
</g>
<g id="Yellow" style="display:none;">
	<g style="display:inline;">
		<g>
			<polygon style="fill:#FFAA00;" points="59,34 27,46 27,71 51,83 83,71 83,46 			"/>
		</g>
		<g>
			<polygon style="fill:#E07000;" points="83,71 51,83 51,58 83,46 			"/>
		</g>
		<g>
			<polygon style="fill:#FA9200;" points="27,71 51,83 51,58 27,46 			"/>
		</g>
		<g>
			<path style="fill:#E07000;" d="M59,48v4c0,1.1-2.69,2-6,2s-6-0.9-6-2v-4c0,1.1,2.69,2,6,2S59,49.1,59,48z"/>
		</g>
		<g>
			<path style="fill:#FFE9A1;" d="M53,46c-3.31,0-6,0.9-6,2s2.69,2,6,2s6-0.9,6-2S56.31,46,53,46z"/>
		</g>
		<g>
			<path style="fill:#E07000;" d="M47,42v4c0,1.1-2.69,2-6,2s-6-0.9-6-2v-4c0,1.1,2.69,2,6,2S47,43.1,47,42z"/>
		</g>
		<g>
			<path style="fill:#FFE9A1;" d="M41,40c-3.31,0-6,0.9-6,2s2.69,2,6,2s6-0.9,6-2S44.31,40,41,40z"/>
		</g>
		<g>
			<path style="fill:#E07000;" d="M63,36v4c0,1.1-2.69,2-6,2s-6-0.9-6-2v-4c0,1.1,2.69,2,6,2S63,37.1,63,36z"/>
		</g>
		<g>
			<path style="fill:#FFE9A1;" d="M57,34c-3.31,0-6,0.9-6,2s2.69,2,6,2s6-0.9,6-2S60.31,34,57,34z"/>
		</g>
		<g>
			<path style="fill:#E07000;" d="M75,42v4c0,1.1-2.69,2-6,2c-3.31,0-6-0.9-6-2v-4c0,1.1,2.69,2,6,2C72.31,44,75,43.1,75,42z"/>
		</g>
		<g>
			<path style="fill:#FFE9A1;" d="M69,40c-3.31,0-6,0.9-6,2s2.69,2,6,2c3.31,0,6-0.9,6-2S72.31,40,69,40z"/>
		</g>
	</g>
</g>
<g id="R-Yellow" style="display:none;">
	<g style="display:inline;">
		<circle style="fill:#FFD75E;" cx="55" cy="55" r="55"/>
	</g>
	<g style="display:inline;">
		<g>
			<polygon style="fill:#FFAA00;" points="59,34 27,46 27,71 51,83 83,71 83,46 			"/>
		</g>
		<g>
			<polygon style="fill:#E07000;" points="83,71 51,83 51,58 83,46 			"/>
		</g>
		<g>
			<polygon style="fill:#FA9200;" points="27,71 51,83 51,58 27,46 			"/>
		</g>
		<g>
			<path style="fill:#E07000;" d="M59,48v4c0,1.1-2.69,2-6,2s-6-0.9-6-2v-4c0,1.1,2.69,2,6,2S59,49.1,59,48z"/>
		</g>
		<g>
			<path style="fill:#FFE9A1;" d="M53,46c-3.31,0-6,0.9-6,2s2.69,2,6,2s6-0.9,6-2S56.31,46,53,46z"/>
		</g>
		<g>
			<path style="fill:#E07000;" d="M47,42v4c0,1.1-2.69,2-6,2s-6-0.9-6-2v-4c0,1.1,2.69,2,6,2S47,43.1,47,42z"/>
		</g>
		<g>
			<path style="fill:#FFE9A1;" d="M41,40c-3.31,0-6,0.9-6,2s2.69,2,6,2s6-0.9,6-2S44.31,40,41,40z"/>
		</g>
		<g>
			<path style="fill:#E07000;" d="M63,36v4c0,1.1-2.69,2-6,2s-6-0.9-6-2v-4c0,1.1,2.69,2,6,2S63,37.1,63,36z"/>
		</g>
		<g>
			<path style="fill:#FFE9A1;" d="M57,34c-3.31,0-6,0.9-6,2s2.69,2,6,2s6-0.9,6-2S60.31,34,57,34z"/>
		</g>
		<g>
			<path style="fill:#E07000;" d="M75,42v4c0,1.1-2.69,2-6,2s-6-0.9-6-2v-4c0,1.1,2.69,2,6,2S75,43.1,75,42z"/>
		</g>
		<g>
			<path style="fill:#FFE9A1;" d="M69,40c-3.31,0-6,0.9-6,2s2.69,2,6,2s6-0.9,6-2S72.31,40,69,40z"/>
		</g>
	</g>
</g>
</svg>
