<?xml version="1.0" encoding="iso-8859-1"?>
<!-- Generator: Adobe Illustrator 17.1.0, SVG Export Plug-In . SVG Version: 6.00 Build 0)  -->
<!DOCTYPE svg PUBLIC "-//W3C//DTD SVG 1.0//EN" "http://www.w3.org/TR/2001/REC-SVG-20010904/DTD/svg10.dtd">
<svg version="1.0" xmlns="http://www.w3.org/2000/svg" xmlns:xlink="http://www.w3.org/1999/xlink" x="0px" y="0px" width="110px"
	 height="110px" viewBox="0 0 110 110" style="enable-background:new 0 0 110 110;" xml:space="preserve">
<g id="Artboard" style="display:none;">
	<rect x="-707" y="-50" style="display:inline;fill:#808080;" width="1376" height="359"/>
</g>
<g id="R-Multicolor" style="display:none;">
	<circle style="display:inline;fill:#FABC3D;" cx="55" cy="55" r="55"/>
	<g style="display:inline;">
		<path style="fill:#FFFFFF;" d="M55,63c17.679,0,30,5.797,30,11S72.679,85,55,85s-30-5.797-30-11S37.321,63,55,63 M55,61
			c-17.673,0-32,5.82-32,13s14.327,13,32,13s32-5.82,32-13S72.673,61,55,61L55,61z"/>
		<path style="fill:#FFFFFF;" d="M55,69c12.389,0,18,3.452,18,4.5S67.389,78,55,78s-18-3.452-18-4.5S42.611,69,55,69 M55,67
			c-11.046,0-20,2.91-20,6.5S43.954,80,55,80s20-2.91,20-6.5S66.046,67,55,67L55,67z"/>
		<path style="fill:#DF2C2C;" d="M61.463,35.708c0.966-1.322,1.542-2.946,1.542-4.708c0-4.418-3.582-8-8-8s-8,3.582-8,8
			c0,1.762,0.577,3.386,1.542,4.708c-1.543,0.306-8.329,2.157-7.464,6.479l1.278,13.597C42.737,57.654,44.378,59,46.285,59h0.97
			l0.771,12.398C48.23,73.443,49.95,75,52.006,75h6c2.055,0,3.776-1.557,3.98-3.602L62.757,59h0.97c1.907,0,3.548-1.346,3.922-3.215
			l1.279-13.597C69.683,38.408,64.35,36.281,61.463,35.708z"/>
		<path style="fill:#FA5655;" d="M55,23c-4.416,0.003-7.994,3.583-7.994,8c0,1.762,0.577,3.386,1.542,4.708
			c-1.543,0.306-8.329,2.157-7.464,6.479l1.278,13.597C42.737,57.654,44.378,59,46.285,59h0.97l0.771,12.398
			C48.23,73.443,49.95,75,52.006,75H55V23z"/>
	</g>
</g>
<g id="Multicolor">
	<g>
		<path style="fill:#FFFFFF;" d="M55,63c17.679,0,30,5.797,30,11S72.679,85,55,85s-30-5.797-30-11S37.321,63,55,63 M55,61
			c-17.673,0-32,5.82-32,13s14.327,13,32,13s32-5.82,32-13S72.673,61,55,61L55,61z"/>
		<path style="fill:#FFFFFF;" d="M55,69c12.389,0,18,3.452,18,4.5S67.389,78,55,78s-18-3.452-18-4.5S42.611,69,55,69 M55,67
			c-11.046,0-20,2.91-20,6.5S43.954,80,55,80s20-2.91,20-6.5S66.046,67,55,67L55,67z"/>
		<path style="fill:#DF2C2C;" d="M61.463,35.708c0.966-1.322,1.542-2.946,1.542-4.708c0-4.418-3.582-8-8-8s-8,3.582-8,8
			c0,1.762,0.577,3.386,1.542,4.708c-1.543,0.306-8.329,2.157-7.464,6.479l1.278,13.597C42.737,57.654,44.378,59,46.285,59h0.97
			l0.771,12.398C48.23,73.443,49.95,75,52.006,75h6c2.055,0,3.776-1.557,3.98-3.602L62.757,59h0.97c1.907,0,3.548-1.346,3.922-3.215
			l1.279-13.597C69.683,38.408,64.35,36.281,61.463,35.708z"/>
		<path style="fill:#FA5655;" d="M55,23c-4.416,0.003-7.994,3.583-7.994,8c0,1.762,0.577,3.386,1.542,4.708
			c-1.543,0.306-8.329,2.157-7.464,6.479l1.278,13.597C42.737,57.654,44.378,59,46.285,59h0.97l0.771,12.398
			C48.23,73.443,49.95,75,52.006,75H55V23z"/>
	</g>
</g>
<g id="Blue" style="display:none;">
	<g style="display:inline;">
		<g>
			<path style="fill:#FFFFFF;" d="M55,63c17.68,0,30,5.797,30,11S72.68,85,55,85s-30-5.797-30-11S37.32,63,55,63 M55,61
				c-17.673,0-32,5.82-32,13s14.327,13,32,13c17.673,0,32-5.82,32-13S72.673,61,55,61L55,61z"/>
		</g>
		<g>
			<path style="fill:#FFFFFF;" d="M55,69c12.389,0,18,3.452,18,4.5c0,1.048-5.611,4.5-18,4.5c-12.389,0-18-3.452-18-4.5
				C37,72.452,42.611,69,55,69 M55,67c-11.046,0-20,2.91-20,6.5c0,3.59,8.954,6.5,20,6.5s20-2.91,20-6.5C75,69.91,66.046,67,55,67
				L55,67z"/>
		</g>
		<g>
			<path style="fill:#0081A1;" d="M61.463,35.708c0.966-1.322,1.543-2.946,1.543-4.708c0-4.418-3.582-8-8-8c-4.419,0-8,3.582-8,8
				c0,1.762,0.576,3.386,1.542,4.708c-1.542,0.306-8.328,2.157-7.464,6.479l1.278,13.597C42.736,57.654,44.378,59,46.285,59h0.97
				l0.771,12.398C48.23,73.443,49.95,75,52.006,75h6c2.055,0,3.775-1.557,3.979-3.602L62.757,59h0.97
				c1.906,0,3.548-1.346,3.922-3.215l1.279-13.597C69.683,38.408,64.35,36.281,61.463,35.708z"/>
		</g>
		<g>
			<path style="fill:#009FC7;" d="M55,23c-4.416,0.003-7.994,3.583-7.994,8c0,1.762,0.576,3.386,1.542,4.708
				c-1.542,0.306-8.328,2.157-7.464,6.479l1.278,13.597C42.736,57.654,44.378,59,46.285,59h0.97l0.771,12.398
				C48.23,73.443,49.95,75,52.006,75H55V23z"/>
		</g>
	</g>
</g>
<g id="R-Blue" style="display:none;">
	<g style="display:inline;">
		<circle style="fill:#81D2EB;" cx="55" cy="55" r="55"/>
	</g>
	<g style="display:inline;">
		<g>
			<path style="fill:#FFFFFF;" d="M55,63c17.68,0,30,5.797,30,11S72.68,85,55,85s-30-5.797-30-11S37.32,63,55,63 M55,61
				c-17.673,0-32,5.82-32,13s14.327,13,32,13s32-5.82,32-13S72.673,61,55,61L55,61z"/>
		</g>
		<g>
			<path style="fill:#FFFFFF;" d="M55,69c12.389,0,18,3.452,18,4.5c0,1.048-5.611,4.5-18,4.5s-18-3.452-18-4.5
				C37,72.452,42.611,69,55,69 M55,67c-11.046,0-20,2.91-20,6.5c0,3.59,8.954,6.5,20,6.5s20-2.91,20-6.5C75,69.91,66.046,67,55,67
				L55,67z"/>
		</g>
		<g>
			<path style="fill:#0081A1;" d="M61.463,35.708c0.966-1.322,1.543-2.946,1.543-4.708c0-4.418-3.582-8-8-8c-4.419,0-8,3.582-8,8
				c0,1.762,0.576,3.386,1.542,4.708c-1.542,0.306-8.328,2.157-7.464,6.479l1.278,13.597C42.736,57.654,44.378,59,46.285,59h0.97
				l0.771,12.398C48.23,73.443,49.95,75,52.006,75h6c2.055,0,3.775-1.557,3.979-3.602L62.757,59h0.97
				c1.906,0,3.548-1.346,3.922-3.215l1.279-13.597C69.683,38.408,64.35,36.281,61.463,35.708z"/>
		</g>
		<g>
			<path style="fill:#009FC7;" d="M55,23c-4.416,0.003-7.994,3.583-7.994,8c0,1.762,0.576,3.386,1.542,4.708
				c-1.542,0.306-8.328,2.157-7.464,6.479l1.278,13.597C42.736,57.654,44.378,59,46.285,59h0.97l0.771,12.398
				C48.23,73.443,49.95,75,52.006,75H55V23z"/>
		</g>
	</g>
</g>
<g id="Green" style="display:none;">
	<g style="display:inline;">
		<g>
			<path style="fill:#FFFFFF;" d="M55,63c17.68,0,30,5.797,30,11S72.68,85,55,85s-30-5.797-30-11S37.32,63,55,63 M55,61
				c-17.673,0-32,5.82-32,13s14.327,13,32,13s32-5.82,32-13S72.673,61,55,61L55,61z"/>
		</g>
		<g>
			<path style="fill:#FFFFFF;" d="M55,69c12.389,0,18,3.452,18,4.5c0,1.048-5.611,4.5-18,4.5s-18-3.452-18-4.5
				C37,72.452,42.611,69,55,69 M55,67c-11.046,0-20,2.91-20,6.5c0,3.59,8.954,6.5,20,6.5s20-2.91,20-6.5C75,69.91,66.046,67,55,67
				L55,67z"/>
		</g>
		<g>
			<path style="fill:#009687;" d="M61.463,35.708c0.966-1.322,1.543-2.946,1.543-4.708c0-4.418-3.582-8-8-8c-4.419,0-8,3.582-8,8
				c0,1.762,0.576,3.386,1.542,4.708c-1.542,0.306-8.328,2.157-7.464,6.479l1.278,13.597C42.736,57.654,44.378,59,46.285,59h0.97
				l0.77,12.398C48.23,73.443,49.95,75,52.006,75h6c2.055,0,3.775-1.557,3.979-3.602L62.757,59h0.97
				c1.906,0,3.548-1.346,3.922-3.215l1.279-13.597C69.683,38.408,64.35,36.281,61.463,35.708z"/>
		</g>
		<g>
			<path style="fill:#00B8A5;" d="M55,23c-4.416,0.003-7.994,3.583-7.994,8c0,1.762,0.576,3.386,1.542,4.708
				c-1.542,0.306-8.328,2.157-7.464,6.479l1.278,13.597C42.736,57.654,44.378,59,46.285,59h0.97l0.77,12.398
				C48.23,73.443,49.95,75,52.006,75H55V23z"/>
		</g>
	</g>
</g>
<g id="R-Green" style="display:none;">
	<g style="display:inline;">
		<circle style="fill:#87E0C8;" cx="55" cy="55" r="55"/>
	</g>
	<g style="display:inline;">
		<g>
			<path style="fill:#FFFFFF;" d="M55,63c17.68,0,30,5.797,30,11S72.68,85,55,85s-30-5.797-30-11S37.32,63,55,63 M55,61
				c-17.673,0-32,5.82-32,13s14.327,13,32,13s32-5.82,32-13S72.673,61,55,61L55,61z"/>
		</g>
		<g>
			<path style="fill:#FFFFFF;" d="M55,69c12.389,0,18,3.452,18,4.5c0,1.048-5.611,4.5-18,4.5s-18-3.452-18-4.5
				C37,72.452,42.611,69,55,69 M55,67c-11.046,0-20,2.91-20,6.5c0,3.59,8.954,6.5,20,6.5s20-2.91,20-6.5C75,69.91,66.046,67,55,67
				L55,67z"/>
		</g>
		<g>
			<path style="fill:#009687;" d="M61.463,35.708c0.966-1.322,1.543-2.946,1.543-4.708c0-4.418-3.582-8-8-8c-4.419,0-8,3.582-8,8
				c0,1.762,0.576,3.386,1.542,4.708c-1.542,0.306-8.328,2.157-7.464,6.479l1.278,13.597C42.736,57.654,44.378,59,46.285,59h0.97
				l0.77,12.398C48.23,73.443,49.95,75,52.006,75h6c2.055,0,3.775-1.557,3.979-3.602L62.757,59h0.97
				c1.906,0,3.548-1.346,3.922-3.215l1.279-13.597C69.683,38.408,64.35,36.281,61.463,35.708z"/>
		</g>
		<g>
			<path style="fill:#00B8A5;" d="M55,23c-4.416,0.003-7.994,3.583-7.994,8c0,1.762,0.576,3.386,1.542,4.708
				c-1.542,0.306-8.328,2.157-7.464,6.479l1.278,13.597C42.736,57.654,44.378,59,46.285,59h0.97l0.77,12.398
				C48.23,73.443,49.95,75,52.006,75H55V23z"/>
		</g>
	</g>
</g>
<g id="Red" style="display:none;">
	<g style="display:inline;">
		<g>
			<path style="fill:#FFFFFF;" d="M55,63c17.68,0,30,5.797,30,11S72.68,85,55,85s-30-5.797-30-11S37.32,63,55,63 M55,61
				c-17.673,0-32,5.82-32,13s14.327,13,32,13s32-5.82,32-13S72.673,61,55,61L55,61z"/>
		</g>
		<g>
			<path style="fill:#FFFFFF;" d="M55,69c12.389,0,18,3.452,18,4.5c0,1.048-5.611,4.5-18,4.5s-18-3.452-18-4.5
				C37,72.452,42.611,69,55,69 M55,67c-11.046,0-20,2.91-20,6.5c0,3.59,8.954,6.5,20,6.5s20-2.91,20-6.5C75,69.91,66.046,67,55,67
				L55,67z"/>
		</g>
		<g>
			<path style="fill:#C23023;" d="M61.463,35.708c0.966-1.322,1.543-2.946,1.543-4.708c0-4.418-3.582-8-8-8c-4.419,0-8,3.582-8,8
				c0,1.762,0.576,3.386,1.542,4.708c-1.542,0.306-8.328,2.157-7.464,6.479l1.278,13.597C42.736,57.654,44.378,59,46.285,59h0.97
				l0.77,12.398C48.23,73.443,49.95,75,52.006,75h6c2.055,0,3.775-1.557,3.979-3.602L62.757,59h0.97
				c1.906,0,3.548-1.346,3.922-3.215l1.279-13.597C69.683,38.408,64.35,36.281,61.463,35.708z"/>
		</g>
		<g>
			<path style="fill:#E54B44;" d="M55,23c-4.416,0.003-7.994,3.583-7.994,8c0,1.762,0.576,3.386,1.542,4.708
				c-1.542,0.306-8.328,2.157-7.464,6.479l1.278,13.597C42.736,57.654,44.378,59,46.285,59h0.97l0.77,12.398
				C48.23,73.443,49.95,75,52.006,75H55V23z"/>
		</g>
	</g>
</g>
<g id="R-Red" style="display:none;">
	<g style="display:inline;">
		<circle style="fill:#FABBAF;" cx="55" cy="55" r="55"/>
	</g>
	<g style="display:inline;">
		<g>
			<path style="fill:#FFFFFF;" d="M55,63c17.68,0,30,5.797,30,11S72.68,85,55,85s-30-5.797-30-11S37.32,63,55,63 M55,61
				c-17.673,0-32,5.82-32,13s14.327,13,32,13s32-5.82,32-13S72.673,61,55,61L55,61z"/>
		</g>
		<g>
			<path style="fill:#FFFFFF;" d="M55,69c12.389,0,18,3.452,18,4.5c0,1.048-5.611,4.5-18,4.5s-18-3.452-18-4.5
				C37,72.452,42.611,69,55,69 M55,67c-11.046,0-20,2.91-20,6.5c0,3.59,8.954,6.5,20,6.5s20-2.91,20-6.5C75,69.91,66.046,67,55,67
				L55,67z"/>
		</g>
		<g>
			<path style="fill:#C23023;" d="M61.463,35.708c0.966-1.322,1.543-2.946,1.543-4.708c0-4.418-3.582-8-8-8c-4.419,0-8,3.582-8,8
				c0,1.762,0.576,3.386,1.542,4.708c-1.542,0.306-8.328,2.157-7.464,6.479l1.278,13.597C42.736,57.654,44.378,59,46.285,59h0.97
				l0.771,12.398C48.23,73.443,49.95,75,52.006,75h6c2.055,0,3.775-1.557,3.979-3.602L62.757,59h0.97
				c1.906,0,3.548-1.346,3.922-3.215l1.279-13.597C69.683,38.408,64.35,36.281,61.463,35.708z"/>
		</g>
		<g>
			<path style="fill:#E54B44;" d="M55,23c-4.416,0.003-7.994,3.583-7.994,8c0,1.762,0.576,3.386,1.542,4.708
				c-1.542,0.306-8.328,2.157-7.464,6.479l1.278,13.597C42.736,57.654,44.378,59,46.285,59h0.97l0.771,12.398
				C48.23,73.443,49.95,75,52.006,75H55V23z"/>
		</g>
	</g>
</g>
<g id="Yellow" style="display:none;">
	<g style="display:inline;">
		<g>
			<path style="fill:#FFFFFF;" d="M55,63c17.68,0,30,5.797,30,11S72.68,85,55,85s-30-5.797-30-11S37.32,63,55,63 M55,61
				c-17.673,0-32,5.82-32,13s14.327,13,32,13s32-5.82,32-13S72.673,61,55,61L55,61z"/>
		</g>
		<g>
			<path style="fill:#FFFFFF;" d="M55,69c12.389,0,18,3.452,18,4.5c0,1.048-5.611,4.5-18,4.5s-18-3.452-18-4.5
				C37,72.452,42.611,69,55,69 M55,67c-11.046,0-20,2.91-20,6.5c0,3.59,8.954,6.5,20,6.5s20-2.91,20-6.5C75,69.91,66.046,67,55,67
				L55,67z"/>
		</g>
		<g>
			<path style="fill:#E07000;" d="M61.463,35.708c0.966-1.322,1.543-2.946,1.543-4.708c0-4.418-3.582-8-8-8c-4.419,0-8,3.582-8,8
				c0,1.762,0.576,3.386,1.542,4.708c-1.542,0.306-8.328,2.157-7.464,6.479l1.278,13.597C42.736,57.654,44.378,59,46.285,59h0.97
				l0.771,12.398C48.23,73.443,49.95,75,52.006,75h6c2.055,0,3.775-1.557,3.979-3.602L62.757,59h0.97
				c1.906,0,3.548-1.346,3.922-3.215l1.279-13.597C69.683,38.408,64.35,36.281,61.463,35.708z"/>
		</g>
		<g>
			<path style="fill:#FA9200;" d="M55,23c-4.416,0.003-7.994,3.583-7.994,8c0,1.762,0.576,3.386,1.542,4.708
				c-1.542,0.306-8.328,2.157-7.464,6.479l1.278,13.597C42.736,57.654,44.378,59,46.285,59h0.97l0.771,12.398
				C48.23,73.443,49.95,75,52.006,75H55V23z"/>
		</g>
	</g>
</g>
<g id="R-Yellow" style="display:none;">
	<g style="display:inline;">
		<circle style="fill:#FFD75E;" cx="55" cy="55" r="55"/>
	</g>
	<g style="display:inline;">
		<g>
			<path style="fill:#FFFFFF;" d="M55,63c17.68,0,30,5.797,30,11S72.68,85,55,85s-30-5.797-30-11S37.32,63,55,63 M55,61
				c-17.673,0-32,5.82-32,13s14.327,13,32,13s32-5.82,32-13S72.673,61,55,61L55,61z"/>
		</g>
		<g>
			<path style="fill:#FFFFFF;" d="M55,69c12.389,0,18,3.452,18,4.5c0,1.048-5.611,4.5-18,4.5s-18-3.452-18-4.5
				C37,72.452,42.611,69,55,69 M55,67c-11.046,0-20,2.91-20,6.5c0,3.59,8.954,6.5,20,6.5s20-2.91,20-6.5C75,69.91,66.046,67,55,67
				L55,67z"/>
		</g>
		<g>
			<path style="fill:#E07000;" d="M61.463,35.708c0.966-1.322,1.543-2.946,1.543-4.708c0-4.418-3.582-8-8-8c-4.419,0-8,3.582-8,8
				c0,1.762,0.576,3.386,1.542,4.708c-1.542,0.306-8.328,2.157-7.464,6.479l1.278,13.597C42.736,57.654,44.378,59,46.285,59h0.97
				l0.771,12.398C48.23,73.443,49.95,75,52.006,75h6c2.055,0,3.775-1.557,3.979-3.602L62.757,59h0.97
				c1.906,0,3.548-1.346,3.922-3.215l1.279-13.597C69.683,38.408,64.35,36.281,61.463,35.708z"/>
		</g>
		<g>
			<path style="fill:#FA9200;" d="M55,23c-4.416,0.003-7.994,3.583-7.994,8c0,1.762,0.576,3.386,1.542,4.708
				c-1.542,0.306-8.328,2.157-7.464,6.479l1.278,13.597C42.736,57.654,44.378,59,46.285,59h0.97l0.771,12.398
				C48.23,73.443,49.95,75,52.006,75H55V23z"/>
		</g>
	</g>
</g>
</svg>
