<?xml version="1.0" encoding="iso-8859-1"?>
<!-- Generator: Adobe Illustrator 17.1.0, SVG Export Plug-In . SVG Version: 6.00 Build 0)  -->
<!DOCTYPE svg PUBLIC "-//W3C//DTD SVG 1.0//EN" "http://www.w3.org/TR/2001/REC-SVG-20010904/DTD/svg10.dtd">
<svg version="1.0" xmlns="http://www.w3.org/2000/svg" xmlns:xlink="http://www.w3.org/1999/xlink" x="0px" y="0px" width="110px"
	 height="110px" viewBox="0 0 110 110" style="enable-background:new 0 0 110 110;" xml:space="preserve">
<g id="Artboard" style="display:none;">
	
		<rect x="-174.5" y="-153.5" style="display:inline;fill:#808080;stroke:#000000;stroke-miterlimit:10;" width="1335" height="316"/>
</g>
<g id="R-Multicolor" style="display:none;">
	<g style="display:inline;">
		<circle style="fill:#E04F5F;" cx="55" cy="55" r="55"/>
	</g>
	<g style="display:inline;">
		<path style="fill:#0484AB;" d="M83,76c-0.615-1.333-1.698-2.395-3.043-2.983L65,69v-6.006l-5.105,3.996
			c-0.569,0.639-1.384,1.004-2.24,1.004H55h-2.655c-0.856,0-1.671-0.365-2.24-1.004L45,62.994V69l-14.957,4.017
			C28.698,73.605,27.615,74.667,27,76l-4,11h32h32L83,76z"/>
		<g>
			<path style="fill:#21B2D1;" d="M25.614,79.812L23,87h32h32l-2.143-5.894c-5.901-3.613-17.504-6.07-30.857-6.07
				C42.312,75.036,31.971,76.92,25.614,79.812z"/>
		</g>
		<path style="fill:#FFFFFF;" d="M66,69.275c0-0.264-0.214-0.479-0.479-0.479c-0.264,0-0.478,0.214-0.478,0.479
			c0,2.625-4.941,5.703-8.298,7.411c-0.504-0.951-1.124-1.672-1.745-1.672s-1.241,0.721-1.745,1.672
			c-3.357-1.707-8.299-4.785-8.299-7.411c0-0.264-0.214-0.479-0.478-0.479c-0.264,0-0.479,0.214-0.479,0.479
			c0,3.338,5.731,6.696,8.853,8.277c-0.439,1.071-0.721,2.237-0.721,2.973c0,1.66,0.001,5.01,2.869,5.01s2.87-3.35,2.87-5.01
			c0-0.736-0.283-1.903-0.722-2.974C60.271,75.97,66,72.613,66,69.275z"/>
		<g>
			<circle style="fill:#F37A10;" cx="55" cy="81.71" r="1.913"/>
		</g>
		<path style="fill:#FBC8C8;" d="M70,44.997c-1,0-1,1.111-1,1.111v-3.114c-0.003-1.647-0.041-3.193-0.178-4.622
			c-8.553,2.738-21.336,2.574-27.076-3.224c-0.623,2.214-0.74,4.864-0.746,7.845v10l4,10l5.105,3.996
			c0.569,0.639,1.384,1.004,2.24,1.004H55h2.655c0.856,0,1.671-0.365,2.24-1.004L65,62.994l3.207-8.017
			C71.042,54.773,72,50.473,72,47.219C72,46.108,71,44.997,70,44.997z"/>
		<path style="fill:#FBD7D7;" d="M41.746,35.149c-0.623,2.214-0.74,4.864-0.746,7.845v3.114c0,0,0-1.111-1-1.111s-2,1.111-2,2.222
			c0,3.253,0.958,7.554,3.793,7.758L45,62.994l5.105,3.996c0.569,0.639,1.384,1.004,2.24,1.004H55V40.015
			C49.727,39.685,44.763,38.196,41.746,35.149z"/>
		<g>
			<path style="fill:#3E3E3F;" d="M52,46.994c0-1.104-0.896-2-2-2c-0.002,0-0.004,0-0.006,0C49.995,45.016,50,45.036,50,45.057
				c0,1.103-0.892,1.996-1.994,2c0.033,1.075,0.91,1.938,1.994,1.938C51.104,48.994,52,48.099,52,46.994z"/>
		</g>
		<g>
			<path style="fill:#3E3E3F;" d="M61.994,46.994c0-1.104-0.896-2-2-2c-0.002,0-0.004,0-0.006,0
				c0.001,0.021,0.006,0.041,0.006,0.062c0,1.103-0.892,1.996-1.994,2c0.033,1.075,0.91,1.938,1.994,1.938
				C61.098,48.994,61.994,48.099,61.994,46.994z"/>
		</g>
		<g>
			<path style="fill:#F79392;" d="M50,56.994h10c0,0,0,3-5,3S50,56.994,50,56.994z"/>
		</g>
		<path style="fill:#F3B607;" d="M75,35.261C73.089,21.373,42.079,20.2,41.049,32.489C39.832,33.175,39,34.464,39,35.961v9.036
			c2,1,2,1.981,2,3.792v1.172h2V36.239c5.734,4.365,16.153,4.664,24,2.653v11.069h2v-1.172c0-1.811,0-2.792,2-3.792v-7.424
			C72.588,36.906,73.956,36.128,75,35.261z"/>
		<path style="fill:#FACB1B;" d="M55,24.022c-7.114,0.21-13.493,3.006-13.951,8.467C39.832,33.175,39,34.464,39,35.961v9.036
			c2,1,2,1.981,2,3.792v1.172h2V36.239c3.042,2.316,7.405,3.478,12,3.767V24.022z"/>
	</g>
</g>
<g id="Multicolor">
	<g>
		<path style="fill:#0484AB;" d="M83,76c-0.615-1.333-1.698-2.395-3.043-2.983L65,69v-6.006l-5.105,3.996
			c-0.569,0.639-1.384,1.004-2.24,1.004H55h-2.655c-0.856,0-1.671-0.365-2.24-1.004L45,62.994V69l-14.957,4.017
			C28.698,73.605,27.615,74.667,27,76l-4,11h32h32L83,76z"/>
		<g>
			<path style="fill:#21B2D1;" d="M25.614,79.812L23,87h32h32l-2.143-5.894c-5.901-3.613-17.504-6.07-30.857-6.07
				C42.312,75.036,31.971,76.92,25.614,79.812z"/>
		</g>
		<path style="fill:#FFFFFF;" d="M66,69.275c0-0.264-0.214-0.479-0.479-0.479c-0.264,0-0.478,0.214-0.478,0.479
			c0,2.625-4.941,5.703-8.298,7.411c-0.504-0.951-1.124-1.672-1.745-1.672s-1.241,0.721-1.745,1.672
			c-3.357-1.707-8.299-4.785-8.299-7.411c0-0.264-0.214-0.479-0.478-0.479c-0.264,0-0.479,0.214-0.479,0.479
			c0,3.338,5.731,6.696,8.853,8.277c-0.439,1.071-0.721,2.237-0.721,2.973c0,1.66,0.001,5.01,2.869,5.01s2.87-3.35,2.87-5.01
			c0-0.736-0.283-1.903-0.722-2.974C60.271,75.97,66,72.613,66,69.275z"/>
		<g>
			<circle style="fill:#F37A10;" cx="55" cy="81.71" r="1.913"/>
		</g>
		<path style="fill:#FBC8C8;" d="M70,44.997c-1,0-1,1.111-1,1.111v-3.114c-0.003-1.647-0.041-3.193-0.178-4.622
			c-8.553,2.738-21.336,2.574-27.076-3.224c-0.623,2.214-0.74,4.864-0.746,7.845v10l4,10l5.105,3.996
			c0.569,0.639,1.384,1.004,2.24,1.004H55h2.655c0.856,0,1.671-0.365,2.24-1.004L65,62.994l3.207-8.017
			C71.042,54.773,72,50.473,72,47.219C72,46.108,71,44.997,70,44.997z"/>
		<path style="fill:#FBD7D7;" d="M41.746,35.149c-0.623,2.214-0.74,4.864-0.746,7.845v3.114c0,0,0-1.111-1-1.111s-2,1.111-2,2.222
			c0,3.253,0.958,7.554,3.793,7.758L45,62.994l5.105,3.996c0.569,0.639,1.384,1.004,2.24,1.004H55V40.015
			C49.727,39.685,44.763,38.196,41.746,35.149z"/>
		<g>
			<path style="fill:#3E3E3F;" d="M52,46.994c0-1.104-0.896-2-2-2c-0.002,0-0.004,0-0.006,0C49.995,45.016,50,45.036,50,45.057
				c0,1.103-0.892,1.996-1.994,2c0.033,1.075,0.91,1.938,1.994,1.938C51.104,48.994,52,48.099,52,46.994z"/>
		</g>
		<g>
			<path style="fill:#3E3E3F;" d="M61.994,46.994c0-1.104-0.896-2-2-2c-0.002,0-0.004,0-0.006,0
				c0.001,0.021,0.006,0.041,0.006,0.062c0,1.103-0.892,1.996-1.994,2c0.033,1.075,0.91,1.938,1.994,1.938
				C61.098,48.994,61.994,48.099,61.994,46.994z"/>
		</g>
		<g>
			<path style="fill:#F79392;" d="M50,56.994h10c0,0,0,3-5,3S50,56.994,50,56.994z"/>
		</g>
		<path style="fill:#F3B607;" d="M75,35.261C73.089,21.373,42.079,20.2,41.049,32.489C39.832,33.175,39,34.464,39,35.961v9.036
			c2,1,2,1.981,2,3.792v1.172h2V36.239c5.734,4.365,16.153,4.664,24,2.653v11.069h2v-1.172c0-1.811,0-2.792,2-3.792v-7.424
			C72.588,36.906,73.956,36.128,75,35.261z"/>
		<path style="fill:#FACB1B;" d="M55,24.022c-7.114,0.21-13.493,3.006-13.951,8.467C39.832,33.175,39,34.464,39,35.961v9.036
			c2,1,2,1.981,2,3.792v1.172h2V36.239c3.042,2.316,7.405,3.478,12,3.767V24.022z"/>
	</g>
</g>
<g id="Blue" style="display:none;">
	<g style="display:inline;">
		<path style="fill:#0F6175;" d="M83,76c-0.615-1.333-1.698-2.394-3.044-2.983L65,69v-6.006l-5.105,3.996
			c-0.569,0.639-1.384,1.004-2.24,1.004H55h-2.655c-0.856,0-1.671-0.365-2.24-1.004L45,62.994V69l-14.958,4.017
			C28.698,73.606,27.615,74.667,27,76l-4,11h32h32L83,76z"/>
		<g>
			<path style="fill:#009FC7;" d="M25.614,79.812L23,87h32h32l-2.143-5.894c-5.901-3.612-17.504-6.07-30.857-6.07
				C42.312,75.036,31.971,76.92,25.614,79.812z"/>
		</g>
		<path style="fill:#FFFFFF;" d="M66,69.275c0-0.264-0.214-0.479-0.479-0.479c-0.264,0-0.478,0.214-0.478,0.479
			c0,2.624-4.941,5.703-8.298,7.41c-0.504-0.95-1.124-1.671-1.745-1.671c-0.621,0-1.241,0.721-1.745,1.672
			c-3.358-1.706-8.299-4.785-8.299-7.411c0-0.264-0.214-0.479-0.478-0.479c-0.264,0-0.479,0.214-0.479,0.479
			c0,3.338,5.73,6.695,8.853,8.277c-0.439,1.071-0.721,2.237-0.721,2.973c0,1.66,0.001,5.01,2.869,5.01s2.87-3.351,2.87-5.01
			c0-0.736-0.283-1.903-0.722-2.974C60.271,75.97,66,72.613,66,69.275z"/>
		<g>
			<circle style="fill:#00B7E5;" cx="55" cy="81.71" r="1.913"/>
		</g>
		<path style="fill:#E1F5FA;" d="M70,44.997c-1,0-1,1.111-1,1.111v-3.114c-0.003-1.647-0.041-3.193-0.178-4.622
			c-8.554,2.738-21.337,2.574-27.076-3.224c-0.623,2.214-0.74,4.864-0.746,7.845v10l4,10l5.105,3.996
			c0.569,0.639,1.384,1.004,2.24,1.004H55h2.655c0.856,0,1.671-0.365,2.24-1.004L65,62.994l3.206-8.017
			C71.041,54.773,72,50.473,72,47.219C72,46.108,71,44.997,70,44.997z"/>
		<path style="fill:#FFFFFF;" d="M41.746,35.149c-0.623,2.214-0.74,4.864-0.746,7.845v3.114c0,0,0-1.111-1-1.111s-2,1.111-2,2.222
			c0,3.254,0.958,7.554,3.793,7.758L45,62.994l5.105,3.996c0.569,0.639,1.384,1.004,2.24,1.004H55V40.015
			C49.727,39.685,44.763,38.196,41.746,35.149z"/>
		<g>
			<path style="fill:#0C333D;" d="M52,46.994c0-1.104-0.896-2-2-2c-0.002,0-0.004,0.001-0.006,0.001
				C49.995,45.016,50,45.036,50,45.057c0,1.103-0.892,1.996-1.994,2c0.033,1.075,0.91,1.938,1.994,1.938
				C51.104,48.994,52,48.099,52,46.994z"/>
		</g>
		<g>
			<path style="fill:#0C333D;" d="M61.994,46.994c0-1.104-0.896-2-2-2c-0.002,0-0.004,0.001-0.006,0.001
				c0.001,0.021,0.006,0.041,0.006,0.062c0,1.103-0.892,1.996-1.994,2c0.033,1.075,0.91,1.938,1.994,1.938
				C61.098,48.994,61.994,48.099,61.994,46.994z"/>
		</g>
		<g>
			<path style="fill:#53BAD4;" d="M50,56.994h10c0,0,0,3-5,3S50,56.994,50,56.994z"/>
		</g>
		<path style="fill:#0C333D;" d="M75,35.261C73.089,21.373,42.079,20.2,41.049,32.489C39.832,33.175,39,34.464,39,35.961v9.036
			c2,1,2,1.98,2,3.792v1.172h2V36.239c5.734,4.365,16.153,4.664,24,2.653v11.069h2v-1.172c0-1.812,0-2.792,2-3.792v-7.424
			C72.588,36.906,73.956,36.128,75,35.261z"/>
		<path style="fill:#0F6175;" d="M55,24.021c-7.114,0.21-13.493,3.006-13.951,8.467C39.832,33.175,39,34.464,39,35.961v9.036
			c2,1,2,1.98,2,3.792v1.172h2V36.239c3.042,2.315,7.405,3.478,12,3.767V24.021z"/>
	</g>
</g>
<g id="R-Blue" style="display:none;">
	<g style="display:inline;">
		<circle style="fill:#81D2EB;" cx="55" cy="55" r="55"/>
	</g>
	<g style="display:inline;">
		<path style="fill:#0F6175;" d="M83,76c-0.615-1.333-1.698-2.394-3.044-2.983L65,69v-6.006l-5.105,3.996
			c-0.569,0.639-1.384,1.004-2.24,1.004H55h-2.655c-0.856,0-1.671-0.365-2.24-1.004L45,62.994V69l-14.958,4.017
			C28.698,73.606,27.615,74.667,27,76l-4,11h32h32L83,76z"/>
		<g>
			<path style="fill:#009FC7;" d="M25.614,79.812L23,87h32h32l-2.143-5.894c-5.901-3.612-17.504-6.07-30.857-6.07
				C42.312,75.036,31.971,76.92,25.614,79.812z"/>
		</g>
		<path style="fill:#FFFFFF;" d="M66,69.275c0-0.264-0.214-0.479-0.479-0.479c-0.264,0-0.478,0.214-0.478,0.479
			c0,2.624-4.941,5.703-8.298,7.41c-0.504-0.95-1.124-1.671-1.745-1.671c-0.621,0-1.241,0.721-1.745,1.672
			c-3.358-1.706-8.299-4.785-8.299-7.411c0-0.264-0.214-0.479-0.478-0.479c-0.264,0-0.479,0.214-0.479,0.479
			c0,3.338,5.73,6.695,8.853,8.277c-0.439,1.071-0.721,2.237-0.721,2.973c0,1.66,0.001,5.01,2.869,5.01s2.87-3.351,2.87-5.01
			c0-0.736-0.283-1.903-0.722-2.974C60.271,75.97,66,72.613,66,69.275z"/>
		<g>
			<circle style="fill:#00B7E5;" cx="55" cy="81.71" r="1.913"/>
		</g>
		<path style="fill:#E1F5FA;" d="M70,44.997c-1,0-1,1.111-1,1.111v-3.114c-0.003-1.647-0.041-3.193-0.178-4.622
			c-8.554,2.738-21.337,2.574-27.076-3.224c-0.623,2.214-0.74,4.864-0.746,7.845v10l4,10l5.105,3.996
			c0.569,0.639,1.384,1.004,2.24,1.004H55h2.655c0.856,0,1.671-0.365,2.24-1.004L65,62.994l3.206-8.017
			C71.041,54.773,72,50.473,72,47.219C72,46.108,71,44.997,70,44.997z"/>
		<path style="fill:#FFFFFF;" d="M41.746,35.149c-0.623,2.214-0.74,4.864-0.746,7.845v3.114c0,0,0-1.111-1-1.111s-2,1.111-2,2.222
			c0,3.254,0.958,7.554,3.793,7.758L45,62.994l5.105,3.996c0.569,0.639,1.384,1.004,2.24,1.004H55V40.015
			C49.727,39.685,44.763,38.196,41.746,35.149z"/>
		<g>
			<path style="fill:#0C333D;" d="M52,46.994c0-1.104-0.896-2-2-2c-0.002,0-0.004,0.001-0.006,0.001
				C49.995,45.016,50,45.036,50,45.057c0,1.103-0.892,1.996-1.994,2c0.033,1.075,0.91,1.938,1.994,1.938
				C51.104,48.994,52,48.099,52,46.994z"/>
		</g>
		<g>
			<path style="fill:#0C333D;" d="M61.994,46.994c0-1.104-0.896-2-2-2c-0.002,0-0.004,0.001-0.006,0.001
				c0.001,0.021,0.006,0.041,0.006,0.062c0,1.103-0.892,1.996-1.994,2c0.033,1.075,0.91,1.938,1.994,1.938
				C61.098,48.994,61.994,48.099,61.994,46.994z"/>
		</g>
		<g>
			<path style="fill:#53BAD4;" d="M50,56.994h10c0,0,0,3-5,3S50,56.994,50,56.994z"/>
		</g>
		<path style="fill:#0C333D;" d="M75,35.261C73.089,21.373,42.079,20.2,41.049,32.489C39.832,33.175,39,34.464,39,35.961v9.036
			c2,1,2,1.98,2,3.792v1.172h2V36.239c5.734,4.365,16.153,4.664,24,2.653v11.069h2v-1.172c0-1.812,0-2.792,2-3.792v-7.424
			C72.588,36.906,73.956,36.128,75,35.261z"/>
		<path style="fill:#0F6175;" d="M55,24.021c-7.114,0.21-13.493,3.006-13.951,8.467C39.832,33.175,39,34.464,39,35.961v9.036
			c2,1,2,1.98,2,3.792v1.172h2V36.239c3.042,2.315,7.405,3.478,12,3.767V24.021z"/>
	</g>
</g>
<g id="Green" style="display:none;">
	<g style="display:inline;">
		<path style="fill:#14635B;" d="M83,76c-0.615-1.333-1.698-2.394-3.044-2.983L65,69v-6.006l-5.105,3.996
			c-0.569,0.639-1.384,1.004-2.24,1.004H55h-2.655c-0.856,0-1.671-0.365-2.24-1.004L45,62.994V69l-14.958,4.017
			C28.698,73.606,27.615,74.667,27,76l-4,11h32h32L83,76z"/>
		<g>
			<path style="fill:#00B8A5;" d="M25.614,79.812L23,87h32h32l-2.143-5.894c-5.901-3.612-17.504-6.07-30.857-6.07
				C42.312,75.036,31.971,76.92,25.614,79.812z"/>
		</g>
		<path style="fill:#FFFFFF;" d="M66,69.275c0-0.264-0.214-0.479-0.479-0.479c-0.264,0-0.478,0.214-0.478,0.479
			c0,2.624-4.941,5.703-8.298,7.41c-0.504-0.95-1.124-1.671-1.745-1.671c-0.621,0-1.241,0.721-1.745,1.672
			c-3.358-1.706-8.299-4.785-8.299-7.411c0-0.264-0.214-0.479-0.478-0.479c-0.264,0-0.479,0.214-0.479,0.479
			c0,3.338,5.73,6.695,8.853,8.277c-0.439,1.071-0.721,2.237-0.721,2.973c0,1.66,0.001,5.01,2.869,5.01s2.87-3.351,2.87-5.01
			c0-0.736-0.283-1.903-0.722-2.974C60.271,75.97,66,72.613,66,69.275z"/>
		<g>
			<circle style="fill:#00D6C1;" cx="55" cy="81.71" r="1.913"/>
		</g>
		<path style="fill:#D7FCF9;" d="M70,44.997c-1,0-1,1.111-1,1.111v-3.114c-0.003-1.647-0.041-3.193-0.178-4.622
			c-8.554,2.738-21.337,2.574-27.076-3.224c-0.623,2.214-0.74,4.864-0.746,7.845v10l4,10l5.105,3.996
			c0.569,0.639,1.384,1.004,2.24,1.004H55h2.655c0.856,0,1.671-0.365,2.24-1.004L65,62.994l3.206-8.017
			C71.041,54.773,72,50.473,72,47.219C72,46.108,71,44.997,70,44.997z"/>
		<path style="fill:#FFFFFF;" d="M41.746,35.149c-0.623,2.214-0.74,4.864-0.746,7.845v3.114c0,0,0-1.111-1-1.111s-2,1.111-2,2.222
			c0,3.254,0.958,7.554,3.793,7.758L45,62.994l5.105,3.996c0.569,0.639,1.384,1.004,2.24,1.004H55V40.015
			C49.727,39.685,44.763,38.196,41.746,35.149z"/>
		<g>
			<path style="fill:#0A3631;" d="M52,46.994c0-1.104-0.896-2-2-2c-0.002,0-0.004,0.001-0.006,0.001
				C49.995,45.016,50,45.036,50,45.057c0,1.103-0.892,1.996-1.994,2c0.033,1.075,0.91,1.938,1.994,1.938
				C51.104,48.994,52,48.099,52,46.994z"/>
		</g>
		<g>
			<path style="fill:#0A3631;" d="M61.994,46.994c0-1.104-0.896-2-2-2c-0.002,0-0.004,0.001-0.006,0.001
				c0.001,0.021,0.006,0.041,0.006,0.062c0,1.103-0.892,1.996-1.994,2c0.033,1.075,0.91,1.938,1.994,1.938
				C61.098,48.994,61.994,48.099,61.994,46.994z"/>
		</g>
		<g>
			<path style="fill:#55C9BE;" d="M50,56.994h10c0,0,0,3-5,3S50,56.994,50,56.994z"/>
		</g>
		<path style="fill:#0A3631;" d="M75,35.261C73.089,21.373,42.079,20.2,41.049,32.489C39.832,33.175,39,34.464,39,35.961v9.036
			c2,1,2,1.98,2,3.792v1.172h2V36.239c5.734,4.365,16.153,4.664,24,2.653v11.069h2v-1.172c0-1.812,0-2.792,2-3.792v-7.424
			C72.588,36.906,73.956,36.128,75,35.261z"/>
		<path style="fill:#14635B;" d="M55,24.021c-7.114,0.21-13.493,3.006-13.951,8.467C39.832,33.175,39,34.464,39,35.961v9.036
			c2,1,2,1.98,2,3.792v1.172h2V36.239c3.042,2.315,7.405,3.478,12,3.767V24.021z"/>
	</g>
</g>
<g id="R-Green" style="display:none;">
	<g style="display:inline;">
		<circle style="fill:#77E0C4;" cx="55" cy="55" r="55"/>
	</g>
	<g style="display:inline;">
		<path style="fill:#14635B;" d="M83,76c-0.615-1.333-1.698-2.394-3.044-2.983L65,69v-6.006l-5.105,3.996
			c-0.569,0.639-1.384,1.004-2.24,1.004H55h-2.655c-0.856,0-1.671-0.365-2.24-1.004L45,62.994V69l-14.958,4.017
			C28.698,73.606,27.615,74.667,27,76l-4,11h32h32L83,76z"/>
		<g>
			<path style="fill:#00B8A5;" d="M25.614,79.812L23,87h32h32l-2.143-5.894c-5.901-3.612-17.504-6.07-30.857-6.07
				C42.312,75.036,31.971,76.92,25.614,79.812z"/>
		</g>
		<path style="fill:#FFFFFF;" d="M66,69.275c0-0.264-0.214-0.479-0.479-0.479c-0.264,0-0.478,0.214-0.478,0.479
			c0,2.624-4.941,5.703-8.298,7.41c-0.504-0.95-1.124-1.671-1.745-1.671c-0.621,0-1.241,0.721-1.745,1.672
			c-3.358-1.706-8.299-4.785-8.299-7.411c0-0.264-0.214-0.479-0.478-0.479c-0.264,0-0.479,0.214-0.479,0.479
			c0,3.338,5.73,6.695,8.853,8.277c-0.439,1.071-0.721,2.237-0.721,2.973c0,1.66,0.001,5.01,2.869,5.01s2.87-3.351,2.87-5.01
			c0-0.736-0.283-1.903-0.722-2.974C60.271,75.97,66,72.613,66,69.275z"/>
		<g>
			<circle style="fill:#00D6C1;" cx="55" cy="81.71" r="1.913"/>
		</g>
		<path style="fill:#D7FCF9;" d="M70,44.997c-1,0-1,1.111-1,1.111v-3.114c-0.003-1.647-0.041-3.193-0.178-4.622
			c-8.554,2.738-21.337,2.574-27.076-3.224c-0.623,2.214-0.74,4.864-0.746,7.845v10l4,10l5.105,3.996
			c0.569,0.639,1.384,1.004,2.24,1.004H55h2.655c0.856,0,1.671-0.365,2.24-1.004L65,62.994l3.206-8.017
			C71.041,54.773,72,50.473,72,47.219C72,46.108,71,44.997,70,44.997z"/>
		<path style="fill:#FFFFFF;" d="M41.746,35.149c-0.623,2.214-0.74,4.864-0.746,7.845v3.114c0,0,0-1.111-1-1.111s-2,1.111-2,2.222
			c0,3.254,0.958,7.554,3.793,7.758L45,62.994l5.105,3.996c0.569,0.639,1.384,1.004,2.24,1.004H55V40.015
			C49.727,39.685,44.763,38.196,41.746,35.149z"/>
		<g>
			<path style="fill:#0A3631;" d="M52,46.994c0-1.104-0.896-2-2-2c-0.002,0-0.004,0.001-0.006,0.001
				C49.995,45.016,50,45.036,50,45.057c0,1.103-0.892,1.996-1.994,2c0.033,1.075,0.91,1.938,1.994,1.938
				C51.104,48.994,52,48.099,52,46.994z"/>
		</g>
		<g>
			<path style="fill:#0A3631;" d="M61.994,46.994c0-1.104-0.896-2-2-2c-0.002,0-0.004,0.001-0.006,0.001
				c0.001,0.021,0.006,0.041,0.006,0.062c0,1.103-0.892,1.996-1.994,2c0.033,1.075,0.91,1.938,1.994,1.938
				C61.098,48.994,61.994,48.099,61.994,46.994z"/>
		</g>
		<g>
			<path style="fill:#55C9BE;" d="M50,56.994h10c0,0,0,3-5,3S50,56.994,50,56.994z"/>
		</g>
		<path style="fill:#0A3631;" d="M75,35.261C73.089,21.373,42.079,20.2,41.049,32.489C39.832,33.175,39,34.464,39,35.961v9.036
			c2,1,2,1.98,2,3.792v1.172h2V36.239c5.734,4.365,16.153,4.664,24,2.653v11.069h2v-1.172c0-1.812,0-2.792,2-3.792v-7.424
			C72.588,36.906,73.956,36.128,75,35.261z"/>
		<path style="fill:#14635B;" d="M55,24.021c-7.114,0.21-13.493,3.006-13.951,8.467C39.832,33.175,39,34.464,39,35.961v9.036
			c2,1,2,1.98,2,3.792v1.172h2V36.239c3.042,2.315,7.405,3.478,12,3.767V24.021z"/>
	</g>
</g>
<g id="Red" style="display:none;">
	<g style="display:inline;">
		<path style="fill:#7D261E;" d="M83,76.065c-0.615-1.333-1.698-2.395-3.044-2.983L65,69.065v-6.006l-5.105,3.996
			c-0.569,0.639-1.384,1.004-2.24,1.004H55h-2.655c-0.856,0-1.671-0.365-2.24-1.004L45,63.059v6.006l-14.958,4.017
			c-1.345,0.588-2.427,1.65-3.042,2.983l-4,11h32h32L83,76.065z"/>
		<g>
			<path style="fill:#E54B44;" d="M25.614,79.877L23,87.065h32h32l-2.143-5.894c-5.901-3.612-17.504-6.07-30.857-6.07
				C42.312,75.101,31.971,76.985,25.614,79.877z"/>
		</g>
		<path style="fill:#FFFFFF;" d="M66,69.34c0-0.264-0.214-0.479-0.479-0.479c-0.264,0-0.478,0.214-0.478,0.479
			c0,2.624-4.941,5.703-8.298,7.41c-0.504-0.95-1.124-1.671-1.745-1.671c-0.621,0-1.241,0.721-1.745,1.672
			c-3.358-1.707-8.299-4.785-8.299-7.411c0-0.264-0.214-0.479-0.478-0.479c-0.264,0-0.479,0.214-0.479,0.479
			c0,3.338,5.73,6.695,8.853,8.277c-0.439,1.071-0.721,2.237-0.721,2.973c0,1.66,0.001,5.01,2.869,5.01s2.87-3.351,2.87-5.01
			c0-0.736-0.283-1.903-0.722-2.974C60.271,76.035,66,72.678,66,69.34z"/>
		<g>
			<circle style="fill:#FF6C5E;" cx="55" cy="81.775" r="1.913"/>
		</g>
		<path style="fill:#FFEFED;" d="M70,45.062c-1,0-1,1.111-1,1.111v-3.114c-0.003-1.647-0.041-3.193-0.178-4.622
			c-8.554,2.738-21.337,2.574-27.076-3.224c-0.623,2.214-0.74,4.864-0.746,7.845v10l4,10l5.105,3.996
			c0.569,0.639,1.384,1.004,2.24,1.004H55h2.655c0.856,0,1.671-0.365,2.24-1.004L65,63.059l3.206-8.017
			C71.041,54.838,72,50.537,72,47.284C72,46.173,71,45.062,70,45.062z"/>
		<path style="fill:#FFFFFF;" d="M41.746,35.214c-0.623,2.214-0.74,4.864-0.746,7.845v3.114c0,0,0-1.111-1-1.111s-2,1.111-2,2.222
			c0,3.254,0.958,7.554,3.793,7.758L45,63.059l5.105,3.996c0.569,0.639,1.384,1.004,2.24,1.004H55V40.08
			C49.727,39.749,44.763,38.261,41.746,35.214z"/>
		<g>
			<path style="fill:#4A1410;" d="M52,47.059c0-1.104-0.896-2-2-2c-0.002,0-0.004,0-0.006,0C49.995,45.08,50,45.1,50,45.121
				c0,1.103-0.892,1.996-1.994,2c0.033,1.075,0.91,1.938,1.994,1.938C51.104,49.059,52,48.163,52,47.059z"/>
		</g>
		<g>
			<path style="fill:#4A1410;" d="M61.994,47.059c0-1.104-0.896-2-2-2c-0.002,0-0.004,0-0.006,0
				c0.001,0.021,0.006,0.041,0.006,0.062c0,1.103-0.892,1.996-1.994,2c0.033,1.075,0.91,1.938,1.994,1.938
				C61.098,49.059,61.994,48.163,61.994,47.059z"/>
		</g>
		<g>
			<path style="fill:#E8A099;" d="M50,57.059h10c0,0,0,3-5,3S50,57.059,50,57.059z"/>
		</g>
		<path style="fill:#4A1410;" d="M75,35.325c-1.911-13.888-32.921-15.061-33.951-2.772C39.832,33.24,39,34.529,39,36.026v9.036
			c2,1,2,1.98,2,3.792v1.172h2V36.304c5.734,4.365,16.153,4.663,24,2.653v11.069h2v-1.172c0-1.812,0-2.792,2-3.792v-7.424
			C72.588,36.971,73.956,36.193,75,35.325z"/>
		<path style="fill:#7D261E;" d="M55,24.086c-7.114,0.21-13.493,3.006-13.951,8.467C39.832,33.24,39,34.529,39,36.026v9.036
			c2,1,2,1.98,2,3.792v1.172h2V36.304c3.042,2.315,7.405,3.477,12,3.767V24.086z"/>
	</g>
</g>
<g id="R-Red" style="display:none;">
	<g style="display:inline;">
		<circle style="fill:#FABBAF;" cx="55" cy="55" r="55"/>
	</g>
	<g style="display:inline;">
		<path style="fill:#7D261E;" d="M83,76c-0.615-1.333-1.698-2.394-3.044-2.983L65,69v-6.006l-5.105,3.996
			c-0.569,0.639-1.384,1.004-2.24,1.004H55h-2.655c-0.856,0-1.671-0.365-2.24-1.004L45,62.994V69l-14.958,4.017
			C28.698,73.606,27.615,74.667,27,76l-4,11h32h32L83,76z"/>
		<g>
			<path style="fill:#E54B44;" d="M25.614,79.812L23,87h32h32l-2.143-5.894c-5.901-3.612-17.504-6.07-30.857-6.07
				C42.312,75.036,31.971,76.92,25.614,79.812z"/>
		</g>
		<path style="fill:#FFFFFF;" d="M66,69.275c0-0.264-0.214-0.479-0.479-0.479c-0.264,0-0.478,0.214-0.478,0.479
			c0,2.624-4.941,5.703-8.298,7.41c-0.504-0.95-1.124-1.671-1.745-1.671c-0.621,0-1.241,0.721-1.745,1.672
			c-3.358-1.706-8.299-4.785-8.299-7.411c0-0.264-0.214-0.479-0.478-0.479c-0.264,0-0.479,0.214-0.479,0.479
			c0,3.338,5.73,6.695,8.853,8.277c-0.439,1.071-0.721,2.237-0.721,2.973c0,1.66,0.001,5.01,2.869,5.01s2.87-3.351,2.87-5.01
			c0-0.736-0.283-1.903-0.722-2.974C60.271,75.97,66,72.613,66,69.275z"/>
		<g>
			<circle style="fill:#FF6C5E;" cx="55" cy="81.71" r="1.913"/>
		</g>
		<path style="fill:#FFEFED;" d="M70,44.997c-1,0-1,1.111-1,1.111v-3.114c-0.003-1.647-0.041-3.193-0.178-4.622
			c-8.554,2.738-21.337,2.574-27.076-3.224c-0.623,2.214-0.74,4.864-0.746,7.845v10l4,10l5.105,3.996
			c0.569,0.639,1.384,1.004,2.24,1.004H55h2.655c0.856,0,1.671-0.365,2.24-1.004L65,62.994l3.206-8.017
			C71.041,54.773,72,50.473,72,47.219C72,46.108,71,44.997,70,44.997z"/>
		<path style="fill:#FFFFFF;" d="M41.746,35.149c-0.623,2.214-0.74,4.864-0.746,7.845v3.114c0,0,0-1.111-1-1.111s-2,1.111-2,2.222
			c0,3.254,0.958,7.554,3.793,7.758L45,62.994l5.105,3.996c0.569,0.639,1.384,1.004,2.24,1.004H55V40.015
			C49.727,39.685,44.763,38.196,41.746,35.149z"/>
		<g>
			<path style="fill:#4A1410;" d="M52,46.994c0-1.104-0.896-2-2-2c-0.002,0-0.004,0.001-0.006,0.001
				C49.995,45.016,50,45.036,50,45.057c0,1.103-0.892,1.996-1.994,2c0.033,1.075,0.91,1.938,1.994,1.938
				C51.104,48.994,52,48.099,52,46.994z"/>
		</g>
		<g>
			<path style="fill:#4A1410;" d="M61.994,46.994c0-1.104-0.896-2-2-2c-0.002,0-0.004,0.001-0.006,0.001
				c0.001,0.021,0.006,0.041,0.006,0.062c0,1.103-0.892,1.996-1.994,2c0.033,1.075,0.91,1.938,1.994,1.938
				C61.098,48.994,61.994,48.099,61.994,46.994z"/>
		</g>
		<g>
			<path style="fill:#E8A099;" d="M50,56.994h10c0,0,0,3-5,3S50,56.994,50,56.994z"/>
		</g>
		<path style="fill:#4A1410;" d="M75,35.261C73.089,21.373,42.079,20.2,41.049,32.489C39.832,33.175,39,34.464,39,35.961v9.036
			c2,1,2,1.98,2,3.792v1.172h2V36.239c5.734,4.365,16.153,4.664,24,2.653v11.069h2v-1.172c0-1.812,0-2.792,2-3.792v-7.424
			C72.588,36.906,73.956,36.128,75,35.261z"/>
		<path style="fill:#7D261E;" d="M55,24.021c-7.114,0.21-13.493,3.006-13.951,8.467C39.832,33.175,39,34.464,39,35.961v9.036
			c2,1,2,1.98,2,3.792v1.172h2V36.239c3.042,2.315,7.405,3.478,12,3.767V24.021z"/>
	</g>
</g>
<g id="Yellow" style="display:none;">
	<g style="display:inline;">
		<path style="fill:#66510D;" d="M83,76c-0.615-1.333-1.698-2.394-3.044-2.983L65,69v-6.006l-5.105,3.996
			c-0.569,0.639-1.384,1.004-2.24,1.004H55h-2.655c-0.856,0-1.671-0.365-2.24-1.004L45,62.994V69l-14.958,4.017
			C28.698,73.606,27.615,74.667,27,76l-4,11h32h32L83,76z"/>
		<g>
			<path style="fill:#FA9200;" d="M25.614,79.812L23,87h32h32l-2.143-5.894c-5.901-3.612-17.504-6.07-30.857-6.07
				C42.312,75.036,31.971,76.92,25.614,79.812z"/>
		</g>
		<path style="fill:#FFFFFF;" d="M66,69.275c0-0.264-0.214-0.479-0.479-0.479c-0.264,0-0.478,0.214-0.478,0.479
			c0,2.624-4.941,5.703-8.298,7.41c-0.504-0.95-1.124-1.671-1.745-1.671c-0.621,0-1.241,0.721-1.745,1.672
			c-3.358-1.706-8.299-4.785-8.299-7.411c0-0.264-0.214-0.479-0.478-0.479c-0.264,0-0.479,0.214-0.479,0.479
			c0,3.338,5.73,6.695,8.853,8.277c-0.439,1.071-0.721,2.237-0.721,2.973c0,1.66,0.001,5.01,2.869,5.01s2.87-3.351,2.87-5.01
			c0-0.736-0.283-1.903-0.722-2.974C60.271,75.97,66,72.613,66,69.275z"/>
		<g>
			<circle style="fill:#FFAA00;" cx="55" cy="81.71" r="1.913"/>
		</g>
		<path style="fill:#FFF5D9;" d="M70,44.997c-1,0-1,1.111-1,1.111v-3.114c-0.003-1.647-0.041-3.193-0.178-4.622
			c-8.554,2.738-21.337,2.574-27.076-3.224c-0.623,2.214-0.74,4.864-0.746,7.845v10l4,10l5.105,3.996
			c0.569,0.639,1.384,1.004,2.24,1.004H55h2.655c0.856,0,1.671-0.365,2.24-1.004L65,62.994l3.206-8.017
			C71.041,54.773,72,50.473,72,47.219C72,46.108,71,44.997,70,44.997z"/>
		<path style="fill:#FFFFFF;" d="M41.746,35.149c-0.623,2.214-0.74,4.864-0.746,7.845v3.114c0,0,0-1.111-1-1.111s-2,1.111-2,2.222
			c0,3.254,0.958,7.554,3.793,7.758L45,62.994l5.105,3.996c0.569,0.639,1.384,1.004,2.24,1.004H55V40.015
			C49.727,39.685,44.763,38.196,41.746,35.149z"/>
		<g>
			<path style="fill:#3D320C;" d="M52,46.994c0-1.104-0.896-2-2-2c-0.002,0-0.004,0.001-0.006,0.001
				C49.995,45.016,50,45.036,50,45.057c0,1.103-0.892,1.996-1.994,2c0.033,1.075,0.91,1.938,1.994,1.938
				C51.104,48.994,52,48.099,52,46.994z"/>
		</g>
		<g>
			<path style="fill:#3D320C;" d="M61.994,46.994c0-1.104-0.896-2-2-2c-0.002,0-0.004,0.001-0.006,0.001
				c0.001,0.021,0.006,0.041,0.006,0.062c0,1.103-0.892,1.996-1.994,2c0.033,1.075,0.91,1.938,1.994,1.938
				C61.098,48.994,61.994,48.099,61.994,46.994z"/>
		</g>
		<g>
			<path style="fill:#F5C43D;" d="M50,56.994h10c0,0,0,3-5,3S50,56.994,50,56.994z"/>
		</g>
		<path style="fill:#3D320C;" d="M75,35.261C73.089,21.373,42.079,20.2,41.049,32.489C39.832,33.175,39,34.464,39,35.961v9.036
			c2,1,2,1.98,2,3.792v1.172h2V36.239c5.734,4.365,16.153,4.664,24,2.653v11.069h2v-1.172c0-1.812,0-2.792,2-3.792v-7.424
			C72.588,36.906,73.956,36.128,75,35.261z"/>
		<path style="fill:#66510D;" d="M55,24.021c-7.114,0.21-13.493,3.006-13.951,8.467C39.832,33.175,39,34.464,39,35.961v9.036
			c2,1,2,1.98,2,3.792v1.172h2V36.239c3.042,2.315,7.405,3.478,12,3.767V24.021z"/>
	</g>
</g>
<g id="R-Yellow" style="display:none;">
	<g style="display:inline;">
		<circle style="fill:#FFD75E;" cx="55" cy="55" r="55"/>
	</g>
	<g style="display:inline;">
		<path style="fill:#66510D;" d="M83,76c-0.615-1.333-1.698-2.394-3.044-2.983L65,69v-6.006l-5.105,3.996
			c-0.569,0.639-1.384,1.004-2.24,1.004H55h-2.655c-0.856,0-1.671-0.365-2.24-1.004L45,62.994V69l-14.958,4.017
			C28.698,73.606,27.615,74.667,27,76l-4,11h32h32L83,76z"/>
		<g>
			<path style="fill:#FA9200;" d="M25.614,79.812L23,87h32h32l-2.143-5.894c-5.901-3.612-17.504-6.07-30.857-6.07
				C42.312,75.036,31.971,76.92,25.614,79.812z"/>
		</g>
		<path style="fill:#FFFFFF;" d="M66,69.275c0-0.264-0.214-0.479-0.479-0.479c-0.264,0-0.478,0.214-0.478,0.479
			c0,2.624-4.941,5.703-8.298,7.41c-0.504-0.95-1.124-1.671-1.745-1.671c-0.621,0-1.241,0.721-1.745,1.672
			c-3.358-1.706-8.299-4.785-8.299-7.411c0-0.264-0.214-0.479-0.478-0.479c-0.264,0-0.479,0.214-0.479,0.479
			c0,3.338,5.73,6.695,8.853,8.277c-0.439,1.071-0.721,2.237-0.721,2.973c0,1.66,0.001,5.01,2.869,5.01s2.87-3.351,2.87-5.01
			c0-0.736-0.283-1.903-0.722-2.974C60.271,75.97,66,72.613,66,69.275z"/>
		<g>
			<circle style="fill:#FFAA00;" cx="55" cy="81.71" r="1.913"/>
		</g>
		<path style="fill:#FFF5D9;" d="M70,44.997c-1,0-1,1.111-1,1.111v-3.114c-0.003-1.647-0.041-3.193-0.178-4.622
			c-8.554,2.738-21.337,2.574-27.076-3.224c-0.623,2.214-0.74,4.864-0.746,7.845v10l4,10l5.105,3.996
			c0.569,0.639,1.384,1.004,2.24,1.004H55h2.655c0.856,0,1.671-0.365,2.24-1.004L65,62.994l3.206-8.017
			C71.041,54.773,72,50.473,72,47.219C72,46.108,71,44.997,70,44.997z"/>
		<path style="fill:#FFFFFF;" d="M41.746,35.149c-0.623,2.214-0.74,4.864-0.746,7.845v3.114c0,0,0-1.111-1-1.111s-2,1.111-2,2.222
			c0,3.254,0.958,7.554,3.793,7.758L45,62.994l5.105,3.996c0.569,0.639,1.384,1.004,2.24,1.004H55V40.015
			C49.727,39.685,44.763,38.196,41.746,35.149z"/>
		<g>
			<path style="fill:#3D320C;" d="M52,46.994c0-1.104-0.896-2-2-2c-0.002,0-0.004,0.001-0.006,0.001
				C49.995,45.016,50,45.036,50,45.057c0,1.103-0.892,1.996-1.994,2c0.033,1.075,0.91,1.938,1.994,1.938
				C51.104,48.994,52,48.099,52,46.994z"/>
		</g>
		<g>
			<path style="fill:#3D320C;" d="M61.994,46.994c0-1.104-0.896-2-2-2c-0.002,0-0.004,0.001-0.006,0.001
				c0.001,0.021,0.006,0.041,0.006,0.062c0,1.103-0.892,1.996-1.994,2c0.033,1.075,0.91,1.938,1.994,1.938
				C61.098,48.994,61.994,48.099,61.994,46.994z"/>
		</g>
		<g>
			<path style="fill:#F5C43D;" d="M50,56.994h10c0,0,0,3-5,3S50,56.994,50,56.994z"/>
		</g>
		<path style="fill:#3D320C;" d="M75,35.261C73.089,21.373,42.079,20.2,41.049,32.489C39.832,33.175,39,34.464,39,35.961v9.036
			c2,1,2,1.98,2,3.792v1.172h2V36.239c5.734,4.365,16.153,4.664,24,2.653v11.069h2v-1.172c0-1.812,0-2.792,2-3.792v-7.424
			C72.588,36.906,73.956,36.128,75,35.261z"/>
		<path style="fill:#66510D;" d="M55,24.021c-7.114,0.21-13.493,3.006-13.951,8.467C39.832,33.175,39,34.464,39,35.961v9.036
			c2,1,2,1.98,2,3.792v1.172h2V36.239c3.042,2.315,7.405,3.478,12,3.767V24.021z"/>
	</g>
</g>
</svg>
