<?xml version="1.0" encoding="iso-8859-1"?>
<!-- Generator: Adobe Illustrator 17.1.0, SVG Export Plug-In . SVG Version: 6.00 Build 0)  -->
<!DOCTYPE svg PUBLIC "-//W3C//DTD SVG 1.0//EN" "http://www.w3.org/TR/2001/REC-SVG-20010904/DTD/svg10.dtd">
<svg version="1.0" xmlns="http://www.w3.org/2000/svg" xmlns:xlink="http://www.w3.org/1999/xlink" x="0px" y="0px" width="110px"
	 height="110px" viewBox="0 0 110 110" style="enable-background:new 0 0 110 110;" xml:space="preserve">
<g id="Artboard" style="display:none;">
	
		<rect x="-577.5" y="-186.5" style="display:inline;fill:#808080;stroke:#000000;stroke-miterlimit:10;" width="1390" height="340"/>
</g>
<g id="R-Multicolor" style="display:none;">
	<g style="display:inline;">
		<circle style="fill:#E04F5F;" cx="55" cy="55" r="55"/>
	</g>
	<g style="display:inline;">
		<g>
			<path style="fill:#12B2A0;" d="M83,76c-0.615-1.333-1.698-2.395-3.043-2.983L68,69H55H42l-11.957,4.017
				C28.698,73.605,27.615,74.667,27,76l-4,11h32h32L83,76z"/>
		</g>
		<g>
			<path style="fill:#C2FCF5;" d="M55,79.036c3.857,0,13-1,13-7c0-0.676,0-1.789,0-3.072h-3v3.072c0,0-2,4-10,4s-10-4-10-4v-3.072
				h-3c0,1.283,0,2.396,0,3.072C42,78.036,51.143,79.036,55,79.036z"/>
		</g>
		<g>
			<rect x="32" y="80.036" style="fill:#C2FCF5;" width="11" height="3"/>
		</g>
		<path style="fill:#F7B4B4;" d="M57.655,68H55h-2.655c-0.856,0-1.671-0.365-2.24-1.005L45,63v9c0,0,2,4,10,4s10-4,10-4v-9
			l-5.105,3.995C59.326,67.635,58.511,68,57.655,68z"/>
		<path style="fill:#FBC8C8;" d="M50.105,66.995L45,63v9.036c0,0,2,4,10,4V68h-2.655C51.489,68,50.674,67.635,50.105,66.995z"/>
		<path style="fill:#FBC8C8;" d="M70,45.036c-1,0-1,1.111-1,1.111V45c-0.006-2.843-0.111-5.582-0.661-8H55H41.661
			c-0.549,2.418-0.655,5.157-0.661,8v1.147c0,0,0-1.111-1-1.111s-2,1.111-2,2.222c0,3.259,0.961,7.568,3.807,7.76L45,63l5.105,3.995
			c0.569,0.64,1.384,1.005,2.24,1.005H55h2.655c0.856,0,1.671-0.365,2.24-1.005L65,63l3.193-7.982
			C71.039,54.827,72,50.517,72,47.258C72,46.147,71,45.036,70,45.036z"/>
		<path style="fill:#FBD7D7;" d="M41.661,37c-0.549,2.418-0.655,5.157-0.661,8v1.147c0,0,0-1.111-1-1.111s-2,1.111-2,2.222
			c0,3.259,0.961,7.568,3.807,7.76L45,63l5.105,3.995c0.569,0.64,1.384,1.005,2.24,1.005H55V37H41.661z"/>
		<g>
			<path style="fill:#3E3E3F;" d="M52,47.036c0-1.104-0.896-2-2-2c-0.002,0-0.004,0-0.006,0C49.995,45.058,50,45.078,50,45.099
				c0,1.103-0.892,1.996-1.994,2c0.033,1.075,0.91,1.938,1.994,1.938C51.104,49.036,52,48.141,52,47.036z"/>
		</g>
		<g>
			<path style="fill:#3E3E3F;" d="M61.994,47.036c0-1.104-0.896-2-2-2c-0.002,0-0.004,0-0.006,0
				c0.001,0.021,0.006,0.041,0.006,0.062c0,1.103-0.892,1.996-1.994,2c0.033,1.075,0.91,1.938,1.994,1.938
				C61.098,49.036,61.994,48.141,61.994,47.036z"/>
		</g>
		<g>
			<path style="fill:#12B2A0;" d="M55,51.036c-7,0-5,6-13,6c0,5,7,12,13,12s13-7,13-12C60,57.036,62,51.036,55,51.036z"/>
		</g>
		<path style="fill:#84462D;" d="M67,50h2v-1.172c0-1.811,0-2.792,2-3.792V37h-4V50z"/>
		<path style="fill:#84462D;" d="M39,37v8.036c2,1,2,1.981,2,3.792V50h2V37H39z"/>
		<g>
			<path style="fill:#12B2A0;" d="M71,37H39v-6.25c0-4.28,3.47-7.75,7.75-7.75h16.5c4.28,0,7.75,3.47,7.75,7.75V37z"/>
		</g>
		<g>
			<path style="fill:#47C4B7;" d="M55,23h-8.25C42.47,23,39,26.47,39,30.75V37h16V23z"/>
		</g>
		<g>
			<path style="fill:#47C4B7;" d="M42,57.036c0,5,7,12,13,12v-18C48,51.036,50,57.036,42,57.036z"/>
		</g>
		<g>
			<rect x="39" y="37" style="fill:#C2FCF5;" width="32" height="2"/>
		</g>
	</g>
</g>
<g id="Multicolor">
	<g>
		<g>
			<path style="fill:#12B2A0;" d="M83,76c-0.615-1.333-1.698-2.395-3.043-2.983L68,69H55H42l-11.957,4.017
				C28.698,73.605,27.615,74.667,27,76l-4,11h32h32L83,76z"/>
		</g>
		<g>
			<path style="fill:#C2FCF5;" d="M55,79.036c3.857,0,13-1,13-7c0-0.676,0-1.789,0-3.072h-3v3.072c0,0-2,4-10,4s-10-4-10-4v-3.072
				h-3c0,1.283,0,2.396,0,3.072C42,78.036,51.143,79.036,55,79.036z"/>
		</g>
		<g>
			<rect x="32" y="80.036" style="fill:#C2FCF5;" width="11" height="3"/>
		</g>
		<path style="fill:#F7B4B4;" d="M57.655,68H55h-2.655c-0.856,0-1.671-0.365-2.24-1.005L45,63v9c0,0,2,4,10,4s10-4,10-4v-9
			l-5.105,3.995C59.326,67.635,58.511,68,57.655,68z"/>
		<path style="fill:#FBC8C8;" d="M50.105,66.995L45,63v9.036c0,0,2,4,10,4V68h-2.655C51.489,68,50.674,67.635,50.105,66.995z"/>
		<path style="fill:#FBC8C8;" d="M70,45.036c-1,0-1,1.111-1,1.111V45c-0.006-2.843-0.111-5.582-0.661-8H55H41.661
			c-0.549,2.418-0.655,5.157-0.661,8v1.147c0,0,0-1.111-1-1.111s-2,1.111-2,2.222c0,3.259,0.961,7.568,3.807,7.76L45,63l5.105,3.995
			c0.569,0.64,1.384,1.005,2.24,1.005H55h2.655c0.856,0,1.671-0.365,2.24-1.005L65,63l3.193-7.982
			C71.039,54.827,72,50.517,72,47.258C72,46.147,71,45.036,70,45.036z"/>
		<path style="fill:#FBD7D7;" d="M41.661,37c-0.549,2.418-0.655,5.157-0.661,8v1.147c0,0,0-1.111-1-1.111s-2,1.111-2,2.222
			c0,3.259,0.961,7.568,3.807,7.76L45,63l5.105,3.995c0.569,0.64,1.384,1.005,2.24,1.005H55V37H41.661z"/>
		<g>
			<path style="fill:#3E3E3F;" d="M52,47.036c0-1.104-0.896-2-2-2c-0.002,0-0.004,0-0.006,0C49.995,45.058,50,45.078,50,45.099
				c0,1.103-0.892,1.996-1.994,2c0.033,1.075,0.91,1.938,1.994,1.938C51.104,49.036,52,48.141,52,47.036z"/>
		</g>
		<g>
			<path style="fill:#3E3E3F;" d="M61.994,47.036c0-1.104-0.896-2-2-2c-0.002,0-0.004,0-0.006,0
				c0.001,0.021,0.006,0.041,0.006,0.062c0,1.103-0.892,1.996-1.994,2c0.033,1.075,0.91,1.938,1.994,1.938
				C61.098,49.036,61.994,48.141,61.994,47.036z"/>
		</g>
		<g>
			<path style="fill:#12B2A0;" d="M55,51.036c-7,0-5,6-13,6c0,5,7,12,13,12s13-7,13-12C60,57.036,62,51.036,55,51.036z"/>
		</g>
		<path style="fill:#84462D;" d="M67,50h2v-1.172c0-1.811,0-2.792,2-3.792V37h-4V50z"/>
		<path style="fill:#84462D;" d="M39,37v8.036c2,1,2,1.981,2,3.792V50h2V37H39z"/>
		<g>
			<path style="fill:#12B2A0;" d="M71,37H39v-6.25c0-4.28,3.47-7.75,7.75-7.75h16.5c4.28,0,7.75,3.47,7.75,7.75V37z"/>
		</g>
		<g>
			<path style="fill:#47C4B7;" d="M55,23h-8.25C42.47,23,39,26.47,39,30.75V37h16V23z"/>
		</g>
		<g>
			<path style="fill:#47C4B7;" d="M42,57.036c0,5,7,12,13,12v-18C48,51.036,50,57.036,42,57.036z"/>
		</g>
		<g>
			<rect x="39" y="37" style="fill:#C2FCF5;" width="32" height="2"/>
		</g>
	</g>
</g>
<g id="Blue" style="display:none;">
	<g style="display:inline;">
		<g>
			<path style="fill:#009FC7;" d="M83,76c-0.615-1.333-1.698-2.394-3.044-2.983L68,69H55H42l-11.958,4.017
				C28.698,73.606,27.615,74.667,27,76l-4,11h32h32L83,76z"/>
		</g>
		<g>
			<path style="fill:#FFFFFF;" d="M55,79.036c3.857,0,13-1,13-7c0-0.676,0-1.789,0-3.072h-3v3.072c0,0-2,4-10,4s-10-4-10-4v-3.072
				h-3c0,1.283,0,2.396,0,3.072C42,78.036,51.143,79.036,55,79.036z"/>
		</g>
		<g>
			<rect x="32" y="80.036" style="fill:#00B7E5;" width="11" height="3"/>
		</g>
		<path style="fill:#BBE7F2;" d="M57.655,68H55h-2.655c-0.856,0-1.671-0.365-2.24-1.005L45,63v9c0,0,2,4,10,4s10-4,10-4v-9
			l-5.106,3.995C59.326,67.635,58.511,68,57.655,68z"/>
		<path style="fill:#E1F5FA;" d="M50.105,66.995L45,63v9.036c0,0,2,4,10,4V68h-2.655C51.489,68,50.674,67.635,50.105,66.995z"/>
		<path style="fill:#E1F5FA;" d="M70,45.036c-1,0-1,1.111-1,1.111V45c-0.006-2.843-0.111-5.582-0.661-8H55H41.661
			c-0.549,2.418-0.655,5.157-0.661,8v1.148c0,0,0-1.111-1-1.111s-2,1.111-2,2.222c0,3.259,0.961,7.568,3.807,7.76L45,63l5.105,3.995
			c0.569,0.64,1.384,1.005,2.24,1.005H55h2.655c0.856,0,1.671-0.365,2.24-1.005L65,63l3.193-7.982
			C71.039,54.827,72,50.517,72,47.258C72,46.148,71,45.036,70,45.036z"/>
		<path style="fill:#FFFFFF;" d="M41.661,37c-0.549,2.418-0.655,5.157-0.661,8v1.148c0,0,0-1.111-1-1.111s-2,1.111-2,2.222
			c0,3.259,0.961,7.568,3.807,7.76L45,63l5.105,3.995c0.569,0.64,1.384,1.005,2.24,1.005H55V37H41.661z"/>
		<g>
			<path style="fill:#0C333D;" d="M52,47.036c0-1.104-0.896-2-2-2c-0.002,0-0.004,0-0.006,0C49.995,45.058,50,45.078,50,45.099
				c0,1.103-0.892,1.996-1.994,2c0.033,1.075,0.91,1.938,1.994,1.938C51.104,49.036,52,48.141,52,47.036z"/>
		</g>
		<g>
			<path style="fill:#0C333D;" d="M61.994,47.036c0-1.104-0.896-2-2-2c-0.002,0-0.004,0-0.006,0
				c0.001,0.021,0.006,0.041,0.006,0.062c0,1.103-0.892,1.996-1.994,2c0.033,1.075,0.91,1.938,1.994,1.938
				C61.098,49.036,61.994,48.141,61.994,47.036z"/>
		</g>
		<g>
			<path style="fill:#0081A1;" d="M55,51.036c-7,0-5,6-13,6c0,5,7,12,13,12s13-7,13-12C60,57.036,62,51.036,55,51.036z"/>
		</g>
		<path style="fill:#0F6175;" d="M67,50h2v-1.172c0-1.811,0-2.792,2-3.792V37h-4V50z"/>
		<path style="fill:#0F6175;" d="M39,37v8.036c2,1,2,1.981,2,3.792V50h2V37H39z"/>
		<g>
			<path style="fill:#0081A1;" d="M71,37H39v-6.25c0-4.28,3.47-7.75,7.75-7.75h16.5c4.28,0,7.75,3.47,7.75,7.75V37z"/>
		</g>
		<g>
			<path style="fill:#009FC7;" d="M55,23h-8.25C42.47,23,39,26.47,39,30.75V37h16V23z"/>
		</g>
		<g>
			<path style="fill:#009FC7;" d="M42,57.036c0,5,7,12,13,12v-18C48,51.036,50,57.036,42,57.036z"/>
		</g>
		<g>
			<rect x="39" y="37" style="fill:#00B7E5;" width="32" height="2"/>
		</g>
	</g>
</g>
<g id="R-Blue" style="display:none;">
	<g style="display:inline;">
		<circle style="fill:#81D2EB;" cx="55" cy="55" r="55"/>
	</g>
	<g style="display:inline;">
		<g>
			<path style="fill:#009FC7;" d="M83,76c-0.615-1.333-1.698-2.394-3.044-2.983L68,69H55H42l-11.958,4.017
				C28.698,73.606,27.615,74.667,27,76l-4,11h32h32L83,76z"/>
		</g>
		<g>
			<path style="fill:#FFFFFF;" d="M55,79.036c3.857,0,13-1,13-7c0-0.676,0-1.789,0-3.072h-3v3.072c0,0-2,4-10,4s-10-4-10-4v-3.072
				h-3c0,1.283,0,2.396,0,3.072C42,78.036,51.143,79.036,55,79.036z"/>
		</g>
		<g>
			<rect x="32" y="80.036" style="fill:#00B7E5;" width="11" height="3"/>
		</g>
		<path style="fill:#BBE7F2;" d="M57.655,68H55h-2.655c-0.856,0-1.671-0.365-2.24-1.005L45,63v9c0,0,2,4,10,4s10-4,10-4v-9
			l-5.106,3.995C59.326,67.635,58.511,68,57.655,68z"/>
		<path style="fill:#E1F5FA;" d="M50.105,66.995L45,63v9.036c0,0,2,4,10,4V68h-2.655C51.489,68,50.674,67.635,50.105,66.995z"/>
		<path style="fill:#E1F5FA;" d="M70,45.036c-1,0-1,1.111-1,1.111V45c-0.006-2.843-0.111-5.582-0.661-8H55H41.661
			c-0.549,2.418-0.655,5.157-0.661,8v1.148c0,0,0-1.111-1-1.111s-2,1.111-2,2.222c0,3.259,0.961,7.568,3.807,7.76L45,63l5.105,3.995
			c0.569,0.64,1.384,1.005,2.24,1.005H55h2.655c0.856,0,1.671-0.365,2.24-1.005L65,63l3.193-7.982
			C71.039,54.827,72,50.517,72,47.258C72,46.148,71,45.036,70,45.036z"/>
		<path style="fill:#FFFFFF;" d="M41.661,37c-0.549,2.418-0.655,5.157-0.661,8v1.148c0,0,0-1.111-1-1.111s-2,1.111-2,2.222
			c0,3.259,0.961,7.568,3.807,7.76L45,63l5.105,3.995c0.569,0.64,1.384,1.005,2.24,1.005H55V37H41.661z"/>
		<g>
			<path style="fill:#0C333D;" d="M52,47.036c0-1.104-0.896-2-2-2c-0.002,0-0.004,0-0.006,0C49.995,45.058,50,45.078,50,45.099
				c0,1.103-0.892,1.996-1.994,2c0.033,1.075,0.91,1.938,1.994,1.938C51.104,49.036,52,48.141,52,47.036z"/>
		</g>
		<g>
			<path style="fill:#0C333D;" d="M61.994,47.036c0-1.104-0.896-2-2-2c-0.002,0-0.004,0-0.006,0
				c0.001,0.021,0.006,0.041,0.006,0.062c0,1.103-0.892,1.996-1.994,2c0.033,1.075,0.91,1.938,1.994,1.938
				C61.098,49.036,61.994,48.141,61.994,47.036z"/>
		</g>
		<g>
			<path style="fill:#0081A1;" d="M55,51.036c-7,0-5,6-13,6c0,5,7,12,13,12s13-7,13-12C60,57.036,62,51.036,55,51.036z"/>
		</g>
		<path style="fill:#0F6175;" d="M67,50h2v-1.172c0-1.811,0-2.792,2-3.792V37h-4V50z"/>
		<path style="fill:#0F6175;" d="M39,37v8.036c2,1,2,1.981,2,3.792V50h2V37H39z"/>
		<g>
			<path style="fill:#0081A1;" d="M71,37H39v-6.25c0-4.28,3.47-7.75,7.75-7.75h16.5c4.28,0,7.75,3.47,7.75,7.75V37z"/>
		</g>
		<g>
			<path style="fill:#009FC7;" d="M55,23h-8.25C42.47,23,39,26.47,39,30.75V37h16V23z"/>
		</g>
		<g>
			<path style="fill:#009FC7;" d="M42,57.036c0,5,7,12,13,12v-18C48,51.036,50,57.036,42,57.036z"/>
		</g>
		<g>
			<rect x="39" y="37" style="fill:#00B7E5;" width="32" height="2"/>
		</g>
	</g>
</g>
<g id="Green" style="display:none;">
	<g style="display:inline;">
		<g>
			<path style="fill:#00B8A5;" d="M83,76c-0.615-1.333-1.698-2.395-3.044-2.983L68,69H55H42l-11.958,4.017
				C28.698,73.605,27.615,74.667,27,76l-4,11h32h32L83,76z"/>
		</g>
		<g>
			<path style="fill:#FFFFFF;" d="M55,79.036c3.857,0,13-1,13-7c0-0.676,0-1.789,0-3.072h-3v3.072c0,0-2,4-10,4s-10-4-10-4v-3.072
				h-3c0,1.283,0,2.396,0,3.072C42,78.036,51.143,79.036,55,79.036z"/>
		</g>
		<g>
			<rect x="32" y="80.036" style="fill:#00D6C1;" width="11" height="3"/>
		</g>
		<path style="fill:#AAF0E9;" d="M57.655,68H55h-2.655c-0.856,0-1.671-0.365-2.24-1.005L45,63v9c0,0,2,4,10,4s10-4,10-4v-9
			l-5.106,3.995C59.326,67.635,58.511,68,57.655,68z"/>
		<path style="fill:#D7FCF9;" d="M50.105,66.995L45,63v9.036c0,0,2,4,10,4V68h-2.655C51.489,68,50.674,67.635,50.105,66.995z"/>
		<path style="fill:#D7FCF9;" d="M70,45.036c-1,0-1,1.111-1,1.111V45c-0.006-2.843-0.111-5.582-0.661-8H55H41.661
			c-0.549,2.418-0.655,5.157-0.661,8v1.147c0,0,0-1.111-1-1.111s-2,1.111-2,2.222c0,3.259,0.961,7.568,3.807,7.76L45,63l5.105,3.995
			c0.569,0.64,1.384,1.005,2.24,1.005H55h2.655c0.856,0,1.671-0.365,2.24-1.005L65,63l3.193-7.982
			C71.039,54.827,72,50.517,72,47.258C72,46.147,71,45.036,70,45.036z"/>
		<path style="fill:#FFFFFF;" d="M41.661,37c-0.549,2.418-0.655,5.157-0.661,8v1.147c0,0,0-1.111-1-1.111s-2,1.111-2,2.222
			c0,3.259,0.961,7.568,3.807,7.76L45,63l5.105,3.995c0.569,0.64,1.384,1.005,2.24,1.005H55V37H41.661z"/>
		<g>
			<path style="fill:#0A3631;" d="M52,47.036c0-1.104-0.896-2-2-2c-0.002,0-0.004,0.001-0.006,0.001
				C49.995,45.058,50,45.078,50,45.099c0,1.103-0.892,1.996-1.994,2c0.033,1.075,0.91,1.938,1.994,1.938
				C51.104,49.036,52,48.141,52,47.036z"/>
		</g>
		<g>
			<path style="fill:#0A3631;" d="M61.994,47.036c0-1.104-0.896-2-2-2c-0.002,0-0.004,0.001-0.006,0.001
				c0.001,0.021,0.006,0.041,0.006,0.062c0,1.103-0.892,1.996-1.994,2c0.033,1.075,0.91,1.938,1.994,1.938
				C61.098,49.036,61.994,48.141,61.994,47.036z"/>
		</g>
		<g>
			<path style="fill:#009687;" d="M55,51.036c-7,0-5,6-13,6c0,5,7,12,13,12s13-7,13-12C60,57.036,62,51.036,55,51.036z"/>
		</g>
		<path style="fill:#14635B;" d="M67,50h2v-1.172c0-1.811,0-2.792,2-3.792V37h-4V50z"/>
		<path style="fill:#14635B;" d="M39,37v8.036c2,1,2,1.981,2,3.792V50h2V37H39z"/>
		<g>
			<path style="fill:#009687;" d="M71,37H39v-6.25c0-4.28,3.47-7.75,7.75-7.75h16.5c4.28,0,7.75,3.47,7.75,7.75V37z"/>
		</g>
		<g>
			<path style="fill:#00B8A5;" d="M55,23h-8.25C42.47,23,39,26.47,39,30.75V37h16V23z"/>
		</g>
		<g>
			<path style="fill:#00B8A5;" d="M42,57.036c0,5,7,12,13,12v-18C48,51.036,50,57.036,42,57.036z"/>
		</g>
		<g>
			<rect x="39" y="37" style="fill:#00D6C1;" width="32" height="2"/>
		</g>
	</g>
</g>
<g id="R-Green" style="display:none;">
	<g style="display:inline;">
		<circle style="fill:#77E0C4;" cx="55" cy="55" r="55"/>
	</g>
	<g style="display:inline;">
		<g>
			<path style="fill:#00B8A5;" d="M83,76c-0.615-1.333-1.698-2.394-3.044-2.983L68,69H55H42l-11.958,4.017
				C28.698,73.606,27.615,74.667,27,76l-4,11h32h32L83,76z"/>
		</g>
		<g>
			<path style="fill:#FFFFFF;" d="M55,79.036c3.857,0,13-1,13-7c0-0.676,0-1.789,0-3.072h-3v3.072c0,0-2,4-10,4s-10-4-10-4v-3.072
				h-3c0,1.283,0,2.396,0,3.072C42,78.036,51.143,79.036,55,79.036z"/>
		</g>
		<g>
			<rect x="32" y="80.036" style="fill:#00D6C1;" width="11" height="3"/>
		</g>
		<path style="fill:#AAF0E9;" d="M57.655,68H55h-2.655c-0.856,0-1.671-0.365-2.24-1.005L45,63v9c0,0,2,4,10,4s10-4,10-4v-9
			l-5.106,3.995C59.326,67.635,58.511,68,57.655,68z"/>
		<path style="fill:#D7FCF9;" d="M50.105,66.995L45,63v9.036c0,0,2,4,10,4V68h-2.655C51.489,68,50.674,67.635,50.105,66.995z"/>
		<path style="fill:#D7FCF9;" d="M70,45.036c-1,0-1,1.111-1,1.111V45c-0.006-2.843-0.111-5.582-0.661-8H55H41.661
			c-0.549,2.418-0.655,5.157-0.661,8v1.148c0,0,0-1.111-1-1.111s-2,1.111-2,2.222c0,3.259,0.961,7.568,3.807,7.76L45,63l5.105,3.995
			c0.569,0.64,1.384,1.005,2.24,1.005H55h2.655c0.856,0,1.671-0.365,2.24-1.005L65,63l3.193-7.982
			C71.039,54.827,72,50.517,72,47.258C72,46.148,71,45.036,70,45.036z"/>
		<path style="fill:#FFFFFF;" d="M41.661,37c-0.549,2.418-0.655,5.157-0.661,8v1.148c0,0,0-1.111-1-1.111s-2,1.111-2,2.222
			c0,3.259,0.961,7.568,3.807,7.76L45,63l5.105,3.995c0.569,0.64,1.384,1.005,2.24,1.005H55V37H41.661z"/>
		<g>
			<path style="fill:#0A3631;" d="M52,47.036c0-1.104-0.896-2-2-2c-0.002,0-0.004,0-0.006,0C49.995,45.058,50,45.078,50,45.099
				c0,1.103-0.892,1.996-1.994,2c0.033,1.075,0.91,1.938,1.994,1.938C51.104,49.036,52,48.141,52,47.036z"/>
		</g>
		<g>
			<path style="fill:#0A3631;" d="M61.994,47.036c0-1.104-0.896-2-2-2c-0.002,0-0.004,0-0.006,0
				c0.001,0.021,0.006,0.041,0.006,0.062c0,1.103-0.892,1.996-1.994,2c0.033,1.075,0.91,1.938,1.994,1.938
				C61.098,49.036,61.994,48.141,61.994,47.036z"/>
		</g>
		<g>
			<path style="fill:#009687;" d="M55,51.036c-7,0-5,6-13,6c0,5,7,12,13,12s13-7,13-12C60,57.036,62,51.036,55,51.036z"/>
		</g>
		<path style="fill:#14635B;" d="M67,50h2v-1.172c0-1.811,0-2.792,2-3.792V37h-4V50z"/>
		<path style="fill:#14635B;" d="M39,37v8.036c2,1,2,1.981,2,3.792V50h2V37H39z"/>
		<g>
			<path style="fill:#009687;" d="M71,37H39v-6.25c0-4.28,3.47-7.75,7.75-7.75h16.5c4.28,0,7.75,3.47,7.75,7.75V37z"/>
		</g>
		<g>
			<path style="fill:#00B8A5;" d="M55,23h-8.25C42.47,23,39,26.47,39,30.75V37h16V23z"/>
		</g>
		<g>
			<path style="fill:#00B8A5;" d="M42,57.036c0,5,7,12,13,12v-18C48,51.036,50,57.036,42,57.036z"/>
		</g>
		<g>
			<rect x="39" y="37" style="fill:#00D6C1;" width="32" height="2"/>
		</g>
	</g>
</g>
<g id="Red" style="display:none;">
	<g style="display:inline;">
		<g>
			<path style="fill:#E54B44;" d="M83,76c-0.615-1.333-1.698-2.394-3.044-2.983L68,69H55H42l-11.958,4.017
				C28.698,73.606,27.615,74.667,27,76l-4,11h32h32L83,76z"/>
		</g>
		<g>
			<path style="fill:#FFFFFF;" d="M55,79.036c3.857,0,13-1,13-7c0-0.676,0-1.789,0-3.072h-3v3.072c0,0-2,4-10,4s-10-4-10-4v-3.072
				h-3c0,1.283,0,2.396,0,3.072C42,78.036,51.143,79.036,55,79.036z"/>
		</g>
		<g>
			<rect x="32" y="80.036" style="fill:#FF6C5E;" width="11" height="3"/>
		</g>
		<path style="fill:#FFD7D4;" d="M57.655,68H55h-2.655c-0.856,0-1.671-0.365-2.24-1.005L45,63v9c0,0,2,4,10,4s10-4,10-4v-9
			l-5.106,3.995C59.326,67.635,58.511,68,57.655,68z"/>
		<path style="fill:#FFEFED;" d="M50.105,66.995L45,63v9.036c0,0,2,4,10,4V68h-2.655C51.489,68,50.674,67.635,50.105,66.995z"/>
		<path style="fill:#FFEFED;" d="M70,45.036c-1,0-1,1.111-1,1.111V45c-0.006-2.843-0.111-5.582-0.661-8H55H41.661
			c-0.549,2.418-0.655,5.157-0.661,8v1.148c0,0,0-1.111-1-1.111s-2,1.111-2,2.222c0,3.259,0.961,7.568,3.807,7.76L45,63l5.105,3.995
			c0.569,0.64,1.384,1.005,2.24,1.005H55h2.655c0.856,0,1.671-0.365,2.24-1.005L65,63l3.193-7.982
			C71.039,54.827,72,50.517,72,47.258C72,46.148,71,45.036,70,45.036z"/>
		<path style="fill:#FFFFFF;" d="M41.661,37c-0.549,2.418-0.655,5.157-0.661,8v1.148c0,0,0-1.111-1-1.111s-2,1.111-2,2.222
			c0,3.259,0.961,7.568,3.807,7.76L45,63l5.105,3.995c0.569,0.64,1.384,1.005,2.24,1.005H55V37H41.661z"/>
		<g>
			<path style="fill:#4A1410;" d="M52,47.036c0-1.104-0.896-2-2-2c-0.002,0-0.004,0-0.006,0C49.995,45.058,50,45.078,50,45.099
				c0,1.103-0.892,1.996-1.994,2c0.033,1.075,0.91,1.938,1.994,1.938C51.104,49.036,52,48.141,52,47.036z"/>
		</g>
		<g>
			<path style="fill:#4A1410;" d="M61.994,47.036c0-1.104-0.896-2-2-2c-0.002,0-0.004,0-0.006,0
				c0.001,0.021,0.006,0.041,0.006,0.062c0,1.103-0.892,1.996-1.994,2c0.033,1.075,0.91,1.938,1.994,1.938
				C61.098,49.036,61.994,48.141,61.994,47.036z"/>
		</g>
		<g>
			<path style="fill:#C23023;" d="M55,51.036c-7,0-5,6-13,6c0,5,7,12,13,12s13-7,13-12C60,57.036,62,51.036,55,51.036z"/>
		</g>
		<path style="fill:#7D261E;" d="M67,50h2v-1.172c0-1.811,0-2.792,2-3.792V37h-4V50z"/>
		<path style="fill:#7D261E;" d="M39,37v8.036c2,1,2,1.981,2,3.792V50h2V37H39z"/>
		<g>
			<path style="fill:#C23023;" d="M71,37H39v-6.25c0-4.28,3.47-7.75,7.75-7.75h16.5c4.28,0,7.75,3.47,7.75,7.75V37z"/>
		</g>
		<g>
			<path style="fill:#E54B44;" d="M55,23h-8.25C42.47,23,39,26.47,39,30.75V37h16V23z"/>
		</g>
		<g>
			<path style="fill:#E54B44;" d="M42,57.036c0,5,7,12,13,12v-18C48,51.036,50,57.036,42,57.036z"/>
		</g>
		<g>
			<rect x="39" y="37" style="fill:#FF6C5E;" width="32" height="2"/>
		</g>
	</g>
</g>
<g id="R-Red" style="display:none;">
	<g style="display:inline;">
		<circle style="fill:#FABBAF;" cx="55" cy="55" r="55"/>
	</g>
	<g style="display:inline;">
		<g>
			<path style="fill:#E54B44;" d="M83,76c-0.615-1.333-1.698-2.394-3.044-2.983L68,69H55H42l-11.958,4.017
				C28.698,73.606,27.615,74.667,27,76l-4,11h32h32L83,76z"/>
		</g>
		<g>
			<path style="fill:#FFFFFF;" d="M55,79.036c3.857,0,13-1,13-7c0-0.676,0-1.789,0-3.072h-3v3.072c0,0-2,4-10,4s-10-4-10-4v-3.072
				h-3c0,1.283,0,2.396,0,3.072C42,78.036,51.143,79.036,55,79.036z"/>
		</g>
		<g>
			<rect x="32" y="80.036" style="fill:#FF6C5E;" width="11" height="3"/>
		</g>
		<path style="fill:#FFD7D4;" d="M57.655,68H55h-2.655c-0.856,0-1.671-0.365-2.24-1.005L45,63v9c0,0,2,4,10,4s10-4,10-4v-9
			l-5.106,3.995C59.326,67.635,58.511,68,57.655,68z"/>
		<path style="fill:#FFEFED;" d="M50.105,66.995L45,63v9.036c0,0,2,4,10,4V68h-2.655C51.489,68,50.674,67.635,50.105,66.995z"/>
		<path style="fill:#FFEFED;" d="M70,45.036c-1,0-1,1.111-1,1.111V45c-0.006-2.843-0.111-5.582-0.661-8H55H41.661
			c-0.549,2.418-0.655,5.157-0.661,8v1.148c0,0,0-1.111-1-1.111s-2,1.111-2,2.222c0,3.259,0.961,7.568,3.807,7.76L45,63l5.105,3.995
			c0.569,0.64,1.384,1.005,2.24,1.005H55h2.655c0.856,0,1.671-0.365,2.24-1.005L65,63l3.193-7.982
			C71.039,54.827,72,50.517,72,47.258C72,46.148,71,45.036,70,45.036z"/>
		<path style="fill:#FFFFFF;" d="M41.661,37c-0.549,2.418-0.655,5.157-0.661,8v1.148c0,0,0-1.111-1-1.111s-2,1.111-2,2.222
			c0,3.259,0.961,7.568,3.807,7.76L45,63l5.105,3.995c0.569,0.64,1.384,1.005,2.24,1.005H55V37H41.661z"/>
		<g>
			<path style="fill:#4A1410;" d="M52,47.036c0-1.104-0.896-2-2-2c-0.002,0-0.004,0-0.006,0C49.995,45.058,50,45.078,50,45.099
				c0,1.103-0.892,1.996-1.994,2c0.033,1.075,0.91,1.938,1.994,1.938C51.104,49.036,52,48.141,52,47.036z"/>
		</g>
		<g>
			<path style="fill:#4A1410;" d="M61.994,47.036c0-1.104-0.896-2-2-2c-0.002,0-0.004,0-0.006,0
				c0.001,0.021,0.006,0.041,0.006,0.062c0,1.103-0.892,1.996-1.994,2c0.033,1.075,0.91,1.938,1.994,1.938
				C61.098,49.036,61.994,48.141,61.994,47.036z"/>
		</g>
		<g>
			<path style="fill:#C23023;" d="M55,51.036c-7,0-5,6-13,6c0,5,7,12,13,12s13-7,13-12C60,57.036,62,51.036,55,51.036z"/>
		</g>
		<path style="fill:#7D261E;" d="M67,50h2v-1.172c0-1.811,0-2.792,2-3.792V37h-4V50z"/>
		<path style="fill:#7D261E;" d="M39,37v8.036c2,1,2,1.981,2,3.792V50h2V37H39z"/>
		<g>
			<path style="fill:#C23023;" d="M71,37H39v-6.25c0-4.28,3.47-7.75,7.75-7.75h16.5c4.28,0,7.75,3.47,7.75,7.75V37z"/>
		</g>
		<g>
			<path style="fill:#E54B44;" d="M55,23h-8.25C42.47,23,39,26.47,39,30.75V37h16V23z"/>
		</g>
		<g>
			<path style="fill:#E54B44;" d="M42,57.036c0,5,7,12,13,12v-18C48,51.036,50,57.036,42,57.036z"/>
		</g>
		<g>
			<rect x="39" y="37" style="fill:#FF6C5E;" width="32" height="2"/>
		</g>
	</g>
</g>
<g id="Yellow" style="display:none;">
	<g style="display:inline;">
		<g>
			<path style="fill:#FA9200;" d="M83,76c-0.615-1.333-1.698-2.394-3.044-2.983L68,69H55H42l-11.958,4.017
				C28.698,73.606,27.615,74.667,27,76l-4,11h32h32L83,76z"/>
		</g>
		<g>
			<path style="fill:#FFFFFF;" d="M55,79.036c3.857,0,13-1,13-7c0-0.676,0-1.789,0-3.072h-3v3.072c0,0-2,4-10,4s-10-4-10-4v-3.072
				h-3c0,1.283,0,2.396,0,3.072C42,78.036,51.143,79.036,55,79.036z"/>
		</g>
		<g>
			<rect x="32" y="80.036" style="fill:#FFAA00;" width="11" height="3"/>
		</g>
		<path style="fill:#FFE9A1;" d="M57.655,68H55h-2.655c-0.856,0-1.671-0.365-2.24-1.005L45,63v9c0,0,2,4,10,4s10-4,10-4v-9
			l-5.106,3.995C59.326,67.635,58.511,68,57.655,68z"/>
		<path style="fill:#FFF5D9;" d="M50.105,66.995L45,63v9.036c0,0,2,4,10,4V68h-2.655C51.489,68,50.674,67.635,50.105,66.995z"/>
		<path style="fill:#FFF5D9;" d="M70,45.036c-1,0-1,1.111-1,1.111V45c-0.006-2.843-0.111-5.582-0.661-8H55H41.661
			c-0.549,2.418-0.655,5.157-0.661,8v1.148c0,0,0-1.111-1-1.111s-2,1.111-2,2.222c0,3.259,0.961,7.568,3.807,7.76L45,63l5.105,3.995
			c0.569,0.64,1.384,1.005,2.24,1.005H55h2.655c0.856,0,1.671-0.365,2.24-1.005L65,63l3.193-7.982
			C71.039,54.827,72,50.517,72,47.258C72,46.148,71,45.036,70,45.036z"/>
		<path style="fill:#FFFFFF;" d="M41.661,37c-0.549,2.418-0.655,5.157-0.661,8v1.148c0,0,0-1.111-1-1.111s-2,1.111-2,2.222
			c0,3.259,0.961,7.568,3.807,7.76L45,63l5.105,3.995c0.569,0.64,1.384,1.005,2.24,1.005H55V37H41.661z"/>
		<g>
			<path style="fill:#3D320C;" d="M52,47.036c0-1.104-0.896-2-2-2c-0.002,0-0.004,0-0.006,0C49.995,45.058,50,45.078,50,45.099
				c0,1.103-0.892,1.996-1.994,2c0.033,1.075,0.91,1.938,1.994,1.938C51.104,49.036,52,48.141,52,47.036z"/>
		</g>
		<g>
			<path style="fill:#3D320C;" d="M61.994,47.036c0-1.104-0.896-2-2-2c-0.002,0-0.004,0-0.006,0
				c0.001,0.021,0.006,0.041,0.006,0.062c0,1.103-0.892,1.996-1.994,2c0.033,1.075,0.91,1.938,1.994,1.938
				C61.098,49.036,61.994,48.141,61.994,47.036z"/>
		</g>
		<g>
			<path style="fill:#E07000;" d="M55,51.036c-7,0-5,6-13,6c0,5,7,12,13,12s13-7,13-12C60,57.036,62,51.036,55,51.036z"/>
		</g>
		<path style="fill:#66510D;" d="M67,50h2v-1.172c0-1.811,0-2.792,2-3.792V37h-4V50z"/>
		<path style="fill:#66510D;" d="M39,37v8.036c2,1,2,1.981,2,3.792V50h2V37H39z"/>
		<g>
			<path style="fill:#E07000;" d="M71,37H39v-6.25c0-4.28,3.47-7.75,7.75-7.75h16.5c4.28,0,7.75,3.47,7.75,7.75V37z"/>
		</g>
		<g>
			<path style="fill:#FA9200;" d="M55,23h-8.25C42.47,23,39,26.47,39,30.75V37h16V23z"/>
		</g>
		<g>
			<path style="fill:#FA9200;" d="M42,57.036c0,5,7,12,13,12v-18C48,51.036,50,57.036,42,57.036z"/>
		</g>
		<g>
			<rect x="39" y="37" style="fill:#FFAA00;" width="32" height="2"/>
		</g>
	</g>
</g>
<g id="R-Yellow" style="display:none;">
	<g style="display:inline;">
		<circle style="fill:#FFD75E;" cx="55" cy="55" r="55"/>
	</g>
	<g style="display:inline;">
		<g>
			<path style="fill:#FA9200;" d="M83,76c-0.615-1.333-1.698-2.394-3.044-2.983L68,69H55H42l-11.958,4.017
				C28.698,73.606,27.615,74.667,27,76l-4,11h32h32L83,76z"/>
		</g>
		<g>
			<path style="fill:#FFFFFF;" d="M55,79.036c3.857,0,13-1,13-7c0-0.676,0-1.789,0-3.072h-3v3.072c0,0-2,4-10,4s-10-4-10-4v-3.072
				h-3c0,1.283,0,2.396,0,3.072C42,78.036,51.143,79.036,55,79.036z"/>
		</g>
		<g>
			<rect x="32" y="80.036" style="fill:#FFAA00;" width="11" height="3"/>
		</g>
		<path style="fill:#FFE9A1;" d="M57.655,68H55h-2.655c-0.856,0-1.671-0.365-2.24-1.005L45,63v9c0,0,2,4,10,4s10-4,10-4v-9
			l-5.106,3.995C59.326,67.635,58.511,68,57.655,68z"/>
		<path style="fill:#FFF5D9;" d="M50.105,66.995L45,63v9.036c0,0,2,4,10,4V68h-2.655C51.489,68,50.674,67.635,50.105,66.995z"/>
		<path style="fill:#FFF5D9;" d="M70,45.036c-1,0-1,1.111-1,1.111V45c-0.006-2.843-0.111-5.582-0.661-8H55H41.661
			c-0.549,2.418-0.655,5.157-0.661,8v1.148c0,0,0-1.111-1-1.111s-2,1.111-2,2.222c0,3.259,0.961,7.568,3.807,7.76L45,63l5.105,3.995
			c0.569,0.64,1.384,1.005,2.24,1.005H55h2.655c0.856,0,1.671-0.365,2.24-1.005L65,63l3.193-7.982
			C71.039,54.827,72,50.517,72,47.258C72,46.148,71,45.036,70,45.036z"/>
		<path style="fill:#FFFFFF;" d="M41.661,37c-0.549,2.418-0.655,5.157-0.661,8v1.148c0,0,0-1.111-1-1.111s-2,1.111-2,2.222
			c0,3.259,0.961,7.568,3.807,7.76L45,63l5.105,3.995c0.569,0.64,1.384,1.005,2.24,1.005H55V37H41.661z"/>
		<g>
			<path style="fill:#3D320C;" d="M52,47.036c0-1.104-0.896-2-2-2c-0.002,0-0.004,0-0.006,0C49.995,45.058,50,45.078,50,45.099
				c0,1.103-0.892,1.996-1.994,2c0.033,1.075,0.91,1.938,1.994,1.938C51.104,49.036,52,48.141,52,47.036z"/>
		</g>
		<g>
			<path style="fill:#3D320C;" d="M61.994,47.036c0-1.104-0.896-2-2-2c-0.002,0-0.004,0-0.006,0
				c0.001,0.021,0.006,0.041,0.006,0.062c0,1.103-0.892,1.996-1.994,2c0.033,1.075,0.91,1.938,1.994,1.938
				C61.098,49.036,61.994,48.141,61.994,47.036z"/>
		</g>
		<g>
			<path style="fill:#E07000;" d="M55,51.036c-7,0-5,6-13,6c0,5,7,12,13,12s13-7,13-12C60,57.036,62,51.036,55,51.036z"/>
		</g>
		<path style="fill:#66510D;" d="M67,50h2v-1.172c0-1.811,0-2.792,2-3.792V37h-4V50z"/>
		<path style="fill:#66510D;" d="M39,37v8.036c2,1,2,1.981,2,3.792V50h2V37H39z"/>
		<g>
			<path style="fill:#E07000;" d="M71,37H39v-6.25c0-4.28,3.47-7.75,7.75-7.75h16.5c4.28,0,7.75,3.47,7.75,7.75V37z"/>
		</g>
		<g>
			<path style="fill:#FA9200;" d="M55,23h-8.25C42.47,23,39,26.47,39,30.75V37h16V23z"/>
		</g>
		<g>
			<path style="fill:#FA9200;" d="M42,57.036c0,5,7,12,13,12v-18C48,51.036,50,57.036,42,57.036z"/>
		</g>
		<g>
			<rect x="39" y="37" style="fill:#FFAA00;" width="32" height="2"/>
		</g>
	</g>
</g>
</svg>
