<?xml version="1.0" encoding="iso-8859-1"?>
<!-- Generator: Adobe Illustrator 17.1.0, SVG Export Plug-In . SVG Version: 6.00 Build 0)  -->
<!DOCTYPE svg PUBLIC "-//W3C//DTD SVG 1.0//EN" "http://www.w3.org/TR/2001/REC-SVG-20010904/DTD/svg10.dtd">
<svg version="1.0" xmlns="http://www.w3.org/2000/svg" xmlns:xlink="http://www.w3.org/1999/xlink" x="0px" y="0px" width="110px"
	 height="110px" viewBox="0 0 110 110" style="enable-background:new 0 0 110 110;" xml:space="preserve">
<g id="Artboard" style="display:none;">
	<rect x="-573.5" y="-46.5" style="display:inline;fill:#808080;stroke:#000000;stroke-miterlimit:10;" width="1366" height="606"/>
</g>
<g id="R-Multicolor" style="display:none;">
	<circle style="display:inline;fill:#32BEA6;" cx="55" cy="55" r="55"/>
	<g style="display:inline;">
		<rect x="63" y="43" style="fill:#FFFFFF;" width="20" height="37"/>
		<rect x="27" y="43" style="fill:#FFFFFF;" width="20" height="37"/>
		<rect x="23" y="80" style="fill:#F0F1F1;" width="28" height="7"/>
		<rect x="29" y="39" style="fill:#F0F1F1;" width="16" height="4"/>
		<rect x="31" y="33" style="fill:#E2E4E5;" width="12" height="6"/>
		<polygon style="fill:#F0F1F1;" points="31,33 37,23 43,33 		"/>
		<rect x="59" y="80" style="fill:#F0F1F1;" width="28" height="7"/>
		<rect x="65" y="39" style="fill:#F0F1F1;" width="16" height="4"/>
		<rect x="67" y="33" style="fill:#E2E4E5;" width="12" height="6"/>
		<polygon style="fill:#F0F1F1;" points="67,33 73,23 79,33 		"/>
		<path style="fill:#F0F1F1;" d="M47,54v8h16v-8H47z M59,60h-8v-4h8V60z"/>
		<rect x="30" y="48" style="fill:#40C9E7;" width="14" height="2"/>
		<rect x="30" y="53" style="fill:#40C9E7;" width="14" height="2"/>
		<rect x="30" y="58" style="fill:#40C9E7;" width="14" height="2"/>
		<rect x="30" y="63" style="fill:#40C9E7;" width="14" height="2"/>
		<rect x="30" y="68" style="fill:#40C9E7;" width="14" height="2"/>
		<rect x="30" y="73" style="fill:#40C9E7;" width="14" height="2"/>
		<rect x="66" y="48" style="fill:#40C9E7;" width="14" height="2"/>
		<rect x="66" y="53" style="fill:#40C9E7;" width="14" height="2"/>
		<rect x="66" y="58" style="fill:#40C9E7;" width="14" height="2"/>
		<rect x="66" y="63" style="fill:#40C9E7;" width="14" height="2"/>
		<rect x="66" y="68" style="fill:#40C9E7;" width="14" height="2"/>
		<rect x="66" y="73" style="fill:#40C9E7;" width="14" height="2"/>
		<polygon style="fill:#FFFFFF;" points="37,23 31,33 37,33 		"/>
		<polygon style="fill:#FFFFFF;" points="73,23 67,33 73,33 		"/>
	</g>
</g>
<g id="Multicolor_1_">
	<g>
		<rect x="63" y="43" style="fill:#FFFFFF;" width="20" height="37"/>
		<rect x="27" y="43" style="fill:#FFFFFF;" width="20" height="37"/>
		<rect x="23" y="80" style="fill:#F0F1F1;" width="28" height="7"/>
		<rect x="29" y="39" style="fill:#F0F1F1;" width="16" height="4"/>
		<rect x="31" y="33" style="fill:#E2E4E5;" width="12" height="6"/>
		<polygon style="fill:#F0F1F1;" points="31,33 37,23 43,33 		"/>
		<rect x="59" y="80" style="fill:#F0F1F1;" width="28" height="7"/>
		<rect x="65" y="39" style="fill:#F0F1F1;" width="16" height="4"/>
		<rect x="67" y="33" style="fill:#E2E4E5;" width="12" height="6"/>
		<polygon style="fill:#F0F1F1;" points="67,33 73,23 79,33 		"/>
		<path style="fill:#F0F1F1;" d="M47,54v8h16v-8H47z M59,60h-8v-4h8V60z"/>
		<rect x="30" y="48" style="fill:#40C9E7;" width="14" height="2"/>
		<rect x="30" y="53" style="fill:#40C9E7;" width="14" height="2"/>
		<rect x="30" y="58" style="fill:#40C9E7;" width="14" height="2"/>
		<rect x="30" y="63" style="fill:#40C9E7;" width="14" height="2"/>
		<rect x="30" y="68" style="fill:#40C9E7;" width="14" height="2"/>
		<rect x="30" y="73" style="fill:#40C9E7;" width="14" height="2"/>
		<rect x="66" y="48" style="fill:#40C9E7;" width="14" height="2"/>
		<rect x="66" y="53" style="fill:#40C9E7;" width="14" height="2"/>
		<rect x="66" y="58" style="fill:#40C9E7;" width="14" height="2"/>
		<rect x="66" y="63" style="fill:#40C9E7;" width="14" height="2"/>
		<rect x="66" y="68" style="fill:#40C9E7;" width="14" height="2"/>
		<rect x="66" y="73" style="fill:#40C9E7;" width="14" height="2"/>
		<polygon style="fill:#FFFFFF;" points="37,23 31,33 37,33 		"/>
		<polygon style="fill:#FFFFFF;" points="73,23 67,33 73,33 		"/>
	</g>
</g>
<g id="Blue" style="display:none;">
	<g style="display:inline;">
		<g>
			<rect x="63" y="43" style="fill:#FFFFFF;" width="20" height="37"/>
		</g>
		<g>
			<rect x="27" y="43" style="fill:#FFFFFF;" width="20" height="37"/>
		</g>
		<g>
			<rect x="23" y="80" style="fill:#0F6175;" width="28" height="7"/>
		</g>
		<g>
			<rect x="29" y="39" style="fill:#E1F5FA;" width="16" height="4"/>
		</g>
		<g>
			<rect x="31" y="33" style="fill:#BBE7F2;" width="12" height="6"/>
		</g>
		<g>
			<polygon style="fill:#0081A1;" points="31,33 37,23 43,33 			"/>
		</g>
		<g>
			<rect x="59" y="80" style="fill:#0F6175;" width="28" height="7"/>
		</g>
		<g>
			<rect x="65" y="39" style="fill:#E1F5FA;" width="16" height="4"/>
		</g>
		<g>
			<rect x="67" y="33" style="fill:#BBE7F2;" width="12" height="6"/>
		</g>
		<g>
			<polygon style="fill:#0081A1;" points="67,33 73,23 79,33 			"/>
		</g>
		<g>
			<path style="fill:#BBE7F2;" d="M47,54v8h16v-8H47z M59,60h-8v-4h8V60z"/>
		</g>
		<g>
			<g>
				<rect x="30" y="48" style="fill:#81D2EB;" width="14" height="2"/>
			</g>
			<g>
				<rect x="30" y="53" style="fill:#81D2EB;" width="14" height="2"/>
			</g>
			<g>
				<rect x="30" y="58" style="fill:#81D2EB;" width="14" height="2"/>
			</g>
			<g>
				<rect x="30" y="63" style="fill:#81D2EB;" width="14" height="2"/>
			</g>
			<g>
				<rect x="30" y="68" style="fill:#81D2EB;" width="14" height="2"/>
			</g>
			<g>
				<rect x="30" y="73" style="fill:#81D2EB;" width="14" height="2"/>
			</g>
			<g>
				<rect x="66" y="48" style="fill:#81D2EB;" width="14" height="2"/>
			</g>
			<g>
				<rect x="66" y="53" style="fill:#81D2EB;" width="14" height="2"/>
			</g>
			<g>
				<rect x="66" y="58" style="fill:#81D2EB;" width="14" height="2"/>
			</g>
			<g>
				<rect x="66" y="63" style="fill:#81D2EB;" width="14" height="2"/>
			</g>
			<g>
				<rect x="66" y="68" style="fill:#81D2EB;" width="14" height="2"/>
			</g>
			<g>
				<rect x="66" y="73" style="fill:#81D2EB;" width="14" height="2"/>
			</g>
		</g>
		<g>
			<polygon style="fill:#009FC7;" points="37,23 31,33 37,33 			"/>
		</g>
		<g>
			<polygon style="fill:#009FC7;" points="73,23 67,33 73,33 			"/>
		</g>
	</g>
</g>
<g id="R-Blue" style="display:none;">
	<g style="display:inline;">
		<circle style="fill:#81D2EB;" cx="55" cy="55" r="55"/>
	</g>
	<g style="display:inline;">
		<g>
			<rect x="63" y="43" style="fill:#FFFFFF;" width="20" height="37"/>
		</g>
		<g>
			<rect x="27" y="43" style="fill:#FFFFFF;" width="20" height="37"/>
		</g>
		<g>
			<rect x="23" y="80" style="fill:#0F6175;" width="28" height="7"/>
		</g>
		<g>
			<rect x="29" y="39" style="fill:#E1F5FA;" width="16" height="4"/>
		</g>
		<g>
			<rect x="31" y="33" style="fill:#BBE7F2;" width="12" height="6"/>
		</g>
		<g>
			<polygon style="fill:#0081A1;" points="31,33 37,23 43,33 			"/>
		</g>
		<g>
			<rect x="59" y="80" style="fill:#0F6175;" width="28" height="7"/>
		</g>
		<g>
			<rect x="65" y="39" style="fill:#E1F5FA;" width="16" height="4"/>
		</g>
		<g>
			<rect x="67" y="33" style="fill:#BBE7F2;" width="12" height="6"/>
		</g>
		<g>
			<polygon style="fill:#0081A1;" points="67,33 73,23 79,33 			"/>
		</g>
		<g>
			<path style="fill:#BBE7F2;" d="M47,54v8h16v-8H47z M59,60h-8v-4h8V60z"/>
		</g>
		<g>
			<g>
				<rect x="30" y="48" style="fill:#81D2EB;" width="14" height="2"/>
			</g>
			<g>
				<rect x="30" y="53" style="fill:#81D2EB;" width="14" height="2"/>
			</g>
			<g>
				<rect x="30" y="58" style="fill:#81D2EB;" width="14" height="2"/>
			</g>
			<g>
				<rect x="30" y="63" style="fill:#81D2EB;" width="14" height="2"/>
			</g>
			<g>
				<rect x="30" y="68" style="fill:#81D2EB;" width="14" height="2"/>
			</g>
			<g>
				<rect x="30" y="73" style="fill:#81D2EB;" width="14" height="2"/>
			</g>
			<g>
				<rect x="66" y="48" style="fill:#81D2EB;" width="14" height="2"/>
			</g>
			<g>
				<rect x="66" y="53" style="fill:#81D2EB;" width="14" height="2"/>
			</g>
			<g>
				<rect x="66" y="58" style="fill:#81D2EB;" width="14" height="2"/>
			</g>
			<g>
				<rect x="66" y="63" style="fill:#81D2EB;" width="14" height="2"/>
			</g>
			<g>
				<rect x="66" y="68" style="fill:#81D2EB;" width="14" height="2"/>
			</g>
			<g>
				<rect x="66" y="73" style="fill:#81D2EB;" width="14" height="2"/>
			</g>
		</g>
		<g>
			<polygon style="fill:#009FC7;" points="37,23 31,33 37,33 			"/>
		</g>
		<g>
			<polygon style="fill:#009FC7;" points="73,23 67,33 73,33 			"/>
		</g>
	</g>
</g>
<g id="Green" style="display:none;">
	<g style="display:inline;">
		<g>
			<rect x="63" y="43" style="fill:#FFFFFF;" width="20" height="37"/>
		</g>
		<g>
			<rect x="27" y="43" style="fill:#FFFFFF;" width="20" height="37"/>
		</g>
		<g>
			<rect x="23" y="80" style="fill:#14635B;" width="28" height="7"/>
		</g>
		<g>
			<rect x="29" y="39" style="fill:#D7FCF9;" width="16" height="4"/>
		</g>
		<g>
			<rect x="31" y="33" style="fill:#AAF0E9;" width="12" height="6"/>
		</g>
		<g>
			<polygon style="fill:#009687;" points="31,33 37,23 43,33 			"/>
		</g>
		<g>
			<rect x="59" y="80" style="fill:#14635B;" width="28" height="7"/>
		</g>
		<g>
			<rect x="65" y="39" style="fill:#D7FCF9;" width="16" height="4"/>
		</g>
		<g>
			<rect x="67" y="33" style="fill:#AAF0E9;" width="12" height="6"/>
		</g>
		<g>
			<polygon style="fill:#009687;" points="67,33 73,23 79,33 			"/>
		</g>
		<g>
			<path style="fill:#AAF0E9;" d="M47,54v8h16v-8H47z M59,60h-8v-4h8V60z"/>
		</g>
		<g>
			<g>
				<rect x="30" y="48" style="fill:#87E0C8;" width="14" height="2"/>
			</g>
			<g>
				<rect x="30" y="53" style="fill:#87E0C8;" width="14" height="2"/>
			</g>
			<g>
				<rect x="30" y="58" style="fill:#87E0C8;" width="14" height="2"/>
			</g>
			<g>
				<rect x="30" y="63" style="fill:#87E0C8;" width="14" height="2"/>
			</g>
			<g>
				<rect x="30" y="68" style="fill:#87E0C8;" width="14" height="2"/>
			</g>
			<g>
				<rect x="30" y="73" style="fill:#87E0C8;" width="14" height="2"/>
			</g>
			<g>
				<rect x="66" y="48" style="fill:#87E0C8;" width="14" height="2"/>
			</g>
			<g>
				<rect x="66" y="53" style="fill:#87E0C8;" width="14" height="2"/>
			</g>
			<g>
				<rect x="66" y="58" style="fill:#87E0C8;" width="14" height="2"/>
			</g>
			<g>
				<rect x="66" y="63" style="fill:#87E0C8;" width="14" height="2"/>
			</g>
			<g>
				<rect x="66" y="68" style="fill:#87E0C8;" width="14" height="2"/>
			</g>
			<g>
				<rect x="66" y="73" style="fill:#87E0C8;" width="14" height="2"/>
			</g>
		</g>
		<g>
			<polygon style="fill:#00B8A5;" points="37,23 31,33 37,33 			"/>
		</g>
		<g>
			<polygon style="fill:#00B8A5;" points="73,23 67,33 73,33 			"/>
		</g>
	</g>
</g>
<g id="R-Green" style="display:none;">
	<g style="display:inline;">
		<circle style="fill:#87E0C8;" cx="55" cy="55" r="55"/>
	</g>
	<g style="display:inline;">
		<g>
			<rect x="63" y="43" style="fill:#FFFFFF;" width="20" height="37"/>
		</g>
		<g>
			<rect x="27" y="43" style="fill:#FFFFFF;" width="20" height="37"/>
		</g>
		<g>
			<rect x="23" y="80" style="fill:#14635B;" width="28" height="7"/>
		</g>
		<g>
			<rect x="29" y="39" style="fill:#D7FCF9;" width="16" height="4"/>
		</g>
		<g>
			<rect x="31" y="33" style="fill:#AAF0E9;" width="12" height="6"/>
		</g>
		<g>
			<polygon style="fill:#009687;" points="31,33 37,23 43,33 			"/>
		</g>
		<g>
			<rect x="59" y="80" style="fill:#14635B;" width="28" height="7"/>
		</g>
		<g>
			<rect x="65" y="39" style="fill:#D7FCF9;" width="16" height="4"/>
		</g>
		<g>
			<rect x="67" y="33" style="fill:#AAF0E9;" width="12" height="6"/>
		</g>
		<g>
			<polygon style="fill:#009687;" points="67,33 73,23 79,33 			"/>
		</g>
		<g>
			<path style="fill:#AAF0E9;" d="M47,54v8h16v-8H47z M59,60h-8v-4h8V60z"/>
		</g>
		<g>
			<g>
				<rect x="30" y="48" style="fill:#87E0C8;" width="14" height="2"/>
			</g>
			<g>
				<rect x="30" y="53" style="fill:#87E0C8;" width="14" height="2"/>
			</g>
			<g>
				<rect x="30" y="58" style="fill:#87E0C8;" width="14" height="2"/>
			</g>
			<g>
				<rect x="30" y="63" style="fill:#87E0C8;" width="14" height="2"/>
			</g>
			<g>
				<rect x="30" y="68" style="fill:#87E0C8;" width="14" height="2"/>
			</g>
			<g>
				<rect x="30" y="73" style="fill:#87E0C8;" width="14" height="2"/>
			</g>
			<g>
				<rect x="66" y="48" style="fill:#87E0C8;" width="14" height="2"/>
			</g>
			<g>
				<rect x="66" y="53" style="fill:#87E0C8;" width="14" height="2"/>
			</g>
			<g>
				<rect x="66" y="58" style="fill:#87E0C8;" width="14" height="2"/>
			</g>
			<g>
				<rect x="66" y="63" style="fill:#87E0C8;" width="14" height="2"/>
			</g>
			<g>
				<rect x="66" y="68" style="fill:#87E0C8;" width="14" height="2"/>
			</g>
			<g>
				<rect x="66" y="73" style="fill:#87E0C8;" width="14" height="2"/>
			</g>
		</g>
		<g>
			<polygon style="fill:#00B8A5;" points="37,23 31,33 37,33 			"/>
		</g>
		<g>
			<polygon style="fill:#00B8A5;" points="73,23 67,33 73,33 			"/>
		</g>
	</g>
</g>
<g id="Red" style="display:none;">
	<g style="display:inline;">
		<g>
			<rect x="63" y="43" style="fill:#FFFFFF;" width="20" height="37"/>
		</g>
		<g>
			<rect x="27" y="43" style="fill:#FFFFFF;" width="20" height="37"/>
		</g>
		<g>
			<rect x="23" y="80" style="fill:#7D261E;" width="28" height="7"/>
		</g>
		<g>
			<rect x="29" y="39" style="fill:#FFEFED;" width="16" height="4"/>
		</g>
		<g>
			<rect x="31" y="33" style="fill:#FFD7D4;" width="12" height="6"/>
		</g>
		<g>
			<polygon style="fill:#C23023;" points="31,33 37,23 43,33 			"/>
		</g>
		<g>
			<rect x="59" y="80" style="fill:#7D261E;" width="28" height="7"/>
		</g>
		<g>
			<rect x="65" y="39" style="fill:#FFEFED;" width="16" height="4"/>
		</g>
		<g>
			<rect x="67" y="33" style="fill:#FFD7D4;" width="12" height="6"/>
		</g>
		<g>
			<polygon style="fill:#C23023;" points="67,33 73,23 79,33 			"/>
		</g>
		<g>
			<path style="fill:#FFD7D4;" d="M47,54v8h16v-8H47z M59,60h-8v-4h8V60z"/>
		</g>
		<g>
			<g>
				<rect x="30" y="48" style="fill:#FABBAF;" width="14" height="2"/>
			</g>
			<g>
				<rect x="30" y="53" style="fill:#FABBAF;" width="14" height="2"/>
			</g>
			<g>
				<rect x="30" y="58" style="fill:#FABBAF;" width="14" height="2"/>
			</g>
			<g>
				<rect x="30" y="63" style="fill:#FABBAF;" width="14" height="2"/>
			</g>
			<g>
				<rect x="30" y="68" style="fill:#FABBAF;" width="14" height="2"/>
			</g>
			<g>
				<rect x="30" y="73" style="fill:#FABBAF;" width="14" height="2"/>
			</g>
			<g>
				<rect x="66" y="48" style="fill:#FABBAF;" width="14" height="2"/>
			</g>
			<g>
				<rect x="66" y="53" style="fill:#FABBAF;" width="14" height="2"/>
			</g>
			<g>
				<rect x="66" y="58" style="fill:#FABBAF;" width="14" height="2"/>
			</g>
			<g>
				<rect x="66" y="63" style="fill:#FABBAF;" width="14" height="2"/>
			</g>
			<g>
				<rect x="66" y="68" style="fill:#FABBAF;" width="14" height="2"/>
			</g>
			<g>
				<rect x="66" y="73" style="fill:#FABBAF;" width="14" height="2"/>
			</g>
		</g>
		<g>
			<polygon style="fill:#E54B44;" points="37,23 31,33 37,33 			"/>
		</g>
		<g>
			<polygon style="fill:#E54B44;" points="73,23 67,33 73,33 			"/>
		</g>
	</g>
</g>
<g id="R-Red" style="display:none;">
	<g style="display:inline;">
		<circle style="fill:#FABBAF;" cx="55" cy="55" r="55"/>
	</g>
	<g style="display:inline;">
		<g>
			<rect x="63" y="43" style="fill:#FFFFFF;" width="20" height="37"/>
		</g>
		<g>
			<rect x="27" y="43" style="fill:#FFFFFF;" width="20" height="37"/>
		</g>
		<g>
			<rect x="23" y="80" style="fill:#7D261E;" width="28" height="7"/>
		</g>
		<g>
			<rect x="29" y="39" style="fill:#FFEFED;" width="16" height="4"/>
		</g>
		<g>
			<rect x="31" y="33" style="fill:#FFD7D4;" width="12" height="6"/>
		</g>
		<g>
			<polygon style="fill:#C23023;" points="31,33 37,23 43,33 			"/>
		</g>
		<g>
			<rect x="59" y="80" style="fill:#7D261E;" width="28" height="7"/>
		</g>
		<g>
			<rect x="65" y="39" style="fill:#FFEFED;" width="16" height="4"/>
		</g>
		<g>
			<rect x="67" y="33" style="fill:#FFD7D4;" width="12" height="6"/>
		</g>
		<g>
			<polygon style="fill:#C23023;" points="67,33 73,23 79,33 			"/>
		</g>
		<g>
			<path style="fill:#FFD7D4;" d="M47,54v8h16v-8H47z M59,60h-8v-4h8V60z"/>
		</g>
		<g>
			<g>
				<rect x="30" y="48" style="fill:#FABBAF;" width="14" height="2"/>
			</g>
			<g>
				<rect x="30" y="53" style="fill:#FABBAF;" width="14" height="2"/>
			</g>
			<g>
				<rect x="30" y="58" style="fill:#FABBAF;" width="14" height="2"/>
			</g>
			<g>
				<rect x="30" y="63" style="fill:#FABBAF;" width="14" height="2"/>
			</g>
			<g>
				<rect x="30" y="68" style="fill:#FABBAF;" width="14" height="2"/>
			</g>
			<g>
				<rect x="30" y="73" style="fill:#FABBAF;" width="14" height="2"/>
			</g>
			<g>
				<rect x="66" y="48" style="fill:#FABBAF;" width="14" height="2"/>
			</g>
			<g>
				<rect x="66" y="53" style="fill:#FABBAF;" width="14" height="2"/>
			</g>
			<g>
				<rect x="66" y="58" style="fill:#FABBAF;" width="14" height="2"/>
			</g>
			<g>
				<rect x="66" y="63" style="fill:#FABBAF;" width="14" height="2"/>
			</g>
			<g>
				<rect x="66" y="68" style="fill:#FABBAF;" width="14" height="2"/>
			</g>
			<g>
				<rect x="66" y="73" style="fill:#FABBAF;" width="14" height="2"/>
			</g>
		</g>
		<g>
			<polygon style="fill:#E54B44;" points="37,23 31,33 37,33 			"/>
		</g>
		<g>
			<polygon style="fill:#E54B44;" points="73,23 67,33 73,33 			"/>
		</g>
	</g>
</g>
<g id="Yellow" style="display:none;">
	<g style="display:inline;">
		<g>
			<rect x="63" y="43" style="fill:#FFFFFF;" width="20" height="37"/>
		</g>
		<g>
			<rect x="27" y="43" style="fill:#FFFFFF;" width="20" height="37"/>
		</g>
		<g>
			<rect x="23" y="80" style="fill:#66510D;" width="28" height="7"/>
		</g>
		<g>
			<rect x="29" y="39" style="fill:#FFF5D9;" width="16" height="4"/>
		</g>
		<g>
			<rect x="31" y="33" style="fill:#FFE9A1;" width="12" height="6"/>
		</g>
		<g>
			<polygon style="fill:#E07000;" points="31,33 37,23 43,33 			"/>
		</g>
		<g>
			<rect x="59" y="80" style="fill:#66510D;" width="28" height="7"/>
		</g>
		<g>
			<rect x="65" y="39" style="fill:#FFF5D9;" width="16" height="4"/>
		</g>
		<g>
			<rect x="67" y="33" style="fill:#FFE9A1;" width="12" height="6"/>
		</g>
		<g>
			<polygon style="fill:#E07000;" points="67,33 73,23 79,33 			"/>
		</g>
		<g>
			<path style="fill:#FFE9A1;" d="M47,54v8h16v-8H47z M59,60h-8v-4h8V60z"/>
		</g>
		<g>
			<g>
				<rect x="30" y="48" style="fill:#FFD75E;" width="14" height="2"/>
			</g>
			<g>
				<rect x="30" y="53" style="fill:#FFD75E;" width="14" height="2"/>
			</g>
			<g>
				<rect x="30" y="58" style="fill:#FFD75E;" width="14" height="2"/>
			</g>
			<g>
				<rect x="30" y="63" style="fill:#FFD75E;" width="14" height="2"/>
			</g>
			<g>
				<rect x="30" y="68" style="fill:#FFD75E;" width="14" height="2"/>
			</g>
			<g>
				<rect x="30" y="73" style="fill:#FFD75E;" width="14" height="2"/>
			</g>
			<g>
				<rect x="66" y="48" style="fill:#FFD75E;" width="14" height="2"/>
			</g>
			<g>
				<rect x="66" y="53" style="fill:#FFD75E;" width="14" height="2"/>
			</g>
			<g>
				<rect x="66" y="58" style="fill:#FFD75E;" width="14" height="2"/>
			</g>
			<g>
				<rect x="66" y="63" style="fill:#FFD75E;" width="14" height="2"/>
			</g>
			<g>
				<rect x="66" y="68" style="fill:#FFD75E;" width="14" height="2"/>
			</g>
			<g>
				<rect x="66" y="73" style="fill:#FFD75E;" width="14" height="2"/>
			</g>
		</g>
		<g>
			<polygon style="fill:#FA9200;" points="37,23 31,33 37,33 			"/>
		</g>
		<g>
			<polygon style="fill:#FA9200;" points="73,23 67,33 73,33 			"/>
		</g>
	</g>
</g>
<g id="R-Yellow" style="display:none;">
	<g style="display:inline;">
		<circle style="fill:#FFD75E;" cx="55" cy="55" r="55"/>
	</g>
	<g style="display:inline;">
		<g>
			<rect x="63" y="43" style="fill:#FFFFFF;" width="20" height="37"/>
		</g>
		<g>
			<rect x="27" y="43" style="fill:#FFFFFF;" width="20" height="37"/>
		</g>
		<g>
			<rect x="23" y="80" style="fill:#66510D;" width="28" height="7"/>
		</g>
		<g>
			<rect x="29" y="39" style="fill:#FFF5D9;" width="16" height="4"/>
		</g>
		<g>
			<rect x="31" y="33" style="fill:#FFE9A1;" width="12" height="6"/>
		</g>
		<g>
			<polygon style="fill:#E07000;" points="31,33 37,23 43,33 			"/>
		</g>
		<g>
			<rect x="59" y="80" style="fill:#66510D;" width="28" height="7"/>
		</g>
		<g>
			<rect x="65" y="39" style="fill:#FFF5D9;" width="16" height="4"/>
		</g>
		<g>
			<rect x="67" y="33" style="fill:#FFE9A1;" width="12" height="6"/>
		</g>
		<g>
			<polygon style="fill:#E07000;" points="67,33 73,23 79,33 			"/>
		</g>
		<g>
			<path style="fill:#FFE9A1;" d="M47,54v8h16v-8H47z M59,60h-8v-4h8V60z"/>
		</g>
		<g>
			<g>
				<rect x="30" y="48" style="fill:#FFD75E;" width="14" height="2"/>
			</g>
			<g>
				<rect x="30" y="53" style="fill:#FFD75E;" width="14" height="2"/>
			</g>
			<g>
				<rect x="30" y="58" style="fill:#FFD75E;" width="14" height="2"/>
			</g>
			<g>
				<rect x="30" y="63" style="fill:#FFD75E;" width="14" height="2"/>
			</g>
			<g>
				<rect x="30" y="68" style="fill:#FFD75E;" width="14" height="2"/>
			</g>
			<g>
				<rect x="30" y="73" style="fill:#FFD75E;" width="14" height="2"/>
			</g>
			<g>
				<rect x="66" y="48" style="fill:#FFD75E;" width="14" height="2"/>
			</g>
			<g>
				<rect x="66" y="53" style="fill:#FFD75E;" width="14" height="2"/>
			</g>
			<g>
				<rect x="66" y="58" style="fill:#FFD75E;" width="14" height="2"/>
			</g>
			<g>
				<rect x="66" y="63" style="fill:#FFD75E;" width="14" height="2"/>
			</g>
			<g>
				<rect x="66" y="68" style="fill:#FFD75E;" width="14" height="2"/>
			</g>
			<g>
				<rect x="66" y="73" style="fill:#FFD75E;" width="14" height="2"/>
			</g>
		</g>
		<g>
			<polygon style="fill:#FA9200;" points="37,23 31,33 37,33 			"/>
		</g>
		<g>
			<polygon style="fill:#FA9200;" points="73,23 67,33 73,33 			"/>
		</g>
	</g>
</g>
</svg>
