<?xml version="1.0" encoding="iso-8859-1"?>
<!-- Generator: Adobe Illustrator 17.1.0, SVG Export Plug-In . SVG Version: 6.00 Build 0)  -->
<!DOCTYPE svg PUBLIC "-//W3C//DTD SVG 1.0//EN" "http://www.w3.org/TR/2001/REC-SVG-20010904/DTD/svg10.dtd">
<svg version="1.0" xmlns="http://www.w3.org/2000/svg" xmlns:xlink="http://www.w3.org/1999/xlink" x="0px" y="0px" width="110px"
	 height="110px" viewBox="0 0 110 110" style="enable-background:new 0 0 110 110;" xml:space="preserve">
<g id="Artboard" style="display:none;">
	<rect x="-570" y="-74" style="display:inline;fill:#808080;" width="1364" height="731"/>
</g>
<g id="R-Multicolor" style="display:none;">
	<circle style="display:inline;fill:#E04F5F;" cx="55" cy="55" r="55"/>
	<g style="display:inline;">
		<path style="fill:#3E3E3F;" d="M77.004,23l-6.364,6.364c-0.705,0.705-0.768,1.802-0.2,2.584l-15.612,7.571l-2.791,17.009
			l1.338,1.338l17.009-2.791l7.571-15.612c0.782,0.568,1.879,0.505,2.584-0.2l6.364-6.364L77.004,23z"/>
		<path style="fill:#FACB1B;" d="M70.44,31.948l-15.612,7.571l-2.791,17.009l1.338,1.338l17.009-2.791l7.571-15.612
			C77.871,39.402,70.501,32.032,70.44,31.948z"/>
		<path style="fill:#3E3E3F;" d="M44,76.917v-14h-2v14c-2.279,0.464-4,2.484-4,4.899c0,2.757,2.243,5,5,5s5-2.243,5-5
			C48,79.401,46.279,77.381,44,76.917z"/>
		<path style="fill:#3E3E3F;" d="M42,32.917v23h2v-23c2.279-0.464,4-2.484,4-4.899c0-2.757-2.243-5-5-5s-5,2.243-5,5
			C38,30.432,39.721,32.452,42,32.917z"/>
		<path style="fill:#FFFFFF;" d="M79,79v2.918c-14.826-0.548-25.499-4.185-30.981-10.62c-2.512-2.949-3.516-5.995-3.895-8.299H47v-8
			h-3.137C42.826,39.086,35.654,33.713,31,31.912V28h-8v8h8v-1.948c4.076,1.844,9.921,6.937,10.862,20.948H39v8h3.084
			c0.376,2.613,1.468,6.12,4.375,9.551C52.399,79.563,63.344,83.377,79,83.924V87h8v-8H79z"/>
		<path style="fill:#FBE158;" d="M70.44,31.948l-15.612,7.571l-2.791,17.009l0.715,0.716L74.235,35.76
			C72.359,33.885,70.471,31.99,70.44,31.948z"/>
		<path style="fill:#5B5C5F;" d="M74.235,35.76L82,27.996L77.004,23l-6.364,6.364c-0.705,0.705-0.768,1.802-0.2,2.584
			C70.471,31.99,72.359,33.885,74.235,35.76z"/>
	</g>
</g>
<g id="Multicolor_1_">
	<g>
		<path style="fill:#3E3E3F;" d="M77.004,23l-6.364,6.364c-0.705,0.705-0.768,1.802-0.2,2.584l-15.612,7.571l-2.791,17.009
			l1.338,1.338l17.009-2.791l7.571-15.612c0.782,0.568,1.879,0.505,2.584-0.2l6.364-6.364L77.004,23z"/>
		<path style="fill:#FACB1B;" d="M70.44,31.948l-15.612,7.571l-2.791,17.009l1.338,1.338l17.009-2.791l7.571-15.612
			C77.871,39.402,70.501,32.032,70.44,31.948z"/>
		<path style="fill:#3E3E3F;" d="M44,76.917v-14h-2v14c-2.279,0.464-4,2.484-4,4.899c0,2.757,2.243,5,5,5s5-2.243,5-5
			C48,79.401,46.279,77.381,44,76.917z"/>
		<path style="fill:#3E3E3F;" d="M42,32.917v23h2v-23c2.279-0.464,4-2.484,4-4.899c0-2.757-2.243-5-5-5s-5,2.243-5,5
			C38,30.432,39.721,32.452,42,32.917z"/>
		<path style="fill:#FFFFFF;" d="M79,79v2.918c-14.826-0.548-25.499-4.185-30.981-10.62c-2.512-2.949-3.516-5.995-3.895-8.299H47v-8
			h-3.137C42.826,39.086,35.654,33.713,31,31.912V28h-8v8h8v-1.948c4.076,1.844,9.921,6.937,10.862,20.948H39v8h3.084
			c0.376,2.613,1.468,6.12,4.375,9.551C52.399,79.563,63.344,83.377,79,83.924V87h8v-8H79z"/>
		<path style="fill:#FBE158;" d="M70.44,31.948l-15.612,7.571l-2.791,17.009l0.715,0.716L74.235,35.76
			C72.359,33.885,70.471,31.99,70.44,31.948z"/>
		<path style="fill:#5B5C5F;" d="M74.235,35.76L82,27.996L77.004,23l-6.364,6.364c-0.705,0.705-0.768,1.802-0.2,2.584
			C70.471,31.99,72.359,33.885,74.235,35.76z"/>
	</g>
</g>
<g id="Blue" style="display:none;">
	<g style="display:inline;">
		<g>
			<path style="fill:#0C333D;" d="M77.004,23l-6.364,6.364c-0.705,0.705-0.768,1.802-0.2,2.584l-15.612,7.571l-2.791,17.009
				l1.337,1.338l17.009-2.79l7.571-15.612c0.782,0.568,1.879,0.505,2.584-0.199l6.364-6.364L77.004,23z"/>
		</g>
		<g>
			<path style="fill:#E1F5FA;" d="M70.44,31.948l-15.612,7.571l-2.791,17.009l1.337,1.338l17.009-2.79l7.571-15.612
				C77.871,39.402,70.501,32.032,70.44,31.948z"/>
		</g>
		<g>
			<path style="fill:#0081A1;" d="M44,76.917v-14h-2v14c-2.279,0.464-4,2.484-4,4.898c0,2.757,2.243,5,5,5c2.757,0,5-2.243,5-5
				C48,79.401,46.279,77.381,44,76.917z"/>
		</g>
		<g>
			<path style="fill:#0081A1;" d="M42,32.917v23h2v-23c2.279-0.465,4-2.484,4-4.899c0-2.757-2.243-5-5-5c-2.757,0-5,2.243-5,5
				C38,30.433,39.721,32.452,42,32.917z"/>
		</g>
		<g>
			<path style="fill:#FFFFFF;" d="M79,79v2.918c-14.826-0.548-25.5-4.185-30.981-10.619c-2.512-2.949-3.516-5.995-3.895-8.299H47v-8
				h-3.137C42.826,39.086,35.654,33.713,31,31.912V28h-8v8h8v-1.947c4.076,1.844,9.921,6.936,10.862,20.947H39v8h3.084
				c0.376,2.612,1.468,6.12,4.374,9.551C52.399,79.564,63.344,83.377,79,83.924V87h8v-8H79z"/>
		</g>
		<g>
			<path style="fill:#FFFFFF;" d="M70.44,31.948l-15.612,7.571l-2.791,17.009l0.715,0.715l21.482-21.482
				C72.359,33.885,70.471,31.99,70.44,31.948z"/>
		</g>
		<g>
			<path style="fill:#0F6175;" d="M74.235,35.761L82,27.996L77.004,23l-6.364,6.364c-0.705,0.705-0.768,1.802-0.2,2.584
				C70.471,31.99,72.359,33.885,74.235,35.761z"/>
		</g>
	</g>
</g>
<g id="R-Blue" style="display:none;">
	<g style="display:inline;">
		<circle style="fill:#81D2EB;" cx="55" cy="55" r="55"/>
	</g>
	<g style="display:inline;">
		<g>
			<path style="fill:#0C333D;" d="M77.004,23l-6.364,6.364c-0.705,0.705-0.767,1.802-0.2,2.584l-15.612,7.571l-2.791,17.009
				l1.337,1.338l17.009-2.79l7.571-15.612c0.782,0.568,1.879,0.505,2.584-0.199l6.364-6.364L77.004,23z"/>
		</g>
		<g>
			<path style="fill:#E1F5FA;" d="M70.44,31.948l-15.612,7.571l-2.791,17.009l1.337,1.338l17.009-2.79l7.571-15.612
				C77.871,39.402,70.502,32.032,70.44,31.948z"/>
		</g>
		<g>
			<path style="fill:#0081A1;" d="M44,76.917v-14h-2v14c-2.279,0.464-4,2.484-4,4.898c0,2.757,2.243,5,5,5c2.757,0,5-2.243,5-5
				C48,79.401,46.279,77.381,44,76.917z"/>
		</g>
		<g>
			<path style="fill:#0081A1;" d="M42,32.917v23h2v-23c2.279-0.465,4-2.484,4-4.899c0-2.757-2.243-5-5-5c-2.757,0-5,2.243-5,5
				C38,30.433,39.721,32.452,42,32.917z"/>
		</g>
		<g>
			<path style="fill:#FFFFFF;" d="M79,79v2.918c-14.826-0.548-25.5-4.185-30.981-10.619c-2.512-2.949-3.516-5.995-3.895-8.299H47v-8
				h-3.137C42.826,39.086,35.654,33.713,31,31.912V28h-8v8h8v-1.947c4.076,1.844,9.921,6.936,10.862,20.947H39v8h3.084
				c0.376,2.612,1.468,6.12,4.374,9.551C52.399,79.564,63.344,83.377,79,83.924V87h8v-8H79z"/>
		</g>
		<g>
			<path style="fill:#FFFFFF;" d="M70.44,31.948l-15.612,7.571l-2.791,17.009l0.715,0.715l21.482-21.482
				C72.359,33.885,70.471,31.99,70.44,31.948z"/>
		</g>
		<g>
			<path style="fill:#0F6175;" d="M74.235,35.761L82,27.996L77.004,23l-6.364,6.364c-0.705,0.705-0.767,1.802-0.2,2.584
				C70.471,31.99,72.359,33.885,74.235,35.761z"/>
		</g>
	</g>
</g>
<g id="Green" style="display:none;">
	<g style="display:inline;">
		<g>
			<path style="fill:#0A3631;" d="M77.004,23l-6.364,6.364c-0.705,0.705-0.768,1.802-0.2,2.584l-15.612,7.571l-2.791,17.009
				l1.337,1.338l17.009-2.79l7.571-15.612c0.782,0.568,1.879,0.505,2.584-0.199l6.364-6.364L77.004,23z"/>
		</g>
		<g>
			<path style="fill:#D7FCF9;" d="M70.44,31.948l-15.612,7.571l-2.791,17.009l1.337,1.338l17.009-2.79l7.571-15.612
				C77.871,39.402,70.501,32.032,70.44,31.948z"/>
		</g>
		<g>
			<path style="fill:#009687;" d="M44,76.917v-14h-2v14c-2.279,0.464-4,2.484-4,4.898c0,2.757,2.243,5,5,5s5-2.243,5-5
				C48,79.401,46.279,77.381,44,76.917z"/>
		</g>
		<g>
			<path style="fill:#009687;" d="M42,32.917v23h2v-23c2.279-0.465,4-2.484,4-4.899c0-2.757-2.243-5-5-5s-5,2.243-5,5
				C38,30.433,39.721,32.452,42,32.917z"/>
		</g>
		<g>
			<path style="fill:#FFFFFF;" d="M79,79v2.918c-14.826-0.548-25.5-4.185-30.981-10.619c-2.512-2.949-3.516-5.995-3.895-8.299H47v-8
				h-3.137C42.826,39.086,35.654,33.714,31,31.912V28h-8v8h8v-1.947c4.076,1.844,9.921,6.936,10.862,20.947H39v8h3.084
				c0.376,2.612,1.468,6.12,4.374,9.551C52.399,79.564,63.344,83.377,79,83.924V87h8v-8H79z"/>
		</g>
		<g>
			<path style="fill:#FFFFFF;" d="M70.44,31.948l-15.612,7.571l-2.791,17.009l0.715,0.715l21.482-21.482
				C72.359,33.885,70.471,31.99,70.44,31.948z"/>
		</g>
		<g>
			<path style="fill:#14635B;" d="M74.235,35.761L82,27.996L77.004,23l-6.364,6.364c-0.705,0.705-0.768,1.802-0.2,2.584
				C70.471,31.99,72.359,33.885,74.235,35.761z"/>
		</g>
	</g>
</g>
<g id="R-Green" style="display:none;">
	<g style="display:inline;">
		<circle style="fill:#87E0C8;" cx="55" cy="55" r="55"/>
	</g>
	<g style="display:inline;">
		<g>
			<path style="fill:#0A3631;" d="M77.004,23l-6.364,6.364c-0.705,0.705-0.768,1.802-0.2,2.584l-15.612,7.571l-2.791,17.009
				l1.337,1.338l17.009-2.79l7.571-15.612c0.782,0.568,1.879,0.505,2.584-0.199l6.364-6.364L77.004,23z"/>
		</g>
		<g>
			<path style="fill:#D7FCF9;" d="M70.44,31.948l-15.612,7.571l-2.791,17.009l1.337,1.338l17.009-2.79l7.571-15.612
				C77.871,39.402,70.502,32.032,70.44,31.948z"/>
		</g>
		<g>
			<path style="fill:#009687;" d="M44,76.917v-14h-2v14c-2.279,0.464-4,2.484-4,4.898c0,2.757,2.243,5,5,5s5-2.243,5-5
				C48,79.401,46.279,77.381,44,76.917z"/>
		</g>
		<g>
			<path style="fill:#009687;" d="M42,32.917v23h2v-23c2.279-0.465,4-2.484,4-4.899c0-2.757-2.243-5-5-5s-5,2.243-5,5
				C38,30.433,39.721,32.452,42,32.917z"/>
		</g>
		<g>
			<path style="fill:#FFFFFF;" d="M79,79v2.918c-14.826-0.548-25.5-4.185-30.981-10.619c-2.512-2.949-3.516-5.995-3.895-8.299H47v-8
				h-3.137C42.826,39.086,35.654,33.713,31,31.912V28h-8v8h8v-1.947c4.076,1.844,9.921,6.936,10.862,20.947H39v8h3.084
				c0.376,2.612,1.468,6.12,4.374,9.551C52.399,79.564,63.344,83.377,79,83.924V87h8v-8H79z"/>
		</g>
		<g>
			<path style="fill:#FFFFFF;" d="M70.44,31.948l-15.612,7.571l-2.791,17.009l0.715,0.715l21.482-21.482
				C72.359,33.885,70.471,31.99,70.44,31.948z"/>
		</g>
		<g>
			<path style="fill:#14635B;" d="M74.235,35.761L82,27.996L77.004,23l-6.364,6.364c-0.705,0.705-0.768,1.802-0.2,2.584
				C70.471,31.99,72.359,33.885,74.235,35.761z"/>
		</g>
	</g>
</g>
<g id="Red" style="display:none;">
	<g style="display:inline;">
		<g>
			<path style="fill:#4A1410;" d="M77.004,23l-6.364,6.364c-0.705,0.705-0.767,1.802-0.2,2.584l-15.612,7.571l-2.791,17.009
				l1.337,1.338l17.009-2.79l7.571-15.612c0.782,0.568,1.879,0.505,2.584-0.199l6.364-6.364L77.004,23z"/>
		</g>
		<g>
			<path style="fill:#FFEFED;" d="M70.44,31.948l-15.612,7.571l-2.791,17.009l1.337,1.338l17.009-2.79l7.571-15.612
				C77.871,39.402,70.502,32.032,70.44,31.948z"/>
		</g>
		<g>
			<path style="fill:#C23023;" d="M44,76.917v-14h-2v14c-2.279,0.464-4,2.484-4,4.898c0,2.757,2.243,5,5,5c2.757,0,5-2.243,5-5
				C48,79.401,46.279,77.381,44,76.917z"/>
		</g>
		<g>
			<path style="fill:#C23023;" d="M42,32.917v23h2v-23c2.279-0.465,4-2.484,4-4.899c0-2.757-2.243-5-5-5c-2.757,0-5,2.243-5,5
				C38,30.433,39.721,32.452,42,32.917z"/>
		</g>
		<g>
			<path style="fill:#FFFFFF;" d="M79,79v2.918c-14.826-0.548-25.5-4.185-30.981-10.619c-2.512-2.949-3.516-5.995-3.895-8.299H47v-8
				h-3.137C42.826,39.086,35.654,33.713,31,31.912V28h-8v8h8v-1.947c4.076,1.844,9.921,6.936,10.862,20.947H39v8h3.084
				c0.376,2.612,1.468,6.12,4.374,9.551C52.399,79.564,63.344,83.377,79,83.924V87h8v-8H79z"/>
		</g>
		<g>
			<path style="fill:#FFFFFF;" d="M70.44,31.948l-15.612,7.571l-2.791,17.009l0.715,0.715l21.482-21.482
				C72.359,33.885,70.471,31.99,70.44,31.948z"/>
		</g>
		<g>
			<path style="fill:#7D261E;" d="M74.235,35.761L82,27.996L77.004,23l-6.364,6.364c-0.705,0.705-0.767,1.802-0.2,2.584
				C70.471,31.99,72.359,33.885,74.235,35.761z"/>
		</g>
	</g>
</g>
<g id="R-Red" style="display:none;">
	<g style="display:inline;">
		<circle style="fill:#FABBAF;" cx="55" cy="55" r="55"/>
	</g>
	<g style="display:inline;">
		<g>
			<path style="fill:#4A1410;" d="M77.004,23l-6.364,6.364c-0.705,0.705-0.767,1.802-0.2,2.584l-15.612,7.571l-2.791,17.009
				l1.337,1.338l17.009-2.79l7.571-15.612c0.782,0.568,1.879,0.505,2.584-0.199l6.364-6.364L77.004,23z"/>
		</g>
		<g>
			<path style="fill:#FFEFED;" d="M70.44,31.948l-15.612,7.571l-2.791,17.009l1.337,1.338l17.009-2.79l7.571-15.612
				C77.871,39.402,70.502,32.032,70.44,31.948z"/>
		</g>
		<g>
			<path style="fill:#C23023;" d="M44,76.917v-14h-2v14c-2.279,0.464-4,2.484-4,4.898c0,2.757,2.243,5,5,5c2.757,0,5-2.243,5-5
				C48,79.401,46.279,77.381,44,76.917z"/>
		</g>
		<g>
			<path style="fill:#C23023;" d="M42,32.917v23h2v-23c2.279-0.465,4-2.484,4-4.899c0-2.757-2.243-5-5-5c-2.757,0-5,2.243-5,5
				C38,30.433,39.721,32.452,42,32.917z"/>
		</g>
		<g>
			<path style="fill:#FFFFFF;" d="M79,79v2.918c-14.826-0.548-25.5-4.185-30.981-10.619c-2.512-2.949-3.516-5.995-3.895-8.299H47v-8
				h-3.137C42.826,39.086,35.654,33.713,31,31.912V28h-8v8h8v-1.947c4.076,1.844,9.921,6.936,10.862,20.947H39v8h3.084
				c0.376,2.612,1.468,6.12,4.374,9.551C52.399,79.564,63.344,83.377,79,83.924V87h8v-8H79z"/>
		</g>
		<g>
			<path style="fill:#FFFFFF;" d="M70.44,31.948l-15.612,7.571l-2.791,17.009l0.715,0.715l21.482-21.482
				C72.359,33.885,70.471,31.99,70.44,31.948z"/>
		</g>
		<g>
			<path style="fill:#7D261E;" d="M74.235,35.761L82,27.996L77.004,23l-6.364,6.364c-0.705,0.705-0.767,1.802-0.2,2.584
				C70.471,31.99,72.359,33.885,74.235,35.761z"/>
		</g>
	</g>
</g>
<g id="Yellow" style="display:none;">
	<g style="display:inline;">
		<g>
			<path style="fill:#3D320C;" d="M77.004,23l-6.364,6.364c-0.705,0.705-0.767,1.802-0.2,2.584l-15.612,7.571l-2.791,17.009
				l1.337,1.338l17.009-2.79l7.571-15.612c0.782,0.568,1.879,0.505,2.584-0.199l6.364-6.364L77.004,23z"/>
		</g>
		<g>
			<path style="fill:#FFF5D9;" d="M70.44,31.948l-15.612,7.571l-2.791,17.009l1.337,1.338l17.009-2.79l7.571-15.612
				C77.871,39.402,70.502,32.032,70.44,31.948z"/>
		</g>
		<g>
			<path style="fill:#E07000;" d="M44,76.917v-14h-2v14c-2.279,0.464-4,2.484-4,4.898c0,2.757,2.243,5,5,5c2.757,0,5-2.243,5-5
				C48,79.401,46.279,77.381,44,76.917z"/>
		</g>
		<g>
			<path style="fill:#E07000;" d="M42,32.917v23h2v-23c2.279-0.465,4-2.484,4-4.899c0-2.757-2.243-5-5-5c-2.757,0-5,2.243-5,5
				C38,30.433,39.721,32.452,42,32.917z"/>
		</g>
		<g>
			<path style="fill:#FFFFFF;" d="M79,79v2.918c-14.826-0.548-25.5-4.185-30.981-10.619c-2.512-2.949-3.516-5.995-3.895-8.299H47v-8
				h-3.137C42.826,39.086,35.654,33.713,31,31.912V28h-8v8h8v-1.947c4.076,1.844,9.921,6.936,10.862,20.947H39v8h3.084
				c0.376,2.612,1.468,6.12,4.374,9.551C52.399,79.564,63.344,83.377,79,83.924V87h8v-8H79z"/>
		</g>
		<g>
			<path style="fill:#FFFFFF;" d="M70.44,31.948l-15.612,7.571l-2.791,17.009l0.715,0.715l21.482-21.482
				C72.359,33.885,70.471,31.99,70.44,31.948z"/>
		</g>
		<g>
			<path style="fill:#66510D;" d="M74.235,35.761L82,27.996L77.004,23l-6.364,6.364c-0.705,0.705-0.767,1.802-0.2,2.584
				C70.471,31.99,72.359,33.885,74.235,35.761z"/>
		</g>
	</g>
</g>
<g id="R-Yellow" style="display:none;">
	<g style="display:inline;">
		<circle style="fill:#FFD75E;" cx="55" cy="55" r="55"/>
	</g>
	<g style="display:inline;">
		<g>
			<path style="fill:#3D320C;" d="M77.004,23l-6.364,6.364c-0.705,0.705-0.768,1.802-0.2,2.584l-15.612,7.571l-2.791,17.009
				l1.337,1.338l17.009-2.79l7.571-15.612c0.782,0.568,1.879,0.505,2.584-0.199l6.364-6.364L77.004,23z"/>
		</g>
		<g>
			<path style="fill:#FFF5D9;" d="M70.44,31.948l-15.612,7.571l-2.791,17.009l1.337,1.338l17.009-2.79l7.571-15.612
				C77.871,39.402,70.501,32.032,70.44,31.948z"/>
		</g>
		<g>
			<path style="fill:#E07000;" d="M44,76.917v-14h-2v14c-2.279,0.464-4,2.484-4,4.898c0,2.757,2.243,5,5,5c2.757,0,5-2.243,5-5
				C48,79.401,46.279,77.381,44,76.917z"/>
		</g>
		<g>
			<path style="fill:#E07000;" d="M42,32.917v23h2v-23c2.279-0.465,4-2.484,4-4.899c0-2.757-2.243-5-5-5c-2.757,0-5,2.243-5,5
				C38,30.433,39.721,32.452,42,32.917z"/>
		</g>
		<g>
			<path style="fill:#FFFFFF;" d="M79,79v2.918c-14.826-0.548-25.5-4.185-30.981-10.619c-2.512-2.949-3.516-5.995-3.895-8.299H47v-8
				h-3.137C42.826,39.086,35.654,33.713,31,31.912V28h-8v8h8v-1.947c4.076,1.844,9.921,6.936,10.862,20.947H39v8h3.084
				c0.376,2.612,1.468,6.12,4.374,9.551C52.399,79.564,63.344,83.377,79,83.924V87h8v-8H79z"/>
		</g>
		<g>
			<path style="fill:#FFFFFF;" d="M70.44,31.948l-15.612,7.571l-2.791,17.009l0.715,0.715l21.482-21.482
				C72.359,33.885,70.471,31.99,70.44,31.948z"/>
		</g>
		<g>
			<path style="fill:#66510D;" d="M74.235,35.761L82,27.996L77.004,23l-6.364,6.364c-0.705,0.705-0.768,1.802-0.2,2.584
				C70.471,31.99,72.359,33.885,74.235,35.761z"/>
		</g>
	</g>
</g>
</svg>
