<?xml version="1.0" encoding="UTF-8" standalone="no"?>
<!DOCTYPE svg PUBLIC "-//W3C//DTD SVG 1.1//EN"
 "http://www.w3.org/Graphics/SVG/1.1/DTD/svg11.dtd">
<!-- Generated by graphviz version 2.40.1 (20161225.0304)
 -->
<!-- Title: dependencies Pages: 1 -->
<svg width="1096pt" height="284pt"
 viewBox="0.00 0.00 1096.00 284.00" xmlns="http://www.w3.org/2000/svg" xmlns:xlink="http://www.w3.org/1999/xlink">
<g id="graph0" class="graph" transform="scale(1 1) rotate(0) translate(4 280)">
<title>dependencies</title>
<polygon fill="#ffffff" stroke="transparent" points="-4,4 -4,-280 1092,-280 1092,4 -4,4"/>
<text text-anchor="start" x="523.0091" y="-42.4" font-family="sans-serif" font-weight="bold" font-size="14.00" fill="#000000">Legend</text>
<polygon fill="#ffffb3" stroke="transparent" points="310,-10 310,-30 330,-30 330,-10 310,-10"/>
<text text-anchor="start" x="333.629" y="-15.4" font-family="sans-serif" font-size="14.00" fill="#000000"> &#160;Declarations</text>
<polygon fill="#8dd3c7" stroke="transparent" points="423,-10 423,-30 443,-30 443,-10 423,-10"/>
<text text-anchor="start" x="446.7251" y="-15.4" font-family="sans-serif" font-size="14.00" fill="#000000"> &#160;Module</text>
<polygon fill="#80b1d3" stroke="transparent" points="509,-10 509,-30 529,-30 529,-10 509,-10"/>
<text text-anchor="start" x="532.7812" y="-15.4" font-family="sans-serif" font-size="14.00" fill="#000000"> &#160;Bootstrap</text>
<polygon fill="#fdb462" stroke="transparent" points="606,-10 606,-30 626,-30 626,-10 606,-10"/>
<text text-anchor="start" x="629.6732" y="-15.4" font-family="sans-serif" font-size="14.00" fill="#000000"> &#160;Providers</text>
<polygon fill="#fb8072" stroke="transparent" points="702,-10 702,-30 722,-30 722,-10 702,-10"/>
<text text-anchor="start" x="725.7258" y="-15.4" font-family="sans-serif" font-size="14.00" fill="#000000"> &#160;Exports</text>
<g id="clust1" class="cluster">
<title>cluster_ExperienciaLaboralModule</title>
<polygon fill="none" stroke="#000000" stroke-dasharray="1,5" points="8,-70 8,-268 1080,-268 1080,-70 8,-70"/>
</g>
<g id="clust3" class="cluster">
<title>cluster_ExperienciaLaboralModule_imports</title>
<polygon fill="none" stroke="#000000" points="608,-78 608,-130 1072,-130 1072,-78 608,-78"/>
</g>
<g id="clust4" class="cluster">
<title>cluster_ExperienciaLaboralModule_exports</title>
<polygon fill="none" stroke="#000000" points="349,-208 349,-260 823,-260 823,-208 349,-208"/>
</g>
<g id="clust6" class="cluster">
<title>cluster_ExperienciaLaboralModule_providers</title>
<polygon fill="none" stroke="#000000" points="16,-78 16,-130 600,-130 600,-78 16,-78"/>
</g>
<!-- ThemeModule -->
<g id="node1" class="node">
<title>ThemeModule</title>
<polygon fill="#8dd3c7" stroke="#000000" points="1064.4231,-122 1061.4231,-126 1040.4231,-126 1037.4231,-122 965.5769,-122 965.5769,-86 1064.4231,-86 1064.4231,-122"/>
<text text-anchor="middle" x="1015" y="-99.8" font-family="Times,serif" font-size="14.00" fill="#000000">ThemeModule</text>
</g>
<!-- ExperienciaLaboralModule -->
<g id="node4" class="node">
<title>ExperienciaLaboralModule</title>
<polygon fill="#8dd3c7" stroke="#000000" points="668.9356,-187 665.9356,-191 644.9356,-191 641.9356,-187 499.0644,-187 499.0644,-151 668.9356,-151 668.9356,-187"/>
<text text-anchor="middle" x="584" y="-164.8" font-family="Times,serif" font-size="14.00" fill="#000000">ExperienciaLaboralModule</text>
</g>
<!-- ThemeModule&#45;&gt;ExperienciaLaboralModule -->
<g id="edge1" class="edge">
<title>ThemeModule&#45;&gt;ExperienciaLaboralModule</title>
<path fill="none" stroke="#000000" d="M1015,-122.2843C1015,-143.3211 1015,-175 1015,-175 1015,-175 679.1517,-175 679.1517,-175"/>
<polygon fill="#000000" stroke="#000000" points="679.1518,-171.5001 669.1517,-175 679.1517,-178.5001 679.1518,-171.5001"/>
</g>
<!-- ExperienciaLaboralRoutingModule -->
<g id="node2" class="node">
<title>ExperienciaLaboralRoutingModule</title>
<polygon fill="#8dd3c7" stroke="#000000" points="947.5534,-122 944.5534,-126 923.5534,-126 920.5534,-122 732.4466,-122 732.4466,-86 947.5534,-86 947.5534,-122"/>
<text text-anchor="middle" x="840" y="-99.8" font-family="Times,serif" font-size="14.00" fill="#000000">ExperienciaLaboralRoutingModule</text>
</g>
<!-- ExperienciaLaboralRoutingModule&#45;&gt;ExperienciaLaboralModule -->
<g id="edge2" class="edge">
<title>ExperienciaLaboralRoutingModule&#45;&gt;ExperienciaLaboralModule</title>
<path fill="none" stroke="#000000" d="M773.5405,-122.0225C773.5405,-139.3734 773.5405,-163 773.5405,-163 773.5405,-163 679.0677,-163 679.0677,-163"/>
<polygon fill="#000000" stroke="#000000" points="679.0678,-159.5001 669.0677,-163 679.0677,-166.5001 679.0678,-159.5001"/>
</g>
<!-- SharedModule -->
<g id="node3" class="node">
<title>SharedModule</title>
<polygon fill="#8dd3c7" stroke="#000000" points="714.4231,-122 711.4231,-126 690.4231,-126 687.4231,-122 615.5769,-122 615.5769,-86 714.4231,-86 714.4231,-122"/>
<text text-anchor="middle" x="665" y="-99.8" font-family="Times,serif" font-size="14.00" fill="#000000">SharedModule</text>
</g>
<!-- SharedModule&#45;&gt;ExperienciaLaboralModule -->
<g id="edge3" class="edge">
<title>SharedModule&#45;&gt;ExperienciaLaboralModule</title>
<path fill="none" stroke="#000000" d="M642.3784,-122.1061C642.3784,-122.1061 642.3784,-140.991 642.3784,-140.991"/>
<polygon fill="#000000" stroke="#000000" points="638.8784,-140.9909 642.3784,-150.991 645.8784,-140.991 638.8784,-140.9909"/>
</g>
<!-- CrudExperienciaLaboralComponent  -->
<g id="node5" class="node">
<title>CrudExperienciaLaboralComponent </title>
<polygon fill="#fb8072" stroke="#000000" points="814.7155,-252 591.2845,-252 591.2845,-216 814.7155,-216 814.7155,-252"/>
<text text-anchor="middle" x="703" y="-229.8" font-family="Times,serif" font-size="14.00" fill="#000000">CrudExperienciaLaboralComponent </text>
</g>
<!-- ExperienciaLaboralModule&#45;&gt;CrudExperienciaLaboralComponent  -->
<g id="edge4" class="edge">
<title>ExperienciaLaboralModule&#45;&gt;CrudExperienciaLaboralComponent </title>
<path fill="none" stroke="#000000" stroke-dasharray="5,2" d="M630.1801,-187.1061C630.1801,-187.1061 630.1801,-205.991 630.1801,-205.991"/>
<polygon fill="#000000" stroke="#000000" points="626.6801,-205.9909 630.1801,-215.991 633.6801,-205.991 626.6801,-205.9909"/>
</g>
<!-- ListExperienciaLaboralComponent  -->
<g id="node6" class="node">
<title>ListExperienciaLaboralComponent </title>
<polygon fill="#fb8072" stroke="#000000" points="573.4966,-252 356.5034,-252 356.5034,-216 573.4966,-216 573.4966,-252"/>
<text text-anchor="middle" x="465" y="-229.8" font-family="Times,serif" font-size="14.00" fill="#000000">ListExperienciaLaboralComponent </text>
</g>
<!-- ExperienciaLaboralModule&#45;&gt;ListExperienciaLaboralComponent  -->
<g id="edge5" class="edge">
<title>ExperienciaLaboralModule&#45;&gt;ListExperienciaLaboralComponent </title>
<path fill="none" stroke="#000000" stroke-dasharray="5,2" d="M536.2653,-187.1061C536.2653,-187.1061 536.2653,-205.991 536.2653,-205.991"/>
<polygon fill="#000000" stroke="#000000" points="532.7653,-205.9909 536.2653,-215.991 539.7653,-205.991 532.7653,-205.9909"/>
</g>
<!-- CampusMidService -->
<g id="node7" class="node">
<title>CampusMidService</title>
<ellipse fill="#fdb462" stroke="#000000" cx="504" cy="-104" rx="87.98" ry="18"/>
<text text-anchor="middle" x="504" y="-99.8" font-family="Times,serif" font-size="14.00" fill="#000000">CampusMidService</text>
</g>
<!-- CampusMidService&#45;&gt;ExperienciaLaboralModule -->
<g id="edge6" class="edge">
<title>CampusMidService&#45;&gt;ExperienciaLaboralModule</title>
<path fill="none" stroke="#000000" d="M545.3859,-120.0674C545.3859,-120.0674 545.3859,-140.8237 545.3859,-140.8237"/>
<polygon fill="#000000" stroke="#000000" points="541.886,-140.8236 545.3859,-150.8237 548.886,-140.8237 541.886,-140.8236"/>
</g>
<!-- OrganizacionService -->
<g id="node8" class="node">
<title>OrganizacionService</title>
<ellipse fill="#fdb462" stroke="#000000" cx="306" cy="-104" rx="92.0123" ry="18"/>
<text text-anchor="middle" x="306" y="-99.8" font-family="Times,serif" font-size="14.00" fill="#000000">OrganizacionService</text>
</g>
<!-- OrganizacionService&#45;&gt;ExperienciaLaboralModule -->
<g id="edge7" class="edge">
<title>OrganizacionService&#45;&gt;ExperienciaLaboralModule</title>
<path fill="none" stroke="#000000" d="M377.2539,-115.6565C377.2539,-132.8509 377.2539,-163 377.2539,-163 377.2539,-163 489.0134,-163 489.0134,-163"/>
<polygon fill="#000000" stroke="#000000" points="489.0135,-166.5001 499.0134,-163 489.0134,-159.5001 489.0135,-166.5001"/>
</g>
<!-- ExperienciaService -->
<g id="node9" class="node">
<title>ExperienciaService</title>
<ellipse fill="#fdb462" stroke="#000000" cx="110" cy="-104" rx="86.2116" ry="18"/>
<text text-anchor="middle" x="110" y="-99.8" font-family="Times,serif" font-size="14.00" fill="#000000">ExperienciaService</text>
</g>
<!-- ExperienciaService&#45;&gt;ExperienciaLaboralModule -->
<g id="edge8" class="edge">
<title>ExperienciaService&#45;&gt;ExperienciaLaboralModule</title>
<path fill="none" stroke="#000000" d="M110,-122.2843C110,-143.3211 110,-175 110,-175 110,-175 488.9847,-175 488.9847,-175"/>
<polygon fill="#000000" stroke="#000000" points="488.9848,-178.5001 498.9847,-175 488.9847,-171.5001 488.9848,-178.5001"/>
</g>
</g>
</svg>
