<?xml version="1.0" encoding="UTF-8" standalone="no"?>
<!DOCTYPE svg PUBLIC "-//W3C//DTD SVG 1.1//EN"
 "http://www.w3.org/Graphics/SVG/1.1/DTD/svg11.dtd">
<!-- Generated by graphviz version 2.40.1 (20161225.0304)
 -->
<!-- Title: dependencies Pages: 1 -->
<svg width="714pt" height="211pt"
 viewBox="0.00 0.00 714.00 211.00" xmlns="http://www.w3.org/2000/svg" xmlns:xlink="http://www.w3.org/1999/xlink">
<g id="graph0" class="graph" transform="scale(1 1) rotate(0) translate(4 207)">
<title>dependencies</title>
<polygon fill="#ffffff" stroke="transparent" points="-4,4 -4,-207 710,-207 710,4 -4,4"/>
<text text-anchor="start" x="332.0091" y="-42.4" font-family="sans-serif" font-weight="bold" font-size="14.00" fill="#000000">Legend</text>
<polygon fill="#ffffb3" stroke="transparent" points="119,-10 119,-30 139,-30 139,-10 119,-10"/>
<text text-anchor="start" x="142.629" y="-15.4" font-family="sans-serif" font-size="14.00" fill="#000000"> &#160;Declarations</text>
<polygon fill="#8dd3c7" stroke="transparent" points="232,-10 232,-30 252,-30 252,-10 232,-10"/>
<text text-anchor="start" x="255.7251" y="-15.4" font-family="sans-serif" font-size="14.00" fill="#000000"> &#160;Module</text>
<polygon fill="#80b1d3" stroke="transparent" points="318,-10 318,-30 338,-30 338,-10 318,-10"/>
<text text-anchor="start" x="341.7812" y="-15.4" font-family="sans-serif" font-size="14.00" fill="#000000"> &#160;Bootstrap</text>
<polygon fill="#fdb462" stroke="transparent" points="415,-10 415,-30 435,-30 435,-10 415,-10"/>
<text text-anchor="start" x="438.6732" y="-15.4" font-family="sans-serif" font-size="14.00" fill="#000000"> &#160;Providers</text>
<polygon fill="#fb8072" stroke="transparent" points="511,-10 511,-30 531,-30 531,-10 511,-10"/>
<text text-anchor="start" x="534.7258" y="-15.4" font-family="sans-serif" font-size="14.00" fill="#000000"> &#160;Exports</text>
<g id="clust1" class="cluster">
<title>cluster_PagesModule</title>
<polygon fill="none" stroke="#000000" stroke-dasharray="1,5" points="8,-70 8,-195 698,-195 698,-70 8,-70"/>
</g>
<g id="clust3" class="cluster">
<title>cluster_PagesModule_imports</title>
<polygon fill="none" stroke="#000000" points="166,-78 166,-130 690,-130 690,-78 166,-78"/>
</g>
<g id="clust6" class="cluster">
<title>cluster_PagesModule_providers</title>
<polygon fill="none" stroke="#000000" points="16,-78 16,-130 158,-130 158,-78 16,-78"/>
</g>
<!-- PagesRoutingModule -->
<g id="node1" class="node">
<title>PagesRoutingModule</title>
<polygon fill="#8dd3c7" stroke="#000000" points="681.8244,-122 678.8244,-126 657.8244,-126 654.8244,-122 544.1756,-122 544.1756,-86 681.8244,-86 681.8244,-122"/>
<text text-anchor="middle" x="613" y="-99.8" font-family="Times,serif" font-size="14.00" fill="#000000">PagesRoutingModule</text>
</g>
<!-- PagesModule -->
<g id="node5" class="node">
<title>PagesModule</title>
<polygon fill="#8dd3c7" stroke="#000000" points="396.2064,-187 393.2064,-191 372.2064,-191 369.2064,-187 303.7936,-187 303.7936,-151 396.2064,-151 396.2064,-187"/>
<text text-anchor="middle" x="350" y="-164.8" font-family="Times,serif" font-size="14.00" fill="#000000">PagesModule</text>
</g>
<!-- PagesRoutingModule&#45;&gt;PagesModule -->
<g id="edge1" class="edge">
<title>PagesRoutingModule&#45;&gt;PagesModule</title>
<path fill="none" stroke="#000000" d="M613,-122.2843C613,-143.3211 613,-175 613,-175 613,-175 406.1121,-175 406.1121,-175"/>
<polygon fill="#000000" stroke="#000000" points="406.1121,-171.5001 396.1121,-175 406.112,-178.5001 406.1121,-171.5001"/>
</g>
<!-- ThemeModule -->
<g id="node2" class="node">
<title>ThemeModule</title>
<polygon fill="#8dd3c7" stroke="#000000" points="526.4231,-122 523.4231,-126 502.4231,-126 499.4231,-122 427.5769,-122 427.5769,-86 526.4231,-86 526.4231,-122"/>
<text text-anchor="middle" x="477" y="-99.8" font-family="Times,serif" font-size="14.00" fill="#000000">ThemeModule</text>
</g>
<!-- ThemeModule&#45;&gt;PagesModule -->
<g id="edge2" class="edge">
<title>ThemeModule&#45;&gt;PagesModule</title>
<path fill="none" stroke="#000000" d="M477,-122.0225C477,-139.3734 477,-163 477,-163 477,-163 406.2092,-163 406.2092,-163"/>
<polygon fill="#000000" stroke="#000000" points="406.2092,-159.5001 396.2092,-163 406.2091,-166.5001 406.2092,-159.5001"/>
</g>
<!-- DashboardModule -->
<g id="node3" class="node">
<title>DashboardModule</title>
<polygon fill="#8dd3c7" stroke="#000000" points="410.191,-122 407.191,-126 386.191,-126 383.191,-122 289.809,-122 289.809,-86 410.191,-86 410.191,-122"/>
<text text-anchor="middle" x="350" y="-99.8" font-family="Times,serif" font-size="14.00" fill="#000000">DashboardModule</text>
</g>
<!-- DashboardModule&#45;&gt;PagesModule -->
<g id="edge3" class="edge">
<title>DashboardModule&#45;&gt;PagesModule</title>
<path fill="none" stroke="#000000" d="M350,-122.1061C350,-122.1061 350,-140.991 350,-140.991"/>
<polygon fill="#000000" stroke="#000000" points="346.5001,-140.9909 350,-150.991 353.5001,-140.991 346.5001,-140.9909"/>
</g>
<!-- SharedModule -->
<g id="node4" class="node">
<title>SharedModule</title>
<polygon fill="#8dd3c7" stroke="#000000" points="272.4231,-122 269.4231,-126 248.4231,-126 245.4231,-122 173.5769,-122 173.5769,-86 272.4231,-86 272.4231,-122"/>
<text text-anchor="middle" x="223" y="-99.8" font-family="Times,serif" font-size="14.00" fill="#000000">SharedModule</text>
</g>
<!-- SharedModule&#45;&gt;PagesModule -->
<g id="edge4" class="edge">
<title>SharedModule&#45;&gt;PagesModule</title>
<path fill="none" stroke="#000000" d="M223,-122.0225C223,-139.3734 223,-163 223,-163 223,-163 293.7908,-163 293.7908,-163"/>
<polygon fill="#000000" stroke="#000000" points="293.7909,-166.5001 303.7908,-163 293.7908,-159.5001 293.7909,-166.5001"/>
</g>
<!-- MenuService -->
<g id="node6" class="node">
<title>MenuService</title>
<ellipse fill="#fdb462" stroke="#000000" cx="87" cy="-104" rx="62.5392" ry="18"/>
<text text-anchor="middle" x="87" y="-99.8" font-family="Times,serif" font-size="14.00" fill="#000000">MenuService</text>
</g>
<!-- MenuService&#45;&gt;PagesModule -->
<g id="edge5" class="edge">
<title>MenuService&#45;&gt;PagesModule</title>
<path fill="none" stroke="#000000" d="M87,-122.2843C87,-143.3211 87,-175 87,-175 87,-175 293.8879,-175 293.8879,-175"/>
<polygon fill="#000000" stroke="#000000" points="293.888,-178.5001 303.8879,-175 293.8879,-171.5001 293.888,-178.5001"/>
</g>
</g>
</svg>
