<?xml version="1.0" ?><!DOCTYPE svg  PUBLIC '-//W3C//DTD SVG 1.0//EN'  'http://www.w3.org/TR/2001/REC-SVG-20010904/DTD/svg10.dtd'><svg enable-background="new 0 0 32 32" height="32px" id="Layer_1" version="1.0" viewBox="0 0 32 32" width="32px" xml:space="preserve" xmlns="http://www.w3.org/2000/svg" xmlns:xlink="http://www.w3.org/1999/xlink"><g><path d="M16,24.188c-1.625,0-3.104-0.438-4.438-1.312c-1.334-0.875-2.334-2-3-3.375L2,8c-1.375,2.459-2,5.209-2,8   c0,4,1.302,7.49,3.906,10.469c2.604,2.979,5.844,4.76,9.719,5.344l4.641-8.031C17.799,23.919,17.02,24.188,16,24.188z" fill="#4AAE48"/><path d="M10.969,9.531C12.447,8.386,14.125,8,16,8c0.25,0,13.75,0,13.75,0c-1.417-2.416-3.344-4.458-5.781-5.875   C21.531,0.709,18.875,0,16,0c-2.5,0-4.834,0.531-7,1.594C6.833,2.656,4.828,4.203,3.359,6.188L8,14   C8.458,12.209,9.489,10.678,10.969,9.531z" fill="#EA3939"/><path d="M30.797,10H21.5c1.625,1.625,2.688,3.709,2.688,6c0,1.709-0.479,3.271-1.438,4.688L16.188,32   c4.375-0.042,8.104-1.625,11.188-4.75C30.458,24.125,32,20.375,32,16C32,13.959,31.656,11.812,30.797,10z" fill="#FED14B"/><circle cx="16" cy="16" fill="#188FD1" r="6"/></g><g/><g/><g/><g/><g/><g/></svg>