<?xml version="1.0" ?><svg enable-background="new -0.002 -0.501 32 31" height="31" viewBox="-0.002 -0.501 32 31" width="32" xmlns="http://www.w3.org/2000/svg"><path d="M15.998-.501c8.284 0 15 6.715 15 15 0 8.283-6.716 15-15 15s-15-6.717-15-15c0-8.286 6.716-15 15-15z" fill="#2394BC"/><path d="M18.562 30.274c7.614-1.229 13.437-7.814 13.437-15.775l-.146.181c.228-1.513.188-2.861-.125-4.037-.112.871-.234 1.397-.357 1.608-.001-.068-.018-.976-.307-2.243-.137-.924-.338-1.793-.616-2.596.068.368.108.675.128.953-1.162-3.118-4.023-6.957-11.072-6.867 0 0 2.479.262 3.646 2.029 0 0-1.193-.285-2.095.152 1.099.438 2.052.896 2.863 1.374l.07.043c.208.125.385.253.573.38 1.498 1.052 2.888 2.553 2.782 4.489-.323-.51-.753-.844-1.304-1.012.679 2.66.746 4.857.197 6.59-.377-1.154-.724-1.846-1.033-2.09.431 3.566-.15 6.203-1.739 7.922.302-1.049.422-1.908.354-2.586-1.867 2.822-3.991 4.281-6.372 4.371-.941-.008-1.83-.15-2.666-.426-1.228-.415-2.339-1.124-3.328-2.13 1.544.129 2.954-.139 4.195-.772l2.033-1.332-.008-.006c.264-.1.512-.092.754.021.496-.068.67-.334.504-.783-.24-.334-.603-.637-1.069-.904-1.017-.531-2.079-.447-3.187.26-1.055.6-2.07.576-3.058-.062-.647-.447-1.272-1.049-1.876-1.801l-.24-.355c-.113.852.015 1.945.398 3.291l.008.018-.008-.016c-.384-1.346-.511-2.442-.398-3.293v-.008c.029-.744.337-1.154.924-1.246l-.249-.021.251.021c.663.061 1.424.213 2.282.463.144-.828-.045-1.695-.564-2.584v-.016c.806-.752 1.521-1.299 2.132-1.648.271-.145.429-.365.481-.662l.022-.016.008-.008.03-.029c.158-.236.105-.426-.165-.594-.565.031-1.131-.008-1.695-.121l-.008.023c-.233-.068-.527-.275-.889-.625l-.927-.912-.278-.219v.029h-.008l.008-.037-.053-.055.075-.053c.128-.691.339-1.285.64-1.795l.068-.061c.302-.502.881-1.041 1.732-1.617-1.582.197-3.013.91-4.285 2.143-1.055-.387-2.305-.305-3.744.25l-.173.132-.013.007.188-.138.008-.008c-.905-.416-1.515-1.611-1.809-3.564-1.152 1.141-1.71 3.178-1.673 6.119l-.33.499-.085.058-.017.016-.007.007-.016.033c-.175.274-.416.688-.72 1.244-.437.786-.584 1.446-.627 2.021l-.004.007.002.019-.014.151.025-.04c.003.133.006.267.04.387l.934-.768c-.339.859-.564 1.77-.678 2.736l-.027.442-.293-.335c0 3.428 1.088 6.597 2.924 9.201l.055.086.088.105c1.32 1.813 3.006 3.338 4.958 4.464 1.403.831 2.911 1.413 4.519 1.759l.331.074c.333.064.674.112 1.016.155.253.033.506.065.762.087l.34.039.483.003.525.026.418-.021.689-.034c.409-.028.812-.073 1.212-.131l.243-.036zm-9.409-16.75h0zm19.527-2.741l-.007.131.005-.132.002.001z" fill="#EC8840"/></svg>