<?xml version="1.0" ?><!DOCTYPE svg  PUBLIC '-//W3C//DTD SVG 1.0//EN'  'http://www.w3.org/TR/2001/REC-SVG-20010904/DTD/svg10.dtd'><svg enable-background="new 0 0 32 32" height="32px" id="Layer_1" version="1.0" viewBox="0 0 32 32" width="32px" xml:space="preserve" xmlns="http://www.w3.org/2000/svg" xmlns:xlink="http://www.w3.org/1999/xlink"><g><path d="M11.466,18.942v0.064c0,1.051,0.24,2.06,0.725,3.022c0.569,1.008,1.349,1.806,2.336,2.397   c0.987,0.59,2.084,0.886,3.29,0.886s2.305-0.296,3.292-0.886c0.986-0.592,1.765-1.39,2.335-2.397h7.833   c-1.011,2.847-2.765,5.179-5.265,6.994c-2.502,1.817-5.311,2.726-8.425,2.726c-2.325,0-4.519-0.503-6.581-1.511   c-4.607,2.234-7.92,2.343-9.938,0.329c-0.703-0.656-1.053-1.751-1.053-3.284c0-1.532,0.296-3.24,0.889-5.123   c0.592-1.882,1.579-3.952,2.962-6.207c1.381-2.255,3.016-4.302,4.902-6.141c1.097-1.139,1.799-1.84,2.105-2.102   c-2.721,1.312-5.178,3.35-7.37,6.107c0.789-3.196,2.49-5.823,5.1-7.882c2.61-2.058,5.605-3.087,8.984-3.087   c0.351,0,0.701,0.022,1.052,0.065c2.458-1.095,4.695-1.707,6.714-1.839c2.018-0.132,3.443,0.197,4.277,0.985   c1.667,1.708,1.821,4.379,0.461,8.013C31.363,12.308,32,14.717,32,17.3c0,0.613-0.022,1.16-0.065,1.643h-7.767H11.466z    M10.085,29.714c-2.939-1.795-5.003-4.312-6.188-7.554c-1.974,3.854-2.237,6.503-0.79,7.948   C4.38,31.378,6.705,31.246,10.085,29.714z M23.642,15.133c-0.088-1.577-0.724-2.923-1.908-4.04   c-1.185-1.116-2.578-1.675-4.179-1.675c-1.603,0-2.995,0.559-4.179,1.675c-1.186,1.117-1.822,2.463-1.91,4.04H23.642z    M22.918,3.901c2.807,1.138,5.045,2.977,6.712,5.517c1.01-2.715,0.965-4.619-0.131-5.715C28.314,2.478,26.12,2.544,22.918,3.901z" fill="#188FD1"/></g><g/><g/><g/><g/><g/><g/></svg>