<?xml version="1.0" ?><!DOCTYPE svg  PUBLIC '-//W3C//DTD SVG 1.0//EN'  'http://www.w3.org/TR/2001/REC-SVG-20010904/DTD/svg10.dtd'><svg enable-background="new 0 0 32 32" height="32px" id="Layer_1" version="1.0" viewBox="0 0 32 32" width="32px" xml:space="preserve" xmlns="http://www.w3.org/2000/svg" xmlns:xlink="http://www.w3.org/1999/xlink"><g><path d="M26.737,4.375c2.842,2.917,4.264,6.75,4.264,11.5c0,4.334-1.422,8.104-4.264,11.312   C23.895,30.396,20.295,32,15.938,32c-4.316,0-7.885-1.604-10.706-4.812C2.41,23.979,1,20.209,1,15.875   c0-4.75,1.39-8.583,4.171-11.5C7.95,1.459,11.54,0,15.938,0C20.295,0,23.895,1.459,26.737,4.375z M21.291,11.062   c-0.124-1.291-0.373-2.552-0.747-3.781c-0.373-1.229-0.944-2.177-1.711-2.844c-0.769-0.666-1.733-1-2.895-1   c-1.162,0-2.116,0.323-2.863,0.969C12.328,5.053,11.778,6,11.426,7.25S10.835,9.75,10.71,11c-0.124,1.25-0.187,2.771-0.187,4.562   c0,1.125,0.021,2.073,0.062,2.844c0.04,0.771,0.113,1.709,0.218,2.812c0.103,1.104,0.27,2.031,0.498,2.781   c0.228,0.75,0.538,1.49,0.934,2.219c0.394,0.729,0.902,1.281,1.524,1.656s1.348,0.562,2.179,0.562c0.829,0,1.565-0.188,2.21-0.562   c0.643-0.375,1.161-0.927,1.556-1.656C20.098,25.49,20.42,24.75,20.669,24s0.436-1.677,0.56-2.781   c0.125-1.104,0.197-2.052,0.219-2.844c0.02-0.791,0.03-1.729,0.03-2.812C21.478,13.854,21.416,12.354,21.291,11.062z" fill="#EA3939"/></g><g/><g/><g/><g/><g/><g/></svg>