<?xml version="1.0" encoding="UTF-8" standalone="no"?>
<!DOCTYPE svg PUBLIC "-//W3C//DTD SVG 1.1//EN"
 "http://www.w3.org/Graphics/SVG/1.1/DTD/svg11.dtd">
<!-- Generated by graphviz version 2.40.1 (20161225.0304)
 -->
<!-- Title: dependencies Pages: 1 -->
<svg width="684pt" height="284pt"
 viewBox="0.00 0.00 684.00 284.00" xmlns="http://www.w3.org/2000/svg" xmlns:xlink="http://www.w3.org/1999/xlink">
<g id="graph0" class="graph" transform="scale(1 1) rotate(0) translate(4 280)">
<title>dependencies</title>
<polygon fill="#ffffff" stroke="transparent" points="-4,4 -4,-280 680,-280 680,4 -4,4"/>
<text text-anchor="start" x="317.0091" y="-42.4" font-family="sans-serif" font-weight="bold" font-size="14.00" fill="#000000">Legend</text>
<polygon fill="#ffffb3" stroke="transparent" points="104,-10 104,-30 124,-30 124,-10 104,-10"/>
<text text-anchor="start" x="127.629" y="-15.4" font-family="sans-serif" font-size="14.00" fill="#000000"> &#160;Declarations</text>
<polygon fill="#8dd3c7" stroke="transparent" points="217,-10 217,-30 237,-30 237,-10 217,-10"/>
<text text-anchor="start" x="240.7251" y="-15.4" font-family="sans-serif" font-size="14.00" fill="#000000"> &#160;Module</text>
<polygon fill="#80b1d3" stroke="transparent" points="303,-10 303,-30 323,-30 323,-10 303,-10"/>
<text text-anchor="start" x="326.7812" y="-15.4" font-family="sans-serif" font-size="14.00" fill="#000000"> &#160;Bootstrap</text>
<polygon fill="#fdb462" stroke="transparent" points="400,-10 400,-30 420,-30 420,-10 400,-10"/>
<text text-anchor="start" x="423.6732" y="-15.4" font-family="sans-serif" font-size="14.00" fill="#000000"> &#160;Providers</text>
<polygon fill="#fb8072" stroke="transparent" points="496,-10 496,-30 516,-30 516,-10 496,-10"/>
<text text-anchor="start" x="519.7258" y="-15.4" font-family="sans-serif" font-size="14.00" fill="#000000"> &#160;Exports</text>
<g id="clust1" class="cluster">
<title>cluster_LugarUbicacionModule</title>
<polygon fill="none" stroke="#000000" stroke-dasharray="1,5" points="8,-70 8,-268 668,-268 668,-70 8,-70"/>
</g>
<g id="clust3" class="cluster">
<title>cluster_LugarUbicacionModule_imports</title>
<polygon fill="none" stroke="#000000" points="216,-78 216,-130 660,-130 660,-78 216,-78"/>
</g>
<g id="clust4" class="cluster">
<title>cluster_LugarUbicacionModule_exports</title>
<polygon fill="none" stroke="#000000" points="245,-208 245,-260 465,-260 465,-208 245,-208"/>
</g>
<g id="clust6" class="cluster">
<title>cluster_LugarUbicacionModule_providers</title>
<polygon fill="none" stroke="#000000" points="16,-78 16,-130 208,-130 208,-78 16,-78"/>
</g>
<!-- ThemeModule -->
<g id="node1" class="node">
<title>ThemeModule</title>
<polygon fill="#8dd3c7" stroke="#000000" points="652.4231,-122 649.4231,-126 628.4231,-126 625.4231,-122 553.5769,-122 553.5769,-86 652.4231,-86 652.4231,-122"/>
<text text-anchor="middle" x="603" y="-99.8" font-family="Times,serif" font-size="14.00" fill="#000000">ThemeModule</text>
</g>
<!-- LugarUbicacionModule -->
<g id="node4" class="node">
<title>LugarUbicacionModule</title>
<polygon fill="#8dd3c7" stroke="#000000" points="430.01,-187 427.01,-191 406.01,-191 403.01,-187 279.99,-187 279.99,-151 430.01,-151 430.01,-187"/>
<text text-anchor="middle" x="355" y="-164.8" font-family="Times,serif" font-size="14.00" fill="#000000">LugarUbicacionModule</text>
</g>
<!-- ThemeModule&#45;&gt;LugarUbicacionModule -->
<g id="edge1" class="edge">
<title>ThemeModule&#45;&gt;LugarUbicacionModule</title>
<path fill="none" stroke="#000000" d="M603,-122.1061C603,-141.3391 603,-169 603,-169 603,-169 440.0812,-169 440.0812,-169"/>
<polygon fill="#000000" stroke="#000000" points="440.0812,-165.5001 430.0812,-169 440.0812,-172.5001 440.0812,-165.5001"/>
</g>
<!-- LugarUbicacionRoutingModule -->
<g id="node2" class="node">
<title>LugarUbicacionRoutingModule</title>
<polygon fill="#8dd3c7" stroke="#000000" points="535.6274,-122 532.6274,-126 511.6274,-126 508.6274,-122 340.3726,-122 340.3726,-86 535.6274,-86 535.6274,-122"/>
<text text-anchor="middle" x="438" y="-99.8" font-family="Times,serif" font-size="14.00" fill="#000000">LugarUbicacionRoutingModule</text>
</g>
<!-- LugarUbicacionRoutingModule&#45;&gt;LugarUbicacionModule -->
<g id="edge2" class="edge">
<title>LugarUbicacionRoutingModule&#45;&gt;LugarUbicacionModule</title>
<path fill="none" stroke="#000000" d="M385.2206,-122.1061C385.2206,-122.1061 385.2206,-140.991 385.2206,-140.991"/>
<polygon fill="#000000" stroke="#000000" points="381.7206,-140.9909 385.2206,-150.991 388.7206,-140.991 381.7206,-140.9909"/>
</g>
<!-- SharedModule -->
<g id="node3" class="node">
<title>SharedModule</title>
<polygon fill="#8dd3c7" stroke="#000000" points="322.4231,-122 319.4231,-126 298.4231,-126 295.4231,-122 223.5769,-122 223.5769,-86 322.4231,-86 322.4231,-122"/>
<text text-anchor="middle" x="273" y="-99.8" font-family="Times,serif" font-size="14.00" fill="#000000">SharedModule</text>
</g>
<!-- SharedModule&#45;&gt;LugarUbicacionModule -->
<g id="edge3" class="edge">
<title>SharedModule&#45;&gt;LugarUbicacionModule</title>
<path fill="none" stroke="#000000" d="M300.9783,-122.1061C300.9783,-122.1061 300.9783,-140.991 300.9783,-140.991"/>
<polygon fill="#000000" stroke="#000000" points="297.4783,-140.9909 300.9783,-150.991 304.4783,-140.991 297.4783,-140.9909"/>
</g>
<!-- CrudLugarUbicacionComponent  -->
<g id="node5" class="node">
<title>CrudLugarUbicacionComponent </title>
<polygon fill="#fb8072" stroke="#000000" points="456.7891,-252 253.2109,-252 253.2109,-216 456.7891,-216 456.7891,-252"/>
<text text-anchor="middle" x="355" y="-229.8" font-family="Times,serif" font-size="14.00" fill="#000000">CrudLugarUbicacionComponent </text>
</g>
<!-- LugarUbicacionModule&#45;&gt;CrudLugarUbicacionComponent  -->
<g id="edge4" class="edge">
<title>LugarUbicacionModule&#45;&gt;CrudLugarUbicacionComponent </title>
<path fill="none" stroke="#000000" stroke-dasharray="5,2" d="M355,-187.1061C355,-187.1061 355,-205.991 355,-205.991"/>
<polygon fill="#000000" stroke="#000000" points="351.5001,-205.9909 355,-215.991 358.5001,-205.991 351.5001,-205.9909"/>
</g>
<!-- UbicacionesService -->
<g id="node6" class="node">
<title>UbicacionesService</title>
<ellipse fill="#fdb462" stroke="#000000" cx="112" cy="-104" rx="87.9374" ry="18"/>
<text text-anchor="middle" x="112" y="-99.8" font-family="Times,serif" font-size="14.00" fill="#000000">UbicacionesService</text>
</g>
<!-- UbicacionesService&#45;&gt;LugarUbicacionModule -->
<g id="edge5" class="edge">
<title>UbicacionesService&#45;&gt;LugarUbicacionModule</title>
<path fill="none" stroke="#000000" d="M112,-122.1061C112,-141.3391 112,-169 112,-169 112,-169 269.7774,-169 269.7774,-169"/>
<polygon fill="#000000" stroke="#000000" points="269.7775,-172.5001 279.7774,-169 269.7774,-165.5001 269.7775,-172.5001"/>
</g>
</g>
</svg>
