<?xml version="1.0" encoding="UTF-8" standalone="no"?>
<!DOCTYPE svg PUBLIC "-//W3C//DTD SVG 1.1//EN"
 "http://www.w3.org/Graphics/SVG/1.1/DTD/svg11.dtd">
<!-- Generated by graphviz version 2.40.1 (20161225.0304)
 -->
<!-- Title: dependencies Pages: 1 -->
<svg width="2631pt" height="211pt"
 viewBox="0.00 0.00 2631.00 211.00" xmlns="http://www.w3.org/2000/svg" xmlns:xlink="http://www.w3.org/1999/xlink">
<g id="graph0" class="graph" transform="scale(1 1) rotate(0) translate(4 207)">
<title>dependencies</title>
<polygon fill="#ffffff" stroke="transparent" points="-4,4 -4,-207 2627,-207 2627,4 -4,4"/>
<text text-anchor="start" x="1290.5091" y="-42.4" font-family="sans-serif" font-weight="bold" font-size="14.00" fill="#000000">Legend</text>
<polygon fill="#ffffb3" stroke="transparent" points="1077.5,-10 1077.5,-30 1097.5,-30 1097.5,-10 1077.5,-10"/>
<text text-anchor="start" x="1101.129" y="-15.4" font-family="sans-serif" font-size="14.00" fill="#000000"> &#160;Declarations</text>
<polygon fill="#8dd3c7" stroke="transparent" points="1190.5,-10 1190.5,-30 1210.5,-30 1210.5,-10 1190.5,-10"/>
<text text-anchor="start" x="1214.2251" y="-15.4" font-family="sans-serif" font-size="14.00" fill="#000000"> &#160;Module</text>
<polygon fill="#80b1d3" stroke="transparent" points="1276.5,-10 1276.5,-30 1296.5,-30 1296.5,-10 1276.5,-10"/>
<text text-anchor="start" x="1300.2812" y="-15.4" font-family="sans-serif" font-size="14.00" fill="#000000"> &#160;Bootstrap</text>
<polygon fill="#fdb462" stroke="transparent" points="1373.5,-10 1373.5,-30 1393.5,-30 1393.5,-10 1373.5,-10"/>
<text text-anchor="start" x="1397.1732" y="-15.4" font-family="sans-serif" font-size="14.00" fill="#000000"> &#160;Providers</text>
<polygon fill="#fb8072" stroke="transparent" points="1469.5,-10 1469.5,-30 1489.5,-30 1489.5,-10 1469.5,-10"/>
<text text-anchor="start" x="1493.2258" y="-15.4" font-family="sans-serif" font-size="14.00" fill="#000000"> &#160;Exports</text>
<g id="clust1" class="cluster">
<title>cluster_InscripcionModule</title>
<polygon fill="none" stroke="#000000" stroke-dasharray="1,5" points="8,-70 8,-195 2615,-195 2615,-70 8,-70"/>
</g>
<g id="clust3" class="cluster">
<title>cluster_InscripcionModule_imports</title>
<polygon fill="none" stroke="#000000" points="1158,-78 1158,-130 2607,-130 2607,-78 1158,-78"/>
</g>
<g id="clust6" class="cluster">
<title>cluster_InscripcionModule_providers</title>
<polygon fill="none" stroke="#000000" points="16,-78 16,-130 1150,-130 1150,-78 16,-78"/>
</g>
<!-- ThemeModule -->
<g id="node1" class="node">
<title>ThemeModule</title>
<polygon fill="#8dd3c7" stroke="#000000" points="2599.4231,-122 2596.4231,-126 2575.4231,-126 2572.4231,-122 2500.5769,-122 2500.5769,-86 2599.4231,-86 2599.4231,-122"/>
<text text-anchor="middle" x="2550" y="-99.8" font-family="Times,serif" font-size="14.00" fill="#000000">ThemeModule</text>
</g>
<!-- InscripcionModule -->
<g id="node10" class="node">
<title>InscripcionModule</title>
<polygon fill="#8dd3c7" stroke="#000000" points="1507.0269,-187 1504.0269,-191 1483.0269,-191 1480.0269,-187 1384.9731,-187 1384.9731,-151 1507.0269,-151 1507.0269,-187"/>
<text text-anchor="middle" x="1446" y="-164.8" font-family="Times,serif" font-size="14.00" fill="#000000">InscripcionModule</text>
</g>
<!-- ThemeModule&#45;&gt;InscripcionModule -->
<g id="edge1" class="edge">
<title>ThemeModule&#45;&gt;InscripcionModule</title>
<path fill="none" stroke="#000000" d="M2550,-122.3228C2550,-145.6602 2550,-183 2550,-183 2550,-183 1517.3244,-183 1517.3244,-183"/>
<polygon fill="#000000" stroke="#000000" points="1517.3244,-179.5001 1507.3244,-183 1517.3243,-186.5001 1517.3244,-179.5001"/>
</g>
<!-- InscripcionRoutingModule -->
<g id="node2" class="node">
<title>InscripcionRoutingModule</title>
<polygon fill="#8dd3c7" stroke="#000000" points="2482.6442,-122 2479.6442,-126 2458.6442,-126 2455.6442,-122 2315.3558,-122 2315.3558,-86 2482.6442,-86 2482.6442,-122"/>
<text text-anchor="middle" x="2399" y="-99.8" font-family="Times,serif" font-size="14.00" fill="#000000">InscripcionRoutingModule</text>
</g>
<!-- InscripcionRoutingModule&#45;&gt;InscripcionModule -->
<g id="edge2" class="edge">
<title>InscripcionRoutingModule&#45;&gt;InscripcionModule</title>
<path fill="none" stroke="#000000" d="M2399,-122.2921C2399,-144.2057 2399,-178 2399,-178 2399,-178 1517.0642,-178 1517.0642,-178"/>
<polygon fill="#000000" stroke="#000000" points="1517.0642,-174.5001 1507.0642,-178 1517.0641,-181.5001 1517.0642,-174.5001"/>
</g>
<!-- SharedModule -->
<g id="node3" class="node">
<title>SharedModule</title>
<polygon fill="#8dd3c7" stroke="#000000" points="2297.4231,-122 2294.4231,-126 2273.4231,-126 2270.4231,-122 2198.5769,-122 2198.5769,-86 2297.4231,-86 2297.4231,-122"/>
<text text-anchor="middle" x="2248" y="-99.8" font-family="Times,serif" font-size="14.00" fill="#000000">SharedModule</text>
</g>
<!-- SharedModule&#45;&gt;InscripcionModule -->
<g id="edge3" class="edge">
<title>SharedModule&#45;&gt;InscripcionModule</title>
<path fill="none" stroke="#000000" d="M2248,-122.0267C2248,-142.7672 2248,-174 2248,-174 2248,-174 1517.2689,-174 1517.2689,-174"/>
<polygon fill="#000000" stroke="#000000" points="1517.2689,-170.5001 1507.2689,-174 1517.2688,-177.5001 1517.2689,-170.5001"/>
</g>
<!-- InformacionContactoModule -->
<g id="node4" class="node">
<title>InformacionContactoModule</title>
<polygon fill="#8dd3c7" stroke="#000000" points="2180.7892,-122 2177.7892,-126 2156.7892,-126 2153.7892,-122 2001.2108,-122 2001.2108,-86 2180.7892,-86 2180.7892,-122"/>
<text text-anchor="middle" x="2091" y="-99.8" font-family="Times,serif" font-size="14.00" fill="#000000">InformacionContactoModule</text>
</g>
<!-- InformacionContactoModule&#45;&gt;InscripcionModule -->
<g id="edge4" class="edge">
<title>InformacionContactoModule&#45;&gt;InscripcionModule</title>
<path fill="none" stroke="#000000" d="M2091,-122.1061C2091,-141.3391 2091,-169 2091,-169 2091,-169 1517.2615,-169 1517.2615,-169"/>
<polygon fill="#000000" stroke="#000000" points="1517.2616,-165.5001 1507.2615,-169 1517.2615,-172.5001 1517.2616,-165.5001"/>
</g>
<!-- InfoPersonaModule -->
<g id="node5" class="node">
<title>InfoPersonaModule</title>
<polygon fill="#8dd3c7" stroke="#000000" points="1983.6881,-122 1980.6881,-126 1959.6881,-126 1956.6881,-122 1856.3119,-122 1856.3119,-86 1983.6881,-86 1983.6881,-122"/>
<text text-anchor="middle" x="1920" y="-99.8" font-family="Times,serif" font-size="14.00" fill="#000000">InfoPersonaModule</text>
</g>
<!-- InfoPersonaModule&#45;&gt;InscripcionModule -->
<g id="edge5" class="edge">
<title>InfoPersonaModule&#45;&gt;InscripcionModule</title>
<path fill="none" stroke="#000000" d="M1920,-122.302C1920,-140.2699 1920,-165 1920,-165 1920,-165 1517.4813,-165 1517.4813,-165"/>
<polygon fill="#000000" stroke="#000000" points="1517.4813,-161.5001 1507.4813,-165 1517.4813,-168.5001 1517.4813,-161.5001"/>
</g>
<!-- InfoCaracteristicaModule -->
<g id="node6" class="node">
<title>InfoCaracteristicaModule</title>
<polygon fill="#8dd3c7" stroke="#000000" points="1837.8235,-122 1834.8235,-126 1813.8235,-126 1810.8235,-122 1678.1765,-122 1678.1765,-86 1837.8235,-86 1837.8235,-122"/>
<text text-anchor="middle" x="1758" y="-99.8" font-family="Times,serif" font-size="14.00" fill="#000000">InfoCaracteristicaModule</text>
</g>
<!-- InfoCaracteristicaModule&#45;&gt;InscripcionModule -->
<g id="edge6" class="edge">
<title>InfoCaracteristicaModule&#45;&gt;InscripcionModule</title>
<path fill="none" stroke="#000000" d="M1758,-122.027C1758,-138.3976 1758,-160 1758,-160 1758,-160 1517.2689,-160 1517.2689,-160"/>
<polygon fill="#000000" stroke="#000000" points="1517.2689,-156.5001 1507.2689,-160 1517.2689,-163.5001 1517.2689,-156.5001"/>
</g>
<!-- IdiomasModule -->
<g id="node7" class="node">
<title>IdiomasModule</title>
<polygon fill="#8dd3c7" stroke="#000000" points="1660.1514,-122 1657.1514,-126 1636.1514,-126 1633.1514,-122 1555.8486,-122 1555.8486,-86 1660.1514,-86 1660.1514,-122"/>
<text text-anchor="middle" x="1608" y="-99.8" font-family="Times,serif" font-size="14.00" fill="#000000">IdiomasModule</text>
</g>
<!-- IdiomasModule&#45;&gt;InscripcionModule -->
<g id="edge7" class="edge">
<title>IdiomasModule&#45;&gt;InscripcionModule</title>
<path fill="none" stroke="#000000" d="M1608,-122.1871C1608,-137.1824 1608,-156 1608,-156 1608,-156 1517.2453,-156 1517.2453,-156"/>
<polygon fill="#000000" stroke="#000000" points="1517.2453,-152.5001 1507.2453,-156 1517.2452,-159.5001 1517.2453,-152.5001"/>
</g>
<!-- FormacionAcademicaModule -->
<g id="node8" class="node">
<title>FormacionAcademicaModule</title>
<polygon fill="#8dd3c7" stroke="#000000" points="1537.6643,-122 1534.6643,-126 1513.6643,-126 1510.6643,-122 1354.3357,-122 1354.3357,-86 1537.6643,-86 1537.6643,-122"/>
<text text-anchor="middle" x="1446" y="-99.8" font-family="Times,serif" font-size="14.00" fill="#000000">FormacionAcademicaModule</text>
</g>
<!-- FormacionAcademicaModule&#45;&gt;InscripcionModule -->
<g id="edge8" class="edge">
<title>FormacionAcademicaModule&#45;&gt;InscripcionModule</title>
<path fill="none" stroke="#000000" d="M1446,-122.1061C1446,-122.1061 1446,-140.991 1446,-140.991"/>
<polygon fill="#000000" stroke="#000000" points="1442.5001,-140.9909 1446,-150.991 1449.5001,-140.991 1442.5001,-140.9909"/>
</g>
<!-- ExperienciaLaboralModule -->
<g id="node9" class="node">
<title>ExperienciaLaboralModule</title>
<polygon fill="#8dd3c7" stroke="#000000" points="1335.9356,-122 1332.9356,-126 1311.9356,-126 1308.9356,-122 1166.0644,-122 1166.0644,-86 1335.9356,-86 1335.9356,-122"/>
<text text-anchor="middle" x="1251" y="-99.8" font-family="Times,serif" font-size="14.00" fill="#000000">ExperienciaLaboralModule</text>
</g>
<!-- ExperienciaLaboralModule&#45;&gt;InscripcionModule -->
<g id="edge9" class="edge">
<title>ExperienciaLaboralModule&#45;&gt;InscripcionModule</title>
<path fill="none" stroke="#000000" d="M1251,-122.1871C1251,-137.1824 1251,-156 1251,-156 1251,-156 1374.8358,-156 1374.8358,-156"/>
<polygon fill="#000000" stroke="#000000" points="1374.8358,-159.5001 1384.8358,-156 1374.8358,-152.5001 1374.8358,-159.5001"/>
</g>
<!-- ImplicitAutenticationService -->
<g id="node11" class="node">
<title>ImplicitAutenticationService</title>
<ellipse fill="#fdb462" stroke="#000000" cx="1019" cy="-104" rx="123.2649" ry="18"/>
<text text-anchor="middle" x="1019" y="-99.8" font-family="Times,serif" font-size="14.00" fill="#000000">ImplicitAutenticationService</text>
</g>
<!-- ImplicitAutenticationService&#45;&gt;InscripcionModule -->
<g id="edge10" class="edge">
<title>ImplicitAutenticationService&#45;&gt;InscripcionModule</title>
<path fill="none" stroke="#000000" d="M1019,-122.027C1019,-138.3976 1019,-160 1019,-160 1019,-160 1374.8213,-160 1374.8213,-160"/>
<polygon fill="#000000" stroke="#000000" points="1374.8213,-163.5001 1384.8213,-160 1374.8213,-156.5001 1374.8213,-163.5001"/>
</g>
<!-- NuxeoService -->
<g id="node12" class="node">
<title>NuxeoService</title>
<ellipse fill="#fdb462" stroke="#000000" cx="812" cy="-104" rx="65.9716" ry="18"/>
<text text-anchor="middle" x="812" y="-99.8" font-family="Times,serif" font-size="14.00" fill="#000000">NuxeoService</text>
</g>
<!-- NuxeoService&#45;&gt;InscripcionModule -->
<g id="edge11" class="edge">
<title>NuxeoService&#45;&gt;InscripcionModule</title>
<path fill="none" stroke="#000000" d="M812,-122.302C812,-140.2699 812,-165 812,-165 812,-165 1374.9217,-165 1374.9217,-165"/>
<polygon fill="#000000" stroke="#000000" points="1374.9217,-168.5001 1384.9217,-165 1374.9216,-161.5001 1374.9217,-168.5001"/>
</g>
<!-- PersonaService -->
<g id="node13" class="node">
<title>PersonaService</title>
<ellipse fill="#fdb462" stroke="#000000" cx="658" cy="-104" rx="70.622" ry="18"/>
<text text-anchor="middle" x="658" y="-99.8" font-family="Times,serif" font-size="14.00" fill="#000000">PersonaService</text>
</g>
<!-- PersonaService&#45;&gt;InscripcionModule -->
<g id="edge12" class="edge">
<title>PersonaService&#45;&gt;InscripcionModule</title>
<path fill="none" stroke="#000000" d="M658,-122.1061C658,-141.3391 658,-169 658,-169 658,-169 1374.8227,-169 1374.8227,-169"/>
<polygon fill="#000000" stroke="#000000" points="1374.8227,-172.5001 1384.8227,-169 1374.8226,-165.5001 1374.8227,-172.5001"/>
</g>
<!-- CampusMidService -->
<g id="node14" class="node">
<title>CampusMidService</title>
<ellipse fill="#fdb462" stroke="#000000" cx="482" cy="-104" rx="87.98" ry="18"/>
<text text-anchor="middle" x="482" y="-99.8" font-family="Times,serif" font-size="14.00" fill="#000000">CampusMidService</text>
</g>
<!-- CampusMidService&#45;&gt;InscripcionModule -->
<g id="edge13" class="edge">
<title>CampusMidService&#45;&gt;InscripcionModule</title>
<path fill="none" stroke="#000000" d="M482,-122.0267C482,-142.7672 482,-174 482,-174 482,-174 1374.9662,-174 1374.9662,-174"/>
<polygon fill="#000000" stroke="#000000" points="1374.9662,-177.5001 1384.9662,-174 1374.9661,-170.5001 1374.9662,-177.5001"/>
</g>
<!-- UbicacionesService -->
<g id="node15" class="node">
<title>UbicacionesService</title>
<ellipse fill="#fdb462" stroke="#000000" cx="289" cy="-104" rx="87.9374" ry="18"/>
<text text-anchor="middle" x="289" y="-99.8" font-family="Times,serif" font-size="14.00" fill="#000000">UbicacionesService</text>
</g>
<!-- UbicacionesService&#45;&gt;InscripcionModule -->
<g id="edge14" class="edge">
<title>UbicacionesService&#45;&gt;InscripcionModule</title>
<path fill="none" stroke="#000000" d="M289,-122.2921C289,-144.2057 289,-178 289,-178 289,-178 1374.6115,-178 1374.6115,-178"/>
<polygon fill="#000000" stroke="#000000" points="1374.6116,-181.5001 1384.6115,-178 1374.6115,-174.5001 1374.6116,-181.5001"/>
</g>
<!-- UtilidadesService -->
<g id="node16" class="node">
<title>UtilidadesService</title>
<ellipse fill="#fdb462" stroke="#000000" cx="104" cy="-104" rx="79.8682" ry="18"/>
<text text-anchor="middle" x="104" y="-99.8" font-family="Times,serif" font-size="14.00" fill="#000000">UtilidadesService</text>
</g>
<!-- UtilidadesService&#45;&gt;InscripcionModule -->
<g id="edge15" class="edge">
<title>UtilidadesService&#45;&gt;InscripcionModule</title>
<path fill="none" stroke="#000000" d="M104,-122.3228C104,-145.6602 104,-183 104,-183 104,-183 1374.8498,-183 1374.8498,-183"/>
<polygon fill="#000000" stroke="#000000" points="1374.8499,-186.5001 1384.8498,-183 1374.8498,-179.5001 1374.8499,-186.5001"/>
</g>
</g>
</svg>
