<?xml version="1.0" encoding="iso-8859-1"?>
<!-- Generator: Adobe Illustrator 16.0.0, SVG Export Plug-In . SVG Version: 6.00 Build 0)  -->
<!DOCTYPE svg PUBLIC "-//W3C//DTD SVG 1.1//EN" "http://www.w3.org/Graphics/SVG/1.1/DTD/svg11.dtd">
<svg version="1.1" id="Capa_1" xmlns="http://www.w3.org/2000/svg" xmlns:xlink="http://www.w3.org/1999/xlink" x="0px" y="0px"
	 width="395.71px" height="395.71px" viewBox="0 0 395.71 395.71" style="enable-background:new 0 0 395.71 395.71;"
	 xml:space="preserve">
<g>
	<path fill="#FFFFFF" d="M197.849,0C122.131,0,60.531,61.609,60.531,137.329c0,72.887,124.591,243.177,129.896,250.388l4.951,6.738
		c0.579,0.792,1.501,1.255,2.471,1.255c0.985,0,1.901-0.463,2.486-1.255l4.948-6.738c5.308-7.211,129.896-177.501,129.896-250.388
		C335.179,61.609,273.569,0,197.849,0z M197.849,88.138c27.13,0,49.191,22.062,49.191,49.191c0,27.115-22.062,49.191-49.191,49.191
		c-27.114,0-49.191-22.076-49.191-49.191C148.658,110.2,170.734,88.138,197.849,88.138z"/>
</g>
</svg>
