<?xml version="1.0" encoding="UTF-8" standalone="no"?>
<!DOCTYPE svg PUBLIC "-//W3C//DTD SVG 1.1//EN"
 "http://www.w3.org/Graphics/SVG/1.1/DTD/svg11.dtd">
<!-- Generated by graphviz version 2.40.1 (20161225.0304)
 -->
<!-- Title: dependencies Pages: 1 -->
<svg width="716pt" height="284pt"
 viewBox="0.00 0.00 716.00 284.00" xmlns="http://www.w3.org/2000/svg" xmlns:xlink="http://www.w3.org/1999/xlink">
<g id="graph0" class="graph" transform="scale(1 1) rotate(0) translate(4 280)">
<title>dependencies</title>
<polygon fill="#ffffff" stroke="transparent" points="-4,4 -4,-280 712,-280 712,4 -4,4"/>
<text text-anchor="start" x="333.0091" y="-42.4" font-family="sans-serif" font-weight="bold" font-size="14.00" fill="#000000">Legend</text>
<polygon fill="#ffffb3" stroke="transparent" points="120,-10 120,-30 140,-30 140,-10 120,-10"/>
<text text-anchor="start" x="143.629" y="-15.4" font-family="sans-serif" font-size="14.00" fill="#000000"> &#160;Declarations</text>
<polygon fill="#8dd3c7" stroke="transparent" points="233,-10 233,-30 253,-30 253,-10 233,-10"/>
<text text-anchor="start" x="256.7251" y="-15.4" font-family="sans-serif" font-size="14.00" fill="#000000"> &#160;Module</text>
<polygon fill="#80b1d3" stroke="transparent" points="319,-10 319,-30 339,-30 339,-10 319,-10"/>
<text text-anchor="start" x="342.7812" y="-15.4" font-family="sans-serif" font-size="14.00" fill="#000000"> &#160;Bootstrap</text>
<polygon fill="#fdb462" stroke="transparent" points="416,-10 416,-30 436,-30 436,-10 416,-10"/>
<text text-anchor="start" x="439.6732" y="-15.4" font-family="sans-serif" font-size="14.00" fill="#000000"> &#160;Providers</text>
<polygon fill="#fb8072" stroke="transparent" points="512,-10 512,-30 532,-30 532,-10 512,-10"/>
<text text-anchor="start" x="535.7258" y="-15.4" font-family="sans-serif" font-size="14.00" fill="#000000"> &#160;Exports</text>
<g id="clust1" class="cluster">
<title>cluster_FormacionAcademicaModule</title>
<polygon fill="none" stroke="#000000" stroke-dasharray="1,5" points="8,-70 8,-268 700,-268 700,-70 8,-70"/>
</g>
<g id="clust3" class="cluster">
<title>cluster_FormacionAcademicaModule_imports</title>
<polygon fill="none" stroke="#000000" points="216,-78 216,-130 692,-130 692,-78 216,-78"/>
</g>
<g id="clust4" class="cluster">
<title>cluster_FormacionAcademicaModule_exports</title>
<polygon fill="none" stroke="#000000" points="94,-208 94,-260 594,-260 594,-208 94,-208"/>
</g>
<g id="clust6" class="cluster">
<title>cluster_FormacionAcademicaModule_providers</title>
<polygon fill="none" stroke="#000000" points="16,-78 16,-130 208,-130 208,-78 16,-78"/>
</g>
<!-- ThemeModule -->
<g id="node1" class="node">
<title>ThemeModule</title>
<polygon fill="#8dd3c7" stroke="#000000" points="684.4231,-122 681.4231,-126 660.4231,-126 657.4231,-122 585.5769,-122 585.5769,-86 684.4231,-86 684.4231,-122"/>
<text text-anchor="middle" x="635" y="-99.8" font-family="Times,serif" font-size="14.00" fill="#000000">ThemeModule</text>
</g>
<!-- FormacionAcademicaModule -->
<g id="node4" class="node">
<title>FormacionAcademicaModule</title>
<polygon fill="#8dd3c7" stroke="#000000" points="385.6643,-187 382.6643,-191 361.6643,-191 358.6643,-187 202.3357,-187 202.3357,-151 385.6643,-151 385.6643,-187"/>
<text text-anchor="middle" x="294" y="-164.8" font-family="Times,serif" font-size="14.00" fill="#000000">FormacionAcademicaModule</text>
</g>
<!-- ThemeModule&#45;&gt;FormacionAcademicaModule -->
<g id="edge1" class="edge">
<title>ThemeModule&#45;&gt;FormacionAcademicaModule</title>
<path fill="none" stroke="#000000" d="M635.2166,-122.1061C635.2166,-141.3391 635.2166,-169 635.2166,-169 635.2166,-169 395.8886,-169 395.8886,-169"/>
<polygon fill="#000000" stroke="#000000" points="395.8887,-165.5001 385.8886,-169 395.8886,-172.5001 395.8887,-165.5001"/>
</g>
<!-- FormacionAcademicaRoutingModule -->
<g id="node2" class="node">
<title>FormacionAcademicaRoutingModule</title>
<polygon fill="#8dd3c7" stroke="#000000" points="568.2822,-122 565.2822,-126 544.2822,-126 541.2822,-122 339.7178,-122 339.7178,-86 568.2822,-86 568.2822,-122"/>
<text text-anchor="middle" x="454" y="-99.8" font-family="Times,serif" font-size="14.00" fill="#000000">FormacionAcademicaRoutingModule</text>
</g>
<!-- FormacionAcademicaRoutingModule&#45;&gt;FormacionAcademicaModule -->
<g id="edge2" class="edge">
<title>FormacionAcademicaRoutingModule&#45;&gt;FormacionAcademicaModule</title>
<path fill="none" stroke="#000000" d="M362.7206,-122.1061C362.7206,-122.1061 362.7206,-140.991 362.7206,-140.991"/>
<polygon fill="#000000" stroke="#000000" points="359.2206,-140.9909 362.7206,-150.991 366.2206,-140.991 359.2206,-140.9909"/>
</g>
<!-- SharedModule -->
<g id="node3" class="node">
<title>SharedModule</title>
<polygon fill="#8dd3c7" stroke="#000000" points="322.4231,-122 319.4231,-126 298.4231,-126 295.4231,-122 223.5769,-122 223.5769,-86 322.4231,-86 322.4231,-122"/>
<text text-anchor="middle" x="273" y="-99.8" font-family="Times,serif" font-size="14.00" fill="#000000">SharedModule</text>
</g>
<!-- SharedModule&#45;&gt;FormacionAcademicaModule -->
<g id="edge3" class="edge">
<title>SharedModule&#45;&gt;FormacionAcademicaModule</title>
<path fill="none" stroke="#000000" d="M273,-122.1061C273,-122.1061 273,-140.991 273,-140.991"/>
<polygon fill="#000000" stroke="#000000" points="269.5001,-140.9909 273,-150.991 276.5001,-140.991 269.5001,-140.9909"/>
</g>
<!-- CrudFormacionAcademicaComponent  -->
<g id="node5" class="node">
<title>CrudFormacionAcademicaComponent </title>
<polygon fill="#fb8072" stroke="#000000" points="586.4444,-252 349.5556,-252 349.5556,-216 586.4444,-216 586.4444,-252"/>
<text text-anchor="middle" x="468" y="-229.8" font-family="Times,serif" font-size="14.00" fill="#000000">CrudFormacionAcademicaComponent </text>
</g>
<!-- FormacionAcademicaModule&#45;&gt;CrudFormacionAcademicaComponent  -->
<g id="edge4" class="edge">
<title>FormacionAcademicaModule&#45;&gt;CrudFormacionAcademicaComponent </title>
<path fill="none" stroke="#000000" stroke-dasharray="5,2" d="M367.6801,-187.1061C367.6801,-187.1061 367.6801,-205.991 367.6801,-205.991"/>
<polygon fill="#000000" stroke="#000000" points="364.1801,-205.9909 367.6801,-215.991 371.1801,-205.991 364.1801,-205.9909"/>
</g>
<!-- ListFormacionAcademicaComponent  -->
<g id="node6" class="node">
<title>ListFormacionAcademicaComponent </title>
<polygon fill="#fb8072" stroke="#000000" points="332.2253,-252 101.7747,-252 101.7747,-216 332.2253,-216 332.2253,-252"/>
<text text-anchor="middle" x="217" y="-229.8" font-family="Times,serif" font-size="14.00" fill="#000000">ListFormacionAcademicaComponent </text>
</g>
<!-- FormacionAcademicaModule&#45;&gt;ListFormacionAcademicaComponent  -->
<g id="edge5" class="edge">
<title>FormacionAcademicaModule&#45;&gt;ListFormacionAcademicaComponent </title>
<path fill="none" stroke="#000000" stroke-dasharray="5,2" d="M267.2653,-187.1061C267.2653,-187.1061 267.2653,-205.991 267.2653,-205.991"/>
<polygon fill="#000000" stroke="#000000" points="263.7653,-205.9909 267.2653,-215.991 270.7653,-205.991 263.7653,-205.9909"/>
</g>
<!-- CampusMidService -->
<g id="node7" class="node">
<title>CampusMidService</title>
<ellipse fill="#fdb462" stroke="#000000" cx="112" cy="-104" rx="87.98" ry="18"/>
<text text-anchor="middle" x="112" y="-99.8" font-family="Times,serif" font-size="14.00" fill="#000000">CampusMidService</text>
</g>
<!-- CampusMidService&#45;&gt;FormacionAcademicaModule -->
<g id="edge6" class="edge">
<title>CampusMidService&#45;&gt;FormacionAcademicaModule</title>
<path fill="none" stroke="#000000" d="M199.8859,-104C207.9137,-104 213.1034,-104 213.1034,-104 213.1034,-104 213.1034,-140.8939 213.1034,-140.8939"/>
<polygon fill="#000000" stroke="#000000" points="209.6035,-140.8938 213.1034,-150.8939 216.6035,-140.8939 209.6035,-140.8938"/>
</g>
</g>
</svg>
