<?xml version="1.0" encoding="UTF-8" standalone="no"?>
<!DOCTYPE svg PUBLIC "-//W3C//DTD SVG 1.1//EN"
 "http://www.w3.org/Graphics/SVG/1.1/DTD/svg11.dtd">
<!-- Generated by graphviz version 2.40.1 (20161225.0304)
 -->
<!-- Title: dependencies Pages: 1 -->
<svg width="626pt" height="284pt"
 viewBox="0.00 0.00 626.00 284.00" xmlns="http://www.w3.org/2000/svg" xmlns:xlink="http://www.w3.org/1999/xlink">
<g id="graph0" class="graph" transform="scale(1 1) rotate(0) translate(4 280)">
<title>dependencies</title>
<polygon fill="#ffffff" stroke="transparent" points="-4,4 -4,-280 622,-280 622,4 -4,4"/>
<text text-anchor="start" x="288.0091" y="-42.4" font-family="sans-serif" font-weight="bold" font-size="14.00" fill="#000000">Legend</text>
<polygon fill="#ffffb3" stroke="transparent" points="75,-10 75,-30 95,-30 95,-10 75,-10"/>
<text text-anchor="start" x="98.629" y="-15.4" font-family="sans-serif" font-size="14.00" fill="#000000"> &#160;Declarations</text>
<polygon fill="#8dd3c7" stroke="transparent" points="188,-10 188,-30 208,-30 208,-10 188,-10"/>
<text text-anchor="start" x="211.7251" y="-15.4" font-family="sans-serif" font-size="14.00" fill="#000000"> &#160;Module</text>
<polygon fill="#80b1d3" stroke="transparent" points="274,-10 274,-30 294,-30 294,-10 274,-10"/>
<text text-anchor="start" x="297.7812" y="-15.4" font-family="sans-serif" font-size="14.00" fill="#000000"> &#160;Bootstrap</text>
<polygon fill="#fdb462" stroke="transparent" points="371,-10 371,-30 391,-30 391,-10 371,-10"/>
<text text-anchor="start" x="394.6732" y="-15.4" font-family="sans-serif" font-size="14.00" fill="#000000"> &#160;Providers</text>
<polygon fill="#fb8072" stroke="transparent" points="467,-10 467,-30 487,-30 487,-10 467,-10"/>
<text text-anchor="start" x="490.7258" y="-15.4" font-family="sans-serif" font-size="14.00" fill="#000000"> &#160;Exports</text>
<g id="clust1" class="cluster">
<title>cluster_EstadoCivilModule</title>
<polygon fill="none" stroke="#000000" stroke-dasharray="1,5" points="8,-70 8,-268 610,-268 610,-70 8,-70"/>
</g>
<g id="clust3" class="cluster">
<title>cluster_EstadoCivilModule_imports</title>
<polygon fill="none" stroke="#000000" points="182,-78 182,-130 602,-130 602,-78 182,-78"/>
</g>
<g id="clust4" class="cluster">
<title>cluster_EstadoCivilModule_exports</title>
<polygon fill="none" stroke="#000000" points="218,-208 218,-260 412,-260 412,-208 218,-208"/>
</g>
<g id="clust6" class="cluster">
<title>cluster_EstadoCivilModule_providers</title>
<polygon fill="none" stroke="#000000" points="16,-78 16,-130 174,-130 174,-78 16,-78"/>
</g>
<!-- ThemeModule -->
<g id="node1" class="node">
<title>ThemeModule</title>
<polygon fill="#8dd3c7" stroke="#000000" points="594.4231,-122 591.4231,-126 570.4231,-126 567.4231,-122 495.5769,-122 495.5769,-86 594.4231,-86 594.4231,-122"/>
<text text-anchor="middle" x="545" y="-99.8" font-family="Times,serif" font-size="14.00" fill="#000000">ThemeModule</text>
</g>
<!-- EstadoCivilModule -->
<g id="node4" class="node">
<title>EstadoCivilModule</title>
<polygon fill="#8dd3c7" stroke="#000000" points="377.6611,-187 374.6611,-191 353.6611,-191 350.6611,-187 252.3389,-187 252.3389,-151 377.6611,-151 377.6611,-187"/>
<text text-anchor="middle" x="315" y="-164.8" font-family="Times,serif" font-size="14.00" fill="#000000">EstadoCivilModule</text>
</g>
<!-- ThemeModule&#45;&gt;EstadoCivilModule -->
<g id="edge1" class="edge">
<title>ThemeModule&#45;&gt;EstadoCivilModule</title>
<path fill="none" stroke="#000000" d="M545,-122.1061C545,-141.3391 545,-169 545,-169 545,-169 387.8485,-169 387.8485,-169"/>
<polygon fill="#000000" stroke="#000000" points="387.8485,-165.5001 377.8485,-169 387.8485,-172.5001 387.8485,-165.5001"/>
</g>
<!-- EstadoCivilRoutingModule -->
<g id="node2" class="node">
<title>EstadoCivilRoutingModule</title>
<polygon fill="#8dd3c7" stroke="#000000" points="477.2785,-122 474.2785,-126 453.2785,-126 450.2785,-122 306.7215,-122 306.7215,-86 477.2785,-86 477.2785,-122"/>
<text text-anchor="middle" x="392" y="-99.8" font-family="Times,serif" font-size="14.00" fill="#000000">EstadoCivilRoutingModule</text>
</g>
<!-- EstadoCivilRoutingModule&#45;&gt;EstadoCivilModule -->
<g id="edge2" class="edge">
<title>EstadoCivilRoutingModule&#45;&gt;EstadoCivilModule</title>
<path fill="none" stroke="#000000" d="M342.2206,-122.1061C342.2206,-122.1061 342.2206,-140.991 342.2206,-140.991"/>
<polygon fill="#000000" stroke="#000000" points="338.7206,-140.9909 342.2206,-150.991 345.7206,-140.991 338.7206,-140.9909"/>
</g>
<!-- SharedModule -->
<g id="node3" class="node">
<title>SharedModule</title>
<polygon fill="#8dd3c7" stroke="#000000" points="288.4231,-122 285.4231,-126 264.4231,-126 261.4231,-122 189.5769,-122 189.5769,-86 288.4231,-86 288.4231,-122"/>
<text text-anchor="middle" x="239" y="-99.8" font-family="Times,serif" font-size="14.00" fill="#000000">SharedModule</text>
</g>
<!-- SharedModule&#45;&gt;EstadoCivilModule -->
<g id="edge3" class="edge">
<title>SharedModule&#45;&gt;EstadoCivilModule</title>
<path fill="none" stroke="#000000" d="M270.1904,-122.1061C270.1904,-122.1061 270.1904,-140.991 270.1904,-140.991"/>
<polygon fill="#000000" stroke="#000000" points="266.6905,-140.9909 270.1904,-150.991 273.6905,-140.991 266.6905,-140.9909"/>
</g>
<!-- CrudEstadoCivilComponent  -->
<g id="node5" class="node">
<title>CrudEstadoCivilComponent </title>
<polygon fill="#fb8072" stroke="#000000" points="404.4404,-252 225.5596,-252 225.5596,-216 404.4404,-216 404.4404,-252"/>
<text text-anchor="middle" x="315" y="-229.8" font-family="Times,serif" font-size="14.00" fill="#000000">CrudEstadoCivilComponent </text>
</g>
<!-- EstadoCivilModule&#45;&gt;CrudEstadoCivilComponent  -->
<g id="edge4" class="edge">
<title>EstadoCivilModule&#45;&gt;CrudEstadoCivilComponent </title>
<path fill="none" stroke="#000000" stroke-dasharray="5,2" d="M315,-187.1061C315,-187.1061 315,-205.991 315,-205.991"/>
<polygon fill="#000000" stroke="#000000" points="311.5001,-205.9909 315,-215.991 318.5001,-205.991 311.5001,-205.9909"/>
</g>
<!-- PersonaService -->
<g id="node6" class="node">
<title>PersonaService</title>
<ellipse fill="#fdb462" stroke="#000000" cx="95" cy="-104" rx="70.622" ry="18"/>
<text text-anchor="middle" x="95" y="-99.8" font-family="Times,serif" font-size="14.00" fill="#000000">PersonaService</text>
</g>
<!-- PersonaService&#45;&gt;EstadoCivilModule -->
<g id="edge5" class="edge">
<title>PersonaService&#45;&gt;EstadoCivilModule</title>
<path fill="none" stroke="#000000" d="M95,-122.1061C95,-141.3391 95,-169 95,-169 95,-169 242.2513,-169 242.2513,-169"/>
<polygon fill="#000000" stroke="#000000" points="242.2513,-172.5001 252.2513,-169 242.2512,-165.5001 242.2513,-172.5001"/>
</g>
</g>
</svg>
